<?xml version="1.0" encoding="utf-8"?>
<!-- Generator: Adobe Illustrator 24.0.1, SVG Export Plug-In . SVG Version: 6.00 Build 0)  -->
<svg version="1.1" id="Layer_1" xmlns="http://www.w3.org/2000/svg" xmlns:xlink="http://www.w3.org/1999/xlink" x="0px" y="0px"
	 viewBox="0 0 300 300" style="enable-background:new 0 0 300 300;" xml:space="preserve">
<path d="M112.5,49.54H11.72C5.25,49.54,0,44.29,0,37.82v0C0,31.35,5.25,26.1,11.72,26.1H112.5c6.47,0,11.72,5.25,11.72,11.72v0
	C124.22,44.29,118.97,49.54,112.5,49.54z M89.06,72.98H11.72C5.25,72.98,0,78.23,0,84.7v0c0,6.47,5.25,11.72,11.72,11.72h77.34
	c6.47,0,11.72-5.25,11.72-11.72v0C100.78,78.23,95.53,72.98,89.06,72.98z M65.63,119.85H11.72C5.25,119.85,0,125.1,0,131.57v0
	c0,6.47,5.25,11.72,11.72,11.72h53.91c6.47,0,11.72-5.25,11.72-11.72v0C77.34,125.1,72.1,119.85,65.63,119.85z M278.72,250.52
	h-27.62c-4.84,13.64-17.86,23.44-33.14,23.44s-28.3-9.8-33.14-23.44h-72.59c-4.84,13.64-17.86,23.44-33.14,23.44
	s-28.3-9.8-33.14-23.44H35.16C15.74,250.52,0,234.78,0,215.36l0-36.91c0-6.47,5.25-11.72,11.72-11.72h0
	c6.47,0,11.72,5.25,11.72,11.72v36.91c0,6.47,5.25,11.72,11.72,11.72h10.81c4.84-13.64,17.86-23.44,33.14-23.44
	s28.3,9.8,33.14,23.44h70.57V61.2c0-6.47-5.25-11.72-11.72-11.72h-11.72c-6.47,0-11.72-5.25-11.72-11.72v0
	c0-6.47,5.25-11.72,11.72-11.72h11.72c19.42,0,35.16,15.74,35.16,35.16v23.5h23.48c11.03,0,21.42,5.18,28.06,13.98l32.75,43.39
	c6.14,8.13,9.46,18.05,9.46,28.24v58.94C300,240.99,290.47,250.52,278.72,250.52z M206.25,108.14v43.95h62.48l-29.65-39.29
	c-2.2-2.92-5.7-4.66-9.35-4.66H206.25z M90.82,238.8c0-6.46-5.26-11.72-11.72-11.72s-11.72,5.26-11.72,11.72
	c0,6.46,5.26,11.72,11.72,11.72S90.82,245.26,90.82,238.8z M229.69,238.8c0-6.46-5.26-11.72-11.72-11.72s-11.72,5.26-11.72,11.72
	c0,6.46,5.26,11.72,11.72,11.72S229.69,245.26,229.69,238.8z M276.56,220.85v-45.33h-70.31v30.14c3.67-1.3,7.61-2.01,11.72-2.01
	c15.28,0,28.3,9.8,33.14,23.44h19.22C273.77,227.08,276.56,224.29,276.56,220.85z"/>
</svg>
