<?xml version="1.0" encoding="utf-8"?>
<!-- Generator: Adobe Illustrator 24.0.1, SVG Export Plug-In . SVG Version: 6.00 Build 0)  -->
<svg version="1.1" id="Layer_1" xmlns="http://www.w3.org/2000/svg" xmlns:xlink="http://www.w3.org/1999/xlink" x="0px" y="0px"
	 viewBox="0 0 300 300" style="enable-background:new 0 0 300 300;" xml:space="preserve">
<style type="text/css">
	.st0{fill:#90A0B2;}
</style>
<path class="st0" d="M247.5,71.4V0h-195v71.4c-0.01,15.92,6.3,31.19,17.55,42.45l36.3,36.15l-36.3,36.15
	C58.88,197.47,52.58,212.7,52.5,228.6V300h195v-71.4c-0.08-15.9-6.38-31.13-17.55-42.45L193.65,150l36.3-36.15
	C241.2,102.59,247.51,87.32,247.5,71.4z M217.5,71.4c-0.03,7.94-3.22,15.55-8.85,21.15l-41.4,41.55c-8.77,8.78-8.77,23.02,0,31.8
	l41.4,41.55c5.63,5.6,8.82,13.21,8.85,21.15V270h-135v-41.4c0.03-7.94,3.22-15.55,8.85-21.15l41.4-41.55
	c8.77-8.78,8.77-23.02,0-31.8l-41.4-41.55c-5.63-5.6-8.82-13.21-8.85-21.15V30h135V71.4z"/>
</svg>
