<?xml version="1.0" encoding="utf-8"?>
<!-- Generator: Adobe Illustrator 24.0.1, SVG Export Plug-In . SVG Version: 6.00 Build 0)  -->
<svg version="1.1" id="Layer_1" xmlns="http://www.w3.org/2000/svg" xmlns:xlink="http://www.w3.org/1999/xlink" x="0px" y="0px"
	 viewBox="0 0 300 300" style="enable-background:new 0 0 300 300;" xml:space="preserve">
<g id="_17-tablet_1_">
	<g>
		<path d="M234.39,299.85H65.64c-15.51,0-28.12-12.62-28.12-28.13V27.98c0-15.51,12.62-28.13,28.12-28.13h168.75
			c15.51,0,28.12,12.62,28.12,28.13v243.75C262.51,287.24,249.89,299.85,234.39,299.85z M65.64,18.6c-5.17,0-9.37,4.21-9.37,9.38
			v243.75c0,5.17,4.21,9.38,9.37,9.38h168.75c5.17,0,9.38-4.2,9.38-9.38V27.98c0-5.17-4.2-9.38-9.38-9.38H65.64z"/>
	</g>
	<g>
		<path d="M168.76,262.35h-37.5c-5.18,0-9.38-4.19-9.38-9.37c0-5.18,4.2-9.38,9.38-9.38h37.5c5.18,0,9.38,4.19,9.38,9.38
			C178.14,258.16,173.94,262.35,168.76,262.35z"/>
	</g>
</g>
</svg>
