<?xml version="1.0" encoding="utf-8"?>
<!-- Generator: Adobe Illustrator 24.0.1, SVG Export Plug-In . SVG Version: 6.00 Build 0)  -->
<svg version="1.1" id="Layer_1" xmlns="http://www.w3.org/2000/svg" xmlns:xlink="http://www.w3.org/1999/xlink" x="0px" y="0px"
	 viewBox="0 0 300 300" style="enable-background:new 0 0 300 300;" xml:space="preserve">
<style type="text/css">
	.st0{clip-path:url(#SVGID_2_);}
	.st1{clip-path:url(#SVGID_4_);}
	.st2{opacity:0.1;}
	.st3{clip-path:url(#SVGID_6_);}
	.st4{opacity:0.2;}
	.st5{clip-path:url(#SVGID_8_);}
	.st6{clip-path:url(#SVGID_10_);}
	.st7{clip-path:url(#SVGID_12_);}
</style>
<g id="Group_2916" transform="translate(-12473.178 3621.986)">
	<g>
		<defs>
			<rect id="SVGID_1_" x="12498.18" y="-3621.99" width="249.99" height="300"/>
		</defs>
		<clipPath id="SVGID_2_">
			<use xlink:href="#SVGID_1_"  style="overflow:visible;"/>
		</clipPath>
		<g id="Group_2915" class="st0">
			<g id="Group_2914">
				<g>
					<defs>
						<rect id="SVGID_3_" x="12498.18" y="-3621.99" width="249.99" height="300"/>
					</defs>
					<clipPath id="SVGID_4_">
						<use xlink:href="#SVGID_3_"  style="overflow:visible;"/>
					</clipPath>
					<g id="Group_2913" class="st1">
						<path id="Path_7419" d="M12698.22-3465.74c0.01-26.01,14.71-49.79,37.98-61.42c-13.93-12.42-31.83-19.45-50.49-19.83
							c-10.1,0.21-20.05,2.42-29.3,6.49c-8.5,3.78-17.67,5.82-26.97,6.01c-9.3-0.18-18.47-2.23-26.97-6.01
							c-9.24-4.07-19.2-6.28-29.3-6.49c-7.68,0-75.02,2.45-75.02,87.56c0,69.55,47.46,137.49,75.02,137.49
							c12.11,0.12,24.1-2.42,35.13-7.43c6.6-3.18,13.8-4.91,21.12-5.07c7.32,0.16,14.53,1.89,21.13,5.07
							c11.03,5,23.02,7.53,35.12,7.41c19.29,0,46.85-33.39,62.46-77.28c-29.97-8.01-50.6-35.46-49.96-66.47"/>
						<path id="Path_7420" d="M12623.21-3546.98c36.31-6.46,62.69-38.12,62.51-75
							C12649.4-3615.52,12623.02-3583.86,12623.21-3546.98"/>
						<g id="Group_2903" transform="translate(0 5.443)" class="st2">
							<g id="Group_2902">
								<g>
									<defs>
										<rect id="SVGID_5_" x="12498.18" y="-3552.43" width="238.02" height="89.22"/>
									</defs>
									<clipPath id="SVGID_6_">
										<use xlink:href="#SVGID_5_"  style="overflow:visible;"/>
									</clipPath>
									<g id="Group_2901" class="st3">
										<path id="Path_7421" d="M12573.2-3549.3c10.1,0.21,20.05,2.42,29.3,6.49c8.5,3.78,17.67,5.82,26.97,6.01
											c9.3-0.19,18.47-2.23,26.97-6.01c9.24-4.07,19.2-6.28,29.3-6.49c17.63,0.48,34.61,6.82,48.23,18.02
											c0.76-0.41,1.46-0.92,2.23-1.38c-13.93-12.42-31.83-19.45-50.49-19.83c-10.1,0.21-20.05,2.42-29.3,6.49
											c-8.5,3.78-17.67,5.82-26.97,6.01c-9.3-0.18-18.47-2.23-26.97-6.01c-9.24-4.07-19.2-6.28-29.3-6.49
											c-7.66,0.06-74.99,2.51-74.99,87.6c0,0.58,0,1.14,0.07,1.72c0.79-83.59,67.31-86.1,74.95-86.1"/>
									</g>
								</g>
							</g>
						</g>
						<g id="Group_2906" transform="translate(0 11.691)" class="st4">
							<g id="Group_2905">
								<g>
									<defs>
										<rect id="SVGID_7_" x="12498.18" y="-3472.58" width="249.99" height="138.9"/>
									</defs>
									<clipPath id="SVGID_8_">
										<use xlink:href="#SVGID_7_"  style="overflow:visible;"/>
									</clipPath>
									<g id="Group_2904" class="st5">
										<path id="Path_7422" d="M12685.71-3336.8c-12.11,0.12-24.1-2.41-35.13-7.41c-6.6-3.18-13.8-4.91-21.13-5.07
											c-7.32,0.16-14.53,1.89-21.12,5.07c-11.03,5.01-23.01,7.55-35.13,7.43c-27.33,0-74.18-66.83-74.95-135.77
											c0,0.5-0.07,0.91-0.07,1.38c0,69.55,47.46,137.49,75.02,137.49c12.11,0.12,24.1-2.42,35.13-7.43
											c6.6-3.18,13.8-4.91,21.12-5.07c7.32,0.16,14.53,1.89,21.13,5.07c11.03,5,23.02,7.53,35.13,7.41
											c19.29,0,46.85-33.39,62.46-77.28c-0.36-0.1-0.69-0.26-1.05-0.37c-15.89,42.5-42.52,74.51-61.42,74.51"/>
									</g>
								</g>
							</g>
						</g>
						<g id="Group_2909" transform="translate(9.073 0.236)" class="st4">
							<g id="Group_2908">
								<g>
									<defs>
										<rect id="SVGID_9_" x="12614.13" y="-3618.97" width="62.48" height="71.74"/>
									</defs>
									<clipPath id="SVGID_10_">
										<use xlink:href="#SVGID_9_"  style="overflow:visible;"/>
									</clipPath>
									<g id="Group_2907" class="st6">
										<path id="Path_7423" d="M12676.35-3616.7c-3.1,33.73-28.71,61.04-62.17,66.31c0,1.09,0,2.07,0,3.17
											c35.07-6.31,61.04-36.14,62.46-71.74c-0.11,0.58,0,1.57-0.25,2.27"/>
									</g>
								</g>
							</g>
						</g>
						<g id="Group_2912" transform="translate(9.076)" class="st2">
							<g id="Group_2911">
								<g>
									<defs>
										<rect id="SVGID_11_" x="12614.17" y="-3621.99" width="62.46" height="71.68"/>
									</defs>
									<clipPath id="SVGID_12_">
										<use xlink:href="#SVGID_11_"  style="overflow:visible;"/>
									</clipPath>
									<g id="Group_2910" class="st7">
										<path id="Path_7424" d="M12614.17-3550.32c0.15-0.81,0.33-3.09,0.51-4.45c0.13-1.72,0.32-3.41,0.56-5.07
											c5.41-30.91,30.24-54.74,61.35-58.88c0-1.09,0-2.16,0-3.27c-35.07,6.24-61.07,36.06-62.46,71.66"/>
									</g>
								</g>
							</g>
						</g>
						<path id="Path_7425" d="M12698.22-3465.74c0.01-26.01,14.71-49.79,37.98-61.42c-13.93-12.42-31.83-19.45-50.49-19.83
							c-10.1,0.21-20.05,2.42-29.3,6.49c-8.5,3.78-17.67,5.82-26.97,6.01c-9.29-0.19-18.46-2.23-26.95-6.01
							c-9.24-4.07-19.2-6.28-29.3-6.49c-7.69,0-75.02,2.45-75.02,87.5c0,69.55,47.46,137.49,75.02,137.49
							c12.11,0.12,24.1-2.42,35.13-7.43c6.6-3.18,13.8-4.91,21.12-5.07c7.32,0.16,14.53,1.89,21.13,5.07
							c11.03,5,23.02,7.53,35.12,7.41c19.29,0,46.85-33.39,62.46-77.28c-29.97-8.01-50.6-35.46-49.96-66.47 M12685.71-3621.99
							c-36.31,6.46-62.69,38.12-62.51,75C12659.51-3553.45,12685.9-3585.11,12685.71-3621.99"/>
					</g>
				</g>
			</g>
		</g>
	</g>
</g>
</svg>
