<?xml version="1.0" encoding="utf-8"?>
<!-- Generator: Adobe Illustrator 24.0.1, SVG Export Plug-In . SVG Version: 6.00 Build 0)  -->
<svg version="1.1" id="Layer_1" xmlns="http://www.w3.org/2000/svg" xmlns:xlink="http://www.w3.org/1999/xlink" x="0px" y="0px"
	 viewBox="0 0 300 300" style="enable-background:new 0 0 300 300;" xml:space="preserve">
<style type="text/css">
	.st0{fill:#90A0B2;}
</style>
<g id="Layer_1_1_">
	<g>
		<g>
			<g>
				<path class="st0" d="M152.44,239.21c-2.95,0-5.83-1.15-7.99-3.31l-80.35-80.35c-3.1-3.1-4.13-7.72-2.63-11.84
					c6.81-18.78,16.2-36.5,27.89-52.68c6.56-9.25,14.28-18.35,22.88-26.94C158.86,17.46,223.22-5.5,288.78,1.12
					c5.34,0.54,9.57,4.76,10.1,10.1c6.61,65.57-16.35,129.92-62.98,176.55c-8.59,8.59-17.69,16.31-27.03,22.94
					c-16.09,11.63-33.81,21.01-52.59,27.83C155.03,238.99,153.73,239.21,152.44,239.21z M85.25,144.77l69.99,69.99
					c14.35-5.82,27.94-13.34,40.5-22.41c8.39-5.95,16.51-12.84,24.2-20.54c0,0,0,0,0,0c39.59-39.59,60.15-93.42,57.2-148.93
					c-55.5-2.94-109.34,17.61-148.93,57.2c-7.7,7.7-14.6,15.82-20.49,24.12C98.59,116.81,91.06,130.42,85.25,144.77z"/>
			</g>
		</g>
		<g>
			<g>
				<path class="st0" d="M158.61,300c-16.88,0-33.77-6.43-46.62-19.28c-10.83-10.83-17.58-25.19-19.02-40.46
					c-0.58-6.17,3.92-11.65,10.08-12.29c15.2-1.58,30.51-5.16,45.49-10.65c16.84-6.11,32.71-14.51,47.18-24.97
					c4.98-3.6,11.93-2.56,15.63,2.36c19.57,25.97,16.94,62.95-6.13,86.02C192.38,293.57,175.5,300,158.61,300z M117.8,248.76
					c2.13,5.97,5.56,11.38,10.17,15.99c16.9,16.9,44.4,16.9,61.29,0c12.55-12.54,15.9-31.34,9.4-47.1
					c-13.3,8.49-27.51,15.49-42.38,20.89C143.63,243.17,130.73,246.6,117.8,248.76z"/>
			</g>
			<g>
				<path class="st0" d="M60.81,207.07c-0.36,0-0.71-0.02-1.07-0.05c-15.26-1.44-29.63-8.19-40.46-19.02
					c-25.71-25.71-25.71-67.53,0-93.24c23.07-23.07,60.05-25.71,86.02-6.13c4.91,3.7,5.96,10.65,2.36,15.63
					c-10.46,14.48-18.86,30.34-24.96,47.15c-5.5,15.02-9.09,30.33-10.66,45.53C71.43,202.75,66.53,207.07,60.81,207.07z M65.92,98.1
					c-11.17,0-22.3,4.28-30.67,12.64c-16.9,16.9-16.9,44.39,0,61.29c4.61,4.61,10.03,8.04,16,10.17
					c2.16-12.93,5.58-25.84,10.23-38.52c5.39-14.84,12.39-29.04,20.88-42.35C77.1,99.17,71.5,98.1,65.92,98.1z"/>
			</g>
		</g>
		<g>
			<path class="st0" d="M212.7,120.45c-8.85,0-17.18-3.45-23.44-9.71c-12.92-12.93-12.92-33.95,0-46.88
				c6.26-6.26,14.58-9.71,23.44-9.71c8.85,0,17.18,3.45,23.44,9.71c12.92,12.92,12.92,33.95,0,46.88
				C229.88,117,221.55,120.45,212.7,120.45z M212.7,76.74c-2.82,0-5.47,1.1-7.47,3.09c-4.12,4.12-4.12,10.82,0,14.93
				c1.99,2,4.65,3.09,7.47,3.09c2.82,0,5.47-1.1,7.47-3.09c4.12-4.12,4.12-10.82,0-14.94C218.17,77.84,215.52,76.74,212.7,76.74z"/>
		</g>
	</g>
</g>
</svg>
