<?xml version="1.0" encoding="utf-8"?>
<!-- Generator: Adobe Illustrator 24.0.1, SVG Export Plug-In . SVG Version: 6.00 Build 0)  -->
<svg version="1.1" id="Layer_1" xmlns="http://www.w3.org/2000/svg" xmlns:xlink="http://www.w3.org/1999/xlink" x="0px" y="0px"
	 viewBox="0 0 300 300" style="enable-background:new 0 0 300 300;" xml:space="preserve">
<style type="text/css">
	.st0{fill:#1D1D1B;}
</style>
<g>
	<path class="st0" d="M299.92,84.14c0.01-0.14,0.08-0.25,0.08-0.39c0-0.45-0.2-0.84-0.26-1.27c-0.09-0.65-0.16-1.29-0.39-1.91
		c-0.21-0.58-0.53-1.06-0.84-1.58c-0.31-0.51-0.58-1.02-0.99-1.47c-0.44-0.49-0.98-0.85-1.51-1.24c-0.35-0.26-0.61-0.61-1-0.82
		L154.38,1.02c-0.27-0.14-0.57-0.14-0.85-0.25c-0.59-0.24-1.16-0.4-1.79-0.52c-0.59-0.11-1.16-0.19-1.75-0.19
		c-0.59,0-1.16,0.07-1.75,0.19c-0.63,0.12-1.21,0.28-1.8,0.53c-0.27,0.11-0.56,0.1-0.83,0.24L4.99,75.46c-0.4,0.21-0.65,0.57-1,0.82
		c-0.54,0.39-1.07,0.75-1.51,1.24c-0.41,0.45-0.68,0.96-0.99,1.47c-0.31,0.52-0.63,1-0.84,1.58c-0.23,0.62-0.29,1.25-0.39,1.91
		C0.2,82.91,0,83.3,0,83.75c0,0.14,0.07,0.25,0.08,0.39c0.03,0.62,0.22,1.21,0.37,1.83c0.15,0.61,0.26,1.22,0.53,1.78
		c0.06,0.12,0.05,0.26,0.11,0.38c0.12,0.23,0.36,0.31,0.5,0.52c0.66,1.05,1.5,1.92,2.51,2.63c0.34,0.24,0.62,0.48,0.99,0.67
		c1.3,0.69,2.72,1.17,4.29,1.17h281.25c1.57,0,2.99-0.49,4.29-1.17c0.36-0.19,0.65-0.43,0.99-0.67c1.01-0.71,1.84-1.58,2.51-2.63
		c0.13-0.21,0.38-0.3,0.5-0.52c0.06-0.12,0.05-0.26,0.11-0.38c0.27-0.56,0.37-1.17,0.53-1.78C299.7,85.35,299.9,84.76,299.92,84.14z
		 M150,19.92l102.87,54.45H47.13L150,19.92z"/>
	<path class="st0" d="M116.31,230.69c0,5.18,4.2,9.38,9.38,9.38h48.63c5.18,0,9.38-4.2,9.38-9.38c0-4.01-2.54-7.37-6.08-8.71V121.18
		c3.54-1.34,6.08-4.7,6.08-8.71c0-5.18-4.2-9.38-9.38-9.38h-48.63c-5.18,0-9.38,4.2-9.38,9.38c0,4.01,2.54,7.37,6.08,8.71v100.79
		C118.85,223.32,116.31,226.68,116.31,230.69z M141.14,221.31v-99.46h17.72v99.46H141.14z"/>
	<path class="st0" d="M35.25,230.69c0,5.18,4.2,9.38,9.38,9.38h48.63c5.18,0,9.38-4.2,9.38-9.38c0-4.01-2.54-7.37-6.08-8.71V121.18
		c3.54-1.34,6.08-4.7,6.08-8.71c0-5.18-4.2-9.38-9.38-9.38H44.63c-5.18,0-9.38,4.2-9.38,9.38c0,4.01,2.54,7.37,6.08,8.71v100.79
		C37.8,223.32,35.25,226.68,35.25,230.69z M60.08,221.31v-99.46h17.72v99.46H60.08z"/>
	<path class="st0" d="M197.36,230.69c0,5.18,4.2,9.38,9.38,9.38h48.63c5.18,0,9.38-4.2,9.38-9.38c0-4.01-2.54-7.37-6.08-8.71V121.18
		c3.54-1.34,6.08-4.7,6.08-8.71c0-5.18-4.2-9.38-9.38-9.38h-48.63c-5.18,0-9.38,4.2-9.38,9.38c0,4.01,2.54,7.37,6.08,8.71v100.79
		C199.9,223.32,197.36,226.68,197.36,230.69z M222.19,221.31v-99.46h17.72v99.46H222.19z"/>
	<path class="st0" d="M12.29,260.52c0,5.18,4.2,9.38,9.38,9.38h256.67c5.18,0,9.38-4.2,9.38-9.38s-4.2-9.38-9.38-9.38H21.67
		C16.49,251.15,12.29,255.35,12.29,260.52z"/>
	<path class="st0" d="M288.46,281.19H11.54c-5.18,0-9.38,4.2-9.38,9.38s4.2,9.38,9.38,9.38h276.93c5.18,0,9.38-4.2,9.38-9.38
		S293.64,281.19,288.46,281.19z"/>
</g>
</svg>
