<?xml version="1.0" encoding="utf-8"?>
<!-- Generator: Adobe Illustrator 24.0.1, SVG Export Plug-In . SVG Version: 6.00 Build 0)  -->
<svg version="1.1" id="Layer_1" xmlns="http://www.w3.org/2000/svg" xmlns:xlink="http://www.w3.org/1999/xlink" x="0px" y="0px"
	 viewBox="0 0 500 500" style="enable-background:new 0 0 500 500;" xml:space="preserve">
<style type="text/css">
	.st0{opacity:0.12;fill:url(#SVGID_1_);}
	.st1{fill:url(#SVGID_2_);}
	.st2{fill:#F0F0F0;}
	.st3{fill:#F2F2F2;}
	.st4{fill:#FCFCFC;}
	.st5{fill:#FFC278;}
	.st6{fill:#FFB44A;}
	.st7{opacity:0.78;fill:#FCFCFC;}
	.st8{fill:#263D51;}
	.st9{fill:url(#SVGID_3_);}
	.st10{fill:url(#SVGID_4_);}
	.st11{fill:url(#SVGID_5_);}
	.st12{fill:url(#SVGID_6_);}
	.st13{fill:url(#SVGID_7_);}
	.st14{fill:url(#SVGID_8_);}
	.st15{fill:url(#SVGID_9_);}
	.st16{fill:#5BDB98;}
	.st17{fill:url(#SVGID_10_);}
	.st18{fill:url(#SVGID_11_);}
	.st19{fill:url(#SVGID_12_);}
	.st20{fill:url(#SVGID_13_);}
	.st21{opacity:0.37;fill:#FCFCFC;}
	.st22{fill:url(#SVGID_14_);}
	.st23{fill:url(#SVGID_15_);}
	.st24{fill:url(#SVGID_16_);}
	.st25{fill:url(#SVGID_17_);}
	.st26{fill:url(#SVGID_18_);}
	.st27{fill:url(#SVGID_19_);}
	.st28{fill:url(#SVGID_20_);}
	.st29{fill:url(#SVGID_21_);}
	.st30{fill:url(#SVGID_22_);}
	.st31{fill:url(#SVGID_23_);}
	.st32{fill:url(#SVGID_24_);}
	.st33{fill:url(#SVGID_25_);}
	.st34{fill:url(#SVGID_26_);}
	.st35{fill:url(#SVGID_27_);}
	.st36{fill:url(#SVGID_28_);}
	.st37{fill:url(#SVGID_29_);}
	.st38{fill:url(#SVGID_30_);}
</style>
<g>
	<linearGradient id="SVGID_1_" gradientUnits="userSpaceOnUse" x1="545.6941" y1="572.262" x2="193.1478" y2="196.9708">
		<stop  offset="0" style="stop-color:#5BDB98"/>
		<stop  offset="1" style="stop-color:#60E99C"/>
	</linearGradient>
	<path class="st0" d="M439.84,421.7c-13.01,13.42-24.66,21.3-33.58,27.25c-86.95,58.06-186.35,41.33-217.08,35.61
		c-49.58-9.23-91.43-15.74-127.39-48.23c-81.71-73.82-77.74-227.82-15.3-323.22C53.89,101.8,116.24,9.39,215.85-3.63
		c2.44-0.32,4.25-0.5,5.85-0.67c15.41-1.63,110.9-10.24,188.77,54.99c11.15,9.34,29.08,26.18,45.72,51.87
		C517,196.49,517.19,341.97,439.84,421.7z"/>
	<g>
		
			<linearGradient id="SVGID_2_" gradientUnits="userSpaceOnUse" x1="3816.4004" y1="643.8699" x2="3766.877" y2="884.1268" gradientTransform="matrix(0.9809 -0.1946 0.1946 0.9809 -3545.5171 200.2924)">
			<stop  offset="0" style="stop-color:#2B3582"/>
			<stop  offset="1" style="stop-color:#150E42"/>
		</linearGradient>
		<path class="st1" d="M311.35,334.39c-0.23,0.05-0.47,0.04-0.71-0.02c-0.85-0.22-1.37-1.1-1.14-1.95
			c30.16-115.26,20.92-240.19,20.83-241.44c-0.07-0.88,0.59-1.65,1.47-1.72c0.88-0.07,1.65,0.59,1.72,1.47
			c0.1,1.25,9.37,126.72-20.92,242.49C312.43,333.84,311.93,334.27,311.35,334.39z"/>
		<path class="st2" d="M281.79,312.38c-0.24,0.05-0.5-0.02-0.68-0.2c-31.92-31.21-45.89-57.45-41.54-77.98
			c3.87-18.25,21.44-24.99,21.62-25.06c0.4-0.14,0.83,0.05,0.98,0.45c0.15,0.39-0.05,0.83-0.45,0.98
			c-0.17,0.06-16.98,6.53-20.66,23.97c-4.22,19.98,9.61,45.74,41.12,76.55c0.3,0.3,0.31,0.78,0.01,1.08
			C282.08,312.28,281.94,312.35,281.79,312.38z"/>
	</g>
	<g>
		<g>
			<path class="st3" d="M73.61,239.84c0,100.87,84.87,182.65,189.56,182.65s194.25-85.35,194.25-186.22
				c0-100.87-89.56-179.08-194.25-179.08S73.61,138.96,73.61,239.84z"/>
			<g>
				<path class="st4" d="M413.57,138.35c0.27,0,0.55-0.08,0.79-0.25c0.58-0.42,0.69-1.21,0.26-1.77
					c-35.12-44.88-91.69-71.66-151.33-71.66c-25.47,0-50.1,4.98-73.22,14.79c-0.66,0.28-0.96,1.03-0.67,1.66
					c0.29,0.64,1.06,0.93,1.73,0.65c22.78-9.67,47.06-14.57,72.16-14.57c58.82,0,114.61,26.41,149.24,70.66
					C412.78,138.18,413.17,138.35,413.57,138.35z"/>
			</g>
			<path class="st5" d="M99.4,239.84c0,87.32,73.46,158.1,164.08,158.1s168.14-73.88,168.14-161.2
				c0-87.32-77.52-155.01-168.14-155.01S99.4,152.52,99.4,239.84z"/>
			<path class="st6" d="M99.41,239.84c0-87.32,73.46-158.1,164.08-158.1c49.07,0,94.29,19.86,125.45,51.92l-126.4,101.34
				l-25.98,160.82C158.75,383.43,99.41,318.32,99.41,239.84z"/>
			<path class="st7" d="M389.7,231.64c0.41,6.71,6.38,11.84,13.35,11.44c6.96-0.39,12.28-6.15,11.88-12.86
				c-0.41-6.71-6.38-11.84-13.35-11.44C394.61,219.17,389.29,224.93,389.7,231.64z"/>
			<path class="st7" d="M116.78,246.94c0.41,6.71,6.38,11.84,13.35,11.44c6.97-0.39,12.28-6.15,11.88-12.86
				c-0.41-6.71-6.38-11.84-13.35-11.44C121.69,234.48,116.37,240.23,116.78,246.94z"/>
			<path class="st7" d="M288.14,356.18c-6.86,1.21-11.41,7.55-10.16,14.16c1.25,6.61,7.83,11,14.7,9.79
				c6.86-1.21,11.41-7.55,10.16-14.16C301.58,359.35,295,354.97,288.14,356.18z"/>
			<path class="st7" d="M239.02,97.04c-6.86,1.21-11.41,7.55-10.16,14.16c1.25,6.61,7.83,10.99,14.7,9.79
				c6.86-1.21,11.41-7.55,10.16-14.16C252.46,100.22,245.88,95.84,239.02,97.04z"/>
			<path class="st7" d="M198.33,363.13c-1.28,3.12-0.96,6.04,0.72,6.53c1.68,0.48,4.08-1.65,5.37-4.77
				c1.28-3.12,0.96-6.04-0.72-6.53C202.01,357.88,199.61,360.01,198.33,363.13z"/>
			<path class="st7" d="M308.12,117.35c-1.28,3.12-0.96,6.04,0.72,6.53c1.68,0.48,4.08-1.65,5.37-4.77
				c1.28-3.12,0.96-6.04-0.72-6.53C311.81,112.09,309.41,114.23,308.12,117.35z"/>
			<path class="st7" d="M141,316.41c-2.78,2.03-4.08,4.68-2.9,5.94c1.17,1.25,4.38,0.63,7.16-1.4c2.78-2.03,4.08-4.68,2.9-5.94
				C146.98,313.76,143.78,314.39,141,316.41z"/>
			<path class="st7" d="M367.28,161.28c-2.78,2.03-4.08,4.68-2.9,5.94c1.17,1.25,4.38,0.63,7.16-1.4c2.78-2.02,4.08-4.68,2.9-5.94
				C373.26,158.63,370.06,159.26,367.28,161.28z"/>
			<path class="st7" d="M133.8,177.24c-3.15-1.44-6.19-1.33-6.81,0.25c-0.61,1.58,1.44,4.03,4.58,5.48
				c3.15,1.44,6.19,1.33,6.81-0.25C139,181.14,136.95,178.69,133.8,177.24z"/>
			<path class="st7" d="M380.96,299.26c-3.15-1.44-6.19-1.33-6.81,0.25c-0.61,1.58,1.44,4.04,4.58,5.48
				c3.15,1.44,6.19,1.33,6.81-0.25C386.15,303.16,384.1,300.7,380.96,299.26z"/>
			<path class="st7" d="M186.02,125.26c-1.91-2.81-4.58-4.24-5.95-3.19c-1.38,1.05-0.94,4.17,0.97,6.98
				c1.91,2.81,4.58,4.24,5.95,3.19C188.36,131.19,187.93,128.06,186.02,125.26z"/>
			<path class="st7" d="M331.5,353.19c-1.91-2.81-4.58-4.24-5.95-3.19c-1.38,1.04-0.94,4.17,0.97,6.98
				c1.91,2.81,4.58,4.24,5.95,3.19C333.84,359.12,333.41,356,331.5,353.19z"/>
			<path class="st8" d="M268.6,234.94l101.48,48.77c1.97,0.94,4.27-0.47,4.2-2.59l-0.4-12.59c-0.08-2.45,2.92-3.8,4.82-2.19
				l73.37,62.25c2.24,1.9,0.4,5.44-2.53,4.84l-94.5-19.44c-2.26-0.47-3.08-3.17-1.43-4.73l11.06-10.51c1.37-1.3,1.07-3.5-0.59-4.42
				l-98.24-54.45c-1.37-0.76-1.86-2.43-1.1-3.77l0,0C265.5,234.78,267.2,234.27,268.6,234.94z"/>
			<path class="st8" d="M258.01,230.14l0.2-95.61c-0.03-2.12-2.4-3.43-4.32-2.4l-11.42,6.13c-2.22,1.19-4.85-0.74-4.23-3.12
				l23.61-91.41c0.72-2.8,4.83-2.84,5.62-0.06l25.55,89.8c0.61,2.15-1.5,4.09-3.7,3.4l-14.78-4.63c-1.83-0.57-3.72,0.69-3.8,2.54
				l-6.94,95.45c-0.07,1.52-1.38,2.71-2.96,2.68l0,0C259.29,232.86,258.04,231.64,258.01,230.14z"/>
			<ellipse class="st8" cx="264.33" cy="235.26" rx="13.49" ry="13"/>
		</g>
	</g>
	<g>
		
			<linearGradient id="SVGID_3_" gradientUnits="userSpaceOnUse" x1="-6856.0498" y1="488.347" x2="-6805.145" y2="488.347" gradientTransform="matrix(-1 0 0 1 -6681.8828 0)">
			<stop  offset="0" style="stop-color:#53D8FF"/>
			<stop  offset="1" style="stop-color:#3840F7"/>
		</linearGradient>
		<path class="st9" d="M124.7,485.88c8.72,0.75,23.86,1.98,35.79,2.5c7.17,0.32,11.3-0.39,13.68-1.34c0,0.27-0.01,0.52-0.02,0.76
			c-0.06,1.26-1.08,2.26-2.34,2.33c-22.55,1.26-40.48,0.44-46.86,0.05c-1.32-0.08-2.11-1.51-1.43-2.64
			C123.85,486.98,124.26,486.43,124.7,485.88z"/>
		
			<linearGradient id="SVGID_4_" gradientUnits="userSpaceOnUse" x1="-6856.0527" y1="478.3703" x2="-6806.5825" y2="478.3703" gradientTransform="matrix(-1 0 0 1 -6681.8828 0)">
			<stop  offset="0" style="stop-color:#2B3582"/>
			<stop  offset="1" style="stop-color:#150E42"/>
		</linearGradient>
		<path class="st10" d="M160.49,488.39c-11.93-0.53-27.07-1.75-35.79-2.5c8.57-10.52,35.79-17.61,35.79-17.61h7.69
			c5.29,7.62,6.05,14.87,5.99,18.77C171.79,488,167.66,488.7,160.49,488.39z"/>
		
			<linearGradient id="SVGID_5_" gradientUnits="userSpaceOnUse" x1="-6851.3501" y1="464.4415" x2="-6837.0112" y2="464.4415" gradientTransform="matrix(-1 0 0 1 -6681.8828 0)">
			<stop  offset="0" style="stop-color:#F9B776"/>
			<stop  offset="1" style="stop-color:#F47960"/>
		</linearGradient>
		<path class="st11" d="M169.47,455.73l-0.72,14.23c-0.08,1.54-1.23,2.84-2.78,3.06c-1.54,0.22-3.59,0.25-5.77-0.48
			c-1.34-0.45-2.34-1.58-2.59-2.96l-2.49-13.86H169.47z"/>
		<g>
			
				<linearGradient id="SVGID_6_" gradientUnits="userSpaceOnUse" x1="-6946.9077" y1="500.9697" x2="-6927.4004" y2="500.9697" gradientTransform="matrix(-1 0 0 1 -6681.8828 0)">
				<stop  offset="0" style="stop-color:#53D8FF"/>
				<stop  offset="1" style="stop-color:#3840F7"/>
			</linearGradient>
			<path class="st12" d="M258.67,502.3c3.78-0.68,5.49-3.22,6.21-5.94c0,0.02,0.01,0.05,0.01,0.07c0.56,2.86-0.73,5.83-3.31,7.24
				c-3.12,1.71-6.52,2-9.17,1.86c-2.84-0.15-5.44-1.67-6.88-4.1l-0.02-0.04C248.37,503.23,252.37,503.44,258.67,502.3z"/>
			
				<linearGradient id="SVGID_7_" gradientUnits="userSpaceOnUse" x1="-6946.7656" y1="481.5574" x2="-6918.1328" y2="481.5574" gradientTransform="matrix(-1 0 0 1 -6681.8828 0)">
				<stop  offset="0" style="stop-color:#2B3582"/>
				<stop  offset="1" style="stop-color:#150E42"/>
			</linearGradient>
			<path class="st13" d="M240.84,460.11h6.34c9.65-0.26,15.72,26.06,17.7,36.26c-0.72,2.71-2.43,5.25-6.21,5.94
				c-6.31,1.14-10.31,0.92-13.16-0.9c-5.22-8.87-7.8-21.86-9.05-29.45C235.06,463.33,240.84,460.11,240.84,460.11z"/>
		</g>
		
			<linearGradient id="SVGID_8_" gradientUnits="userSpaceOnUse" x1="-6931.8828" y1="456.9644" x2="-6914.7466" y2="456.9644" gradientTransform="matrix(-1 0 0 1 -6681.8828 0)">
			<stop  offset="0" style="stop-color:#F9B776"/>
			<stop  offset="1" style="stop-color:#F47960"/>
		</linearGradient>
		<path class="st14" d="M246.37,446.9l3.52,14c0.43,1.72-0.39,3.49-1.98,4.31c-1.97,1.01-4.74,2.07-7.29,1.76
			c-1.2-0.14-2.19-0.99-2.59-2.12l-5.17-14.73L246.37,446.9z"/>
		<linearGradient id="SVGID_9_" gradientUnits="userSpaceOnUse" x1="305.3719" y1="192.6343" x2="247.8442" y2="271.4222">
			<stop  offset="0" style="stop-color:#2B3582"/>
			<stop  offset="0.5464" style="stop-color:#1F205F"/>
			<stop  offset="1" style="stop-color:#150E42"/>
		</linearGradient>
		<path class="st15" d="M122.55,262.53c0,0,31.45,196.61,30.94,197.69c0,0,8.69,3.95,18.16,0.5c0,0-2.84-105.1-9.51-145.4
			c0,0,53.68,93.94,70.73,140.75c0,0,8.89-1.06,16.25-5.9c0,0-57.8-169.09-73.22-191.61L122.55,262.53z"/>
		<path class="st16" d="M117.59,125.25c-2.25,0.13-4.46,0.56-6.59,1.3c-23.05,7.99-41.15,5.98-55.07-0.31
			c-3.23,4.28-8.42,13.19-10.68,28.16c25.33,18.85,57.19,13.89,67.61,11.56c-2.73,20.24-2.7,52.25,8.44,99.17
			c0.29,1.23,1.35,2.14,2.62,2.24c7.12,0.59,30.94,1.99,53.84-3.16c1.03-0.23,1.59-1.34,1.18-2.3l-0.21-0.49
			c-1.91-4.49-2.76-9.35-2.49-14.22c0.83-14.78,4.81-48.18,13.29-71.07c0.49,0.83,0.95,1.66,1.4,2.47
			c1.53-15.06,7.3-29.87,11.37-44.8C169.13,123.26,129.69,124.54,117.59,125.25z"/>
		
			<linearGradient id="SVGID_10_" gradientUnits="userSpaceOnUse" x1="-6847.46" y1="153.0737" x2="-6840.0352" y2="114.0924" gradientTransform="matrix(-1 0 0 1 -6681.8828 0)">
			<stop  offset="0" style="stop-color:#F9B776"/>
			<stop  offset="1" style="stop-color:#F47960"/>
		</linearGradient>
		<path class="st17" d="M169.33,97.91c0,0,2.32,24.5,4.36,31.74c0.31,1.1-0.17,2.26-1.17,2.83c-3.46,1.98-11.77,5.21-23.13-0.36
			c-1.84-0.9-2.95-2.82-2.86-4.85l1-23.67L169.33,97.91z"/>
		<g>
			
				<linearGradient id="SVGID_11_" gradientUnits="userSpaceOnUse" x1="-6827.3691" y1="81.5554" x2="-6869.7329" y2="113.9705" gradientTransform="matrix(-1 0 0 1 -6681.8828 0)">
				<stop  offset="0" style="stop-color:#F9B776"/>
				<stop  offset="1" style="stop-color:#F47960"/>
			</linearGradient>
			<path class="st18" d="M147.04,66.57c0,0-7.41,17.02-7.91,25.96c-0.5,8.94-2.42,14.73,7.91,16.53
				c10.33,1.8,19.03-3.35,23.75-12.25c0,0,7.39-13.71,5.73-19.33C174.86,71.87,147.04,66.57,147.04,66.57z"/>
			
				<linearGradient id="SVGID_12_" gradientUnits="userSpaceOnUse" x1="-6861.5928" y1="59.3082" x2="-6822.1372" y2="110.1072" gradientTransform="matrix(-1 0 0 1 -6681.8828 0)">
				<stop  offset="0" style="stop-color:#2B3582"/>
				<stop  offset="1" style="stop-color:#150E42"/>
			</linearGradient>
			<path class="st19" d="M167.26,90.41l-0.59-0.26c-0.75-0.33-1.07-1.22-0.69-1.95c1.46-2.81,4.3-9.27,0.63-10.77
				c-3.46-1.42-7.2-2.21-10.75-3.35c-3.3-1.06-9.71-2.16-11.43-5.64c-0.5-1.01,0.05-2.19,0.58-3.18c1-1.85,2.01-3.69,3.01-5.54
				c0.85-1.56,1.73-3.16,3.08-4.31c3.1-2.64,6.79-0.32,10.22,0.31c12.75,2.35,21.17,7.51,21.38,16.32c0.01,0.56,0.61,0.87,1.09,0.58
				c0.94-0.57,2.45-0.84,4.46,0.85c3.5,2.94,2.07,10.58-5.61,16.86c-0.36,0.3-0.36,0.87,0.03,1.12c1.39,0.91,3.46,3.06-1.91,5.93
				c-5.56,2.97-9.71,2.73-11.31,2.46c-0.4-0.07-0.65-0.45-0.57-0.84l1.71-7.74c0.1-0.44-0.24-0.85-0.69-0.85H167.26z"/>
			
				<linearGradient id="SVGID_13_" gradientUnits="userSpaceOnUse" x1="-6832.6235" y1="74.6877" x2="-6874.9878" y2="107.1029" gradientTransform="matrix(-1 0 0 1 -6681.8828 0)">
				<stop  offset="0" style="stop-color:#F9B776"/>
				<stop  offset="1" style="stop-color:#F47960"/>
			</linearGradient>
			<path class="st20" d="M166.94,92.05c0,0,2.83-10.87,7.7-7.83c4.88,3.05-2.53,12.18-6.45,12.59L166.94,92.05z"/>
		</g>
		<g>
			<g>
				<path class="st16" d="M140.91,69.46c12.12-35.93,62.41-13.28,45.83,18.03C169.33,79.61,149.05,66.98,140.91,69.46z"/>
			</g>
			<path class="st16" d="M170.55,79.02l-31.61,4.15c-0.8,0.11-1.6-0.22-2.11-0.85c-3.65-4.63-8.3-7.2-13.74-8.14
				c-0.69-0.12-0.71-1.1-0.03-1.26l19.07-4.45c0.02,0,0.04-0.01,0.06-0.01c9.73-0.83,19.18,3.57,28.53,9.82
				C171.04,78.48,170.92,78.97,170.55,79.02z"/>
		</g>
		<g>
			<path class="st6" d="M177.42,260.47c7.25,0.14,13.2-5.7,13.2-12.95v-57.63c0-7.57-6.09-13.73-13.66-13.82
				c-22.72-0.25-69.59-0.26-107.94,2.97c-5.23,0.44-9.3,4.73-9.49,9.98l-3.58,55.72c-0.27,7.37,5.56,13.53,12.93,13.67
				L177.42,260.47z"/>
			<path class="st4" d="M177.46,196.12c0.1,4.9-0.05,12.69-0.17,17.71c-0.06,2.62-2.36,4.61-4.96,4.3l-18.7-2.19
				c-2.49-0.29-4.25-2.59-3.87-5.07l2.3-15.31c0.33-2.17,2.19-3.78,4.39-3.78h16.57C175.44,191.78,177.41,193.7,177.46,196.12z"/>
			<path class="st21" d="M128.59,225.14l-15.6,1.68c-2.18,0.24-4.05-1.56-3.88-3.75l3.41-46.41c6.54-0.21,12.99-0.36,19.21-0.46
				v45.45C131.73,223.44,130.37,224.95,128.59,225.14z"/>
			<path class="st4" d="M122.19,217.1c-0.05,0.83-0.74,1.48-1.57,1.48c-0.03,0-0.06,0-0.09,0c-0.87-0.05-1.53-0.79-1.48-1.66
				l2.35-40.5c1.05-0.03,2.1-0.05,3.15-0.07L122.19,217.1z"/>
			<g>
				
					<linearGradient id="SVGID_14_" gradientUnits="userSpaceOnUse" x1="-1809.3451" y1="194.6448" x2="-1842.8226" y2="243.2917" gradientTransform="matrix(-1 0 0 1 -1646.4536 0)">
					<stop  offset="0" style="stop-color:#2B3582"/>
					<stop  offset="1" style="stop-color:#150E42"/>
				</linearGradient>
				<path class="st22" d="M168.81,210.74c0.27,0,0.5-0.21,0.52-0.49l0.81-12.76c0.02-0.29-0.2-0.54-0.49-0.55
					c-0.3-0.02-0.54,0.2-0.55,0.49l-0.81,12.76c-0.02,0.29,0.2,0.54,0.49,0.55C168.79,210.74,168.8,210.74,168.81,210.74z"/>
				
					<linearGradient id="SVGID_15_" gradientUnits="userSpaceOnUse" x1="-1808.1414" y1="195.4732" x2="-1841.6189" y2="244.1202" gradientTransform="matrix(-1 0 0 1 -1646.4536 0)">
					<stop  offset="0" style="stop-color:#2B3582"/>
					<stop  offset="1" style="stop-color:#150E42"/>
				</linearGradient>
				<path class="st23" d="M167.15,210.74c0.28,0,0.51-0.22,0.52-0.51l0.42-13c0.01-0.29-0.22-0.53-0.51-0.54
					c-0.33-0.02-0.53,0.22-0.54,0.51l-0.42,13c-0.01,0.29,0.22,0.53,0.51,0.54C167.13,210.74,167.14,210.74,167.15,210.74z"/>
				
					<linearGradient id="SVGID_16_" gradientUnits="userSpaceOnUse" x1="-1806.689" y1="196.4727" x2="-1840.1665" y2="245.1197" gradientTransform="matrix(-1 0 0 1 -1646.4536 0)">
					<stop  offset="0" style="stop-color:#2B3582"/>
					<stop  offset="1" style="stop-color:#150E42"/>
				</linearGradient>
				<path class="st24" d="M164.89,210.74c-0.29-0.01-0.51-0.26-0.5-0.55c0.21-4.37,0.6-12.7,0.61-12.98c0-0.29,0.24-0.52,0.52-0.52
					c0.29,0,0.52,0.23,0.52,0.52c0,0.22-0.51,10.89-0.61,13.03c-0.01,0.28-0.24,0.5-0.52,0.5
					C164.9,210.74,164.9,210.74,164.89,210.74z M164.99,197.21H165H164.99z"/>
				
					<linearGradient id="SVGID_17_" gradientUnits="userSpaceOnUse" x1="-1804.1768" y1="198.2016" x2="-1837.6542" y2="246.8484" gradientTransform="matrix(-1 0 0 1 -1646.4536 0)">
					<stop  offset="0" style="stop-color:#2B3582"/>
					<stop  offset="1" style="stop-color:#150E42"/>
				</linearGradient>
				<path class="st25" d="M161.43,211.26c0.56,0,1.02-0.44,1.04-1.01c0.44-12.6,0.36-12.88,0.31-13.07
					c-0.15-0.56-0.73-0.89-1.28-0.73c-0.51,0.14-0.83,0.64-0.76,1.15c0.03,0.76-0.2,8.09-0.36,12.58c-0.02,0.58,0.43,1.06,1.01,1.08
					C161.4,211.26,161.41,211.26,161.43,211.26z"/>
				
					<linearGradient id="SVGID_18_" gradientUnits="userSpaceOnUse" x1="-1802.5201" y1="199.3416" x2="-1835.9977" y2="247.9885" gradientTransform="matrix(-1 0 0 1 -1646.4536 0)">
					<stop  offset="0" style="stop-color:#2B3582"/>
					<stop  offset="1" style="stop-color:#150E42"/>
				</linearGradient>
				<path class="st26" d="M159.16,210.74c0.29,0,0.52-0.23,0.52-0.52v-12.76c0-0.29-0.23-0.52-0.52-0.52
					c-0.29,0-0.52,0.23-0.52,0.52v12.76C158.64,210.5,158.87,210.74,159.16,210.74z"/>
				
					<linearGradient id="SVGID_19_" gradientUnits="userSpaceOnUse" x1="-1801.4918" y1="200.0493" x2="-1834.9691" y2="248.6959" gradientTransform="matrix(-1 0 0 1 -1646.4536 0)">
					<stop  offset="0" style="stop-color:#2B3582"/>
					<stop  offset="1" style="stop-color:#150E42"/>
				</linearGradient>
				<path class="st27" d="M157.33,210.74c0.28,0,0.52-0.23,0.52-0.51c0.1-4.43,0.33-11.67,0.54-12.54c0.09-0.16,0.09-0.37-0.02-0.54
					c-0.16-0.24-0.48-0.31-0.72-0.15c-0.29,0.19-0.56,0.36-0.85,13.21c-0.01,0.29,0.22,0.53,0.51,0.54H157.33z"/>
				
					<linearGradient id="SVGID_20_" gradientUnits="userSpaceOnUse" x1="-1811.0676" y1="193.4595" x2="-1844.545" y2="242.1062" gradientTransform="matrix(-1 0 0 1 -1646.4536 0)">
					<stop  offset="0" style="stop-color:#2B3582"/>
					<stop  offset="1" style="stop-color:#150E42"/>
				</linearGradient>
				<path class="st28" d="M171.63,211.9c0.55,0,1.01-0.43,1.04-0.99l0.7-13.4c0.03-0.58-0.41-1.07-0.99-1.1
					c-0.55-0.04-1.07,0.41-1.1,0.99l-0.7,13.4c-0.03,0.58,0.41,1.07,0.99,1.1C171.59,211.9,171.61,211.9,171.63,211.9z"/>
			</g>
		</g>
		<g>
			<path class="st6" d="M138.83,178.21c5.43,0.1,9.88-4.27,9.88-9.7v-43.15c0-5.67-4.56-10.28-10.22-10.34
				c-17.01-0.19-52.1-0.19-80.81,2.22c-3.92,0.33-6.96,3.54-7.11,7.47l-2.68,41.71c-0.2,5.52,4.16,10.13,9.68,10.23L138.83,178.21z"
				/>
			<path class="st4" d="M138.86,130.03c0.07,3.67-0.04,9.5-0.13,13.26c-0.05,1.96-1.77,3.45-3.71,3.22l-14-1.64
				c-1.87-0.22-3.18-1.94-2.9-3.79l1.72-11.46c0.24-1.63,1.64-2.83,3.29-2.83h12.41C137.35,126.79,138.83,128.23,138.86,130.03z"/>
			<path class="st21" d="M102.27,151.76l-11.68,1.26c-1.63,0.18-3.03-1.17-2.91-2.81l2.55-34.74c4.9-0.16,9.72-0.27,14.38-0.35
				v34.02C104.62,150.49,103.61,151.62,102.27,151.76z"/>
			<path class="st4" d="M97.49,145.74c-0.04,0.62-0.55,1.11-1.17,1.11c-0.02,0-0.05,0-0.07,0c-0.65-0.04-1.14-0.59-1.1-1.24
				l1.76-30.32c0.79-0.02,1.57-0.04,2.36-0.05L97.49,145.74z"/>
			<g>
				
					<linearGradient id="SVGID_21_" gradientUnits="userSpaceOnUse" x1="-1774.4091" y1="128.9325" x2="-1799.4703" y2="165.3496" gradientTransform="matrix(-1 0 0 1 -1646.4536 0)">
					<stop  offset="0" style="stop-color:#2B3582"/>
					<stop  offset="1" style="stop-color:#150E42"/>
				</linearGradient>
				<path class="st29" d="M132.39,140.98c0.2,0,0.38-0.16,0.39-0.37l0.61-9.55c0.01-0.22-0.15-0.4-0.37-0.42
					c-0.23-0.02-0.4,0.15-0.42,0.37l-0.61,9.55c-0.01,0.22,0.15,0.4,0.37,0.42C132.37,140.98,132.38,140.98,132.39,140.98z"/>
				
					<linearGradient id="SVGID_22_" gradientUnits="userSpaceOnUse" x1="-1773.5079" y1="129.5526" x2="-1798.5692" y2="165.9698" gradientTransform="matrix(-1 0 0 1 -1646.4536 0)">
					<stop  offset="0" style="stop-color:#2B3582"/>
					<stop  offset="1" style="stop-color:#150E42"/>
				</linearGradient>
				<path class="st30" d="M131.14,140.98c0.21,0,0.38-0.17,0.39-0.38l0.32-9.73c0.01-0.22-0.16-0.4-0.38-0.4
					c-0.25-0.01-0.4,0.16-0.4,0.38l-0.32,9.73c-0.01,0.22,0.16,0.4,0.38,0.4C131.13,140.98,131.14,140.98,131.14,140.98z"/>
				
					<linearGradient id="SVGID_23_" gradientUnits="userSpaceOnUse" x1="-1772.4207" y1="130.3009" x2="-1797.4819" y2="166.718" gradientTransform="matrix(-1 0 0 1 -1646.4536 0)">
					<stop  offset="0" style="stop-color:#2B3582"/>
					<stop  offset="1" style="stop-color:#150E42"/>
				</linearGradient>
				<path class="st31" d="M129.45,140.98c-0.22-0.01-0.38-0.19-0.37-0.41c0.16-3.27,0.45-9.51,0.46-9.72c0-0.21,0.18-0.39,0.39-0.39
					c0.22,0,0.39,0.18,0.39,0.39c0,0.16-0.38,8.15-0.46,9.75c-0.01,0.21-0.18,0.37-0.39,0.37
					C129.46,140.98,129.46,140.98,129.45,140.98z M129.53,130.85L129.53,130.85L129.53,130.85z"/>
				
					<linearGradient id="SVGID_24_" gradientUnits="userSpaceOnUse" x1="-1770.54" y1="131.5951" x2="-1795.6012" y2="168.0121" gradientTransform="matrix(-1 0 0 1 -1646.4536 0)">
					<stop  offset="0" style="stop-color:#2B3582"/>
					<stop  offset="1" style="stop-color:#150E42"/>
				</linearGradient>
				<path class="st32" d="M126.86,141.37c0.42,0,0.77-0.33,0.78-0.76c0.33-9.43,0.27-9.64,0.23-9.78c-0.11-0.42-0.55-0.66-0.96-0.55
					c-0.38,0.1-0.62,0.48-0.57,0.86c0.03,0.57-0.15,6.05-0.27,9.42c-0.02,0.43,0.32,0.8,0.75,0.81
					C126.84,141.37,126.85,141.37,126.86,141.37z"/>
				
					<linearGradient id="SVGID_25_" gradientUnits="userSpaceOnUse" x1="-1769.2999" y1="132.4485" x2="-1794.3612" y2="168.8656" gradientTransform="matrix(-1 0 0 1 -1646.4536 0)">
					<stop  offset="0" style="stop-color:#2B3582"/>
					<stop  offset="1" style="stop-color:#150E42"/>
				</linearGradient>
				<path class="st33" d="M125.16,140.98c0.22,0,0.39-0.18,0.39-0.39v-9.55c0-0.22-0.18-0.39-0.39-0.39c-0.22,0-0.39,0.18-0.39,0.39
					v9.55C124.77,140.8,124.94,140.98,125.16,140.98z"/>
				
					<linearGradient id="SVGID_26_" gradientUnits="userSpaceOnUse" x1="-1768.53" y1="132.9783" x2="-1793.5912" y2="169.3952" gradientTransform="matrix(-1 0 0 1 -1646.4536 0)">
					<stop  offset="0" style="stop-color:#2B3582"/>
					<stop  offset="1" style="stop-color:#150E42"/>
				</linearGradient>
				<path class="st34" d="M123.79,140.98c0.21,0,0.39-0.17,0.39-0.38c0.08-3.32,0.25-8.74,0.41-9.39c0.07-0.12,0.07-0.28-0.01-0.41
					c-0.12-0.18-0.36-0.23-0.54-0.11c-0.21,0.14-0.42,0.27-0.63,9.89C123.39,140.79,123.57,140.97,123.79,140.98L123.79,140.98z"/>
				
					<linearGradient id="SVGID_27_" gradientUnits="userSpaceOnUse" x1="-1775.6986" y1="128.0452" x2="-1800.7598" y2="164.4621" gradientTransform="matrix(-1 0 0 1 -1646.4536 0)">
					<stop  offset="0" style="stop-color:#2B3582"/>
					<stop  offset="1" style="stop-color:#150E42"/>
				</linearGradient>
				<path class="st35" d="M134.49,141.85c0.41,0,0.76-0.32,0.78-0.74l0.52-10.03c0.02-0.43-0.31-0.8-0.74-0.82
					c-0.41-0.03-0.8,0.31-0.82,0.74l-0.52,10.03c-0.02,0.43,0.31,0.8,0.74,0.82C134.47,141.85,134.48,141.85,134.49,141.85z"/>
			</g>
		</g>
		
			<linearGradient id="SVGID_28_" gradientUnits="userSpaceOnUse" x1="384.0893" y1="224.9399" x2="425.248" y2="418.7663" gradientTransform="matrix(-0.9937 -0.1123 -0.1123 0.9937 467.8838 -73.2874)">
			<stop  offset="0" style="stop-color:#F9B776"/>
			<stop  offset="1" style="stop-color:#F47960"/>
		</linearGradient>
		<path class="st36" d="M44.06,139.97c2.39-0.59,7.75-7.84,8.32-5.19c0.57,2.65-1.05,6.01-0.81,7.14c0.24,1.13,2.04,7.44,0.61,10.09
			c-1.03,1.91-3.06,7.92-4.1,11.12c-0.35,1.06-0.63,2.46-1.74,2.34c-1.11-0.12-1.97-1.62-2.07-2.73
			C44.22,162.29,41.68,140.55,44.06,139.97z"/>
		<g>
			<path class="st16" d="M215.09,148.92c-2.94-6.75-12.31-14.96-12.8-15.11c-4.07,14.94-11.24,27.27-12.77,42.33
				c10.05,18.45,7.74,40.21,1.47,50.79c3.09,4.58,6.69,10.82,9.82,18.58C239.44,222.39,224.15,169.69,215.09,148.92z"/>
			
				<linearGradient id="SVGID_29_" gradientUnits="userSpaceOnUse" x1="-6814.1611" y1="200.3606" x2="-6838.4707" y2="236.8251" gradientTransform="matrix(-1 0 0 1 -6681.8828 0)">
				<stop  offset="0" style="stop-color:#F9B776"/>
				<stop  offset="1" style="stop-color:#F47960"/>
			</linearGradient>
			<path class="st37" d="M165.48,262.24l-33.44-0.73c0,0,29.16-8.24,30.97-6c0,0,18.07-11.88,27.98-28.59
				c3.08,4.58,6.69,10.82,9.82,18.58C191.93,250.72,180.27,259.77,165.48,262.24z"/>
			<linearGradient id="SVGID_30_" gradientUnits="userSpaceOnUse" x1="180.7732" y1="206.2503" x2="156.9528" y2="241.9808">
				<stop  offset="0" style="stop-color:#F9B776"/>
				<stop  offset="1" style="stop-color:#F47960"/>
			</linearGradient>
			<path class="st38" d="M166.42,256.45c0,0,0.69,13.32-16.8,11.39c-9.51-1.05-24.85-9.91-24.85-9.91S164.77,257.81,166.42,256.45z"
				/>
		</g>
	</g>
</g>
</svg>
