<?xml version="1.0" encoding="utf-8"?>
<!-- Generator: Adobe Illustrator 24.0.1, SVG Export Plug-In . SVG Version: 6.00 Build 0)  -->
<svg version="1.1" id="Layer_1" xmlns="http://www.w3.org/2000/svg" xmlns:xlink="http://www.w3.org/1999/xlink" x="0px" y="0px"
	 viewBox="0 0 500 500" style="enable-background:new 0 0 500 500;" xml:space="preserve">
<style type="text/css">
	.st0{fill:#A3EFC2;}
	.st1{fill:#4CB08A;}
	.st2{fill:#62E8C8;}
	.st3{fill:#56CD93;}
	.st4{fill:#31328C;}
	.st5{fill:#60E99C;}
	.st6{fill:#BAF4D2;}
	.st7{fill:#41415B;}
	.st8{fill:#FEFEFE;}
	.st9{fill:#FFD277;}
	.st10{fill:#F69F9F;}
	.st11{fill:#191245;}
	.st12{fill:#2E3F87;}
	.st13{fill:#112333;}
	.st14{fill:#1B3149;}
	.st15{fill:#FFD9B3;}
	.st16{fill:#1B1648;}
	.st17{fill:none;stroke:#41415B;stroke-width:0.484;stroke-linecap:round;stroke-miterlimit:10;}
	.st18{fill:#FB9649;}
</style>
<g>
	<g>
		<g>
			<path class="st0" d="M361.11,245.85c23.07-56.5,88.6-96.54-6.47-131.15c-95.07-34.61-268.11-37.34-307.28,0
				c-39.16,37.34,78.32,22.19,88.34,52.08c10.02,29.89-6.38,59.94-65.57,70.87c-59.2,10.93-82.88,76.32-54.64,116.03h448.99
				c0,0-36.43-14.02-30.05-53.19C440.8,261.34,343.25,289.58,361.11,245.85z"/>
		</g>
	</g>
	<g>
		<g>
			<path class="st1" d="M23.68,151.14c27.32-4.55,91.07,6.38,90.16,29.14c-0.91,22.77-17.3,39.62-40.98,30.28
				c-23.68-9.34-42.8-31.19-49.18-41.21C17.3,159.33,23.68,151.14,23.68,151.14z"/>
		</g>
	</g>
	<g>
		<g>
			<path class="st1" d="M396.89,246.04c41.04-0.61,86.52,7.85,81.97-14.92c-4.55-22.77-50.42-44.84-71.54-24.13
				C386.19,227.71,377.72,246.33,396.89,246.04z"/>
		</g>
	</g>
	<g>
		<g>
			<path class="st2" d="M362.77,330.55c0,0,22.38-17.75,33.96-28.56c11.58-10.81,6.95-33.19-7.72-31.65s-29.62,40.14-35.65,60.21
				H362.77z"/>
		</g>
	</g>
	<g>
		<g>
			<path class="st1" d="M344.5,325.92c0,0-28.9-86.45-55.92-87.22c-27.02-0.77-13.89,36.28,6.18,52.49
				c20.07,16.21,41.68,39.37,41.68,39.37L344.5,325.92z"/>
		</g>
	</g>
	<g>
		<g>
			<path class="st3" d="M344.25,309.33c0,0,2.61-46.34,9.12-70.64c6.51-24.3,26.77-27.2,31.98-16.78
				c5.21,10.42-15.49,54.57-20.55,72.36c-5.06,17.8-8.43,27-8.43,27h-14.14L344.25,309.33z"/>
		</g>
	</g>
	<g>
		<g>
			<path class="st4" d="M350.42,320.42c-0.02,0-0.05,0-0.07,0c-0.37-0.04-0.64-0.37-0.6-0.73c2-19.49,7.94-41.95,12.57-57.36
				c5.01-16.69,9.62-28.94,9.66-29.06c0.13-0.35,0.52-0.52,0.86-0.39c0.35,0.13,0.52,0.52,0.39,0.86
				c-0.05,0.12-4.64,12.34-9.64,28.98c-4.61,15.35-10.53,37.72-12.52,57.11C351.05,320.16,350.76,320.42,350.42,320.42z"/>
		</g>
	</g>
	<g>
		<g>
			<path class="st4" d="M358.14,331.22c-0.07,0-0.14-0.01-0.2-0.03c-0.35-0.11-0.55-0.49-0.43-0.84
				c6.92-21.53,28.01-41.57,28.22-41.77c0.27-0.25,0.69-0.24,0.95,0.03c0.25,0.27,0.24,0.69-0.03,0.95
				c-0.21,0.2-21.05,20.01-27.86,41.21C358.69,331.04,358.42,331.22,358.14,331.22z"/>
		</g>
	</g>
	<g>
		<g>
			<path class="st4" d="M341.42,328.36c-0.23,0-0.45-0.12-0.57-0.32c-23.85-39.6-50.77-71.8-51.04-72.12
				c-0.24-0.28-0.2-0.71,0.08-0.94c0.28-0.24,0.71-0.2,0.94,0.08c0.27,0.32,27.25,32.6,51.16,72.29c0.19,0.32,0.09,0.73-0.23,0.92
				C341.66,328.33,341.54,328.36,341.42,328.36z"/>
		</g>
	</g>
	<g>
		<g>
			<path class="st5" d="M350.42,319.75c0,0,10.03-90.31-6.95-113.47c-16.98-23.16-33.96,3.09-22.38,40.91
				c11.58,37.82,22.38,78.73,22.38,78.73l9.89-2.32L350.42,319.75z"/>
		</g>
	</g>
	<g>
		<g>
			<path class="st4" d="M347.72,326.59c-0.35,0-0.65-0.28-0.67-0.63c-2.29-41.35-12.28-96.43-12.38-96.98
				c-0.07-0.36,0.17-0.71,0.54-0.78c0.36-0.07,0.71,0.17,0.78,0.54c0.1,0.55,10.11,55.71,12.4,97.15c0.02,0.37-0.26,0.69-0.63,0.71
				C347.75,326.59,347.73,326.59,347.72,326.59z"/>
		</g>
	</g>
	<g>
		<g>
			<path class="st1" d="M445.38,353.69c0,0-0.69-13.57-16.52-15.85c0,0-12.39-19.96-37.86-10.66c0,0-17.72-18.94-37.43-9.38
				c0,0-34.86-15.03-46.56,7.29c0,0-48.19,0.73-42.68,28.6H445.38z"/>
		</g>
	</g>
	<g>
		<g>
			<g>
				<path class="st5" d="M106.73,246.51c0-9.27-3.35-8.74-3.35-18.36c0-10.24,11.3-15.19,11.3-24.01s-2.12-28.96,15.89-28.96
					c18.01,0,15.89,20.13,15.89,28.96s11.3,13.77,11.3,24.01c0,9.62-3.35,9.09-3.35,18.36c0,13.07,12.18,12.45,12.18,35.31
					c0,28.6-36.02,29.66-36.02,29.66s-36.02-1.06-36.02-29.66C94.54,258.96,106.73,259.57,106.73,246.51z"/>
			</g>
		</g>
		<g>
			<g>
				<g>
					<path class="st4" d="M129.15,362.52c-0.44,0-0.79-0.35-0.79-0.79V205.19c0-0.44,0.35-0.79,0.79-0.79
						c0.44,0,0.79,0.35,0.79,0.79v156.54C129.94,362.17,129.59,362.52,129.15,362.52z"/>
				</g>
			</g>
			<g>
				<g>
					<path class="st4" d="M128.8,229.29c-0.2,0-0.4-0.08-0.56-0.23l-12.71-12.71c-0.31-0.31-0.31-0.81,0-1.12
						c0.31-0.31,0.81-0.31,1.12,0l12.71,12.71c0.31,0.31,0.31,0.81,0,1.12C129.2,229.21,129,229.29,128.8,229.29z"/>
				</g>
			</g>
			<g>
				<g>
					<path class="st4" d="M128.8,275.62c-0.2,0-0.4-0.08-0.56-0.23l-12.71-12.71c-0.31-0.31-0.31-0.81,0-1.12
						c0.31-0.31,0.81-0.31,1.12,0l12.71,12.71c0.31,0.31,0.31,0.81,0,1.12C129.2,275.54,129,275.62,128.8,275.62z"/>
				</g>
			</g>
			<g>
				<g>
					<path class="st4" d="M129.33,254.18c-0.2,0-0.4-0.08-0.56-0.23c-0.31-0.31-0.31-0.81,0-1.12l16.77-16.77
						c0.31-0.31,0.81-0.31,1.12,0c0.31,0.31,0.31,0.81,0,1.12l-16.77,16.77C129.73,254.11,129.53,254.18,129.33,254.18z"/>
				</g>
			</g>
		</g>
	</g>
	<g>
		<g>
			<path class="st3" d="M38.23,190.98c0-13.22-4.79-12.47-4.79-26.2c0-14.61,16.12-21.66,16.12-34.26s-3.02-41.31,22.67-41.31
				c25.69,0,22.67,28.72,22.67,41.31s16.12,19.65,16.12,34.26c0,13.73-4.79,12.97-4.79,26.2c0,18.64,17.38,17.76,17.38,50.38
				c0,40.81-51.39,42.32-51.39,42.32s-51.39-1.51-51.39-42.32C20.85,208.74,38.23,209.62,38.23,190.98z"/>
		</g>
	</g>
	<g>
		<g>
			<g>
				<path class="st4" d="M70.22,356.14c-0.44,0-0.79-0.35-0.79-0.79V132.04c0-0.44,0.35-0.79,0.79-0.79c0.44,0,0.79,0.35,0.79,0.79
					v223.32C71.01,355.79,70.65,356.14,70.22,356.14z"/>
			</g>
		</g>
		<g>
			<g>
				<path class="st4" d="M69.71,166.08c-0.2,0-0.4-0.08-0.56-0.23l-18.14-18.14c-0.31-0.31-0.31-0.81,0-1.12
					c0.31-0.31,0.81-0.31,1.12,0l18.14,18.14c0.31,0.31,0.31,0.81,0,1.12C70.12,166,69.91,166.08,69.71,166.08z"/>
			</g>
		</g>
		<g>
			<g>
				<path class="st4" d="M69.71,232.17c-0.2,0-0.4-0.08-0.56-0.23L51.02,213.8c-0.31-0.31-0.31-0.81,0-1.12
					c0.31-0.31,0.81-0.31,1.12,0l18.14,18.14c0.31,0.31,0.31,0.81,0,1.12C70.12,232.09,69.91,232.17,69.71,232.17z"/>
			</g>
		</g>
		<g>
			<g>
				<path class="st4" d="M70.47,201.59c-0.2,0-0.4-0.08-0.56-0.23c-0.31-0.31-0.31-0.81,0-1.12l23.93-23.93
					c0.31-0.31,0.81-0.31,1.12,0c0.31,0.31,0.31,0.81,0,1.12l-23.93,23.93C70.87,201.52,70.67,201.59,70.47,201.59z"/>
			</g>
		</g>
	</g>
	<g>
		<g>
			<path class="st6" d="M0,353.69c0,0,3.61,13.38,89.25,16.03c32.88,1.02-28.23,13.66-15.48,22.77
				c12.75,9.11,124.9,25.5,251.43,20.95s162.68-16.39,173.29-22.77c10.61-6.38-38.57-6.38-28.55-14.57
				c10.02-8.2,34.61-22.04,17.3-22.4C469.94,353.32,0,353.69,0,353.69z"/>
		</g>
	</g>
	<g>
		<g>
			<g>
				<g>
					<path class="st3" d="M239.19,335.74c-1.1-7.06-9.5-30.96-5.59-40.35c2.23-5.35,6.48-7.75,2.49-16.31
						c-2.06-4.43-0.93-10.65,3.39-15.42c5.23-5.77,0.15-17.72,10.87-19.66c8.43-1.52,8.71,12.74,6.26,18.54
						c-2.46,5.81,2.1,12.06-2.01,16.53c-9.11,9.91,0.93,12.37-3.13,18.32c-6.34,9.31,0.89,8.94-2.23,18.99
						c-3.13,10.05-2.46,19.35-2.46,19.35H239.19z"/>
				</g>
			</g>
			<g>
				<g>
					<path class="st7" d="M243.66,339.74c-0.2,0-0.39-0.14-0.44-0.35c-8.2-36.01,5.46-81.66,5.59-82.11
						c0.07-0.24,0.32-0.37,0.56-0.3c0.24,0.07,0.37,0.32,0.3,0.56c-0.14,0.45-13.72,45.88-5.58,81.65c0.05,0.24-0.1,0.48-0.34,0.53
						C243.73,339.74,243.69,339.74,243.66,339.74z"/>
				</g>
			</g>
		</g>
		<g>
			<g>
				<g>
					<path class="st1" d="M237.4,339.29c-3.8-5.47-11.17-7.26-11.84-10.17c-0.67-2.9,0.89-8.15-5.36-11.79
						c-6.26-3.63-6.93-7.43-6.93-14.13c0-6.7-13.41-9.16-10.05-16.53c3.35-7.37,14.3-0.67,18.77,5.59c4.47,6.26,7.15,2.46,9.83,7.37
						c2.68,4.92,2.23,8.27,8.27,11.73c6.03,3.46,3.57,27.92,3.57,27.92H237.4z"/>
				</g>
			</g>
			<g>
				<g>
					<path class="st7" d="M241.2,339.74c-0.21,0-0.4-0.15-0.44-0.37c-0.04-0.23-4.45-23.25-22.9-43.68
						c-0.17-0.18-0.15-0.47,0.03-0.63c0.18-0.17,0.47-0.15,0.63,0.03c18.64,20.63,23.08,43.89,23.12,44.12
						c0.04,0.24-0.12,0.48-0.36,0.52C241.26,339.74,241.23,339.74,241.2,339.74z"/>
				</g>
			</g>
		</g>
		<g>
			<g>
				<g>
					<path class="st5" d="M247.23,336.95c8.34-6.26,10.15-15.96,10.73-23.53c0.89-11.62,6.77-6.85,9.83-13.11
						c3.05-6.26-2.83-8.64,3.72-11.92c6.55-3.28,11.62-8.34,8.64-11.77c-2.98-3.43-11.92,2.53-14.3,4.92
						c-2.38,2.38-5.82-1.94-10.87,4.47c-4.72,5.98-1.22,9.89-4.12,12.34c-2.9,2.46-5.34,0.66-7.35,6.42
						c-3.43,9.83-0.35,32.17-0.35,32.17"/>
				</g>
			</g>
			<g>
				<g>
					<path class="st7" d="M245.27,339.74c-0.23,0-0.42-0.17-0.44-0.4c-3.29-30.37,21.3-53.43,21.55-53.66
						c0.18-0.17,0.46-0.16,0.63,0.03c0.17,0.18,0.16,0.46-0.03,0.63c-0.25,0.23-24.51,23-21.26,52.91c0.03,0.25-0.15,0.47-0.4,0.49
						C245.3,339.74,245.28,339.74,245.27,339.74z"/>
				</g>
			</g>
		</g>
	</g>
	<g>
		<g>
			<g>
				<path class="st1" d="M181.95,353.52c0,0-5.74-19.84-16.89-19.84c-11.15,0-14.1,9.92-14.1,9.92s-1.97-11.89-10.82-11.89
					s-8.85,9.6-8.85,9.6s-5.9-2.93-9.84,1.77c0,0-3.57-3.17-9.18-3.17c-9.84,0-11.8,13.61-11.8,13.61H181.95z"/>
			</g>
		</g>
		<g>
			<g>
				<path class="st1" d="M128.86,353.52c0,0-7.23-25-21.28-25c-14.05,0-17.77,12.5-17.77,12.5s-2.48-14.98-13.64-14.98
					c-11.16,0-11.16,12.1-11.16,12.1s-7.44-3.69-12.4,2.23c0,0-4.5-4-11.57-4c-12.4,0-14.88,17.15-14.88,17.15H128.86z"/>
			</g>
		</g>
	</g>
	<g>
		<g>
			<g>
				<path class="st5" d="M327.46,353.52c0,0-6.31-21.81-18.57-21.81s-15.5,10.91-15.5,10.91s-2.16-13.07-11.9-13.07
					c-9.73,0-9.73,10.55-9.73,10.55s-6.49-3.22-10.82,1.95c0,0-3.92-3.49-10.1-3.49c-10.82,0-12.98,14.96-12.98,14.96H327.46z"/>
			</g>
		</g>
		<g>
			<g>
				<path class="st5" d="M269.08,353.52c0,0-7.95-27.49-23.4-27.49c-15.45,0-19.54,13.75-19.54,13.75s-2.73-16.47-15-16.47
					s-12.27,13.3-12.27,13.3s-8.18-4.06-13.63,2.46c0,0-4.95-4.39-12.72-4.39c-13.63,0-16.36,18.86-16.36,18.86H269.08z"/>
			</g>
		</g>
	</g>
	<g>
		<g>
			<path class="st8" d="M150.84,151.3h159.93c0,0-3.15-10.7-13.85-8.82c-10.7,1.89-12.59,0-12.59-10.07s-5.02-13.82-18.26-13.85
				c-21.41-0.06-38.36,18.96-45.91,13.95c-7.56-5.01-20.83-14.01-42.24,2.39C156.5,151.3,150.84,151.3,150.84,151.3z"/>
		</g>
	</g>
	<g>
		<g>
			<g>
				<g>
					<path class="st9" d="M182.44,160.32l-10.17-2.55c0,0-6.73,3.83-8.17,8c-1.44,4.16-10.89,32.2-12.81,39.72
						s-1.12,14.9,2.08,16.02c3.2,1.12,4.48,0.8,4.48,0.8l-4.32,8.97c0,0,6.25,7.69,28.19,4.32c0,0-0.64-12.01,1.44-21.3
						c2.08-9.29,6.25-17.98,9.38-22.26c5.51-7.53,0.71-15.86-2.65-20.82C186.53,166.25,182.44,160.32,182.44,160.32z"/>
				</g>
			</g>
			<g>
				<g>
					<path class="st10" d="M181.25,208.22l15.67,0.45c0,0,4.23-2.97,6.8-2.84c2.57,0.13,8.89-2.48,10.52-1.89
						c1.62,0.59-6.4,5.18-6.4,5.18s8.96-0.45,12.62-1.37c3.66-0.92-0.54,3.06-5.15,4.33c-4.61,1.27-13.37,2.84-15.78,2.59
						c-2.41-0.24-20.27,2.42-20.27,2.42L181.25,208.22z"/>
				</g>
			</g>
			<g>
				<g>
					<path class="st9" d="M160.26,209.02c0,0,3.04-1.76,6.89-1.6c3.84,0.16,8.57,0.96,15.26,0.4c0,0,2.63,4.1,1.08,9.69
						c0,0-15.06,3.52-25.63,4.81"/>
				</g>
				<g>
					<path d="M157.88,222.55l-0.06-0.48c9.9-1.2,23.92-4.41,25.46-4.77c1.29-4.84-0.61-8.53-1.01-9.24
						c-4.83,0.39-8.69,0.08-11.81-0.18c-1.18-0.1-2.3-0.19-3.34-0.23c-3.73-0.15-6.73,1.55-6.76,1.57l-0.24-0.42
						c0.13-0.07,3.13-1.79,7.02-1.63c1.05,0.04,2.17,0.14,3.36,0.23c3.13,0.26,7.02,0.57,11.88,0.16l0.14-0.01l0.08,0.12
						c0.11,0.17,2.67,4.25,1.11,9.89l-0.04,0.14l-0.14,0.03C183.39,217.77,168.35,221.28,157.88,222.55z"/>
				</g>
			</g>
			<g>
				<g>
					
						<rect x="154.03" y="192.62" transform="matrix(0.3435 -0.9392 0.9392 0.3435 -69.6825 286.0412)" width="31.43" height="0.48"/>
				</g>
			</g>
		</g>
		<g>
			<g>
				<g>
					<path class="st11" d="M174.03,274.21l-3.12,35.88c0,0-8.09,34.92-8.42,61.83h-9.77c0,0-0.59-10.59,0-39.72
						c0.26-12.82,6.57-23.39,6.57-23.39s-13.03-43.88-7.96-69.51L174.03,274.21z"/>
				</g>
			</g>
			<g>
				<g>
					<g>
						<path class="st12" d="M153.53,231.28c0,0-7.53,13.61,4.32,31.71s29.63,44.85,29.63,44.85s-2.56,16.98,9.61,37.16
							c12.17,20.18,16.02,29.79,16.02,29.79l7.69-2.56c0,0-14.79-41.01-19.25-67.27c0,0-16.95-49.33-19.83-69.36L153.53,231.28z"/>
					</g>
				</g>
				<g>
					<g>
						<path class="st8" d="M162.5,371.92c0,0,2.56,5.29,6.57,6.89c4,1.6,12.65,2.24,12.01,4.32c-0.64,2.08-14.74,1.76-20.82,1.12
							c-6.09-0.64-9.08-1.6-9.08-1.6l1.56-10.73H162.5z"/>
					</g>
				</g>
				<g>
					<g>
						<path class="st8" d="M213.12,374.8l7.69-2.56c0,0,5.61,2.4,11.53,2.56c5.93,0.16,11.21-1.44,11.69,0s-11.21,8.34-16.98,9.93
							c-5.77,1.6-9.93,2.24-9.93,2.24L213.12,374.8z"/>
					</g>
				</g>
			</g>
		</g>
		<g>
			<g>
				<g>
					<path class="st13" d="M301.21,289.91c0,0,6.01,23.07,13.7,36.04c7.69,12.97,26.91,46.29,26.91,46.29l11.77-6.17
						c0,0-24.99-49.73-26.19-57.66c-1.2-7.93-3.84-65.11-3.84-65.11L301.21,289.91z"/>
				</g>
			</g>
			<g>
				<g>
					<path class="st14" d="M292.49,227.92L266.13,374.8h13.18l39.2-117.09c0,0,9.13-10.33,5.53-22.34
						C320.43,223.35,292.49,227.92,292.49,227.92z"/>
				</g>
			</g>
			<g>
				<g>
					<path class="st1" d="M279.31,374.8l0.92,12.17l-39.56,0.48c0,0,7.21-4.32,14.26-5.93c7.05-1.6,11.21-6.73,11.21-6.73H279.31z"
						/>
				</g>
			</g>
			<g>
				<g>
					<path class="st1" d="M353.59,366.07l6.89,7.93c0,0-23.23,13.45-33.08,13.45c-9.85,0,2.32-4.16,6.65-6.33
						c4.32-2.16,7.77-8.89,7.77-8.89L353.59,366.07z"/>
				</g>
			</g>
		</g>
		<g>
			<g>
				<g>
					<rect x="222.99" y="178.1" class="st9" width="44.91" height="36.24"/>
				</g>
			</g>
			<g>
				<g>
					<rect x="229.42" y="165.93" class="st14" width="32.04" height="12.17"/>
				</g>
			</g>
			<g>
				<g>
					<rect x="241.6" y="165.93" class="st15" width="7.69" height="48.41"/>
				</g>
			</g>
			<g>
				<g>
					<path class="st10" d="M246.55,209.66c0,0-3.24,0-6.37-1.2c-3.12-1.2-6.61-3.01-8.65-4.63c-2.04-1.62-0.96,3.07,0.72,4.27
						c1.68,1.2,3.36,2.64,3.36,2.64s-3.67,3.94-12.63,3.6c0,0-0.94,2.4,4.22,3c5.17,0.6,19.34-1.08,19.34-1.08V209.66z"/>
				</g>
			</g>
			<g>
				<g>
					<path class="st1" d="M300.25,138.9l-15.02,6.49c0,0-8.21,13.5-7.41,30.31c0.8,16.82,6.33,27.71,9.21,59.67
						c0,0,6.73-5.05,17.78-2.4c11.05,2.64,20.42,2.4,20.42,2.4s-4.08-33.64-6.49-51.66C316.35,165.69,308.42,140.22,300.25,138.9z"
						/>
				</g>
			</g>
			<g>
				<g>
					<path class="st1" d="M303.46,164.97l-9.47,47.04c-0.46,2.28-2.43,3.94-4.75,4.01l-43.44,1.32v-8.49c0,0,17.94-1.82,25.63-3.63
						c7.69-1.81,7.69-1.81,7.69-1.81l7.45-40.85"/>
				</g>
			</g>
			<g>
				<g>
					<rect x="262.07" y="182.75" transform="matrix(0.1797 -0.9837 0.9837 0.1797 52.0084 428.3422)" width="41.52" height="0.48"/>
				</g>
			</g>
			<g>
				<g>
					<path d="M284.7,216.4l-0.01-0.48l4.54-0.14c2.23-0.07,4.09-1.64,4.53-3.82l9.47-47.04l0.47,0.09l-9.47,47.04
						c-0.48,2.4-2.53,4.13-4.98,4.21L284.7,216.4z"/>
				</g>
			</g>
			<g>
				<g>
					<path d="M284.77,204.59c-0.03-0.01-2.96-1.48-5.61-0.94l-0.1-0.47c2.81-0.57,5.8,0.92,5.92,0.98L284.77,204.59z"/>
				</g>
			</g>
		</g>
		<g>
			<g>
				<g>
					<path class="st10" d="M186.61,116.43c1.52,3.2,1.25,7.08,2.96,8.89c2.36,2.48,3.92,3.36,2.32,5.93
						c-1.6,2.56-1.52,5.13-1.76,7.29s-1.6,5.29-4.08,5.21c-2.48-0.08-5.45-0.72-5.45-0.72s-1.12,12.81,1.84,17.3
						c0,0-3.28,2-10.17-2.08l1.92-36.36L186.61,116.43z"/>
				</g>
			</g>
			<g>
				<g>
					<path class="st16" d="M189.01,124.55c0,0,5.41-2.83,4.69-11.12c-0.72-8.29-12.01-5.53-12.01-5.53s-8.77-4.44-18.02,0.84
						c-9.25,5.29-3.96,21.26-7.69,29.19c-3.72,7.93-6.99,13.72-7.33,24.39c-0.47,14.9,5.81,19.39,8.73,23.57
						c0,0,6.42-19.21,7.24-21.16c1.96-4.71,12.87-7.88,12.51-14.67c-0.28-5.21,1.68-17.9-0.6-25.35c0,0,8.89-3.12,10.09-8.29
						c0,0,0.69,1.62,0.97,2.94C187.87,120.69,188.45,123.77,189.01,124.55z"/>
				</g>
			</g>
			<g>
				<g>
					<path d="M186.37,117.77l-0.38-0.29c0.01-0.02,1.14-1.56,1.5-5.63l0.48,0.04C187.59,116.12,186.42,117.7,186.37,117.77z"/>
				</g>
			</g>
			<g>
				<g>
					<path d="M186.7,136.1c-0.63,0-1.38-0.14-2.27-0.54l0.2-0.44c2.84,1.27,4.1-0.31,4.12-0.33l0.38,0.29
						C189.08,135.14,188.31,136.1,186.7,136.1z"/>
				</g>
			</g>
			<g>
				<g>
					<path class="st7" d="M181.72,126.18c-0.09,0-0.18-0.03-0.25-0.08c-0.21-0.14-0.26-0.42-0.12-0.63
						c1.42-2.08,4.08-3.31,4.19-3.36c0.23-0.1,0.49,0,0.6,0.22c0.1,0.23,0,0.49-0.22,0.6c-0.03,0.01-2.55,1.18-3.82,3.05
						C182.01,126.11,181.86,126.18,181.72,126.18z"/>
				</g>
			</g>
			<g>
				<g>
					<circle cx="185.48" cy="126.12" r="0.96"/>
				</g>
			</g>
		</g>
		<g>
			<g>
				<path class="st17" d="M324.04,235.37"/>
			</g>
		</g>
		<g>
			<g>
				<g>
					<path class="st10" d="M274.06,100.1c0,0-1.08,4.44-0.6,6.85s-4.32,9.01-3.24,10.81c1.08,1.8,3.72,1.8,2.4,6.85
						s1.56,8.17,6.73,6.97c5.17-1.2,5.17-1.2,5.17-1.2l0.72,15.02c0,0,11.17-1.8,15.02-6.49l-1.56-18.26l0.96-12.73l-17.3-7.81
						H274.06z"/>
				</g>
			</g>
			<g>
				<g>
					
						<rect x="264.1" y="87.98" transform="matrix(0.1869 -0.9824 0.9824 0.1869 119.4183 339.5515)" class="st18" width="1.44" height="19.32"/>
				</g>
			</g>
			<g>
				<g>
					<path class="st16" d="M281.27,100.94c0,0,12.01,6.25,11.65,11.41c0,0,2.98-3.26,4.57,0c1.58,3.26-0.24,6.13-1.56,6.49
						c0,0,1.08,2.28,0.84,5.29c-0.24,3,2.16,6.01,3.48,5.77c1.32-0.24-0.72-4.57,3-8.77c3.72-4.2,6.01-7.33,7.33-12.97l-31.47-9.13
						L281.27,100.94z"/>
				</g>
			</g>
			<g>
				<g>
					<path class="st9" d="M310.58,108.14l-36.52-8.05c0,0,4.2-19.23,24.36-13.11C314.12,91.75,310.58,108.14,310.58,108.14z"/>
				</g>
			</g>
			<g>
				<g>
					<path d="M277.22,123.37c-0.64,0-1.33-0.13-2.04-0.4l0.17-0.45c2.09,0.8,3.9,0.31,4.75-1.27l0.42,0.23
						C279.86,122.71,278.66,123.37,277.22,123.37z"/>
				</g>
			</g>
			<g>
				<g>
					<path class="st7" d="M284.03,107.52c-0.09,0-0.17-0.02-0.25-0.08c-2.38-1.59-5.98-1.72-6.01-1.73
						c-0.25-0.01-0.44-0.22-0.44-0.47c0.01-0.25,0.23-0.45,0.47-0.44c0.16,0.01,3.88,0.14,6.48,1.88c0.21,0.14,0.26,0.42,0.13,0.63
						C284.32,107.44,284.18,107.52,284.03,107.52z"/>
				</g>
			</g>
			<g>
				<g>
					<path d="M280.51,110.55c0,0.77-0.63,1.4-1.4,1.4c-0.77,0-1.4-0.63-1.4-1.4c0-0.77,0.63-1.4,1.4-1.4
						C279.88,109.15,280.51,109.77,280.51,110.55z"/>
				</g>
			</g>
		</g>
	</g>
</g>
</svg>
