<svg id="Group_1464" data-name="Group 1464" xmlns="http://www.w3.org/2000/svg" xmlns:xlink="http://www.w3.org/1999/xlink" width="29" height="29" viewBox="0 0 29 29">
  <defs>
    <clipPath id="clip-path">
      <rect id="Rectangle_2536" data-name="Rectangle 2536" width="29" height="29" fill="#5bdb98"/>
    </clipPath>
  </defs>
  <g id="Group_1463" data-name="Group 1463" clip-path="url(#clip-path)">
    <path id="Path_6135" data-name="Path 6135" d="M14.5,29A14.5,14.5,0,1,1,29,14.5,14.516,14.516,0,0,1,14.5,29m0-27.778A13.278,13.278,0,1,0,27.779,14.5,13.293,13.293,0,0,0,14.5,1.222m0,24.885A11.606,11.606,0,1,1,26.107,14.5,11.62,11.62,0,0,1,14.5,26.106m0-21.991A10.385,10.385,0,1,0,24.885,14.5,10.4,10.4,0,0,0,14.5,4.116" transform="translate(-0.001)" fill="#5bdb98"/>
    <path id="Path_6136" data-name="Path 6136" d="M34.817,76.423a.578.578,0,0,1-.579-.579v-4.63a3.519,3.519,0,0,1,3.472-3.472h5.241a.579.579,0,1,1,0,1.157H37.711A2.346,2.346,0,0,0,35.4,71.215v4.63a.578.578,0,0,1-.579.579m-4.63,0a.579.579,0,0,1-.579-.579v-4.63A2.264,2.264,0,0,0,27.294,68.9H21.829a.579.579,0,1,1,0-1.157h5.465a3.435,3.435,0,0,1,3.472,3.472v4.63a.578.578,0,0,1-.579.579M43.176,64.849a14.1,14.1,0,0,1-6.109-1.6A10.863,10.863,0,0,0,32.5,61.955a9.985,9.985,0,0,0-4.39,1.258,13.917,13.917,0,0,1-6.284,1.636.579.579,0,1,1,0-1.158,12.769,12.769,0,0,0,5.8-1.529A11.038,11.038,0,0,1,32.5,60.8a11.932,11.932,0,0,1,5.04,1.394,12.951,12.951,0,0,0,5.634,1.5.579.579,0,1,1,0,1.158" transform="translate(-18.002 -51.506)" fill="#5bdb98"/>
    <path id="Path_6137" data-name="Path 6137" d="M78.837,81.732a2.894,2.894,0,1,1,2.894-2.894,2.9,2.9,0,0,1-2.894,2.894m0-4.63a1.736,1.736,0,1,0,1.736,1.736A1.738,1.738,0,0,0,78.837,77.1" transform="translate(-64.337 -64.338)" fill="#5bdb98"/>
  </g>
</svg>
