<?xml version="1.0" encoding="utf-8"?>
<!-- Generator: Adobe Illustrator 24.0.1, SVG Export Plug-In . SVG Version: 6.00 Build 0)  -->
<svg version="1.1" id="Layer_1" xmlns="http://www.w3.org/2000/svg" xmlns:xlink="http://www.w3.org/1999/xlink" x="0px" y="0px"
	 viewBox="0 0 300 300" style="enable-background:new 0 0 300 300;" xml:space="preserve">
<style type="text/css">
	.st0{fill:none;}
</style>
<g>
	<g>
		<rect x="0.33" y="0.33" class="st0" width="299.33" height="299.33"/>
	</g>
	<g>
		<path d="M150,300C67.29,300,0,232.71,0,150C0,67.29,67.29,0,150,0c82.71,0,150,67.29,150,150C300,232.71,232.71,300,150,300z
			 M150,12.64C74.26,12.64,12.64,74.26,12.64,150S74.26,287.36,150,287.36S287.36,225.74,287.36,150S225.74,12.64,150,12.64z
			 M150,270.07C83.8,270.07,29.93,216.2,29.93,150S83.8,29.93,150,29.93S270.06,83.8,270.06,150S216.2,270.07,150,270.07z
			 M150,42.57C90.76,42.57,42.57,90.76,42.57,150S90.76,257.43,150,257.43S257.42,209.24,257.42,150S209.24,42.57,150,42.57z"/>
	</g>
	<g>
		<path d="M173.95,257.76c-3.31,0-5.99-2.68-5.99-5.99v-47.89c0-19.47,16.45-35.92,35.92-35.92h54.21c3.31,0,5.99,2.68,5.99,5.99
			s-2.68,5.99-5.99,5.99h-54.21c-12.98,0-23.95,10.97-23.95,23.95v47.89C179.93,255.08,177.26,257.76,173.95,257.76z M126.05,257.76
			c-3.31,0-5.99-2.68-5.99-5.99v-47.89c0-13.65-10.3-23.95-23.95-23.95H39.58c-3.31,0-5.99-2.68-5.99-5.99s2.68-5.99,5.99-5.99
			h56.54c20.14,0,35.92,15.78,35.92,35.92v47.89C132.04,255.08,129.36,257.76,126.05,257.76z M260.42,138.03
			c-26.38,0-45.94-8.8-63.2-16.57c-15.26-6.87-29.69-13.36-47.22-13.36c-17.24,0-30.3,6.03-45.41,13.01
			c-17.18,7.93-36.65,16.92-65.01,16.92c-3.31,0-5.99-2.68-5.99-5.99c0-3.31,2.68-5.99,5.99-5.99c25.72,0,43.14-8.04,59.98-15.82
			c15.72-7.26,30.56-14.11,50.43-14.11c20.1,0,36.39,7.33,52.14,14.42c16.95,7.63,34.47,15.52,58.28,15.52
			c3.31,0,5.99,2.68,5.99,5.99C266.41,135.35,263.73,138.03,260.42,138.03z"/>
	</g>
	<g>
		<path d="M150,179.93c-16.5,0-29.93-13.43-29.93-29.93s13.43-29.93,29.93-29.93s29.93,13.43,29.93,29.93S166.5,179.93,150,179.93z
			 M150,132.04c-9.9,0-17.96,8.06-17.96,17.96s8.06,17.96,17.96,17.96s17.96-8.06,17.96-17.96S159.9,132.04,150,132.04z"/>
	</g>
</g>
</svg>
