<?xml version="1.0" encoding="utf-8"?>
<!-- Generator: Adobe Illustrator 24.0.1, SVG Export Plug-In . SVG Version: 6.00 Build 0)  -->
<svg version="1.1" id="Layer_1" xmlns="http://www.w3.org/2000/svg" xmlns:xlink="http://www.w3.org/1999/xlink" x="0px" y="0px"
	 viewBox="0 0 500 500" style="enable-background:new 0 0 500 500;" xml:space="preserve">
<style type="text/css">
	.st0{fill:url(#SVGID_1_);}
	.st1{fill:url(#SVGID_2_);}
	.st2{fill:url(#SVGID_3_);}
	.st3{fill:url(#SVGID_4_);}
	.st4{fill:url(#SVGID_5_);}
	.st5{fill:url(#SVGID_6_);}
	.st6{fill:url(#SVGID_7_);}
	.st7{fill:#E6E6E6;}
	.st8{fill:#FCFCFC;}
	.st9{filter:url(#Adobe_OpacityMaskFilter);}
	.st10{filter:url(#Adobe_OpacityMaskFilter_1_);}
	.st11{mask:url(#SVGID_8_);fill:url(#SVGID_9_);}
	.st12{fill:url(#SVGID_10_);}
	.st13{fill:#F2F2F2;}
	.st14{fill:url(#SVGID_11_);}
	.st15{fill:url(#SVGID_12_);}
	.st16{fill:url(#SVGID_13_);}
	.st17{fill:url(#SVGID_14_);}
	.st18{fill:url(#SVGID_15_);}
	.st19{fill:url(#SVGID_16_);}
	.st20{fill:url(#SVGID_17_);}
	.st21{filter:url(#Adobe_OpacityMaskFilter_2_);}
	.st22{filter:url(#Adobe_OpacityMaskFilter_3_);}
	.st23{mask:url(#SVGID_18_);fill:url(#SVGID_19_);}
	.st24{fill:url(#SVGID_20_);}
	.st25{fill:url(#SVGID_21_);}
	.st26{fill:url(#SVGID_22_);}
	.st27{fill:url(#SVGID_23_);}
	.st28{fill:url(#SVGID_24_);}
	.st29{fill:url(#SVGID_25_);}
	.st30{opacity:0.1;}
	.st31{fill:url(#SVGID_26_);}
	.st32{fill:url(#SVGID_27_);}
	.st33{fill:url(#SVGID_28_);}
	.st34{fill:url(#SVGID_29_);}
	.st35{fill:url(#SVGID_30_);}
	.st36{opacity:0.05;}
	.st37{fill:url(#SVGID_31_);}
	.st38{fill:url(#SVGID_32_);}
	.st39{fill:url(#SVGID_33_);}
	.st40{fill:url(#SVGID_34_);}
	.st41{fill:#60E99C;}
	.st42{fill:#56CD93;}
</style>
<g>
	<polygon points="76.85,253.16 65.63,269.66 85.63,270.93 95.67,253.16 	"/>
	<g>
		<g>
			<g>
				
					<radialGradient id="SVGID_1_" cx="186.2145" cy="243.0074" r="7.7166" gradientTransform="matrix(1.7041 0 0 1.7041 -176.0165 -56.5451)" gradientUnits="userSpaceOnUse">
					<stop  offset="0" style="stop-color:#FFFFFF"/>
					<stop  offset="1" style="stop-color:#8B8B8B"/>
				</radialGradient>
				<rect x="137.4" y="348.62" class="st0" width="7.51" height="17.66"/>
			</g>
			<g>
				
					<radialGradient id="SVGID_2_" cx="175.0415" cy="237.1974" r="7.927" gradientTransform="matrix(1.7041 0 0 1.7041 -176.0165 -56.5451)" gradientUnits="userSpaceOnUse">
					<stop  offset="0" style="stop-color:#FFFFFF"/>
					<stop  offset="1" style="stop-color:#8B8B8B"/>
				</radialGradient>
				<polygon class="st1" points="117.06,355.71 112.79,349.53 127.33,339.5 131.6,345.68 				"/>
			</g>
			<g>
				
					<radialGradient id="SVGID_3_" cx="173.8795" cy="223.0748" r="7.8663" gradientTransform="matrix(1.7041 0 0 1.7041 -176.0165 -56.5451)" gradientUnits="userSpaceOnUse">
					<stop  offset="0" style="stop-color:#FFFFFF"/>
					<stop  offset="1" style="stop-color:#8B8B8B"/>
				</radialGradient>
				<polygon class="st2" points="111.06,322.56 114.58,315.92 130.18,324.2 126.66,330.84 				"/>
			</g>
			<g>
				
					<radialGradient id="SVGID_4_" cx="186.2145" cy="215.3877" r="9.1176" gradientTransform="matrix(1.7041 0 0 1.7041 -176.0165 -56.5451)" gradientUnits="userSpaceOnUse">
					<stop  offset="0" style="stop-color:#FFFFFF"/>
					<stop  offset="1" style="stop-color:#8B8B8B"/>
				</radialGradient>
				<polygon class="st3" points="137.65,301.88 145.16,302.09 144.67,319.75 137.16,319.54 				"/>
			</g>
			<g>
				
					<radialGradient id="SVGID_5_" cx="198.6389" cy="222.9854" r="10.154" gradientTransform="matrix(1.7041 0 0 1.7041 -176.0165 -56.5451)" gradientUnits="userSpaceOnUse">
					<stop  offset="0" style="stop-color:#FFFFFF"/>
					<stop  offset="1" style="stop-color:#8B8B8B"/>
				</radialGradient>
				<polygon class="st4" points="168.29,316.12 171.69,322.82 155.94,330.81 152.54,324.12 				"/>
			</g>
			<g>
				
					<radialGradient id="SVGID_6_" cx="197.3875" cy="237.108" r="9.7166" gradientTransform="matrix(1.7041 0 0 1.7041 -176.0165 -56.5451)" gradientUnits="userSpaceOnUse">
					<stop  offset="0" style="stop-color:#FFFFFF"/>
					<stop  offset="1" style="stop-color:#8B8B8B"/>
				</radialGradient>
				<polygon class="st5" points="169.8,349.78 165.42,355.88 151.07,345.59 155.44,339.49 				"/>
			</g>
		</g>
		<path d="M141.16,280.34c-29.41,0-53.26,23.84-53.26,53.26s23.84,53.26,53.26,53.26c29.41,0,53.26-23.84,53.26-53.26
			S170.57,280.34,141.16,280.34z M183.84,333.6c0,11.4-4.44,22.12-12.5,30.18c-8.06,8.06-18.78,12.5-30.18,12.5
			c-11.4,0-22.12-4.44-30.18-12.5c-8.06-8.06-12.5-18.78-12.5-30.18c0-11.4,4.44-22.12,12.5-30.18c8.06-8.06,18.78-12.5,30.18-12.5
			c11.4,0,22.12,4.44,30.18,12.5C179.4,311.48,183.84,322.2,183.84,333.6z"/>
		
			<radialGradient id="SVGID_7_" cx="186.1276" cy="228.9493" r="25.0462" gradientTransform="matrix(1.7041 0 0 1.7041 -176.0165 -56.5451)" gradientUnits="userSpaceOnUse">
			<stop  offset="0.8148" style="stop-color:#000000"/>
			<stop  offset="0.8958" style="stop-color:#333333"/>
			<stop  offset="0.9232" style="stop-color:#2E2E2E"/>
			<stop  offset="0.9555" style="stop-color:#202020"/>
			<stop  offset="0.99" style="stop-color:#080808"/>
			<stop  offset="1" style="stop-color:#000000"/>
		</radialGradient>
		<path class="st6" d="M171.34,303.42c-8.06-8.06-18.78-12.5-30.18-12.5c-11.4,0-22.12,4.44-30.18,12.5
			c-8.06,8.06-12.5,18.78-12.5,30.18c0,11.4,4.44,22.12,12.5,30.18c8.06,8.06,18.78,12.5,30.18,12.5c11.4,0,22.12-4.44,30.18-12.5
			c8.06-8.06,12.5-18.78,12.5-30.18C183.84,322.2,179.4,311.48,171.34,303.42z M166.85,359.29c-6.86,6.86-15.99,10.64-25.69,10.64
			c-9.7,0-18.83-3.78-25.69-10.64c-6.86-6.86-10.64-15.99-10.64-25.69s3.78-18.83,10.64-25.69c6.86-6.86,15.99-10.64,25.69-10.64
			c9.7,0,18.83,3.78,25.69,10.64c6.86,6.86,10.64,15.99,10.64,25.69S173.71,352.43,166.85,359.29z"/>
		<path class="st7" d="M166.85,307.91c-6.86-6.86-15.99-10.64-25.69-10.64c-9.7,0-18.83,3.78-25.69,10.64
			c-6.86,6.86-10.64,15.99-10.64,25.69s3.78,18.83,10.64,25.69c6.86,6.86,15.99,10.64,25.69,10.64c9.7,0,18.83-3.78,25.69-10.64
			c6.86-6.86,10.64-15.99,10.64-25.69S173.71,314.77,166.85,307.91z M161.61,354.06c-5.46,5.46-12.73,8.47-20.46,8.47
			s-14.99-3.01-20.46-8.47c-5.46-5.46-8.47-12.73-8.47-20.46s3.01-14.99,8.47-20.46c5.46-5.46,12.73-8.47,20.46-8.47
			s14.99,3.01,20.46,8.47c5.46,5.46,8.47,12.73,8.47,20.46S167.08,348.59,161.61,354.06z"/>
		<g>
			<path class="st8" d="M141.16,353.01c-5.18,0-10.06-2.02-13.72-5.69c-3.67-3.67-5.69-8.54-5.69-13.72
				c0-5.18,2.02-10.06,5.68-13.72c3.67-3.67,8.54-5.69,13.72-5.69c5.18,0,10.06,2.02,13.72,5.69c3.67,3.67,5.69,8.54,5.69,13.72
				c0,5.18-2.02,10.06-5.68,13.72C151.22,350.99,146.34,353.01,141.16,353.01z"/>
			<defs>
				<filter id="Adobe_OpacityMaskFilter" filterUnits="userSpaceOnUse" x="121.75" y="314.19" width="38.82" height="38.82">
					<feFlood  style="flood-color:white;flood-opacity:1" result="back"/>
					<feBlend  in="SourceGraphic" in2="back" mode="normal"/>
				</filter>
			</defs>
			<mask maskUnits="userSpaceOnUse" x="121.75" y="314.19" width="38.82" height="38.82" id="SVGID_8_">
				<g class="st9">
					<defs>
						<filter id="Adobe_OpacityMaskFilter_1_" filterUnits="userSpaceOnUse" x="121.75" y="314.19" width="38.82" height="38.82">
							<feFlood  style="flood-color:white;flood-opacity:1" result="back"/>
							<feBlend  in="SourceGraphic" in2="back" mode="normal"/>
						</filter>
					</defs>
					<mask maskUnits="userSpaceOnUse" x="121.75" y="314.19" width="38.82" height="38.82" id="SVGID_8_">
						<g class="st10">
						</g>
					</mask>
					
						<radialGradient id="SVGID_9_" cx="186.1276" cy="228.9493" r="11.3903" gradientTransform="matrix(1.7041 0 0 1.7041 -176.0165 -56.5451)" gradientUnits="userSpaceOnUse">
						<stop  offset="0" style="stop-color:#FFFFFF"/>
						<stop  offset="0.0265" style="stop-color:#F1F1F1"/>
						<stop  offset="0.1391" style="stop-color:#B9B9B9"/>
						<stop  offset="0.2553" style="stop-color:#888888"/>
						<stop  offset="0.3727" style="stop-color:#5E5E5E"/>
						<stop  offset="0.4914" style="stop-color:#3C3C3C"/>
						<stop  offset="0.6119" style="stop-color:#222222"/>
						<stop  offset="0.735" style="stop-color:#0F0F0F"/>
						<stop  offset="0.8622" style="stop-color:#040404"/>
						<stop  offset="1" style="stop-color:#000000"/>
					</radialGradient>
					<path class="st11" d="M141.16,353.01c-5.18,0-10.06-2.02-13.72-5.69c-3.67-3.67-5.69-8.54-5.69-13.72
						c0-5.18,2.02-10.06,5.68-13.72c3.67-3.67,8.54-5.69,13.72-5.69c5.18,0,10.06,2.02,13.72,5.69c3.67,3.67,5.69,8.54,5.69,13.72
						c0,5.18-2.02,10.06-5.68,13.72C151.22,350.99,146.34,353.01,141.16,353.01z"/>
				</g>
			</mask>
			
				<radialGradient id="SVGID_10_" cx="186.1276" cy="228.9493" r="11.3903" gradientTransform="matrix(1.7041 0 0 1.7041 -176.0165 -56.5451)" gradientUnits="userSpaceOnUse">
				<stop  offset="0" style="stop-color:#FFFFFF"/>
				<stop  offset="0.0265" style="stop-color:#F1F1F1"/>
				<stop  offset="0.1391" style="stop-color:#B9B9B9"/>
				<stop  offset="0.2553" style="stop-color:#888888"/>
				<stop  offset="0.3727" style="stop-color:#5E5E5E"/>
				<stop  offset="0.4914" style="stop-color:#3C3C3C"/>
				<stop  offset="0.6119" style="stop-color:#222222"/>
				<stop  offset="0.735" style="stop-color:#0F0F0F"/>
				<stop  offset="0.8622" style="stop-color:#040404"/>
				<stop  offset="1" style="stop-color:#000000"/>
			</radialGradient>
			<path class="st12" d="M141.16,353.01c-5.18,0-10.06-2.02-13.72-5.69c-3.67-3.67-5.69-8.54-5.69-13.72
				c0-5.18,2.02-10.06,5.68-13.72c3.67-3.67,8.54-5.69,13.72-5.69c5.18,0,10.06,2.02,13.72,5.69c3.67,3.67,5.69,8.54,5.69,13.72
				c0,5.18-2.02,10.06-5.68,13.72C151.22,350.99,146.34,353.01,141.16,353.01z"/>
			<path class="st8" d="M141.16,344.55c-2.92,0-5.67-1.14-7.74-3.21c-2.07-2.07-3.21-4.82-3.21-7.74c0-2.92,1.14-5.67,3.21-7.74
				c2.07-2.07,4.82-3.21,7.74-3.21c2.92,0,5.67,1.14,7.74,3.21c2.07,2.07,3.21,4.82,3.21,7.74c0,2.92-1.14,5.67-3.21,7.74
				C146.83,343.41,144.08,344.55,141.16,344.55z"/>
		</g>
		<g>
			<path class="st8" d="M159.17,335.4c-6.58,0-12.76-2.56-17.41-7.21c-4.65-4.65-7.21-10.83-7.21-17.41
				c0-6.58,2.56-12.76,7.21-17.41c4.65-4.65,10.83-7.21,17.41-7.21c6.58,0,12.76,2.56,17.41,7.21c4.65,4.65,7.21,10.83,7.21,17.41
				c0,6.58-2.56,12.76-7.21,17.41C171.92,332.84,165.74,335.4,159.17,335.4z"/>
			<path class="st13" d="M159.17,332.19c-5.72,0-11.09-2.23-15.14-6.27c-4.04-4.04-6.27-9.42-6.27-15.14
				c0-5.72,2.23-11.09,6.27-15.14c4.04-4.04,9.42-6.27,15.14-6.27c5.72,0,11.09,2.23,15.14,6.27c4.04,4.04,6.27,9.42,6.27,15.14
				c0,5.72-2.23,11.09-6.27,15.14C170.26,329.96,164.88,332.19,159.17,332.19z"/>
		</g>
	</g>
	<g>
		<g>
			<g>
				
					<radialGradient id="SVGID_11_" cx="365.169" cy="243.0074" r="7.7166" gradientTransform="matrix(1.7041 0 0 1.7041 -176.0165 -56.5451)" gradientUnits="userSpaceOnUse">
					<stop  offset="0" style="stop-color:#FFFFFF"/>
					<stop  offset="1" style="stop-color:#8B8B8B"/>
				</radialGradient>
				<rect x="442.35" y="348.62" class="st14" width="7.51" height="17.66"/>
			</g>
			<g>
				
					<radialGradient id="SVGID_12_" cx="353.996" cy="237.1974" r="7.927" gradientTransform="matrix(1.7041 0 0 1.7041 -176.0165 -56.5451)" gradientUnits="userSpaceOnUse">
					<stop  offset="0" style="stop-color:#FFFFFF"/>
					<stop  offset="1" style="stop-color:#8B8B8B"/>
				</radialGradient>
				<polygon class="st15" points="422.01,355.71 417.74,349.53 432.28,339.5 436.55,345.68 				"/>
			</g>
			<g>
				
					<radialGradient id="SVGID_13_" cx="352.834" cy="223.0748" r="7.8663" gradientTransform="matrix(1.7041 0 0 1.7041 -176.0165 -56.5451)" gradientUnits="userSpaceOnUse">
					<stop  offset="0" style="stop-color:#FFFFFF"/>
					<stop  offset="1" style="stop-color:#8B8B8B"/>
				</radialGradient>
				<polygon class="st16" points="416.01,322.56 419.53,315.92 435.13,324.2 431.61,330.84 				"/>
			</g>
			<g>
				
					<radialGradient id="SVGID_14_" cx="365.169" cy="215.3877" r="9.1176" gradientTransform="matrix(1.7041 0 0 1.7041 -176.0165 -56.5451)" gradientUnits="userSpaceOnUse">
					<stop  offset="0" style="stop-color:#FFFFFF"/>
					<stop  offset="1" style="stop-color:#8B8B8B"/>
				</radialGradient>
				<polygon class="st17" points="442.6,301.88 450.11,302.09 449.62,319.75 442.11,319.54 				"/>
			</g>
			<g>
				
					<radialGradient id="SVGID_15_" cx="377.5934" cy="222.9854" r="10.154" gradientTransform="matrix(1.7041 0 0 1.7041 -176.0165 -56.5451)" gradientUnits="userSpaceOnUse">
					<stop  offset="0" style="stop-color:#FFFFFF"/>
					<stop  offset="1" style="stop-color:#8B8B8B"/>
				</radialGradient>
				<polygon class="st18" points="473.24,316.12 476.64,322.82 460.89,330.81 457.49,324.12 				"/>
			</g>
			<g>
				
					<radialGradient id="SVGID_16_" cx="376.342" cy="237.108" r="9.7166" gradientTransform="matrix(1.7041 0 0 1.7041 -176.0165 -56.5451)" gradientUnits="userSpaceOnUse">
					<stop  offset="0" style="stop-color:#FFFFFF"/>
					<stop  offset="1" style="stop-color:#8B8B8B"/>
				</radialGradient>
				<polygon class="st19" points="474.75,349.78 470.37,355.88 456.02,345.59 460.39,339.49 				"/>
			</g>
		</g>
		<path d="M446.11,280.34c-29.41,0-53.26,23.84-53.26,53.26s23.84,53.26,53.26,53.26s53.26-23.84,53.26-53.26
			S475.52,280.34,446.11,280.34z M488.79,333.6c0,11.4-4.44,22.12-12.5,30.18c-8.06,8.06-18.78,12.5-30.18,12.5
			c-11.4,0-22.12-4.44-30.18-12.5c-8.06-8.06-12.5-18.78-12.5-30.18c0-11.4,4.44-22.12,12.5-30.18c8.06-8.06,18.78-12.5,30.18-12.5
			c11.4,0,22.12,4.44,30.18,12.5C484.35,311.48,488.79,322.2,488.79,333.6z"/>
		
			<radialGradient id="SVGID_17_" cx="365.0821" cy="228.9493" r="25.0462" gradientTransform="matrix(1.7041 0 0 1.7041 -176.0165 -56.5451)" gradientUnits="userSpaceOnUse">
			<stop  offset="0.8148" style="stop-color:#000000"/>
			<stop  offset="0.8958" style="stop-color:#333333"/>
			<stop  offset="0.9232" style="stop-color:#2E2E2E"/>
			<stop  offset="0.9555" style="stop-color:#202020"/>
			<stop  offset="0.99" style="stop-color:#080808"/>
			<stop  offset="1" style="stop-color:#000000"/>
		</radialGradient>
		<path class="st20" d="M476.29,303.42c-8.06-8.06-18.78-12.5-30.18-12.5c-11.4,0-22.12,4.44-30.18,12.5
			c-8.06,8.06-12.5,18.78-12.5,30.18c0,11.4,4.44,22.12,12.5,30.18c8.06,8.06,18.78,12.5,30.18,12.5c11.4,0,22.12-4.44,30.18-12.5
			c8.06-8.06,12.5-18.78,12.5-30.18C488.79,322.2,484.35,311.48,476.29,303.42z M471.8,359.29c-6.86,6.86-15.99,10.64-25.69,10.64
			s-18.83-3.78-25.69-10.64c-6.86-6.86-10.64-15.99-10.64-25.69s3.78-18.83,10.64-25.69c6.86-6.86,15.99-10.64,25.69-10.64
			s18.83,3.78,25.69,10.64c6.86,6.86,10.64,15.99,10.64,25.69S478.66,352.43,471.8,359.29z"/>
		<path class="st7" d="M471.8,307.91c-6.86-6.86-15.99-10.64-25.69-10.64s-18.83,3.78-25.69,10.64
			c-6.86,6.86-10.64,15.99-10.64,25.69s3.78,18.83,10.64,25.69c6.86,6.86,15.99,10.64,25.69,10.64s18.83-3.78,25.69-10.64
			c6.86-6.86,10.64-15.99,10.64-25.69S478.66,314.77,471.8,307.91z M466.56,354.06c-5.46,5.46-12.73,8.47-20.46,8.47
			s-14.99-3.01-20.46-8.47c-5.46-5.46-8.47-12.73-8.47-20.46s3.01-14.99,8.47-20.46c5.46-5.46,12.73-8.47,20.46-8.47
			s14.99,3.01,20.46,8.47c5.46,5.46,8.47,12.73,8.47,20.46S472.03,348.59,466.56,354.06z"/>
		<path class="st8" d="M446.11,353.01c-5.18,0-10.06-2.02-13.72-5.69c-3.67-3.67-5.69-8.54-5.69-13.72c0-5.18,2.02-10.06,5.68-13.72
			c3.67-3.67,8.54-5.69,13.72-5.69s10.06,2.02,13.72,5.69c3.67,3.67,5.69,8.54,5.69,13.72c0,5.18-2.02,10.06-5.68,13.72
			C456.17,350.99,451.29,353.01,446.11,353.01z"/>
		<defs>
			<filter id="Adobe_OpacityMaskFilter_2_" filterUnits="userSpaceOnUse" x="426.7" y="314.19" width="38.82" height="38.82">
				<feFlood  style="flood-color:white;flood-opacity:1" result="back"/>
				<feBlend  in="SourceGraphic" in2="back" mode="normal"/>
			</filter>
		</defs>
		<mask maskUnits="userSpaceOnUse" x="426.7" y="314.19" width="38.82" height="38.82" id="SVGID_18_">
			<g class="st21">
				<defs>
					<filter id="Adobe_OpacityMaskFilter_3_" filterUnits="userSpaceOnUse" x="426.7" y="314.19" width="38.82" height="38.82">
						<feFlood  style="flood-color:white;flood-opacity:1" result="back"/>
						<feBlend  in="SourceGraphic" in2="back" mode="normal"/>
					</filter>
				</defs>
				<mask maskUnits="userSpaceOnUse" x="426.7" y="314.19" width="38.82" height="38.82" id="SVGID_18_">
					<g class="st22">
					</g>
				</mask>
				
					<radialGradient id="SVGID_19_" cx="365.0821" cy="228.9493" r="11.3903" gradientTransform="matrix(1.7041 0 0 1.7041 -176.0165 -56.5451)" gradientUnits="userSpaceOnUse">
					<stop  offset="0" style="stop-color:#FFFFFF"/>
					<stop  offset="0.0265" style="stop-color:#F1F1F1"/>
					<stop  offset="0.1391" style="stop-color:#B9B9B9"/>
					<stop  offset="0.2553" style="stop-color:#888888"/>
					<stop  offset="0.3727" style="stop-color:#5E5E5E"/>
					<stop  offset="0.4914" style="stop-color:#3C3C3C"/>
					<stop  offset="0.6119" style="stop-color:#222222"/>
					<stop  offset="0.735" style="stop-color:#0F0F0F"/>
					<stop  offset="0.8622" style="stop-color:#040404"/>
					<stop  offset="1" style="stop-color:#000000"/>
				</radialGradient>
				<path class="st23" d="M446.11,353.01c-5.18,0-10.06-2.02-13.72-5.69c-3.67-3.67-5.69-8.54-5.69-13.72
					c0-5.18,2.02-10.06,5.68-13.72c3.67-3.67,8.54-5.69,13.72-5.69s10.06,2.02,13.72,5.69c3.67,3.67,5.69,8.54,5.69,13.72
					c0,5.18-2.02,10.06-5.68,13.72C456.17,350.99,451.29,353.01,446.11,353.01z"/>
			</g>
		</mask>
		
			<radialGradient id="SVGID_20_" cx="365.0821" cy="228.9493" r="11.3903" gradientTransform="matrix(1.7041 0 0 1.7041 -176.0165 -56.5451)" gradientUnits="userSpaceOnUse">
			<stop  offset="0" style="stop-color:#FFFFFF"/>
			<stop  offset="0.0265" style="stop-color:#F1F1F1"/>
			<stop  offset="0.1391" style="stop-color:#B9B9B9"/>
			<stop  offset="0.2553" style="stop-color:#888888"/>
			<stop  offset="0.3727" style="stop-color:#5E5E5E"/>
			<stop  offset="0.4914" style="stop-color:#3C3C3C"/>
			<stop  offset="0.6119" style="stop-color:#222222"/>
			<stop  offset="0.735" style="stop-color:#0F0F0F"/>
			<stop  offset="0.8622" style="stop-color:#040404"/>
			<stop  offset="1" style="stop-color:#000000"/>
		</radialGradient>
		<path class="st24" d="M446.11,353.01c-5.18,0-10.06-2.02-13.72-5.69c-3.67-3.67-5.69-8.54-5.69-13.72
			c0-5.18,2.02-10.06,5.68-13.72c3.67-3.67,8.54-5.69,13.72-5.69s10.06,2.02,13.72,5.69c3.67,3.67,5.69,8.54,5.69,13.72
			c0,5.18-2.02,10.06-5.68,13.72C456.17,350.99,451.29,353.01,446.11,353.01z"/>
		<path class="st8" d="M446.11,344.55c-2.92,0-5.67-1.14-7.74-3.21c-2.07-2.07-3.21-4.82-3.21-7.74c0-2.92,1.14-5.67,3.21-7.74
			c2.07-2.07,4.82-3.21,7.74-3.21s5.67,1.14,7.74,3.21c2.07,2.07,3.21,4.82,3.21,7.74c0,2.92-1.14,5.67-3.21,7.74
			C451.78,343.41,449.03,344.55,446.11,344.55z"/>
	</g>
	<polygon points="357.31,165.21 359,169.01 371.48,158.44 368.94,154.84 	"/>
	<g>
		
			<radialGradient id="SVGID_21_" cx="243.1478" cy="239.2757" r="18.7621" gradientTransform="matrix(1.7032 0.0527 -0.0527 1.7032 40.476 -106.5939)" gradientUnits="userSpaceOnUse">
			<stop  offset="0" style="stop-color:#FFFFFF"/>
			<stop  offset="1" style="stop-color:#8B8B8B"/>
		</radialGradient>
		<path class="st25" d="M452.42,335.38L452.42,335.38c-1.18,0.56-2.59,0.06-3.15-1.12L430.9,295.5c-0.56-1.18-0.06-2.59,1.12-3.15v0
			c1.18-0.56,2.59-0.06,3.15,1.12l18.38,38.76C454.11,333.41,453.6,334.82,452.42,335.38z"/>
		
			<radialGradient id="SVGID_22_" cx="238.6233" cy="241.2291" r="18.6703" gradientTransform="matrix(1.7032 0.0527 -0.0527 1.7032 40.476 -106.5939)" gradientUnits="userSpaceOnUse">
			<stop  offset="0" style="stop-color:#FFFFFF"/>
			<stop  offset="1" style="stop-color:#8B8B8B"/>
		</radialGradient>
		<path class="st26" d="M444.64,339.03L444.64,339.03c-1.18,0.56-2.59,0.06-3.15-1.12l-18.38-38.76c-0.56-1.18-0.06-2.59,1.12-3.15
			l0,0c1.18-0.56,2.59-0.06,3.15,1.12l18.38,38.76C446.32,337.06,445.82,338.47,444.64,339.03z"/>
		
			<radialGradient id="SVGID_23_" cx="967.7137" cy="268.7837" r="18.3058" gradientTransform="matrix(1.68 -0.2851 0.2851 1.68 -1285.345 112.9208)" gradientUnits="userSpaceOnUse">
			<stop  offset="0" style="stop-color:#FFFFFF"/>
			<stop  offset="1" style="stop-color:#8B8B8B"/>
		</radialGradient>
		<path class="st27" d="M434.85,273.71l3.46,13.9c0.55,2.2-0.4,4.51-2.34,5.69l-11.59,7.03c-1.31,0.8-2.91,0.97-4.37,0.48
			c-6.34-2.16-23.58-8.05-22.67-7.86c1.11,0.24,37.82-19.93,37.82-19.93"/>
		
			<radialGradient id="SVGID_24_" cx="-210.843" cy="438.8346" r="22.2968" gradientTransform="matrix(2.1999 -0.1828 -0.3074 1.824 1014.9147 -568.2179)" gradientUnits="userSpaceOnUse">
			<stop  offset="0" style="stop-color:#FFFFFF"/>
			<stop  offset="1" style="stop-color:#8B8B8B"/>
		</radialGradient>
		<path class="st28" d="M428.67,296.62L428.67,296.62c-1.92,0.91-4.22,0.09-5.13-1.83l-21.09-44.49c-0.91-1.92-0.09-4.22,1.83-5.13
			l0,0c1.92-0.91,4.22-0.09,5.13,1.83l21.09,44.49C431.41,293.41,430.59,295.71,428.67,296.62z"/>
	</g>
	<g>
		
			<radialGradient id="SVGID_25_" cx="358.7042" cy="199.4948" r="31.0634" gradientTransform="matrix(1.7041 0 0 1.7041 -176.0165 -56.5451)" gradientUnits="userSpaceOnUse">
			<stop  offset="0" style="stop-color:#56CD93"/>
			<stop  offset="1" style="stop-color:#60E99C"/>
		</radialGradient>
		<path class="st29" d="M500,281.66l-32.93,0.52c-2.96,0.05-5.92,0.31-8.85,0.8c-34.51,5.8-56.01,27.5-56.01,27.5
			c-13.96,10.08-22.84,11.01-27.55,10.28c-2.86-0.44-4.18-1.5-4.18-1.5c0.6-0.43,1.2-0.95,1.79-1.53c5.9-5.85,10.8-18.36,10.8-18.36
			c2.06-7.58,5.09-14.28,8.56-20.1c3.74-6.28,8.38-11.82,13.7-16.49c14.44-12.69,33.82-18.98,53.5-16.35
			c29.99,4.01,38.54,25.51,40.6,32.8C499.85,280.76,500,281.66,500,281.66z"/>
		<path class="st30" d="M405.33,262.79c-4.7,12.39-16.86,42.59-28.51,55.73c-0.72,0.82-1.44,1.57-2.16,2.24
			c-2.86-0.44-4.18-1.5-4.18-1.5c0.6-0.43,1.2-0.95,1.79-1.53c5.9-5.85,10.8-18.36,10.8-18.36c2.06-7.58,5.09-14.28,8.56-20.1
			C395.37,273,400.01,267.46,405.33,262.79z"/>
	</g>
	
		<radialGradient id="SVGID_26_" cx="221.647" cy="191.7903" r="124.1327" gradientTransform="matrix(1.7041 0 0 1.7041 -176.0165 -56.5451)" gradientUnits="userSpaceOnUse">
		<stop  offset="0" style="stop-color:#56CD93"/>
		<stop  offset="1" style="stop-color:#A3EFC2"/>
	</radialGradient>
	<path class="st31" d="M419.82,246.64l-19.57,12.71c-4.28,12.96-24.06,47.76-24.06,47.76c-15.97,20.31-44.11,22.42-44.11,22.42
		H216.9c-1.7,0-3.13-1.26-3.34-2.94l0,0l-0.37-2.97l-0.15-1.21l-0.17-1.35l-4.88-0.3l-6.71-0.41l-19.26-1.17l-101.66-6.16
		l-3.19-0.19l-7.22-0.44l-6.02-0.36l-4.76-0.29c4.76-24.33,27.92-51.51,27.92-51.51c18.83-23.69,41.78-35.54,41.78-35.54l-0.05-1.21
		l-0.58-12.97l8.89,1.59l93.51-0.95l35.75-2.12l0.1,4.79l0.14,6.47c0,0.04,0,0.08,0,0.12c0,1.96-1.04,3.78-2.73,4.78
		c-11.5,6.77-20.57,32.07-20.57,32.07c-4.97,23.27,11.95,39.03,11.95,39.03c16.61,10.79,55.96,9.63,55.96,9.63
		c31.1,1.27,40.62-9.2,40.62-9.2c9.26-7.92,15.71-17.65,20.19-27.37c8.01-17.35,9.77-34.67,10.16-41.56
		c0.11-1.99,0.11-3.11,0.11-3.11l-9.22-21.3l-15.59-36.03c-0.12-0.28-0.03-0.6,0.22-0.77l9.58-6.68l3.43-2.39
		c0.29-0.2,0.69-0.13,0.89,0.17c11.4,17.08,22.03,34.39,29.63,47.13c7.11,11.9,11.58,19.82,11.58,19.82h5.14
		c0.62,0,1.14,0.48,1.18,1.09l1.52,19.14C420.74,245.58,420.41,246.25,419.82,246.64z"/>
	<path class="st30" d="M266.5,213.84c-1.23,2.46-3.63,4.25-6.51,4.63c-13.77,1.79-44.2,5.33-69.8,5.33l-56.68,0.65
		c-1.64,0.02-3.23-0.32-4.67-0.96l-0.58-12.97l8.89,1.59l93.51-0.95l35.75-2.12L266.5,213.84z"/>
	<g>
		<g>
			<rect x="386.34" y="113.22" class="st7" width="2.91" height="35.33"/>
			<rect x="387.8" y="113.22" class="st8" width="1.45" height="35.33"/>
		</g>
		<g>
			<ellipse transform="matrix(0.3876 -0.9218 0.9218 0.3876 78.5242 393.9097)" cx="335.73" cy="137.86" rx="5.21" ry="4.71"/>
			
				<radialGradient id="SVGID_27_" cx="303.9893" cy="112.1043" r="10.8391" gradientTransform="matrix(1.7041 0 0 1.7041 -176.0165 -56.5451)" gradientUnits="userSpaceOnUse">
				<stop  offset="0" style="stop-color:#1A1A1A"/>
				<stop  offset="1" style="stop-color:#000000"/>
			</radialGradient>
			<polygon class="st32" points="333.83,142.15 351.59,140.37 349.29,131.28 332.56,135.8 			"/>
			<ellipse transform="matrix(0.3876 -0.9218 0.9218 0.3876 89.6971 406.7375)" cx="350.96" cy="135.86" rx="7.72" ry="6.98"/>
		</g>
		
			<radialGradient id="SVGID_28_" cx="316.4583" cy="103.4778" r="21.7866" gradientTransform="matrix(1.7041 0 0 1.7041 -176.0165 -56.5451)" gradientUnits="userSpaceOnUse">
			<stop  offset="0" style="stop-color:#56CD93"/>
			<stop  offset="1" style="stop-color:#A3EFC2"/>
		</radialGradient>
		<path class="st33" d="M386.34,113.22v35.33c-11.11-2.43-16.82,3.6-16.82,3.6l0.78,4.72c0.04,0.24-0.06,0.48-0.26,0.62l-4.38,3.07
			l-8.02,5.56c-0.32,0.22-0.76,0.11-0.93-0.24l-1.89-3.79c-11.42-25.39-2.96-31.2-2.96-31.2c0.24-0.36,0.48-0.71,0.72-1.05
			C365.94,111.07,386.34,113.22,386.34,113.22z"/>
		
			<radialGradient id="SVGID_29_" cx="306.0814" cy="116.1009" r="10.0571" gradientTransform="matrix(1.7041 0 0 1.7041 -176.0165 -56.5451)" gradientUnits="userSpaceOnUse">
			<stop  offset="0" style="stop-color:#56CD93"/>
			<stop  offset="1" style="stop-color:#A3EFC2"/>
		</radialGradient>
		<path class="st34" d="M365.68,160.52l-8.03,5.59c-0.32,0.22-0.76,0.11-0.93-0.24l-1.89-3.79c-11.42-25.39-2.96-31.2-2.96-31.2
			c0.24-0.36,0.48-0.71,0.72-1.05c2.14,3.32,4.81,8.88,7.97,18.15c0.53,1.55,1.13,3.07,1.79,4.56
			C363.27,154.62,364.34,157.44,365.68,160.52z"/>
		<g>
			<ellipse cx="352.39" cy="147.17" rx="6.98" ry="7.72"/>
			
				<radialGradient id="SVGID_30_" cx="305.0966" cy="118.6319" r="6.1233" gradientTransform="matrix(1.7041 0 0 1.7041 -176.0165 -56.5451)" gradientUnits="userSpaceOnUse">
				<stop  offset="0" style="stop-color:#1A1A1A"/>
				<stop  offset="1" style="stop-color:#000000"/>
			</radialGradient>
			<polygon class="st35" points="341.23,158.44 354.93,150.56 349.29,143.07 335.94,151.45 			"/>
			<ellipse cx="339.67" cy="154.39" rx="5.05" ry="5.21"/>
		</g>
		<path class="st7" d="M366.29,143.88l-4.7,3.3l0.3,0.64c0.21,0.45,0.65,0.73,1.14,0.73h1.63c0,0,0.39,8.76,7.99,8.73
			c0.59,0,1.12-0.38,1.32-0.93l0,0c0.27-0.75-0.12-1.57-0.88-1.83c-2.06-0.7-5.63-2.51-5.17-6.6c0.07-0.59,0.08-1.18,0.02-1.77
			l-0.16-1.58C367.71,143.84,366.89,143.46,366.29,143.88z"/>
	</g>
	<g>
		<path class="st36" d="M222.14,295.17c-2.67,10.62-6.39,20.61-9.1,27.24l-0.17-1.35l-4.88-0.3l-6.71-0.41l-19.26-1.17l-101.66-6.16
			l-3.19-0.19l-7.22-0.44l-6.02-0.36l25.54-40.57l0.09-0.12c6.06-8.51,12.87-15.79,20.26-21.63c5.97-4.72,12.32-8.51,18.87-11.28
			c11.39-4.8,19.63-4.86,19.97-4.86h0.08l45.8,1.34c7.65,0.22,14.98,3.18,20.64,8.34c5.68,5.17,9.28,12.21,10.16,19.81
			C226.35,271.91,225.27,282.71,222.14,295.17z"/>
	</g>
	
		<radialGradient id="SVGID_31_" cx="279.6502" cy="188.6861" r="44.3459" gradientTransform="matrix(1.7041 0 0 1.7041 -176.0165 -56.5451)" gradientUnits="userSpaceOnUse">
		<stop  offset="0" style="stop-color:#56CD93"/>
		<stop  offset="1" style="stop-color:#A3EFC2"/>
	</radialGradient>
	<path class="st37" d="M377.74,203.39l5.32,14.22c0,0,10.79,21.05,0,55.11l-16.29,31.1c0,0-9.1,19.99-36.49,21.58l-116.72,1.18
		l-0.37-2.97l34.8-2.66h74.99c0,0,30.78-2.86,47.49-28.45c0,0,19.04-39.9,11.74-64.69c0.11-1.99,0.11-3.11,0.11-3.11"/>
	
		<radialGradient id="SVGID_32_" cx="318.1651" cy="136.1933" r="87.2953" gradientTransform="matrix(1.7041 0 0 1.7041 -176.0165 -56.5451)" gradientUnits="userSpaceOnUse">
		<stop  offset="0" style="stop-color:#56CD93"/>
		<stop  offset="1" style="stop-color:#A3EFC2"/>
	</radialGradient>
	<path class="st38" d="M420.07,246.44c-0.08,0.07-0.16,0.14-0.25,0.2l-19.57,12.71c-4.28,12.96-24.06,47.76-24.06,47.76
		c-15.97,20.31-44.11,22.42-44.11,22.42H216.9c-1.7,0-3.13-1.26-3.34-2.94l0,0l116.72-1.18c27.4-1.59,36.49-21.58,36.49-21.58
		l16.29-31.1c10.79-34.06,0-55.11,0-55.11l-5.32-14.22l-7.26-19.41c-4.03-11.89-4.32-19.36-3.16-24.06l3.43-2.39
		c0.29-0.2,0.69-0.13,0.89,0.17c11.4,17.08,22.03,34.39,29.63,47.13c7.11,11.9,11.58,19.82,11.58,19.82h5.14
		c0.2,0,0.39,0.05,0.55,0.14c0.35,0.18,0.6,0.54,0.63,0.96l1.52,19.14C420.73,245.48,420.5,246.05,420.07,246.44z"/>
	
		<radialGradient id="SVGID_33_" cx="277.6209" cy="216.2815" r="36.1153" gradientTransform="matrix(1.7041 0 0 1.7041 -176.0165 -56.5451)" gradientUnits="userSpaceOnUse">
		<stop  offset="0" style="stop-color:#56CD93"/>
		<stop  offset="1" style="stop-color:#A3EFC2"/>
	</radialGradient>
	<path class="st39" d="M372.05,269.37c-9.88,42.97-45.47,42.07-45.47,42.07c-23.8,4.65-63.57-4.65-63.57-4.65
		c-30.36-8.57-23.06-48.13-23.06-48.13c4.49-19.01,19.63-32.79,26.68-38.34l0,0c0.04,2.01-1,3.88-2.73,4.89
		c-11.5,6.77-20.57,32.07-20.57,32.07c-4.97,23.27,11.95,39.03,11.95,39.03c16.61,10.79,55.96,9.63,55.96,9.63
		c31.1,1.27,40.62-9.2,40.62-9.2C361.12,288.82,367.57,279.09,372.05,269.37z"/>
	<linearGradient id="SVGID_34_" gradientUnits="userSpaceOnUse" x1="192.1451" y1="189.0935" x2="192.1451" y2="218.1098">
		<stop  offset="0" style="stop-color:#4D4D4D"/>
		<stop  offset="1" style="stop-color:#000000"/>
	</linearGradient>
	<path class="st40" d="M267.24,195.16v11.43c0,4.28-3.17,7.89-7.42,8.45c-13.77,1.79-44.2,5.33-69.8,5.33l-56.68,0.65
		c-4.61,0.05-8.78-2.71-10.52-6.98l-4.73-11.57c-1.61-3.93-1.36-8.38,0.67-12.12v0c1.58-2.9,4.72-4.59,8.01-4.32
		c21.36,1.77,100.24,7.66,129.76,0.65c2.6-0.62,5.34,0,7.42,1.67l0,0C266.03,190,267.24,192.51,267.24,195.16z"/>
	<path class="st8" d="M420.07,246.44l-1.54-21.65c0.35,0.18,0.6,0.54,0.63,0.96l1.52,19.14
		C420.73,245.48,420.5,246.05,420.07,246.44z"/>
	<path d="M128.21,242.42H7.4c-0.99,0-1.79-0.8-1.79-1.79v-8.42c0-0.99,0.8-1.79,1.79-1.79h120.81c0.99,0,1.79,0.8,1.79,1.79v8.42
		C130,241.62,129.2,242.42,128.21,242.42z"/>
	<rect x="1.32" y="145.37" class="st41" width="113.6" height="85.04"/>
	<rect x="1.32" y="133.53" class="st42" width="113.6" height="11.85"/>
	<polygon class="st42" points="0.63,146.48 0,228.35 1.32,230.42 1.32,145.37 1.32,133.53 	"/>
</g>
</svg>
