<?xml version="1.0" encoding="utf-8"?>
<!-- Generator: Adobe Illustrator 24.0.1, SVG Export Plug-In . SVG Version: 6.00 Build 0)  -->
<svg version="1.1" id="Layer_1" xmlns="http://www.w3.org/2000/svg" xmlns:xlink="http://www.w3.org/1999/xlink" x="0px" y="0px"
	 viewBox="0 0 500 500" style="enable-background:new 0 0 500 500;" xml:space="preserve">
<style type="text/css">
	.st0{fill:#F2F2F2;}
	.st1{fill:#304D63;}
	.st2{fill:#FFB44A;}
	.st3{fill:#A05708;}
	.st4{fill:#F2DAD4;}
	.st5{fill:#1B3149;}
	.st6{fill:#56CD93;}
	.st7{fill:#BDFFD8;}
	.st8{fill:#C6B3AF;}
	.st9{fill:#60E99C;}
	.st10{fill:#51BE8F;}
	.st11{opacity:0.32;fill:#FFFFFF;}
	.st12{fill:#F0F2F5;}
	.st13{fill:#D3D6DB;}
	.st14{fill:#FFFFFF;}
	.st15{filter:url(#Adobe_OpacityMaskFilter);}
	.st16{filter:url(#Adobe_OpacityMaskFilter_1_);}
	.st17{mask:url(#SVGID_1_);fill:url(#SVGID_2_);}
	.st18{filter:url(#Adobe_OpacityMaskFilter_2_);}
	.st19{filter:url(#Adobe_OpacityMaskFilter_3_);}
	.st20{mask:url(#SVGID_3_);fill:url(#SVGID_4_);}
	.st21{filter:url(#Adobe_OpacityMaskFilter_4_);}
	.st22{filter:url(#Adobe_OpacityMaskFilter_5_);}
	.st23{mask:url(#SVGID_5_);fill:url(#SVGID_6_);}
	.st24{filter:url(#Adobe_OpacityMaskFilter_6_);}
	.st25{filter:url(#Adobe_OpacityMaskFilter_7_);}
	.st26{mask:url(#SVGID_7_);fill:url(#SVGID_8_);}
	.st27{filter:url(#Adobe_OpacityMaskFilter_8_);}
	.st28{filter:url(#Adobe_OpacityMaskFilter_9_);}
	.st29{mask:url(#SVGID_9_);fill:url(#SVGID_10_);}
	.st30{filter:url(#Adobe_OpacityMaskFilter_10_);}
	.st31{filter:url(#Adobe_OpacityMaskFilter_11_);}
	.st32{mask:url(#SVGID_11_);fill:url(#SVGID_12_);}
	.st33{filter:url(#Adobe_OpacityMaskFilter_12_);}
	.st34{filter:url(#Adobe_OpacityMaskFilter_13_);}
	.st35{mask:url(#SVGID_13_);fill:url(#SVGID_14_);}
	.st36{filter:url(#Adobe_OpacityMaskFilter_14_);}
	.st37{filter:url(#Adobe_OpacityMaskFilter_15_);}
	.st38{mask:url(#SVGID_15_);fill:url(#SVGID_16_);}
	.st39{filter:url(#Adobe_OpacityMaskFilter_16_);}
	.st40{filter:url(#Adobe_OpacityMaskFilter_17_);}
	.st41{mask:url(#SVGID_17_);fill:url(#SVGID_18_);}
	.st42{filter:url(#Adobe_OpacityMaskFilter_18_);}
	.st43{filter:url(#Adobe_OpacityMaskFilter_19_);}
	.st44{mask:url(#SVGID_19_);fill:url(#SVGID_20_);}
	.st45{filter:url(#Adobe_OpacityMaskFilter_20_);}
	.st46{filter:url(#Adobe_OpacityMaskFilter_21_);}
	.st47{mask:url(#SVGID_21_);fill:url(#SVGID_22_);}
	.st48{filter:url(#Adobe_OpacityMaskFilter_22_);}
	.st49{filter:url(#Adobe_OpacityMaskFilter_23_);}
	.st50{mask:url(#SVGID_23_);fill:url(#SVGID_24_);}
	.st51{fill:#1C2B6B;}
</style>
<g>
	<path class="st0" d="M74.88,435.7c-8.3,1.14-21.79,3.23-21.88,6.23c-0.08,2.71,10.79,4.94,14.59,5.72
		c43.48,8.9,95.63-7.48,153.16-1.04c30.17,3.38,25.62,8.98,52.38,10.39c36.61,1.93,49.71-8.32,95.48-7.79
		c19.53,0.22,19.84,2.12,46.41,3.64c10.44,0.6,83.57,4.68,84.87-1.56c0.24-1.13-1.53-4.27-33.15-11.95
		C466.73,439.34,315.75,402.67,74.88,435.7z"/>
	<g>
		<path class="st1" d="M150.18,336.92c0,0,22.37-15.48,37.22-7.76c14.86,7.73,79.98,30.84,82.18,33.25
			c2.21,2.41-11.46,12.51-11.46,12.51l-88.55-23.77L150.18,336.92z"/>
		<path class="st2" d="M51.12,393.7c0,0-3.37-5.7-7.53-5.11c-4.16,0.59-4.16,2.97-6.54,2.97s-12.48,0-16.05-1.19
			s-12.48-5.35-16.64-5.35c-4.16,0-5.35,5.35-3.57,10.1c1.78,4.75,7.13,15.45,16.64,20.8c9.51,5.35,26.15,17.83,28.53,19.61
			c2.38,1.78,8.32,4.75,13.67,4.16c5.35-0.59,5.94-2.97,5.94-4.16s1.19-2.97,1.78-3.57c0.59-0.59,3.57-4.75,4.16-7.73
			c0.59-2.97,1.78-3.57,2.38-4.16c0.59-0.59,1.78-1.78,0.59-3.57c-1.19-1.78-1.94-0.56-2.75-1.17s-12.7-14.28-12.7-14.28
			L51.12,393.7z"/>
		<path class="st0" d="M55.6,394.76c0,0-4.29-1.42-8.45-1.42c-4.16,0-7.73,1.19-8.32,5.94c-0.59,4.75,4.75,14.26,11.29,17.83
			c6.54,3.57,9.51,4.75,13.07,3.57c3.57-1.19,7.73-3.57,7.73-6.54C70.93,411.17,55.6,394.76,55.6,394.76z"/>
		<path class="st3" d="M42.15,394.27c1.41-0.69,3.15-0.93,5-0.93c0.6,0,1.2,0.03,1.79,0.08c0.31-0.05,0.49-0.08,0.49-0.08
			s-2.28-3.57-4.66-3.57c-2.38,0-2.97,0.59-2.97,1.19C41.81,391.56,41.9,394,42.15,394.27C42.15,394.27,42.15,394.27,42.15,394.27z"
			/>
		<path class="st4" d="M64.39,392.75c0,0-4.16,1.78-5.94,1.78c-1.78,0-4.16,0-4.75,1.78c-0.59,1.78-1.78,12.48,2.38,16.05
			c4.16,3.57,8.32,4.75,11.29,4.16c2.97-0.59,10.7-4.16,10.7-4.16L64.39,392.75z"/>
		<path class="st5" d="M63.2,390.96c-0.33,3.01,8.09,22.04,15.45,23.77c10.1,2.38,35.06-9.51,42.79-14.26
			c7.52-4.63,47.54-19.61,48.73-20.21c1.19-0.59,2.38-2.38,2.97-1.19c0.59,1.19,0,7.13,4.16,10.7c4.16,3.57,32.09,21.39,35.66,24.96
			c3.57,3.57,19.61,16.64,24.96,19.61c5.35,2.97,31.5,6.54,46.35,4.75c14.86-1.78,24.96-15.45,24.96-15.45l-30.31-53.49
			c0,0-10.41-8.39-14.42-10.14c-4.01-1.75-9.95,0.63-10.54,2.41c-0.59,1.78-1.78,4.16-4.16,2.38c-2.38-1.78-54.67-30.9-71.31-35.06
			c-16.64-4.16-38.63,14.26-43.38,17.23c-4.75,2.97-52.89,36.85-56.46,37.44C75.09,385.02,63.8,385.61,63.2,390.96z"/>
		<path class="st4" d="M250.4,221c0,0,1.19,12.48,2.38,13.67c1.19,1.19,2.97,0.59,2.97,4.75s0.59,13.67,1.78,14.26
			c1.19,0.59,5.35-1.78,5.94-1.78c0.59,0,6.54,4.75,7.73,7.13c1.19,2.38,5.35,8.91,8.91,9.51c3.57,0.59,8.32-6.54,10.7-4.75
			c2.38,1.78,3.57,5.35,3.57,7.13c0,1.78,28.53-6.54,28.53-17.23c0-3.03-7.73-19.02-9.51-22.58c-1.78-3.57-4.16-19.02-4.75-23.18
			c-0.59-4.16-7.73-16.05-19.61-20.21C277.14,183.56,249.21,207.33,250.4,221z"/>
		<path class="st5" d="M286.65,183.56c7.84,1.96,19.61,14.26,21.39,20.21c1.78,5.94,6.22,21.35,5.94,24.37
			c-0.59,6.54-11.89,15.45-13.67,12.48c-1.78-2.97-7.37-13.04-7.73-16.64c-0.59-5.94-3.57-11.89-7.73-11.89
			c-1.19,0-4.75,5.35-5.35,8.32c-0.71,3.54,2.97,10.7,5.35,12.48c2.38,1.78,8.52,5.29,9.51,8.91c1.78,6.54-1.78,20.21-3.57,21.99
			c-1.78,1.78-7.34,5.59-10.7,4.75c-4.75-1.19-7.73-8.32-10.61-11.7c-1.21-1.42-3.65-2.56-4.88-4.26
			c-1.3-1.8,12.82-8.36,12.52-11.97c-1.19-14.26-5.33-31.36-14.26-30.31c-10.1,1.19-11.29,10.7-17.83,11.89
			c-3.56,0.65-18.42,2.97-21.39-15.45c-0.95-5.87,14.86,0.59,28.53-8.32C255.77,196.07,270.01,179.4,286.65,183.56z"/>
		<path class="st6" d="M291.41,275.08c0-3.03,4.75-6.54,7.73-9.51c2.97-2.97,23.18-16.64,23.77-19.02
			c0.59-2.38,20.21,6.54,27.34,24.37c7.13,17.83,15.45,74.88-5.35,112.91c-20.8,38.03-37.44,48.14-38.03,44.57
			c-0.59-3.57,0-6.54-6.54-10.1c-6.54-3.57-19.02-18.42-21.99-23.77c-2.97-5.35-16.64-30.9-15.45-33.87
			c1.19-2.97,13.07-43.38,19.02-55.27c5.94-11.89,11.29-20.21,11.29-23.77S291.41,277.45,291.41,275.08z"/>
		<polygon class="st7" points="195.73,338.07 204.64,329.16 265.26,344.61 275.96,357.09 		"/>
		<path class="st8" d="M227.22,323.81c0,0-5.94,5.35-7.13,10.1l4.16-1.19l7.73-3.57l5.35-2.97l-2.38-2.38H227.22z"/>
		<path class="st4" d="M259.52,322.51c0,0-6.15-0.49-9.12-1.68c-2.97-1.19-5.94-1.78-8.91-1.19c-2.97,0.59-8.91-2.38-11.89-1.78
			c-2.97,0.59-13.07,0-13.67,0.59c-0.59,0.59-1.19,1.19-1.19,2.97c0,1.78,2.38,2.38,2.97,2.38c0.59,0,11.89,0.59,14.86,1.78
			c0,0-5.35,0.59-8.32,3.57c-2.97,2.97-7.73,7.13-7.73,7.73c0,0.59,0,2.97,0.59,2.97c0.59,0,1.19,0,1.19,0s0.59,1.19,1.19,1.19
			c0,0,2.97-1.78,3.57-1.78c0.59,0-1.78,1.19-1.19,2.38c0.59,1.19,1.78,1.78,2.97,1.78c1.19,0,8.32-3.57,10.7-2.97
			c2.38,0.59,6.54,1.19,8.32,2.38c1.78,1.19,7.73,2.38,8.91,1.78C253.97,344.01,259.52,322.51,259.52,322.51z"/>
		<path class="st9" d="M324.69,267.35c-12.03,1.5-15.45,22.58-14.26,30.9c0,0,11.29,41.01,7.13,41.01
			c-4.16,0-29.71-10.1-33.87-11.29c-4.16-1.19-18.42-7.73-20.8-7.73c-2.38,0-7.73,7.13-9.51,11.89c-1.78,4.75-4.16,16.05-1.19,16.05
			c2.97,0,14.26,0,16.64,1.78c2.38,1.78,18.42,14.86,27.34,18.42c8.91,3.57,41.01,12.48,46.35,10.7
			c5.35-1.78,12.48-10.7,12.48-14.26c0-3.57-0.59-47.54-4.16-58.83C347.27,294.69,348.46,264.38,324.69,267.35z"/>
		<g>
			<path class="st7" d="M198.1,338.07l-45.17-70.72h12.43c0.4,0,0.78,0.2,0.99,0.54l39.55,60.49c0.3,0.46,0.25,1.06-0.13,1.46
				L198.1,338.07z"/>
			<path class="st10" d="M195.76,338.05l-43.92-68.69c-0.55-0.87,0.07-2,1.1-2h0l45.17,70.72l0,0
				C197.54,338.91,196.31,338.9,195.76,338.05z"/>
			<polygon class="st11" points="173.91,300.2 176.81,304.73 172.66,277.52 169.78,273.12 			"/>
			<polygon class="st11" points="178.84,307.9 183.5,315.2 179.3,287.67 174.67,280.59 			"/>
		</g>
		<path class="st10" d="M274.08,359.94l-77.38-17.53c-0.57-0.1-0.98-0.6-0.98-1.17v-3.17l79.54,18.58c0.86,0.2,1.21,1.24,0.64,1.92
			l-0.7,0.96C274.94,359.86,274.51,360.01,274.08,359.94z"/>
	</g>
	<g>
		<path class="st12" d="M192.38,250.12H87.74c-4.42,0-8-3.58-8-8v-78.49c0-4.42,3.58-8,8-8h104.64c4.42,0,8,3.58,8,8v78.49
			C200.38,246.54,196.8,250.12,192.38,250.12z"/>
		<rect x="88.06" y="162.17" class="st13" width="36.25" height="5.35"/>
		<path class="st14" d="M187.84,227.54H94.06c-3.31,0-6-2.69-6-6v-41.49c0-3.31,2.69-6,6-6h93.78c3.31,0,6,2.69,6,6v41.49
			C193.84,224.85,191.15,227.54,187.84,227.54z"/>
		<rect x="94" y="191.88" class="st13" width="53.49" height="2.38"/>
		<rect x="94" y="199.61" class="st13" width="53.49" height="2.38"/>
		<rect x="94" y="207.33" class="st13" width="35.66" height="2.38"/>
		<path class="st13" d="M177.11,221.6h-1.02c-4.97,0-9-4.03-9-9v-1.02c0-4.97,4.03-9,9-9h1.02c4.97,0,9,4.03,9,9v1.02
			C186.11,217.57,182.09,221.6,177.11,221.6z"/>
		<path class="st9" d="M119.85,185.35H97.86c-2.13,0-3.86-1.73-3.86-3.86v0c0-2.13,1.73-3.86,3.86-3.86h21.99
			c2.13,0,3.86,1.73,3.86,3.86v0C123.71,183.62,121.99,185.35,119.85,185.35z"/>
	</g>
	<g>
		<path class="st12" d="M393.84,146.12H289.2c-4.42,0-8-3.58-8-8V59.63c0-4.42,3.58-8,8-8h104.64c4.42,0,8,3.58,8,8v78.49
			C401.84,142.54,398.26,146.12,393.84,146.12z"/>
		<rect x="289.52" y="58.17" class="st13" width="36.25" height="5.35"/>
		<g>
			<path class="st14" d="M389.3,123.54h-93.78c-3.31,0-6-2.69-6-6V76.05c0-3.31,2.69-6,6-6h93.78c3.31,0,6,2.69,6,6v41.49
				C395.3,120.85,392.62,123.54,389.3,123.54z"/>
			<rect x="295.46" y="87.88" class="st13" width="53.49" height="2.38"/>
			<rect x="295.46" y="95.61" class="st13" width="53.49" height="2.38"/>
			<rect x="295.46" y="103.33" class="st13" width="35.66" height="2.38"/>
			<path class="st2" d="M321.31,81.35h-21.99c-2.13,0-3.86-1.73-3.86-3.86v0c0-2.13,1.73-3.86,3.86-3.86h21.99
				c2.13,0,3.86,1.73,3.86,3.86v0C325.18,79.62,323.45,81.35,321.31,81.35z"/>
			<path class="st10" d="M354,81.35h-21.99c-2.13,0-3.86-1.73-3.86-3.86v0c0-2.13,1.73-3.86,3.86-3.86H354
				c2.13,0,3.86,1.73,3.86,3.86v0C357.86,79.62,356.13,81.35,354,81.35z"/>
		</g>
	</g>
	<g>
		<defs>
			<filter id="Adobe_OpacityMaskFilter" filterUnits="userSpaceOnUse" x="420.56" y="42.75" width="1.78" height="3.57">
				<feFlood  style="flood-color:white;flood-opacity:1" result="back"/>
				<feBlend  in="SourceGraphic" in2="back" mode="normal"/>
			</filter>
		</defs>
		<mask maskUnits="userSpaceOnUse" x="420.56" y="42.75" width="1.78" height="3.57" id="SVGID_1_">
			<g class="st15">
				<defs>
					<filter id="Adobe_OpacityMaskFilter_1_" filterUnits="userSpaceOnUse" x="420.56" y="42.75" width="1.78" height="3.57">
						<feFlood  style="flood-color:white;flood-opacity:1" result="back"/>
						<feBlend  in="SourceGraphic" in2="back" mode="normal"/>
					</filter>
				</defs>
				<mask maskUnits="userSpaceOnUse" x="420.56" y="42.75" width="1.78" height="3.57" id="SVGID_1_">
					<g class="st16">
					</g>
				</mask>
				
					<linearGradient id="SVGID_2_" gradientUnits="userSpaceOnUse" x1="-899.5493" y1="198.1136" x2="-899.5493" y2="77.5686" gradientTransform="matrix(1 0 0 1 1321 14)">
					<stop  offset="0" style="stop-color:#000000"/>
					<stop  offset="1" style="stop-color:#FFFFFF"/>
				</linearGradient>
				<rect x="420.56" y="42.75" class="st17" width="1.78" height="3.57"/>
			</g>
		</mask>
		<rect x="420.56" y="42.75" class="st9" width="1.78" height="3.57"/>
		<defs>
			<filter id="Adobe_OpacityMaskFilter_2_" filterUnits="userSpaceOnUse" x="420.56" y="53.76" width="1.78" height="141.41">
				<feFlood  style="flood-color:white;flood-opacity:1" result="back"/>
				<feBlend  in="SourceGraphic" in2="back" mode="normal"/>
			</filter>
		</defs>
		<mask maskUnits="userSpaceOnUse" x="420.56" y="53.76" width="1.78" height="141.41" id="SVGID_3_">
			<g class="st18">
				<defs>
					<filter id="Adobe_OpacityMaskFilter_3_" filterUnits="userSpaceOnUse" x="420.56" y="53.76" width="1.78" height="141.41">
						<feFlood  style="flood-color:white;flood-opacity:1" result="back"/>
						<feBlend  in="SourceGraphic" in2="back" mode="normal"/>
					</filter>
				</defs>
				<mask maskUnits="userSpaceOnUse" x="420.56" y="53.76" width="1.78" height="141.41" id="SVGID_3_">
					<g class="st19">
					</g>
				</mask>
				
					<linearGradient id="SVGID_4_" gradientUnits="userSpaceOnUse" x1="-899.5493" y1="198.1139" x2="-899.5493" y2="77.5688" gradientTransform="matrix(1 0 0 1 1321 14)">
					<stop  offset="0" style="stop-color:#000000"/>
					<stop  offset="1" style="stop-color:#FFFFFF"/>
				</linearGradient>
				<path class="st20" d="M422.34,195.17h-1.78v-7.44h1.78V195.17z M422.34,180.29h-1.78v-7.44h1.78V180.29z M422.34,165.4h-1.78
					v-7.44h1.78V165.4z M422.34,150.52h-1.78v-7.44h1.78V150.52z M422.34,135.63h-1.78v-7.44h1.78V135.63z M422.34,120.75h-1.78
					v-7.44h1.78V120.75z M422.34,105.86h-1.78v-7.44h1.78V105.86z M422.34,90.98h-1.78v-7.44h1.78V90.98z M422.34,76.09h-1.78v-7.44
					h1.78V76.09z M422.34,61.21h-1.78v-7.44h1.78V61.21z"/>
			</g>
		</mask>
		<path class="st9" d="M422.34,195.17h-1.78v-7.44h1.78V195.17z M422.34,180.29h-1.78v-7.44h1.78V180.29z M422.34,165.4h-1.78v-7.44
			h1.78V165.4z M422.34,150.52h-1.78v-7.44h1.78V150.52z M422.34,135.63h-1.78v-7.44h1.78V135.63z M422.34,120.75h-1.78v-7.44h1.78
			V120.75z M422.34,105.86h-1.78v-7.44h1.78V105.86z M422.34,90.98h-1.78v-7.44h1.78V90.98z M422.34,76.09h-1.78v-7.44h1.78V76.09z
			 M422.34,61.21h-1.78v-7.44h1.78V61.21z"/>
		<defs>
			<filter id="Adobe_OpacityMaskFilter_4_" filterUnits="userSpaceOnUse" x="420.56" y="202.62" width="1.78" height="3.57">
				<feFlood  style="flood-color:white;flood-opacity:1" result="back"/>
				<feBlend  in="SourceGraphic" in2="back" mode="normal"/>
			</filter>
		</defs>
		<mask maskUnits="userSpaceOnUse" x="420.56" y="202.62" width="1.78" height="3.57" id="SVGID_5_">
			<g class="st21">
				<defs>
					<filter id="Adobe_OpacityMaskFilter_5_" filterUnits="userSpaceOnUse" x="420.56" y="202.62" width="1.78" height="3.57">
						<feFlood  style="flood-color:white;flood-opacity:1" result="back"/>
						<feBlend  in="SourceGraphic" in2="back" mode="normal"/>
					</filter>
				</defs>
				<mask maskUnits="userSpaceOnUse" x="420.56" y="202.62" width="1.78" height="3.57" id="SVGID_5_">
					<g class="st22">
					</g>
				</mask>
				
					<linearGradient id="SVGID_6_" gradientUnits="userSpaceOnUse" x1="-899.5493" y1="198.114" x2="-899.5493" y2="77.569" gradientTransform="matrix(1 0 0 1 1321 14)">
					<stop  offset="0" style="stop-color:#000000"/>
					<stop  offset="1" style="stop-color:#FFFFFF"/>
				</linearGradient>
				<rect x="420.56" y="202.62" class="st23" width="1.78" height="3.57"/>
			</g>
		</mask>
		<rect x="420.56" y="202.62" class="st9" width="1.78" height="3.57"/>
	</g>
	<g>
		<defs>
			<filter id="Adobe_OpacityMaskFilter_6_" filterUnits="userSpaceOnUse" x="276.45" y="163.39" width="3.57" height="1.78">
				<feFlood  style="flood-color:white;flood-opacity:1" result="back"/>
				<feBlend  in="SourceGraphic" in2="back" mode="normal"/>
			</filter>
		</defs>
		<mask maskUnits="userSpaceOnUse" x="276.45" y="163.39" width="3.57" height="1.78" id="SVGID_7_">
			<g class="st24">
				<defs>
					<filter id="Adobe_OpacityMaskFilter_7_" filterUnits="userSpaceOnUse" x="276.45" y="163.39" width="3.57" height="1.78">
						<feFlood  style="flood-color:white;flood-opacity:1" result="back"/>
						<feBlend  in="SourceGraphic" in2="back" mode="normal"/>
					</filter>
				</defs>
				<mask maskUnits="userSpaceOnUse" x="276.45" y="163.39" width="3.57" height="1.78" id="SVGID_7_">
					<g class="st25">
					</g>
				</mask>
				
					<linearGradient id="SVGID_8_" gradientUnits="userSpaceOnUse" x1="-464.2471" y1="116.7152" x2="-418.1078" y2="116.7152" gradientTransform="matrix(-1 0 0 -1 -1 281)">
					<stop  offset="0" style="stop-color:#000000"/>
					<stop  offset="1" style="stop-color:#FFFFFF"/>
				</linearGradient>
				<rect x="276.45" y="163.39" class="st26" width="3.57" height="1.78"/>
			</g>
		</mask>
		<rect x="276.45" y="163.39" class="st9" width="3.57" height="1.78"/>
		<defs>
			<filter id="Adobe_OpacityMaskFilter_8_" filterUnits="userSpaceOnUse" x="286.93" y="163.39" width="159.1" height="1.78">
				<feFlood  style="flood-color:white;flood-opacity:1" result="back"/>
				<feBlend  in="SourceGraphic" in2="back" mode="normal"/>
			</filter>
		</defs>
		<mask maskUnits="userSpaceOnUse" x="286.93" y="163.39" width="159.1" height="1.78" id="SVGID_9_">
			<g class="st27">
				<defs>
					<filter id="Adobe_OpacityMaskFilter_9_" filterUnits="userSpaceOnUse" x="286.93" y="163.39" width="159.1" height="1.78">
						<feFlood  style="flood-color:white;flood-opacity:1" result="back"/>
						<feBlend  in="SourceGraphic" in2="back" mode="normal"/>
					</filter>
				</defs>
				<mask maskUnits="userSpaceOnUse" x="286.93" y="163.39" width="159.1" height="1.78" id="SVGID_9_">
					<g class="st28">
					</g>
				</mask>
				
					<linearGradient id="SVGID_10_" gradientUnits="userSpaceOnUse" x1="-464.2474" y1="116.7152" x2="-418.1082" y2="116.7152" gradientTransform="matrix(-1 0 0 -1 -1 281)">
					<stop  offset="0" style="stop-color:#000000"/>
					<stop  offset="1" style="stop-color:#FFFFFF"/>
				</linearGradient>
				<path class="st29" d="M286.93,163.39h6.92v1.78h-6.92V163.39z M300.76,163.39h6.92v1.78h-6.92V163.39z M314.6,163.39h6.92v1.78
					h-6.92V163.39z M328.43,163.39h6.92v1.78h-6.92V163.39z M342.27,163.39h6.92v1.78h-6.92V163.39z M356.1,163.39h6.92v1.78h-6.92
					V163.39z M369.94,163.39h6.92v1.78h-6.92V163.39z M383.77,163.39h6.92v1.78h-6.92V163.39z M397.61,163.39h6.92v1.78h-6.92
					V163.39z M411.44,163.39h6.92v1.78h-6.92V163.39z M425.28,163.39h6.92v1.78h-6.92V163.39z M439.11,163.39h6.92v1.78h-6.92
					V163.39z"/>
			</g>
		</mask>
		<path class="st9" d="M286.93,163.39h6.92v1.78h-6.92V163.39z M300.76,163.39h6.92v1.78h-6.92V163.39z M314.6,163.39h6.92v1.78
			h-6.92V163.39z M328.43,163.39h6.92v1.78h-6.92V163.39z M342.27,163.39h6.92v1.78h-6.92V163.39z M356.1,163.39h6.92v1.78h-6.92
			V163.39z M369.94,163.39h6.92v1.78h-6.92V163.39z M383.77,163.39h6.92v1.78h-6.92V163.39z M397.61,163.39h6.92v1.78h-6.92V163.39z
			 M411.44,163.39h6.92v1.78h-6.92V163.39z M425.28,163.39h6.92v1.78h-6.92V163.39z M439.11,163.39h6.92v1.78h-6.92V163.39z"/>
		<defs>
			<filter id="Adobe_OpacityMaskFilter_10_" filterUnits="userSpaceOnUse" x="452.95" y="163.39" width="3.57" height="1.78">
				<feFlood  style="flood-color:white;flood-opacity:1" result="back"/>
				<feBlend  in="SourceGraphic" in2="back" mode="normal"/>
			</filter>
		</defs>
		<mask maskUnits="userSpaceOnUse" x="452.95" y="163.39" width="3.57" height="1.78" id="SVGID_11_">
			<g class="st30">
				<defs>
					<filter id="Adobe_OpacityMaskFilter_11_" filterUnits="userSpaceOnUse" x="452.95" y="163.39" width="3.57" height="1.78">
						<feFlood  style="flood-color:white;flood-opacity:1" result="back"/>
						<feBlend  in="SourceGraphic" in2="back" mode="normal"/>
					</filter>
				</defs>
				<mask maskUnits="userSpaceOnUse" x="452.95" y="163.39" width="3.57" height="1.78" id="SVGID_11_">
					<g class="st31">
					</g>
				</mask>
				
					<linearGradient id="SVGID_12_" gradientUnits="userSpaceOnUse" x1="-464.2475" y1="116.7152" x2="-418.1084" y2="116.7152" gradientTransform="matrix(-1 0 0 -1 -1 281)">
					<stop  offset="0" style="stop-color:#000000"/>
					<stop  offset="1" style="stop-color:#FFFFFF"/>
				</linearGradient>
				<rect x="452.95" y="163.39" class="st32" width="3.57" height="1.78"/>
			</g>
		</mask>
		<rect x="452.95" y="163.39" class="st9" width="3.57" height="1.78"/>
	</g>
	<g>
		<defs>
			<filter id="Adobe_OpacityMaskFilter_12_" filterUnits="userSpaceOnUse" x="64.58" y="124.76" width="1.78" height="3.57">
				<feFlood  style="flood-color:white;flood-opacity:1" result="back"/>
				<feBlend  in="SourceGraphic" in2="back" mode="normal"/>
			</filter>
		</defs>
		<mask maskUnits="userSpaceOnUse" x="64.58" y="124.76" width="1.78" height="3.57" id="SVGID_13_">
			<g class="st33">
				<defs>
					<filter id="Adobe_OpacityMaskFilter_13_" filterUnits="userSpaceOnUse" x="64.58" y="124.76" width="1.78" height="3.57">
						<feFlood  style="flood-color:white;flood-opacity:1" result="back"/>
						<feBlend  in="SourceGraphic" in2="back" mode="normal"/>
					</filter>
				</defs>
				<mask maskUnits="userSpaceOnUse" x="64.58" y="124.76" width="1.78" height="3.57" id="SVGID_13_">
					<g class="st34">
					</g>
				</mask>
				<linearGradient id="SVGID_14_" gradientUnits="userSpaceOnUse" x1="65.4751" y1="294.1246" x2="65.4751" y2="173.5797">
					<stop  offset="0" style="stop-color:#000000"/>
					<stop  offset="1" style="stop-color:#FFFFFF"/>
				</linearGradient>
				<rect x="64.58" y="124.76" class="st35" width="1.78" height="3.57"/>
			</g>
		</mask>
		<rect x="64.58" y="124.76" class="st9" width="1.78" height="3.57"/>
		<defs>
			<filter id="Adobe_OpacityMaskFilter_14_" filterUnits="userSpaceOnUse" x="64.58" y="135.77" width="1.78" height="141.41">
				<feFlood  style="flood-color:white;flood-opacity:1" result="back"/>
				<feBlend  in="SourceGraphic" in2="back" mode="normal"/>
			</filter>
		</defs>
		<mask maskUnits="userSpaceOnUse" x="64.58" y="135.77" width="1.78" height="141.41" id="SVGID_15_">
			<g class="st36">
				<defs>
					<filter id="Adobe_OpacityMaskFilter_15_" filterUnits="userSpaceOnUse" x="64.58" y="135.77" width="1.78" height="141.41">
						<feFlood  style="flood-color:white;flood-opacity:1" result="back"/>
						<feBlend  in="SourceGraphic" in2="back" mode="normal"/>
					</filter>
				</defs>
				<mask maskUnits="userSpaceOnUse" x="64.58" y="135.77" width="1.78" height="141.41" id="SVGID_15_">
					<g class="st37">
					</g>
				</mask>
				<linearGradient id="SVGID_16_" gradientUnits="userSpaceOnUse" x1="65.4751" y1="294.125" x2="65.4751" y2="173.5798">
					<stop  offset="0" style="stop-color:#000000"/>
					<stop  offset="1" style="stop-color:#FFFFFF"/>
				</linearGradient>
				<path class="st38" d="M66.37,277.18h-1.78v-7.44h1.78V277.18z M66.37,262.3h-1.78v-7.44h1.78V262.3z M66.37,247.41h-1.78v-7.44
					h1.78V247.41z M66.37,232.53h-1.78v-7.44h1.78V232.53z M66.37,217.64h-1.78v-7.44h1.78V217.64z M66.37,202.76h-1.78v-7.44h1.78
					V202.76z M66.37,187.87h-1.78v-7.44h1.78V187.87z M66.37,172.99h-1.78v-7.44h1.78V172.99z M66.37,158.1h-1.78v-7.44h1.78V158.1z
					 M66.37,143.22h-1.78v-7.44h1.78V143.22z"/>
			</g>
		</mask>
		<path class="st9" d="M66.37,277.18h-1.78v-7.44h1.78V277.18z M66.37,262.3h-1.78v-7.44h1.78V262.3z M66.37,247.41h-1.78v-7.44
			h1.78V247.41z M66.37,232.53h-1.78v-7.44h1.78V232.53z M66.37,217.64h-1.78v-7.44h1.78V217.64z M66.37,202.76h-1.78v-7.44h1.78
			V202.76z M66.37,187.87h-1.78v-7.44h1.78V187.87z M66.37,172.99h-1.78v-7.44h1.78V172.99z M66.37,158.1h-1.78v-7.44h1.78V158.1z
			 M66.37,143.22h-1.78v-7.44h1.78V143.22z"/>
		<defs>
			<filter id="Adobe_OpacityMaskFilter_16_" filterUnits="userSpaceOnUse" x="64.58" y="284.63" width="1.78" height="3.57">
				<feFlood  style="flood-color:white;flood-opacity:1" result="back"/>
				<feBlend  in="SourceGraphic" in2="back" mode="normal"/>
			</filter>
		</defs>
		<mask maskUnits="userSpaceOnUse" x="64.58" y="284.63" width="1.78" height="3.57" id="SVGID_17_">
			<g class="st39">
				<defs>
					<filter id="Adobe_OpacityMaskFilter_17_" filterUnits="userSpaceOnUse" x="64.58" y="284.63" width="1.78" height="3.57">
						<feFlood  style="flood-color:white;flood-opacity:1" result="back"/>
						<feBlend  in="SourceGraphic" in2="back" mode="normal"/>
					</filter>
				</defs>
				<mask maskUnits="userSpaceOnUse" x="64.58" y="284.63" width="1.78" height="3.57" id="SVGID_17_">
					<g class="st40">
					</g>
				</mask>
				<linearGradient id="SVGID_18_" gradientUnits="userSpaceOnUse" x1="65.4751" y1="294.125" x2="65.4751" y2="173.5801">
					<stop  offset="0" style="stop-color:#000000"/>
					<stop  offset="1" style="stop-color:#FFFFFF"/>
				</linearGradient>
				<rect x="64.58" y="284.63" class="st41" width="1.78" height="3.57"/>
			</g>
		</mask>
		<rect x="64.58" y="284.63" class="st9" width="1.78" height="3.57"/>
	</g>
	<g>
		<defs>
			<filter id="Adobe_OpacityMaskFilter_18_" filterUnits="userSpaceOnUse" x="206.91" y="139.62" width="3.57" height="1.78">
				<feFlood  style="flood-color:white;flood-opacity:1" result="back"/>
				<feBlend  in="SourceGraphic" in2="back" mode="normal"/>
			</filter>
		</defs>
		<mask maskUnits="userSpaceOnUse" x="206.91" y="139.62" width="3.57" height="1.78" id="SVGID_19_">
			<g class="st42">
				<defs>
					<filter id="Adobe_OpacityMaskFilter_19_" filterUnits="userSpaceOnUse" x="206.91" y="139.62" width="3.57" height="1.78">
						<feFlood  style="flood-color:white;flood-opacity:1" result="back"/>
						<feBlend  in="SourceGraphic" in2="back" mode="normal"/>
					</filter>
				</defs>
				<mask maskUnits="userSpaceOnUse" x="206.91" y="139.62" width="3.57" height="1.78" id="SVGID_19_">
					<g class="st43">
					</g>
				</mask>
				<linearGradient id="SVGID_20_" gradientUnits="userSpaceOnUse" x1="23.6786" y1="140.5135" x2="69.818" y2="140.5135">
					<stop  offset="0" style="stop-color:#000000"/>
					<stop  offset="1" style="stop-color:#FFFFFF"/>
				</linearGradient>
				<rect x="206.91" y="139.62" class="st44" width="3.57" height="1.78"/>
			</g>
		</mask>
		<rect x="206.91" y="139.62" class="st9" width="3.57" height="1.78"/>
		<defs>
			<filter id="Adobe_OpacityMaskFilter_20_" filterUnits="userSpaceOnUse" x="40.9" y="139.62" width="159.1" height="1.78">
				<feFlood  style="flood-color:white;flood-opacity:1" result="back"/>
				<feBlend  in="SourceGraphic" in2="back" mode="normal"/>
			</filter>
		</defs>
		<mask maskUnits="userSpaceOnUse" x="40.9" y="139.62" width="159.1" height="1.78" id="SVGID_21_">
			<g class="st45">
				<defs>
					<filter id="Adobe_OpacityMaskFilter_21_" filterUnits="userSpaceOnUse" x="40.9" y="139.62" width="159.1" height="1.78">
						<feFlood  style="flood-color:white;flood-opacity:1" result="back"/>
						<feBlend  in="SourceGraphic" in2="back" mode="normal"/>
					</filter>
				</defs>
				<mask maskUnits="userSpaceOnUse" x="40.9" y="139.62" width="159.1" height="1.78" id="SVGID_21_">
					<g class="st46">
					</g>
				</mask>
				<linearGradient id="SVGID_22_" gradientUnits="userSpaceOnUse" x1="23.6783" y1="140.5135" x2="69.8175" y2="140.5135">
					<stop  offset="0" style="stop-color:#000000"/>
					<stop  offset="1" style="stop-color:#FFFFFF"/>
				</linearGradient>
				<path class="st47" d="M200,141.4h-6.92v-1.78H200V141.4z M186.16,141.4h-6.92v-1.78h6.92V141.4z M172.33,141.4h-6.92v-1.78h6.92
					V141.4z M158.49,141.4h-6.92v-1.78h6.92V141.4z M144.66,141.4h-6.92v-1.78h6.92V141.4z M130.82,141.4h-6.92v-1.78h6.92V141.4z
					 M116.99,141.4h-6.92v-1.78h6.92V141.4z M103.15,141.4h-6.92v-1.78h6.92V141.4z M89.32,141.4H82.4v-1.78h6.92V141.4z
					 M75.48,141.4h-6.92v-1.78h6.92V141.4z M61.65,141.4h-6.92v-1.78h6.92V141.4z M47.81,141.4H40.9v-1.78h6.92V141.4z"/>
			</g>
		</mask>
		<path class="st9" d="M200,141.4h-6.92v-1.78H200V141.4z M186.16,141.4h-6.92v-1.78h6.92V141.4z M172.33,141.4h-6.92v-1.78h6.92
			V141.4z M158.49,141.4h-6.92v-1.78h6.92V141.4z M144.66,141.4h-6.92v-1.78h6.92V141.4z M130.82,141.4h-6.92v-1.78h6.92V141.4z
			 M116.99,141.4h-6.92v-1.78h6.92V141.4z M103.15,141.4h-6.92v-1.78h6.92V141.4z M89.32,141.4H82.4v-1.78h6.92V141.4z M75.48,141.4
			h-6.92v-1.78h6.92V141.4z M61.65,141.4h-6.92v-1.78h6.92V141.4z M47.81,141.4H40.9v-1.78h6.92V141.4z"/>
		<defs>
			<filter id="Adobe_OpacityMaskFilter_22_" filterUnits="userSpaceOnUse" x="30.41" y="139.62" width="3.57" height="1.78">
				<feFlood  style="flood-color:white;flood-opacity:1" result="back"/>
				<feBlend  in="SourceGraphic" in2="back" mode="normal"/>
			</filter>
		</defs>
		<mask maskUnits="userSpaceOnUse" x="30.41" y="139.62" width="3.57" height="1.78" id="SVGID_23_">
			<g class="st48">
				<defs>
					<filter id="Adobe_OpacityMaskFilter_23_" filterUnits="userSpaceOnUse" x="30.41" y="139.62" width="3.57" height="1.78">
						<feFlood  style="flood-color:white;flood-opacity:1" result="back"/>
						<feBlend  in="SourceGraphic" in2="back" mode="normal"/>
					</filter>
				</defs>
				<mask maskUnits="userSpaceOnUse" x="30.41" y="139.62" width="3.57" height="1.78" id="SVGID_23_">
					<g class="st49">
					</g>
				</mask>
				<linearGradient id="SVGID_24_" gradientUnits="userSpaceOnUse" x1="23.6783" y1="140.5135" x2="69.8176" y2="140.5135">
					<stop  offset="0" style="stop-color:#000000"/>
					<stop  offset="1" style="stop-color:#FFFFFF"/>
				</linearGradient>
				<rect x="30.41" y="139.62" class="st50" width="3.57" height="1.78"/>
			</g>
		</mask>
		<rect x="30.41" y="139.62" class="st9" width="3.57" height="1.78"/>
	</g>
	<g>
		<path id="XMLID_1_" class="st10" d="M437.31,439.77h-44.93c-1.5,0-2.76-1.13-2.93-2.62l-7.09-62.35h64.97l-7.09,62.35
			C440.07,438.64,438.81,439.77,437.31,439.77z"/>
		<ellipse class="st51" cx="414.84" cy="375.54" rx="32.49" ry="3.69"/>
		<path class="st9" d="M411.89,255.19c-17.72,1.48-11.81,54.64-11.81,54.64c4.43,45.78,10.34,66.45,14.77,67.93
			c4.43,1.48,13.29-64.97,13.29-81.22C428.13,296.54,429.61,253.71,411.89,255.19z"/>
		<path class="st14" d="M414.1,370.37c-0.03,0-0.06,0-0.09-0.01c-0.4-0.05-0.69-0.42-0.64-0.82c5.83-48.08-1.4-108.49-1.48-109.09
			c-0.05-0.4,0.24-0.77,0.64-0.82c0.39-0.06,0.77,0.24,0.82,0.64c0.07,0.61,7.33,61.19,1.48,109.45
			C414.79,370.09,414.47,370.37,414.1,370.37z"/>
		<path class="st2" d="M358.73,230.09c-1.48,7.38,7.38,8.86,8.86,19.2c1.48,10.34-2.95,13.29-1.48,19.2
			c1.48,5.91,10.34,7.38,11.81,22.15c1.48,14.77-4.43,13.29-2.95,22.15c1.48,8.86,10.34,8.86,11.81,16.24
			c1.48,7.38,1.48,17.72,4.43,26.58c2.95,8.86,11.81,22.15,16.24,22.15c4.43,0,16.24-25.1,13.29-32.49
			c-2.95-7.38-7.38-8.86-7.38-14.77s5.91-20.67,4.43-31.01c-1.48-10.34-14.77-14.77-16.24-22.15c-1.48-7.38,2.95-26.58-7.38-35.44
			C383.83,233.04,360.2,222.7,358.73,230.09z"/>
		<path class="st6" d="M499.01,246.33c5.22,5.22-11.81,7.38-13.29,17.72c-1.48,10.34-1.48,14.77-7.38,20.67
			c-5.91,5.91-14.77,7.38-13.29,16.24c1.48,8.86,4.43,17.72,0,22.15c-4.43,4.43-14.77,4.43-17.72,11.81
			c-2.95,7.38-1.48,16.24-7.38,23.63c-5.91,7.38-14.77,22.15-22.15,19.2c-7.38-2.95-2.95-36.92,0-42.82
			c2.95-5.91,5.91-10.34,5.91-14.77s-1.48-11.81,1.48-19.2c2.95-7.38,19.2-10.34,20.67-14.77c1.48-4.43,2.95-28.06,11.81-33.96
			C466.52,246.33,490.15,237.47,499.01,246.33z"/>
		<path class="st14" d="M420.08,375.22c-0.13,0-0.26-0.03-0.38-0.11c-0.35-0.21-0.46-0.66-0.25-1.01c0.06-0.1,5.97-9.99,7.22-14.99
			c0.32-1.29,0.71-3.24,1.16-5.5c1.63-8.2,4.1-20.58,7.9-24.38c5.51-5.51,14.32-22.39,20.49-43.98
			c7.6-26.61,32.73-34.39,32.98-34.47c0.4-0.12,0.8,0.11,0.92,0.5c0.12,0.39-0.1,0.8-0.49,0.92c-0.25,0.07-24.61,7.65-31.99,33.46
			c-6.24,21.84-15.22,38.98-20.86,44.62c-3.48,3.48-5.99,16.09-7.49,23.63c-0.45,2.28-0.85,4.24-1.18,5.56
			c-1.3,5.21-7.14,14.98-7.39,15.39C420.58,375.09,420.33,375.22,420.08,375.22z"/>
		<path class="st14" d="M407.37,371.99c-0.41,0-0.74-0.33-0.74-0.74c0-0.19-0.13-19.38-5.75-25c-5.7-5.71-8.96-23.16-10.55-56.6
			c-1.45-30.38-23.22-55.41-23.44-55.66c-0.27-0.31-0.24-0.77,0.06-1.04c0.31-0.27,0.77-0.24,1.04,0.07
			c0.22,0.25,22.34,25.65,23.81,56.57c1.55,32.6,4.77,50.27,10.12,55.63c6.05,6.05,6.18,25.23,6.18,26.04
			C408.11,371.65,407.78,371.99,407.37,371.99C407.37,371.99,407.37,371.99,407.37,371.99z"/>
	</g>
</g>
</svg>
