<?xml version="1.0" encoding="utf-8"?>
<!-- Generator: Adobe Illustrator 24.0.1, SVG Export Plug-In . SVG Version: 6.00 Build 0)  -->
<svg version="1.1" id="Layer_1" xmlns="http://www.w3.org/2000/svg" xmlns:xlink="http://www.w3.org/1999/xlink" x="0px" y="0px"
	 viewBox="0 0 300 300" style="enable-background:new 0 0 300 300;" xml:space="preserve">
<g>
	<g>
		<path d="M252.27,300H47.73c-22.56,0-40.91-18.35-40.91-40.91V13.64C6.82,6.1,12.92,0,20.45,0h218.18c7.53,0,13.64,6.1,13.64,13.64
			v27.27h27.27c7.53,0,13.64,6.1,13.64,13.64v204.55C293.18,281.65,274.83,300,252.27,300z M34.09,27.27v231.82
			c0,7.52,6.12,13.64,13.64,13.64h204.55c7.52,0,13.64-6.11,13.64-13.64V68.18h-27.27c-7.53,0-13.64-6.1-13.64-13.64V27.27H34.09z"
			/>
	</g>
	<g>
		<path d="M231.82,245.45c-3.77,0-6.82-3.05-6.82-6.82V34.09c0-3.77,3.05-6.82,6.82-6.82c3.77,0,6.82,3.05,6.82,6.82v204.55
			C238.64,242.41,235.59,245.45,231.82,245.45z"/>
	</g>
	<g>
		<rect x="75" y="68.18" width="109.09" height="40.91"/>
	</g>
	<g>
		<path d="M177.27,136.36H81.82c-3.77,0-6.82-3.05-6.82-6.82s3.05-6.82,6.82-6.82h95.45c3.77,0,6.82,3.05,6.82,6.82
			S181.04,136.36,177.27,136.36z"/>
	</g>
	<g>
		<path d="M177.27,163.64H81.82c-3.77,0-6.82-3.05-6.82-6.82c0-3.77,3.05-6.82,6.82-6.82h95.45c3.77,0,6.82,3.05,6.82,6.82
			C184.09,160.59,181.04,163.64,177.27,163.64z"/>
	</g>
	<g>
		<path d="M150,190.91H81.82c-3.77,0-6.82-3.05-6.82-6.82s3.05-6.82,6.82-6.82H150c3.77,0,6.82,3.05,6.82,6.82
			S153.77,190.91,150,190.91z"/>
	</g>
</g>
</svg>
