<?xml version="1.0" encoding="utf-8"?>
<!-- Generator: Adobe Illustrator 24.0.1, SVG Export Plug-In . SVG Version: 6.00 Build 0)  -->
<svg version="1.1" id="Layer_1" xmlns="http://www.w3.org/2000/svg" xmlns:xlink="http://www.w3.org/1999/xlink" x="0px" y="0px"
	 viewBox="0 0 300 300" style="enable-background:new 0 0 300 300;" xml:space="preserve">
<style type="text/css">
	.st0{fill:#E6E7E8;}
	.st1{fill:#56CD93;}
	.st2{fill:#24323A;}
	.st3{fill:#EEF0F3;}
	.st4{fill:#4CB08A;}
</style>
<g>
	<ellipse class="st0" cx="150" cy="232.9" rx="150" ry="9.86"/>
	<g>
		<g>
			<path d="M57.27,178.4H32.65c-3.4,0-6.18,2.78-6.18,6.18v44.82c0,3.4,2.78,6.18,6.18,6.18h24.61c3.4,0,6.18-2.78,6.18-6.18v-44.82
				C63.45,181.18,60.66,178.4,57.27,178.4z"/>
			<path d="M267.35,178.4h-24.61c-3.4,0-6.18,2.78-6.18,6.18v44.82c0,3.4,2.78,6.18,6.18,6.18h24.61c3.4,0,6.18-2.78,6.18-6.18
				v-44.82C273.53,181.18,270.75,178.4,267.35,178.4z"/>
		</g>
		<path class="st1" d="M281.73,188.39v-30.95c0-24.65-18.14-39.1-29.01-45.56l3.72-3.98c1.49,1.61,3.96,2.59,8.04,2.59
			c8.61,0,15.59-4.38,15.59-9.78c0-5.4-6.98-9.78-15.59-9.78c-7.81,0-9.78,3.61-10.08,8.31c-0.64,4.15-3.21,7.69-5.87,10.32
			c-1.19-0.6-2.15-1.05-2.8-1.34c-12.69-29.68-33.65-48.54-33.65-48.54c-61.26-5.5-126.79,0-126.79,0
			C69.16,70.24,58.49,95.72,54,108.36c-0.63,0.29-1.48,0.69-2.51,1.21c-2.66-2.64-5.23-6.17-5.87-10.32
			c-0.3-4.7-2.27-8.31-10.08-8.31c-8.61,0-15.59,4.38-15.59,9.78c0,5.4,6.98,9.78,15.59,9.78c4.08,0,6.55-0.99,8.04-2.59l3.72,3.98
			c-10.87,6.45-29.01,20.91-29.01,45.56v30.95c0,0-1.8,20.75,28.87,20.75h205.71C283.53,209.14,281.73,188.39,281.73,188.39z"/>
		<path d="M63.97,103.74C68.8,92,77.03,75.67,87.91,67.72c6.66-0.5,32.68-2.29,64.53-2.29c20.74,0,40.01,0.75,57.32,2.22
			c4.31,4.27,16.66,17.39,26.27,36.09H63.97z"/>
		<path class="st2" d="M111.49,66.36l37.39,37.39h40.64l-38.31-38.31C136.12,65.46,122.4,65.87,111.49,66.36z"/>
		<g>
			<circle class="st3" cx="48.3" cy="151.92" r="14.24"/>
			<circle class="st3" cx="251.7" cy="151.92" r="14.24"/>
		</g>
		<path d="M86.69,147.91h126.55c0,0,2.51,24.22-22.97,24.22h-80.19C110.08,172.13,86.69,171.3,86.69,147.91z"/>
		<path class="st4" d="M281.73,188.39v-30.95c0-1.6-0.1-3.15-0.25-4.67c-7.63,10.67-25.56,29.85-55.9,29.85H75.15
			c-31.22,0-49.3-20.31-56.53-30.75c-0.21,1.8-0.34,3.65-0.34,5.57v30.95c0,0-1.8,20.75,28.87,20.75h205.71
			C283.53,209.14,281.73,188.39,281.73,188.39z"/>
	</g>
</g>
</svg>
