<?xml version="1.0" encoding="utf-8"?>
<!-- Generator: Adobe Illustrator 24.0.1, SVG Export Plug-In . SVG Version: 6.00 Build 0)  -->
<svg version="1.1" id="Layer_1" xmlns="http://www.w3.org/2000/svg" xmlns:xlink="http://www.w3.org/1999/xlink" x="0px" y="0px"
	 viewBox="0 0 300 300" style="enable-background:new 0 0 300 300;" xml:space="preserve">
<style type="text/css">
	.st0{fill:#101820;}
</style>
<g id="Layer_25">
	<path class="st0" d="M230.04,213.92c-2.34,0-4.61-0.86-6.42-2.45l-45.32-40.16h-18.45c-44.3,0-80.21-38.16-80.21-85.23
		s35.91-85.23,80.21-85.23h60.16c44.3,0.13,80.11,38.4,79.99,85.47c-0.1,38.68-24.71,72.43-59.93,82.22v34.73
		c0.01,4.16-2.26,7.95-5.82,9.69C232.93,213.6,231.49,213.93,230.04,213.92z M159.85,22.16c-33.23,0-60.16,28.62-60.16,63.92
		S126.63,150,159.85,150h22.06c2.34,0,4.61,0.86,6.42,2.45l31.68,28.02V159.8c-0.05-5.35,3.64-9.91,8.62-10.65
		c32.79-5.71,55.01-38.58,49.64-73.42c-4.7-30.46-29.21-53-58.26-53.57H159.85z"/>
	<rect x="179.91" y="75.43" class="st0" width="20.05" height="21.31"/>
	<rect x="129.77" y="75.43" class="st0" width="20.05" height="21.31"/>
	<rect x="230.04" y="75.43" class="st0" width="20.05" height="21.31"/>
	<path class="st0" d="M69.61,299.15c-1.45,0.01-2.89-0.32-4.21-0.96c-3.55-1.75-5.83-5.53-5.82-9.69v-34.73
		c-42.81-12.12-68.27-58.81-56.86-104.3c6.16-24.55,22.3-44.9,44.03-55.51c4.9-2.74,10.96-0.75,13.55,4.46
		c2.58,5.21,0.7,11.65-4.2,14.39c-0.36,0.2-0.74,0.38-1.13,0.54c-30.26,14.58-43.67,52.46-29.95,84.61
		c8.44,19.79,25.77,33.66,45.99,36.84c4.98,0.75,8.67,5.31,8.62,10.65v20.67l31.68-28.02c1.75-1.74,4.02-2.76,6.42-2.88h22.06
		c16.23,0.03,31.76-6.97,43.02-19.39c3.88-4.24,10.25-4.33,14.24-0.21s4.08,10.89,0.2,15.13l0,0
		c-15.09,16.48-35.81,25.77-57.45,25.78h-18.45L76.03,296.7C74.22,298.29,71.95,299.15,69.61,299.15z"/>
</g>
</svg>
