<?xml version="1.0" encoding="utf-8"?>
<!-- Generator: Adobe Illustrator 24.0.1, SVG Export Plug-In . SVG Version: 6.00 Build 0)  -->
<svg version="1.1" id="Layer_1" xmlns="http://www.w3.org/2000/svg" xmlns:xlink="http://www.w3.org/1999/xlink" x="0px" y="0px"
	 viewBox="0 0 300 300" style="enable-background:new 0 0 300 300;" xml:space="preserve">
<path d="M281.25,131.25h-20.32C253,84.21,215.79,47,168.75,39.07V18.75C168.75,8.4,160.36,0,150,0s-18.75,8.4-18.75,18.75v20.32
	C84.21,47,47,84.21,39.07,131.25H18.75C8.4,131.25,0,139.65,0,150s8.4,18.75,18.75,18.75h20.32C47,215.79,84.21,253,131.25,260.93
	v20.32c0,10.35,8.4,18.75,18.75,18.75s18.75-8.4,18.75-18.75v-20.32c47.04-7.93,84.25-45.14,92.18-92.18h20.32
	c10.35,0,18.75-8.4,18.75-18.75S291.61,131.25,281.25,131.25L281.25,131.25z M150,225c-41.36,0-75-33.65-75-75s33.65-75,75-75
	s75,33.65,75,75S191.36,225,150,225z"/>
</svg>
