<?xml version="1.0" encoding="utf-8"?>
<!-- Generator: Adobe Illustrator 24.0.1, SVG Export Plug-In . SVG Version: 6.00 Build 0)  -->
<svg version="1.1" id="Layer_1" xmlns="http://www.w3.org/2000/svg" xmlns:xlink="http://www.w3.org/1999/xlink" x="0px" y="0px"
	 viewBox="0 0 300 300" style="enable-background:new 0 0 300 300;" xml:space="preserve">
<style type="text/css">
	.st0{fill:#5BDB98;}
</style>
<path id="Path_7401" class="st0" d="M150,300c-51.76-0.05-93.7-41.99-93.75-93.75V75.01c-0.23-6.9,5.18-12.69,12.09-12.91
	c6.9-0.23,12.68,5.18,12.91,12.09c0.01,0.27,0.01,0.55,0,0.82v131.24c0,37.97,30.78,68.75,68.75,68.75
	c37.97,0,68.75-30.78,68.75-68.75V68.75c0.42-24.16-18.83-44.08-42.99-44.5c-24.16-0.42-44.08,18.83-44.5,42.99
	c-0.01,0.51-0.01,1.01,0,1.52v124.99c0,10.36,8.4,18.75,18.75,18.75c10.36,0,18.75-8.4,18.75-18.75l0,0V74.99
	c-0.23-6.9,5.18-12.69,12.09-12.91c6.9-0.23,12.68,5.18,12.91,12.09c0.01,0.27,0.01,0.55,0,0.82v118.75
	c0.05,24.17-19.49,43.8-43.66,43.85s-43.79-19.49-43.85-43.66c0-0.06,0-0.12,0-0.19V68.75C106.26,30.78,137.04,0,175.01,0
	c37.97,0,68.75,30.78,68.75,68.75v137.5C243.71,258.01,201.76,299.95,150,300z"/>
</svg>
