<?xml version="1.0" encoding="utf-8"?>
<!-- Generator: Adobe Illustrator 24.0.1, SVG Export Plug-In . SVG Version: 6.00 Build 0)  -->
<svg version="1.1" id="Layer_1" xmlns="http://www.w3.org/2000/svg" xmlns:xlink="http://www.w3.org/1999/xlink" x="0px" y="0px"
	 viewBox="0 0 300 300" style="enable-background:new 0 0 300 300;" xml:space="preserve">
<path d="M281.77,196.27c-1.27,0-2.55,0.16-3.8,0.47c-22.1,5.56-47.41,11.42-67.5,12.68c-0.97,0.06-2.2,0.09-3.64,0.09
	c-15.31,0-39.52-2.83-43.91-5.13c-3.09-1.62-5.06-3.63-6.3-5.55h34.81c8.75,0,15.95-4.98,18.38-12.06h69.66
	c9.11,0,16.53-7.41,16.53-16.53V44.59c0-9.11-7.41-16.53-16.53-16.53H134.8c-9.11,0-16.53,7.41-16.53,16.53v106.24
	c-15.03,0.51-35.78,4.83-49,15.75c-5.31,4.39-9.14,7.38-12.21,9.78c-1.99,1.55-3.71,2.9-5.33,4.23c-6.53,5.36-12.16,9.98-44.73,9.98
	c-3.87,0-7.01,3.14-7.01,7.01v67.34c0,2.28,1.11,4.42,2.97,5.73c1.2,0.84,2.61,1.28,4.04,1.28c0.79,0,1.59-0.14,2.36-0.41
	c27.78-9.95,32.73-11.39,44.69-14.89l1.08-0.31c1-0.29,1.96-0.59,2.91-0.87c5.52-1.68,9.87-3.01,18.06-3.01
	c8.95,0,21.12,1.6,38.31,5.05c33.64,6.74,49.84,9.69,63.85,9.69h0c8.13,0,15.56-0.96,25.16-2.31c20.02-2.82,59.39-15.96,79.48-26.54
	c6.4-3.37,17.1-9,17.1-21.02v-0.46C300,207.11,292.51,196.27,281.77,196.27z M191.1,42.08h32.06v58.24H191.1V42.08z M134.8,42.08
	h42.28v65.25c0,3.87,3.14,7.01,7.01,7.01h46.08c3.87,0,7.01-3.14,7.01-7.01V42.08h42.28c1.38,0,2.51,1.13,2.51,2.51v125.64
	c0,1.38-1.13,2.51-2.51,2.51h-69.44c-1.98-8.21-8.77-14.05-17.44-14.61c-8.39-0.54-21.73-2.16-34.63-3.73
	c-9.42-1.14-18.42-2.23-25.66-2.94V44.59C132.29,43.21,133.41,42.08,134.8,42.08z M285.98,217.3c0,2.73-2.25,4.74-9.61,8.62
	c-18.65,9.81-56.45,22.46-74.91,25.06c-9.03,1.27-15.99,2.17-23.21,2.17c-12.04,0-25.82-2.35-61.09-9.42
	c-18.11-3.63-31.16-5.32-41.06-5.32c-10.28,0-16.31,1.84-22.15,3.62c-0.9,0.27-1.81,0.55-2.75,0.83l-1.07,0.31
	c-10.74,3.14-15.96,4.67-36.11,11.81v-50.47c29.23-0.67,37.61-5.7,46.61-13.09c1.49-1.22,3.14-2.51,5.06-4.01
	c3.14-2.46,7.05-5.51,12.51-10.02c10.53-8.7,29.22-12.59,43.07-12.59c1.59,0,3.1,0.05,4.49,0.16c7.56,0.58,18.7,1.93,30.5,3.36
	c13.09,1.59,26.63,3.23,35.41,3.8c2.79,0.18,4.67,2.1,4.9,4.97c0.03,0.49,0.07,2.72,0.08,4.45c0,2.23-3.12,3.27-5.23,3.27h-43.95
	c-3.74,0-6.81,2.93-7,6.66c-0.03,0.68-0.63,16.64,15.95,25.32c9.03,4.73,39.73,6.73,50.42,6.73c1.74,0,3.26-0.04,4.52-0.12
	c21.23-1.33,47.32-7.35,70.05-13.07c0.13-0.03,0.26-0.05,0.37-0.05c1.59,0,4.21,3.18,4.21,6.56V217.3L285.98,217.3z"/>
</svg>
