<?xml version="1.0" encoding="utf-8"?>
<!-- Generator: Adobe Illustrator 24.0.1, SVG Export Plug-In . SVG Version: 6.00 Build 0)  -->
<svg version="1.1" id="Layer_1" xmlns="http://www.w3.org/2000/svg" xmlns:xlink="http://www.w3.org/1999/xlink" x="0px" y="0px"
	 viewBox="0 0 300 300" style="enable-background:new 0 0 300 300;" xml:space="preserve">
<style type="text/css">
	.st0{fill:#56CD93;}
</style>
<g>
	<path class="st0" d="M80.25,188.67c2.8-1.62,3.76-5.2,2.14-8c-1.62-2.8-5.2-3.76-8-2.14c-2.8,1.62-3.76,5.2-2.14,8
		C73.86,189.32,77.45,190.28,80.25,188.67z"/>
	<path class="st0" d="M56.24,229.11l29.51,51.11c6.37,11.04,20.69,15.13,32.02,8.58c11.21-6.48,15.06-20.8,8.58-32.02l-17.58-30.45
		l15.22-8.79c2.8-1.62,3.76-5.2,2.14-8l-7.62-13.2c0.91-0.18,6.88-1.35,112.23-22.01c13.02-0.71,20.83-14.95,14.25-26.34
		l-19.47-33.73l12.44-18.85c1.22-1.85,1.3-4.24,0.19-6.16l-11.72-20.3c-1.11-1.92-3.22-3.05-5.43-2.92l-22.54,1.35l-21.62-37.45
		c-3.13-5.42-8.74-8.71-15-8.79c-0.08,0-0.15,0-0.22,0c-6.05,0-11.54,3.01-14.8,8.1l-76.54,97.51L20.51,155.5
		C0.94,166.8-5.84,191.9,5.5,211.53C15.86,229.47,37.7,236.53,56.24,229.11z M116.2,262.65c3.24,5.6,1.32,12.76-4.29,16.01
		c-5.63,3.26-12.81,1.26-16.01-4.29l-29.3-50.75l20.3-11.72C120.8,270.63,115.65,261.7,116.2,262.65z M102.91,216.18l-5.86-10.15
		l10.15-5.86l5.86,10.15L102.91,216.18z M218.09,77.95l8.1,14.03l-7.22,10.94l-13.96-24.18L218.09,77.95z M156.61,35.69
		c1.57-2.57,4.07-2.84,5.08-2.81c1,0.01,3.49,0.32,5,2.93l68.15,118.05c2.22,3.84-0.48,8.67-4.93,8.78
		c-0.8,0.02-1.17,0.16-3.21,0.54L154.61,38.31C156.12,36.37,156.31,36.18,156.61,35.69z M146.81,48.25l67.73,117.32l-102.22,20.05
		l-31.08-53.84L146.81,48.25z M15.65,205.67c-2.57-4.45-3.93-9.51-3.93-14.62c0-10.45,5.62-20.18,14.66-25.4l45.67-26.37l29.3,50.74
		l-45.67,26.37C41.67,224.47,23.72,219.66,15.65,205.67z"/>
	<path class="st0" d="M62.1,192.38c-1.62-2.8-5.2-3.76-8-2.14l-10.15,5.86c-2.8,1.62-6.39,0.65-8-2.14c-1.62-2.8-5.2-3.76-8-2.14
		s-3.76,5.2-2.14,8c4.82,8.35,15.58,11.3,24.01,6.43l10.15-5.86C62.76,198.77,63.72,195.18,62.1,192.38z"/>
	<path class="st0" d="M291.29,33.69l-32.65,18.17c-2.83,1.57-3.85,5.14-2.27,7.97c1.57,2.82,5.14,3.85,7.97,2.27l32.65-18.17
		c2.83-1.57,3.85-5.14,2.27-7.97C297.69,33.13,294.12,32.12,291.29,33.69z"/>
	<path class="st0" d="M287.87,94.38l-22.64-6.07c-3.13-0.84-6.34,1.02-7.18,4.14c-0.84,3.13,1.02,6.34,4.15,7.18l22.64,6.07
		c3.14,0.84,6.34-1.04,7.18-4.14C292.85,98.43,290.99,95.21,287.87,94.38z"/>
	<path class="st0" d="M230.98,12.4l-6.07,22.64c-0.84,3.13,1.02,6.34,4.14,7.18c3.12,0.84,6.34-1.01,7.18-4.14l6.07-22.64
		c0.84-3.13-1.02-6.34-4.14-7.18C235.03,7.42,231.81,9.28,230.98,12.4z"/>
</g>
</svg>
