<?xml version="1.0" encoding="utf-8"?>
<!-- Generator: Adobe Illustrator 24.0.1, SVG Export Plug-In . SVG Version: 6.00 Build 0)  -->
<svg version="1.1" id="Layer_1" xmlns="http://www.w3.org/2000/svg" xmlns:xlink="http://www.w3.org/1999/xlink" x="0px" y="0px"
	 viewBox="0 0 300 300" style="enable-background:new 0 0 300 300;" xml:space="preserve">
<style type="text/css">
	.st0{fill:#56CD93;}
</style>
<g>
	<g>
		<path class="st0" d="M294.5,106.79c-3.43-3.85-8.12-6.35-13.22-7.06v-0.01L201.54,88.7l-31.55-75.4
			c-4.61-11.04-17.29-16.25-28.32-11.64c-5.26,2.2-9.44,6.38-11.64,11.64L98.46,88.7L18.73,99.72
			c-11.88,1.65-20.17,12.63-18.52,24.51c0.71,5.11,3.21,9.79,7.06,13.22l60.08,53.57l-12.34,84.07c-1.34,8.54,2.58,17.04,9.94,21.57
			c7.26,4.64,16.59,4.47,23.67-0.44L150,254.47l61.38,41.79c9.9,6.72,23.38,4.14,30.11-5.76c3.05-4.5,4.31-9.99,3.5-15.37
			l-12.34-84.1l60.08-53.57C301.69,129.47,302.48,115.74,294.5,106.79z M214.07,178.92c-2.69,2.4-3.99,5.99-3.46,9.56l12.86,90
			l-67.42-45.84c-3.63-2.47-8.41-2.47-12.04,0L76.2,278.2l13.19-89.77c0.51-3.55-0.79-7.12-3.46-9.51l-64.29-57.94l85.8-11.84
			c3.76-0.52,6.96-2.98,8.42-6.48l34.27-81.24c0.04,0.05,0.07,0.1,0.09,0.16l33.91,81.03c1.46,3.5,4.67,5.96,8.42,6.48l85.91,12.36
			L214.07,178.92z"/>
	</g>
</g>
</svg>
