<?xml version="1.0" encoding="utf-8"?>
<!-- Generator: Adobe Illustrator 24.0.1, SVG Export Plug-In . SVG Version: 6.00 Build 0)  -->
<svg version="1.1" id="Layer_1" xmlns="http://www.w3.org/2000/svg" xmlns:xlink="http://www.w3.org/1999/xlink" x="0px" y="0px"
	 viewBox="0 0 300 300" style="enable-background:new 0 0 300 300;" xml:space="preserve">
<style type="text/css">
	.st0{fill:#020202;}
</style>
<g>
	<g id="Group_990" transform="translate(1.741 7.462)">
		<path id="Path_2450" class="st0" d="M208.56,292.54H87.05c-24.43-0.05-44.22-19.85-44.25-44.28v-135.7
			c-0.42-4.14,2.61-7.84,6.75-8.25c4.14-0.42,7.84,2.61,8.25,6.75c0.05,0.5,0.05,1.01,0,1.51v135.7
			c0.02,16.14,13.11,29.23,29.25,29.25h121.51c16.14-0.02,29.23-13.11,29.25-29.25v-135.7c-0.42-4.14,2.61-7.84,6.75-8.25
			s7.84,2.61,8.25,6.75c0.05,0.5,0.05,1.01,0,1.51v135.7C252.52,272.58,232.88,292.23,208.56,292.54z"/>
	</g>
	<g id="Group_991" transform="translate(0)">
		<path id="Path_2451" class="st0" d="M250.06,36.73h-57.01c-4.09-24.03-26.88-40.19-50.91-36.1c-18.48,3.15-32.96,17.62-36.1,36.1
			H49.05C32.25,36.54,18.48,50,18.29,66.79c0,0.23,0,0.45,0,0.68C18.16,83.93,31.4,97.37,47.85,97.5c0.4,0,0.8,0,1.19-0.01h201.77
			c16.79,0.28,30.62-13.1,30.89-29.89c0.28-16.78-13.1-30.62-29.89-30.89c-0.59-0.01-1.17,0-1.76,0.02L250.06,36.73z M149.55,14.98
			c13.21-0.14,24.74,8.9,27.76,21.76h-56.25C124.61,23.92,136.26,15.03,149.55,14.98z M250.06,82.48H49.05
			c-8.7-0.27-15.53-7.54-15.26-16.24c0.26-8.32,6.94-15,15.26-15.26h201.77c8.68,0.05,15.71,7.07,15.76,15.76
			C266.17,75.56,258.89,82.5,250.06,82.48z"/>
	</g>
	<g id="Group_992" transform="translate(4.726 8.159)">
		<path id="Path_2452" class="st0" d="M92.36,255.05c-3.91,0.26-7.28-2.7-7.54-6.6c-0.02-0.31-0.02-0.62,0-0.94V122.37
			c0.42-4.14,4.11-7.16,8.25-6.75c3.57,0.36,6.39,3.18,6.75,6.75v125.26C99.51,251.61,96.34,254.77,92.36,255.05z"/>
	</g>
	<g id="Group_993" transform="translate(11.691 8.159)">
		<path id="Path_2453" class="st0" d="M190.41,255.05c-3.91,0.26-7.28-2.7-7.54-6.6c-0.02-0.31-0.02-0.62,0-0.94V122.37
			c0.42-4.14,4.11-7.16,8.25-6.75c3.57,0.36,6.39,3.18,6.75,6.75v125.26C197.56,251.61,194.39,254.77,190.41,255.05z"/>
	</g>
	<g id="Group_994" transform="translate(8.208 8.159)">
		<path id="Path_2454" class="st0" d="M141.38,255.05c-3.91,0.26-7.28-2.7-7.54-6.6c-0.02-0.31-0.02-0.62,0-0.94V122.37
			c-0.42-4.14,2.61-7.84,6.75-8.25c4.14-0.42,7.84,2.61,8.25,6.75c0.05,0.5,0.05,1.01,0,1.51v125.26
			C148.53,251.61,145.36,254.77,141.38,255.05z"/>
	</g>
</g>
</svg>
