<?xml version="1.0" encoding="utf-8"?>
<!-- Generator: Adobe Illustrator 24.0.1, SVG Export Plug-In . SVG Version: 6.00 Build 0)  -->
<svg version="1.1" id="Layer_1" xmlns="http://www.w3.org/2000/svg" xmlns:xlink="http://www.w3.org/1999/xlink" x="0px" y="0px"
	 viewBox="0 0 300 300" style="enable-background:new 0 0 300 300;" xml:space="preserve">
<style type="text/css">
	.st0{fill:#5BDB98;}
</style>
<path class="st0" d="M126.82,276.56H62.44c-12.92,0-23.44-10.51-23.44-23.44V76.17c0-12.92,10.51-23.44,23.44-23.44h36.85v5.86
	c0,19.39,15.77,35.16,35.16,35.16c19.38,0,35.16-15.77,35.16-35.16v-5.86h36.91c12.92,0,23.44,10.51,23.44,23.44v95.12
	c0,6.47,5.25,11.72,11.72,11.72c6.47,0,11.72-5.25,11.72-11.72V76.17c0-25.85-21.03-46.88-46.88-46.88H169.6V11.72
	C169.6,5.25,164.35,0,157.88,0H111c-6.47,0-11.72,5.25-11.72,11.72V29.3H62.44c-25.85,0-46.88,21.03-46.88,46.88v176.95
	c0,25.85,21.03,46.88,46.88,46.88h64.39c6.47,0,11.72-5.25,11.72-11.72S133.3,276.56,126.82,276.56z M122.72,23.44h23.44v35.16
	c0,6.46-5.26,11.72-11.72,11.72s-11.72-5.26-11.72-11.72V23.44z M213.54,158.2c-39.09,0-70.9,31.81-70.9,70.9s31.81,70.9,70.9,70.9
	c39.1,0,70.9-31.81,70.9-70.9S252.64,158.2,213.54,158.2z M213.54,276.56c-26.17,0-47.46-21.29-47.46-47.46s21.29-47.46,47.46-47.46
	S261,202.93,261,229.1S239.71,276.56,213.54,276.56z M242.25,229.1c0,6.47-5.25,11.72-11.72,11.72h-16.99
	c-6.47,0-11.72-5.25-11.72-11.72v-24.02c0-6.47,5.25-11.72,11.72-11.72c6.47,0,11.72,5.25,11.72,11.72v12.3h5.27
	C237.01,217.38,242.25,222.63,242.25,229.1z"/>
</svg>
