<?xml version="1.0" encoding="utf-8"?>
<!-- Generator: Adobe Illustrator 24.0.1, SVG Export Plug-In . SVG Version: 6.00 Build 0)  -->
<svg version="1.1" id="Layer_1" xmlns="http://www.w3.org/2000/svg" xmlns:xlink="http://www.w3.org/1999/xlink" x="0px" y="0px"
	 viewBox="0 0 500 500" style="enable-background:new 0 0 500 500;" xml:space="preserve">
<style type="text/css">
	.st0{opacity:0.12;fill-rule:evenodd;clip-rule:evenodd;fill:url(#SVGID_1_);}
	.st1{fill:#90A0B2;}
	.st2{fill:none;stroke:#3B55CE;stroke-width:0.6144;stroke-linecap:round;stroke-miterlimit:10;}
	.st3{fill:#8192A3;}
	.st4{fill:#638BE2;}
	.st5{fill:#778FF9;}
	.st6{fill:#607CE2;}
	.st7{fill:#FFC854;}
	.st8{fill:#FFB852;}
	.st9{fill:none;stroke:#FFFFF8;stroke-width:0.8302;stroke-linecap:round;stroke-miterlimit:10;}
	.st10{fill:#EA5E5D;}
	.st11{fill:#D34A4A;}
	.st12{fill:#A52F2F;}
	.st13{fill:#60E99C;}
	.st14{fill:#56CD93;}
	.st15{fill:none;stroke:#001C45;stroke-width:7;stroke-linecap:round;stroke-miterlimit:10;}
	.st16{fill:#001C45;}
	.st17{fill:#2E3F87;}
	.st18{fill:none;stroke:#EA5E5D;stroke-width:4.0719;stroke-linecap:round;stroke-miterlimit:10;}
	.st19{fill:#AAEEED;}
	.st20{clip-path:url(#XMLID_25_);fill:none;stroke:#AAEEED;stroke-width:0.5486;stroke-linecap:round;stroke-miterlimit:10;}
	.st21{fill:#FF9A8D;}
	.st22{clip-path:url(#XMLID_26_);fill:none;stroke:#AAEEED;stroke-width:0.5486;stroke-linecap:round;stroke-miterlimit:10;}
	.st23{fill:#1B3149;}
	.st24{opacity:0.4;fill:#1B3149;}
	.st25{clip-path:url(#SVGID_3_);}
	.st26{fill:none;stroke:#274D79;stroke-width:0.5486;stroke-miterlimit:10;}
	.st27{fill:#798999;}
	.st28{fill:#BA5964;}
	.st29{fill:none;stroke:#001C45;stroke-width:0.8229;stroke-linecap:round;stroke-miterlimit:10;}
</style>
<g>
	<linearGradient id="SVGID_1_" gradientUnits="userSpaceOnUse" x1="28.2342" y1="265.7788" x2="500" y2="265.7788">
		<stop  offset="0" style="stop-color:#90A0B2"/>
		<stop  offset="1" style="stop-color:#1B3149"/>
	</linearGradient>
	<path class="st0" d="M59.67,412.75c-38.41-22.63-42.98-82.68-6.14-113.31c49.39-41.05,7.36-77.25,6.14-114.71
		c-1.16-35.5,16.76-78.01,98.5-72.75c81.74,5.26,142.58,67.43,247.72,22.17c72.28-31.11,112.81,49.35,85.58,118.66
		c-27.23,69.31-47.12,75.55-36.76,121.12s-45.47,45.46-60.07,46.07C380.06,420.61,59.67,412.75,59.67,412.75z"/>
	<g id="XMLID_625_">
		<path id="XMLID_627_" class="st1" d="M195.36,411c0,0,3.29-12.37,1.24-27.34c-2.04-14.97-15.28-38.11-27.99-37.32
			c-12.71,0.78-13.33,15.51-5.66,22.61c7.67,7.1,26.15,23.56,25.82,41.43L195.36,411z"/>
		<path id="XMLID_626_" class="st2" d="M168.17,354.86c7.41,4.65,27.44,22.99,24.38,55.88"/>
	</g>
	<g id="XMLID_622_">
		<path id="XMLID_624_" class="st3" d="M192.55,410.74c-0.04-0.88,0.15-14.29-10.39-25.29c-10.74-11.21-28.26-13.37-36.56-7.96
			c-7.65,4.99-6.57,16.48,7.65,16.9c21.81,0.64,31.51,3.86,35.5,15.99L192.55,410.74z"/>
		<path id="XMLID_623_" class="st2" d="M149.62,382.88c10.23-1.95,36.59,0.97,41.38,27.93"/>
	</g>
	<path id="XMLID_617_" class="st1" d="M459.28,409.65c0,0,10.91-23.62-2.02-39.78c-12.93-16.16-27.25-9.83-27.25-9.83
		s-12.01-37.44-42.03-26.28c-30.02,11.17-19.4,38.88-19.4,38.88s-7.85-2.77-12.47,3.23c-4.62,6,0,12.47,0,12.47
		s-31.87,2.44-31.87,21.31H459.28z"/>
	<path id="XMLID_465_" class="st4" d="M473.52,414.76H1.41c-0.78,0-1.41-1.14-1.41-2.55l0,0c0-1.41,0.63-2.55,1.41-2.55h472.11
		c0.78,0,1.41,1.14,1.41,2.55l0,0C474.93,413.62,474.3,414.76,473.52,414.76z"/>
	<g id="XMLID_459_">
		<polygon id="XMLID_464_" class="st5" points="213,305.44 263.39,305.44 263.39,344.84 225.24,344.84 		"/>
		<rect id="XMLID_463_" x="263.39" y="305.44" class="st6" width="20.04" height="39.4"/>
		<rect id="XMLID_461_" x="283.44" y="305.44" class="st7" width="40.36" height="39.4"/>
		<polygon id="XMLID_460_" class="st8" points="341.95,344.84 323.8,344.84 323.8,305.44 349.63,305.44 		"/>
	</g>
	<g id="XMLID_451_">
		<path id="XMLID_458_" class="st9" d="M247.1,239.91v-12.62c0-6.68,5.42-12.1,12.1-12.1l0,0c6.68,0,12.1,5.42,12.1,12.1v12.62"/>
		<polygon id="XMLID_457_" class="st10" points="274.86,233.82 223.61,233.82 217.59,305.44 268.85,305.44 		"/>
		<polygon id="XMLID_456_" class="st11" points="283.85,233.82 274.86,233.82 268.85,305.44 276.83,305.44 281.89,305.44 
			289.87,305.44 		"/>
		<polygon id="XMLID_455_" class="st12" points="268.85,305.44 279.36,296.02 289.87,305.44 		"/>
		<path id="XMLID_454_" class="st12" d="M235,240.87c0-1.16,0.94-2.1,2.1-2.1c1.16,0,2.1,0.94,2.1,2.1c0,1.16-0.94,2.1-2.1,2.1
			C235.94,242.97,235,242.03,235,240.87z"/>
		<path id="XMLID_453_" class="st12" d="M259.19,240.87c0-1.16,0.94-2.1,2.1-2.1c1.16,0,2.1,0.94,2.1,2.1c0,1.16-0.94,2.1-2.1,2.1
			C260.13,242.97,259.19,242.03,259.19,240.87z"/>
		<path id="XMLID_452_" class="st9" d="M237.1,239.91v-12.62c0-6.68,5.42-12.1,12.1-12.1l0,0c6.68,0,12.1,5.42,12.1,12.1v12.62"/>
	</g>
	<g id="XMLID_443_">
		<path id="XMLID_450_" class="st9" d="M306.86,239.91v-12.62c0-6.68,5.42-12.1,12.1-12.1l0,0c6.68,0,12.1,5.42,12.1,12.1v12.62"/>
		<polygon id="XMLID_449_" class="st13" points="334.63,233.82 283.37,233.82 277.36,305.44 328.61,305.44 		"/>
		<polygon id="XMLID_448_" class="st14" points="343.62,233.82 334.63,233.82 328.61,305.44 336.59,305.44 341.66,305.44 
			349.63,305.44 		"/>
		<polygon id="XMLID_447_" class="st14" points="328.61,305.44 339.12,296.02 349.63,305.44 		"/>
		<path id="XMLID_446_" class="st14" d="M294.76,240.87c0-1.16,0.94-2.1,2.1-2.1s2.1,0.94,2.1,2.1c0,1.16-0.94,2.1-2.1,2.1
			S294.76,242.03,294.76,240.87z"/>
		<path id="XMLID_445_" class="st14" d="M318.96,240.87c0-1.16,0.94-2.1,2.1-2.1c1.16,0,2.1,0.94,2.1,2.1c0,1.16-0.94,2.1-2.1,2.1
			C319.9,242.97,318.96,242.03,318.96,240.87z"/>
		<path id="XMLID_444_" class="st9" d="M296.86,239.91v-12.62c0-6.68,5.41-12.1,12.1-12.1l0,0c6.68,0,12.1,5.42,12.1,12.1v12.62"/>
	</g>
	<g id="XMLID_426_">
		<path id="XMLID_442_" class="st15" d="M168.64,233.55h11.49c5.4,0,10.19,3.47,11.87,8.6l32.35,98.72c0.8,2.43,3.06,4.07,5.62,4.07
			h108.41c2.9,0,5.37-2.1,5.84-4.95L357,262.47H198.66"/>
		<path id="XMLID_441_" class="st15" d="M330.28,344.84h-76.03c-23.53,0-42.6,19.07-42.6,42.6l0,0h113.69"/>
		<g id="XMLID_437_">
			<path id="XMLID_440_" class="st16" d="M221.04,400.87c0-4.85,3.93-8.78,8.78-8.78s8.78,3.93,8.78,8.78
				c0,4.85-3.93,8.78-8.78,8.78S221.04,405.72,221.04,400.87z"/>
			<path id="XMLID_439_" class="st17" d="M228.57,390.02c0.15,3.19-0.05,6.89-2.51,10.41c-2.47,3.53,3.22,5.76,8.93,2.31
				c6.79-4.1,8.69-12.72,8.69-12.72H228.57z"/>
			<path id="XMLID_438_" class="st16" d="M227.96,400.87c0-1.03,0.83-1.86,1.86-1.86c1.03,0,1.86,0.83,1.86,1.86
				c0,1.03-0.83,1.86-1.86,1.86C228.79,402.74,227.96,401.9,227.96,400.87z"/>
		</g>
		<g id="XMLID_432_">
			<path id="XMLID_436_" class="st16" d="M282.41,400.87c0-4.85,3.93-8.78,8.78-8.78c4.85,0,8.78,3.93,8.78,8.78
				c0,4.85-3.93,8.78-8.78,8.78C286.34,409.65,282.41,405.72,282.41,400.87z"/>
			<path id="XMLID_435_" class="st17" d="M289.94,390.02c0.15,3.19-0.05,6.89-2.51,10.41c-2.47,3.53,3.22,5.76,8.93,2.31
				c6.79-4.1,8.69-12.72,8.69-12.72H289.94z"/>
			<path id="XMLID_434_" class="st16" d="M289.32,400.87c0-1.03,0.83-1.86,1.86-1.86c1.03,0,1.86,0.83,1.86,1.86
				c0,1.03-0.83,1.86-1.86,1.86C290.15,402.74,289.32,401.9,289.32,400.87z"/>
		</g>
		<line id="XMLID_431_" class="st15" x1="207.7" y1="290.05" x2="352.46" y2="290.05"/>
		<line id="XMLID_430_" class="st15" x1="216.74" y1="317.62" x2="347.91" y2="317.62"/>
		<line id="XMLID_427_" class="st18" x1="176.12" y1="233.55" x2="158.18" y2="233.55"/>
	</g>
	<g id="XMLID_349_">
		<g id="XMLID_353_">
			<g id="XMLID_381_">
				<g id="XMLID_409_">
					<path id="XMLID_422_" class="st19" d="M134.21,403.81c0.54,1.02,0.13,3.08-3.96,4.78c-4.09,1.7-11.49,0.98-14.43,0.4
						c-2.94-0.58-4.73-1.43-9.09-0.52c-4.35,0.91-11.49,0.51-13.65-1.31c-0.75-0.87-0.24-2.66-0.24-2.66L134.21,403.81z"/>
					<g id="XMLID_412_">
						<defs>
							<path id="XMLID_413_" d="M95.16,391.07c-0.6,2.98-3.03,10.02-2.33,13.43c3.06,2.59,9.61,2.76,14.52,1.53
								c4.91-1.24,8.37,1.28,14.53,1.64c6.05,0.36,11.09-1.33,12.33-3.86c1.34-2.76-9.22-4.9-16.42-7.11
								c-8.05-2.48-12.22-6.45-12.22-6.45L95.16,391.07z"/>
						</defs>
						<use xlink:href="#XMLID_413_"  style="overflow:visible;fill:#1B3149;"/>
						<clipPath id="XMLID_25_">
							<use xlink:href="#XMLID_413_"  style="overflow:visible;"/>
						</clipPath>
						<path id="XMLID_420_" class="st20" d="M108.01,396.84c0,0,1.45-4.06,3.38-5.38"/>
						<path id="XMLID_418_" class="st20" d="M113.49,399.02c0,0,1.45-4.06,3.38-5.38"/>
						<path id="XMLID_416_" class="st20" d="M118.97,401.19c0,0,1.45-4.06,3.38-5.38"/>
					</g>
					<path id="XMLID_410_" class="st21" d="M95.16,379.15v11.92c0,0,1.38,0.46,1.96,1.13c0.58,0.68,1.36,2.92,2.33,2.96
						c3.85,0.16,6.12-4.92,6.12-4.92l1.45-10.83L95.16,379.15z"/>
				</g>
				<g id="XMLID_395_">
					<path id="XMLID_407_" class="st19" d="M36.46,406.44c-0.69,0.93-2.73,1.44-6.02-1.53c-3.29-2.97-5.81-9.96-6.55-12.87
						c-0.74-2.9-0.73-4.89-3.42-8.43c-2.69-3.54-5.39-10.16-4.66-12.9c0.46-1.05,2.3-1.36,2.3-1.36L36.46,406.44z"/>
					<g id="XMLID_398_">
						<defs>
							<path id="XMLID_399_" d="M31.24,365.71c-2.95,0.74-10.35,1.56-13.14,3.65c-1.03,3.87,1.62,9.87,4.84,13.77
								c3.22,3.91,2.43,8.11,4.75,13.83c2.27,5.62,5.95,9.45,8.77,9.48c3.07,0.03,0.47-10.43-0.61-17.88
								c-1.22-8.34,0.59-13.8,0.59-13.8L31.24,365.71z"/>
						</defs>
						<use xlink:href="#XMLID_399_"  style="overflow:visible;fill:#1B3149;"/>
						<clipPath id="XMLID_26_">
							<use xlink:href="#XMLID_399_"  style="overflow:visible;"/>
						</clipPath>
						<path id="XMLID_405_" class="st22" d="M31.53,379.79c0,0,4.29-0.43,6.31,0.75"/>
						<path id="XMLID_403_" class="st22" d="M31.91,385.67c0,0,4.29-0.43,6.31,0.75"/>
						<path id="XMLID_401_" class="st22" d="M32.3,391.55c0,0,4.29-0.43,6.31,0.75"/>
					</g>
					<path id="XMLID_396_" class="st21" d="M37.85,358.92l-6.61,6.79c0,0,0.18,1.44-0.19,2.25c-0.37,0.81-2.06,2.48-1.68,3.38
						c1.51,3.54,7.07,3.42,7.07,3.42l9.53-7.48L37.85,358.92z"/>
				</g>
				<path id="XMLID_393_" class="st23" d="M118.18,209.43c-13.34,0-23.27,1-23.27,1c-4.27,1.87-11.59,11.57-13.75,17.72
					C79,234.33,79.88,244.61,81,249.9c6.26,29.51,16.73,46.51,19.16,58.21c1.49,7.15-5.6,3.31-5.6,21.45
					c0,16.23,0.6,50.82,0.6,50.82s5,2.91,11.6,0.92c0,0,10.01-57.06,11.11-63.59c1.78-10.59,2.4-15.03,2.59-33.35
					C120.75,258.6,118.18,209.43,118.18,209.43z"/>
				<path id="XMLID_391_" class="st17" d="M45.97,367.28c0,0,40.19-40.81,43.3-44.24c3.11-3.44,15.72-71.09,16.54-76.16
					c0,0,12.61-12.84,12.98-23.49l-40.92-20.49c-1.74,6.54-3.16,6.77-4.34,23.86c-0.6,8.71-2.52,44.59-3.88,87.07
					c0,0-4.22,2.26-10.63,8.5c-5.23,5.1-21.17,36.61-21.17,36.61S39.76,365.21,45.97,367.28z"/>
				<path id="XMLID_390_" class="st24" d="M73.52,226.75c-0.6,8.71-2.52,44.59-3.88,87.07c0,0-4.22,2.26-10.63,8.5
					c-5.23,5.1-21.17,36.61-21.17,36.61s0.47,1.56,1.71,3.37c3.85-7.95,14.17-27.14,19.11-33.94c6.25-8.62,13.58-11.2,14.86-12.28
					c1.28-1.08,0.66-4.74,1.09-12.93c0.43-8.19,5.22-78.86,5.22-78.86l-5.31-8.07C74.17,218.81,73.84,222.17,73.52,226.75z"/>
				<path id="XMLID_389_" class="st24" d="M116.09,232.6c0,0-8.01,7.23-20.99,7.23c-12.97,0-22.03-5.71-22.03-5.71l0.45-7.37
					L116.09,232.6z"/>
				<g id="XMLID_382_">
					<defs>
						<path id="SVGID_2_" d="M45.97,367.28c0,0,40.19-40.81,43.3-44.24c3.11-3.44,15.72-71.09,16.54-76.16
							c0,0,12.61-12.84,12.98-23.49l-40.92-20.49c-1.74,6.54-3.16,6.77-4.34,23.86c-0.6,8.71-2.52,44.59-3.88,87.07
							c0,0-4.22,2.26-10.63,8.5c-5.23,5.1-21.17,36.61-21.17,36.61S39.76,365.21,45.97,367.28z"/>
					</defs>
					<clipPath id="SVGID_3_">
						<use xlink:href="#SVGID_2_"  style="overflow:visible;"/>
					</clipPath>
					<g id="XMLID_385_" class="st25">
						<path id="XMLID_388_" class="st26" d="M107.33,202.62c-5.97,11.3-16.66,18.33-19.55,25.86c-2.89,7.53-3.61,21.73-6.02,49.46
							c-2.29,26.35-3.18,34.39-3.51,39.61c-2.54,3.33-9.7,5.45-18.92,18.16c-8.93,12.3-20.5,31.82-20.5,31.82"/>
						<path id="XMLID_387_" class="st26" d="M100.18,232.65c0,0-1.01,17.09-15.7,16.22"/>
						<path id="XMLID_386_" class="st26" d="M39.75,353.39c0.87,4.53,6.04,8.9,12.48,11.38"/>
					</g>
				</g>
			</g>
			<path id="XMLID_380_" class="st27" d="M117.31,140.59c0.86,0.93,1.14,2.71-0.38,8.16l-19.06-16.02L117.31,140.59z"/>
			<g id="XMLID_366_">
				<path id="XMLID_378_" class="st28" d="M133.08,110.29c0.39,1.54,2.83,8.3,3.67,10.3c0.84,2-4.48,0.97-4.48,0.97L133.08,110.29z"
					/>
				<g id="XMLID_373_">
					<polygon id="XMLID_376_" class="st21" points="101.61,132.73 115.49,145.3 120.47,132.25 106.91,117.89 					"/>
					<path id="XMLID_374_" class="st28" d="M118.28,137.98c0,0-13.42-10.27-11.38-20.09l13.57,14.35L118.28,137.98z"/>
				</g>
				<path id="XMLID_371_" class="st21" d="M106.95,117.89c0,0,0.3,2.17,0.76,3.86c0.47,1.69,11.28,10.07,14.39,11.37
					c3.11,1.3,7.57,1.84,9.74-9.14c2.17-10.99,2.05-21.06-3.76-27.94c-5.82-6.88-17.37-4.4-23.66,1.27
					C98.13,102.97,98.97,117.79,106.95,117.89z"/>
				<path id="XMLID_369_" class="st16" d="M106.95,117.89l-2.07,5.68c0,0-2.31-0.93-4.33-5.67c-2.22-5.19-6.4-14.15-4.5-18.57
					c1.44-3.34,4.82-5.17,8.26-5.81c1.2-0.22,1.6,0.06,2.11-0.98c1.19-2.39,2.2-4.4,4.62-5.8c2.08-1.21,3.75-1.65,6.12-1.82
					c2.54-0.18,5.36,0.54,7.85,0.95c5.33,0.87,10.8,0.9,16.15,0.09c0.22-0.03,0.46-0.06,0.64,0.08c0.19,0.16,0.2,0.45,0.18,0.7
					c-0.45,4.57-3.74,6.96-7.8,8.36c0,0,6.32,5.74,0.9,7.22c-5.43,1.48-18.61-2.6-18.61-2.6s5.82,4.32,3.36,5.62
					c-2.46,1.3-10.66-1.83-10.66-1.83l-0.14,4.53c0,0-3.13-2.01-5.61-0.31C100.45,109.77,101.83,117.96,106.95,117.89z"/>
				<path id="XMLID_367_" class="st29" d="M108.33,79.97c0,0-6.59,7.72-0.57,15.85c0,0-7.61-2.4-7.2-10.14"/>
			</g>
			<path id="XMLID_365_" class="st1" d="M115.37,147.44c0,0,1.96-4.72,1.1-5.97c-2.84-4.14-12.12-16.34-13.41-15.17
				c-1.29,1.17-5.2,6.43-5.2,6.43L115.37,147.44z"/>
			<path id="XMLID_364_" class="st3" d="M116.93,148.75c1.19,5.48,1.08,14.51,1.83,33.66c0.48,12.32,1.72,48.08,1.72,48.08
				s-9.43,6.18-25.28,4.92c-15.14-1.21-21.67-8.66-21.67-8.66s1.58-50.28,6.55-70.07c7.35-20.41,17.79-23.95,17.79-23.95
				L116.93,148.75z"/>
			<path id="XMLID_363_" class="st27" d="M119.64,206.65l-32.39-45.91c1.07,7.44,17.25,48.31,17.25,48.31l2.62-0.21
				c0,0,3.26,7.54,4.67,9.76c0.93,1.47,5.74,2.83,8.4,3.66C120.04,217.94,119.84,212.37,119.64,206.65z"/>
			<path id="XMLID_362_" class="st27" d="M97.87,132.73l17.5,14.71l1.56,1.31c0.51,0.98,0.62,1.87,0.43,2.65L97.87,132.73z"/>
			<g id="XMLID_354_">
				<g id="XMLID_48_">
					<path id="XMLID_361_" class="st16" d="M127.08,110.9c-0.04-0.76-0.69-1.34-1.45-1.3c-0.76,0.04-1.34,0.69-1.3,1.45
						c0.04,0.76,0.69,1.34,1.45,1.3C126.54,112.31,127.12,111.66,127.08,110.9z"/>
					<path id="XMLID_360_" class="st16" d="M128.22,107.29l-6.29,2c0,0,0.14-2.15,2.31-2.81
						C126.87,105.67,128.22,107.29,128.22,107.29z"/>
				</g>
				<path id="XMLID_357_" class="st28" d="M104.72,109.53c0.85-0.31,2.14-0.26,2.85,0.32c0.27,0.22-0.19,0.66-0.45,0.56
					c-1.45-0.54-3.22-0.61-3.94,1.08c-0.04,0.09-0.1,0-0.09-0.07C103.29,110.49,103.81,109.85,104.72,109.53z"/>
				<path id="XMLID_355_" class="st28" d="M105.4,109.66c0.16-0.08,0.53,0.32,0.49,0.44c-0.23,0.11-0.61,0.38-0.79,0.7
					c-0.31,0.54-0.39,1.01-0.34,1.64c0.12,1.44,0.93,2.48,2.34,2.81c0.03,0.01,0.07,0.08,0.03,0.09c-1.23,0.31-2.62-0.96-2.9-2.06
					C103.91,112.05,103.99,110.33,105.4,109.66z"/>
			</g>
		</g>
		<path id="XMLID_351_" class="st21" d="M86.65,156.7c-1.59-8.92,15.42-14.56,20.19-3.19c4.68,11.16,16.55,49.57,16.55,49.57
			s34.87,21.98,38.35,21.65c4.67-0.44,16.35,12.3,14.94,14.3c-1.37,1.94-7.29,3.64-11.46,2.45c-3.45-0.99-6.78-7.17-8.11-8.19
			c-6.75-2.26-39.06-12.95-43.36-16.68C109.45,212.88,87.69,162.51,86.65,156.7z"/>
		<path id="XMLID_350_" class="st1" d="M105.6,149.15c1.16,2.6,3.78,8.14,6.33,16.85c1.96,6.67,10.64,34.47,10.64,34.47
			s-5.66,7.01-13.87,7.73c0,0-6.44-13.17-10.38-21.33c-3.93-8.16-10.52-24.33-12.19-29.14c-1.67-4.81,3.71-13.17,6.94-13.84
			C96.31,143.23,103.37,144.16,105.6,149.15z"/>
	</g>
</g>
</svg>
