<?xml version="1.0" encoding="utf-8"?>
<!-- Generator: Adobe Illustrator 24.0.1, SVG Export Plug-In . SVG Version: 6.00 Build 0)  -->
<svg version="1.1" id="Layer_1" xmlns="http://www.w3.org/2000/svg" xmlns:xlink="http://www.w3.org/1999/xlink" x="0px" y="0px"
	 viewBox="0 0 500 500" style="enable-background:new 0 0 500 500;" xml:space="preserve">
<style type="text/css">
	.st0{opacity:0.12;}
	.st1{clip-path:url(#SVGID_2_);}
	.st2{clip-path:url(#SVGID_4_);}
	.st3{fill:#90A0B2;}
	.st4{fill:#FFFFFF;}
	.st5{fill:#0D2042;}
	.st6{fill:#1B3149;}
	.st7{opacity:0.36;}
	.st8{clip-path:url(#SVGID_6_);}
	.st9{clip-path:url(#SVGID_8_);}
	.st10{fill:#60E99C;}
	.st11{fill:#56CD93;}
	.st12{fill:#010102;}
	.st13{fill:#DDDDDD;}
	.st14{opacity:0.37;}
	.st15{clip-path:url(#SVGID_10_);}
</style>
<g id="Group_1708" transform="translate(-2043.427 353)">
	<g id="Group_1605" transform="translate(2072.97 -313.946)" class="st0">
		<g id="Group_1604">
			<g>
				<defs>
					<rect id="SVGID_1_" x="-19.6" y="-39.05" width="480.11" height="498.94"/>
				</defs>
				<clipPath id="SVGID_2_">
					<use xlink:href="#SVGID_1_"  style="overflow:visible;"/>
				</clipPath>
				<g id="Group_1603" class="st1">
					<g id="Group_1602" transform="translate(0 0)">
						<g>
							<defs>
								<path id="SVGID_3_" d="M452.93,256.36c4.11-28.31,6.54-56.83,7.29-85.43c1.37-44.7-1.66-91.07-23.24-131.91
									c-11.8-22.89-29.34-42.33-50.9-56.42c-10.71-6.87-22.31-12.24-34.47-15.96c-12.16-3.83-24.83-5.74-37.57-5.68
									c-27.4,0.07-53.92,9.68-75,27.19c-17.6,13.91-31.74,31.52-45.76,48.56c-5.92,7.2-11.89,14.35-18.24,21.21
									c-9.33,9.68-19.66,18.35-30.83,25.84c-12.63,6.99-25.66,13.25-39.01,18.74c-15.61,6.66-30.61,14.69-44.82,23.98
									c-12.79,8.83-24.52,19.1-34.95,30.62C16.5,166.63,8.75,177.2,2.39,188.6c-7.63,13.01-13.41,27.02-17.19,41.62
									c-2.14,8.44-3.64,17.03-4.48,25.69c-0.52,8.37-0.37,16.77,0.44,25.12c2.68,24.7,11.55,48.32,25.79,68.67
									c5.28,10.34,11.66,20.07,19.05,29.03c8.07,9.64,17.08,18.45,26.91,26.28c8.85,7.31,18.28,13.89,28.2,19.66
									c43.48,25.37,95.18,35.51,145.64,35.19c44.29-0.28,91.05-6.29,130.35-27.23c46.62-24.84,69.21-67.92,82.84-115.51
									c5.63-19.96,9.96-40.26,12.96-60.78"/>
							</defs>
							<clipPath id="SVGID_4_">
								<use xlink:href="#SVGID_3_"  style="overflow:visible;"/>
							</clipPath>
							<g id="Group_1601" class="st2">
								<rect id="Rectangle_2637" x="-19.94" y="-39.34" class="st3" width="481.55" height="499.54"/>
							</g>
						</g>
					</g>
				</g>
			</g>
		</g>
	</g>
	<path id="Path_5711" class="st4" d="M2369.15-28.88c-84.34,0-209.5-31.89-209.5-31.89c0-4.1,53.38-101.89,110.53-112.6
		c1.73-0.32,3.47-0.57,5.21-0.73l2.74-14l2.69-13.74h44.61l2.79,15.75l1.37,7.76c0,0,2.45,0.37,6.65,1.45
		c20.3,5.23,81.65,27.02,106.13,103.44C2453.21-39.6,2418.04-28.88,2369.15-28.88"/>
	<path id="Path_5712" d="M2369.15-27.87c-43.65,0-98.36-8.68-136.56-15.97c-41.38-7.89-72.87-15.88-73.18-15.96l-0.75-0.19v-0.78
		c0-1.69,4.72-10.5,9.37-18.33c7.48-12.53,15.72-24.59,24.67-36.11c18.59-23.86,47.09-53.48,77.3-59.15
		c1.54-0.29,3.07-0.5,4.55-0.67l5.44-27.82h46.27l4.19,23.64c1.02,0.19,3.1,0.6,6.04,1.35c18.74,5.01,36.34,13.56,51.86,25.19
		c11.72,8.76,22.09,19.19,30.78,30.96c10.63,14.56,18.81,30.76,24.2,47.96c3.37,10.53,2.51,19.41-2.6,26.39
		c-5,6.85-14.17,11.96-27.24,15.18C2398.93-29.02,2384.05-27.58,2369.15-27.87 M2160.89-61.5c5.66,1.42,34.86,8.59,72.08,15.69
		c38.12,7.27,92.69,15.92,136.18,15.92c37.39,0,60.93-6.27,69.96-18.64c4.69-6.44,5.47-14.71,2.31-24.59
		c-24.49-76.48-86.88-98-105.42-102.76c-4.1-1.05-6.53-1.43-6.55-1.43l-0.71-0.11l-4.14-23.39h-42.94l-5.41,27.66l-0.75,0.07
		c-1.65,0.15-3.37,0.39-5.11,0.72c-29.45,5.51-57.43,34.55-75.72,57.93c-19.68,25.16-31.92,48.21-33.76,52.95"/>
	<path id="Path_5713" class="st3" d="M2369.15-28.88c-84.34,0-209.5-31.89-209.5-31.89c0-3.93,34.36-94.81,103.48-111.78
		c2.38-0.59,4.69-0.36,7.05-0.8c6.97,9.27,33.64,38.64,66.06-3.51c1.7,0.44,3.7,0.02,5.94,0.71
		c24.42,7.59,84.76,32.81,100.18,102.73C2450.02-38.73,2418.03-28.87,2369.15-28.88"/>
	<path id="Path_5714" class="st5" d="M2234.54-80.96l7.5-13.09l-2.57,13.09H2234.54z"/>
	<path id="Path_5715" class="st5" d="M2371.74-82.83l-1.78-11.22l6.71,11.22H2371.74z"/>
	<path id="Path_5716" class="st4" d="M2342.18-175.17c-8.55,14.68-24,41.35-24,42.67c0,1.81-14.99-15.67-14.99-15.67l-15.76,15.67
		l-24.31-39.1c2.31-0.72,4.67-1.31,7.05-1.75c6.97,9.27,33.63,38.64,66.06-3.51C2337.94-176.43,2339.94-175.86,2342.18-175.17"/>
	<path id="Path_5717" d="M2287.26-130.9l-25.67-41.27l1.24-0.39c2.35-0.74,4.74-1.33,7.17-1.79l0.61-0.12l0.38,0.5
		c4.09,5.45,15.24,18.13,30.3,18.21c11.53,0.06,23.02-7.24,34.16-21.72l0.4-0.52l0.64,0.17c1.91,0.5,3.93,1.07,5.99,1.7l1.21,0.37
		l-0.64,1.09c-14.45,24.8-23.35,40.57-23.86,42.28c-0.03,0.43-0.31,0.8-0.71,0.95c-0.74,0.27-1.36-0.04-3.83-2.54
		c-1.3-1.31-3.01-3.15-5.12-5.48c-2.61-2.9-5.18-5.85-6.38-7.24L2287.26-130.9z M2319.19-132.5 M2303.27-149.65l0.7,0.82
		c5.38,6.27,11.46,13,13.68,14.96c0.77-1.67,2.86-5.59,8.47-15.45c4.72-8.31,10.42-18.13,14.57-25.26c-1.38-0.42-2.74-0.8-4.05-1.14
		c-11.36,14.58-23.2,21.98-35.19,21.98h-0.17c-15.51-0.09-26.96-12.58-31.51-18.51c-1.68,0.34-3.39,0.75-5.08,1.25l22.96,36.91
		L2303.27-149.65z"/>
	<path id="Path_5718" class="st4" d="M2457.48-28.88l-2.68,34.51l-4.45,57.4l-6.43,82.96h-278.45l-17.23-161.89L2457.48-28.88z"/>
	<path id="Path_5719" d="M2444.84,147h-280.28l-17.44-163.85l311.44-13.08L2444.84,147z M2166.37,144.99h276.62l6.36-82.03
		l7.04-90.78l-307.04,12.89L2166.37,144.99z"/>
	<path id="Path_5720" class="st6" d="M2173.13,25.92l267.81-4.87l-12.58,48.04l-251.15,7.63L2173.13,25.92z"/>
	<g id="Group_1608" transform="translate(2112.007 -168.912)" class="st7">
		<g id="Group_1607">
			<g>
				<defs>
					<rect id="SVGID_5_" x="39.2" y="179.41" width="47.86" height="68.02"/>
				</defs>
				<clipPath id="SVGID_6_">
					<use xlink:href="#SVGID_5_"  style="overflow:visible;"/>
				</clipPath>
				<g id="Group_1606" class="st8">
					<path id="Path_5721" d="M39.21,179.41l4.45,57.39c13.35,5.54,28.61,11.5,30.4,10.53c3.26-1.78,3.3-12.18,3.3-12.18
						c4.82-0.79,8.19-5.53,9.52-10.53c1.33-5-6.23-7.66-6.23-7.66c3.02-2.01,4.56-5.62,3.92-9.19c-0.96-6.32-8.6-7.37-8.6-7.37
						c5.97-3.42,3.25-11.06,1.37-13.69c-1.87-2.63-38.16-7.31-38.16-7.31"/>
				</g>
			</g>
		</g>
	</g>
	<path id="Path_5722" class="st4" d="M2151.17,11.69c0,0,18.35,6.25,29.91,7.2c2.27,0.15,4.4,1.13,5.99,2.76
		c1.83,1.94,2.96,4.88-0.56,8.62c-6.63,7.03-33.16-1.81-33.16-1.81s21.3,7.23,32.35,6.63c11.05-0.6,10.25,9.45,8.24,11.25
		c-2.01,1.81-22.31,3.01-39.18-2.61c0,0,18.05,6.86,33.44,7.4c2.53,0.06,4.95,1.03,6.82,2.72c2.3,2.13,3.61,5.37-2.08,9.16
		c-10.25,6.83-36.57-4.62-36.57-4.62s14.37,7.36,24.95,8.66c2.33,0.27,4.38,1.65,5.51,3.7c1.13,2.11,1.18,4.92-3.14,7.73
		c-8.64,5.63-34.77-7.43-35.37-8.04c-0.6-0.6-10.05-5.01-6.03-14.27c0,0-5.63-9.05-1.81-14.87c0,0-5.67-9.04-1.33-15.07
		c0,0-6.91-13.46-0.68-18.08c0,0-6.03-8.64-4.22-13.26s15.08-0.3,15.08-0.3L2151.17,11.69z"/>
	<path id="Path_5723" d="M2177.7,80.89c-5.15-0.25-10.22-1.31-15.04-3.15c-5.21-1.72-10.25-3.93-15.05-6.6
		c0.01,0.01,0.02,0.02,0.04,0.04c-0.05-0.05-0.25-0.17-0.43-0.28c-2.02-1.19-3.77-2.79-5.14-4.68c-2.03-2.94-2.37-6.72-0.9-9.97
		c-1.1-1.92-4.93-9.41-1.86-14.96c-1.16-2.07-4.84-9.5-1.32-15.14c-1.22-2.56-5.86-13.27-0.85-18.19
		c-1.53-2.36-5.51-9.14-3.82-13.45c0.94-2.41,4.07-3.26,9.29-2.51c2.38,0.36,4.73,0.9,7.03,1.62l0.62,0.2l1.82,17.11
		c3.26,1.08,18.93,6.11,29.07,6.94c2.51,0.17,4.88,1.26,6.64,3.06c1.66,1.75,3.79,5.38-0.56,10c-2,1.8-4.58,2.83-7.27,2.89
		c1.89,0.23,3.79,0.31,5.69,0.23c6.63-0.36,9.02,2.95,9.85,4.95c1.18,2.65,0.84,5.72-0.89,8.05c-1.56,1.41-8.52,1.89-14.71,1.74
		c-1.04-0.03-2.29-0.07-3.68-0.16c3.96,0.79,7.98,1.28,12.02,1.46c2.77,0.07,5.42,1.13,7.47,2.99c1.47,1.17,2.31,2.96,2.26,4.84
		c-0.52,2.54-2.16,4.71-4.47,5.89c-2.94,1.7-6.3,2.51-9.69,2.34c-0.61,0-1.22-0.02-1.84-0.05c2.45,0.43,4.57,1.95,5.76,4.14
		c1,1.88,1.89,5.55-3.48,9.05C2182.27,80.47,2180,81.01,2177.7,80.89 M2148.99,69.68c4.73,2.5,9.65,4.6,14.72,6.3
		c9.48,3.21,16.2,3.78,19.45,1.66c3.11-2.03,4.03-4.13,2.8-6.42c-0.98-1.77-2.75-2.95-4.76-3.17c-10.63-1.31-24.69-8.46-25.28-8.77
		l0.86-1.81c0.25,0.11,25.94,11.16,35.61,4.71c2.27-1.5,3.48-2.99,3.59-4.39c-0.02-1.26-0.62-2.45-1.63-3.2
		c-1.7-1.53-3.89-2.41-6.18-2.46c-15.39-0.55-33.58-7.4-33.76-7.47l0.67-1.89c8.02,2.51,16.36,3.87,24.76,4.04
		c8.09,0.2,12.81-0.71,13.43-1.23c1.06-1.75,1.2-3.91,0.37-5.78c-1.1-2.65-3.83-3.94-7.89-3.72c-0.46,0.03-0.94,0.04-1.43,0.04
		c-11.37,0-30.45-6.43-31.3-6.72l0.64-1.9c7.21,2.4,27.03,7.46,32.11,2.07c2.49-2.64,2.67-5.01,0.56-7.24
		c-1.42-1.44-3.32-2.31-5.34-2.44c-11.56-0.94-29.4-6.99-30.16-7.25l-0.61-0.21l-1.82-17.09c-4.25-1.28-12.17-2.78-13.22-0.1
		c-1.32,3.37,2.51,10.04,4.11,12.32l0.56,0.8l-0.78,0.58c-5.47,4.06,0.91,16.69,0.98,16.82l0.28,0.55l-0.36,0.5
		c-3.89,5.4,1.31,13.87,1.37,13.95l0.34,0.54l-0.35,0.54c-3.42,5.22,1.77,13.7,1.82,13.78l0.28,0.45l-0.21,0.48
		c-3.2,7.35,3.04,11.33,5.09,12.64c0.23,0.14,0.46,0.29,0.67,0.46 M2149.01,69.68l0.04,0.04L2149.01,69.68"/>
	<path id="Path_5724" class="st4" d="M2197.11,65.67V32.01h12.42c2.51-0.05,5.01,0.4,7.34,1.33c1.99,0.81,3.79,2.04,5.26,3.6
		c1.42,1.54,2.5,3.35,3.18,5.34c0.71,2.1,1.07,4.3,1.06,6.52c0.03,2.37-0.37,4.72-1.18,6.95c-0.74,1.99-1.9,3.8-3.4,5.31
		c-1.52,1.5-3.33,2.66-5.32,3.41c-2.22,0.83-4.58,1.24-6.96,1.21L2197.11,65.67z M2219.7,48.79c0.01-1.51-0.21-3.02-0.67-4.46
		c-0.41-1.29-1.08-2.49-1.97-3.51c-0.88-0.99-1.98-1.77-3.2-2.28c-1.37-0.56-2.83-0.83-4.31-0.81h-5.78v22.19h5.78
		c1.5,0.03,2.98-0.26,4.36-0.85c1.22-0.54,2.31-1.34,3.18-2.35c0.87-1.04,1.53-2.24,1.95-3.53
		C2219.48,51.78,2219.71,50.29,2219.7,48.79"/>
	<path id="Path_5725" class="st4" d="M2255.44,59.94v5.74h-23.74V32.01H2255v5.74h-16.66v8.11h14.4v5.31h-14.4v8.77L2255.44,59.94z"
		/>
	<path id="Path_5726" class="st4" d="M2260.77,65.68V32.01h6.64v27.93h17.43v5.74L2260.77,65.68z"/>
	<rect id="Rectangle_2640" x="2289.13" y="32.05" class="st4" width="6.64" height="33.62"/>
	<path id="Path_5727" class="st4" d="M2306.32,32.01l9.25,25.46l9.15-25.46h6.98l-13.34,33.67h-5.58l-13.44-33.67H2306.32z"/>
	<path id="Path_5728" class="st4" d="M2359.05,59.94v5.74h-23.74V32.01h23.31v5.74h-16.66v8.11h14.4v5.31h-14.4v8.77L2359.05,59.94z
		"/>
	<path id="Path_5729" class="st4" d="M2364.39,65.68V32.01h15.12c1.51-0.01,3,0.32,4.36,0.97c1.3,0.63,2.47,1.49,3.44,2.56
		c0.96,1.06,1.72,2.28,2.26,3.6c0.53,1.29,0.81,2.66,0.82,4.06c0.02,2.1-0.55,4.16-1.66,5.95c-1.05,1.74-2.63,3.09-4.51,3.86
		l8.04,12.66h-7.52l-7.17-11.28h-6.55v11.28L2364.39,65.68z M2371.04,48.65h8.33c0.6,0,1.18-0.15,1.71-0.43
		c0.53-0.29,1-0.68,1.37-1.16c0.4-0.52,0.71-1.11,0.91-1.73c0.23-0.69,0.34-1.41,0.34-2.13c0.01-0.75-0.12-1.49-0.39-2.18
		c-0.24-0.63-0.59-1.22-1.04-1.73c-0.42-0.48-0.93-0.87-1.5-1.14c-0.53-0.26-1.12-0.4-1.71-0.4h-8.04L2371.04,48.65z"/>
	<path id="Path_5730" class="st4" d="M2398.63,32.01l8.43,16.22l8.57-16.22h7.18l-12.42,21.91v11.76h-6.6V53.82l-12.38-21.8
		L2398.63,32.01z"/>
	<g id="Group_1611" transform="translate(2214.045 -170.852)" class="st7">
		<g id="Group_1610">
			<g>
				<defs>
					<rect id="SVGID_7_" x="192.9" y="176.49" width="47.85" height="68.02"/>
				</defs>
				<clipPath id="SVGID_8_">
					<use xlink:href="#SVGID_7_"  style="overflow:visible;"/>
				</clipPath>
				<g id="Group_1609" class="st9">
					<path id="Path_5731" d="M240.76,176.49l-4.45,57.39c-13.35,5.54-28.61,11.5-30.4,10.53c-3.26-1.78-3.31-12.18-3.31-12.18
						c-4.82-0.79-8.19-5.53-9.52-10.53c-1.33-5,6.23-7.66,6.23-7.66c-3.02-2.01-4.56-5.62-3.92-9.19c0.96-6.32,8.6-7.37,8.6-7.37
						c-5.97-3.42-3.26-11.06-1.38-13.69C204.49,181.17,240.77,176.49,240.76,176.49"/>
				</g>
			</g>
		</g>
	</g>
	<path id="Path_5732" class="st4" d="M2454.8,5.64c0,0-17.97,6.02-29.48,6.92c-2.26,0.15-4.39,1.12-5.98,2.73
		c-1.84,1.94-2.98,4.89,0.55,8.63c6.63,7.03,33.15-1.81,33.15-1.81s-21.3,7.23-32.35,6.63c-11.05-0.6-10.25,9.44-8.24,11.25
		s22.31,3.01,39.18-2.61c0,0-18.05,6.86-33.44,7.4c-2.53,0.06-4.95,1.03-6.82,2.72c-2.29,2.13-3.61,5.37,2.09,9.16
		c10.25,6.83,36.57-4.62,36.57-4.62s-14.43,7.39-25.02,8.67c-2.03,0.23-3.87,1.33-5.04,3.01c-1.48,2.16-2.07,5.29,2.73,8.41
		c8.64,5.63,34.76-7.44,35.36-8.04c0.6-0.6,10.05-5.01,6.03-14.27c0,0,5.63-9.04,1.81-14.87c0,0,5.67-9.04,1.33-15.07
		c0,0,6.91-13.46,0.68-18.09c0,0,6.03-8.64,4.22-13.26s-16.08,0-16.08,0L2454.8,5.64z"/>
	<path id="Path_5733" d="M2428.71,74.56c-2.29,0.12-4.56-0.43-6.55-1.57c-2.02-1.09-3.51-2.95-4.14-5.15
		c-0.29-1.65,0.13-3.34,1.14-4.67c1.23-1.78,3.12-2.99,5.25-3.37c-3.98,0.46-8-0.34-11.49-2.29c-2.31-1.18-3.96-3.35-4.48-5.89
		c-0.06-1.88,0.78-3.67,2.26-4.84c2.05-1.86,4.7-2.92,7.47-2.99c4.04-0.18,8.05-0.67,12.02-1.46c-1.4,0.09-2.64,0.13-3.69,0.16
		c-6.2,0.15-13.15-0.34-14.71-1.74c-1.73-2.33-2.07-5.4-0.89-8.05c0.83-2.01,3.22-5.32,9.85-4.95c1.9,0.08,3.8,0,5.69-0.24
		c-2.69-0.07-5.27-1.09-7.27-2.89c-4.36-4.62-2.22-8.26-0.55-10.01c1.76-1.8,4.12-2.88,6.62-3.05c9.73-1.32,19.3-3.55,28.61-6.67
		l1.25-17.08l0.64-0.21c2.46-0.77,4.97-1.36,7.52-1.77c5.56-0.85,8.86-0.05,9.8,2.36c1.68,4.3-2.3,11.09-3.82,13.44
		c5.01,4.92,0.36,15.63-0.85,18.19c3.53,5.64-0.16,13.08-1.32,15.14c3.07,5.54-0.75,13.03-1.86,14.95c1.46,3.25,1.12,7.04-0.91,9.97
		c-1.38,1.9-3.13,3.49-5.15,4.68c-0.18,0.11-0.37,0.24-0.43,0.28l0.04-0.04c-4.8,2.67-9.84,4.88-15.05,6.59
		c-4.81,1.84-9.88,2.9-15.03,3.15 M2449.63,51.14l0.86,1.81c-0.59,0.31-14.72,7.49-25.35,8.77c-1.75,0.2-3.33,1.14-4.33,2.58
		c-0.69,0.89-0.99,2.03-0.82,3.14c0.54,1.67,1.71,3.05,3.26,3.86c3.26,2.12,9.98,1.54,19.45-1.66c5.07-1.7,9.99-3.8,14.72-6.3
		c0.21-0.17,0.43-0.32,0.67-0.46c2.05-1.31,8.28-5.29,5.09-12.64l-0.21-0.48l0.28-0.45c0.05-0.09,5.24-8.57,1.82-13.78l-0.35-0.54
		l0.34-0.54c0.05-0.08,5.26-8.55,1.37-13.95l-0.36-0.5l0.28-0.55c0.07-0.13,6.45-12.76,0.98-16.82l-0.78-0.58l0.56-0.8
		c1.59-2.28,5.43-8.95,4.11-12.32c-0.97-2.48-8.66-1.31-14.19,0.39l-1.25,17.07l-0.63,0.21c-0.74,0.25-18.22,6.06-29.72,6.97
		c-2.01,0.12-3.91,0.99-5.33,2.43c-2.12,2.23-1.94,4.61,0.55,7.25c2.46,1.87,5.55,2.73,8.63,2.39c7.99-0.41,15.89-1.91,23.48-4.46
		l0.64,1.9c-0.84,0.29-19.93,6.72-31.3,6.72c-0.5,0-0.97,0-1.43-0.04c-4.06-0.22-6.79,1.07-7.89,3.72
		c-0.83,1.87-0.69,4.03,0.38,5.78c0.62,0.5,5.34,1.42,13.43,1.22c8.4-0.17,16.74-1.53,24.76-4.04l0.68,1.89
		c-0.18,0.07-18.38,6.92-33.76,7.47c-2.29,0.05-4.48,0.92-6.17,2.46c-1.01,0.76-1.61,1.94-1.63,3.2c0.11,1.4,1.32,2.87,3.59,4.38
		C2423.7,62.29,2449.38,51.25,2449.63,51.14 M2457.4,63.36l-0.04,0.04L2457.4,63.36"/>
	<path id="Path_5734" class="st4" d="M2326.45-241.78c0,0,11.1-3.47,15.67-1.21c4.57,2.26,7.31,7.54,5.09,11.75
		c-2.22,4.22-21.94,5.64-21.94,5.64L2326.45-241.78z"/>
	<path id="Path_5735" d="M2324.2-224.51l1.31-18.05l0.65-0.2c0.47-0.15,11.53-3.56,16.42-1.15c2.8,1.37,4.96,3.78,5.99,6.72
		c0.73,2.1,0.57,4.42-0.46,6.4c-0.4,0.75-1.62,3.08-12.53,4.93c-5.19,0.88-10.18,1.25-10.23,1.25L2324.2-224.51z M2327.41-241.02
		l-1.04,14.34c7.9-0.67,18.67-2.57,19.96-5.01c0.77-1.5,0.89-3.25,0.32-4.84c-0.86-2.43-2.65-4.42-4.97-5.54
		C2338.46-243.68,2330.83-242,2327.41-241.02"/>
	<path id="Path_5736" class="st4" d="M2278.52-241.78c0,0-11.1-3.47-15.67-1.21c-4.57,2.26-7.31,7.54-5.09,11.75
		c2.22,4.22,21.94,5.64,21.94,5.64L2278.52-241.78z"/>
	<path id="Path_5737" d="M2280.78-224.5l-1.16-0.08c-0.05,0-5.04-0.37-10.23-1.25c-10.91-1.85-12.12-4.17-12.53-4.93
		c-1.03-1.98-1.19-4.29-0.45-6.4c1.03-2.94,3.18-5.36,5.99-6.72c4.87-2.41,15.95,1,16.41,1.15l0.65,0.2L2280.78-224.5z
		 M2267.11-242.75c-1.3-0.06-2.61,0.16-3.81,0.66c-2.32,1.12-4.11,3.11-4.97,5.54c-0.56,1.59-0.45,3.34,0.32,4.84
		c1.29,2.45,12.07,4.35,19.96,5.01l-1.04-14.34c-3.4-1.01-6.91-1.59-10.46-1.73"/>
	<path id="Path_5738" class="st4" d="M2127.02-78.7c0-1.36,351.29-5.43,351.29-5.43s-7.23,64.66-7.69,63.29
		c-0.45-1.37-336.37,5.43-336.37,5.43L2127.02-78.7z"/>
	<path id="Path_5739" d="M2133.36-14.38l-7.34-64.32c0-1,0.94-1.07,1.94-1.14c0.66-0.05,1.66-0.1,2.97-0.15
		c2.51-0.1,6.27-0.22,11.17-0.34c9.11-0.23,22.5-0.5,39.8-0.8c29.14-0.5,69.77-1.11,120.76-1.8c86.82-1.17,174.77-2.19,175.65-2.2
		l1.14-0.02l-0.13,1.13c-0.02,0.16-1.79,16-3.61,31.64c-1.07,9.19-1.95,16.52-2.61,21.77c-0.39,3.12-0.71,5.55-0.95,7.2
		c-0.13,0.89-0.24,1.59-0.32,2.05c-0.13,0.72-0.25,1.46-1.07,1.54c-0.18,0.02-0.36-0.01-0.52-0.08
		c-7.74-0.86-222.66,3.21-335.95,5.49L2133.36-14.38z M2128.13-77.84l7.02,61.4c9.37-0.19,88.69-1.78,167.1-3.2
		c48.79-0.88,87.69-1.53,115.61-1.93c16.58-0.23,29.42-0.38,38.17-0.43c4.71-0.03,8.32-0.03,10.75,0c1.25,0,2.23,0.03,2.88,0.06
		h0.22c0.95-5.51,4.76-38.39,7.31-61.18c-116.44,1.35-333.42,4.12-349.05,5.26 M2469.67-20.53L2469.67-20.53"/>
	<path id="Path_5740" d="M2328.21-186.07c-11.09,10.12-28.19,16.81-50.09-2.02l2.69-13.74h44.61L2328.21-186.07z"/>
	<path id="Path_5741" class="st4" d="M2275.24-274.92c0,0-9.04,71.89-6.33,79.12c2.71,7.23,36.75,19.75,67.36,2.26
		c6.33-3.61-6.78-86.8-6.78-86.8L2275.24-274.92z"/>
	<path id="Path_5742" d="M2302.32-183.64c-7.66,0.04-15.27-1.22-22.5-3.74c-6.39-2.31-10.81-5.32-11.84-8.06
		c-0.44-1.17-1.78-4.74,2.09-42.73c1.9-18.67,4.16-36.69,4.19-36.87l0.1-0.79l55.99-5.6l0.15,0.94c0.03,0.21,3.31,21.05,5.76,42.09
		c1.45,12.36,2.33,22.37,2.63,29.74c0.52,12.74-0.78,15.24-2.12,16c-10.5,5.96-22.38,9.07-34.46,9.02 M2276.14-274
		c-2.56,20.5-8.41,72.18-6.29,77.85c0.65,1.75,4.2,4.55,10.64,6.87c7.02,2.44,14.4,3.67,21.83,3.63
		c11.73,0.04,23.26-2.98,33.46-8.77c0.17-0.1,1.63-1.31,1.11-14.18c-0.3-7.32-1.18-17.29-2.62-29.59
		c-2.16-18.46-4.95-36.78-5.61-41.07L2276.14-274z"/>
	<path id="Path_5743" class="st10" d="M2270.27-273.56c-0.6-1.5,1.5-18.69,9.95-26.52c8.44-7.83,43.99-24.19,53.35,22.15
		l-30.36-1.21L2270.27-273.56z"/>
	<path id="Path_5744" class="st11" d="M2263.95-261.2c-0.15-1.25,0.6-22.29,37.98-23.56c37.37-1.27,40.54,19.46,40.54,19.46
		c-11.73-7.47-25.36-11.42-39.26-11.38c-22.78,0.5-39.25,15.49-39.25,15.49"/>
	<path id="Path_5745" class="st12" d="M2293.23-247.8l-11.15,1.92c-2.21,0.43-4.36-1.01-4.8-3.22c-0.43-2.21,1.01-4.36,3.22-4.8
		c0.06-0.01,0.13-0.02,0.19-0.03l11.15-1.92c2.21-0.43,4.36,1.01,4.8,3.22c0.43,2.21-1.01,4.36-3.22,4.8
		C2293.36-247.82,2293.29-247.81,2293.23-247.8"/>
	<path id="Path_5746" class="st12" d="M2312.52-247.8l11.15,1.92c2.21,0.43,4.36-1.01,4.8-3.22c0.43-2.21-1.01-4.36-3.22-4.8
		c-0.06-0.01-0.13-0.02-0.19-0.03l-11.15-1.92c-2.21-0.43-4.36,1.01-4.8,3.22c-0.43,2.21,1.01,4.36,3.22,4.8
		C2312.39-247.82,2312.46-247.81,2312.52-247.8"/>
	<path id="Path_5747" class="st12" d="M2290.66-241.66c0,1.71-0.94,3.09-2.11,3.09s-2.11-1.38-2.11-3.09s0.94-3.09,2.11-3.09
		S2290.66-243.37,2290.66-241.66"/>
	<path id="Path_5748" class="st12" d="M2319.31-241.66c0,1.71-0.94,3.09-2.11,3.09s-2.11-1.38-2.11-3.09s0.94-3.09,2.11-3.09
		S2319.31-243.37,2319.31-241.66"/>
	<path id="Path_5749" class="st13" d="M2301.06-247.04c0,0-4.61,13.82-3.68,16.06s8.29,1.84,9.34,0c0,0-7.11,0.64-7.24-1.52
		S2301.06-247.04,2301.06-247.04"/>
	<path id="Path_5750" class="st13" d="M2289.09-223.48c0,0,19.74,0.65,26.98-2.11C2316.07-225.59,2307.25-200.32,2289.09-223.48"/>
	<path id="Path_5751" class="st4" d="M2428.37,14.56l-0.88,10.53c0,0-5.61-0.35-6.4-3.86S2423.81,14.46,2428.37,14.56"/>
	<path id="Path_5752" class="st4" d="M2419.94,30.61l-1.23,9.12c0,0-5.01,0.44-5.35-2.63c-0.13-3.46,2.57-6.37,6.03-6.5
		C2419.57,30.6,2419.76,30.6,2419.94,30.61"/>
	<path id="Path_5753" class="st4" d="M2418.02,47.02c0,0.35-0.44,9.83-0.44,9.83s-5.7-1.75-5.61-4.91
		C2412.05,48.77,2418.02,47.02,2418.02,47.02"/>
	<path id="Path_5754" class="st4" d="M2426.27,62.64c0,0.44,2,9.39,2,9.39s-5.18-0.09-6.05-3.42c-0.88-3.33,4.03-5.97,4.03-5.97"/>
	<path id="Path_5755" class="st4" d="M2179.06,21.05c0,0.4,0.79,9.74,0.79,9.74s6.71-0.53,6.84-4.08
		C2186.83,23.15,2179.06,21.05,2179.06,21.05"/>
	<path id="Path_5756" class="st4" d="M2186.69,37.37l1.18,8.43c0,0,4.74,0.53,5.26-1.84c0.41-3.22-1.88-6.16-5.1-6.57
		C2187.6,37.32,2187.14,37.32,2186.69,37.37"/>
	<path id="Path_5757" class="st4" d="M2187.88,53.69l-1.18,9.21c0,0,6.58,0.13,7.63-3.42C2195.38,55.93,2187.88,53.69,2187.88,53.69
		"/>
	<path id="Path_5758" class="st4" d="M2177.22,76.72c-0.63-0.25,3.69-7.63,3.69-7.63s4.48,0.92,4.08,3.82
		c-0.43,2.87-3.11,4.85-5.99,4.42C2178.37,77.23,2177.77,77.03,2177.22,76.72"/>
	<g id="Group_1614" transform="translate(2110.821 -181.478)" class="st14">
		<g id="Group_1613">
			<g>
				<defs>
					<rect id="SVGID_9_" x="37.42" y="160.48" width="308.63" height="5.1"/>
				</defs>
				<clipPath id="SVGID_10_">
					<use xlink:href="#SVGID_9_"  style="overflow:visible;"/>
				</clipPath>
				<g id="Group_1612" class="st15">
					<path id="Path_5759" d="M37.42,165.58l308.63-5.1l-0.19,2.48L37.42,165.58z"/>
				</g>
			</g>
		</g>
	</g>
</g>
</svg>
