<?xml version="1.0" encoding="utf-8"?>
<!-- Generator: Adobe Illustrator 24.0.1, SVG Export Plug-In . SVG Version: 6.00 Build 0)  -->
<svg version="1.1" id="Layer_1" xmlns="http://www.w3.org/2000/svg" xmlns:xlink="http://www.w3.org/1999/xlink" x="0px" y="0px"
	 viewBox="0 0 500 500" style="enable-background:new 0 0 500 500;" xml:space="preserve">
<style type="text/css">
	.st0{opacity:0.12;fill:url(#XMLID_3_);}
	.st1{fill:#FFB600;}
	.st2{fill:#001C39;}
	.st3{fill:#1B3149;}
	.st4{fill:#FDFFFD;}
	.st5{fill:#E3EDFF;}
	.st6{fill:#90A0B2;}
	.st7{fill:#FCFCFC;}
	.st8{font-family:'Baloo';}
	.st9{font-size:46.674px;}
	.st10{fill:#ECEEF0;}
	.st11{fill:#E6E6E6;}
	.st12{fill:#56CD93;}
	.st13{fill:#FF9593;}
	.st14{fill:#FF5151;}
	.st15{fill:#FF8080;}
	.st16{fill:#60E99C;}
	.st17{fill:#A3EFC2;}
</style>
<g>
	<linearGradient id="XMLID_3_" gradientUnits="userSpaceOnUse" x1="5.4827" y1="248.0692" x2="500" y2="248.0692">
		<stop  offset="0" style="stop-color:#90A0B2"/>
		<stop  offset="1" style="stop-color:#1B3149"/>
	</linearGradient>
	<path id="XMLID_74_" class="st0" d="M418.98,377.29c52.49-1.06,91.28-50.4,78.6-101.35c-0.21-0.84-0.43-1.69-0.67-2.53
		c-16.86-61.09-81.16-35.27-115.88-97.13c-34.71-61.86-171.51-96.65-227.42-14.87C97.72,243.19,16.18,228.95,6.96,287.14
		c-9.22,58.19,23.85,97.24,128.58,95.53C210.55,381.44,347.38,378.73,418.98,377.29z"/>
	<g id="XMLID_29_">
		<path id="XMLID_73_" class="st1" d="M478.99,322.45L478.99,322.45c-2.19,0-3.98-1.79-3.98-3.98v-7.51c0-2.19,1.79-3.98,3.98-3.98
			l0,0c2.19,0,3.98,1.79,3.98,3.98v7.51C482.96,320.66,481.17,322.45,478.99,322.45z"/>
		<g id="XMLID_55_">
			<path id="XMLID_72_" class="st2" d="M471.38,359.24H69.8c-2.93,0-5.32-2.4-5.32-5.32l0,0c0-2.93,2.4-5.32,5.32-5.32h401.57
				c2.93,0,5.32,2.4,5.32,5.32l0,0C476.7,356.85,474.3,359.24,471.38,359.24z"/>
			<polygon id="XMLID_71_" class="st2" points="478.64,308.98 68.63,300.2 68.63,355.55 478.64,355.55 			"/>
			<g id="XMLID_69_">
				<path id="XMLID_70_" class="st3" d="M307.49,182.09H68.63c-5,0-9.05,4.05-9.05,9.05v155.35c0,5,4.05,9.05,9.05,9.05h10.34
					c4.15,0,7.72-2.83,8.77-6.84c5.02-19.18,21.48-33.24,41.02-33.24c19.54,0,35.99,14.07,41.02,33.24
					c1.05,4.01,4.62,6.84,8.77,6.84h128.95c5,0,9.05-4.05,9.05-9.05V191.14C316.55,186.14,312.49,182.09,307.49,182.09z"/>
			</g>
			<path id="XMLID_67_" class="st4" d="M321.13,202.21h61.08c3.69,0,7.1,1.96,8.96,5.15l33.43,57.24c0.71,1.21,1.65,2.26,2.77,3.1
				l47.08,35c2.63,1.96,4.19,5.05,4.19,8.33v27.6h-19.22c0,0-11.25-24.38-42.19-24.38c-30.94,0-42.66,29.15-44.53,41.3h-51.57
				V202.21z"/>
			<path id="XMLID_66_" class="st5" d="M379.51,213.05h-42.45c-1.73,0-3.14,1.41-3.14,3.14v49.49c0,1.73,1.41,3.14,3.14,3.14h69.51
				c2.39,0,3.9-2.55,2.76-4.65l-27.05-49.49C381.71,213.67,380.65,213.05,379.51,213.05z"/>
			<rect id="XMLID_65_" x="70.59" y="195.87" class="st6" width="232.74" height="104.33"/>
			<text id="XMLID_64_" transform="matrix(1 -2.139995e-03 2.139995e-03 1 90.4143 260.2443)" class="st7 st8 st9">DELIVERY</text>
			<path id="XMLID_63_" class="st10" d="M478.64,308.98H321.13v46.56h51.57c0,0,8.02-41.3,44.53-41.3c0,0,28.53-1.47,42.19,24.38
				h19.22V308.98z"/>
			
				<ellipse id="XMLID_62_" transform="matrix(0.2269 -0.9739 0.9739 0.2269 -20.125 681.1215)" class="st2" cx="418.96" cy="353.24" rx="33.34" ry="33.34"/>
			
				<ellipse id="XMLID_61_" transform="matrix(0.7071 -0.7071 0.7071 0.7071 -211.7322 195.3077)" class="st2" cx="129.89" cy="353.24" rx="33.34" ry="33.34"/>
			<circle id="XMLID_60_" class="st11" cx="129.89" cy="353.24" r="19.4"/>
			<circle id="XMLID_59_" class="st11" cx="418.96" cy="353.24" r="19.4"/>
			<path id="XMLID_58_" class="st2" d="M485.49,359.24h-17.57c-2.65,0-4.82-2.17-4.82-4.82v-18.62c0-2.65,2.17-4.82,4.82-4.82h17.57
				c2.65,0,4.82,2.17,4.82,4.82v18.62C490.31,357.07,488.14,359.24,485.49,359.24z"/>
			<path id="XMLID_57_" class="st2" d="M73.26,359.24H55.69c-2.65,0-4.82-2.17-4.82-4.82v-18.62c0-2.65,2.17-4.82,4.82-4.82h17.57
				c2.65,0,4.82,2.17,4.82,4.82v18.62C78.09,357.07,75.92,359.24,73.26,359.24z"/>
			<path id="XMLID_56_" class="st3" d="M406.33,282.54L406.33,282.54c-3.54,0-6.44-2.9-6.44-6.44V257.7c0-3.54,2.9-6.44,6.44-6.44
				l0,0c3.54,0,6.44,2.9,6.44,6.44v18.41C412.77,279.64,409.87,282.54,406.33,282.54z"/>
		</g>
		<path id="XMLID_54_" class="st12" d="M367.93,222.04c0,0,1.55,2.94,5.29,0.31c3.74-2.63,7.84,1.39,5,4.12
			c-2.84,2.72-5.87,3.74-9.67-0.08c0,0-14.45,6.95-13.93,3.06S362.6,222.49,367.93,222.04z"/>
		<g id="XMLID_38_">
			<path id="XMLID_53_" class="st13" d="M358.86,256.45l1-13.06c0,0-1.77,2.06-3.2-1.38c-1.43-3.43,1.2-8.82,4.1-5.33
				c0,0,1.87-6.27,5.92-7.49c8.66-2.6,12.08,9.86,9.12,14.41c-2.96,4.56-7.09,4.04-7.09,4.04l2.87,7.81L358.86,256.45z"/>
			<path id="XMLID_52_" class="st14" d="M370.99,232.38c0,0,2.73,6.02,2.39,6.34c-0.35,0.32-3.52,0.76-3.52,0.76L370.99,232.38z"/>
			<path id="XMLID_51_" class="st15" d="M359.96,237.74c-0.06-0.31-0.28-0.56-0.56-0.7c-0.48-0.25-1.36-0.44-2.08,0.78
				c-1.06,1.78-0.06,3.43,0.6,3.9s1.78-0.75,1.3-1.6c-0.48-0.85-0.46-1.7,0.34-1.83C359.96,238.23,360.01,237.98,359.96,237.74z"/>
			<path id="XMLID_50_" class="st2" d="M366.05,234.48c0,0-1.18-1.06,0.11-1.69c1.29-0.62,2.82-1.2,3.32-0.66
				C369.97,232.67,366.53,235.27,366.05,234.48z"/>
			<path id="XMLID_49_" class="st2" d="M374.97,231.52c0,0,0.58,1.48-0.64,1.4c-1.22-0.09-2.62-0.33-2.83-1.02
				C371.29,231.2,374.85,230.62,374.97,231.52z"/>
			<path id="XMLID_47_" class="st2" d="M372.42,228.33c0,0,0.85-0.37,1.29,0.74c0.43,1.11-1.91,2.43-3.34,1.35
				c0,0-1.64,1.78-3.15,0.59c0,0-1.41,2.54-2.91,1.32c0,0,0.03,2.64-2.02,3.02c0,0,0.47,2.07-1.29,2.57l-0.24-1.24
				c0,0-1.61-1.61-2.54-0.92c-0.93,0.69-1.5,1.69-1.5,1.69s-0.91-2.53-0.03-3.83c0.88-1.31,2.79-1.32,3.16-0.65
				c0,0,3.83-4.46,6.06-5.24C368.15,226.95,371,225.59,372.42,228.33z"/>
			<path id="XMLID_46_" class="st2" d="M371.57,230.09c0.74,0.73,1.94,0.72,2.67-0.02c0.73-0.74,0.72-1.94-0.02-2.67
				c-0.74-0.73-1.94-0.72-2.67,0.02C370.82,228.16,370.83,229.35,371.57,230.09z"/>
			<path id="XMLID_45_" class="st2" d="M370.62,230.53c0.74,0.73,1.94,0.72,2.67-0.02c0.73-0.74,0.72-1.94-0.02-2.67
				c-0.74-0.73-1.94-0.72-2.67,0.02C369.87,228.6,369.88,229.8,370.62,230.53z"/>
			<path id="XMLID_44_" class="st2" d="M364.25,232.2c0.59,0.58,1.53,0.57,2.1-0.02c0.58-0.59,0.57-1.53-0.02-2.1
				c-0.59-0.58-1.53-0.57-2.1,0.02S363.66,231.63,364.25,232.2z"/>
			<path id="XMLID_43_" class="st2" d="M367.92,230.58c0.59,0.58,1.53,0.57,2.1-0.02c0.58-0.59,0.57-1.53-0.02-2.1
				c-0.59-0.58-1.53-0.57-2.1,0.02C367.33,229.07,367.34,230.01,367.92,230.58z"/>
			<path id="XMLID_42_" class="st7" d="M376.98,239.59c0,0,0.69,8.03-8.11,8.48l-9.01-4.68l3.67,0.97l-0.31-6.29l-2.4-1.05
				l-0.06-0.34c0,0,9.51,3.72,15.98,1.05L376.98,239.59z"/>
			<path id="XMLID_41_" class="st2" d="M367.8,235.04c0.05,0.45,0.3,0.79,0.56,0.76c0.26-0.03,0.42-0.42,0.37-0.87
				c-0.05-0.45-0.3-0.79-0.56-0.76C367.91,234.2,367.75,234.59,367.8,235.04z"/>
			<path id="XMLID_40_" class="st2" d="M372.69,234.09c0.05,0.45,0.3,0.79,0.56,0.76c0.26-0.03,0.42-0.42,0.37-0.87
				c-0.05-0.45-0.3-0.79-0.56-0.76C372.81,233.25,372.64,233.64,372.69,234.09z"/>
			<path id="XMLID_39_" class="st2" d="M371.95,227.29c0,0,0.53-4.29-3.52-4.07c-4.06,0.22-3.98,3.47-3.98,3.47s-3.68-2.52-7,0
				c-3.32,2.52-0.74,6.92-0.74,6.92l3.16,0.42l4.44-4.85L371.95,227.29z"/>
		</g>
		<path id="XMLID_37_" class="st2" d="M355.69,268.82h-18.12V246.7c0-4.98,4.08-9.06,9.06-9.06l0,0c4.98,0,9.06,4.08,9.06,9.06
			v12.66V268.82z"/>
		<path id="XMLID_36_" class="st12" d="M372.54,253.87c-1.18-2.41-3.74-3.98-6.4-3.61c-0.23,0.03-0.45,0.07-0.68,0.13
			c-4.01,1-9.78,3.05-9.78,6.6c0,5.45,0,11.82,0,11.82h24.2L372.54,253.87z"/>
		<path id="XMLID_35_" class="st16" d="M370.03,268.82c0,0-10.94-11.57-7.23-15.74c3.71-4.17,6.45-3.9,10.7,2.03
			s16.09,13.71,16.09,13.71H370.03z"/>
		<g id="XMLID_34_">
			<path class="st17" d="M380.92,268.95c-10.17-4.79-14.46-16.13-14.5-16.24l0.27-0.1c0.04,0.11,4.29,11.34,14.36,16.08
				L380.92,268.95z"/>
		</g>
		<path id="XMLID_33_" class="st16" d="M354.41,229.84c0,0-1.61-6.44,1.11-9.21c2.72-2.77,10.01-2.96,11.99-2.56
			c1.98,0.4,2.66,5.37,2.66,5.37S358.97,226.15,354.41,229.84z"/>
		<g id="XMLID_32_">
			<path class="st17" d="M366.29,224.73c-0.86-3.77-5.4-6.28-5.45-6.3l0.14-0.25c0.19,0.1,4.7,2.59,5.59,6.49L366.29,224.73z"/>
		</g>
		<g id="XMLID_31_">
			<path class="st17" d="M357.91,227.71c-1.48-5.5,2.51-9.4,2.55-9.44l0.2,0.2c-0.04,0.04-3.91,3.83-2.47,9.16L357.91,227.71z"/>
		</g>
		<path id="XMLID_30_" class="st7" d="M369.18,220.05c0,0-1.55,0.51-1.12,1.56c0.43,1.05,1.78,0.77,1.78,0.77
			S369.51,220.75,369.18,220.05z"/>
	</g>
	<path id="XMLID_28_" class="st6" d="M227.13,156.16h51.77c0,0,1.73-17.36-10.74-21.05c-12.46-3.69-15.11,3.6-15.11,3.6
		s-2.72-14.95-20.17-13.52c-17.45,1.44-17.45,17.54-17.45,17.54s-14.96-2.11-16.87,13.42H227.13z"/>
	<path id="XMLID_27_" class="st6" d="M17.45,270.22h31.62c0,0,1.05-10.6-6.56-12.85c-7.61-2.25-9.23,2.2-9.23,2.2
		s-1.66-9.13-12.32-8.25c-10.66,0.88-10.66,10.71-10.66,10.71s-9.13-1.29-10.3,8.2H17.45z"/>
	<path id="XMLID_26_" class="st6" d="M443.73,247.38h38.15c0,0,1.27-12.79-7.91-15.51c-9.18-2.72-11.13,2.65-11.13,2.65
		s-2.01-11.02-14.86-9.96c-12.86,1.06-12.86,12.93-12.86,12.93s-11.02-1.55-12.43,9.89H443.73z"/>
</g>
</svg>
