<?xml version="1.0" encoding="utf-8"?>
<!-- Generator: Adobe Illustrator 24.0.1, SVG Export Plug-In . SVG Version: 6.00 Build 0)  -->
<svg version="1.1" id="Layer_1" xmlns="http://www.w3.org/2000/svg" xmlns:xlink="http://www.w3.org/1999/xlink" x="0px" y="0px"
	 viewBox="0 0 500 500" style="enable-background:new 0 0 500 500;" xml:space="preserve">
<style type="text/css">
	.st0{opacity:0.12;fill:url(#SVGID_1_);}
	.st1{opacity:0.73;fill:#7FD6CB;}
	.st2{fill:#FFD277;}
	.st3{fill:#FFB44A;}
	.st4{fill:#FF7733;}
	.st5{fill:#00C8B7;}
	.st6{fill:#7A4C08;}
	.st7{fill:#FFFFFF;}
	.st8{fill:#E6E8E8;}
	.st9{opacity:0.12;fill:url(#SVGID_2_);}
	.st10{fill:#D9DBDB;}
	.st11{fill:#5BDB98;}
	.st12{fill:#4CB08A;}
</style>
<g>
	<g>
		<g>
			<linearGradient id="SVGID_1_" gradientUnits="userSpaceOnUse" x1="78.8035" y1="262.6097" x2="416.6224" y2="262.6097">
				<stop  offset="0" style="stop-color:#5BDB98"/>
				<stop  offset="1" style="stop-color:#60E99C"/>
			</linearGradient>
			<circle class="st0" cx="247.71" cy="262.61" r="168.91"/>
			<path class="st1" d="M385.67,303.21V360c-6.22,8.8-13.22,16.93-20.96,24.38v-81.17h-0.03v-0.19c-0.1-0.42-10.29-8.87-18.12-15.29
				v-3.55l9.48-2.45c3.9-1,8-0.68,11.64,0.9c1.64,0.71,3.35,1.39,5.06,1.93v7.42c7.84,6.42,12.8,10.61,12.9,11.03v0.19H385.67z"/>
		</g>
		<g>
			<g>
				<polygon class="st2" points="7.31,45.9 56.88,162.2 93.11,137.41 114.1,167.92 117.89,116.46 161.74,89.74 				"/>
				<polygon class="st3" points="101.14,131.91 56.88,162.2 93.11,137.41 114.1,167.92 117.89,116.46 48.03,74.85 				"/>
				<polygon class="st4" points="116.96,129.07 48.03,74.85 117.89,116.46 				"/>
			</g>
			<g>
				<path class="st5" d="M114.99,182.42c-0.39-2.27-0.89-4.53-1.47-6.72l3.4-0.91c0.62,2.3,1.13,4.66,1.54,7.03L114.99,182.42z"/>
				<path class="st5" d="M73.95,261.42c-5.11-0.34-9.99-1.97-14.13-4.71l1.95-2.93c3.63,2.4,7.92,3.83,12.42,4.13L73.95,261.42z
					 M88.56,258.55l-1.55-3.16c3.66-1.8,7.2-4.59,10.53-8.29l2.62,2.35C96.53,253.49,92.63,256.55,88.56,258.55z M50.02,245.47
					c-1.99-4.02-3.03-8.44-3.03-12.78c0-0.36,0.01-0.71,0.02-1.07l0.04-0.76l3.51,0.26l-0.03,0.64c-0.01,0.32-0.02,0.63-0.02,0.93
					c0,3.81,0.92,7.69,2.67,11.23L50.02,245.47z M186.16,244.67l-0.02-3.52c4.58-0.02,9.3-0.21,14.02-0.56l0.26,3.51
					C195.62,244.45,190.82,244.64,186.16,244.67z M171.89,244.2l-2.25-0.17c-4.32-0.36-8.24-0.85-11.98-1.49l0.6-3.47
					c3.64,0.63,7.45,1.1,11.67,1.46l2.2,0.17L171.89,244.2z M214.59,242.6l-0.47-3.49c4.53-0.62,9.19-1.39,13.86-2.29l0.67,3.45
					C223.91,241.2,219.18,241.98,214.59,242.6z M143.68,239.05c-4.14-1.41-8.01-3.13-11.52-5.11c-0.55-0.31-1.1-0.63-1.65-0.96
					l1.82-3.01c0.51,0.31,1.03,0.61,1.55,0.91c3.33,1.88,7,3.51,10.93,4.85L143.68,239.05z M108.56,237.65l-3.05-1.75
					c2.28-3.97,4.23-8.19,5.8-12.55l3.31,1.19C112.98,229.09,110.94,233.5,108.56,237.65z M242.55,237.26l-0.83-3.42
					c4.4-1.07,8.98-2.28,13.61-3.6l0.97,3.38C251.63,234.95,247,236.18,242.55,237.26z M269.89,229.46l-1.09-3.35
					c4.47-1.45,8.92-2.97,13.35-4.54l1.18,3.32C278.88,226.48,274.4,228.01,269.89,229.46z M118.76,224.83
					c-3.24-2.36-6.71-4.83-10.48-6.89l-1.18-0.62l1.61-3.13c0.42,0.21,0.84,0.44,1.25,0.66c3.95,2.16,7.68,4.81,10.86,7.13
					L118.76,224.83z M55.5,219.54l-2.46-2.52c3.1-3.03,7.33-5.31,12.95-6.95l1.18,3.32C61.99,214.91,58.13,216.95,55.5,219.54z
					 M94.26,212.67c-4-0.9-8.1-1.35-12.2-1.35l-1.43,0.02l-0.09-3.52c4.84-0.12,9.73,0.35,14.48,1.42L94.26,212.67z M118.34,210.59
					l-3.46-0.62c0.81-4.55,1.22-9.18,1.25-13.78l3.52,0.02C119.62,201.01,119.18,205.85,118.34,210.59z"/>
				<path class="st5" d="M296.8,219.93l-1.25-3.29c2.19-0.84,4.38-1.68,6.56-2.53l1.28,3.28
					C301.2,218.24,299.01,219.09,296.8,219.93z"/>
			</g>
			<path class="st5" d="M407.57,305.69c-1.79,0-3.32-1.36-3.5-3.18c-0.19-1.93,1.23-3.65,3.16-3.84
				c21.26-2.06,40.83-12.21,55.08-28.58c1.28-1.47,3.5-1.62,4.96-0.34c1.47,1.27,1.62,3.5,0.34,4.96
				c-15.44,17.73-36.65,28.73-59.71,30.96C407.8,305.68,407.68,305.69,407.57,305.69z"/>
			<g>
				<g>
					<path class="st6" d="M364.69,303.21L242.11,375.5l-122.58-72.29c0-0.06,0-0.14,0.02-0.2c0.1-0.46,6.87-6.11,17.18-14.49
						c0.1-0.08,0.18-0.16,0.28-0.24c33.85-27.48,105.1-83.76,105.1-83.76s71.25,56.28,105.1,83.76
						c10.48,8.5,17.36,14.25,17.46,14.73C364.69,303.07,364.69,303.15,364.69,303.21z"/>
					<g>
						<path class="st7" d="M292.52,144.66H160.27c-11.34,0-20.54,9.2-20.54,20.54v199.97c0,11.34,9.2,20.54,20.54,20.54h165.72
							c11.34,0,20.54-9.2,20.54-20.54v-166.5L292.52,144.66z"/>
						<path class="st8" d="M292.52,178.12c0,11.34,9.2,20.54,20.54,20.54h33.47l-54.01-54.01V178.12z"/>
						<linearGradient id="SVGID_2_" gradientUnits="userSpaceOnUse" x1="171.0083" y1="208.5919" x2="231.2702" y2="208.5919">
							<stop  offset="0" style="stop-color:#5BDB98"/>
							<stop  offset="1" style="stop-color:#60E99C"/>
						</linearGradient>
						<path class="st9" d="M228.57,178.46h-54.87c-1.49,0-2.7,1.21-2.7,2.7v54.87c0,1.49,1.21,2.7,2.7,2.7h54.87
							c1.49,0,2.7-1.21,2.7-2.7v-54.87C231.27,179.67,230.06,178.46,228.57,178.46z"/>
						<path class="st10" d="M286.46,255.47H176.98c-3.26,0-5.9,2.64-5.9,5.9l0,0c0,3.26,2.64,5.9,5.9,5.9h109.48
							c3.26,0,5.9-2.64,5.9-5.9l0,0C292.35,258.11,289.72,255.47,286.46,255.47z"/>
						<path class="st10" d="M286.46,284.84H176.98c-3.26,0-5.9,2.64-5.9,5.9l0,0c0,3.26,2.64,5.9,5.9,5.9h109.48
							c3.26,0,5.9-2.64,5.9-5.9l0,0C292.35,287.48,289.72,284.84,286.46,284.84z"/>
						<path class="st10" d="M236.74,313.33h-59.76c-3.26,0-5.9,2.64-5.9,5.9l0,0c0,3.26,2.64,5.9,5.9,5.9h59.76
							c3.26,0,5.9-2.64,5.9-5.9l0,0C242.63,315.96,239.99,313.33,236.74,313.33z"/>
					</g>
					<g>
						<path class="st2" d="M364.7,303.21v117.6c0,8.22-6.72,14.94-14.94,14.94H134.44c-8.22,0-14.9-6.72-14.9-14.94v-117.6
							l122.58,72.27L364.7,303.21z"/>
						<path class="st3" d="M360.56,431.07l-78.9-78.9l-39.54,23.31l-39.56-23.32l-78.9,78.9c2.72,2.87,6.53,4.68,10.78,4.68h215.32
							C354.01,435.75,357.83,433.93,360.56,431.07z"/>
					</g>
				</g>
			</g>
			<g>
				<g>
					<path class="st11" d="M389.46,141.78c-35.29,3.46-63.48,32.55-66,67.91c-1.26,17.6,3.73,33.95,12.92,47.18
						c3.46,4.98,4.03,11.42,1.7,17.02l-5.82,14.01l23.79-6.17c3.88-1,7.97-0.69,11.65,0.9c11.03,4.78,23.44,6.96,36.5,5.7
						c34.63-3.35,62.66-31.32,66-65.96C474.68,175.91,435.94,137.21,389.46,141.78z"/>
					<g>
						<path class="st7" d="M398.73,252.26l4.05-4.05c0,0-3.21-7.58,10.26-20.35c8.02-7.6,9.82-14.97,9.16-20.99
							c-1.04-9.58-8.86-17.41-18.45-18.45c-6.02-0.65-13.38,1.14-20.99,9.16c-12.78,13.48-20.35,10.26-20.35,10.26l-4.05,4.05
							L398.73,252.26z"/>
						<path class="st7" d="M367.5,227.54c-3.2,4.37-2.84,10.53,1.11,14.48c3.95,3.95,10.11,4.31,14.48,1.11L367.5,227.54z"/>
						<path class="st7" d="M425.03,193.34l-2.52,2.52c-1.96-3.12-4.63-5.78-7.77-7.73l2.54-2.54c2.15-2.15,5.62-2.15,7.77,0
							C427.18,187.72,427.18,191.19,425.03,193.34z"/>
					</g>
				</g>
				<path class="st12" d="M394.92,141.46c26.23,7.85,45.36,32.15,45.36,60.93c0,35.14-28.49,63.63-63.62,63.63
					c-18.51,0-35.12-7.95-46.75-20.57c1.83,4.01,3.98,7.84,6.47,11.42c3.46,4.98,4.03,11.42,1.7,17.02l-5.82,14.01l23.79-6.17
					c3.88-1,7.97-0.69,11.65,0.9c11.03,4.78,23.44,6.96,36.5,5.7c34.63-3.35,62.66-31.32,66-65.96
					C474.5,177.74,438.93,140.31,394.92,141.46z"/>
			</g>
			<path class="st2" d="M11.52,80.38l16.08,36.89c0.82,1.88-0.05,4.07-1.93,4.88l-0.57,0.25c-1.89,0.82-4.09-0.07-4.89-1.96
				L4.7,83.3c-0.82-1.95,0.15-4.18,2.13-4.92l0,0C8.68,77.7,10.73,78.58,11.52,80.38z"/>
		</g>
	</g>
	<g>
		<path class="st11" d="M74.5,340.02c-6.53,0-11.82,5.29-11.82,11.82c0,6.53,5.29,11.82,11.82,11.82s11.82-5.29,11.82-11.82
			C86.32,345.31,81.03,340.02,74.5,340.02z M74.5,356.63c-2.64,0-4.78-2.14-4.78-4.78c0-2.64,2.14-4.78,4.78-4.78
			c2.64,0,4.78,2.14,4.78,4.78C79.28,354.48,77.14,356.63,74.5,356.63z"/>
		<path class="st11" d="M391.25,387.85c-6.53,0-11.82,5.29-11.82,11.82c0,6.53,5.29,11.82,11.82,11.82
			c6.53,0,11.82-5.29,11.82-11.82C403.07,393.15,397.78,387.85,391.25,387.85z M391.25,404.46c-2.64,0-4.78-2.14-4.78-4.78
			c0-2.64,2.14-4.78,4.78-4.78c2.64,0,4.78,2.14,4.78,4.78C396.04,402.32,393.89,404.46,391.25,404.46z"/>
		<path class="st11" d="M487.96,204.26c-5,0-9.05,4.05-9.05,9.05c0,5,4.05,9.05,9.05,9.05c5,0,9.05-4.05,9.05-9.05
			C497.01,208.31,492.96,204.26,487.96,204.26z M487.96,216.98c-2.02,0-3.66-1.64-3.66-3.66c0-2.02,1.64-3.66,3.66-3.66
			s3.66,1.64,3.66,3.66C491.62,215.34,489.98,216.98,487.96,216.98z"/>
		<path class="st11" d="M328.59,59.48c-5.28,0-9.57,4.28-9.57,9.57c0,5.28,4.28,9.57,9.57,9.57c5.28,0,9.57-4.28,9.57-9.57
			C338.16,63.77,333.88,59.48,328.59,59.48z M328.59,72.93c-2.14,0-3.87-1.73-3.87-3.87c0-2.14,1.73-3.87,3.87-3.87
			c2.14,0,3.87,1.73,3.87,3.87C332.47,71.19,330.73,72.93,328.59,72.93z"/>
		<path class="st11" d="M22.5,282.45c-5.56,0-10.06,4.5-10.06,10.06c0,5.56,4.5,10.06,10.06,10.06c5.56,0,10.06-4.5,10.06-10.06
			C32.56,286.95,28.06,282.45,22.5,282.45z"/>
		<path class="st11" d="M426.15,315.75c-4.04,0-7.32,3.28-7.32,7.32s3.28,7.32,7.32,7.32c4.04,0,7.32-3.28,7.32-7.32
			S430.19,315.75,426.15,315.75z"/>
		<path class="st11" d="M183.82,62.49c-5.91,0-10.69,4.79-10.69,10.69c0,5.91,4.79,10.69,10.69,10.69c5.91,0,10.69-4.79,10.69-10.69
			C194.52,67.28,189.73,62.49,183.82,62.49z"/>
		<path class="st11" d="M241.08,449.9c-4.3,0-7.79,3.49-7.79,7.79c0,4.3,3.49,7.79,7.79,7.79c4.3,0,7.79-3.49,7.79-7.79
			C248.87,453.39,245.38,449.9,241.08,449.9z"/>
		<path class="st11" d="M391.93,103.74c-5.05,0-9.15,4.1-9.15,9.15c0,5.05,4.09,9.15,9.15,9.15c5.05,0,9.15-4.1,9.15-9.15
			C401.08,107.84,396.99,103.74,391.93,103.74z"/>
		<circle class="st11" cx="67.94" cy="180.06" r="5.21"/>
		<path class="st11" d="M491.12,158.65c-4.91,0-8.88,3.98-8.88,8.88c0,4.91,3.98,8.88,8.88,8.88c4.91,0,8.88-3.98,8.88-8.88
			C500,162.62,496.02,158.65,491.12,158.65z"/>
		<circle class="st11" cx="17.51" cy="211.32" r="5.67"/>
		<path class="st11" d="M255.78,43.49l3.56-3.56c1.23-1.23,1.23-3.25,0-4.49c-1.23-1.23-3.25-1.23-4.49,0L251.29,39l-3.56-3.56
			c-1.23-1.23-3.25-1.23-4.49,0c-1.23,1.23-1.23,3.25,0,4.49l3.56,3.56l-3.56,3.56c-1.23,1.23-1.23,3.25,0,4.49
			c1.23,1.23,3.25,1.23,4.49,0l3.56-3.56l3.56,3.56c1.23,1.23,3.25,1.23,4.49,0c1.23-1.23,1.23-3.25,0-4.49L255.78,43.49z"/>
		<path class="st11" d="M13.46,151.06l3.56-3.56c1.23-1.23,1.23-3.25,0-4.49c-1.23-1.23-3.25-1.23-4.49,0l-3.56,3.56l-3.56-3.56
			c-1.23-1.23-3.25-1.23-4.49,0c-1.23,1.23-1.23,3.25,0,4.49l3.56,3.56l-3.56,3.56c-1.23,1.23-1.23,3.25,0,4.49
			c1.23,1.23,3.25,1.23,4.49,0l3.56-3.56l3.56,3.56c1.23,1.23,3.25,1.23,4.49,0c1.23-1.23,1.23-3.25,0-4.49L13.46,151.06z"/>
		<path class="st11" d="M433.31,368.43l3.01-3.01c1.05-1.05,1.05-2.76,0-3.8c-1.05-1.05-2.76-1.05-3.8,0l-3.01,3.01l-3.01-3.01
			c-1.05-1.05-2.76-1.05-3.8,0c-1.05,1.05-1.05,2.76,0,3.8l3.01,3.01l-3.01,3.01c-1.05,1.05-1.05,2.76,0,3.8
			c1.05,1.05,2.76,1.05,3.8,0l3.01-3.01l3.01,3.01c1.05,1.05,2.76,1.05,3.8,0c1.05-1.05,1.05-2.76,0-3.8L433.31,368.43z"/>
	</g>
</g>
</svg>
