<svg id="Group_905" data-name="Group 905" xmlns="http://www.w3.org/2000/svg" xmlns:xlink="http://www.w3.org/1999/xlink" width="56" height="56" viewBox="0 0 56 56">
  <defs>
    <clipPath id="clip-path">
      <rect id="Rectangle_2118" data-name="Rectangle 2118" width="56" height="56" fill="#f97a7a"/>
    </clipPath>
  </defs>
  <g id="Group_898" data-name="Group 898" clip-path="url(#clip-path)">
    <path id="Path_2395" data-name="Path 2395" d="M16,27.582a2.16,2.16,0,0,1-2.163-1.644L10.568,12.833a5.41,5.41,0,0,1,1.105-4.715,5.538,5.538,0,0,1,7.781-.869,5.7,5.7,0,0,1,.869.869,5.414,5.414,0,0,1,.995,4.736L18.161,25.938A2.162,2.162,0,0,1,16,27.582m0-17.3a1.172,1.172,0,0,0-.952.476,1.116,1.116,0,0,0-.216,1.038L16,16.509l1.168-4.715a1.123,1.123,0,0,0-.218-1.038A1.171,1.171,0,0,0,16,10.281" transform="translate(12.116 7.02)" fill="#f97a7a"/>
    <path id="Path_2396" data-name="Path 2396" d="M14.744,17A3.244,3.244,0,1,1,11.5,20.244,3.245,3.245,0,0,1,14.744,17" transform="translate(13.37 19.765)" fill="#f97a7a"/>
    <path id="Path_2397" data-name="Path 2397" d="M28.114,56.229A28.114,28.114,0,1,1,56.229,28.114,28.114,28.114,0,0,1,28.114,56.229m0-51.9A23.789,23.789,0,1,0,51.9,28.114,23.79,23.79,0,0,0,28.114,4.325" fill="#f97a7a"/>
  </g>
</svg>
