<?xml version="1.0" encoding="utf-8"?>
<!-- Generator: Adobe Illustrator 24.0.1, SVG Export Plug-In . SVG Version: 6.00 Build 0)  -->
<svg version="1.1" id="Layer_1" xmlns="http://www.w3.org/2000/svg" xmlns:xlink="http://www.w3.org/1999/xlink" x="0px" y="0px"
	 viewBox="0 0 300 300" style="enable-background:new 0 0 300 300;" xml:space="preserve">
<style type="text/css">
	.st0{fill:#1B3149;}
	.st1{fill:#FEC632;}
	.st2{fill:#FFDE39;}
	.st3{fill:#F9A74E;}
	.st4{fill:#FFFFFF;}
	.st5{fill:#60E99C;}
	.st6{opacity:0.36;fill:#1B3149;}
	.st7{fill:#473080;}
	.st8{fill:#56CD93;}
</style>
<g>
	<circle class="st0" cx="150" cy="150.02" r="150"/>
	<rect x="107.5" y="75.02" class="st1" width="85" height="60"/>
	<circle class="st2" cx="150" cy="180.02" r="83.75"/>
	<circle class="st1" cx="150" cy="180.02" r="68"/>
	<path class="st3" d="M84.25,184.52c0-37.5,30.5-68,68-68c25.75,0,48,14.25,59.5,35.25C201,128.52,177.5,112.02,150,112.02
		c-37.5,0-68,30.5-68,68c0,11.75,3,23,8.5,32.75C86.5,204.02,84.25,194.52,84.25,184.52z"/>
	<circle class="st2" cx="150" cy="180.02" r="56.5"/>
	<rect x="107.5" y="85.02" class="st3" width="85" height="7.5"/>
	<path class="st4" d="M150,200.52l17.25,9c2.5,1.25,5.5-0.75,5-3.75L169,186.52l14-13.5c2-2,1-5.5-2-6l-19.25-2.75l-8.5-17.5
		c-1.25-2.5-5-2.5-6.25,0l-8.5,17.5l-19.25,2.75c-2.75,0.5-4,4-2,6l14,13.5L128,205.77c-0.5,2.75,2.5,5,5,3.75L150,200.52z"/>
	<path class="st5" d="M81.25,16.52l31.25,61h75l-35.25-77.5C125.36-0.52,101.25,6.27,81.25,16.52z"/>
	<path class="st6" d="M144.71,0.06l-35.96,70.21l3.75,7.25H180l3.75-7.25l-31.5-70.25C151.37-0.01,147.03-0.06,144.71,0.06z"/>
	<path class="st2" d="M190.25,90.02h-80.5c-5.5,0-9.75-4.5-9.75-9.75v-0.25c0-5.5,4.5-9.75,9.75-9.75H190c5.5,0,9.75,4.5,9.75,9.75
		v0.25C200,85.52,195.5,90.02,190.25,90.02z"/>
	<path class="st7" d="M109.75,82.52c-1.25,0-2.25-1-2.25-2.25v-0.25c0-1.25,1-2.25,2.25-2.25H190c1.25,0,2.25,1,2.25,2.25v0.25
		c0,1.25-1,2.25-2.25,2.25H109.75z"/>
	<path class="st8" d="M112.5,77.52h75l31.25-61c-20-10.25-42.5-16.25-66.5-16.5L112.5,77.52z"/>
</g>
</svg>
