<?xml version="1.0" encoding="utf-8"?>
<!-- Generator: Adobe Illustrator 24.0.1, SVG Export Plug-In . SVG Version: 6.00 Build 0)  -->
<svg version="1.1" id="Layer_1" xmlns="http://www.w3.org/2000/svg" xmlns:xlink="http://www.w3.org/1999/xlink" x="0px" y="0px"
	 viewBox="0 0 300 300" style="enable-background:new 0 0 300 300;" xml:space="preserve">
<style type="text/css">
	.st0{fill:#3B5998;}
	.st1{fill:#FFFFFF;}
</style>
<g id="Group_387" transform="translate(-14136.74 3146.793)">
	<path id="Path_1298" class="st0" d="M14286.74-3146.79c82.84,0,150,67.16,150,150s-67.16,150-150,150c-82.84,0-150-67.16-150-150
		S14203.9-3146.79,14286.74-3146.79L14286.74-3146.79z"/>
	<path id="Path_1299" class="st1" d="M14305-3043.52h19.34v-28.49h-22.73v0.1c-27.54,0.98-33.2,16.45-33.67,32.7l0,0v14.26h-18.74
		v27.97h18.74v74.97h28.22v-74.97h23.14l4.48-27.97h-27.61v-8.62c-0.42-5.07,3.36-9.52,8.43-9.94
		C14304.74-3043.51,14304.87-3043.52,14305-3043.52z"/>
</g>
</svg>
