<?xml version="1.0" encoding="utf-8"?>
<!-- Generator: Adobe Illustrator 24.0.1, SVG Export Plug-In . SVG Version: 6.00 Build 0)  -->
<svg version="1.1" id="Layer_1" xmlns="http://www.w3.org/2000/svg" xmlns:xlink="http://www.w3.org/1999/xlink" x="0px" y="0px"
	 viewBox="0 0 300 300" style="enable-background:new 0 0 300 300;" xml:space="preserve">
<style type="text/css">
	.st0{fill:#56CD93;}
</style>
<g>
	<g>
		<g>
			<path class="st0" d="M290.63,187.5c-5.17,0-9.38,4.2-9.38,9.38v65.63H18.75V150h103.13c5.18,0,9.38-4.2,9.38-9.38
				c0-5.17-4.2-9.38-9.38-9.38H18.75v-37.5h103.13c5.18,0,9.38-4.2,9.38-9.38c0-5.18-4.2-9.38-9.38-9.38H18.75
				C8.4,75,0,83.4,0,93.75V262.5c0,10.35,8.4,18.75,18.75,18.75h262.5c10.35,0,18.75-8.4,18.75-18.75v-65.63
				C300,191.7,295.8,187.5,290.63,187.5z"/>
		</g>
	</g>
	<g>
		<g>
			<path class="st0" d="M84.38,187.5h-37.5c-5.17,0-9.38,4.2-9.38,9.38c0,5.18,4.2,9.38,9.38,9.38h37.5c5.18,0,9.38-4.2,9.38-9.38
				C93.75,191.7,89.55,187.5,84.38,187.5z"/>
		</g>
	</g>
	<g>
		<g>
			<path class="st0" d="M294.32,47.62L228.69,19.5c-2.38-0.99-5.02-0.99-7.41,0l-65.63,28.12c-3.43,1.48-5.66,4.88-5.66,8.63v37.5
				c0,51.58,19.07,81.73,70.33,111.26c1.44,0.82,3.06,1.24,4.67,1.24s3.22-0.41,4.67-1.24C280.93,175.55,300,145.4,300,93.75v-37.5
				C300,52.5,297.77,49.1,294.32,47.62z M281.25,93.75c0,43.29-14.33,67.12-56.25,92.25c-41.93-25.18-56.25-49.01-56.25-92.25V62.44
				L225,38.32l56.25,24.11V93.75z"/>
		</g>
	</g>
	<g>
		<g>
			<path class="st0" d="M258.99,77.04c-4.03-3.19-9.92-2.57-13.18,1.46l-29.47,36.86l-11.66-17.44c-2.91-4.31-8.74-5.46-12.99-2.61
				c-4.29,2.87-5.47,8.7-2.61,12.99l18.75,28.13c1.67,2.49,4.41,4.03,7.41,4.18c0.13,0,0.28,0,0.39,0c2.83,0,5.53-1.27,7.33-3.52
				l37.5-46.88C263.68,86.17,263.04,80.29,258.99,77.04z"/>
		</g>
	</g>
</g>
</svg>
