<?xml version="1.0" encoding="utf-8"?>
<!-- Generator: Adobe Illustrator 24.0.1, SVG Export Plug-In . SVG Version: 6.00 Build 0)  -->
<svg version="1.1" id="Layer_1" xmlns="http://www.w3.org/2000/svg" xmlns:xlink="http://www.w3.org/1999/xlink" x="0px" y="0px"
	 viewBox="0 0 300 300" style="enable-background:new 0 0 300 300;" xml:space="preserve">
<path d="M102.86,229.77h-14.5c-5.8,0-10.88-5.08-10.88-10.88v-10.88h36.26v10.88C113.74,224.7,108.66,229.77,102.86,229.77z
	 M222.52,218.9v-10.88h-36.26v10.88c0,5.8,5.08,10.88,10.88,10.88h14.5C217.45,229.77,222.52,224.7,222.52,218.9z M237.03,139.85
	v53.67H62.97v-53.67c0-7.25,5.08-13.05,11.6-14.5l6.53-1.45l4.35-31.91c2.18-12.33,13.78-21.76,28.28-21.76h72.52
	c13.78,0,26.11,9.43,27.56,21.76l5.08,32.64l6.53,1.45C231.95,127.52,237.03,133.32,237.03,139.85z M113.74,157.25
	c0-7.98-6.53-14.5-14.5-14.5s-14.5,6.53-14.5,14.5c0,7.98,6.53,14.5,14.5,14.5S113.74,165.23,113.74,157.25z M185.54,120.99h10.88
	l-3.63-25.38c0-1.45-2.9-3.63-6.53-3.63h-72.52c-3.63,0-6.53,2.18-6.53,3.63l-3.63,25.38h47.14c1.45-7.98,8.7-14.5,17.41-14.5
	S184.09,113.01,185.54,120.99z M215.27,157.25c0-7.98-6.53-14.5-14.5-14.5c-7.98,0-14.5,6.53-14.5,14.5c0,7.98,6.53,14.5,14.5,14.5
	C208.74,171.76,215.27,165.23,215.27,157.25z"/>
</svg>
