<?xml version="1.0" encoding="utf-8"?>
<!-- Generator: Adobe Illustrator 24.0.1, SVG Export Plug-In . SVG Version: 6.00 Build 0)  -->
<svg version="1.1" id="Layer_1" xmlns="http://www.w3.org/2000/svg" xmlns:xlink="http://www.w3.org/1999/xlink" x="0px" y="0px"
	 viewBox="0 0 300 300" style="enable-background:new 0 0 300 300;" xml:space="preserve">
<style type="text/css">
	.st0{fill:#5BDB98;}
</style>
<g>
	<path class="st0" d="M185.16,75.29c4.85,0,8.79-3.94,8.79-8.79c0-4.85,3.94-8.79,8.79-8.79s8.79,3.94,8.79,8.79
		c0,3.13-1.69,6.05-4.4,7.62c-8.13,4.7-13.18,13.45-13.18,22.83c0,4.85,3.94,8.79,8.79,8.79s8.79-3.94,8.79-8.79
		c0-3.13,1.69-6.05,4.4-7.62c8.13-4.7,13.18-13.45,13.18-22.83c0-14.54-11.83-26.37-26.37-26.37s-26.37,11.83-26.37,26.37
		C176.37,71.36,180.3,75.29,185.16,75.29z"/>
	<circle class="st0" cx="202.73" cy="128.03" r="8.79"/>
	<path class="st0" d="M291.21,4.98H114.84c-4.85,0-8.79,3.94-8.79,8.79v105.47H8.79c-4.85,0-8.79,3.94-8.79,8.79v158.2
		c0,4.85,3.94,8.79,8.79,8.79s8.79-3.94,8.79-8.79c0-4.85,3.94-8.79,8.79-8.79h158.79c4.85,0,8.79-3.94,8.79-8.79v-96.68h79.69
		c4.85,0,8.79,3.94,8.79,8.79c0,4.85,3.94,8.79,8.79,8.79s8.79-3.94,8.79-8.79V13.77C300,8.92,296.06,4.98,291.21,4.98z
		 M176.37,259.86h-150c-3.08,0-6.04,0.53-8.79,1.51V136.82h88.48v17.58H43.95c-4.85,0-8.79,3.94-8.79,8.79s3.94,8.79,8.79,8.79
		h132.42V259.86z M282.42,155.9c-2.75-0.97-5.71-1.51-8.79-1.51h-150V22.56h158.79V155.9z"/>
	<path class="st0" d="M150,224.71H43.95c-4.85,0-8.79,3.94-8.79,8.79s3.94,8.79,8.79,8.79H150c4.85,0,8.79-3.94,8.79-8.79
		S154.85,224.71,150,224.71z"/>
	<path class="st0" d="M35.16,198.34c0,4.85,3.94,8.79,8.79,8.79H150c4.85,0,8.79-3.94,8.79-8.79s-3.94-8.79-8.79-8.79H43.95
		C39.09,189.55,35.16,193.49,35.16,198.34z"/>
</g>
</svg>
