<?xml version="1.0" encoding="utf-8"?>
<!-- Generator: Adobe Illustrator 24.0.1, SVG Export Plug-In . SVG Version: 6.00 Build 0)  -->
<svg version="1.1" id="Layer_1" xmlns="http://www.w3.org/2000/svg" xmlns:xlink="http://www.w3.org/1999/xlink" x="0px" y="0px"
	 viewBox="0 0 300 300" style="enable-background:new 0 0 300 300;" xml:space="preserve">
<style type="text/css">
	.st0{fill-rule:evenodd;clip-rule:evenodd;fill:#3DE99F;}
	.st1{fill-rule:evenodd;clip-rule:evenodd;fill:#077BB2;}
	.st2{fill-rule:evenodd;clip-rule:evenodd;fill:#223349;}
	.st3{fill:#3DE99F;}
</style>
<g>
	<path class="st0" d="M137.67,217.25h-71.8c-8.35,0-16.44-2.09-23.77-6.07c-19.02-10.32-29.8-31.15-29.8-52.48
		c0-21.32,10.77-42.16,29.8-52.48c7.33-3.98,15.43-6.07,23.77-6.07c3.76,0,7.51,0.43,11.17,1.28c3.21,0.74,6.43-1.17,7.31-4.34
		c8.3-29.85,33.91-53.09,65.65-53.09c31.74,0,57.35,23.24,65.65,53.09c0.88,3.17,4.11,5.09,7.31,4.34
		c3.66-0.85,7.41-1.28,11.17-1.28c8.35,0,16.44,2.09,23.77,6.07c19.02,10.32,29.8,31.15,29.8,52.48c0,21.32-10.77,42.16-29.8,52.48
		c-7.33,3.98-15.43,6.07-23.77,6.07h-53.27h-8.49c-3.39,0-6.15,2.76-6.15,6.15c0,3.39,2.76,6.15,6.15,6.15h7.31h54.45
		c10.39,0,20.51-2.6,29.64-7.56c23-12.48,36.23-37.44,36.23-63.29c0-25.85-13.23-50.81-36.23-63.29
		c-9.13-4.95-19.24-7.56-29.64-7.56c-2.78,0-5.56,0.19-8.31,0.56C214.56,55.9,185.36,31.71,150,31.71
		c-35.36,0-64.56,24.19-75.82,56.71c-2.75-0.37-5.53-0.56-8.31-0.56c-10.39,0-20.5,2.6-29.64,7.56C13.23,107.89,0,132.86,0,158.7
		c0,25.85,13.23,50.81,36.23,63.29c9.13,4.95,19.24,7.56,29.64,7.56h67.7"/>
	<line class="st1" x1="137.8" y1="216.87" x2="137.67" y2="217.25"/>
	<g>
		<polygon class="st2" points="147.67,176.1 106.36,176.1 140.54,86.97 189.39,86.97 162.66,147.61 194.62,147.35 117.98,267.57 		
			"/>
		<path class="st3" d="M185.41,89.56l-25.32,57.43c-0.67,1.51,0.44,3.21,2.09,3.21c0.01,0,0.01,0,0.02,0l27.66-0.22l-63.15,99.06
			l23.47-72.31c0.52-1.59-0.67-3.22-2.34-3.22h-37.72l32.19-83.95H185.41 M140.59,84.37c-1.11,0-2.1,0.68-2.49,1.71l-32.81,85.57
			l-1.96,5.11c-0.36,0.93,0.33,1.93,1.32,1.93h5.48h33.98l-22.32,68.75l-5.53,17.04c-1.05,3.24,3.37,5.32,5.2,2.45l9.63-15.11
			l63.15-99.06l3.73-5.84c0.6-0.95-0.08-2.19-1.21-2.18l-6.93,0.06l-21.62,0.17c-0.73,0.01-1.23-0.75-0.93-1.42l24.43-55.43
			c0.78-1.76-0.51-3.75-2.44-3.75H140.59z"/>
	</g>
</g>
</svg>
