<?xml version="1.0" encoding="utf-8"?>
<!-- Generator: Adobe Illustrator 24.0.1, SVG Export Plug-In . SVG Version: 6.00 Build 0)  -->
<svg version="1.1" id="Layer_1" xmlns="http://www.w3.org/2000/svg" xmlns:xlink="http://www.w3.org/1999/xlink" x="0px" y="0px"
	 viewBox="0 0 300 300" style="enable-background:new 0 0 300 300;" xml:space="preserve">
<style type="text/css">
	.st0{fill:#FBBB00;}
	.st1{fill:#518EF8;}
	.st2{fill:#28B446;}
	.st3{fill:#F14336;}
</style>
<g id="Group_386" transform="translate(-14244.021 3255.487)">
	<path id="Path_1294" class="st0" d="M14310.51-3074.19l-10.44,38.98l-38.17,0.81c-23.44-43.65-23.85-96.05-1.1-140.07l0,0
		l33.98,6.23l14.8,33.78c-6.7,19.58-6.4,40.88,0.84,60.27H14310.51z"/>
	<path id="Path_1295" class="st1" d="M14541.37-3133.51c10.38,54.5-10.19,110.27-53.46,144.98l0,0l-42.76-2.19l-6.05-37.82
		c17.67-10.36,31.25-26.47,38.47-45.64h-80.2v-59.33h144.06L14541.37-3133.51z"/>
	<path id="Path_1296" class="st2" d="M14487.89-2988.52L14487.89-2988.52c-64.62,51.86-159.05,41.52-210.92-23.1
		c-5.71-7.12-10.77-14.75-15.09-22.78l48.61-39.78c17.3,46.12,68.72,69.49,114.85,52.18c4.74-1.78,9.32-3.96,13.69-6.51
		L14487.89-2988.52z"/>
	<path id="Path_1297" class="st3" d="M14489.75-3220.93l-48.6,39.78c-41.79-26.07-96.8-13.34-122.87,28.45
		c-3.58,5.74-6.49,11.86-8.69,18.25l-48.86-40l0,0c38.11-73.56,128.64-102.31,202.21-64.19c9.52,4.93,18.49,10.87,26.74,17.72
		L14489.75-3220.93z"/>
</g>
</svg>
