<svg id="Group_1498" data-name="Group 1498" xmlns="http://www.w3.org/2000/svg" xmlns:xlink="http://www.w3.org/1999/xlink" width="15.805" height="15.805" viewBox="0 0 15.805 15.805">
  <defs>
    <clipPath id="clip-path">
      <rect id="Rectangle_2552" data-name="Rectangle 2552" width="15.805" height="15.805" transform="translate(0 0)" fill="#5bdb98"/>
    </clipPath>
  </defs>
  <g id="Group_1497" data-name="Group 1497" transform="translate(0 0)" clip-path="url(#clip-path)">
    <path id="Path_6176" data-name="Path 6176" d="M7.9,0a7.9,7.9,0,1,0,7.9,7.9A7.909,7.909,0,0,0,7.9,0m0,14.488A6.585,6.585,0,1,1,14.488,7.9,6.588,6.588,0,0,1,7.9,14.488" transform="translate(0 0)" fill="#5bdb98"/>
    <path id="Path_6177" data-name="Path 6177" d="M28.645,15.7a2.632,2.632,0,0,0-3.056,1.725.649.649,0,0,0,.421.83.667.667,0,0,0,.83-.435,1.337,1.337,0,0,1,1.5-.843,1.319,1.319,0,0,1,.922,1.449,1.291,1.291,0,0,1-1.37,1.014.657.657,0,0,0-.738.659l-.013,2.055a.659.659,0,1,0,1.317,0l.013-1.436a2.562,2.562,0,0,0,.171-5.018" transform="translate(-20.176 -12.34)" fill="#5bdb98"/>
    <path id="Path_6178" data-name="Path 6178" d="M33.838,52.5h-.013a.678.678,0,0,0-.659.659v.145a.622.622,0,0,0,.645.606h.013a.7.7,0,0,0,.658-.685v-.105a.633.633,0,0,0-.645-.619" transform="translate(-26.185 -41.452)" fill="#5bdb98"/>
  </g>
</svg>
