<?xml version="1.0" encoding="utf-8"?>
<!-- Generator: Adobe Illustrator 24.0.1, SVG Export Plug-In . SVG Version: 6.00 Build 0)  -->
<svg version="1.1" id="Layer_1" xmlns="http://www.w3.org/2000/svg" xmlns:xlink="http://www.w3.org/1999/xlink" x="0px" y="0px"
	 viewBox="0 0 300 300" style="enable-background:new 0 0 300 300;" xml:space="preserve">
<path d="M133.39,73.23v93.37h78.03v-33.35h-44.69V73.23H133.39z M256.11,43.89c-58.59-58.52-153.5-58.52-212.09,0L33.35,55.06
	L0,21.71v94.88h94.37L56.36,78.57L67.53,67.4c45.81-45.35,119.71-44.97,165.06,0.84c45.35,45.81,44.97,119.71-0.84,165.06
	s-119.71,44.97-165.06-0.84c-17.48-17.66-28.87-40.44-32.51-65.02H0.83C9.72,243.1,73.89,300.1,150.07,300
	c82.88-0.07,150.01-67.32,149.93-150.2C299.97,110.08,284.18,71.99,256.11,43.89z"/>
</svg>
