<?xml version="1.0" encoding="utf-8"?>
<!-- Generator: Adobe Illustrator 24.0.1, SVG Export Plug-In . SVG Version: 6.00 Build 0)  -->
<svg version="1.1" id="Layer_1" xmlns="http://www.w3.org/2000/svg" xmlns:xlink="http://www.w3.org/1999/xlink" x="0px" y="0px"
	 viewBox="0 0 300 300" style="enable-background:new 0 0 300 300;" xml:space="preserve">
<style type="text/css">
	.st0{fill:#101820;}
</style>
<g>
	<path class="st0" d="M290.04,139.97c-2.09-0.01-4.12-0.68-5.81-1.9L149.68,42.02L15.14,138.07c-4.76,2.82-10.91,1.25-13.74-3.52
		c-2.48-4.19-1.59-9.56,2.11-12.72L143.86,21.57c3.48-2.48,8.15-2.48,11.63,0l140.36,100.26c4.49,3.25,5.49,9.51,2.24,14
		C296.22,138.41,293.23,139.95,290.04,139.97z"/>
	<path class="st0" d="M39.4,79.82c-5.54,0-10.03-4.49-10.03-10.03v-40.1c0-5.54,4.49-10.03,10.03-10.03h40.1
		c5.54,0,10.03,4.49,10.03,10.03S85.04,39.72,79.5,39.72H49.42v30.08C49.42,75.33,44.93,79.82,39.4,79.82z"/>
	<path class="st0" d="M239.91,280.33h-50.13c-5.54,0-10.03-4.49-10.03-10.03v-70.18H119.6v70.18c0,5.54-4.49,10.03-10.03,10.03
		H59.45c-16.61,0-30.08-13.47-30.08-30.08V150c0-5.54,4.49-10.03,10.03-10.03s10.03,4.49,10.03,10.03v100.26
		c0,5.54,4.49,10.03,10.03,10.03h40.1V190.1c0-5.54,4.49-10.03,10.03-10.03h80.21c5.54,0,10.03,4.49,10.03,10.03v70.18h40.1
		c5.54,0,10.03-4.49,10.03-10.03V150c0-5.54,4.49-10.03,10.03-10.03c5.54,0,10.03,4.49,10.03,10.03v100.26
		C269.99,266.87,256.52,280.33,239.91,280.33z"/>
</g>
</svg>
