<?xml version="1.0" encoding="utf-8"?>
<!-- Generator: Adobe Illustrator 24.0.1, SVG Export Plug-In . SVG Version: 6.00 Build 0)  -->
<svg version="1.1" id="Layer_1" xmlns="http://www.w3.org/2000/svg" xmlns:xlink="http://www.w3.org/1999/xlink" x="0px" y="0px"
	 viewBox="0 0 1000 1000" style="enable-background:new 0 0 1000 1000;" xml:space="preserve">
<style type="text/css">
	.st0{clip-path:url(#SVGID_2_);}
	.st1{fill:#FAFAFA;}
	.st2{fill:#FFEBD4;}
	.st3{fill:#FCFCFC;}
	.st4{fill:url(#SVGID_3_);}
	.st5{fill:#F5D9D0;}
	.st6{fill:#F5A48C;}
	.st7{fill:url(#SVGID_4_);}
	.st8{fill:url(#SVGID_5_);}
	.st9{fill:url(#SVGID_6_);}
	.st10{fill:url(#SVGID_7_);}
	.st11{opacity:0.38;fill:url(#SVGID_8_);}
	.st12{opacity:0.38;fill:url(#SVGID_9_);}
	.st13{opacity:0.38;fill:url(#SVGID_10_);}
	.st14{fill:url(#SVGID_11_);}
	.st15{fill:url(#SVGID_12_);}
	.st16{fill:url(#SVGID_13_);}
	.st17{fill:#3D8ED1;}
	.st18{fill:#B8B8B8;}
	.st19{opacity:0.18;fill:url(#SVGID_14_);}
	.st20{fill:url(#SVGID_15_);}
	.st21{fill:url(#SVGID_16_);}
	.st22{fill:url(#SVGID_17_);}
	.st23{fill:url(#SVGID_18_);}
	.st24{fill:url(#SVGID_19_);}
	.st25{fill:#51578F;}
	.st26{fill:url(#SVGID_20_);}
	.st27{fill:#454A7A;}
	.st28{fill:#51BE8F;}
	.st29{fill:#5BDB98;}
	.st30{fill:url(#SVGID_21_);}
	.st31{fill:url(#SVGID_22_);}
	.st32{fill:url(#SVGID_23_);}
	.st33{fill:url(#SVGID_24_);}
	.st34{fill:url(#SVGID_25_);}
	.st35{fill:url(#SVGID_26_);}
	.st36{fill:url(#SVGID_27_);}
	.st37{fill:url(#SVGID_28_);}
	.st38{fill:#CFD2E3;}
	.st39{fill:url(#SVGID_29_);}
	.st40{fill:url(#SVGID_30_);}
	.st41{fill:#F55C2C;}
	.st42{fill:url(#SVGID_31_);}
	.st43{fill:url(#SVGID_32_);}
	.st44{fill:url(#SVGID_33_);}
	.st45{fill:url(#SVGID_34_);}
	.st46{fill:url(#SVGID_35_);}
	.st47{fill:url(#SVGID_36_);}
	.st48{fill:url(#SVGID_37_);}
</style>
<g>
	<defs>
		<circle id="SVGID_1_" cx="500" cy="500" r="500"/>
	</defs>
	<clipPath id="SVGID_2_">
		<use xlink:href="#SVGID_1_"  style="overflow:visible;"/>
	</clipPath>
	<g class="st0">
		<rect x="-5.55" y="-8.3" class="st1" width="1457.89" height="1012.38"/>
		<polygon class="st2" points="1452.31,430.44 1452.31,996.38 -1.26,996.38 -1.26,559.33 18.87,559.33 18.87,448.95 77.6,448.95 
			77.6,505.18 134.63,505.18 157.18,531.43 180.08,531.43 180.08,395.39 232.74,395.39 232.74,430.44 277.43,430.44 277.43,498.11 
			337.47,498.11 337.47,413.21 384.86,413.21 384.86,448.92 409.49,448.92 430.82,424.11 455.09,424.11 455.09,341.79 
			522.93,341.79 522.93,463.96 592.29,463.96 592.29,493.4 619.17,493.4 619.17,448.95 721.64,448.95 721.64,498.11 760.84,498.11 
			760.84,430.44 820.62,430.44 820.62,531.43 824.12,531.43 824.12,395.39 876.8,395.39 876.8,430.44 921.47,430.44 921.47,498.11 
			981.5,498.11 981.5,413.21 1028.88,413.21 1028.88,448.92 1053.55,448.92 1074.88,424.11 1099.13,424.11 1099.13,341.79 
			1166.96,341.79 1166.96,463.96 1236.35,463.96 1236.35,493.4 1263.23,493.4 1263.23,448.95 1317.18,448.95 1317.18,498.11 
			1404.86,498.11 1404.86,430.44 		"/>
		<rect y="639.47" class="st3" width="1453.63" height="259"/>
		<linearGradient id="SVGID_3_" gradientUnits="userSpaceOnUse" x1="723.3631" y1="548.3746" x2="723.3631" y2="699.4517">
			<stop  offset="0" style="stop-color:#F9F2E8"/>
			<stop  offset="1" style="stop-color:#FFF7F5"/>
		</linearGradient>
		<polygon class="st4" points="-5.58,635.79 -5.58,511.77 84.96,511.77 84.96,562.33 144.86,562.33 163.14,580.61 361.89,580.61 
			392.81,549.69 455.23,549.69 455.23,497.77 509.82,497.77 509.82,567.78 610.35,567.78 649.08,529.04 773.39,529.04 
			773.39,594.32 828.62,594.32 855.5,567.44 923.52,567.44 942.77,586.69 1026.98,586.69 1026.98,514.34 1086.88,514.34 
			1086.88,538.22 1134.33,538.22 1134.33,487.58 1177.89,487.58 1177.89,564.11 1300.02,564.11 1311.44,575.53 1452.31,575.53 
			1452.31,635.79 		"/>
		<g>
			<g>
				<path class="st5" d="M1354.02,505.24c3.23-1.11,10.48-0.84,10.48-0.84c-1.51-1.09-4.12-1.18-6.55-0.96
					c6.54-3.18,12.07-6.78,12.07-6.78c-3.59-0.39-11.48,2.22-15.32,3.94c3.35-2.02,7.92-3.8,5.39-4.25c-3.34-0.6-7.99,4.68-9.2,5.97
					c3.9-9.91,6.22-20.21,6.22-20.21c-3.57,2.79-8.33,11.78-10.5,17c-0.67-4.2-2.12-9.46-5.23-11.01c0,0-0.97,2.52,1.36,9.51
					c0.56,1.68,1.08,3.24,1.56,4.57c-1.7-1.29-4.05-2.53-5.7-2.34c-3.33,0.39,1.22,0.99,2.59,2.1c0.23,0.19,0.47,0.39,0.72,0.6
					c-1.61-0.33-3.66-0.48-5.28,0.31c-3.16,1.54,4.97-0.05,6.8,0.88l0,0c0.35,0.25,0.72,0.47,1.08,0.65
					c-0.09,0.03-0.17,0.06-0.25,0.09c-4.24-0.5-11.86-1.13-17.82,2.15c-6.39,3.51,5.89,0.32,14.98-0.22
					c-3.07,1.21-6.54,3.25-8.19,6.54c0,0,4.26,0,7.95-2.91c1.2-0.94,2.45-1.72,3.61-2.35c0,0.03-0.01,0.05-0.01,0.08
					c-2.6,3.41-6.35,8.99-6.18,12.55c0,0,3.01-0.91,5.58-3.88c0.53-0.61,1.09-1.5,1.61-2.51c-0.51,4.1-0.62,9.12,0.98,12.86
					c3.21,7.51,3.52-4.93,3.88-7.39c0.17-1.15,0.36-5.66,0.08-9.36c0.05,0.17,0.1,0.34,0.15,0.51c-0.1,4.87,3.12,17.63,3.16,12.73
					c0.01-1.86-0.38-4.12-0.89-6.26c0.09,0.19,0.17,0.34,0.24,0.44c1.21,1.81,5.4,10.87,4.49,1.93c-0.29-2.91-1.18-5.5-2.24-7.69
					c4.43,3.17,8.15,8.29,8.64,7.64c0.58-0.78,0-3.11-1.94-6.41c-0.5-0.86-1.46-1.72-2.61-2.54c5.6,2.09,10.99,6.66,6.52,1.76
					c-0.9-0.99-1.93-1.75-3.03-2.34c3.8,0.45,6.64,0.72,6.64,0.72C1368.89,508.62,1360.34,506.54,1354.02,505.24z M1350.68,503.22
					c-0.08,0.06-0.15,0.12-0.23,0.18c0.07-0.17,0.14-0.34,0.21-0.52C1350.67,502.99,1350.67,503.1,1350.68,503.22z"/>
				<g>
					<path class="st5" d="M1350.31,635.79l-2.23-0.1c0.03-0.77,3.36-77.18,3.35-86.68c-0.01-9.47-3.23-39.73-3.26-40.04l2.22-0.24
						c0.13,1.25,3.26,30.69,3.27,40.27C1353.68,558.55,1350.35,635.01,1350.31,635.79z"/>
				</g>
			</g>
			<g>
				<path class="st5" d="M1101.04,474.92c3.98-1.36,12.91-1.03,12.91-1.03c-1.86-1.35-5.08-1.46-8.07-1.18
					c8.06-3.91,14.87-8.36,14.87-8.36c-4.43-0.48-14.15,2.74-18.87,4.86c4.13-2.49,9.76-4.68,6.65-5.24
					c-4.11-0.73-9.84,5.76-11.34,7.36c4.81-12.21,7.66-24.9,7.66-24.9c-4.4,3.44-10.27,14.52-12.94,20.95
					c-0.83-5.18-2.61-11.65-6.45-13.57c0,0-1.2,3.11,1.67,11.72c0.69,2.07,1.33,3.99,1.92,5.63c-2.09-1.59-4.99-3.12-7.03-2.88
					c-4.1,0.48,1.51,1.22,3.19,2.58c0.28,0.23,0.58,0.48,0.89,0.74c-1.99-0.41-4.51-0.59-6.5,0.38c-3.9,1.89,6.13-0.06,8.38,1.09
					l0,0c0.44,0.3,0.88,0.58,1.34,0.8c-0.11,0.04-0.21,0.07-0.31,0.12c-5.22-0.62-14.61-1.39-21.96,2.65
					c-7.87,4.33,7.25,0.39,18.46-0.27c-3.78,1.5-8.06,4.01-10.09,8.06c0,0,5.25,0,9.8-3.59c1.47-1.16,3.02-2.12,4.44-2.89
					c0,0.03-0.01,0.07-0.01,0.1c-3.2,4.2-7.83,11.07-7.62,15.47c0,0,3.71-1.12,6.88-4.78c0.65-0.76,1.34-1.85,1.99-3.09
					c-0.63,5.05-0.77,11.24,1.21,15.85c3.96,9.25,4.34-6.08,4.79-9.1c0.21-1.41,0.44-6.97,0.09-11.54c0.06,0.21,0.12,0.42,0.18,0.63
					c-0.12,6.01,3.85,21.72,3.89,15.69c0.02-2.29-0.47-5.08-1.1-7.71c0.11,0.23,0.21,0.42,0.3,0.55c1.48,2.23,6.65,13.4,5.53,2.38
					c-0.36-3.58-1.45-6.78-2.75-9.48c5.46,3.91,10.05,10.21,10.65,9.41c0.72-0.96,0-3.83-2.39-7.89c-0.62-1.05-1.8-2.12-3.21-3.13
					c6.91,2.57,13.54,8.2,8.04,2.17c-1.11-1.22-2.38-2.16-3.74-2.88c4.68,0.55,8.18,0.89,8.18,0.89
					C1119.37,479.08,1108.83,476.52,1101.04,474.92z M1096.93,472.43c-0.09,0.07-0.19,0.15-0.28,0.23c0.09-0.21,0.17-0.42,0.26-0.64
					C1096.91,472.14,1096.91,472.28,1096.93,472.43z"/>
				<g>
					<path class="st5" d="M1096.47,635.79l-2.75-0.12c0.04-0.95,4.14-95.11,4.13-106.82c-0.01-11.67-3.98-48.96-4.02-49.34
						l2.74-0.29c0.16,1.54,4.02,37.82,4.03,49.63C1100.62,540.61,1096.51,634.83,1096.47,635.79z"/>
				</g>
			</g>
			<g>
				<path class="st5" d="M645.7,504.58c3.23-1.11,10.48-0.84,10.48-0.84c-1.51-1.09-4.12-1.18-6.55-0.96
					c6.54-3.18,12.07-6.78,12.07-6.78c-3.59-0.39-11.48,2.22-15.31,3.94c3.35-2.02,7.92-3.8,5.39-4.25c-3.34-0.6-7.99,4.68-9.2,5.97
					c3.9-9.91,6.22-20.21,6.22-20.21c-3.57,2.79-8.33,11.78-10.5,17c-0.67-4.2-2.12-9.46-5.24-11.01c0,0-0.97,2.52,1.36,9.51
					c0.56,1.68,1.08,3.24,1.56,4.57c-1.7-1.29-4.05-2.53-5.7-2.34c-3.33,0.39,1.22,0.99,2.59,2.1c0.23,0.19,0.47,0.39,0.72,0.6
					c-1.61-0.33-3.66-0.48-5.28,0.31c-3.16,1.54,4.97-0.05,6.8,0.88l0,0c0.35,0.25,0.72,0.47,1.08,0.65
					c-0.09,0.03-0.17,0.06-0.25,0.09c-4.24-0.51-11.86-1.13-17.82,2.15c-6.39,3.51,5.89,0.32,14.98-0.22
					c-3.07,1.22-6.54,3.25-8.19,6.54c0,0,4.26,0,7.95-2.91c1.2-0.94,2.45-1.72,3.61-2.35c0,0.03,0,0.05-0.01,0.08
					c-2.6,3.41-6.35,8.99-6.18,12.55c0,0,3.01-0.91,5.58-3.88c0.53-0.61,1.09-1.5,1.61-2.51c-0.51,4.1-0.62,9.12,0.98,12.86
					c3.21,7.51,3.52-4.93,3.88-7.38c0.17-1.15,0.36-5.66,0.08-9.36c0.05,0.17,0.1,0.34,0.15,0.51c-0.1,4.87,3.12,17.63,3.16,12.73
					c0.01-1.86-0.38-4.12-0.89-6.26c0.09,0.19,0.17,0.34,0.24,0.45c1.21,1.81,5.4,10.87,4.49,1.93c-0.29-2.91-1.18-5.5-2.24-7.69
					c4.43,3.17,8.15,8.29,8.64,7.64c0.58-0.78,0-3.11-1.94-6.41c-0.5-0.86-1.46-1.72-2.61-2.54c5.6,2.09,10.99,6.66,6.52,1.76
					c-0.9-0.99-1.93-1.75-3.03-2.34c3.8,0.45,6.64,0.72,6.64,0.72C660.58,507.96,652.03,505.88,645.7,504.58z M642.37,502.56
					c-0.08,0.06-0.15,0.12-0.23,0.18c0.07-0.17,0.14-0.34,0.21-0.52C642.35,502.33,642.36,502.44,642.37,502.56z"/>
				<g>
					<path class="st5" d="M643.48,635.17l-2.23-0.18c0.51-6.45-1.87-62.51-3.35-82.57c-1.41-19.18,3.08-47.34,3.13-47.62l2.21,0.36
						c-0.04,0.28-4.5,28.18-3.11,47.1C641.48,570.59,644.04,628.21,643.48,635.17z"/>
				</g>
			</g>
			<g>
				<path class="st5" d="M889.38,486.46c3.23-1.11,10.48-0.84,10.48-0.84c-1.51-1.09-4.12-1.18-6.55-0.96
					c6.54-3.18,12.07-6.78,12.07-6.78c-3.59-0.39-11.48,2.22-15.32,3.94c3.35-2.02,7.92-3.8,5.39-4.25c-3.34-0.6-7.99,4.68-9.2,5.97
					c3.9-9.91,6.22-20.21,6.22-20.21c-3.57,2.79-8.33,11.78-10.5,17c-0.67-4.2-2.12-9.46-5.23-11.01c0,0-0.97,2.52,1.36,9.51
					c0.56,1.68,1.08,3.24,1.56,4.57c-1.7-1.29-4.05-2.53-5.7-2.34c-3.33,0.39,1.22,0.99,2.59,2.1c0.23,0.19,0.47,0.39,0.72,0.6
					c-1.61-0.33-3.66-0.48-5.28,0.31c-3.16,1.54,4.97-0.05,6.8,0.88l0,0c0.35,0.25,0.72,0.47,1.08,0.65
					c-0.09,0.03-0.17,0.06-0.25,0.09c-4.24-0.51-11.86-1.13-17.82,2.15c-6.39,3.51,5.89,0.32,14.98-0.22
					c-3.07,1.22-6.54,3.25-8.19,6.54c0,0,4.26,0,7.95-2.91c1.2-0.94,2.45-1.72,3.61-2.35c0,0.03,0,0.05-0.01,0.08
					c-2.6,3.41-6.35,8.99-6.18,12.55c0,0,3.01-0.91,5.58-3.88c0.53-0.61,1.09-1.5,1.61-2.51c-0.51,4.1-0.62,9.12,0.98,12.86
					c3.21,7.51,3.52-4.93,3.88-7.38c0.17-1.15,0.36-5.66,0.08-9.36c0.05,0.17,0.1,0.34,0.15,0.51c-0.1,4.87,3.12,17.63,3.16,12.73
					c0.01-1.86-0.38-4.12-0.89-6.26c0.09,0.19,0.17,0.34,0.24,0.45c1.21,1.81,5.4,10.87,4.49,1.93c-0.29-2.91-1.18-5.5-2.24-7.69
					c4.43,3.17,8.15,8.29,8.64,7.64c0.58-0.78,0-3.11-1.94-6.41c-0.5-0.86-1.46-1.72-2.61-2.54c5.6,2.09,10.99,6.66,6.52,1.76
					c-0.9-0.99-1.93-1.75-3.03-2.34c3.8,0.45,6.64,0.72,6.64,0.72C904.25,489.84,895.71,487.76,889.38,486.46z M886.04,484.44
					c-0.08,0.06-0.15,0.12-0.23,0.18c0.07-0.17,0.14-0.34,0.21-0.52C886.03,484.21,886.03,484.32,886.04,484.44z"/>
				<g>
					<path class="st5" d="M882.03,633.62l-2.23-0.18c0.05,4.02,4.59-53.27,3.35-64.76c-1.33-12.4-2.43-66.42,0.23-82.01l2.2,0.38
						c-2.63,15.44-1.53,69.07-0.21,81.4C886.63,580.14,882.21,635.85,882.03,633.62z"/>
				</g>
			</g>
			<g>
				<path class="st6" d="M359.21,495.48c3.23-1.11,10.48-0.84,10.48-0.84c-1.51-1.09-4.12-1.18-6.55-0.96
					c6.54-3.18,12.07-6.78,12.07-6.78c-3.59-0.39-11.48,2.22-15.31,3.94c3.35-2.02,7.92-3.8,5.39-4.25c-3.34-0.6-7.99,4.68-9.2,5.97
					c3.9-9.91,6.22-20.21,6.22-20.21c-3.57,2.79-8.33,11.78-10.5,17c-0.67-4.2-2.12-9.46-5.23-11.02c0,0-0.97,2.52,1.36,9.51
					c0.56,1.68,1.08,3.24,1.56,4.57c-1.7-1.29-4.05-2.53-5.7-2.34c-3.33,0.39,1.22,0.99,2.59,2.1c0.23,0.19,0.47,0.39,0.72,0.6
					c-1.61-0.33-3.66-0.48-5.28,0.31c-3.16,1.54,4.97-0.05,6.8,0.88l0,0c0.35,0.25,0.72,0.47,1.08,0.65
					c-0.09,0.03-0.17,0.06-0.25,0.09c-4.24-0.51-11.86-1.13-17.82,2.15c-6.39,3.51,5.89,0.32,14.98-0.22
					c-3.07,1.21-6.54,3.25-8.19,6.54c0,0,4.26,0,7.95-2.91c1.2-0.94,2.45-1.72,3.61-2.35c0,0.03,0,0.05-0.01,0.08
					c-2.6,3.41-6.35,8.99-6.18,12.55c0,0,3.01-0.91,5.58-3.88c0.53-0.61,1.09-1.5,1.61-2.51c-0.51,4.1-0.62,9.12,0.98,12.86
					c3.21,7.51,3.52-4.93,3.88-7.39c0.17-1.15,0.36-5.66,0.08-9.36c0.05,0.17,0.1,0.34,0.15,0.51c-0.1,4.87,3.12,17.63,3.16,12.73
					c0.01-1.86-0.38-4.12-0.89-6.26c0.09,0.19,0.17,0.34,0.24,0.45c1.21,1.81,5.4,10.87,4.49,1.93c-0.29-2.91-1.18-5.5-2.23-7.69
					c4.43,3.17,8.15,8.29,8.64,7.64c0.58-0.78,0-3.11-1.94-6.41c-0.5-0.86-1.46-1.72-2.61-2.54c5.6,2.09,10.99,6.66,6.52,1.76
					c-0.9-0.99-1.93-1.75-3.03-2.34c3.8,0.45,6.64,0.72,6.64,0.72C374.08,498.86,365.54,496.78,359.21,495.48z M355.87,493.47
					c-0.08,0.06-0.15,0.12-0.23,0.18c0.07-0.17,0.14-0.34,0.21-0.52C355.86,493.23,355.86,493.35,355.87,493.47z"/>
				<g>
					<path class="st6" d="M345.79,636.47l-2.23-0.11c0.04-0.78,3.91-78.06,3.91-86.87c0-8.92,6.98-54.58,7.28-56.52l2.21,0.34
						c-0.07,0.47-7.25,47.43-7.25,56.18C349.71,558.35,345.95,633.28,345.79,636.47z"/>
				</g>
			</g>
			<path class="st6" d="M248.98,635.79c0,0,6.97-24.99,39.66-19.77c32.69,5.23,30.87-9.36,46.07-9.36
				c15.2,0,24.83,13.71,44.52,14.73c19.69,1.02,27.86,14.39,45.94,14.39H248.98z"/>
			<linearGradient id="SVGID_4_" gradientUnits="userSpaceOnUse" x1="813.8391" y1="622.363" x2="1217.2828" y2="622.363">
				<stop  offset="5.181350e-03" style="stop-color:#D6BAAF"/>
				<stop  offset="1" style="stop-color:#FFE7E0"/>
			</linearGradient>
			<path class="st7" d="M1200.64,624.03c-11.67-4.8-19.25,11.76-37.92,8.3c-18.67-3.45-40.26-9.33-56.59-9.97
				c-16.34-0.63-23.34-4.03-31.5-6.34c-8.17-2.31-16.92,8.14-25.67,8.01c-8.75-0.13-11.08-10.37-25.09-14.45
				c-14-4.08-33.25,12.84-52.13,12.25c-8.97-0.28-15.68,2.86-20.27,6.23c-13.45-4.14-30.98-3.17-51.29-12.04
				c-28-12.23-37.34,9.31-60.68,10.04c-23.34,0.73-25.67,9.72-25.67,9.72h130.1h21h252.34
				C1217.28,635.79,1212.31,628.83,1200.64,624.03z"/>
			<g>
				<path class="st5" d="M75.06,514.88c3.23-1.11,10.48-0.84,10.48-0.84c-1.51-1.09-4.12-1.18-6.55-0.96
					c6.54-3.18,12.07-6.78,12.07-6.78c-3.59-0.39-11.48,2.22-15.31,3.94c3.35-2.02,7.92-3.8,5.39-4.25c-3.34-0.6-7.99,4.68-9.2,5.97
					c3.9-9.91,6.22-20.21,6.22-20.21c-3.57,2.79-8.33,11.78-10.5,17c-0.67-4.2-2.12-9.46-5.23-11.01c0,0-0.97,2.52,1.36,9.51
					c0.56,1.68,1.08,3.24,1.56,4.57c-1.7-1.29-4.05-2.53-5.7-2.34c-3.33,0.39,1.22,0.99,2.59,2.1c0.23,0.19,0.47,0.39,0.72,0.6
					c-1.61-0.33-3.66-0.48-5.28,0.31c-3.16,1.54,4.97-0.05,6.8,0.88l0,0c0.35,0.25,0.72,0.47,1.08,0.65
					c-0.09,0.03-0.17,0.06-0.25,0.09c-4.24-0.51-11.86-1.13-17.82,2.15c-6.39,3.51,5.89,0.32,14.98-0.22
					c-3.07,1.22-6.54,3.25-8.19,6.54c0,0,4.26,0,7.95-2.91c1.2-0.94,2.45-1.72,3.61-2.35c0,0.03,0,0.05-0.01,0.08
					c-2.6,3.41-6.35,8.99-6.18,12.55c0,0,3.01-0.91,5.58-3.88c0.53-0.61,1.09-1.5,1.61-2.51c-0.51,4.1-0.62,9.12,0.98,12.86
					c3.21,7.51,3.52-4.93,3.88-7.38c0.17-1.15,0.36-5.66,0.08-9.36c0.05,0.17,0.1,0.34,0.15,0.51c-0.1,4.87,3.12,17.63,3.16,12.73
					c0.01-1.86-0.38-4.12-0.89-6.26c0.09,0.19,0.17,0.34,0.24,0.45c1.21,1.81,5.39,10.87,4.49,1.93c-0.29-2.91-1.18-5.5-2.24-7.69
					c4.43,3.17,8.15,8.29,8.64,7.64c0.58-0.78,0-3.11-1.94-6.41c-0.5-0.86-1.46-1.72-2.61-2.54c5.6,2.09,10.99,6.66,6.52,1.76
					c-0.9-0.99-1.93-1.75-3.03-2.34c3.8,0.45,6.64,0.72,6.64,0.72C89.93,518.26,81.38,516.18,75.06,514.88z M71.72,512.86
					c-0.08,0.06-0.15,0.12-0.23,0.18c0.07-0.17,0.14-0.34,0.21-0.52C71.7,512.63,71.71,512.74,71.72,512.86z"/>
				<g>
					<path class="st5" d="M72.57,634.29c-0.01-0.08-0.59-8.28-3.63-23.65c-3.27-16.55,0.63-46.4,1.45-52.21
						c1.13-8.02-3.08-40.74-3.12-41.07l2.22-0.29c0.18,1.36,4.28,33.35,3.12,41.66c-0.81,5.75-4.67,35.27-1.47,51.47
						c3.07,15.53,3.66,23.85,3.67,23.93L72.57,634.29z"/>
				</g>
			</g>
			<path class="st6" d="M61.95,635.79c0,0,2.4-9.29,13.1-8.51c10.7,0.78,8.95-10.31,19.45-7.78c10.5,2.53,16.14,16.29,25.48,16.29
				H61.95z"/>
			<linearGradient id="SVGID_5_" gradientUnits="userSpaceOnUse" x1="619.1373" y1="628.0975" x2="698.19" y2="628.0975">
				<stop  offset="5.181350e-03" style="stop-color:#D6BAAF"/>
				<stop  offset="1" style="stop-color:#FFE7E0"/>
			</linearGradient>
			<path class="st8" d="M619.14,635.79c0,0,8.75-19.54,28.59-14.56c19.84,4.98,13.71,8.77,30.92,6.87
				c17.21-1.89,19.54,7.69,19.54,7.69H619.14z"/>
		</g>
		<linearGradient id="SVGID_6_" gradientUnits="userSpaceOnUse" x1="-5.5826" y1="917.7287" x2="1452.368" y2="917.7287">
			<stop  offset="0" style="stop-color:#F9F9F9"/>
			<stop  offset="1" style="stop-color:#FFEBE6"/>
		</linearGradient>
		<path class="st9" d="M1452.37,842.27v161.81H-5.58V842.27c0,0,132.4,72.79,367.07,17.5
			C720.81,775.11,1235.51,913.76,1452.37,842.27z"/>
		<linearGradient id="SVGID_7_" gradientUnits="userSpaceOnUse" x1="723.3927" y1="949.2674" x2="723.3927" y2="458.3168">
			<stop  offset="0" style="stop-color:#F9F2E8"/>
			<stop  offset="1" style="stop-color:#FFF7F5"/>
		</linearGradient>
		<polygon class="st10" points="-5.58,635.79 -5.58,759.17 84.96,759.17 84.96,708.61 144.86,708.61 163.14,690.33 361.89,690.33 
			392.81,721.25 455.23,721.25 455.23,773.18 509.82,773.18 509.82,703.17 610.35,703.17 649.08,741.91 773.39,741.91 
			773.39,676.62 828.62,676.62 855.5,703.51 923.52,703.51 942.77,684.25 1026.98,684.25 1026.98,756.61 1086.88,756.61 
			1086.88,732.73 1134.33,732.73 1134.33,783.36 1177.89,783.36 1177.89,706.84 1300.02,706.84 1311.44,695.42 1452.21,695.42 
			1452.37,635.79 		"/>
		<linearGradient id="SVGID_8_" gradientUnits="userSpaceOnUse" x1="537.016" y1="861.7841" x2="586.3764" y2="861.7841">
			<stop  offset="0" style="stop-color:#FFDEBC"/>
			<stop  offset="1" style="stop-color:#BD856A"/>
		</linearGradient>
		<ellipse class="st11" cx="561.7" cy="861.78" rx="24.68" ry="9.29"/>
		<path class="st3" d="M-2.25,852.82c0,0,25.37,71.86,193.84,58.32c168.47-13.54,225.21-76.11,530.65-62.08
			c305.44,14.03,593.86,73.81,730.13-0.33c0,0-108.26,49.95-413.08,15.37c-304.82-34.58-478.74-25.36-588.06-9.49
			C341.91,870.47,179.08,938.26-2.25,852.82z"/>
		<path class="st3" d="M592.49,858.02c0,5.13-11.05,9.29-24.68,9.29c-13.63,0-24.68-4.16-24.68-9.29c0-5.13,11.05-9.29,24.68-9.29
			C581.44,848.73,592.49,852.89,592.49,858.02z"/>
		
			<linearGradient id="SVGID_9_" gradientUnits="userSpaceOnUse" x1="-10978.8604" y1="935.5073" x2="-10723.3887" y2="935.5073" gradientTransform="matrix(-1 0 0 1 -10366.0371 0)">
			<stop  offset="0" style="stop-color:#FFDEBC"/>
			<stop  offset="1" style="stop-color:#BD856A"/>
		</linearGradient>
		<ellipse class="st12" cx="485.09" cy="935.51" rx="127.74" ry="8.3"/>
		
			<linearGradient id="SVGID_10_" gradientUnits="userSpaceOnUse" x1="-10703.1084" y1="937.2598" x2="-10447.6367" y2="937.2598" gradientTransform="matrix(-1 0 0 1 -10366.0371 0)">
			<stop  offset="0" style="stop-color:#FFDEBC"/>
			<stop  offset="1" style="stop-color:#BD856A"/>
		</linearGradient>
		<ellipse class="st13" cx="209.34" cy="937.26" rx="127.74" ry="8.3"/>
		<g>
			<g>
				<g>
					
						<linearGradient id="SVGID_11_" gradientUnits="userSpaceOnUse" x1="-6248.5698" y1="-1445.161" x2="-6338.9873" y2="-1539.6881" gradientTransform="matrix(-0.912 -0.4102 -0.4102 0.912 -5493.4336 -975.5446)">
						<stop  offset="0" style="stop-color:#FFFFFF"/>
						<stop  offset="1" style="stop-color:#C7C7C7"/>
					</linearGradient>
					<path class="st14" d="M815.34,264.93c0-1.7-0.53-3.74-3.13-3.32l3.13-0.44L815.34,264.93z"/>
				</g>
			</g>
		</g>
		<g>
			<g>
				<g>
					<linearGradient id="SVGID_12_" gradientUnits="userSpaceOnUse" x1="88.6796" y1="830.9299" x2="308.259" y2="432.5501">
						<stop  offset="0" style="stop-color:#60E99C"/>
						<stop  offset="1" style="stop-color:#B8EBFF"/>
					</linearGradient>
					<path class="st15" d="M95.28,823.41h201.65c25.16,0,45.55-20.4,45.55-45.55V494.19c0-25.16-20.4-45.55-45.55-45.55H95.28
						c-25.16,0-45.56,20.4-45.56,45.56v283.66C49.73,803.01,70.12,823.41,95.28,823.41z"/>
				</g>
				<g>
					<g>
						<g>
							
								<rect x="232.24" y="479.75" transform="matrix(-1 -1.224647e-16 1.224647e-16 -1 539.7709 968.0845)" class="st3" width="75.3" height="8.58"/>
						</g>
					</g>
				</g>
				<g>
					<g>
						<g>
							
								<rect x="252.25" y="498.61" transform="matrix(-1 -1.224647e-16 1.224647e-16 -1 559.7842 1005.8075)" class="st3" width="55.28" height="8.58"/>
						</g>
					</g>
				</g>
				<g>
					<g>
						<g>
							
								<rect x="171.61" y="517.47" transform="matrix(-1 -1.224647e-16 1.224647e-16 -1 479.1445 1043.5305)" class="st3" width="135.92" height="8.58"/>
						</g>
					</g>
				</g>
				<g>
					<g>
						<g>
							<rect x="84.26" y="571.72" class="st3" width="93.26" height="8.58"/>
						</g>
					</g>
				</g>
				<g>
					<g>
						<g>
							<rect x="84.26" y="590.58" class="st3" width="126.28" height="8.58"/>
						</g>
					</g>
				</g>
				<g>
					<g>
						<g>
							<rect x="84.26" y="609.44" class="st3" width="168.35" height="8.58"/>
						</g>
					</g>
				</g>
				<g>
					<g>
						<g>
							<rect x="84.26" y="663.73" class="st3" width="102.7" height="8.58"/>
						</g>
					</g>
				</g>
				<g>
					<g>
						<g>
							<rect x="84.26" y="682.59" class="st3" width="142.09" height="8.58"/>
						</g>
					</g>
				</g>
				<g>
					<g>
						<g>
							<rect x="84.26" y="701.45" class="st3" width="136.47" height="8.58"/>
						</g>
					</g>
				</g>
				<g>
					<linearGradient id="SVGID_13_" gradientUnits="userSpaceOnUse" x1="136.891" y1="467.6081" x2="402.1859" y2="184.9427">
						<stop  offset="0" style="stop-color:#60E99C"/>
						<stop  offset="1" style="stop-color:#B8EBFF"/>
					</linearGradient>
					<path class="st16" d="M155.67,431.99h216.05c17.41,0,31.52-14.11,31.52-31.52V264.53c0-17.41-14.11-31.52-31.52-31.52H155.67
						c-17.41,0-31.52,14.11-31.52,31.52v135.93C124.14,417.88,138.26,431.99,155.67,431.99z"/>
				</g>
				<g>
					<g>
						<path class="st3" d="M163.89,371.26h54.87c2.85,0,5.15-2.31,5.15-5.15v-7.08c0-2.85-2.31-5.15-5.15-5.15h-54.87
							c-2.85,0-5.15,2.31-5.15,5.15v7.08C158.74,368.96,161.05,371.26,163.89,371.26z"/>
					</g>
				</g>
				<g>
					<g>
						<path class="st3" d="M163.89,343.47h54.87c2.85,0,5.15-2.31,5.15-5.15v-7.08c0-2.84-2.31-5.15-5.15-5.15h-54.87
							c-2.85,0-5.15,2.31-5.15,5.15v7.08C158.74,341.16,161.05,343.47,163.89,343.47z"/>
					</g>
				</g>
				<g>
					<g>
						<path class="st3" d="M163.89,315.67h54.87c2.85,0,5.15-2.31,5.15-5.15v-7.08c0-2.84-2.31-5.15-5.15-5.15h-54.87
							c-2.85,0-5.15,2.31-5.15,5.15v7.08C158.74,313.37,161.05,315.67,163.89,315.67z"/>
					</g>
				</g>
				<path class="st3" d="M360.3,309.64c0-24.97-20.24-45.21-45.21-45.21c-24.97,0-45.21,20.24-45.21,45.21
					c0,0.86,0.03,1.72,0.08,2.57h-0.08c0,34.42,45.21,88.36,45.21,88.36s45.21-53.94,45.21-88.36h-0.08
					C360.27,311.36,360.3,310.5,360.3,309.64z M315.09,338.93c-16.17,0-29.29-13.11-29.29-29.29c0-16.17,13.11-29.29,29.29-29.29
					c16.17,0,29.29,13.11,29.29,29.29C344.38,325.81,331.27,338.93,315.09,338.93z"/>
				<g>
					<path class="st17" d="M332.82,730.29c1.23,0.6,3.12,0.98,4.98,0.98c5.75,0,9.09-3.72,9.09-9.51c0-6.21-3.68-9.75-9.23-9.75
						c-1.96,0-3.61,0.42-4.77,0.98l-0.74-2.49c0.81-0.42,2.66-1.05,5.61-1.05c7.33,0,12.35,5.02,12.35,12.42
						c0,7.75-5.02,11.96-11.68,11.96c-2.88,0-5.12-0.56-6.24-1.12L332.82,730.29z"/>
				</g>
				
					<rect x="618.45" y="398.04" transform="matrix(-1 -1.224647e-16 1.224647e-16 -1 1252.605 801.1422)" class="st18" width="15.7" height="5.06"/>
				
					<rect x="471.8" y="398.04" transform="matrix(-1 -1.224647e-16 1.224647e-16 -1 971.3337 801.1422)" class="st18" width="27.73" height="5.06"/>
				
					<rect x="546.21" y="398.04" transform="matrix(-1 -1.224647e-16 1.224647e-16 -1 1120.15 801.1422)" class="st18" width="27.73" height="5.06"/>
				
					<rect x="403.77" y="398.04" transform="matrix(-1 -1.224647e-16 1.224647e-16 -1 823.1135 801.1422)" class="st18" width="15.56" height="5.06"/>
				
					<linearGradient id="SVGID_14_" gradientUnits="userSpaceOnUse" x1="-5000.3057" y1="129.9874" x2="-4951.9712" y2="129.9874" gradientTransform="matrix(-1 0 0 1 -4856.3604 0)">
					<stop  offset="0" style="stop-color:#D5E4FF"/>
					<stop  offset="1" style="stop-color:#EDFFFE"/>
				</linearGradient>
				<rect x="95.61" y="129.16" class="st19" width="48.33" height="1.65"/>
				
					<linearGradient id="SVGID_15_" gradientUnits="userSpaceOnUse" x1="-5222.8325" y1="839.2442" x2="-5341.0732" y2="419.2426" gradientTransform="matrix(-1 0 0 1 -4856.3604 0)">
					<stop  offset="0" style="stop-color:#EEA886"/>
					<stop  offset="0.7927" style="stop-color:#CF9174"/>
				</linearGradient>
				<path class="st20" d="M123.59,905.24l152.27,98.84h59.32l105.7-119.22c0,0,126.96-51.28,153.43-70.05
					c2.15-1.53,3.65-2.84,4.35-3.89c9.31-13.97-184.56-157.77-184.56-170.57c0-12.81-1.76-108.87-1.16-117.02
					c0.58-8.15,17.75-78.6,7.17-113.53c0,0-11.25-38.04-34.93-31.83c0,0-2.98,0.26-2.98,5.72c0,0.32,0.02,0.64,0.03,0.99
					c0.08,1.18,0.26,2.55,0.61,4.15c2.34,10.47-5.43,48.91-10.47,59.38c-5.05,10.49-18.24,30.27-21.36,47.35
					c-3.1,17.07-16.3,67.91-21.34,81.12c-5.04,13.2-18.64,35.71-20.58,48.13c-1.94,12.41-4.66,45.8-11.25,58.22
					c-6.59,12.41-25.81,77.23-43.28,98.19C237.12,802.19,123.59,905.24,123.59,905.24z"/>
				
					<linearGradient id="SVGID_16_" gradientUnits="userSpaceOnUse" x1="-5044.7461" y1="930.2072" x2="-5297.7363" y2="336.9871" gradientTransform="matrix(-1 0 0 1 -4856.3604 0)">
					<stop  offset="0" style="stop-color:#EEA886"/>
					<stop  offset="0.7927" style="stop-color:#CF9174"/>
					<stop  offset="0.8049" style="stop-color:#CC8E71"/>
					<stop  offset="0.9257" style="stop-color:#B4765A"/>
					<stop  offset="1" style="stop-color:#AB6D52"/>
				</linearGradient>
				<path class="st21" d="M131.3,898.21l57.39,20.09c0,0,89.37-95.94,121.19-119.23c31.82-23.29,12.42-106.34,17.08-125
					c4.66-18.65,3.88-58.2,15.52-76c11.64-17.79,13.19-58.27,15.52-76.9c2.33-18.63,12.42-32.6,24.22-73.75
					c11.56-40.28,0.48-61.86,0.01-62.75c0.07,1.16,0.26,2.54,0.62,4.14c2.33,10.48-5.44,48.9-10.48,59.38
					c-5.05,10.48-18.25,30.27-21.35,47.36c-3.1,17.07-16.3,67.92-21.34,81.11c-5.04,13.2-18.63,35.71-20.57,48.13
					c-1.93,12.41-4.66,45.8-11.25,58.22c-6.6,12.41-25.81,77.23-43.28,98.19C237.11,802.19,131.3,898.21,131.3,898.21z"/>
				
					<linearGradient id="SVGID_17_" gradientUnits="userSpaceOnUse" x1="-5236.7109" y1="844.5093" x2="-5277.6943" y2="614.8972" gradientTransform="matrix(-1 0 0 1 -4856.3604 0)">
					<stop  offset="0" style="stop-color:#EEA886"/>
					<stop  offset="0.7927" style="stop-color:#CF9174"/>
					<stop  offset="0.8049" style="stop-color:#CC8E71"/>
					<stop  offset="0.9257" style="stop-color:#B4765A"/>
					<stop  offset="1" style="stop-color:#AB6D52"/>
				</linearGradient>
				<path class="st22" d="M412.94,523.32c0,0-11.28,49.4-12.05,74.77s-18.81,52.24-22.89,85.67
					c-4.08,33.43,16.4,121.73,35.27,130.85C432.15,823.73,412.94,523.32,412.94,523.32z"/>
				
					<linearGradient id="SVGID_18_" gradientUnits="userSpaceOnUse" x1="-5317.8252" y1="892.4301" x2="-5483.7012" y2="618.9588" gradientTransform="matrix(-1 0 0 1 -4856.3604 0)">
					<stop  offset="0" style="stop-color:#EEA886"/>
					<stop  offset="0.3051" style="stop-color:#E29F7F"/>
					<stop  offset="0.7927" style="stop-color:#CF9174"/>
					<stop  offset="0.8049" style="stop-color:#CC8E71"/>
					<stop  offset="0.9257" style="stop-color:#B4765A"/>
					<stop  offset="1" style="stop-color:#AB6D52"/>
				</linearGradient>
				<path class="st23" d="M356.92,979.56l83.96-94.7c0,0,126.96-51.28,153.43-70.05h-92.3c0,0,18.63,8.92-5.24,23.47
					c-23.87,14.55-110.03,29.69-115.27,44.83C376.26,898.25,425.62,871.86,356.92,979.56z"/>
				
					<linearGradient id="SVGID_19_" gradientUnits="userSpaceOnUse" x1="-5227.2959" y1="710.7703" x2="-5273.0947" y2="583.0765" gradientTransform="matrix(-1 0 0 1 -4856.3604 0)">
					<stop  offset="0" style="stop-color:#CF9174"/>
					<stop  offset="1" style="stop-color:#91624C"/>
				</linearGradient>
				<path class="st24" d="M412.94,523.32c0,0-16.88,64.62-10.67,86.36c6.21,21.73,10.67,54.34,10.67,54.34
					S412.6,550.3,412.94,523.32z"/>
				<path class="st25" d="M412.94,344.4v437.55c0,18.04,14.63,32.67,32.68,32.67H655.4c9.55,0,18.14-4.09,24.11-10.62
					c5.32-5.82,8.57-13.54,8.57-22.04V344.4c0-18.05-14.64-32.68-32.68-32.68H445.62C427.56,311.71,412.94,326.34,412.94,344.4z"/>
				<linearGradient id="SVGID_20_" gradientUnits="userSpaceOnUse" x1="550.4897" y1="859.201" x2="550.4897" y2="683.4172">
					<stop  offset="0" style="stop-color:#B6C4E3"/>
					<stop  offset="1" style="stop-color:#E8EFFF"/>
				</linearGradient>
				<rect x="433.84" y="333.63" class="st26" width="233.29" height="400.66"/>
				<ellipse class="st27" cx="550.51" cy="774.19" rx="28.78" ry="21.12"/>
				<polygon class="st28" points="96.16,925.57 211.91,1004.08 363.4,1004.08 373,992.97 168.29,856.38 				"/>
				<path class="st29" d="M-5.58,1004.08h269.41l-139.49-91.07c-20.35-13.3-47.4-9.49-63.29,8.9L-5.58,1004.08z"/>
				<path class="st3" d="M531.56,311.71l147.95,492.27c5.32-5.82,8.57-13.54,8.57-22.04V344.4c0-18.05-14.64-32.68-32.68-32.68
					H531.56z"/>
				<polygon class="st3" points="638.95,814.61 487.8,311.71 510.67,311.71 661.82,814.61 				"/>
				
					<linearGradient id="SVGID_21_" gradientUnits="userSpaceOnUse" x1="-5539.3652" y1="805.7446" x2="-5576.6382" y2="613.9427" gradientTransform="matrix(-1 0 0 1 -4856.3604 0)">
					<stop  offset="0" style="stop-color:#EEA886"/>
					<stop  offset="0.7927" style="stop-color:#CF9174"/>
					<stop  offset="0.8049" style="stop-color:#CC8E71"/>
					<stop  offset="0.9257" style="stop-color:#B4765A"/>
					<stop  offset="1" style="stop-color:#AB6D52"/>
				</linearGradient>
				<path class="st30" d="M710.39,673.76c0,0,18.63,16.19,18.48,29.29c-0.15,12.92-0.53,21.7-4.06,28.39
					c-2.68,5.07-36.02,48.75-43.41,48.22c-6.41-0.46-19.68-11.27-16.52-26.14c3.15-14.87,15.92-38,16.52-39.81V667.3L710.39,673.76z
					"/>
				
					<linearGradient id="SVGID_22_" gradientUnits="userSpaceOnUse" x1="-5557.6372" y1="712.7716" x2="-5535.1255" y2="806.6984" gradientTransform="matrix(-1 0 0 1 -4856.3604 0)">
					<stop  offset="0" style="stop-color:#DE9C7D"/>
					<stop  offset="1" style="stop-color:#FFE0D1"/>
				</linearGradient>
				<path class="st31" d="M687.41,774.1c0,0-8.26-11.87-12.02-14.87c-3.76-3,19.98-41.61,31.09-31.39
					C717.6,738.05,703.18,760.58,687.41,774.1z"/>
				
					<linearGradient id="SVGID_23_" gradientUnits="userSpaceOnUse" x1="-5555.1792" y1="688.7398" x2="-5586.2295" y2="535.8177" gradientTransform="matrix(-1 0 0 1 -4856.3604 0)">
					<stop  offset="0" style="stop-color:#EEA886"/>
					<stop  offset="0.7927" style="stop-color:#CF9174"/>
				</linearGradient>
				<path class="st32" d="M723.82,575.44c0,0,24.07,20.92,23.87,37.84c-0.19,16.69-0.68,28.04-5.24,36.68
					c-3.46,6.55-46.96,65.21-56.08,62.29c-9.12-2.91-25.42-14.55-21.35-33.77c4.08-19.21,20.57-49.1,21.35-51.43V567.1
					L723.82,575.44z"/>
				
					<linearGradient id="SVGID_24_" gradientUnits="userSpaceOnUse" x1="-5567.8809" y1="625.8179" x2="-5542.2646" y2="737.987" gradientTransform="matrix(-1 0 0 1 -4856.3604 0)">
					<stop  offset="0" style="stop-color:#DE9C7D"/>
					<stop  offset="1" style="stop-color:#FFE0D1"/>
				</linearGradient>
				<path class="st33" d="M694.13,705.08c0,0-10.67-15.33-15.53-19.21c-4.85-3.88,25.81-53.76,40.17-40.56
					C733.14,658.5,714.51,687.61,694.13,705.08z"/>
				
					<linearGradient id="SVGID_25_" gradientUnits="userSpaceOnUse" x1="-5562.5518" y1="602.6879" x2="-5561.3877" y2="375.9256" gradientTransform="matrix(-1 0 0 1 -4856.3604 0)">
					<stop  offset="0" style="stop-color:#EEA886"/>
					<stop  offset="0.2483" style="stop-color:#E4A180"/>
					<stop  offset="0.7927" style="stop-color:#CF9174"/>
					<stop  offset="0.8049" style="stop-color:#CC8E71"/>
					<stop  offset="0.9257" style="stop-color:#B4765A"/>
					<stop  offset="1" style="stop-color:#AB6D52"/>
				</linearGradient>
				<path class="st34" d="M723.82,499.45c0,0,24.07,20.92,23.87,37.84c-0.19,16.69-0.68,28.04-5.24,36.68
					c-3.46,6.55-46.96,65.21-56.08,62.29c-9.12-2.91-25.42-14.55-21.35-33.77c4.08-19.21,20.57-49.1,21.35-51.43v-59.97
					L723.82,499.45z"/>
				
					<linearGradient id="SVGID_26_" gradientUnits="userSpaceOnUse" x1="-5562.0981" y1="562.38" x2="-5547.7373" y2="662.517" gradientTransform="matrix(-1 0 0 1 -4856.3604 0)">
					<stop  offset="0" style="stop-color:#DE9C7D"/>
					<stop  offset="1" style="stop-color:#FFE0D1"/>
				</linearGradient>
				<path class="st35" d="M694.13,629.08c0,0-10.67-15.33-15.53-19.21c-4.85-3.88,25.81-53.76,40.17-40.56
					C733.14,582.51,714.51,611.62,694.13,629.08z"/>
				
					<linearGradient id="SVGID_27_" gradientUnits="userSpaceOnUse" x1="-5578.6841" y1="503.6298" x2="-5508.0391" y2="398.0947" gradientTransform="matrix(-1 0 0 1 -4856.3604 0)">
					<stop  offset="0" style="stop-color:#EEA886"/>
					<stop  offset="0.7927" style="stop-color:#CF9174"/>
					<stop  offset="0.8049" style="stop-color:#CC8E71"/>
					<stop  offset="0.9257" style="stop-color:#B4765A"/>
					<stop  offset="1" style="stop-color:#AB6D52"/>
				</linearGradient>
				<path class="st36" d="M688.08,417.94l-1.71,76.27c41.73,22.12,56.67,8.15,58.42,4.66s-36.68-61.13-42.5-69.28
					C696.46,421.44,688.08,417.94,688.08,417.94z"/>
				
					<linearGradient id="SVGID_28_" gradientUnits="userSpaceOnUse" x1="-5547.9038" y1="451.1901" x2="-5623.2002" y2="503.199" gradientTransform="matrix(-1 0 0 1 -4856.3604 0)">
					<stop  offset="0" style="stop-color:#DE9C7D"/>
					<stop  offset="1" style="stop-color:#FFE0D1"/>
				</linearGradient>
				<path class="st37" d="M744.84,501.97c0,0-18.3-13.78-24.9-16.3c-6.6-2.52-18.4-31.84-11.64-34.35
					C721.88,446.28,749.73,499.16,744.84,501.97z"/>
				<rect x="449.71" y="398.89" class="st38" width="183.44" height="17.2"/>
				<rect x="449.71" y="428.7" class="st38" width="91.72" height="6.85"/>
				<rect x="449.71" y="440.23" class="st38" width="75.92" height="6.85"/>
				<rect x="467.53" y="510.43" class="st38" width="96.93" height="6.85"/>
				<rect x="467.53" y="521.95" class="st38" width="106.04" height="6.85"/>
				<linearGradient id="SVGID_29_" gradientUnits="userSpaceOnUse" x1="482.8509" y1="315.7761" x2="482.8509" y2="433.8188">
					<stop  offset="0" style="stop-color:#D62669"/>
					<stop  offset="1" style="stop-color:#F55C2C"/>
				</linearGradient>
				<path class="st39" d="M504.21,367.35c0-11.79-9.56-21.35-21.35-21.35s-21.35,9.56-21.35,21.35c0,0.41,0.01,0.81,0.04,1.21h-0.04
					c0,16.26,21.35,41.74,21.35,41.74s21.35-25.48,21.35-41.74h-0.04C504.19,368.16,504.21,367.75,504.21,367.35z M482.85,381.18
					c-7.64,0-13.83-6.19-13.83-13.83c0-7.64,6.19-13.83,13.83-13.83c7.64,0,13.83,6.19,13.83,13.83
					C496.69,374.99,490.49,381.18,482.85,381.18z"/>
				<rect x="449.71" y="598.13" class="st38" width="183.44" height="17.2"/>
				<rect x="449.71" y="625.61" class="st38" width="91.72" height="6.85"/>
				<rect x="449.71" y="637.13" class="st38" width="75.92" height="6.85"/>
				<linearGradient id="SVGID_30_" gradientUnits="userSpaceOnUse" x1="461.496" y1="577.3898" x2="504.2058" y2="577.3898">
					<stop  offset="0" style="stop-color:#D62669"/>
					<stop  offset="1" style="stop-color:#F55C2C"/>
				</linearGradient>
				<path class="st40" d="M504.21,566.59c0-11.79-9.56-21.35-21.35-21.35s-21.35,9.56-21.35,21.35c0,0.41,0.01,0.81,0.04,1.21h-0.04
					c0,16.26,21.35,41.74,21.35,41.74s21.35-25.48,21.35-41.74h-0.04C504.19,567.4,504.21,567,504.21,566.59z M482.85,580.43
					c-7.64,0-13.83-6.19-13.83-13.83s6.19-13.83,13.83-13.83c7.64,0,13.83,6.19,13.83,13.83S490.49,580.43,482.85,580.43z"/>
				
					<rect x="468.35" y="485.41" transform="matrix(-1 -1.224647e-16 1.224647e-16 -1 1120.15 988.0251)" class="st38" width="183.44" height="17.2"/>
				<path class="st41" d="M604.82,680.47v17.54c-7.48,0-13.54,6.06-13.54,13.53H509.7c0-7.48-6.06-13.53-13.54-13.53v-17.54
					c7.48,0,13.54-6.06,13.54-13.53h81.59C591.28,674.42,597.35,680.47,604.82,680.47z"/>
				<rect x="509.89" y="715.58" class="st41" width="81.46" height="2.5"/>
			</g>
			<g>
				<linearGradient id="SVGID_31_" gradientUnits="userSpaceOnUse" x1="628.522" y1="1008.5117" x2="448.7751" y2="236.8156">
					<stop  offset="0" style="stop-color:#EEA886"/>
					<stop  offset="0.7927" style="stop-color:#CF9174"/>
				</linearGradient>
				<path class="st42" d="M796.58,852.72c-0.89,17.76-11.26,45.46-10.39,57.89c0.89,12.44-8.87,45.77-12.87,59.53
					c-3.06,10.56-5.88,21.86-6.24,33.94H535.59c-3.81-4.24-7.3-7.54-10.77-9.64c-8.89-5.35-35.84-20.29-48.57-39.7
					c-11.93-18.15-42.06-65.15-50.35-75.22c-8.29-10.08-31.41-45.6-38.52-53.32c-7.11-7.71-26.95-21.91-26.95-21.91
					c-4.27-3.42-7.71-21.57,11.93-27.98c0.82-0.29,1.69-0.53,2.58-0.75c22.51-5.64,75.22,27.84,83.23,43.24
					c8,15.4,33.48,47.99,40.59,53.6c7.09,5.62,25.77,18.05,37.31-1.78c3.16-5.42,6.63-14.44,10-24.8
					c8.82-27.14,16.94-63.44,16.94-68.33v-0.17c-0.29-5.62,3.45-82.77,1.81-100.99c-1.64-18.2-11.35-156.55-10.53-165.37
					c1.06-11.4,4.02-19.04,23.93-12.94c18.66,5.69,27.6,74.07,28.92,82.05c1.33,8,14.1,72.21,19.11,89.71
					c0.02-0.24,0.22-1.42,0.67-3.13c0-0.02,0-0.02,0-0.02c1.35-5.11,5.09-15.09,14.41-19.91c1.54-0.79,3.28-1.47,5.18-2.02
					c0.02-0.02,0.02-0.02,0.02-0.02c14.1-4.17,34.15,4.15,37.12,14.15c4.72,15.96,3.88,44.78,3.88,44.78s2.39-20.2,16.05-24.47
					c0.46-0.14,0.87-0.34,1.28-0.43c8.44-1.76,31.98,0,34.66,22.22c2.68,22.22,2.1,33.31,2.1,33.31s10.34-15.98,23.67-14.2
					c13.33,1.76,26.66,14.2,24.44,39.53C787.54,784.89,797.15,841.15,796.58,852.72z"/>
				<linearGradient id="SVGID_32_" gradientUnits="userSpaceOnUse" x1="751.4921" y1="838.331" x2="739.8951" y2="697.0875">
					<stop  offset="0" style="stop-color:#CF9174"/>
					<stop  offset="1" style="stop-color:#966A56"/>
				</linearGradient>
				<path class="st43" d="M741.64,741.5c0,0-1.27,51.39,4.13,62.79c6.86,14.48,7.11,10.37,7.11,10.37s-3.6-51.44-3.85-62.2
					C748.77,741.35,745.5,734.98,741.64,741.5z"/>
				<linearGradient id="SVGID_33_" gradientUnits="userSpaceOnUse" x1="688.6301" y1="779.4124" x2="690.9996" y2="700.0352">
					<stop  offset="0" style="stop-color:#CF9174"/>
					<stop  offset="1" style="stop-color:#966A56"/>
				</linearGradient>
				<path class="st44" d="M687.57,703.58c0,0,4.59,3.55,5.78,16.88c1.18,13.33,1.48,60.72,1.48,60.72l-12.44-1.78
					c0,0,4.78,0.77,5.18-6.52C688.23,760.9,687.54,707.73,687.57,703.58z"/>
				<linearGradient id="SVGID_34_" gradientUnits="userSpaceOnUse" x1="632.7128" y1="779.9073" x2="626.3647" y2="682.667">
					<stop  offset="0" style="stop-color:#CF9174"/>
					<stop  offset="1" style="stop-color:#966A56"/>
				</linearGradient>
				<path class="st45" d="M626.26,669.82c0,0,8,100.51,3.55,107.12c-4.44,6.61-5.48,5.43-5.48,5.43s9.92-0.44,13.92-1.18
					C642.25,780.44,636.03,661.82,626.26,669.82z"/>
				<linearGradient id="SVGID_35_" gradientUnits="userSpaceOnUse" x1="510.1143" y1="877.3754" x2="341.8823" y2="658.2">
					<stop  offset="0" style="stop-color:#E3A080"/>
					<stop  offset="1" style="stop-color:#AB6D52"/>
				</linearGradient>
				<path class="st46" d="M546.07,845.83c-0.03,1.25-2.03,110.88-8.22,92.33c-6.22-18.66-66.64-64.86-75.53-78.64
					c-8.89-13.77-23.88-41.37-49.76-61.75c-26.06-20.52-40.19-21.47-40.19-21.47c0.82-0.28,1.68-0.52,2.58-0.75
					c22.51-5.62,75.22,27.84,83.22,43.25c8,15.4,33.47,47.98,40.58,53.61c7.11,5.62,25.77,18.06,37.32-1.78
					C539.23,865.2,542.7,856.18,546.07,845.83z"/>
				<linearGradient id="SVGID_36_" gradientUnits="userSpaceOnUse" x1="579.9308" y1="542.3404" x2="587.2942" y2="487.1143">
					<stop  offset="0" style="stop-color:#DE9C7D"/>
					<stop  offset="1" style="stop-color:#FFE0D1"/>
				</linearGradient>
				<path class="st47" d="M574.83,550.23c0,0,16.88-3.26,23.69-2.07c0,0-7.08-49.06-19.1-51.54
					C559.28,492.48,564.76,504.62,574.83,550.23z"/>
				<linearGradient id="SVGID_37_" gradientUnits="userSpaceOnUse" x1="411.03" y1="838.7122" x2="356.384" y2="780.9561">
					<stop  offset="0" style="stop-color:#DE9C7D"/>
					<stop  offset="1" style="stop-color:#FFE0D1"/>
				</linearGradient>
				<path class="st48" d="M393.85,834.46c0,0,10.12-10.92,15.75-15.66c5.63-4.74-44.11-44.01-53.91-27.54
					C347.25,805.43,393.85,834.46,393.85,834.46z"/>
			</g>
		</g>
	</g>
</g>
</svg>
