<?xml version="1.0" encoding="utf-8"?>
<!-- Generator: Adobe Illustrator 24.0.1, SVG Export Plug-In . SVG Version: 6.00 Build 0)  -->
<svg version="1.1" id="Layer_1" xmlns="http://www.w3.org/2000/svg" xmlns:xlink="http://www.w3.org/1999/xlink" x="0px" y="0px"
	 viewBox="0 0 1000 1000" style="enable-background:new 0 0 1000 1000;" xml:space="preserve">
<style type="text/css">
	.st0{clip-path:url(#SVGID_2_);fill:#FAFAFA;}
	.st1{clip-path:url(#SVGID_2_);}
	.st2{fill:#F5F5F5;}
	.st3{fill:#EBEBEB;}
	.st4{fill:#E0E0E0;}
	.st5{fill:#FAFAFA;}
	.st6{fill:#FFFFFF;}
	.st7{fill:#263238;}
	.st8{fill:#5BDB98;}
	.st9{opacity:0.3;}
	.st10{opacity:0.4;}
	.st11{fill:#292526;}
</style>
<g>
	<defs>
		<circle id="SVGID_1_" cx="500" cy="500" r="500"/>
	</defs>
	<clipPath id="SVGID_2_">
		<use xlink:href="#SVGID_1_"  style="overflow:visible;"/>
	</clipPath>
	<circle class="st0" cx="500" cy="500" r="500"/>
	<g class="st1">
		<g>
			<g>
				<path class="st2" d="M973.4,283.81c0.85-6.16-7.84-11.22-14.37-11.75c-3.11-0.25-6.35,0.23-9.3-0.8
					c-6.39-2.23-8.94-10.48-15.18-13.11c-4.66-1.97-10.03-0.22-14.55,2.06c-4.52,2.27-8.99,5.14-14.04,5.46
					c-4.39,0.28-9.16-1.35-13,0.8c-2.86,1.6-4.36,4.9-7,6.84c-2.58,1.9-5.95,2.31-9.15,2.48c-3.2,0.17-6.52,0.21-9.44,1.54
					c-2.92,1.34-5.33,4.42-4.73,7.57L973.4,283.81z"/>
			</g>
		</g>
	</g>
	<g class="st1">
		<g>
			<g>
				<rect x="151.37" y="393.46" class="st2" width="122.7" height="388.87"/>
			</g>
		</g>
		<g>
			<g>
				<rect x="212.72" y="393.46" class="st3" width="61.35" height="387.8"/>
			</g>
		</g>
		<g>
			<g>
				<rect x="165.38" y="355.28" class="st2" width="43.33" height="38.18"/>
			</g>
		</g>
		<g>
			<g>
				<rect x="198.38" y="355.28" class="st3" width="10.33" height="38.18"/>
			</g>
		</g>
		<g>
			<g>
				<polyline class="st4" points="141.15,393.46 141.15,391.23 277.66,391.23 277.66,393.46 				"/>
			</g>
		</g>
		<g>
			<g>
				<rect x="175.59" y="410.11" class="st5" width="10.39" height="21.9"/>
			</g>
		</g>
		<g>
			<g>
				<g>
					<path class="st4" d="M212.72,440.61c0,0.23-13.74,0.42-30.67,0.42c-16.94,0-30.68-0.19-30.68-0.42
						c0-0.23,13.73-0.42,30.68-0.42C198.99,440.19,212.72,440.38,212.72,440.61z"/>
				</g>
			</g>
		</g>
		<g>
			<g>
				<g>
					<rect x="237.48" y="410.11" class="st4" width="10.39" height="21.9"/>
				</g>
			</g>
			<g>
				<g>
					<g>
						<path class="st4" d="M274.61,440.61c0,0.23-13.73,0.42-30.67,0.42c-16.95,0-30.68-0.19-30.68-0.42
							c0-0.23,13.73-0.42,30.68-0.42C260.87,440.19,274.61,440.38,274.61,440.61z"/>
					</g>
				</g>
			</g>
		</g>
		<g>
			<g>
				<g>
					<rect x="237.48" y="453.59" class="st4" width="10.39" height="21.9"/>
				</g>
			</g>
			<g>
				<g>
					<g>
						<path class="st4" d="M274.61,484.09c0,0.23-13.73,0.42-30.67,0.42c-16.95,0-30.68-0.19-30.68-0.42
							c0-0.23,13.73-0.42,30.68-0.42C260.87,483.67,274.61,483.86,274.61,484.09z"/>
					</g>
				</g>
			</g>
		</g>
		<g>
			<g>
				<g>
					<rect x="237.48" y="498.39" class="st4" width="10.39" height="21.9"/>
				</g>
			</g>
			<g>
				<g>
					<g>
						<path class="st4" d="M274.61,528.88c0,0.23-13.73,0.42-30.67,0.42c-16.95,0-30.68-0.19-30.68-0.42
							c0-0.23,13.73-0.42,30.68-0.42C260.87,528.46,274.61,528.65,274.61,528.88z"/>
					</g>
				</g>
			</g>
		</g>
		<g>
			<g>
				<g>
					<rect x="237.48" y="543.18" class="st4" width="10.39" height="21.9"/>
				</g>
			</g>
			<g>
				<g>
					<g>
						<path class="st4" d="M274.61,573.67c0,0.23-13.73,0.42-30.67,0.42c-16.95,0-30.68-0.19-30.68-0.42
							c0-0.23,13.73-0.42,30.68-0.42C260.87,573.26,274.61,573.44,274.61,573.67z"/>
					</g>
				</g>
			</g>
		</g>
		<g>
			<g>
				<g>
					<rect x="237.48" y="586.69" class="st4" width="10.39" height="21.9"/>
				</g>
			</g>
			<g>
				<g>
					<g>
						<path class="st4" d="M274.61,617.19c0,0.23-13.73,0.42-30.67,0.42c-16.95,0-30.68-0.19-30.68-0.42
							c0-0.23,13.73-0.42,30.68-0.42C260.87,616.77,274.61,616.96,274.61,617.19z"/>
					</g>
				</g>
			</g>
		</g>
		<g>
			<g>
				<g>
					<rect x="237.48" y="630.38" class="st4" width="10.39" height="21.9"/>
				</g>
			</g>
			<g>
				<g>
					<rect x="237.48" y="674.64" class="st4" width="10.39" height="21.9"/>
				</g>
			</g>
			<g>
				<g>
					<g>
						<path class="st4" d="M274.61,660.87c0,0.23-13.73,0.42-30.67,0.42c-16.95,0-30.68-0.19-30.68-0.42s13.73-0.42,30.68-0.42
							C260.87,660.46,274.61,660.64,274.61,660.87z"/>
					</g>
				</g>
			</g>
		</g>
		<g>
			<g>
				<rect x="175.59" y="454.26" class="st5" width="10.39" height="21.9"/>
			</g>
		</g>
		<g>
			<g>
				<g>
					<path class="st4" d="M212.72,484.75c0,0.23-13.74,0.42-30.67,0.42c-16.94,0-30.68-0.19-30.68-0.42
						c0-0.23,13.73-0.42,30.68-0.42C198.99,484.33,212.72,484.52,212.72,484.75z"/>
				</g>
			</g>
		</g>
		<g>
			<g>
				<rect x="175.59" y="498.4" class="st5" width="10.39" height="21.9"/>
			</g>
		</g>
		<g>
			<g>
				<g>
					<path class="st4" d="M212.72,528.9c0,0.23-13.74,0.42-30.67,0.42c-16.94,0-30.68-0.19-30.68-0.42c0-0.23,13.73-0.42,30.68-0.42
						C198.99,528.48,212.72,528.67,212.72,528.9z"/>
				</g>
			</g>
		</g>
		<g>
			<g>
				<rect x="175.59" y="542.55" class="st5" width="10.39" height="21.9"/>
			</g>
		</g>
		<g>
			<g>
				<g>
					<path class="st4" d="M212.72,573.04c0,0.23-13.74,0.42-30.67,0.42c-16.94,0-30.68-0.19-30.68-0.42
						c0-0.23,13.73-0.42,30.68-0.42C198.99,572.62,212.72,572.81,212.72,573.04z"/>
				</g>
			</g>
		</g>
		<g>
			<g>
				<rect x="175.59" y="586.69" class="st5" width="10.39" height="21.9"/>
			</g>
		</g>
		<g>
			<g>
				<g>
					<path class="st4" d="M212.72,617.19c0,0.23-13.74,0.42-30.67,0.42c-16.94,0-30.68-0.19-30.68-0.42
						c0-0.23,13.73-0.42,30.68-0.42C198.99,616.77,212.72,616.96,212.72,617.19z"/>
				</g>
			</g>
		</g>
		<g>
			<g>
				<rect x="175.59" y="630.83" class="st5" width="10.39" height="21.9"/>
			</g>
		</g>
		<g>
			<g>
				<g>
					<path class="st4" d="M212.72,661.33c0,0.23-13.74,0.42-30.67,0.42c-16.94,0-30.68-0.19-30.68-0.42
						c0-0.23,13.73-0.42,30.68-0.42C198.99,660.91,212.72,661.1,212.72,661.33z"/>
				</g>
			</g>
		</g>
		<g>
			<g>
				<g>
					<rect x="175.59" y="674.98" class="st5" width="10.39" height="21.9"/>
				</g>
			</g>
		</g>
	</g>
	<g class="st1">
		<g>
			<g>
				<rect x="581.38" y="304.77" class="st2" width="176.87" height="560.55"/>
			</g>
		</g>
		<g>
			<g>
				<rect x="669.82" y="304.77" class="st3" width="88.44" height="559.01"/>
			</g>
		</g>
		<g>
			<g>
				<rect x="601.58" y="249.74" class="st2" width="62.46" height="55.03"/>
			</g>
		</g>
		<g>
			<g>
				<rect x="649.15" y="249.74" class="st3" width="14.89" height="55.03"/>
			</g>
		</g>
		<g>
			<g>
				<polyline class="st4" points="566.64,304.77 566.64,301.57 763.43,301.57 763.43,304.77 				"/>
			</g>
		</g>
		<g>
			<g>
				<rect x="616.29" y="328.78" class="st5" width="14.97" height="31.57"/>
			</g>
		</g>
		<g>
			<g>
				<g>
					<path class="st4" d="M669.82,372.73c0,0.33-19.8,0.6-44.22,0.6c-24.43,0-44.22-0.27-44.22-0.6s19.79-0.6,44.22-0.6
						C650.02,372.13,669.82,372.4,669.82,372.73z"/>
				</g>
			</g>
		</g>
		<g>
			<g>
				<g>
					<rect x="705.5" y="328.78" class="st4" width="14.97" height="31.57"/>
				</g>
			</g>
			<g>
				<g>
					<g>
						<path class="st4" d="M759.02,372.73c0,0.33-19.8,0.6-44.22,0.6c-24.43,0-44.22-0.27-44.22-0.6s19.79-0.6,44.22-0.6
							C739.22,372.13,759.02,372.4,759.02,372.73z"/>
					</g>
				</g>
			</g>
		</g>
		<g>
			<g>
				<g>
					<rect x="705.5" y="391.45" class="st4" width="14.97" height="31.57"/>
				</g>
			</g>
			<g>
				<g>
					<g>
						<path class="st4" d="M759.02,435.41c0,0.33-19.8,0.6-44.22,0.6c-24.43,0-44.22-0.27-44.22-0.6c0-0.33,19.79-0.6,44.22-0.6
							C739.22,434.81,759.02,435.08,759.02,435.41z"/>
					</g>
				</g>
			</g>
		</g>
		<g>
			<g>
				<g>
					<rect x="705.5" y="456.02" class="st4" width="14.97" height="31.57"/>
				</g>
			</g>
			<g>
				<g>
					<g>
						<path class="st4" d="M759.02,499.98c0,0.33-19.8,0.6-44.22,0.6c-24.43,0-44.22-0.27-44.22-0.6c0-0.33,19.79-0.6,44.22-0.6
							C739.22,499.38,759.02,499.64,759.02,499.98z"/>
					</g>
				</g>
			</g>
		</g>
		<g>
			<g>
				<g>
					<rect x="705.5" y="520.59" class="st4" width="14.97" height="31.57"/>
				</g>
			</g>
			<g>
				<g>
					<g>
						<path class="st4" d="M759.02,564.54c0,0.33-19.8,0.6-44.22,0.6c-24.43,0-44.22-0.27-44.22-0.6c0-0.33,19.79-0.6,44.22-0.6
							C739.22,563.94,759.02,564.21,759.02,564.54z"/>
					</g>
				</g>
			</g>
		</g>
		<g>
			<g>
				<g>
					<rect x="705.5" y="583.31" class="st4" width="14.97" height="31.57"/>
				</g>
			</g>
			<g>
				<g>
					<g>
						<path class="st4" d="M759.02,627.27c0,0.33-19.8,0.6-44.22,0.6c-24.43,0-44.22-0.27-44.22-0.6c0-0.33,19.79-0.6,44.22-0.6
							C739.22,626.66,759.02,626.93,759.02,627.27z"/>
					</g>
				</g>
			</g>
		</g>
		<g>
			<g>
				<g>
					<rect x="705.5" y="646.28" class="st4" width="14.97" height="31.57"/>
				</g>
			</g>
			<g>
				<g>
					<rect x="705.5" y="710.08" class="st4" width="14.97" height="31.57"/>
				</g>
			</g>
			<g>
				<g>
					<g>
						<path class="st4" d="M759.02,690.24c0,0.33-19.8,0.6-44.22,0.6c-24.43,0-44.22-0.27-44.22-0.6s19.79-0.6,44.22-0.6
							C739.22,689.64,759.02,689.91,759.02,690.24z"/>
					</g>
				</g>
			</g>
		</g>
		<g>
			<g>
				<rect x="616.29" y="392.41" class="st5" width="14.97" height="31.57"/>
			</g>
		</g>
		<g>
			<g>
				<g>
					<path class="st4" d="M669.82,436.37c0,0.33-19.8,0.6-44.22,0.6c-24.43,0-44.22-0.27-44.22-0.6c0-0.33,19.79-0.6,44.22-0.6
						C650.02,435.76,669.82,436.03,669.82,436.37z"/>
				</g>
			</g>
		</g>
		<g>
			<g>
				<rect x="616.29" y="456.04" class="st5" width="14.97" height="31.57"/>
			</g>
		</g>
		<g>
			<g>
				<g>
					<path class="st4" d="M669.82,500c0,0.33-19.8,0.6-44.22,0.6c-24.43,0-44.22-0.27-44.22-0.6c0-0.33,19.79-0.6,44.22-0.6
						C650.02,499.4,669.82,499.67,669.82,500z"/>
				</g>
			</g>
		</g>
		<g>
			<g>
				<rect x="616.29" y="519.67" class="st5" width="14.97" height="31.57"/>
			</g>
		</g>
		<g>
			<g>
				<g>
					<path class="st4" d="M669.82,563.63c0,0.33-19.8,0.6-44.22,0.6c-24.43,0-44.22-0.27-44.22-0.6c0-0.33,19.79-0.6,44.22-0.6
						C650.02,563.03,669.82,563.3,669.82,563.63z"/>
				</g>
			</g>
		</g>
		<g>
			<g>
				<rect x="616.29" y="583.31" class="st5" width="14.97" height="31.57"/>
			</g>
		</g>
		<g>
			<g>
				<g>
					<path class="st4" d="M669.82,627.27c0,0.33-19.8,0.6-44.22,0.6c-24.43,0-44.22-0.27-44.22-0.6c0-0.33,19.79-0.6,44.22-0.6
						C650.02,626.66,669.82,626.93,669.82,627.27z"/>
				</g>
			</g>
		</g>
		<g>
			<g>
				<rect x="616.29" y="646.94" class="st5" width="14.97" height="31.57"/>
			</g>
		</g>
		<g>
			<g>
				<g>
					<path class="st4" d="M669.82,690.9c0,0.33-19.8,0.6-44.22,0.6c-24.43,0-44.22-0.27-44.22-0.6c0-0.33,19.79-0.6,44.22-0.6
						C650.02,690.3,669.82,690.57,669.82,690.9z"/>
				</g>
			</g>
		</g>
		<g>
			<g>
				<g>
					<rect x="616.29" y="710.57" class="st5" width="14.97" height="31.57"/>
				</g>
			</g>
		</g>
	</g>
	<g class="st1">
		<g>
			<g>
				<rect x="724.04" y="559.05" class="st2" width="96.63" height="306.25"/>
			</g>
		</g>
		<g>
			<g>
				<rect x="772.35" y="559.05" class="st3" width="48.32" height="305.41"/>
			</g>
		</g>
		<g>
			<g>
				<rect x="735.07" y="528.99" class="st2" width="34.12" height="30.07"/>
			</g>
		</g>
		<g>
			<g>
				<rect x="761.06" y="528.99" class="st3" width="8.13" height="30.07"/>
			</g>
		</g>
		<g>
			<g>
				<polyline class="st4" points="715.98,559.05 715.98,557.3 823.5,557.3 823.5,559.05 				"/>
			</g>
		</g>
		<g>
			<g>
				<rect x="743.11" y="572.17" class="st5" width="8.18" height="17.25"/>
			</g>
		</g>
		<g>
			<g>
				<g>
					<path class="st4" d="M772.35,596.18c0,0.18-10.82,0.33-24.16,0.33c-13.34,0-24.16-0.15-24.16-0.33
						c0-0.18,10.81-0.33,24.16-0.33C761.53,595.85,772.35,596,772.35,596.18z"/>
				</g>
			</g>
		</g>
		<g>
			<g>
				<g>
					<rect x="791.85" y="572.17" class="st4" width="8.18" height="17.25"/>
				</g>
			</g>
			<g>
				<g>
					<g>
						<path class="st4" d="M821.09,596.18c0,0.18-10.82,0.33-24.16,0.33c-13.34,0-24.16-0.15-24.16-0.33
							c0-0.18,10.81-0.33,24.16-0.33C810.27,595.85,821.09,596,821.09,596.18z"/>
					</g>
				</g>
			</g>
		</g>
		<g>
			<g>
				<g>
					<rect x="791.85" y="606.41" class="st4" width="8.18" height="17.25"/>
				</g>
			</g>
			<g>
				<g>
					<g>
						<path class="st4" d="M821.09,630.43c0,0.18-10.82,0.33-24.16,0.33c-13.34,0-24.16-0.15-24.16-0.33
							c0-0.18,10.81-0.33,24.16-0.33C810.27,630.1,821.09,630.24,821.09,630.43z"/>
					</g>
				</g>
			</g>
		</g>
		<g>
			<g>
				<g>
					<rect x="791.85" y="641.68" class="st4" width="8.18" height="17.25"/>
				</g>
			</g>
			<g>
				<g>
					<g>
						<path class="st4" d="M821.09,665.7c0,0.18-10.82,0.33-24.16,0.33c-13.34,0-24.16-0.15-24.16-0.33
							c0-0.18,10.81-0.33,24.16-0.33C810.27,665.37,821.09,665.52,821.09,665.7z"/>
					</g>
				</g>
			</g>
		</g>
		<g>
			<g>
				<g>
					<rect x="791.85" y="676.96" class="st4" width="8.18" height="17.25"/>
				</g>
			</g>
			<g>
				<g>
					<g>
						<path class="st4" d="M821.09,700.98c0,0.18-10.82,0.33-24.16,0.33c-13.34,0-24.16-0.15-24.16-0.33
							c0-0.18,10.81-0.33,24.16-0.33C810.27,700.65,821.09,700.79,821.09,700.98z"/>
					</g>
				</g>
			</g>
		</g>
		<g>
			<g>
				<g>
					<rect x="791.85" y="711.23" class="st4" width="8.18" height="17.25"/>
				</g>
			</g>
			<g>
				<g>
					<g>
						<path class="st4" d="M821.09,735.24c0,0.18-10.82,0.33-24.16,0.33c-13.34,0-24.16-0.15-24.16-0.33
							c0-0.18,10.81-0.33,24.16-0.33C810.27,734.91,821.09,735.06,821.09,735.24z"/>
					</g>
				</g>
			</g>
		</g>
		<g>
			<g>
				<g>
					<rect x="791.85" y="745.63" class="st4" width="8.18" height="17.25"/>
				</g>
			</g>
			<g>
				<g>
					<rect x="791.85" y="780.49" class="st4" width="8.18" height="17.25"/>
				</g>
			</g>
			<g>
				<g>
					<g>
						<path class="st4" d="M821.09,769.65c0,0.18-10.82,0.33-24.16,0.33c-13.34,0-24.16-0.15-24.16-0.33
							c0-0.18,10.81-0.33,24.16-0.33C810.27,769.32,821.09,769.47,821.09,769.65z"/>
					</g>
				</g>
			</g>
		</g>
		<g>
			<g>
				<rect x="743.11" y="606.93" class="st5" width="8.18" height="17.25"/>
			</g>
		</g>
		<g>
			<g>
				<g>
					<path class="st4" d="M772.35,630.95c0,0.18-10.82,0.33-24.16,0.33c-13.34,0-24.16-0.15-24.16-0.33
						c0-0.18,10.81-0.33,24.16-0.33C761.53,630.62,772.35,630.77,772.35,630.95z"/>
				</g>
			</g>
		</g>
		<g>
			<g>
				<rect x="743.11" y="641.7" class="st5" width="8.18" height="17.25"/>
			</g>
		</g>
		<g>
			<g>
				<g>
					<path class="st4" d="M772.35,665.71c0,0.18-10.82,0.33-24.16,0.33c-13.34,0-24.16-0.15-24.16-0.33
						c0-0.18,10.81-0.33,24.16-0.33C761.53,665.38,772.35,665.53,772.35,665.71z"/>
				</g>
			</g>
		</g>
		<g>
			<g>
				<rect x="743.11" y="676.46" class="st5" width="8.18" height="17.25"/>
			</g>
		</g>
		<g>
			<g>
				<g>
					<path class="st4" d="M772.35,700.48c0,0.18-10.82,0.33-24.16,0.33c-13.34,0-24.16-0.15-24.16-0.33
						c0-0.18,10.81-0.33,24.16-0.33C761.53,700.15,772.35,700.3,772.35,700.48z"/>
				</g>
			</g>
		</g>
		<g>
			<g>
				<rect x="743.11" y="711.23" class="st5" width="8.18" height="17.25"/>
			</g>
		</g>
		<g>
			<g>
				<g>
					<path class="st4" d="M772.35,735.24c0,0.18-10.82,0.33-24.16,0.33c-13.34,0-24.16-0.15-24.16-0.33
						c0-0.18,10.81-0.33,24.16-0.33C761.53,734.91,772.35,735.06,772.35,735.24z"/>
				</g>
			</g>
		</g>
		<g>
			<g>
				<rect x="743.11" y="745.99" class="st5" width="8.18" height="17.25"/>
			</g>
		</g>
		<g>
			<g>
				<g>
					<path class="st4" d="M772.35,770.01c0,0.18-10.82,0.33-24.16,0.33c-13.34,0-24.16-0.15-24.16-0.33
						c0-0.18,10.81-0.33,24.16-0.33C761.53,769.68,772.35,769.83,772.35,770.01z"/>
				</g>
			</g>
		</g>
		<g>
			<g>
				<g>
					<rect x="743.11" y="780.76" class="st5" width="8.18" height="17.25"/>
				</g>
			</g>
		</g>
	</g>
	<g class="st1">
		<g>
			<g>
				<g>
					<rect x="232.02" y="667.86" class="st4" width="104.03" height="197.44"/>
				</g>
			</g>
			<g>
				<g>
					<rect x="287.28" y="667.86" class="st3" width="48.78" height="197.44"/>
				</g>
			</g>
		</g>
		<g>
			<g>
				<g>
					<rect x="253.84" y="686.44" class="st2" width="9.35" height="22.73"/>
				</g>
			</g>
			<g>
				<g>
					<rect x="253.84" y="775.38" class="st2" width="9.35" height="22.73"/>
				</g>
			</g>
			<g>
				<g>
					<g>
						<path class="st2" d="M287.28,718.08c0,0.2-12.37,0.35-27.63,0.35c-15.26,0-27.63-0.16-27.63-0.35c0-0.2,12.37-0.35,27.63-0.35
							C274.91,717.73,287.28,717.89,287.28,718.08z"/>
					</g>
				</g>
			</g>
		</g>
		<g>
			<g>
				<g>
					<rect x="253.84" y="731.25" class="st2" width="9.35" height="22.73"/>
				</g>
			</g>
			<g>
				<g>
					<g>
						<path class="st2" d="M287.28,762.89c0,0.2-12.37,0.35-27.63,0.35c-15.26,0-27.63-0.16-27.63-0.35s12.37-0.35,27.63-0.35
							C274.91,762.54,287.28,762.7,287.28,762.89z"/>
					</g>
				</g>
			</g>
		</g>
		<g>
			<g>
				<rect x="297.63" y="686.44" class="st4" width="9.35" height="22.73"/>
			</g>
		</g>
		<g>
			<g>
				<rect x="317.93" y="686.44" class="st4" width="9.35" height="22.73"/>
			</g>
		</g>
		<g>
			<g>
				<rect x="297.63" y="729.56" class="st4" width="9.35" height="22.73"/>
			</g>
		</g>
		<g>
			<g>
				<rect x="317.93" y="729.56" class="st4" width="9.35" height="22.73"/>
			</g>
		</g>
		<g>
			<g>
				<rect x="297.63" y="772.69" class="st4" width="9.35" height="22.73"/>
			</g>
		</g>
		<g>
			<g>
				<rect x="317.93" y="772.69" class="st4" width="9.35" height="22.73"/>
			</g>
		</g>
		<g>
			<g>
				<rect x="224.2" y="663.08" class="st4" width="119.68" height="4.95"/>
			</g>
		</g>
		<g>
			<g>
				<g>
					<path class="st3" d="M336.78,668.5c0,0.2-23.25,0.35-51.93,0.35c-28.69,0-51.93-0.16-51.93-0.35c0-0.2,23.25-0.35,51.93-0.35
						C313.53,668.14,336.78,668.3,336.78,668.5z"/>
				</g>
			</g>
		</g>
	</g>
	<g class="st1">
		<g>
			<g>
				<g>
					<polygon class="st3" points="233.21,865.17 65.66,865.17 64.93,600.37 232.48,600.37 					"/>
				</g>
			</g>
			<g>
				<g>
					<rect x="148.71" y="600.37" class="st4" width="83.77" height="264.8"/>
				</g>
			</g>
			<g>
				<g>
					<rect x="84.07" y="548.24" class="st3" width="59.17" height="52.13"/>
				</g>
			</g>
			<g>
				<g>
					<rect x="129.13" y="548.24" class="st4" width="14.1" height="52.13"/>
				</g>
			</g>
			<g>
				<g>
					<rect x="50.97" y="597.33" class="st4" width="186.42" height="3.04"/>
				</g>
			</g>
			<g>
				<g>
					<rect x="98.01" y="623.1" class="st6" width="14.18" height="29.9"/>
				</g>
			</g>
			<g>
				<g>
					<g>
						<path class="st4" d="M148.71,664.74c0,0.32-18.76,0.57-41.88,0.57c-23.14,0-41.89-0.26-41.89-0.57
							c0-0.32,18.75-0.57,41.89-0.57C129.95,664.17,148.71,664.43,148.71,664.74z"/>
					</g>
				</g>
			</g>
			<g>
				<g>
					<g>
						<rect x="182.51" y="623.1" class="st2" width="14.18" height="29.9"/>
					</g>
				</g>
				<g>
					<g>
						<g>
							<path class="st3" d="M233.21,664.74c0,0.32-18.76,0.57-41.88,0.57c-23.14,0-41.89-0.26-41.89-0.57
								c0-0.32,18.75-0.57,41.89-0.57C214.46,664.17,233.21,664.43,233.21,664.74z"/>
						</g>
					</g>
				</g>
			</g>
			<g>
				<g>
					<g>
						<rect x="182.51" y="682.48" class="st2" width="14.18" height="29.9"/>
					</g>
				</g>
				<g>
					<g>
						<g>
							<path class="st3" d="M233.21,724.12c0,0.32-18.76,0.57-41.88,0.57c-23.14,0-41.89-0.26-41.89-0.57
								c0-0.31,18.75-0.57,41.89-0.57C214.46,723.55,233.21,723.8,233.21,724.12z"/>
						</g>
					</g>
				</g>
			</g>
			<g>
				<g>
					<g>
						<rect x="182.51" y="743.64" class="st2" width="14.18" height="29.9"/>
					</g>
				</g>
				<g>
					<g>
						<g>
							<path class="st3" d="M233.21,785.28c0,0.32-18.76,0.57-41.88,0.57c-23.14,0-41.89-0.26-41.89-0.57s18.75-0.57,41.89-0.57
								C214.46,784.71,233.21,784.96,233.21,785.28z"/>
						</g>
					</g>
				</g>
			</g>
			<g>
				<g>
					<g>
						<rect x="182.51" y="804.8" class="st2" width="14.18" height="29.9"/>
					</g>
				</g>
				<g>
					<g>
						<g>
							<path class="st3" d="M233.21,846.44c0,0.32-18.76,0.57-41.88,0.57c-23.14,0-41.89-0.26-41.89-0.57
								c0-0.32,18.75-0.57,41.89-0.57C214.46,845.87,233.21,846.13,233.21,846.44z"/>
						</g>
					</g>
				</g>
			</g>
			<g>
				<g>
					<rect x="98.01" y="683.38" class="st6" width="14.18" height="29.9"/>
				</g>
			</g>
			<g>
				<g>
					<g>
						<path class="st4" d="M148.71,725.02c0,0.32-18.76,0.57-41.88,0.57c-23.14,0-41.89-0.26-41.89-0.57
							c0-0.32,18.75-0.57,41.89-0.57C129.95,724.45,148.71,724.71,148.71,725.02z"/>
					</g>
				</g>
			</g>
			<g>
				<g>
					<rect x="98.01" y="743.66" class="st6" width="14.18" height="29.9"/>
				</g>
			</g>
			<g>
				<g>
					<g>
						<path class="st4" d="M148.71,785.3c0,0.32-18.76,0.57-41.88,0.57c-23.14,0-41.89-0.26-41.89-0.57
							c0-0.32,18.75-0.57,41.89-0.57C129.95,784.73,148.71,784.99,148.71,785.3z"/>
					</g>
				</g>
			</g>
			<g>
				<g>
					<rect x="98.01" y="803.94" class="st6" width="14.18" height="29.9"/>
				</g>
			</g>
			<g>
				<g>
					<g>
						<path class="st4" d="M148.71,845.58c0,0.32-18.76,0.57-41.88,0.57c-23.14,0-41.89-0.26-41.89-0.57
							c0-0.32,18.75-0.57,41.89-0.57C129.95,845.01,148.71,845.26,148.71,845.58z"/>
					</g>
				</g>
			</g>
		</g>
	</g>
	<g class="st1">
		<g>
			<g>
				<path class="st2" d="M1027.43,455.14c1.21-8.8-11.21-16.04-20.54-16.79c-4.45-0.36-9.07,0.32-13.29-1.15
					c-9.13-3.18-12.78-14.98-21.69-18.74c-6.66-2.81-14.33-0.31-20.79,2.94c-6.46,3.25-12.84,7.34-20.06,7.8
					c-6.28,0.4-13.09-1.93-18.59,1.14c-4.09,2.28-6.24,7-10.01,9.78c-3.69,2.72-8.5,3.3-13.08,3.55c-4.58,0.25-9.32,0.3-13.49,2.2
					c-4.17,1.91-7.62,6.32-6.75,10.82L1027.43,455.14z"/>
			</g>
		</g>
	</g>
	<g class="st1">
		<g>
			<g>
				<g>
					<g>
						<rect x="929.77" y="768.4" class="st3" width="134.78" height="96.9"/>
					</g>
				</g>
				<g>
					<g>
						<path class="st2" d="M965.93,768.4c0.19,0,0,20.46,0,20.46h-9.98V768.4H965.93z"/>
					</g>
				</g>
			</g>
			<g>
				<g>
					
						<rect x="997.17" y="768.4" transform="matrix(-1 -1.224647e-16 1.224647e-16 -1 2061.7263 1633.705)" class="st4" width="67.39" height="96.9"/>
				</g>
			</g>
		</g>
		<g>
			<g>
				<rect x="933.88" y="846.33" class="st6" width="18.04" height="12.77"/>
			</g>
		</g>
		<g>
			<g>
				<rect x="955.26" y="846.33" class="st6" width="9.02" height="12.77"/>
			</g>
		</g>
	</g>
	<g class="st1">
		<g>
			<g>
				<g>
					<g>
						<rect x="964" y="705.31" class="st3" width="87.76" height="63.09"/>
					</g>
				</g>
				<g>
					<g>
						<path class="st2" d="M987.53,705.31c0.13,0,0,13.32,0,13.32h-6.5v-13.32H987.53z"/>
					</g>
				</g>
			</g>
			<g>
				<g>
					
						<rect x="1007.88" y="705.31" transform="matrix(-1 -1.224647e-16 1.224647e-16 -1 2059.6311 1473.714)" class="st4" width="43.88" height="63.09"/>
				</g>
			</g>
		</g>
		<g>
			<g>
				<rect x="966.67" y="756.05" class="st6" width="11.75" height="8.31"/>
			</g>
		</g>
		<g>
			<g>
				<rect x="980.59" y="756.05" class="st6" width="5.87" height="8.31"/>
			</g>
		</g>
	</g>
	<g class="st1">
		<g>
			<g>
				<path class="st3" d="M154.69,286.01c0.69-4.98-6.35-9.08-11.63-9.51c-2.52-0.2-5.14,0.18-7.52-0.65
					c-5.17-1.8-7.24-8.48-12.29-10.61c-3.77-1.59-8.12-0.17-11.77,1.67c-3.66,1.84-7.27,4.16-11.36,4.42
					c-3.55,0.23-7.41-1.09-10.52,0.65c-2.32,1.29-3.53,3.96-5.67,5.54c-2.09,1.54-4.82,1.87-7.41,2.01
					c-2.59,0.14-5.28,0.17-7.64,1.25c-2.36,1.08-4.31,3.58-3.82,6.13L154.69,286.01z"/>
			</g>
		</g>
	</g>
	<g class="st1">
		<g>
			<g>
				<path class="st3" d="M1051.92,387.16c0.67-4.86-6.19-8.86-11.34-9.27c-2.46-0.2-5.01,0.18-7.34-0.63
					c-5.04-1.76-7.06-8.28-11.98-10.35c-3.68-1.55-7.92-0.17-11.49,1.63c-3.57,1.8-7.09,4.06-11.08,4.31
					c-3.47,0.22-7.23-1.06-10.27,0.63c-2.26,1.26-3.44,3.87-5.53,5.4c-2.04,1.5-4.7,1.82-7.23,1.96c-2.53,0.14-5.15,0.16-7.45,1.22
					c-2.3,1.05-4.21,3.49-3.73,5.98L1051.92,387.16z"/>
			</g>
		</g>
	</g>
	<g class="st1">
		<g>
			<g>
				<path class="st2" d="M309.03,316.86c1.25-9.1-11.59-16.59-21.24-17.37c-4.6-0.37-9.38,0.33-13.74-1.19
					c-9.45-3.29-13.22-15.5-22.44-19.39c-6.89-2.91-14.83-0.32-21.51,3.04c-6.68,3.36-13.28,7.59-20.75,8.07
					c-6.49,0.42-13.54-1.99-19.22,1.18c-4.23,2.36-6.45,7.24-10.35,10.12c-3.82,2.82-8.8,3.41-13.53,3.67
					c-4.74,0.26-9.64,0.31-13.95,2.28c-4.31,1.97-7.88,6.53-6.99,11.19L309.03,316.86z"/>
			</g>
		</g>
	</g>
	<g class="st1">
		<g>
			<g>
				<path class="st7" d="M1064.07,865.3c0,0.21-221.69,0.38-495.09,0.38c-273.5,0-495.14-0.17-495.14-0.38
					c0-0.21,221.64-0.38,495.14-0.38C842.38,864.92,1064.07,865.09,1064.07,865.3z"/>
			</g>
		</g>
	</g>
	<g class="st1">
		<g>
			<g>
				<g>
					<g>
						<g>
							<path class="st8" d="M469.94,804.51c3.1,0.61,5.76,2.76,7.44,5.44c1.68,2.67,2.47,5.82,2.8,8.97
								c0.63,6.08-1.42,12.81-4.01,18.35c-5.95-3.26-8.78-10.61-9.97-14.43C464.31,816.79,464.55,804.73,469.94,804.51"/>
						</g>
					</g>
				</g>
			</g>
		</g>
		<g>
			<g>
				<g>
					<g>
						<g>
							<path class="st8" d="M484.13,845.78c-1.54-3.18-0.95-7.16,1.12-10.02c2.07-2.86,5.45-4.62,8.95-5.11
								c1.62-0.23,3.44-0.14,4.63,0.97c1.12,1.04,1.4,2.76,1,4.24c-0.4,1.47-1.38,2.72-2.47,3.79
								C493.63,843.31,489.35,846.17,484.13,845.78"/>
						</g>
					</g>
				</g>
			</g>
		</g>
		<g>
			<g>
				<g>
					<g>
						<g>
							<g>
								<path class="st7" d="M481.72,865.38c-0.03,0-0.06-0.45-0.09-1.26c-0.03-0.89-0.07-2.04-0.12-3.43
									c-0.05-2.87-0.21-6.97,1.09-11.27c1.27-4.28,3.61-7.74,5.79-9.69c1.08-0.99,2.07-1.65,2.78-2.04
									c0.35-0.21,0.65-0.33,0.84-0.42c0.2-0.09,0.3-0.13,0.31-0.11c0.06,0.09-1.64,0.8-3.71,2.8c-2.09,1.96-4.33,5.38-5.58,9.59
									c-1.27,4.21-1.17,8.26-1.2,11.14c0,1.45,0,2.62-0.02,3.43C481.78,864.93,481.75,865.38,481.72,865.38z"/>
							</g>
						</g>
					</g>
				</g>
			</g>
		</g>
		<g>
			<g>
				<g>
					<g>
						<g>
							<g>
								<path class="st7" d="M470.56,813.71c0.01,0,0.08,0.17,0.18,0.52c0.11,0.39,0.25,0.89,0.43,1.51
									c0.36,1.31,0.86,3.22,1.46,5.58c1.2,4.72,2.76,11.26,4.33,18.53c1.56,7.27,2.83,13.88,3.68,18.67
									c0.43,2.4,0.75,4.34,0.96,5.69c0.1,0.64,0.17,1.15,0.23,1.55c0.05,0.36,0.07,0.54,0.05,0.55c-0.01,0-0.06-0.18-0.14-0.53
									c-0.08-0.4-0.19-0.91-0.31-1.54c-0.27-1.39-0.64-3.31-1.1-5.66c-0.93-4.78-2.24-11.37-3.8-18.63
									c-1.56-7.26-3.08-13.81-4.2-18.55c-0.55-2.33-1-4.23-1.33-5.61c-0.14-0.63-0.26-1.13-0.35-1.53
									C470.58,813.9,470.55,813.71,470.56,813.71z"/>
							</g>
						</g>
					</g>
				</g>
			</g>
		</g>
		<g>
			<g>
				<g>
					<g>
						<g>
							<path class="st8" d="M476.28,851.29c-2.71-6.93-8.98-12.35-16.22-14.05c-1.84-0.43-4.14-0.48-5.24,1.07
								c-1.1,1.55-0.3,3.71,0.75,5.29c4.38,6.57,13.01,9.99,20.7,8.21"/>
						</g>
					</g>
				</g>
			</g>
		</g>
		<g>
			<g>
				<g>
					<g>
						<g>
							<g>
								<path class="st7" d="M462.1,842.68c0.01-0.03,0.42,0.05,1.16,0.23c0.37,0.09,0.83,0.19,1.34,0.38
									c0.51,0.18,1.11,0.34,1.74,0.62c0.63,0.27,1.33,0.54,2.03,0.93c0.73,0.35,1.46,0.8,2.23,1.28c1.51,1,3.08,2.24,4.52,3.76
									c1.43,1.53,2.58,3.17,3.48,4.74c0.43,0.8,0.83,1.56,1.12,2.31c0.34,0.73,0.56,1.45,0.78,2.1c0.24,0.64,0.34,1.26,0.48,1.78
									c0.14,0.52,0.21,0.99,0.26,1.37c0.11,0.76,0.15,1.17,0.12,1.18c-0.1,0.02-0.29-1.67-1.16-4.23
									c-0.23-0.63-0.47-1.34-0.81-2.05c-0.3-0.73-0.71-1.47-1.14-2.26c-0.9-1.53-2.04-3.14-3.45-4.64
									c-1.42-1.49-2.95-2.72-4.43-3.72c-0.75-0.48-1.46-0.94-2.17-1.29c-0.69-0.4-1.37-0.69-1.98-0.97
									C463.73,843.13,462.08,842.78,462.1,842.68z"/>
							</g>
						</g>
					</g>
				</g>
			</g>
		</g>
	</g>
	<g class="st1">
		<g>
			<g>
				<g>
					<g>
						<g>
							<path class="st8" d="M932.24,850.09c0.55-2.13-0.85-4.27-2.41-5.81c-1.56-1.54-3.44-2.93-4.25-4.97
								c-1.32-3.31,0.45-7.59-1.8-10.35c-1.32-1.62-3.7-2.17-4.87-3.9c-0.62-0.91-0.82-2.03-1.06-3.1
								c-1.24-5.47-3.97-10.59-7.83-14.66c-0.27,4.87,0.81,9.81,3.07,14.13c0.91,1.74,2.03,3.43,2.33,5.37
								c0.49,3.15-1.27,6.39-0.49,9.48c0.88,3.53,4.85,5.9,5.04,9.53c0.16,3.07-2.52,5.77-2.32,8.84c0.09,1.31,0.69,2.52,1.37,3.65
								c2.38,3.95,5.87,6.67,11.16,6.58l6.48,0.23L932.24,850.09z"/>
						</g>
					</g>
				</g>
			</g>
		</g>
		<g class="st9">
			<g>
				<g>
					<g>
						<g>
							<g>
								<path d="M932.24,850.09c0.55-2.13-0.85-4.27-2.41-5.81c-1.56-1.54-3.44-2.93-4.25-4.97c-1.32-3.31,0.45-7.59-1.8-10.35
									c-1.32-1.62-3.7-2.17-4.87-3.9c-0.62-0.91-0.82-2.03-1.06-3.1c-1.24-5.47-3.97-10.59-7.83-14.66
									c-0.27,4.87,0.81,9.81,3.07,14.13c0.91,1.74,2.03,3.43,2.33,5.37c0.49,3.15-1.27,6.39-0.49,9.48
									c0.88,3.53,4.85,5.9,5.04,9.53c0.16,3.07-2.52,5.77-2.32,8.84c0.09,1.31,0.69,2.52,1.37,3.65
									c2.38,3.95,5.87,6.67,11.16,6.58l6.48,0.23L932.24,850.09z"/>
							</g>
						</g>
					</g>
				</g>
			</g>
		</g>
		<g>
			<g>
				<g>
					<g>
						<g>
							<g>
								<g>
									<g>
										<path class="st7" d="M937.97,865.26c0,0,0.62,0.14,1.78-0.04c0.58-0.08,1.3-0.24,2.11-0.53c0.81-0.29,1.72-0.71,2.6-1.43
											c0.42-0.37,0.84-0.82,1.07-1.43c0.22-0.6,0.26-1.26,0.31-1.94c0.03-0.68,0.04-1.38,0.15-2.1
											c0.11-0.71,0.39-1.42,0.79-2.08c0.76-1.34,2.03-2.61,2.44-4.44c0.44-1.79,0.13-3.73-0.18-5.68
											c-0.3-1.94-0.59-4.06,0.15-6.09c0.7-2.03,2.12-3.86,2.83-6.14c0.71-2.31,0.38-4.79,0.53-7.24
											c0.07-1.23,0.31-2.46,0.84-3.6c0.52-1.15,1.25-2.23,1.82-3.44c1.15-2.44,1.35-5.21,1.67-7.92
											c0.15-1.37,0.31-2.75,0.47-4.14c0.15-1.4,0.28-2.8,0.72-4.15c0.4-1.36,0.98-2.67,1.55-4.01c0.28-0.67,0.58-1.35,0.75-2.1
											c0.13-0.76,0.16-1.48,0.21-2.23c0.07-1.49,0.01-2.99-0.17-4.49c-0.18-1.5-0.45-2.98-0.61-4.48
											c-0.01-0.09-0.02-0.18-0.03-0.26l-0.03-0.3l-0.27,0.13c-1.39,0.7-2.58,1.73-3.49,2.95c-0.93,1.21-1.6,2.57-2.14,3.95
											c-1.08,2.79-1.47,5.7-2.02,8.49c-0.53,2.79-1.24,5.53-2.66,7.84c-0.71,1.15-1.57,2.21-2.32,3.33
											c-0.75,1.12-1.41,2.35-1.61,3.69c-0.38,2.74,1.13,5.15,0.81,7.58c-0.11,1.21-0.59,2.33-1.18,3.36
											c-0.59,1.04-1.28,2-1.94,2.96c-0.66,0.97-1.28,1.94-1.74,2.99c-0.47,1.04-0.73,2.16-0.8,3.25
											c-0.16,2.19,0.15,4.26-0.01,6.22c-0.13,1.96-0.82,3.74-1.6,5.33c-0.78,1.59-1.66,3.04-2.39,4.44
											c-0.37,0.7-0.71,1.38-0.98,2.07c-0.29,0.68-0.44,1.38-0.57,2.05c-0.21,1.34-0.19,2.6-0.05,3.7
											c0.28,2.22,1.11,3.82,1.85,4.72c0.17,0.24,0.37,0.41,0.52,0.57c0.15,0.16,0.3,0.27,0.43,0.36
											C937.85,865.18,937.97,865.26,937.97,865.26c0.03-0.03-0.53-0.33-1.26-1.24c-0.71-0.9-1.51-2.49-1.76-4.69
											c-0.13-1.09-0.14-2.33,0.08-3.65c0.14-0.65,0.28-1.34,0.57-2c0.28-0.67,0.62-1.35,0.99-2.04
											c0.74-1.39,1.62-2.82,2.42-4.43c0.79-1.6,1.51-3.41,1.66-5.42c0.17-2-0.13-4.08,0.03-6.22c0.07-1.07,0.33-2.13,0.78-3.14
											c0.45-1.01,1.06-1.97,1.72-2.93c0.66-0.96,1.36-1.92,1.96-2.98c0.61-1.05,1.11-2.22,1.24-3.5
											c0.31-2.59-1.19-5.01-0.8-7.56c0.19-1.26,0.81-2.44,1.55-3.53c0.74-1.11,1.6-2.16,2.34-3.34
											c1.47-2.38,2.19-5.17,2.73-7.97c0.55-2.8,0.94-5.69,2.01-8.42c0.53-1.36,1.19-2.68,2.09-3.85
											c0.88-1.17,2.02-2.16,3.34-2.82l-0.3-0.17c0.01,0.08,0.02,0.17,0.03,0.26c0.16,1.52,0.43,3,0.61,4.48
											c0.18,1.48,0.24,2.95,0.17,4.42c-0.04,0.72-0.09,1.48-0.2,2.16c-0.16,0.68-0.45,1.35-0.73,2.02
											c-0.57,1.33-1.16,2.67-1.56,4.06c-0.45,1.38-0.58,2.83-0.73,4.21c-0.15,1.4-0.31,2.78-0.46,4.15
											c-0.31,2.72-0.51,5.45-1.62,7.81c-0.55,1.17-1.27,2.26-1.81,3.44c-0.56,1.18-0.8,2.48-0.87,3.73
											c-0.14,2.5,0.18,4.95-0.49,7.16c-0.67,2.21-2.09,4.05-2.8,6.14c-0.76,2.11-0.45,4.3-0.14,6.24
											c0.31,1.95,0.63,3.85,0.21,5.58c-0.37,1.74-1.61,3-2.39,4.38c-0.41,0.69-0.7,1.43-0.8,2.17
											c-0.11,0.74-0.11,1.45-0.14,2.12c-0.03,0.67-0.07,1.32-0.28,1.88c-0.2,0.56-0.6,1-1.01,1.36
											c-0.85,0.7-1.75,1.13-2.54,1.43c-0.8,0.3-1.5,0.47-2.08,0.56c-0.57,0.1-1.02,0.12-1.32,0.13
											C938.13,865.26,937.97,865.26,937.97,865.26z"/>
									</g>
								</g>
							</g>
						</g>
					</g>
				</g>
				<g>
					<g>
						<g>
							<g>
								<g>
									<g>
										<path class="st7" d="M958.46,788.89c-0.01,0-0.03,0.06-0.06,0.2c-0.04,0.16-0.09,0.35-0.14,0.58
											c-0.13,0.51-0.28,1.28-0.52,2.24c-0.25,0.96-0.84,2.05-1.35,3.39c-0.52,1.33-1.05,2.87-1.54,4.6
											c-0.49,1.73-0.93,3.65-1.39,5.71c-0.47,2.05-0.94,4.25-2.08,6.33c-0.53,1.05-1.13,2.12-1.6,3.28
											c-0.49,1.17-0.75,2.44-0.93,3.72c-0.31,2.57-0.78,5.18-1.4,7.84c-1.3,5.31-2.54,10.37-3.67,14.98
											c-1.15,4.59-2.2,8.73-3.07,12.22c-0.85,3.46-1.55,6.26-2.04,8.25c-0.23,0.95-0.4,1.7-0.53,2.25
											c-0.05,0.24-0.09,0.43-0.13,0.59c-0.03,0.13-0.04,0.2-0.03,0.2c0.01,0,0.03-0.06,0.07-0.19c0.04-0.15,0.1-0.34,0.17-0.58
											c0.15-0.54,0.35-1.29,0.61-2.23c0.52-1.97,1.26-4.77,2.16-8.21c0.9-3.48,1.97-7.61,3.16-12.2
											c1.14-4.61,2.39-9.67,3.7-14.98c0.62-2.66,1.09-5.32,1.39-7.88c0.18-1.27,0.43-2.5,0.9-3.63c0.46-1.14,1.05-2.2,1.58-3.26
											c1.14-2.12,1.62-4.38,2.07-6.43c0.44-2.06,0.86-3.98,1.34-5.7c0.47-1.73,0.98-3.26,1.47-4.59
											c0.48-1.33,1.05-2.43,1.28-3.43c0.22-0.99,0.35-1.75,0.45-2.27c0.04-0.24,0.08-0.43,0.1-0.59
											C958.46,788.96,958.47,788.89,958.46,788.89z"/>
									</g>
								</g>
							</g>
						</g>
					</g>
				</g>
			</g>
			<g>
				<g>
					<g>
						<g>
							<g>
								<g>
									<path class="st8" d="M939.12,865.28c4.23-2.52,5.45-10.16,3.68-14.76c-1.77-4.6-4.86-8.8-5.33-13.7
										c-0.37-3.77,0.87-7.64-0.01-11.32c-1.18-4.97-6.04-8.82-5.98-13.93c0.03-2.87,1.66-5.57,1.53-8.43
										c-0.16-3.51-2.86-6.3-4.53-9.4c-2.56-4.74-2.72-10.34-3.6-15.65c-0.87-5.31-2.9-11-7.61-13.61
										c-0.7,4.51-1.88,7.6-1.51,13.71c0.13,2.19,2.68,6.39,3.03,11.2c0.21,2.87,0.35,5.75,0.53,8.63
										c0.17,2.8,0.35,5.65,1.36,8.27c0.77,2.01,2,3.83,2.57,5.9c1.07,3.9-0.34,8.12,0.53,12.07c0.73,3.35,3.05,6.22,3.52,9.62
										c0.66,4.77-2.42,9.72-0.84,14.26c0.78,2.26,2.64,4.07,3.17,6.4c0.41,1.81-0.04,3.72,0.33,5.54c0.6,2.93,6.18,5.2,9.16,5.02
										"/>
								</g>
							</g>
						</g>
					</g>
				</g>
				<g>
					<g>
						<g>
							<g>
								<g>
									<g>
										<path class="st7" d="M918.44,768.96c-0.01,0,0,0.09,0.02,0.25c0.02,0.19,0.06,0.43,0.1,0.74c0.1,0.65,0.21,1.61,0.43,2.84
											c0.24,1.24,0.88,2.64,1.39,4.33c0.54,1.68,1.08,3.62,1.55,5.8c0.48,2.17,0.89,4.58,1.31,7.17
											c0.44,2.57,0.89,5.41,2.17,8.1c0.59,1.35,1.26,2.71,1.76,4.15c0.51,1.44,0.75,2.99,0.89,4.58
											c0.22,3.19,0.64,6.52,1.24,9.86c1.3,6.68,2.53,13.05,3.66,18.84c1.19,5.77,2.25,10.97,3.15,15.35
											c0.91,4.34,1.64,7.87,2.16,10.34c0.26,1.2,0.46,2.14,0.61,2.81c0.07,0.3,0.13,0.54,0.17,0.73
											c0.04,0.16,0.06,0.25,0.07,0.25c0.01,0,0-0.09-0.03-0.25c-0.03-0.19-0.07-0.43-0.13-0.74c-0.13-0.67-0.3-1.62-0.53-2.82
											c-0.48-2.48-1.18-6.01-2.03-10.36c-0.87-4.38-1.91-9.59-3.06-15.36c-1.11-5.79-2.34-12.15-3.62-18.83
											c-0.6-3.35-1.02-6.62-1.25-9.83c-0.15-1.6-0.39-3.19-0.92-4.67c-0.52-1.47-1.19-2.83-1.79-4.18
											c-1.28-2.65-1.72-5.43-2.18-8c-0.44-2.58-0.86-4.99-1.36-7.17c-0.5-2.18-1.06-4.12-1.62-5.81
											c-0.54-1.69-1.2-3.08-1.45-4.29c-0.24-1.21-0.38-2.18-0.5-2.82c-0.06-0.3-0.1-0.55-0.14-0.73
											C918.47,769.05,918.45,768.96,918.44,768.96z"/>
									</g>
								</g>
							</g>
						</g>
					</g>
				</g>
			</g>
		</g>
	</g>
	<g class="st1">
		<g>
			<g>
				<rect x="170.78" y="673.68" class="st8" width="644.71" height="64.43"/>
			</g>
		</g>
		<g class="st10">
			<g>
				<rect x="170.78" y="673.68" width="644.71" height="64.43"/>
			</g>
		</g>
	</g>
	<g class="st1">
		<g>
			<rect x="485.51" y="746.26" class="st11" width="190.31" height="59.67"/>
		</g>
	</g>
	<g class="st1">
		<g>
			<polygon class="st7" points="352.52,719.25 352.52,798.14 417.49,798.14 443.54,760.38 918.01,760.38 918.01,719.25 			"/>
		</g>
	</g>
	<g class="st1">
		<g>
			<path class="st8" d="M348.46,469.49c-0.15-2.64-2.37-4.67-5.02-4.57c-25.68,1.05-147.61,6.65-172.68,18.7
				c-19.19,9.22-40.21,43.7-55.04,66.91c-10.63,16.64-34.1,53.58-38.85,72.46c-4.02,15.99-6.44,49.19-6.17,65.67l6.71,87.18h110.5
				l11.07-28.8c7.22-18.78,25.26-31.18,45.39-31.18h109.8V571.18L348.46,469.49z"/>
		</g>
	</g>
	<g class="st1">
		<g>
			<g>
				<path class="st11" d="M157.67,493.26c-15.21,14.52-30.44,39.26-41.94,57.26c-9.84,15.4-30.69,48.21-37.5,67.98
					c-0.13,0.37-0.23,0.71-0.35,1.07c3.37-0.93,8.54-2.83,10.14-6.02c2.42-4.84,5.53-21.4,43.94-83.94
					C143.65,510.57,155.04,499.41,157.67,493.26z"/>
			</g>
		</g>
	</g>
	<g class="st1">
		<g>
			<g>
				<path class="st7" d="M291.7,486.81c-28.25,1.61-89.5,5.74-109.07,12.45c-25.5,8.74-54.11,76.21-55.46,79.17l-19.29,49.35
					c-0.46,1.4,0.57,2.84,2.05,2.84h49.84c1.88,0,3.75-0.34,5.52-1l131.1-48.84c5.93-2.21,9.86-7.87,9.86-14.2v-66.02
					C306.25,492.65,299.6,486.36,291.7,486.81z"/>
			</g>
		</g>
		<g>
			<g>
				<path class="st11" d="M113.43,625.77c0,0,18.49-41.45,24.69-54.99c9.39-20.5,31.29-62.5,46.08-66.93
					c13.6-4.08,52.72-9.05,107.78-12.2c0.17-0.01,0.35-0.02,0.52-0.02c4.91,0,8.9,4,8.9,8.93v67.52c0,3.39-2.13,6.46-5.31,7.64
					l-96.85,11.95c-7.86,0.97-14.89,5.34-19.23,11.96l-16.78,25.59c-0.99,0.37-2.02,0.56-3.08,0.56H113.43z"/>
			</g>
		</g>
		<g>
			<g>
				<path class="st7" d="M195.74,588.43l-32.98,36.67l18.22-121.75l4.56-1.57l-8.96,90.19c-0.2,1.98,1.78,3.47,3.63,2.72
					L195.74,588.43z"/>
			</g>
		</g>
	</g>
	<g class="st1">
		<g>
			<path class="st3" d="M68.55,697.12c-0.12-1.59,0.42-2.87,1.22-2.94l17.66-1.63c1.48-0.14,2.8,2.6,2.98,5.87l0.8,13.55
				c0.13,2.17-0.53,4.01-1.5,4.18l-18,3.1c-0.81,0.14-1.59-1.06-1.71-2.66L68.55,697.12z"/>
		</g>
	</g>
	<g class="st1">
		<g>
			<rect x="68.53" y="760.4" class="st7" width="127.2" height="51"/>
		</g>
	</g>
	<g class="st1">
		<g>
			<g>
				<g>
					<g>
						<g>
							<g>
								<g>
									<g>
										<g>
											
												<ellipse transform="matrix(0.9993 -0.0384 0.0384 0.9993 -30.3511 11.2717)" class="st7" cx="278.02" cy="795.11" rx="69.59" ry="69.59"/>
										</g>
									</g>
								</g>
							</g>
						</g>
					</g>
				</g>
			</g>
		</g>
		<g>
			<g>
				<g>
					<g>
						<g>
							<g>
								<g>
									<g>
										<g>
											<path class="st7" d="M208.44,793.93c0,0.06-0.01,0.12-0.01,0.18c-0.55,38.43,30.15,70.03,68.58,70.59
												c38.43,0.55,70.04-30.15,70.59-68.58c0-0.06-0.01-0.12-0.01-0.18L208.44,793.93z"/>
										</g>
									</g>
								</g>
							</g>
						</g>
					</g>
				</g>
			</g>
		</g>
		<g>
			<g>
				<g>
					<g>
						<g>
							<g>
								<g>
									<g>
										<g>
											<path class="st5" d="M229.16,794.41c-0.39,26.98,21.17,49.17,48.15,49.56c26.98,0.39,49.17-21.17,49.56-48.15
												c0.39-26.98-21.17-49.17-48.15-49.56C251.74,745.87,229.55,767.43,229.16,794.41z"/>
										</g>
									</g>
								</g>
							</g>
						</g>
					</g>
				</g>
			</g>
		</g>
		<g>
			<g>
				<g>
					<g>
						<g>
							<g>
								<g>
									<g>
										<g>
											<path class="st4" d="M278.72,746.26c-26.98-0.39-49.17,21.17-49.56,48.15l97.71,1.41
												C327.26,768.84,305.7,746.65,278.72,746.26z"/>
										</g>
									</g>
								</g>
							</g>
						</g>
					</g>
				</g>
			</g>
		</g>
		<g>
			<g>
				<g>
					<g>
						<g>
							<g>
								<g>
									<g>
										<g>
											<path class="st7" d="M248.26,794.68c-0.24,16.44,12.89,29.95,29.33,30.19c16.44,0.24,29.95-12.89,30.19-29.33
												c0.24-16.44-12.9-29.95-29.33-30.19C262.01,765.12,248.5,778.25,248.26,794.68z"/>
										</g>
									</g>
								</g>
							</g>
						</g>
					</g>
				</g>
			</g>
		</g>
	</g>
	<g class="st1">
		<g>
			<g>
				<path class="st7" d="M153.17,600.25h-25.96c-0.8,0-1.44-0.65-1.44-1.44v-66.35c0-0.8,0.65-1.44,1.44-1.44h25.96
					c0.8,0,1.44,0.65,1.44,1.44v66.35C154.62,599.6,153.97,600.25,153.17,600.25z"/>
			</g>
		</g>
		<g>
			<g>
				<path class="st7" d="M113.82,643.06h-1.45v-73.21c0-7.26,5.91-13.17,13.17-13.17h3.48v1.45h-3.48
					c-6.46,0-11.72,5.26-11.72,11.72V643.06z"/>
			</g>
		</g>
		<g>
			<g>
				<path class="st7" d="M123.72,643.15l-4.04-68.46c-0.14-2.4,0.69-4.68,2.33-6.42c1.65-1.75,3.87-2.71,6.27-2.71v1.45
					c-2,0-3.85,0.8-5.22,2.25c-1.37,1.45-2.06,3.35-1.94,5.34l4.04,68.46L123.72,643.15z"/>
			</g>
		</g>
		<g>
			<g>
				<rect x="108.71" y="636.46" class="st7" width="19.58" height="22.66"/>
			</g>
		</g>
		<g>
			<g>
				<rect x="113.1" y="593.45" class="st7" width="7.96" height="1.45"/>
			</g>
		</g>
	</g>
	<g class="st1">
		<g>
			<g>
				<path class="st7" d="M187.46,488.77c0,0,0.58-0.09,1.73-0.23c1.16-0.14,2.86-0.34,5.1-0.61c4.5-0.52,11.14-1.29,19.73-2.28
					c17.21-1.96,42.24-4.81,73.57-8.37c3.92-0.42,7.92-0.95,12.06-1.31c2.09-0.22,4.21,0.05,6.31,0.42
					c2.07,0.51,4.14,1.21,6.05,2.29c3.81,2.12,7.12,5.42,9.16,9.51c1.02,2.03,1.79,4.24,2.11,6.55c0.25,1.14,0.22,2.32,0.31,3.49
					c0,1.16,0,2.33,0,3.5c0.01,18.74,0.02,38.87,0.04,60.2c0.01,42.65,0.03,90.09,0.05,140.77l0,0.37h-0.37
					c-16.33,0-33.1,0-50.21,0.01c-8.55,0-17.19,0-25.9,0c-4.36,0.02-8.73-0.1-13.03,0.61c-4.34,0.52-8.52,1.92-12.59,3.52
					c-12.64,5.42-22.71,16.02-27.54,28.52c-0.55,1.58-1.25,3.11-1.59,4.75c-0.38,1.62-0.94,3.21-1.11,4.87l-0.38,2.46l-0.18,1.23
					l-0.06,1.24l-0.13,2.48l-0.06,1.24l-0.01,0.15c0.33-0.33-0.45,0.49-0.39,0.4h-0.04h-0.08h-0.31l-0.62,0c-6.65,0-13.26,0-19.81,0
					c-26.2-0.01-51.54-0.01-75.72-0.02l-0.36,0l0-0.36c0.01-21.88,0.02-42.97,0.02-63.13c0-10.08,0.01-19.92,0.01-29.51
					c0-4.8,0.01-9.53,0.01-14.2c0.01-2.34-0.02-4.65,0.03-6.96c0.05-2.31,0.22-4.6,0.49-6.86c1.12-9.05,4.06-17.56,8.22-25.01
					c4-7.51,7.87-14.77,11.59-21.76c7.45-13.98,14.32-26.87,20.55-38.56c6.23-11.68,11.82-22.16,16.7-31.31
					c1.22-2.29,2.4-4.49,3.53-6.61c0.58-1.05,1.08-2.11,1.7-3.1c0.61-0.99,1.27-1.91,1.95-2.78c2.76-3.46,5.84-6.13,8.8-8.18
					c5.99-4.07,11.43-5.7,15.06-6.55C185.51,488.87,187.46,488.77,187.46,488.77s-0.48,0.08-1.42,0.22
					c-0.94,0.14-2.34,0.39-4.16,0.81c-3.6,0.89-9.01,2.55-14.95,6.63c-2.94,2.05-5.98,4.72-8.71,8.16
					c-0.68,0.86-1.33,1.78-1.92,2.76c-0.6,0.97-1.11,2.04-1.68,3.09c-1.12,2.12-2.29,4.33-3.5,6.62
					c-4.85,9.16-10.41,19.65-16.61,31.36c-6.2,11.7-13.05,24.61-20.47,38.6c-3.71,6.99-7.56,14.26-11.55,21.78
					c-4.12,7.42-7.02,15.84-8.12,24.82c-0.27,2.24-0.43,4.51-0.48,6.8c-0.04,2.29-0.01,4.61-0.02,6.95c0,4.67,0.01,9.4,0.01,14.2
					c0,9.59,0.01,19.44,0.01,29.51c0.01,20.16,0.02,41.25,0.02,63.13l-0.35-0.35c24.18-0.01,49.52-0.01,75.72-0.02
					c6.55,0,13.16,0,19.81,0l0.62,0h0.31h0.08h0.04c0.1-0.08-0.7,0.69-0.36,0.35l0.01-0.16l0.06-1.26l0.13-2.52l0.06-1.26l0.19-1.25
					l0.38-2.5c0.18-1.68,0.74-3.29,1.13-4.94c0.35-1.66,1.06-3.22,1.61-4.82c4.9-12.68,15.11-23.44,27.94-28.94
					c4.13-1.62,8.38-3.05,12.78-3.57c4.37-0.72,8.8-0.6,13.14-0.62c8.71,0,17.34,0,25.9,0c17.11,0,33.88,0,50.21,0.01l-0.37,0.37
					c0.02-50.68,0.03-98.12,0.05-140.77c0.01-21.33,0.03-41.46,0.04-60.2c-0.01-2.35,0.09-4.67-0.29-6.9
					c-0.31-2.25-1.05-4.4-2.05-6.39c-1.98-4-5.2-7.22-8.93-9.3c-1.86-1.06-3.88-1.74-5.91-2.25c-2.05-0.36-4.13-0.63-6.17-0.42
					c-4.1,0.35-8.12,0.88-12.04,1.29c-31.33,3.47-56.37,6.25-73.59,8.15c-8.6,0.94-15.24,1.66-19.75,2.16
					c-2.24,0.24-3.95,0.42-5.11,0.54C188.05,488.73,187.46,488.77,187.46,488.77z"/>
			</g>
		</g>
	</g>
	<g class="st1">
		<g>
			<g>
				<g>
					<g>
						<g>
							<g>
								<path class="st7" d="M300.49,649.22c0-0.04,0.4-0.04,1.13-0.17c0.73-0.13,1.81-0.42,2.99-1.19
									c1.16-0.76,2.41-2.07,3.04-3.96c0.33-0.94,0.43-1.98,0.39-3.13c-0.03-1.11-0.31-2.29-0.88-3.38
									c-1.13-2.17-3.62-3.99-6.54-3.99c-3,0.01-6.21,0.02-9.58,0.03c-6.76,0.01-14.17,0.02-21.96,0.03c-1.86,0-3.67,0.72-5,1.95
									c-1.34,1.22-2.19,2.91-2.38,4.65c-0.18,1.79,0.06,3.54,0.91,5.02c0.82,1.48,2.15,2.6,3.63,3.23
									c1.5,0.67,3.11,0.57,4.73,0.58c1.6,0.01,3.15,0.01,4.65,0.02c3,0.02,5.79,0.03,8.35,0.05c5.05,0.05,9.16,0.09,12.09,0.12
									c1.37,0.03,2.47,0.05,3.29,0.07C300.1,649.17,300.49,649.19,300.49,649.22c0,0.03-0.39,0.05-1.15,0.07
									c-0.82,0.02-1.91,0.04-3.29,0.07c-2.93,0.03-7.04,0.07-12.09,0.12c-2.56,0.01-5.35,0.03-8.35,0.05
									c-1.5,0.01-3.05,0.01-4.65,0.02c-0.81-0.01-1.59,0.03-2.45-0.02c-0.85-0.06-1.72-0.24-2.53-0.58
									c-1.62-0.68-3.09-1.89-3.99-3.51c-0.94-1.6-1.2-3.58-1.01-5.44c0.2-1.91,1.13-3.78,2.6-5.11c1.46-1.35,3.46-2.15,5.5-2.15
									c7.79,0.01,15.2,0.02,21.96,0.03c3.37,0.01,6.58,0.03,9.59,0.04c3.17,0.03,5.82,2.02,7,4.36c0.6,1.18,0.88,2.43,0.89,3.62
									c0.03,1.15-0.1,2.3-0.47,3.27c-0.7,1.98-2.05,3.31-3.27,4.06c-1.25,0.76-2.37,1.01-3.12,1.09
									C300.89,649.28,300.49,649.22,300.49,649.22z"/>
							</g>
						</g>
					</g>
				</g>
			</g>
		</g>
		<g>
			<g>
				<g>
					<g>
						<g>
							<g>
								<path class="st6" d="M297.8,630.99c0,0.2-5.57,0.37-12.45,0.37c-6.88,0-12.45-0.17-12.45-0.37c0-0.2,5.57-0.37,12.45-0.37
									C292.23,630.62,297.8,630.78,297.8,630.99z"/>
							</g>
						</g>
					</g>
				</g>
			</g>
		</g>
	</g>
	<g class="st1">
		<g>
			<path class="st7" d="M201.53,811.83l-11.58-0.84c3.03-41.59,7.47-66.47,13.58-76.07c11.74-18.44,23.4-21.76,36.33-23.97
				c12.02-2.05,24.15-1.56,35.89-1.09l2.88,0.11c24.22,0.94,74.94,0.1,75.45,0.1l0.2,11.61c-0.51,0.01-51.56,0.85-76.1-0.1
				l-2.9-0.12c-11.13-0.45-22.64-0.92-33.46,0.93c-11.55,1.97-19.23,4.22-28.48,18.76C210.52,745.55,205.26,760.59,201.53,811.83z"
				/>
		</g>
	</g>
	<g class="st1">
		<g>
			<rect x="360.26" y="338.02" class="st8" width="571.98" height="380.84"/>
		</g>
	</g>
	<g class="st1">
		<g>
			<g>
				<path class="st7" d="M925.39,711.32c0-2.45-0.12-142.13-0.3-364.7l0.3,0.3c-153.24,0.02-347.83,0.05-558.96,0.08h-0.04
					l0.38-0.38c-0.01,129.64-0.02,253.03-0.03,364.7l-0.35-0.35C695.27,711.17,922.27,711.32,925.39,711.32
					c-3.11,0-230.12,0.14-559,0.35l-0.35,0v-0.35c-0.01-111.67-0.02-235.06-0.03-364.7v-0.38h0.38h0.04
					c211.12,0.03,405.72,0.06,558.96,0.08h0.3l0,0.3C925.5,569.19,925.39,708.87,925.39,711.32z"/>
			</g>
		</g>
	</g>
	<g class="st1">
		<g>
			<g>
				<path class="st5" d="M278.9,518.36c0.01,0.02-0.17,0.17-0.53,0.44c-0.44,0.32-0.97,0.7-1.6,1.15c-1.4,0.99-3.44,2.39-5.97,4.11
					c-5.07,3.43-12.12,8.1-19.99,13.14c-7.87,5.04-15.06,9.5-20.29,12.67c-2.62,1.59-4.75,2.85-6.23,3.71
					c-0.68,0.39-1.25,0.71-1.72,0.97c-0.4,0.22-0.61,0.32-0.63,0.3s0.17-0.17,0.55-0.42c0.45-0.3,0.99-0.66,1.64-1.09
					c1.54-0.99,3.6-2.31,6.1-3.91c5.26-3.35,12.34-7.87,20.17-12.86c7.8-5.03,14.86-9.58,20.1-12.95c2.5-1.6,4.56-2.92,6.11-3.91
					c0.67-0.41,1.22-0.75,1.68-1.04C278.67,518.45,278.88,518.34,278.9,518.36z"/>
			</g>
		</g>
	</g>
	<g class="st1">
		<g>
			<g>
				<path class="st5" d="M254.14,524.92c0.01,0.02-0.17,0.17-0.53,0.45c-0.44,0.32-0.97,0.7-1.6,1.15c-1.4,0.99-3.44,2.39-5.97,4.11
					c-5.07,3.43-12.12,8.1-19.99,13.14c-7.87,5.04-15.06,9.5-20.29,12.67c-2.62,1.59-4.75,2.85-6.23,3.71
					c-0.68,0.39-1.25,0.71-1.72,0.97c-0.4,0.22-0.61,0.32-0.63,0.3c-0.01-0.02,0.17-0.17,0.55-0.42c0.45-0.3,0.99-0.66,1.64-1.09
					c1.54-0.99,3.6-2.31,6.1-3.91c5.26-3.35,12.34-7.87,20.17-12.86c7.8-5.03,14.86-9.58,20.1-12.95c2.5-1.6,4.56-2.92,6.11-3.91
					c0.67-0.41,1.22-0.75,1.68-1.04C253.91,525.01,254.12,524.9,254.14,524.92z"/>
			</g>
		</g>
	</g>
	<g class="st1">
		<g>
			<g>
				<path class="st5" d="M131.91,567.19c-0.05,0.01-0.21-0.44-0.45-1.28c-0.24-0.83-0.56-2.05-0.91-3.56
					c-0.69-3.02-1.57-7.26-1.53-12.05c0.04-4.79,1.26-9.07,2.77-11.82c0.74-1.38,1.48-2.42,2.06-3.08c0.57-0.66,0.93-0.98,0.97-0.95
					c0.11,0.09-1.23,1.5-2.55,4.27c-1.34,2.74-2.45,6.91-2.49,11.59c-0.04,4.68,0.75,8.9,1.3,11.93
					C131.65,565.28,132.02,567.16,131.91,567.19z"/>
			</g>
		</g>
	</g>
	<g class="st1">
		<g>
			<g>
				<path class="st5" d="M72.83,670.11c-0.05,0-0.08-0.58-0.08-1.62c0-1.04,0.03-2.55,0.09-4.42c0.12-3.73,0.39-8.87,0.83-14.55
					c0.45-5.68,0.99-10.8,1.46-14.5c0.23-1.85,0.44-3.35,0.6-4.38c0.16-1.03,0.28-1.6,0.33-1.59s0.04,0.58-0.04,1.62
					c-0.1,1.2-0.22,2.67-0.37,4.4c-0.33,3.89-0.76,8.93-1.23,14.5c-0.4,5.58-0.77,10.62-1.05,14.52c-0.13,1.73-0.24,3.2-0.33,4.4
					C72.96,669.54,72.89,670.11,72.83,670.11z"/>
			</g>
		</g>
	</g>
	<g class="st1">
		<g>
			<g>
				<path class="st5" d="M231.9,698.3c0.03,0.15-2.79,0.55-7.14,1.95c-2.18,0.68-4.7,1.7-7.41,3.01c-2.69,1.36-5.55,3.03-8.36,5.08
					c-2.79,2.07-5.25,4.3-7.35,6.46c-2.06,2.2-3.79,4.3-5.09,6.17c-2.63,3.73-3.86,6.3-4,6.23c-0.05-0.02,0.24-0.67,0.81-1.83
					c0.27-0.58,0.63-1.28,1.11-2.06c0.47-0.78,0.97-1.7,1.64-2.64c1.26-1.93,2.96-4.1,5.02-6.35c2.1-2.21,4.58-4.49,7.41-6.59
					c2.85-2.07,5.77-3.75,8.51-5.09c2.76-1.29,5.34-2.27,7.56-2.9c1.09-0.36,2.12-0.56,3.01-0.78c0.89-0.22,1.66-0.35,2.3-0.44
					C231.19,698.33,231.89,698.25,231.9,698.3z"/>
			</g>
		</g>
	</g>
	<g class="st1">
		<g>
			<g>
				<g>
					<g>
						<g>
							<g>
								<g>
									<g>
										<g>
											<g>
												
													<ellipse transform="matrix(0.9992 -0.0399 0.0399 0.9992 -31.0774 32.2198)" class="st7" cx="792.1" cy="795.11" rx="69.59" ry="69.59"/>
											</g>
										</g>
									</g>
								</g>
							</g>
						</g>
					</g>
				</g>
			</g>
			<g>
				<g>
					<g>
						<g>
							<g>
								<g>
									<g>
										<g>
											<g>
												<path class="st7" d="M722.53,793.93c0,0.06-0.01,0.12-0.01,0.18c-0.55,38.43,30.15,70.03,68.58,70.59
													c38.43,0.55,70.04-30.15,70.59-68.58c0-0.06-0.01-0.12-0.01-0.18L722.53,793.93z"/>
											</g>
										</g>
									</g>
								</g>
							</g>
						</g>
					</g>
				</g>
			</g>
			<g>
				<g>
					<g>
						<g>
							<g>
								<g>
									<g>
										<g>
											<g>
												<path class="st5" d="M743.25,794.41c-0.39,26.98,21.17,49.17,48.15,49.56c26.98,0.39,49.17-21.17,49.56-48.15
													c0.39-26.98-21.17-49.17-48.15-49.56C765.82,745.87,743.64,767.43,743.25,794.41z"/>
											</g>
										</g>
									</g>
								</g>
							</g>
						</g>
					</g>
				</g>
			</g>
			<g>
				<g>
					<g>
						<g>
							<g>
								<g>
									<g>
										<g>
											<g>
												<path class="st4" d="M792.81,746.26c-26.98-0.39-49.17,21.17-49.56,48.15l97.71,1.41
													C841.34,768.84,819.79,746.65,792.81,746.26z"/>
											</g>
										</g>
									</g>
								</g>
							</g>
						</g>
					</g>
				</g>
			</g>
			<g>
				<g>
					<g>
						<g>
							<g>
								<g>
									<g>
										<g>
											<g>
												<path class="st7" d="M762.34,794.68c-0.24,16.44,12.89,29.95,29.33,30.19c16.44,0.24,29.95-12.89,30.19-29.33
													c0.24-16.44-12.9-29.95-29.33-30.19C776.09,765.12,762.58,778.25,762.34,794.68z"/>
											</g>
										</g>
									</g>
								</g>
							</g>
						</g>
					</g>
				</g>
			</g>
		</g>
		<g>
			<g>
				<path class="st11" d="M700.62,814.18c0,0-10.6-98.69,91.69-98.69c94.38,0,92.28,84.9,91.39,98.03h-14.8
					c0,0,7.54-83.67-76.59-83.67c-84.13,0-76.8,85.37-76.8,85.37S709.29,814.89,700.62,814.18z"/>
			</g>
		</g>
		<g>
			<g>
				<g>
					<path class="st5" d="M755.41,725.68c0.01,0.03-0.27,0.13-0.8,0.29c-0.53,0.18-1.33,0.37-2.32,0.72
						c-2.01,0.63-4.89,1.67-8.31,3.25c-6.83,3.11-15.8,8.86-23.2,17.68c-7.41,8.82-11.52,18.66-13.41,25.92
						c-0.96,3.64-1.48,6.66-1.76,8.75c-0.17,1.04-0.22,1.86-0.31,2.41c-0.07,0.55-0.12,0.84-0.15,0.84c-0.03,0-0.03-0.29,0-0.85
						c0.04-0.56,0.04-1.38,0.17-2.44c0.19-2.11,0.63-5.16,1.53-8.85c1.76-7.35,5.84-17.34,13.35-26.27
						c7.5-8.93,16.63-14.67,23.56-17.68c3.48-1.53,6.4-2.49,8.45-3.04c1.02-0.3,1.83-0.45,2.37-0.58
						C755.11,725.7,755.4,725.65,755.41,725.68z"/>
				</g>
			</g>
		</g>
	</g>
</g>
</svg>
