<?xml version="1.0" encoding="utf-8"?>
<!-- Generator: Adobe Illustrator 24.0.1, SVG Export Plug-In . SVG Version: 6.00 Build 0)  -->
<svg version="1.1" id="Layer_1" xmlns="http://www.w3.org/2000/svg" xmlns:xlink="http://www.w3.org/1999/xlink" x="0px" y="0px"
	 viewBox="0 0 1000 1000" style="enable-background:new 0 0 1000 1000;" xml:space="preserve">
<style type="text/css">
	.st0{clip-path:url(#SVGID_2_);}
	.st1{fill:#FCFCFC;}
	.st2{opacity:0.12;fill:url(#SVGID_3_);}
	.st3{fill:#9BC1F9;}
	.st4{fill:#466EB6;}
	.st5{fill:#86B1F2;}
	.st6{fill:#F7CC7F;}
	.st7{fill:#F47458;}
	.st8{fill:#FAE0B2;}
	.st9{fill:#56CD93;}
	.st10{fill:#FF7446;}
	.st11{fill:#001653;}
	.st12{fill:#957447;}
	.st13{fill:#F25C12;}
	.st14{fill:#E6A500;}
	.st15{fill:#021F6E;}
	.st16{fill:#021753;}
	.st17{fill:#5D70A2;}
	.st18{fill:#FCC332;}
	.st19{opacity:0.6;fill:#B5450E;}
	.st20{fill:#00424C;}
	.st21{fill:#F29913;}
	.st22{fill:#50BFA5;}
	.st23{fill:#100062;}
	.st24{fill:#0C004A;}
	.st25{fill:#FCB500;}
	.st26{fill:#FC9700;}
	.st27{fill:#F7A491;}
	.st28{fill:#184655;}
	.st29{fill:#355389;}
	.st30{fill:#F8A492;}
	.st31{fill:#3C8F7C;}
	.st32{fill:#FE875E;}
	.st33{fill:#13375B;}
	.st34{fill:#60E99C;}
</style>
<g>
	<defs>
		<circle id="SVGID_1_" cx="500" cy="500" r="500"/>
	</defs>
	<clipPath id="SVGID_2_">
		<use xlink:href="#SVGID_1_"  style="overflow:visible;"/>
	</clipPath>
	<g class="st0">
		<g>
			
				<rect x="-234.07" y="-19.23" transform="matrix(-1 -1.224647e-16 1.224647e-16 -1 929.5735 974.177)" class="st1" width="1397.71" height="1012.63"/>
			<linearGradient id="SVGID_3_" gradientUnits="userSpaceOnUse" x1="-120.1453" y1="489.1621" x2="1072.2887" y2="489.1621">
				<stop  offset="0" style="stop-color:#5BDB98"/>
				<stop  offset="1" style="stop-color:#60E99C"/>
			</linearGradient>
			<path class="st2" d="M36.95,169.62C-231.69,430.19-74.36,927.51-74.36,927.51l1060.72,2.16c0,0,197.65-353.76-6.56-641.21
				C791.23,23.03,242.91-30.16,36.95,169.62z"/>
		</g>
		<g>
			
				<rect x="-55.98" y="169.62" transform="matrix(-1 -1.224647e-16 1.224647e-16 -1 214.704 1090.734)" class="st3" width="326.66" height="751.5"/>
			<g>
				
					<rect x="142.52" y="125.23" transform="matrix(-1 -1.224647e-16 1.224647e-16 -1 306.3993 1046.566)" class="st4" width="21.36" height="796.11"/>
				<g>
					<path class="st5" d="M142.54,125.24c0,2.02,0.15,795.77,0.15,795.77H-55.02V169.14L142.54,125.24z"/>
					<path class="st3" d="M-32.39,235.03l0.97,210.16c0.83-0.1,1.66-0.15,2.47-0.15c10.8,0,19.86,8.75,19.91,19.85l109.72-13.5
						c-0.05-10.11,7.48-18.65,17.51-19.88l-0.99-219.97c-1.41,0.3-2.81,0.44-4.19,0.44c-10.69,0-19.85-8.66-19.9-19.86L-16.6,215.43
						C-16.55,224.88-23.15,233.07-32.39,235.03z M-24.7,240.46c7.55-3.61,13.12-10.52,15.04-18.66l96.68-20.55
						c3.43,9.66,12.1,16.86,22.54,18.18l0.93,206.18c-8.24,3.25-14.45,10.31-16.63,18.89l-96.6,11.89
						c-3.1-9.43-11.15-16.64-21.04-18.53L-24.7,240.46z"/>
					<path class="st3" d="M-32.05,618l0.44,250.47c0.01,0,0.02,0,0.04,0c11,0,19.92,8.91,19.94,19.91l28.67-0.05
						c0-11,8.91-19.92,19.91-19.94V615.45c-0.58,0.05-1.17,0.08-1.74,0.08c-10.88,0-19.91-8.84-19.91-19.94l-29.11,2.51
						C-13.8,608.46-21.73,617.11-32.05,618z M-24.37,624.08c8.43-3.09,14.94-10.2,17.28-18.87l15.97-1.38
						c2.93,9.36,10.72,16.59,20.4,18.72v239.25c-9.05,2.64-16.2,9.8-18.83,18.86l-15.51,0.03c-2.64-9.06-9.82-16.21-18.89-18.82
						L-24.37,624.08z"/>
					<path class="st3" d="M49.73,610.92v257.38h0.04c11.01,0,19.94,8.93,19.94,19.94l23.42-0.04c0.08-10.94,8.97-19.77,19.91-19.79
						l1.98-259.53c-0.58,0.05-1.17,0.07-1.74,0.07c-10.94,0-20-8.93-19.91-20.1l-25.4,2.19C67.96,601.4,60.04,610.03,49.73,610.92z
						 M57.4,617.04c8.55-3.04,15.02-10.1,17.32-18.88l12.17-1.05c1.29,4.23,3.6,8.11,6.81,11.34c3.79,3.82,8.48,6.39,13.59,7.52
						l-1.88,245.85c-9,2.62-16.15,9.73-18.83,18.72l-10.3,0.02c-2.63-9.08-9.81-16.24-18.89-18.86V617.04z"/>
				</g>
			</g>
			<g>
				<ellipse class="st6" cx="97.4" cy="523.55" rx="8.06" ry="15.62"/>
				<path class="st7" d="M81.8,518.05v12.32h16.88c0.5-2.03,0.78-4.31,0.78-6.71c0-1.97-0.19-3.87-0.54-5.61H81.8z"/>
				<path class="st8" d="M70.17,523.55c0,13,5.44,23.55,12.14,23.55c6.7,0,12.14-10.54,12.14-23.55c0-13-5.43-23.55-12.14-23.55
					C75.61,500,70.17,510.54,70.17,523.55z"/>
				<ellipse class="st8" cx="79.06" cy="523.55" rx="12.14" ry="23.55"/>
			</g>
			<g>
				<path class="st9" d="M-123.5,936.61h1176.56c2.99,0,5.41-3.54,5.41-7.9c0-4.37-2.42-7.9-5.41-7.9H-123.5
					c-2.99,0-5.41,3.54-5.41,7.9C-128.9,933.08-126.48,936.61-123.5,936.61z"/>
			</g>
			<g>
				<path class="st10" d="M914.78,883.84c0,0,0.08,0.76,0.08,2.02c0,3.79-0.74,12.15-6.66,18.31c-7.9,8.22-7.95,18.45,0.4,20.2
					c8.35,1.75,28.26-0.56,28.26-0.56s4.5-7.82,1.43-28.71c-3.07-20.89-4.86-43.8-4.86-43.8l-22.69-3.54L914.78,883.84z"/>
				<path class="st11" d="M910.33,892.72c0,0-8.42,11.42-10.38,16.18c-1.97,4.76-1.55,16.61,0,17.83
					c13.61,10.74,39.41,1.07,39.41,1.07s1.77-7.88,2.67-17.55c0.9-9.67,0.39-18.68-2.67-18.68c-3.06,0-3.6,5.07-10.58,3.64
					C921.79,893.79,917.49,891.29,910.33,892.72z"/>
				<path class="st1" d="M941.49,915.08c-5.24,2.05-12.37,4.44-18.99,5.39c-7.07,1.01-16.58-2.14-23.76-5.3
					c-0.37,5.07,0.16,10.74,1.2,11.57c13.61,10.74,39.41,1.07,39.41,1.07S940.57,922.42,941.49,915.08z"/>
				<path class="st12" d="M941.49,915.08c-19.52,5.86-23.11,6.9-42.75,0.09c3.27,1.76,6.71,3.21,10.27,4.34
					c7.55,2.34,12,2.14,16.71,1.08C931.34,919.34,936.63,917.43,941.49,915.08z"/>
				<path class="st13" d="M687.82,528.45c5.58,2.1,12.99,5.22,12.99,5.22c0.96-2.3-17.48-6.24-20.06-11.86
					c-1.38-3,21.15,8.05,22.72,6.74c0.65-0.55-25.49-9.06-24.29-11.11c1.01-1.73,27.49,7.6,27.63,6.31
					c0.2-1.79-22.92-6.43-20.85-9.02c1.06-1.32,29.12,6.27,32.15,6.71c3.71,0-9.7-9.11-5.14-10.32c6.2-1.65,21.78,16.2,22.99,16.45
					c3.53,0.73,33.55,4.41,48.24-5.21c11.87-7.76,23.39-19.71,26.21-29.99c2.76-10.08,6.59-24.48,3.32-35.58
					c13.37-2.04,26.34-2.5,39.91-0.88c0.83,16.68-19.14,82.77-27.49,88.21c-18.37,11.96-51.14,9.04-74.25,7.13
					c-18.62-1.53-36.86-5.2-53.63-13.71c-3.75-1.9-8.77-4.03-11.67-7.34C685.87,529.35,686.76,528.05,687.82,528.45z"/>
				<path class="st14" d="M822.1,400.82c-9.95,10.28-20,71.86-16.3,86.54c6.39,11.92,35.3,13.98,44.65,19.64
					c21.57-8.87,6.79-48.65,6.79-48.65l7.86-77.48C865.11,380.86,841.05,381.24,822.1,400.82z"/>
				<path class="st10" d="M849.3,870.06c2.94,9.26,0.03,19.45-7.51,25.57c-2.61,2.11-5.63,4.09-9.05,5.59
					c-13.21,5.78-30.33,4.48-32.72,16.34c-2.39,11.87,83.79-3.33,83.79-3.33s-5.98-28.86-6.37-33.7
					c-0.39-4.83,0.53-22.59,0.53-22.59l-33.28-2.39L849.3,870.06z"/>
				<path class="st11" d="M880.31,893.81c0,0,1.05,4.58,3.47,12.35c2.41,7.77,0.91,15.09,0.91,15.09s-80.72,3.82-83.99,1.27
					c-3.27-2.56-1.59-11.86-0.76-12.69c0.83-0.82,11.07-3.59,16.32-6.83c5.25-3.24,23.2-15.51,29.26-15.01
					c6.06,0.5,8.86,4.97,20.37,5.48C877.4,893.98,877.45,891.57,880.31,893.81z"/>
				<path class="st1" d="M800.7,922.52c3.27,2.56,83.99-1.27,83.99-1.27s0.99-4.8,0.08-10.76c-42.14,7.81-84.83-0.66-84.83-0.66
					C799.11,910.65,797.43,919.96,800.7,922.52z"/>
				<path class="st12" d="M884.77,910.49c-28.78,5.75-60.68,4.53-84.83-0.66c43.94,6.63,79.37,1.49,76.91,1.74
					C876.96,911.56,885.3,910.42,884.77,910.49z"/>
				<path class="st15" d="M947.11,590.37c13.85,50.64-3.35,277.81-3.35,277.81l-41.46-2.84c0,0-9.43-225.99-16.27-232.83
					c-2-2-4.15-1.37-5.8-0.23c-1.67,1.15-2.84,2.88-3.43,4.81c-4.27,13.94-28.66,95.11-23.74,112.89
					c5.38,19.46,29.41,123.73,29.41,123.73l-34.79,1.39c0,0-47.7-79.65-47.7-135.26s7.76-129.32,30.3-159.31
					c10.26-13.65,60.77-24.21,60.77-24.21S942.78,574.55,947.11,590.37z"/>
				<g>
					<path class="st16" d="M872.17,873.62c0,0-24.02-111.17-29.41-131.92c-3.91-15.07,10.71-72.88,19.01-103.4
						c2.49-9.17,13.5-12.85,21.02-7.05l0,0c0,0-35.12,99.28-29.74,118.74c5.38,19.46,29.41,123.73,29.41,123.73l-34.79,1.39
						c0,0-0.09-0.14-0.25-0.43L872.17,873.62z"/>
					<path class="st16" d="M938.5,579.86c4.45,3.48,7.66,7.05,8.61,10.51c13.85,50.64-3.35,277.81-3.35,277.81l-10.27-0.7
						C934.07,859.26,948.96,645.44,938.5,579.86z"/>
				</g>
				<path class="st16" d="M822.3,594.11c2.42-5.16,5.07-9.73,7.96-13.58c1.19-1.59,2.93-3.13,5.06-4.62
					c5.76,2.94,13.73,6.16,24.75,9.54c33.24,10.22,69.08,4.77,83.97-0.41c1.51,1.79,2.58,3.57,3.06,5.33
					c1.2,4.39,2.17,10.11,2.94,16.9c-7.43,5.53-50.64,18.89-89.96,6.38C835.13,605.7,825.83,600.89,822.3,594.11z"/>
				<path class="st17" d="M943.75,885.38c-10.62,3.45-36.19,2.59-42.3,0c-5.63-2.39-6.01-23.33,0-24.47c8.45-1.6,32.39-1.42,42.3,0
					C949.8,861.77,949.57,883.49,943.75,885.38z"/>
				<path class="st17" d="M880.7,876.02c-10.62,3.45-36.19,2.59-42.3,0c-5.63-2.39-6.01-23.34,0-24.47c8.45-1.6,32.39-1.42,42.3,0
					C886.75,852.42,886.52,874.13,880.7,876.02z"/>
				<path class="st18" d="M896.54,379.13c0,0,34.58-1.78,48.71,14.97c14.13,16.75,12.98,192.68,7.26,197.58
					c-5.72,4.91-54.86,19.74-93.89,8.19c-39.03-11.55-41.52-27.4-41.52-27.4s10.39-118.31,10.39-150.65S859.05,370.43,896.54,379.13
					z"/>
				<path class="st14" d="M927.04,557.33c3.06-8.5-0.21-35.51-3.69-55.06c-2.72,0.52-5.34,1.14-7.81,1.85
					c-4.18-12.93-7.86-46.49-7.98-67.58c-0.23-39.57,19.8-51.08,19.8-51.08c3.97-0.91,10.32,2.83,20.26,13.17
					C959.08,430,956.68,576,951.3,580.61c-2.29,1.97-6.78,14.31-18.34,16.76C929.96,585.57,924.21,565.18,927.04,557.33z"/>
				<path class="st14" d="M899.52,379.49c7.5,6.89,8.08,7.02,0.29,16.07c-7.79,9.04-33.58,19.32-37.26,17.59
					c-9.13-4.31-0.63-18.7,5.44-29.05C869.89,380.86,892.02,372.6,899.52,379.49z"/>
				<path class="st13" d="M866.01,353.43c0,0-2.02,47.61,0,49.7c2.02,2.09,30.96-7.99,33.48-13.9c2.52-5.91-10.54-91.98-10.54-91.98
					L866.01,353.43z"/>
				<path class="st19" d="M865.13,384.83c5.12-0.92,9.52-2.22,10.81-3.68c11.8-13.33,2.96-34.97,3.89-40.6
					c1.85-11.2,5.61-20.45,3.72-30.1l-17.55,42.99C866.01,353.43,865.28,370.65,865.13,384.83z"/>
				<g>
					<path class="st20" d="M710.84,407.52c-1.97,4.96,2.12,9.77,6.41,7.64c1.01-0.5,1.78-1.4,2.19-2.45
						c1.97-4.96-2.12-9.78-6.41-7.64C712.03,405.58,711.26,406.48,710.84,407.52z"/>
					<path class="st20" d="M713.5,409.91l1.46,2.05l0.89-2.46c1.16-3.21,10.99-31.51,0.13-37.95c-3.2-1.91-6.23-1.29-8.29,1.67
						C702.95,380.04,704.43,397.18,713.5,409.91z M709.86,375.24c1-1.44,2.24-1.88,3.77-1.35c0.35,0.12,0.71,0.3,1.09,0.52
						c6.59,3.91,2.43,21.96-0.54,31.25C706.92,393.89,706.63,379.88,709.86,375.24z"/>
					<g>
						<path class="st20" d="M714.87,408.34l2.26,0.49c2.06,0.44,4.12,0.65,6.12,0.65c10.07,0,18.87-5.21,21-11.22
							c1.13-3.19,0.23-6.23-2.48-8.34c-9.04-7.02-23.82,13.91-25.47,16.33L714.87,408.34z M720.04,406.08
							c4.22-5.61,12.05-14.37,17.53-14.37c0.97,0,1.86,0.27,2.65,0.89c1.6,1.25,2.08,2.7,1.46,4.46
							C740,401.81,730.76,407.36,720.04,406.08z"/>
					</g>
					<path class="st18" d="M655.92,533.54h109.73c14.71,0,26.63-11.92,26.63-26.63v-69.73c0-14.71-11.92-26.63-26.63-26.63H655.92
						c-14.71,0-26.63,11.92-26.63,26.63v69.73C629.29,521.61,641.21,533.54,655.92,533.54z"/>
					<path class="st21" d="M639.96,410.55h50.94v122.99h-50.94c-5.89,0-10.67-7.63-10.67-17.04v-88.9
						C629.29,418.18,634.07,410.55,639.96,410.55z"/>
					<path class="st20" d="M736.71,410.55h4.02c21.74,39.25,8.42,108,5.14,122.99h-3.14c2.25-10.1,17.78-84.88-5.84-122.63
						C736.83,410.8,736.77,410.67,736.71,410.55z"/>
					<path class="st20" d="M661.54,533.07c0.02,0.16,0.03,0.31,0.03,0.46h-2.98c-8.77-70.07,0.91-107.14,7.44-122.99h3.68
						C663.77,423.8,652.37,460.31,661.54,533.07z"/>
				</g>
				<g>
					<path class="st22" d="M906.83,666.5h94.75c3.8,0,6.87-3.08,6.87-6.87V600.5c0-3.8-3.08-6.87-6.87-6.87h-94.75
						c-3.8,0-6.87,3.08-6.87,6.87v59.13C899.96,663.42,903.03,666.5,906.83,666.5z"/>
					
						<rect x="904.09" y="602.02" transform="matrix(-1 -1.224647e-16 1.224647e-16 -1 1900.0862 1260.1261)" class="st1" width="91.9" height="56.09"/>
					<path class="st21" d="M901.3,646.1h2.37c2.02,0,3.66-1.64,3.66-3.66v-24.75c0-2.02-1.64-3.66-3.66-3.66h-2.37
						c-2.02,0-3.66,1.64-3.66,3.66v24.75C897.63,644.46,899.27,646.1,901.3,646.1z"/>
				</g>
				<path class="st13" d="M935.37,557.33c-6.84,20.81,17.25,65.83,7.46,80.24s-4.86,29.54,6.99,37.04
					c11.85,7.5,26.59-3.01,25.4-8.72c-1.19-5.71-4.39-21.08-5.85-28.11c-1.46-7.03,26.11-63.33,6.7-97.47
					c-11.52-20.26,5.51-55.13-3.48-77.66c-8.05,15.01-46.17,5.63-43.98,22.09C932.1,498.8,939.22,545.63,935.37,557.33z"/>
				<path class="st10" d="M849.02,304.07c0,0-4.96,17.09-4.96,31.1c0,14.01,0.33,38.28,10.26,38.28s24.15-2.73,27.46-22.56
					s0-41.7-9.93-46.82C861.93,298.94,849.02,304.07,849.02,304.07z"/>
				<path class="st23" d="M852.9,316.69c2.67-1.1,5.43,1.28,4.92,4.21c-0.82,4.68-0.62,9.82,3.77,10.89c8.44,2.06,12.42,0,13.8,1.43
					c1.38,1.43-3.99,9.03,0,10.46c3.99,1.43,6.14-12.2,9.66-12.2c3.53,0,4.29,19.64,0,24.08c-4.29,4.44,0.61,10.46,6.29,10.46
					c5.67,0-0.72,7.13,6.93,9.51c7.64,2.38,13.78,2.38,16.23-7.29c2.45-9.66,0-15.05,0-15.05s7.81-9.14,5.83-18.17
					c-1.1-5.02-6.18-14.05-6.18-14.05s-3.94-10.72-5.01-16.9c-1.07-6.18-16.28-12.36-26.7-13.47c-10.42-1.11-5.2-7.45-13.94-7.45
					c-8.74,0-9.94,11.55-9.94,11.55s-12.48-7.46-13.06-7.11c-7.26,4.43-1.23,12.2-1.23,12.2s-5.98,0.63-7.21,8.4
					c-1.23,7.76,3.83,12.52,11.81,9.98C850.36,317.68,851.71,317.18,852.9,316.69z"/>
				<path class="st24" d="M844.26,288.46c1.54,0.22,3.56,0.71,5.99,1.43c3.74,2.08,8.29,4.8,8.29,4.8s16.29,4.56,25.63,9.01
					c11.97,5.7,22.45,11.43,29.5,15.93c0.29,0.83,0.47,1.32,0.47,1.32s1.87,3.32,3.58,7.05c-7.41-1.62-21.89-7.2-38.04-14.9
					C861.46,304.42,843.23,289.33,844.26,288.46z"/>
				<path class="st10" d="M879.51,330.4c0,0,4.22-7.77,7.97-3.43c3.76,4.33,1.78,22.66-3.99,22.66
					C877.73,349.62,877.47,335.31,879.51,330.4z"/>
				<path class="st18" d="M926.29,385.83c0,0-11.76,8.95-11.55,48.52c0.11,21.1,6.31,56.84,10.12,69.77
					c15.84-5.01,38.17-5.33,54.35,0c2.18-17.27-2.22-54.11-4.97-66.01C967.49,408.84,943.09,379.13,926.29,385.83z"/>
				<path class="st25" d="M855.12,290.52c7.82-16.41,27.59-23.31,44.15-15.42c16.56,7.89,23.65,27.6,15.83,44
					c-0.3,0.63-0.63,1.24-0.96,1.85l-59.85-28.52C854.55,291.79,854.82,291.15,855.12,290.52z"/>
				<path class="st18" d="M867.56,298.01c0.26-0.64,0.53-1.28,0.83-1.91c6.53-13.71,21.4-20.78,35.77-18.14
					c-1.52-1.07-3.16-2.03-4.89-2.86c-16.56-7.89-36.33-0.99-44.15,15.42c-0.3,0.63-0.57,1.27-0.83,1.91l59.85,28.52
					C914.25,320.76,867.56,298.01,867.56,298.01z"/>
				<path class="st26" d="M827.57,280.51c0.64-1.34,31.8,11.37,51.72,20.87c19.92,9.49,35.56,18.28,34.92,19.61
					c-0.64,1.34-33.68-6.42-53.6-15.92C840.68,295.58,826.93,281.84,827.57,280.51z"/>
			</g>
			<g>
				<path class="st27" d="M238.4,869.19c0,0-7.04,6.96-7.2,9.52c-0.16,2.56-0.62,29.94,2.25,32.49c2.87,2.56,11.32,4.37,8.6,7.24
					c-2.05,2.17-17.84,1.71-28.3,1.13c-3.05-0.17-6.88-24.87-8.09-28.5c-1.76-5.27-7.31-18.54-5.71-22.21
					c0.78-1.79,5.78-4.08,11.03-7.51c5.52-3.61,10.8-11.66,10.8-11.66L238.4,869.19z"/>
				<path class="st27" d="M332.6,886.3c0,0-6.3,18.05-6.31,18.09c-0.47,2.86-2.31,9.92-2.31,12.52c0,9.76,43.44-8.29,33.71-12.61
					c-0.88-0.39-3.65-3.52-3.94-6.84c-0.45-5.12,3.66-11.54,3.66-11.54L332.6,886.3z"/>
				<g>
					<path class="st28" d="M328.99,564.56L306.5,590.8l-22.05,137.26l-69.4,128.05c0,0,10.44,16.02,21.64,18.54l98.5-129.42
						l53.38-162.02l-1.87-36L328.99,564.56z"/>
					<path class="st29" d="M385.28,539.24l15.54,47.94c0,0,13.68,142.8,11.74,152.64c-4.75,24-52.73,154.68-52.73,154.68
						l-30.74-3.91l33.74-154.51l-56.21-145.15L385.28,539.24z"/>
				</g>
				<path class="st30" d="M534.51,376.05c-7.27,8.02-5.69,8.98-6.65,9.98c-1.14,1.19-22.23,5.68-22.23,5.68
					s-62.07,13.67-65.45,14.29l-64.39-14.65l-15.68,31.2c0,0,70.44,13.99,74.24,14.05c3.8,0.06,85.53-28.65,92.81-30.93
					c0,0,9.68,0.63,15.77,0.82c6.09,0.19,11.91-2.46,13.63-2.69c0.25-0.03,5.93-1.12,12.56-4.41c5.71-2.83-0.98-2.89-0.98-2.89
					s-11.51,3.26-11.61,2.26c-0.08-0.77,6.31-2.16,12.66-5.23c1.63-0.79,3.24-1.57,4.72-2.31c3.87-1.92,3.81-4.96-0.55-3.62
					c-1.54,0.47-4.08,1.32-5.8,2.2c-1.86,0.94-3.87,1.18-5.56,1.72c-3.35,1.08-5.77,1.91-5.74,1.74c0.04-0.22-0.77-0.5,0.93-1.39
					c2.05-1.07,6.91-2.34,9.81-4.17c1.64-1.04,5.21-2.98,5.21-2.98s5.95-3.89,5.37-4.69c-1.27-1.75-5.42,0.02-7.48,1.74
					c-1.85,0.38-5.55,2.54-5.55,2.54s-8.43,2.6-8.81,1.35c-0.15-0.49,4.19-3.02,8.53-6.02c4.59-3.18,7.75-5.7,7.3-6.73
					c-0.7-1.63-4.57,0.63-4.57,0.63s-3.41,2-4.59,2.57c-1.39,0.67-5.69,2.35-5.69,2.35s-15.24,5.1-15.51,3.89
					c-0.27-1.21,0.23-4.58,1.06-5.24c0.84-0.66,2.98-1.02,3.82-1.68c0.84-0.66,2.5-2.25,1.79-3.39c-0.71-1.14-7.05,0.39-7.05,0.39
					S536.61,373.74,534.51,376.05z"/>
				<path class="st31" d="M397.87,394.67c0,0-2.22,13.68-3.64,18.74c-1.18,4.2-9.52,21.5-9.52,21.5s-29.86-9.79-43.97-15.39
					c-17.12-6.79-36.91-21.42-35.62-23.28c3.6-5.19,9.42-11.26,17.64-13.32C351.19,375.82,397.87,394.67,397.87,394.67z"/>
				<path class="st9" d="M401.32,586.17c-28.49,11.24-95.44,4.75-95.44,4.75s4.24-29.24,5.74-48.98
					c1.5-19.73-11.07-50.97-16.37-105.19c-1.13-11.5,3.37-42.55,19.49-52.29c5.67-3.42,9.13-3.87,9.13-3.87
					c0.15,0,22.18-4.5,33.42-1.03c3.19,2.85,13.15,11.06,18.88,20.67c7.53,12.73,13.7,27.41,15.16,32.23
					c6.49,21.5,9.25,83.75,9.25,95.49C400.57,539.69,401.32,586.17,401.32,586.17z"/>
				<path class="st27" d="M376.16,400.23c-0.02,0.02-0.05,0.02-0.07,0.03c-10.95,3.4-52.24-19.55-52.24-19.55l0.02-0.12l5.01-32.74
					c0,0,25.77-6.07,24.27,3.24c-1.5,9.3,3.49,27.89,3.49,27.89c0.16,0.17,0.38,0.36,0.64,0.59
					C360.48,382.4,370.44,390.62,376.16,400.23z"/>
				<path class="st32" d="M353.15,351.08c1.5-9.3-24.28-3.23-24.28-3.23l-0.42,2.72c0.75,1.82,1.68,3.38,2.8,4.58
					c5.76,6.16,14.76,9.85,22.54,10.13C353.01,360.27,352.53,354.9,353.15,351.08z"/>
				<g>
					<path class="st27" d="M323.89,297.51c-0.79-0.28-6.33,40.53,4.18,51.76c10.51,11.23,30.98,14.91,38.32,6.06
						c8.12-9.78,7.71-53.65-8.62-65.2C341.44,278.57,323.89,297.51,323.89,297.51z"/>
					<path class="st33" d="M351.55,268.29c-12.62,2.56-20.8,10.22-23.81,13.49c-5.73,0.67-13.52,3.82-21.57,17.05
						c-9.9,16.27-2.59,34.3,8.93,43.15c11.52,8.84,11.39,19.11,11.39,19.11s19.51-10.02,17.62-25.44c-0.8-6.48-3.6-7.94-1.5-13.01
						c2.18-5.26,0.55-13.44,0.96-20.55l1.17-4.48c0,0,8.17-6.32,16.17-4.54C368.9,294.85,367.75,265.01,351.55,268.29z"/>
					<path class="st27" d="M345.81,326.89c0.08,4.98-0.93,8.97-3.82,9.02c-2.89,0.05-3.71-1.9-6.11-8.93
						c-2.25-6.59,0.48-9.06,3.38-9.11C342.15,317.82,345.73,321.91,345.81,326.89z"/>
				</g>
				<path class="st31" d="M211.32,861.18c0,0,14.71,45.19,21.06,47.42c1.69,0.59,11.3,3.23,12.83,6.86c0.04,0.09,0.07,0.2,0.1,0.32
					c0.49,2.3-1.44,4.42-3.79,4.42h-30.14c0,0-4.28-20.41-5.97-29.38c0,0-8.96-21.91-7.96-23.9
					C198.45,864.94,211.32,861.18,211.32,861.18z"/>
				<path class="st31" d="M321.51,920.13l4.98-15.93c0,0,10.45,4.48,15.67,3.73c5.22-0.75,15.42-3.73,15.42-3.73
					c20.85,6.96,37.93,10.33,34.82,15.93l0,0H321.51z"/>
				<path class="st30" d="M536.3,445.03c-9.59,5.82-9.03,6.51-10.28,7.23c-1.48,0.84-24.28-0.15-24.28-0.15s-67.22-2.51-70.84-2.77
					l-61.99-30.07l-24.43,25.8c0,0,68.35,30.96,72.22,31.97c3.87,1.01,95.25-5.89,103.31-6.24c0,0,9.74,3.02,15.92,4.72
					c6.18,1.7,12.86,0.63,14.67,0.85c0.27,0.03,6.37,0.42,14.04-1.06c6.61-1.27-0.23-3-0.23-3s-12.66,0.22-12.49-0.75
					c0.13-0.75,7.04-0.47,14.37-1.81c1.88-0.34,3.74-0.69,5.45-1.02c4.47-0.87,5.23-3.78,0.41-3.59c-1.7,0.06-4.53,0.24-6.53,0.64
					c-2.16,0.43-4.28,0.15-6.15,0.25c-3.71,0.19-6.21,0.37-6.13,0.21c0.1-0.2-0.87-0.66,1.12-1.08c2.39-0.51,7.7-0.5,11.16-1.52
					c1.96-0.57,6.13-1.53,6.13-1.53s4.95-2.95,4.91-3.35c-0.18-2.13-3.72-1.12-6.28,0c-2-0.1-6.36,1.03-6.36,1.03
					s-9.32,0.37-9.38-0.91c-0.02-0.49,5.36-0.85,10.9-2.62c6.35-2.02,7.93-4.87,7.75-6c-0.28-1.73-3.85-0.11-3.85-0.11
					s-4.9,2.23-6.27,2.48c-1.6,0.29-22.55,0.67-22.5-0.54c0.05-1.22,2.07-2.82,3.1-3.23c1.03-0.42,3-0.99,4.03-1.4
					c1.03-0.42,1.74-2.55,1.32-3.82c-0.42-1.27-4.98-0.58-4.98-0.58S539.07,443.35,536.3,445.03z"/>
				<path class="st34" d="M362.85,472.73c0,0,12.2-15.38,16.45-21.61c8.25-12.09,15.16-25.72,15.16-25.72s-33.98-19.57-46.65-26.25
					c-46.48-24.5-45.4,12.04-43.24,20.14C309.4,437.43,362.85,472.73,362.85,472.73z"/>
				<path class="st32" d="M535.3,393.01c4.02-2.29,7.13-5.89,6.11-10.41C544.85,386.18,540.51,392.8,535.3,393.01z"/>
			</g>
		</g>
	</g>
</g>
</svg>
