<svg id="Group_1429" data-name="Group 1429" xmlns="http://www.w3.org/2000/svg" xmlns:xlink="http://www.w3.org/1999/xlink" width="19.669" height="19.669" viewBox="0 0 19.669 19.669">
  <defs>
    <clipPath id="clip-path">
      <rect id="Rectangle_2496" data-name="Rectangle 2496" width="19.669" height="19.669" fill="#90a0b2"/>
    </clipPath>
  </defs>
  <g id="Group_1428" data-name="Group 1428" clip-path="url(#clip-path)">
    <path id="Path_5969" data-name="Path 5969" d="M15.08,17.046H.656A.656.656,0,0,1,0,16.39V.655A.656.656,0,0,1,.656,0H15.08a.656.656,0,0,1,.656.656V16.39a.656.656,0,0,1-.656.656M1.311,15.735H14.424V1.31H1.311Z" transform="translate(0 0.001)" fill="#90a0b2"/>
    <path id="Path_5970" data-name="Path 5970" d="M57.169,45.106H42.745a.656.656,0,0,1,0-1.311H56.513V29.37h-.656a.656.656,0,0,1,0-1.311h1.311a.656.656,0,0,1,.656.656V44.45a.656.656,0,0,1-.656.656" transform="translate(-38.155 -25.436)" fill="#90a0b2"/>
    <path id="Path_5971" data-name="Path 5971" d="M.715,94.683a.652.652,0,0,1-.459-1.114l2.655-2.727a1.75,1.75,0,0,1,2.282-.19l2.354,1.7a.446.446,0,0,0,.577-.052l2.426-2.439a1.8,1.8,0,0,1,2.5,0L15.6,92.441a.656.656,0,0,1-.931.918l-2.544-2.577a.452.452,0,0,0-.64-.016l-.016.016L9.035,93.241a1.757,1.757,0,0,1-2.282.2L4.4,91.733a.439.439,0,0,0-.577.046L1.18,94.487a.655.655,0,0,1-.465.2" transform="translate(-0.059 -81.007)" fill="#90a0b2"/>
    <path id="Path_5972" data-name="Path 5972" d="M64.7,32.322A2.623,2.623,0,1,1,67.326,29.7,2.623,2.623,0,0,1,64.7,32.322m0-3.934A1.311,1.311,0,1,0,66.015,29.7,1.311,1.311,0,0,0,64.7,28.388" transform="translate(-56.279 -24.546)" fill="#90a0b2"/>
  </g>
</svg>
