<?xml version="1.0" encoding="utf-8"?>
<!-- Generator: Adobe Illustrator 24.0.1, SVG Export Plug-In . SVG Version: 6.00 Build 0)  -->
<svg version="1.1" id="Layer_1" xmlns="http://www.w3.org/2000/svg" xmlns:xlink="http://www.w3.org/1999/xlink" x="0px" y="0px"
	 viewBox="0 0 300 300" style="enable-background:new 0 0 300 300;" xml:space="preserve">
<style type="text/css">
	.st0{fill:#9100EB;}
	.st1{fill:#FFFFFF;}
</style>
<g>
	<path class="st0" d="M300,262.5c0,20.63-16.88,37.5-37.5,37.5h-225C16.88,300,0,283.13,0,262.5v-225C0,16.88,16.88,0,37.5,0h225
		C283.13,0,300,16.88,300,37.5V262.5z"/>
	<g>
		<g>
			<path class="st1" d="M201.56,262.5H98.44c-33.6,0-60.94-27.34-60.94-60.94V98.44c0-33.6,27.34-60.94,60.94-60.94h103.13
				c33.6,0,60.94,27.34,60.94,60.94v103.13C262.5,235.16,235.16,262.5,201.56,262.5z M98.44,56.25c-23.26,0-42.19,18.93-42.19,42.19
				v103.13c0,23.26,18.93,42.19,42.19,42.19h103.13c23.26,0,42.19-18.93,42.19-42.19V98.44c0-23.26-18.93-42.19-42.19-42.19H98.44z"
				/>
		</g>
		<g>
			<path class="st1" d="M150,206.25c-31.02,0-56.25-25.24-56.25-56.25c0-31.02,25.23-56.25,56.25-56.25
				c31.01,0,56.25,25.23,56.25,56.25C206.25,181.01,181.01,206.25,150,206.25z M150,112.5c-20.68,0-37.5,16.82-37.5,37.5
				s16.82,37.5,37.5,37.5s37.5-16.82,37.5-37.5S170.68,112.5,150,112.5z"/>
		</g>
		<g>
			<circle class="st1" cx="209.77" cy="90.23" r="12.89"/>
		</g>
	</g>
</g>
</svg>
