<?xml version="1.0" encoding="utf-8"?>
<!-- Generator: Adobe Illustrator 24.0.1, SVG Export Plug-In . SVG Version: 6.00 Build 0)  -->
<svg version="1.1" id="Layer_1" xmlns="http://www.w3.org/2000/svg" xmlns:xlink="http://www.w3.org/1999/xlink" x="0px" y="0px"
	 viewBox="0 0 300 300" style="enable-background:new 0 0 300 300;" xml:space="preserve">
<g>
	<path d="M150,300c0,0,36.9-30.77,63-62.37c36.16-43.81,54.49-84.23,54.49-120.14C267.49,52.7,214.78,0,150,0
		S32.51,52.7,32.51,117.49c0,35.91,18.33,76.33,54.49,120.14C113.1,269.23,150,300,150,300z M150,63.37
		c29.84,0,54.12,24.28,54.12,54.12s-24.28,54.12-54.12,54.12s-54.12-24.28-54.12-54.12S120.16,63.37,150,63.37z"/>
	<ellipse transform="matrix(0.9734 -0.2291 0.2291 0.9734 -22.9153 37.4916)" cx="150" cy="117.43" rx="22.76" ry="22.76"/>
</g>
</svg>
