<?xml version="1.0" encoding="utf-8"?>
<!-- Generator: Adobe Illustrator 24.0.1, SVG Export Plug-In . SVG Version: 6.00 Build 0)  -->
<svg version="1.1" id="Layer_1" xmlns="http://www.w3.org/2000/svg" xmlns:xlink="http://www.w3.org/1999/xlink" x="0px" y="0px"
	 viewBox="0 0 300 300" style="enable-background:new 0 0 300 300;" xml:space="preserve">
<style type="text/css">
	.st0{fill:#5BDB98;}
</style>
<g>
	<path class="st0" d="M150,300c-8.81-0.06-17.19-3.83-23.08-10.38c-36.35-40.27-97.27-115.38-97.27-165.69
		C28.75,56.51,82.58,1.08,150,0c67.42,1.08,121.25,56.51,120.35,123.92c0,50.19-60.92,125.42-97.27,165.69
		C167.19,296.17,158.81,299.94,150,300z M150,23.08c-54.67,1.07-98.17,46.17-97.27,100.85c0,30.58,34.62,86.77,91.38,150
		c3.03,3.19,8.07,3.31,11.26,0.28c0.1-0.09,0.19-0.19,0.28-0.28c57.69-63.58,91.38-119.77,91.38-150
		C247.94,69.34,204.58,24.28,150,23.08z"/>
	<path class="st0" d="M150,181.27c-33.71,0-61.04-27.33-61.04-61.04c0-33.71,27.33-61.04,61.04-61.04
		c33.71,0,61.04,27.33,61.04,61.04c0,0.04,0,0.08,0,0.12C210.91,153.99,183.64,181.21,150,181.27z M150,82.38
		c-20.97,0-37.96,17-37.96,37.96c0,20.97,17,37.96,37.96,37.96c20.97,0,37.96-17,37.96-37.96C187.9,99.41,170.94,82.45,150,82.38z"
		/>
</g>
</svg>
