<?xml version="1.0" encoding="utf-8"?>
<!-- Generator: Adobe Illustrator 24.0.1, SVG Export Plug-In . SVG Version: 6.00 Build 0)  -->
<svg version="1.1" id="Layer_1" xmlns="http://www.w3.org/2000/svg" xmlns:xlink="http://www.w3.org/1999/xlink" x="0px" y="0px"
	 viewBox="0 0 500 500" style="enable-background:new 0 0 500 500;" xml:space="preserve">
<style type="text/css">
	.st0{opacity:0.12;fill-rule:evenodd;clip-rule:evenodd;fill:url(#SVGID_1_);}
	.st1{fill-rule:evenodd;clip-rule:evenodd;fill:#FCFCFC;}
	.st2{fill-rule:evenodd;clip-rule:evenodd;fill:#5BDB98;}
	.st3{fill-rule:evenodd;clip-rule:evenodd;fill:#4CB08A;}
	.st4{fill:#5BDB98;}
	.st5{fill:#4CB08A;}
	.st6{fill:#BAF4D2;}
	.st7{fill:#1B3149;}
	.st8{fill:#FCFCFC;}
	.st9{fill:#00081A;}
	.st10{fill:url(#SVGID_2_);}
	.st11{fill:url(#SVGID_3_);}
	.st12{fill:url(#SVGID_4_);}
	.st13{fill:#60E99C;}
	.st14{fill:#FFB44A;}
	.st15{fill:#FFD6A4;}
	.st16{fill:#FCB3BB;}
	.st17{fill:#442F6E;}
	.st18{fill:#FFCCD3;}
	.st19{fill:#F4BAC3;}
	.st20{fill:url(#SVGID_5_);}
	.st21{fill:url(#SVGID_6_);}
	.st22{fill:#FA8B98;}
</style>
<g>
	<g>
		<g>
			<linearGradient id="SVGID_1_" gradientUnits="userSpaceOnUse" x1="-9.094947e-13" y1="248.3709" x2="500" y2="248.3709">
				<stop  offset="0" style="stop-color:#5BDB98"/>
				<stop  offset="1" style="stop-color:#60E99C"/>
			</linearGradient>
			<path class="st0" d="M33.31,404.13c-40.71-23.98-45.56-87.63-6.5-120.09c52.34-43.51,7.8-81.87,6.5-121.57
				c-1.23-37.63,17.77-82.68,104.4-77.11c86.63,5.58,151.11,71.46,262.55,23.5c76.6-32.97,119.57,52.31,90.71,125.76
				c-28.86,73.46-49.94,80.08-38.96,128.37s-48.2,48.18-63.66,48.83C372.88,412.47,33.31,404.13,33.31,404.13z"/>
			<g>
				<path class="st1" d="M175.85,154.15c-1.29-0.22-2.55-0.24-3.77-0.15c0-0.02,0-0.03,0-0.04c0-2.07-1.68-3.75-3.75-3.75
					c-0.04,0-0.08,0.01-0.13,0.01c0.08-0.45,0.13-0.91,0.13-1.39c0-4.15-3.12-7.56-7.14-8.03c0.26-1.12,0.42-2.28,0.42-3.47
					c0-8.36-6.77-15.13-15.13-15.13c-4.98,0-9.39,2.42-12.14,6.13c-1.44-0.71-3.05-1.11-4.76-1.11c-1.29,0-2.53,0.24-3.68,0.65
					c0.03-0.42,0.06-0.84,0.06-1.27c0-9.87-8-17.87-17.87-17.87s-17.87,8-17.87,17.87c0,0.51,0.03,1.01,0.08,1.51
					c-0.32-0.09-0.65-0.15-0.99-0.15c-1.57,0-2.91,0.97-3.47,2.34c-0.87-0.23-1.78-0.36-2.72-0.36c-5.97,0-10.81,4.84-10.81,10.81
					c0,1.18,0.19,2.31,0.54,3.37c-0.2-0.03-0.41-0.06-0.63-0.06c-1.51,0-2.81,0.9-3.4,2.19c-1.39-1.36-3.28-2.19-5.37-2.19
					c-4.25,0-7.69,3.44-7.69,7.69c0,0,0,0.01,0,0.01c-0.53-0.29-1.13-0.47-1.78-0.47c-1.4,0-2.61,0.78-3.25,1.91
					c-0.38-0.12-8.67-2.62-15.49,1.09c-5.37,2.92-6.56,7.89-6.56,7.89h153.92C182.63,162.18,183.27,155.39,175.85,154.15z
					 M92.17,134.65l-0.08,0.05c-0.06-0.09-0.14-0.18-0.2-0.27c0.04-0.04,0.08-0.07,0.12-0.11
					C92.06,134.43,92.12,134.54,92.17,134.65z"/>
				<path class="st1" d="M228.81,142.34c0,3.85-3.12,6.98-6.98,6.98s-6.98-3.12-6.98-6.98c0-3.85,3.12-6.98,6.98-6.98
					S228.81,138.49,228.81,142.34z"/>
				<path class="st1" d="M469.59,165.35c0,3.85-3.12,6.98-6.98,6.98s-6.98-3.12-6.98-6.98c0-3.85,3.12-6.98,6.98-6.98
					S469.59,161.49,469.59,165.35z"/>
				<path class="st2" d="M321.5,104.58c0,3.85-3.12,6.98-6.98,6.98s-6.98-3.12-6.98-6.98c0-3.85,3.12-6.98,6.98-6.98
					S321.5,100.72,321.5,104.58z"/>
				<path class="st2" d="M433.65,293.31c0,3.85-3.12,6.98-6.98,6.98c-3.85,0-6.98-3.12-6.98-6.98c0-3.85,3.12-6.98,6.98-6.98
					C430.53,286.33,433.65,289.46,433.65,293.31z"/>
				<path class="st2" d="M83.33,202.26c0,3.85-3.12,6.98-6.98,6.98c-3.85,0-6.98-3.12-6.98-6.98s3.12-6.98,6.98-6.98
					C80.2,195.28,83.33,198.4,83.33,202.26z"/>
				<path class="st2" d="M152.44,265.19c0,2.21-1.79,4.01-4.01,4.01c-2.21,0-4.01-1.79-4.01-4.01c0-2.21,1.79-4.01,4.01-4.01
					C150.65,261.18,152.44,262.98,152.44,265.19z"/>
				<path class="st2" d="M311.55,169.79c0,2.21-1.79,4.01-4.01,4.01c-2.21,0-4.01-1.79-4.01-4.01c0-2.21,1.79-4.01,4.01-4.01
					C309.75,165.79,311.55,167.58,311.55,169.79z"/>
				<path class="st1" d="M320.38,231.97c0,2.21-1.79,4.01-4.01,4.01c-2.21,0-4.01-1.79-4.01-4.01s1.79-4.01,4.01-4.01
					C318.59,227.96,320.38,229.75,320.38,231.97z"/>
				<path class="st1" d="M161.09,198.32c0,2.21-1.79,4.01-4.01,4.01c-2.21,0-4.01-1.79-4.01-4.01s1.79-4.01,4.01-4.01
					C159.29,194.31,161.09,196.1,161.09,198.32z"/>
				<path class="st1" d="M450.18,229.74c0,2.21-1.79,4.01-4.01,4.01c-2.21,0-4.01-1.79-4.01-4.01c0-2.21,1.79-4.01,4.01-4.01
					C448.38,225.74,450.18,227.53,450.18,229.74z"/>
			</g>
		</g>
		<g>
			<g>
				<g>
					<path class="st3" d="M73.38,401.03c0,0-15.34-20.01-4.52-20.28c0,0-23.68-45.02-3.86-41.44c0,0-16.21-46.92,6.2-39.89
						c0,0,3.2-26.49,12.67-22.97c9.47,3.52,3.04,26.82,3.04,26.82s17.47,3.75-5.34,36.04c0,0,20.55-4.53-3.25,40.09
						c0,0,10.36-0.54,1.53,21.63H73.38z"/>
					<g>
						<path class="st4" d="M77.75,403.82c-0.35,0-0.68-0.23-0.78-0.59c-13.27-47.37,2.38-111.65,2.54-112.3
							c0.11-0.44,0.55-0.7,0.98-0.59c0.43,0.11,0.7,0.55,0.59,0.98c-0.16,0.64-15.71,64.52-2.55,111.47c0.12,0.43-0.13,0.88-0.56,1
							C77.9,403.82,77.82,403.82,77.75,403.82z"/>
					</g>
					<path class="st1" d="M60.27,400.11c-13.71-4.47-9.57-12.07-7.13-12.61c2.43-0.54-34.35-23.39-15.14-28.87
						c0,0-23.09-19.12-14.87-28.6c8.79-10.14,26.77,11.36,29.48,22.51c0,0,15.71-12.17,12.17,26.37c0,0,13.74-6.93,4.52,22.11
						L60.27,400.11z"/>
					<path class="st2" d="M84.57,401.03c0,0,20.46-23.68,7.1-21.6c0,0,31.44-31.95,12.17-32.35c0,0,26.57-27.18,10.55-35.9
						c-15.91-8.66-20.89,32.05-20.89,32.05s-19.19-13.18-11.76,32.86c0,0-13.39-5.27-1.83,24.54L84.57,401.03z"/>
					<g>
						<path class="st4" d="M67.1,407.1c-0.36,0-0.7-0.25-0.79-0.62c-0.03-0.11-2.82-11.38-8.34-25.17
							c-5.08-12.69-13.58-30.18-25.21-41.43c-0.32-0.31-0.33-0.82-0.02-1.15c0.31-0.32,0.82-0.33,1.15-0.02
							c11.84,11.45,20.45,29.17,25.6,42.01c5.56,13.89,8.38,25.25,8.41,25.36c0.11,0.43-0.16,0.87-0.59,0.98
							C67.23,407.1,67.17,407.1,67.1,407.1z"/>
					</g>
					<g>
						<path class="st5" d="M82.42,403.82c-0.43,0-0.79-0.33-0.81-0.77c-0.57-10.18,3.77-26.91,12.88-49.72
							c6.77-16.94,13.79-31.11,13.86-31.25c0.2-0.4,0.68-0.57,1.09-0.37c0.4,0.2,0.56,0.69,0.37,1.09
							c-0.28,0.56-27.89,56.4-26.57,80.16c0.02,0.45-0.32,0.83-0.77,0.85C82.45,403.82,82.44,403.82,82.42,403.82z"/>
					</g>
				</g>
				<ellipse class="st6" cx="250" cy="405.38" rx="241.96" ry="9.73"/>
				<g>
					<ellipse class="st4" cx="377.42" cy="193.9" rx="42.28" ry="96.31"/>
					<g>
						<g>
							<path class="st7" d="M377.42,399.67c-0.9,0-1.62-0.73-1.62-1.62V182.38c0-0.9,0.73-1.62,1.62-1.62s1.62,0.73,1.62,1.62
								v215.67C379.04,398.94,378.31,399.67,377.42,399.67z"/>
						</g>
						<g>
							<path class="st7" d="M377.42,248.82c-0.42,0-0.83-0.16-1.15-0.48c-0.63-0.63-0.63-1.66,0-2.29l25.51-25.51
								c0.63-0.63,1.66-0.63,2.29,0c0.63,0.63,0.63,1.66,0,2.29l-25.51,25.51C378.25,248.66,377.83,248.82,377.42,248.82z"/>
						</g>
						<g>
							<path class="st7" d="M377.42,216.79c-0.42,0-0.83-0.16-1.15-0.48c-0.63-0.63-0.63-1.66,0-2.29l12.95-12.95
								c0.63-0.63,1.66-0.63,2.29,0c0.63,0.63,0.63,1.66,0,2.29l-12.95,12.95C378.25,216.63,377.83,216.79,377.42,216.79z"/>
						</g>
						<g>
							<path class="st7" d="M377.42,236.99c-0.42,0-0.83-0.16-1.15-0.48l-21.5-21.5c-0.63-0.63-0.63-1.66,0-2.29
								c0.63-0.63,1.66-0.63,2.29,0l21.5,21.5c0.63,0.63,0.63,1.66,0,2.29C378.25,236.83,377.83,236.99,377.42,236.99z"/>
						</g>
					</g>
					<path class="st7" d="M372.05,399.93c0,0-1.43-9.56-13.95-16.99c0,0,14.89,4.6,20.72,14.24c0,0,5.18-32.97,9.06-42.97
						l-1.28,43.17c0,0,12.26-17.99,25.17-24.44c0,0-14.69,15.98-14.85,27H372.05z"/>
				</g>
			</g>
			<g>
				<path class="st7" d="M113.99,400c-0.39,0-0.7-0.31-0.7-0.7V153.58c0-0.39,0.31-0.7,0.7-0.7s0.7,0.31,0.7,0.7V399.3
					C114.69,399.69,114.38,400,113.99,400z"/>
			</g>
			<g>
				<polygon class="st8" points="97.36,134.59 105.21,168.78 113.99,168.78 113.99,134.59 				"/>
				<g>
					<g>
						<polygon class="st8" points="130.62,134.59 122.77,168.78 113.99,168.78 113.99,134.59 						"/>
					</g>
					<g>
						<path class="st7" d="M128.3,136.44l-7,30.49h-7.31h-7.31l-7-30.49h14.31H128.3 M130.62,134.59L130.62,134.59L130.62,134.59z
							 M130.62,134.59h-16.63H97.36l7.85,34.19h8.78h8.78L130.62,134.59L130.62,134.59z"/>
					</g>
					<g>
						<polygon class="st7" points="113.99,126.28 97.36,134.59 113.99,134.59 130.62,134.59 						"/>
					</g>
					<g>
						<rect x="113.08" y="134.72" class="st7" width="1.82" height="33.58"/>
					</g>
				</g>
			</g>
		</g>
	</g>
	<g>
		<g>
			<g>
				<g>
					<path class="st4" d="M196.5,244.87l-0.79-0.18l3.82-16.38c0.24-1.05,1.17-1.78,2.24-1.78h5.29v0.81h-5.29
						c-0.7,0-1.29,0.47-1.45,1.15L196.5,244.87z"/>
				</g>
				<g>
					<path class="st8" d="M197.19,244.92l-0.76-0.29l8.02-21.28c0.36-0.95,1.29-1.59,2.3-1.59h5.98v0.81h-5.98
						c-0.68,0-1.3,0.43-1.54,1.07L197.19,244.92z"/>
				</g>
				<path class="st4" d="M209.01,222.56c-1.08,0-1.96,1.96-1.96,4.37s0.88,4.37,1.96,4.37V222.56z"/>
				<path class="st8" d="M218.92,222.4c0,3.81-1.38,6.9-3.09,6.9c-1.71,0-3.09-3.09-3.09-6.9c0-3.81,1.38-6.9,3.09-6.9
					C217.53,215.5,218.92,218.59,218.92,222.4z"/>
			</g>
			<g>
				<g>
					<path class="st9" d="M161.97,339.7c-15.92,0-28.83,12.91-28.83,28.83s12.91,28.83,28.83,28.83s28.83-12.91,28.83-28.83
						S177.89,339.7,161.97,339.7z M161.97,386.24c-9.78,0-17.71-7.93-17.71-17.71s7.93-17.71,17.71-17.71s17.71,7.93,17.71,17.71
						S171.75,386.24,161.97,386.24z"/>
					<circle class="st8" cx="161.97" cy="368.53" r="5.29"/>
				</g>
				<g>
					<path class="st8" d="M323.12,368.53c0,2.92-2.37,5.29-5.29,5.29c-2.92,0-5.29-2.37-5.29-5.29c0-2.92,2.37-5.29,5.29-5.29
						C320.75,363.24,323.12,365.61,323.12,368.53z"/>
					<path class="st9" d="M317.83,339.7c-15.92,0-28.83,12.91-28.83,28.83s12.91,28.83,28.83,28.83c15.92,0,28.83-12.91,28.83-28.83
						S333.75,339.7,317.83,339.7z M317.83,386.24c-9.78,0-17.71-7.93-17.71-17.71s7.93-17.71,17.71-17.71
						c9.78,0,17.71,7.93,17.71,17.71S327.61,386.24,317.83,386.24z"/>
				</g>
			</g>
			<path class="st8" d="M182.48,254.24c0,4.22,3.42,7.64,7.64,7.64V246.6C185.9,246.6,182.48,250.02,182.48,254.24z"/>
			<linearGradient id="SVGID_2_" gradientUnits="userSpaceOnUse" x1="168.2815" y1="278.6955" x2="337.2354" y2="389.7814">
				<stop  offset="0" style="stop-color:#5BDB98"/>
				<stop  offset="1" style="stop-color:#4CB08A"/>
			</linearGradient>
			<path class="st10" d="M213.83,254.81c0,0-0.09-2.5-3.33-2.67c-3.25-0.17-6.49-2.2-7-4.33c-0.12-0.52-0.19-1.01-0.21-1.46
				c-0.08-1.35-1.23-2.39-2.59-2.39h-7.89c-1.43,0-2.6,1.16-2.6,2.6v15.29c0,1.43,1.16,2.6,2.6,2.6h6.02c0,0,3.55,2.43-0.71,8.32
				c-4.26,5.88-23.22,30.83-28.29,39.55c-5.07,8.72-5.68,18.25-5.68,18.25l4.06,16.83l25.96,14.6l7.91,7.41
				c1.04,0.98,2.42,1.52,3.84,1.52h86.21v-13.18h67.74c0,0-4.26-26.37-32.66-43.2h-63.48c0,0,10.82,11.76,8.55,28.19
				c-2.26,16.43-18.9,21.5-25.79,21.5c-6.9,0-23.73,0-32.45,0c-8.72,0-19.47-17.24-20.49-35.09c-1.01-17.85,5.14-33.33,12.58-43.64
				c4.71-6.53,8.32-12.95,8.72-18.02C215.27,262.42,213.83,254.81,213.83,254.81z"/>
			<path class="st9" d="M364.08,351.26h-16.89c-1.79,0-3.25,1.45-3.25,3.25l0,0c0,1.79,1.45,3.25,3.25,3.25h16.89
				c1.79,0,3.25-1.45,3.25-3.25l0,0C367.32,352.71,365.87,351.26,364.08,351.26z"/>
			<linearGradient id="SVGID_3_" gradientUnits="userSpaceOnUse" x1="126.202" y1="347.2365" x2="197.7327" y2="347.2365">
				<stop  offset="0" style="stop-color:#5BDB98"/>
				<stop  offset="1" style="stop-color:#4CB08A"/>
			</linearGradient>
			<path class="st11" d="M161.97,329.35c-19.75,0-35.77,16.01-35.77,35.77h71.53C197.73,345.37,181.72,329.35,161.97,329.35z"/>
			<linearGradient id="SVGID_4_" gradientUnits="userSpaceOnUse" x1="285.9881" y1="335.1898" x2="348.506" y2="377.0407">
				<stop  offset="0" style="stop-color:#5BDB98"/>
				<stop  offset="1" style="stop-color:#4CB08A"/>
			</linearGradient>
			<path class="st12" d="M356.23,365.86h-72.41c0,0-9.51-12.74-3.25-27.18c8.32-19.17,32.91-15.82,46.9-7.71
				S351.77,353.9,356.23,365.86z"/>
			<path class="st9" d="M262.55,316.23l-1.76,2.49c-0.35,0.5-0.92,0.79-1.53,0.79l0,0c-1.03,0-1.87-0.84-1.87-1.87v-13.91
				c0-0.41,0.34-0.75,0.75-0.75h39.54c6.68,0,12.63-2.2,15.5-4.56c0.91-0.75,2.28-0.49,2.86,0.53c1.64,2.88,3.51,8.52-1.23,15.27
				c-0.14,0.2-0.38,0.32-0.62,0.32h-48.39C264.51,314.55,263.3,315.18,262.55,316.23z"/>
			<g>
				<path class="st13" d="M338.99,355.32h-46.04c-0.67,0-1.22,0.54-1.22,1.22l0,0c0,0.67,0.54,1.22,1.22,1.22h46.04
					c0.67,0,1.22-0.54,1.22-1.22l0,0C340.21,355.86,339.66,355.32,338.99,355.32z"/>
				<path class="st13" d="M326.28,348.52h-33.33c-0.67,0-1.22,0.54-1.22,1.22l0,0c0,0.67,0.54,1.22,1.22,1.22h33.33
					c0.67,0,1.22-0.54,1.22-1.22l0,0C327.5,349.07,326.95,348.52,326.28,348.52z"/>
				<path class="st13" d="M314.75,341.73h-21.8c-0.67,0-1.22,0.54-1.22,1.22l0,0c0,0.67,0.54,1.22,1.22,1.22h21.8
					c0.67,0,1.22-0.54,1.22-1.22l0,0C315.97,342.28,315.43,341.73,314.75,341.73z"/>
			</g>
			<g>
				<rect x="319.99" y="283.31" class="st14" width="47.33" height="29.68"/>
				<rect x="327.43" y="264.51" class="st15" width="32.45" height="18.81"/>
				<g>
					<g>
						<path d="M334.73,314.14c-0.02,0-0.04,0-0.06,0c-0.22-0.03-0.37-0.24-0.34-0.46l7.3-49.23c0.03-0.22,0.24-0.37,0.46-0.34
							c0.22,0.03,0.37,0.24,0.34,0.46l-7.3,49.23C335.1,314,334.93,314.14,334.73,314.14z"/>
					</g>
					<g>
						<path d="M353.61,314.14c-0.2,0-0.37-0.15-0.4-0.35l-7.3-49.23c-0.03-0.22,0.12-0.43,0.34-0.46c0.22-0.03,0.43,0.12,0.46,0.34
							l7.3,49.23c0.03,0.22-0.12,0.43-0.34,0.46C353.65,314.14,353.63,314.14,353.61,314.14z"/>
					</g>
				</g>
			</g>
			<path class="st1" d="M192.54,300.19c0,0-5.46,7.94-7.32,17.89l-5.17,0.3c0,0,3.29-9.49,7.82-16.03L192.54,300.19z"/>
			<g>
				<path d="M372.99,314.55h-58.87c-0.45,0-0.81-0.36-0.81-0.81c0-0.45,0.36-0.81,0.81-0.81h58.87c0.45,0,0.81,0.36,0.81,0.81
					C373.8,314.19,373.44,314.55,372.99,314.55z"/>
			</g>
			<path class="st14" d="M214.89,268.02c-0.04,0.47-0.29,1.13-0.37,1.63c-1.18,0.16-1.79,0.22-2.29,0.26c-2.28,0.16-7-5.93-7-7.75
				c0-1.42,5.02-6.01,8.42-8.1C213.92,254.75,215.33,262.4,214.89,268.02z"/>
			<path class="st9" d="M222.28,265.16c-0.28-0.42-0.65-0.76-1.09-1.01v-0.02c-0.39-0.2-4.25-2.4-4.25-2.4v0.02
				c-0.45-0.22-0.95-0.34-1.47-0.34c-1.91,0-3.44,1.55-3.44,3.46c0,0.62,0.15,1.19,0.45,1.69c0.25,0.43,0.59,0.82,1.01,1.12
				l0.02,0.02c0.16,0.11,0.31,0.19,0.48,0.28l1.3,0.73l2.22,1.26c0,0,0.02,0.02,0.03,0.02l0.4,0.23c0.46,0.22,0.96,0.34,1.49,0.34
				c1.75,0,3.19-1.3,3.43-2.98c0.02-0.16,0.03-0.31,0.03-0.47C222.88,266.38,222.66,265.7,222.28,265.16z"/>
		</g>
		<g>
			<g>
				<g>
					<path class="st9" d="M233.88,350.55h-7.45c0,0-2.7,3.65-6.36,4.12c-2.05,0.27-5.86,0.23-8.79,0.15
						c-2.22-0.06-4.05,1.72-4.05,3.95l0,0c0,2.18,1.77,3.95,3.95,3.95h22.71c0.97,0,1.76-0.79,1.76-1.76L233.88,350.55z"/>
					<path class="st9" d="M234.49,351.87h-7.45c0,0-2.7,3.65-6.36,4.12c-2.05,0.27-5.86,0.23-8.79,0.15
						c-2.22-0.06-4.05,1.72-4.05,3.95l0,0c0,2.18,1.77,3.95,3.95,3.95h22.71c0.97,0,1.76-0.79,1.76-1.76L234.49,351.87z"/>
					<path class="st16" d="M227.73,351.26c0.29,1.57,1.65,2.74,3.28,2.74c1.63,0,2.99-1.17,3.28-2.74H227.73z"/>
				</g>
				<path class="st9" d="M291.07,285.51c0,0-47.07,0-58.22,0c-14.92,0-14.92,15.54-14.92,22.09c0,6.55,5.3,43.35,5.3,43.35h11.29
					l3.48-43.35c0,0,34.01,0,42.93,0S295.4,297.57,291.07,285.51z"/>
				<path class="st7" d="M292.14,287.77c0,0-46.65,0-57.47,0c-14.47,0-14.47,15.08-14.47,21.43c0,6.36,5.14,42.05,5.14,42.05h10.95
					l3.38-42.05c0,0,32.99,0,41.65,0C289.98,309.21,296.33,299.47,292.14,287.77z"/>
			</g>
			<g>
				<path class="st17" d="M273.76,210.06c0,0,3.96-4.26,6.25-11.02c0,0-11.38-15.87-30.5-7.28L273.76,210.06z"/>
				<path class="st18" d="M249.47,191.77c0,0-1.35,10,2.32,17.77c3.67,7.77,4.58,7.95,11.18,6.64l1.12,8.55l12.54-4.44
					c0,0-4.79-13.38-2.9-15.78c1.6-2.03,2.16-5.58-0.16-6.81c-3.68-1.95-6.37,2.35-6.53,4.14l-1.81-6.73
					C265.24,195.11,252.28,190.71,249.47,191.77z"/>
				<g>
					<path class="st15" d="M253.28,192.78c-0.05,0-0.09,0-0.14-0.01l-20.78-4.14c-0.37-0.07-0.62-0.44-0.54-0.81
						c0.07-0.38,0.44-0.62,0.81-0.54l20.78,4.14c0.37,0.07,0.62,0.44,0.54,0.81C253.89,192.55,253.6,192.78,253.28,192.78z"/>
				</g>
				<path class="st14" d="M249.55,192.11l30.6,6.88c0,0,3.2-14.7-10.23-18.5C256.49,176.69,249.91,185.28,249.55,192.11z"/>
			</g>
			<path class="st19" d="M276.99,251.69c0,0-0.34,0.93-0.91,2.34c-0.17,0.43-0.37,0.93-0.59,1.46c-0.09,0.19-0.17,0.39-0.25,0.57
				c-0.09,0.19-0.17,0.39-0.25,0.57c-1.63,3.72-3.97,8.31-5.84,9.25c-1.05,0.53-6.25,0.59-12.73,0.45
				c-13.25-0.31-31.88-1.53-31.88-1.53s-0.91,0.14-2.26,0.36c-0.28-0.42-0.65-0.76-1.09-1.01v-0.02c-0.39-0.2-4.25-2.4-4.25-2.4
				v0.02c-0.45-0.22-0.95-0.34-1.47-0.34c-1.91,0-3.44,1.55-3.44,3.46c0,0.62,0.15,1.19,0.45,1.69c-0.03,0.02-0.08,0.02-0.11,0.02
				c-1.61,0.09-4.57-3.26-5.74-5.47c1.29-1.78,4.77-4.77,7.19-6.28c0,0-0.03-1.07-0.96-1.86c1.27-0.88,2.4-1.5,3.01-1.55
				c2.03-0.14,10.82,5.83,10.82,5.83l29.02-1.57l6.42-0.34l0.2-0.64l0.2-0.57l0.19-0.59l1.3-3.88L276.99,251.69z"/>
			<g>
				<linearGradient id="SVGID_5_" gradientUnits="userSpaceOnUse" x1="252.4809" y1="238.6907" x2="288.6728" y2="272.5967">
					<stop  offset="0" style="stop-color:#60E99C"/>
					<stop  offset="1" style="stop-color:#4CB08A"/>
				</linearGradient>
				<path class="st20" d="M258.83,286.15c0,0-2.59-39.25,1.07-52.94c3.56-13.34,15.2-18.66,21.69-10.14
					c6.49,8.52,3.92,22.26,4.46,33.47c1.01,20.89,5.88,27.38,6.08,31.24h-33.31V286.15z"/>
				<polygon class="st3" points="283.49,236.62 278.75,257.64 259.81,254.76 264.96,233.91 				"/>
			</g>
			<path class="st18" d="M276.99,254.17c0,0-0.2,0.56-0.56,1.46c-0.06,0.19-0.15,0.37-0.23,0.59c-0.06,0.19-0.15,0.37-0.23,0.57
				c-1.53,3.78-4.51,10.43-6.82,11.58c-1.05,0.53-6.11,0.6-12.49,0.47h-0.02c-13.25-0.31-32.1-1.53-32.1-1.53s-0.67,0.11-1.69,0.26
				c0.02-0.16,0.03-0.31,0.03-0.47c0-0.71-0.22-1.39-0.6-1.94c-0.28-0.42-0.65-0.76-1.09-1.01v-0.02c-0.39-0.2-4.25-2.4-4.25-2.4
				v0.02c-0.45-0.22-0.95-0.34-1.47-0.34c-1.91,0-3.44,1.55-3.44,3.46c0,0.62,0.15,1.19,0.45,1.69c0.25,0.43,0.59,0.82,1.01,1.12
				l0.02,0.02c0.16,0.11,0.31,0.19,0.48,0.28l1.3,0.73c-0.2,0.03-0.4,0.05-0.59,0.08c-1.04,0.14-1.89,0.25-2.33,0.28
				c-2.03,0.14-6.23-5.27-6.23-6.9c0-0.25,0.19-0.6,0.5-1.05c1.29-1.78,4.77-4.77,7.19-6.28c0.87-0.54,1.6-0.88,2.05-0.91
				c2.03-0.14,10.82,5.81,10.82,5.81l29.13-1.55h0.02l6.29-0.34l0.99-3.01l0.2-0.57l0.19-0.59l0.51-1.52l12.06,1.89L276.99,254.17z"
				/>
			<linearGradient id="SVGID_6_" gradientUnits="userSpaceOnUse" x1="257.8566" y1="231.3829" x2="294.67" y2="265.8712">
				<stop  offset="0" style="stop-color:#60E99C"/>
				<stop  offset="1" style="stop-color:#4CB08A"/>
			</linearGradient>
			<polygon class="st21" points="264.96,233.21 261.11,253.9 277.94,256.47 283.49,235.92 			"/>
			<polygon class="st22" points="259.91,228.05 259.91,228.06 259.9,228.05 			"/>
		</g>
	</g>
</g>
</svg>
