<?xml version="1.0" encoding="utf-8"?>
<!-- Generator: Adobe Illustrator 24.0.1, SVG Export Plug-In . SVG Version: 6.00 Build 0)  -->
<svg version="1.1" id="Layer_1" xmlns="http://www.w3.org/2000/svg" xmlns:xlink="http://www.w3.org/1999/xlink" x="0px" y="0px"
	 viewBox="0 0 300 300" style="enable-background:new 0 0 300 300;" xml:space="preserve">
<style type="text/css">
	.st0{fill:#5BDB98;}
</style>
<path class="st0" d="M273.33,45.09H26.67C11.97,45.09,0,58.19,0,74.27v151.46c0,16.09,11.97,29.18,26.67,29.18h246.66
	c14.71,0,26.67-13.09,26.67-29.18V74.27C300,58.18,288.03,45.09,273.33,45.09z M274.36,71.08l-124.48,72.61L27.62,70.99h245.7
	C273.69,70.99,274.04,71.02,274.36,71.08z M273.33,229.01H26.67c-3.05,0-4.92-2.13-4.92-3.28V95.65l127.83,76l128.67-74.87v128.94
	C278.25,226.88,276.38,229.01,273.33,229.01z"/>
</svg>
