<svg id="motorcycle" xmlns="http://www.w3.org/2000/svg" width="24.148" height="13.442" viewBox="0 0 24.148 13.442">
  <path id="Path_433" data-name="Path 433" d="M165.442,119.868a3.525,3.525,0,0,0-1.02.151l-.843-1.566h.448a.707.707,0,0,0,.707-.707v-2.83a.708.708,0,0,0-.992-.648l-1.954.86-.676-1.255a.707.707,0,0,0-.623-.372h-2.83a.707.707,0,0,0-.5.207l-1.415,1.415a.707.707,0,1,0,1,1l1.208-1.208h2.114l.423.785v1.357a12.307,12.307,0,0,0-4.245,1V122.7h2.122a3.516,3.516,0,0,0,1.319-.256,3.087,3.087,0,0,1-2.734,1.671h-4.245a.707.707,0,0,0,0,1.415h4.245c3.231,0,4.952-3.1,4.952-6.367v-.707h.067l1.2,2.238a3.535,3.535,0,1,0,2.265-.823Zm0,5.66a2.121,2.121,0,0,1-1.571-3.548l.948,1.761a.707.707,0,1,0,1.246-.671l-.949-1.762a2.122,2.122,0,1,1,.326,4.22Z" transform="translate(-144.831 -113.501)" fill="#60e99c"/>
  <path id="Path_434" data-name="Path 434" d="M10,194.16v-4c-1.265.572-2.012.78-3.18-.082a7,7,0,0,0-4.7-1.576.707.707,0,0,0,0,1.415,5.874,5.874,0,0,1,3.537,1.037v1.087A3.529,3.529,0,1,0,7,194.16Zm-6.461,2.83a2.122,2.122,0,1,1,2.122-2.122A2.125,2.125,0,0,1,3.537,196.989Z" transform="translate(0 -184.963)" fill="#60e99c"/>
  <ellipse id="Ellipse_32" data-name="Ellipse 32" cx="0.5" cy="1" rx="0.5" ry="1" transform="translate(2.657 8.982)" fill="#60e99c"/>
</svg>
