<?xml version="1.0" encoding="utf-8"?>
<!-- Generator: Adobe Illustrator 24.0.1, SVG Export Plug-In . SVG Version: 6.00 Build 0)  -->
<svg version="1.1" id="Layer_1" xmlns="http://www.w3.org/2000/svg" xmlns:xlink="http://www.w3.org/1999/xlink" x="0px" y="0px"
	 viewBox="0 0 500 500" style="enable-background:new 0 0 500 500;" xml:space="preserve">
<style type="text/css">
	.st0{opacity:0.12;fill-rule:evenodd;clip-rule:evenodd;fill:url(#SVGID_1_);}
	.st1{fill-rule:evenodd;clip-rule:evenodd;fill:#FCFCFC;}
	.st2{fill-rule:evenodd;clip-rule:evenodd;fill:#5BDB98;}
	.st3{fill-rule:evenodd;clip-rule:evenodd;fill:#4CB08A;}
	.st4{fill:#5BDB98;}
	.st5{fill:#4CB08A;}
	.st6{fill:#BAF4D2;}
	.st7{fill:#1B3149;}
	.st8{fill:#FCFCFC;}
	.st9{fill:#FAC5C2;}
	.st10{fill:#242638;}
	.st11{fill:#D88080;}
	.st12{fill:none;stroke:#D4DEE8;stroke-width:1.798;stroke-linecap:round;stroke-linejoin:round;stroke-miterlimit:10;}
	.st13{fill:#F7EAD5;}
	.st14{fill:none;stroke:#FFFFFF;stroke-width:1.243;stroke-linecap:round;stroke-linejoin:round;stroke-miterlimit:10;}
	.st15{fill:#ACBDD2;}
	.st16{fill:#F26021;}
	.st17{fill:#F3967A;}
	.st18{fill:none;stroke:#F26021;stroke-width:1.5915;stroke-linecap:round;stroke-linejoin:round;stroke-miterlimit:10;}
	.st19{fill:#FFD277;}
	.st20{fill:none;stroke:#242638;stroke-width:3.3313;stroke-miterlimit:10;}
	.st21{fill:none;stroke:#F3967A;stroke-width:3.3313;stroke-miterlimit:10;}
</style>
<g>
	<g>
		<linearGradient id="SVGID_1_" gradientUnits="userSpaceOnUse" x1="7.9236" y1="246.8801" x2="500" y2="246.8801">
			<stop  offset="0" style="stop-color:#5BDB98"/>
			<stop  offset="1" style="stop-color:#60E99C"/>
		</linearGradient>
		<path class="st0" d="M40.71,400.18c-40.06-23.6-44.84-86.24-6.4-118.19c51.51-42.82,7.68-80.57,6.4-119.65
			c-1.21-37.03,17.49-81.37,102.74-75.89c85.26,5.49,148.72,70.33,258.39,23.13c75.39-32.45,117.67,51.48,89.27,123.77
			c-28.4,72.29-49.15,78.81-38.34,126.33c10.81,47.53-47.43,47.41-62.66,48.05S40.71,400.18,40.71,400.18z"/>
		<g>
			<path class="st1" d="M180.99,154.15c-1.27-0.21-2.51-0.23-3.71-0.14c0-0.01,0-0.03,0-0.04c0-2.04-1.65-3.69-3.69-3.69
				c-0.04,0-0.08,0.01-0.13,0.01c0.08-0.44,0.13-0.9,0.13-1.37c0-4.08-3.07-7.44-7.03-7.9c0.26-1.1,0.41-2.24,0.41-3.42
				c0-8.22-6.67-14.89-14.89-14.89c-4.9,0-9.24,2.38-11.95,6.03c-1.41-0.7-3-1.1-4.68-1.1c-1.27,0-2.49,0.23-3.62,0.64
				c0.03-0.42,0.06-0.83,0.06-1.25c0-9.71-7.87-17.58-17.58-17.58s-17.58,7.87-17.58,17.58c0,0.5,0.03,0.99,0.08,1.48
				c-0.31-0.09-0.64-0.15-0.98-0.15c-1.55,0-2.86,0.95-3.41,2.3c-0.86-0.22-1.75-0.35-2.67-0.35c-5.88,0-10.64,4.76-10.64,10.64
				c0,1.16,0.19,2.27,0.54,3.32c-0.2-0.03-0.4-0.06-0.62-0.06c-1.49,0-2.77,0.89-3.35,2.16c-1.36-1.33-3.23-2.16-5.29-2.16
				c-4.18,0-7.57,3.39-7.57,7.57c0,0,0,0.01,0,0.01c-0.52-0.28-1.11-0.46-1.75-0.46c-1.38,0-2.56,0.76-3.2,1.88
				c-0.38-0.12-8.54-2.57-15.24,1.08c-5.28,2.88-6.45,7.77-6.45,7.77h151.48C187.66,162.05,188.28,155.37,180.99,154.15z
				 M98.63,134.96L98.56,135c-0.06-0.09-0.13-0.17-0.2-0.26c0.04-0.04,0.08-0.07,0.12-0.11C98.53,134.74,98.58,134.85,98.63,134.96z
				"/>
			<path class="st1" d="M233.11,142.53c0,3.79-3.07,6.87-6.87,6.87c-3.79,0-6.87-3.07-6.87-6.87c0-3.79,3.07-6.87,6.87-6.87
				C230.04,135.66,233.11,138.74,233.11,142.53z"/>
			<path class="st1" d="M470.07,165.17c0,3.79-3.07,6.87-6.87,6.87c-3.79,0-6.87-3.07-6.87-6.87c0-3.79,3.07-6.87,6.87-6.87
				C466.99,158.31,470.07,161.38,470.07,165.17z"/>
			<path class="st2" d="M324.33,105.36c0,3.79-3.07,6.87-6.87,6.87s-6.87-3.07-6.87-6.87c0-3.79,3.07-6.87,6.87-6.87
				S324.33,101.57,324.33,105.36z"/>
			<path class="st2" d="M434.7,291.11c0,3.79-3.07,6.87-6.87,6.87c-3.79,0-6.87-3.07-6.87-6.87c0-3.79,3.07-6.87,6.87-6.87
				C431.63,284.24,434.7,287.31,434.7,291.11z"/>
			<path class="st2" d="M89.93,201.5c0,3.79-3.07,6.87-6.87,6.87s-6.87-3.07-6.87-6.87c0-3.79,3.07-6.87,6.87-6.87
				S89.93,197.7,89.93,201.5z"/>
			<path class="st2" d="M157.95,263.43c0,2.18-1.77,3.94-3.94,3.94c-2.18,0-3.94-1.77-3.94-3.94c0-2.18,1.77-3.94,3.94-3.94
				C156.19,259.49,157.95,261.25,157.95,263.43z"/>
			<path class="st2" d="M314.53,169.55c0,2.18-1.77,3.94-3.94,3.94c-2.18,0-3.94-1.77-3.94-3.94c0-2.18,1.77-3.94,3.94-3.94
				C312.77,165.61,314.53,167.37,314.53,169.55z"/>
			<path class="st1" d="M323.23,230.73c0,2.18-1.76,3.94-3.94,3.94s-3.94-1.77-3.94-3.94s1.77-3.94,3.94-3.94
				S323.23,228.56,323.23,230.73z"/>
			<path class="st1" d="M166.46,197.62c0,2.18-1.77,3.94-3.94,3.94c-2.18,0-3.94-1.76-3.94-3.94s1.77-3.94,3.94-3.94
				C164.69,193.68,166.46,195.44,166.46,197.62z"/>
			<path class="st1" d="M450.97,228.55c0,2.18-1.77,3.94-3.94,3.94c-2.18,0-3.94-1.77-3.94-3.94c0-2.18,1.77-3.94,3.94-3.94
				C449.2,224.6,450.97,226.37,450.97,228.55z"/>
		</g>
	</g>
	<g>
		<path class="st3" d="M62.53,400.02c0,0-15.09-19.7-4.45-19.96c0,0-23.31-44.31-3.8-40.78c0,0-15.96-46.18,6.1-39.26
			c0,0,3.15-26.07,12.47-22.61c9.32,3.46,2.99,26.4,2.99,26.4s17.19,3.69-5.26,35.47c0,0,20.23-4.46-3.19,39.45
			c0,0,10.2-0.53,1.51,21.29H62.53z"/>
		<g>
			<path class="st4" d="M66.83,402.78c-0.35,0-0.67-0.23-0.77-0.58C53,355.58,68.4,292.31,68.56,291.68
				c0.11-0.43,0.54-0.69,0.97-0.58c0.43,0.11,0.69,0.54,0.58,0.97c-0.16,0.63-15.46,63.49-2.51,109.7c0.12,0.42-0.13,0.86-0.55,0.98
				C66.98,402.77,66.9,402.78,66.83,402.78z"/>
		</g>
		<path class="st1" d="M49.63,399.13c-13.49-4.4-9.42-11.88-7.02-12.41c2.4-0.53-33.8-23.02-14.9-28.41c0,0-22.72-18.82-14.64-28.15
			c8.65-9.98,26.35,11.18,29.01,22.16c0,0,15.47-11.98,11.98,25.95c0,0,13.53-6.82,4.45,21.76L49.63,399.13z"/>
		<path class="st2" d="M73.54,400.02c0,0,20.13-23.3,6.99-21.26c0,0,30.94-31.44,11.98-31.84c0,0,26.15-26.75,10.38-35.33
			c-15.65-8.52-20.56,31.54-20.56,31.54s-18.89-12.97-11.58,32.34c0,0-13.17-5.19-1.8,24.15L73.54,400.02z"/>
		<g>
			<path class="st4" d="M56.35,406c-0.36,0-0.69-0.24-0.77-0.61c-0.03-0.11-2.78-11.2-8.21-24.77c-5-12.49-13.37-29.71-24.81-40.77
				c-0.32-0.31-0.33-0.81-0.02-1.13c0.31-0.32,0.81-0.33,1.13-0.02c11.65,11.27,20.13,28.7,25.19,41.35
				c5.47,13.67,8.24,24.85,8.27,24.96c0.11,0.43-0.16,0.86-0.58,0.97C56.48,406,56.42,406,56.35,406z"/>
		</g>
		<g>
			<path class="st5" d="M71.43,402.78c-0.42,0-0.77-0.33-0.8-0.75c-0.56-10.02,3.71-26.48,12.67-48.94
				c6.66-16.68,13.57-30.61,13.64-30.75c0.2-0.4,0.67-0.56,1.07-0.36c0.39,0.2,0.56,0.68,0.36,1.07
				c-0.27,0.55-27.45,55.5-26.15,78.89c0.02,0.44-0.31,0.82-0.75,0.84C71.46,402.78,71.44,402.78,71.43,402.78z"/>
		</g>
	</g>
	<ellipse class="st6" cx="238.12" cy="404.43" rx="238.12" ry="9.58"/>
	<g>
		<ellipse class="st4" cx="403.88" cy="199.23" rx="41.61" ry="94.78"/>
		<g>
			<g>
				<path class="st7" d="M403.88,401.74c-0.88,0-1.6-0.72-1.6-1.6V187.89c0-0.88,0.71-1.6,1.6-1.6s1.6,0.72,1.6,1.6v212.25
					C405.48,401.02,404.76,401.74,403.88,401.74z"/>
			</g>
			<g>
				<path class="st7" d="M403.88,253.28c-0.41,0-0.82-0.16-1.13-0.47c-0.62-0.62-0.62-1.63,0-2.26l25.11-25.11
					c0.62-0.62,1.63-0.62,2.26,0c0.62,0.62,0.62,1.63,0,2.26l-25.11,25.11C404.7,253.12,404.29,253.28,403.88,253.28z"/>
			</g>
			<g>
				<path class="st7" d="M403.88,221.75c-0.41,0-0.82-0.16-1.13-0.47c-0.62-0.62-0.62-1.63,0-2.26l12.74-12.74
					c0.62-0.62,1.63-0.62,2.26,0c0.62,0.62,0.62,1.63,0,2.26l-12.74,12.74C404.7,221.6,404.29,221.75,403.88,221.75z"/>
			</g>
			<g>
				<path class="st7" d="M403.88,241.63c-0.41,0-0.82-0.16-1.13-0.47L381.59,220c-0.62-0.62-0.62-1.63,0-2.26
					c0.62-0.62,1.63-0.62,2.26,0l21.16,21.16c0.62,0.62,0.62,1.63,0,2.26C404.7,241.48,404.29,241.63,403.88,241.63z"/>
			</g>
		</g>
		<path class="st7" d="M398.6,402c0,0-1.41-9.41-13.73-16.72c0,0,14.65,4.52,20.39,14.02c0,0,5.1-32.44,8.91-42.29l-1.26,42.48
			c0,0,12.06-17.7,24.77-24.06c0,0-14.46,15.73-14.62,26.57H398.6z"/>
	</g>
	<g>
		<path class="st7" d="M120.11,396.11c-0.38,0-0.69-0.31-0.69-0.69V153.59c0-0.38,0.31-0.69,0.69-0.69s0.69,0.31,0.69,0.69v241.83
			C120.8,395.8,120.49,396.11,120.11,396.11z"/>
	</g>
	<g>
		<polygon class="st8" points="103.74,134.9 111.47,168.55 120.11,168.55 120.11,134.9 		"/>
		<g>
			<g>
				<polygon class="st8" points="136.48,134.9 128.75,168.55 120.11,168.55 120.11,134.9 				"/>
			</g>
			<g>
				<path class="st7" d="M134.19,136.72l-6.89,30.01h-7.19h-7.19l-6.89-30.01h14.08H134.19 M136.48,134.9L136.48,134.9L136.48,134.9
					z M136.48,134.9h-16.37h-16.37l7.73,33.65h8.64h8.64L136.48,134.9L136.48,134.9z"/>
			</g>
			<g>
				<polygon class="st7" points="120.11,126.72 103.74,134.9 120.11,134.9 136.48,134.9 				"/>
			</g>
			<g>
				<rect x="119.21" y="135.03" class="st7" width="1.79" height="33.05"/>
			</g>
		</g>
	</g>
	<g>
		<path class="st9" d="M321.35,265.47l0.25,13.3l-7.78,22.84c0,0-5.02,0.75-8.03,5.02l-1.51,2.51l4.77-2.51l-2.01,4.27l-4.27,6.28
			h2.51l5.02-1.51l-1.76,3.77l6.28-5.27l3.51-10.79l12.05-19.58l1.51-16.82L321.35,265.47z"/>
		<path class="st9" d="M370.05,328.05l-0.17,13.89c0,0,6.86,12.22,8.37,26.77c1.51,14.56,1.51,17.74,1.51,17.74l1.84,3.68l-8.2,0.67
			l0.59-3.68c0,0-15.48-42-15.81-43.84s-1.67-14.73-1.67-14.73L370.05,328.05z"/>
		<path class="st9" d="M343.94,330.9c0,0-5.19,16.9-5.19,17.57c0,0.67,1.34,13.05-0.17,17.9c-1.51,4.85-7.45,22.34-7.45,22.34
			l0.25,3.43l-8.7-0.84l3.18-3.68c0,0,2.01-39.66,2.01-41.16c0-1.51,3.18-20.41,3.18-20.41L343.94,330.9z"/>
		<path class="st7" d="M368.54,288.81c0,0,2.01,5.27,2.26,7.03c0.25,1.76,1.26,36.65,1.26,36.65s-9.04,6.28-20.58,0.5l-1.25-16.82
			l-3.51,17.32c0,0-13.05,3.26-20.83-3.51l8.53-36.4L368.54,288.81z"/>
		<g>
			<path class="st10" d="M370.56,303.01c-1.65,0-8.59-0.61-9.93-10.74l0.43-0.06c1.46,11.03,9.46,10.39,9.8,10.35l0.04,0.44
				C370.9,303,370.77,303.01,370.56,303.01z"/>
		</g>
		<g>
			<path class="st10" d="M350.25,316.58c0,0-0.01,0-0.01,0c-0.12-0.01-0.21-0.11-0.21-0.23l0.2-3.54l-0.01-1.29
				c-0.05,0.02-0.11,0.02-0.17,0l-3.18-1.34c-0.08-0.03-0.13-0.11-0.13-0.19l-0.84-14.89c-0.01-0.12,0.08-0.22,0.2-0.23l4.18-0.33
				c0.06-0.01,0.12,0.02,0.16,0.06c0.05,0.04,0.07,0.1,0.07,0.16l0.15,18.07l-0.2,3.55C350.46,316.49,350.36,316.58,350.25,316.58z
				 M347.17,309.83l3.05,1.28l-0.13-16.13l-3.74,0.3L347.17,309.83z"/>
		</g>
		<path class="st4" d="M339.68,231.58c0,0,13.81,0.5,19.83,5.27s8.53,36.65,8.53,36.65l2.01,17.07c0,0-22.34,12.05-36.4,4.52
			l1-19.83l-3.26-5.77l-12.8-1.76c0,0-2.39-22.2-1.64-23.96c0.75-1.76,9.69-6.05,9.69-6.05L339.68,231.58z"/>
		<path class="st9" d="M326.87,223.46l1.07,11.98c0,0,2.38,7.4,8.54,4.62c6.16-2.78,4.2-7.02,4.2-7.02l-1.16-1.77l-1.93-6.66
			L326.87,223.46z"/>
		<path class="st11" d="M327.06,225.54l-0.15-1.71l3.19-0.01l3.16,0.34l4.84,2.23l1.05,3.63
			C337.23,230.45,330.41,231.55,327.06,225.54z"/>
		<g>
			<path class="st9" d="M340.45,211.28c1.31,5.16,2.65,15.8-2.42,17.43c-5.34,1.72-8.96-0.29-11.43-4.97c0,0-2.32,1.89-3.39-1.77
				c-0.47-1.61,1.59-1.39,1.59-1.39s-7.58-11.95,0.26-15.9S338.66,204.21,340.45,211.28z"/>
			<path class="st10" d="M331.54,214.86c0.18,0.03,0.36,0.08,0.53,0.05c0.17-0.03,0.33-0.14,0.37-0.34c0.06-0.28-0.16-0.6-0.4-0.76
				c-0.47-0.33-1.01-0.29-1.51-0.22c-0.51,0.07-1.02,0.15-1.47,0.39c-0.45,0.24-0.84,0.65-0.99,1.21c-0.02,0.07-0.03,0.14-0.01,0.22
				c0.04,0.1,0.14,0.16,0.23,0.15c0.09-0.01,0.16-0.06,0.23-0.11C329.39,214.86,330.47,214.65,331.54,214.86z"/>
			<path class="st10" d="M336.69,213.72c-0.13,0.11-0.25,0.23-0.4,0.28c-0.15,0.05-0.32,0.02-0.43-0.14c-0.16-0.23-0.12-0.61,0-0.86
				c0.24-0.5,0.68-0.7,1.1-0.86c0.43-0.16,0.87-0.3,1.32-0.29c0.45,0.02,0.93,0.22,1.28,0.66c0.04,0.05,0.08,0.11,0.09,0.19
				c0.01,0.11-0.05,0.2-0.12,0.24c-0.07,0.03-0.15,0.02-0.23,0C338.39,212.79,337.46,213.07,336.69,213.72z"/>
			<g>
				<path class="st10" d="M335.72,222.13l-0.4-0.19c0.16-0.35,0.52-0.48,0.83-0.59c0.1-0.04,0.2-0.07,0.3-0.12
					c0.22-0.1,0.41-0.27,0.53-0.48c0.02-0.03,0.03-0.06,0.03-0.07c0.01-0.04-0.06-0.13-0.09-0.17c-0.76-1.01-1.56-2.06-1.76-3.34
					l0.43-0.07c0.19,1.17,0.95,2.17,1.68,3.14c0.08,0.11,0.21,0.28,0.18,0.5c-0.02,0.09-0.05,0.17-0.09,0.23
					c-0.17,0.28-0.42,0.5-0.72,0.64c-0.11,0.05-0.22,0.09-0.34,0.13C336.04,221.86,335.81,221.94,335.72,222.13z"/>
			</g>
			<path class="st10" d="M338.87,215.75c-0.21-0.88-0.75-1.5-1.2-1.39c-0.45,0.11-0.64,0.91-0.43,1.78c0.21,0.88,0.75,1.5,1.2,1.39
				C338.89,217.42,339.09,216.62,338.87,215.75z"/>
			<path class="st10" d="M332.02,217.75c-0.21-0.88-0.75-1.5-1.2-1.39c-0.45,0.11-0.64,0.91-0.43,1.78c0.21,0.88,0.75,1.5,1.2,1.39
				C332.04,219.42,332.23,218.63,332.02,217.75z"/>
			<path class="st8" d="M339.22,222.32c0,0-3.1,1.78-6.56,1.77c0,0,1.95,2.17,4.05,1.48C338.81,224.89,339.22,222.32,339.22,222.32z
				"/>
			<path class="st10" d="M341.04,206.53c0.35-0.43,0.81-0.91,0.68-1.45c-0.12-0.52-0.74-0.76-1.27-0.81
				c-0.53-0.05-1.11-0.01-1.56-0.3c1.01-0.48,1.03-2.04,0.31-2.9c-0.63-0.75-1.62-1.13-2.6-1.2c-0.98-0.06-1.95,0.15-2.9,0.4
				c-1.78,0.48-3.52,1.1-5.2,1.86c-1.41,0.64-2.96,1.39-4.44,0.94c-0.42-0.13-0.83-0.36-1.27-0.32c-0.7,0.06-1.18,0.81-1.2,1.51
				c-0.02,0.7,0.31,1.37,0.62,2c-0.77-0.01-1.62,0.15-2.1,0.76c-0.48,0.61-0.25,1.73,0.52,1.84c0.25,0.04,0.54-0.03,0.72,0.15
				c0.2,0.2,0.08,0.53-0.03,0.79c-0.89,2.05-0.93,4.46-0.11,6.54c0.82,2.08,2.49,3.81,4.54,4.7c0-2.01,0.33-4.01,0.41-6.02
				c0.08-2.01-0.11-4.09-1.05-5.87c4.07,1.2,8.53,0.28,12.36-1.55c0.29-0.14,0.61-0.29,0.92-0.19c0.33,0.1,0.51,0.45,0.65,0.76
				c0.54,1.15,1.08,2.29,1.61,3.44C339.75,210.05,339.91,207.94,341.04,206.53z"/>
		</g>
		<line class="st12" x1="331.39" y1="269.48" x2="327.71" y2="261.79"/>
		<g>
			<g>
				<path class="st10" d="M380.18,387.13c0,0,4.86,4.57,5.33,9.18l-23.98,8.18c0,0-3.05-4.09,1.98-7.09
					c5.03-3,10.13-9.61,10.13-9.61S378.76,389.82,380.18,387.13z"/>
				<path class="st13" d="M385.52,396.31l-23.98,8.18c0,0-0.75-1.01-0.89-2.39l24.32-8.3C385.24,394.63,385.43,395.47,385.52,396.31
					z"/>
				<path class="st14" d="M375.32,389.45c-0.34-0.33-0.71-0.65-1.15-0.82c-0.64-0.24-1.35-0.16-2.01-0.02
					c-0.58,0.12-1.16,0.27-1.72,0.45c-0.73,0.24-1.49,0.56-1.95,1.18c-0.14,0.19-0.25,0.45-0.13,0.65c0.09,0.15,0.28,0.21,0.45,0.23
					c0.56,0.06,1.09-0.2,1.59-0.46c1.2-0.63,2.36-1.31,3.5-2.04c0.06,0.73,0.21,1.45,0.46,2.13c0.23,0.64,0.56,1.27,1.06,1.74
					c0.22,0.2,0.47,0.37,0.76,0.43c0.29,0.06,0.62-0.01,0.81-0.23c0.2-0.22,0.23-0.54,0.16-0.83s-0.23-0.53-0.4-0.77
					C376.31,390.51,375.84,389.95,375.32,389.45z"/>
			</g>
		</g>
		<g>
			<g>
				<path class="st10" d="M331.44,390.22c0,0,2.66,6.1,1.57,10.6l-25.33-0.23c0,0-1.52-4.87,4.22-6.04s12.74-5.71,12.74-5.71
					S329.21,392.28,331.44,390.22z"/>
				<path class="st13" d="M333.02,400.81l-25.33-0.23c0,0-0.37-1.2-0.05-2.55l25.69,0.23C333.31,399.14,333.21,400,333.02,400.81z"
					/>
				<path class="st14" d="M325.67,390.96c-0.21-0.43-0.45-0.85-0.82-1.16c-0.52-0.44-1.22-0.59-1.89-0.69
					c-0.59-0.08-1.18-0.13-1.77-0.14c-0.77-0.02-1.59,0.04-2.23,0.47c-0.2,0.13-0.39,0.34-0.34,0.57c0.03,0.17,0.19,0.29,0.35,0.37
					c0.51,0.24,1.1,0.17,1.65,0.09c1.34-0.2,2.66-0.45,3.98-0.77c-0.19,0.71-0.28,1.44-0.27,2.17c0.01,0.69,0.11,1.39,0.42,1.99
					c0.14,0.26,0.32,0.51,0.57,0.66c0.25,0.15,0.58,0.2,0.84,0.06c0.26-0.14,0.4-0.43,0.43-0.73c0.03-0.29-0.04-0.58-0.13-0.86
					C326.25,392.29,325.99,391.61,325.67,390.96z"/>
			</g>
		</g>
		<polygon class="st10" points="326.24,319.42 327.56,330.81 325.54,330.81 318.49,319.73 		"/>
		<polygon class="st4" points="343.87,231.83 341.66,231.48 339.1,229.62 335.27,239.04 328.04,234.54 326.64,237.96 331.78,243.23 
			341.2,243.46 342.94,240.44 		"/>
		<g>
			<polygon class="st10" points="332.86,242.94 326.51,238.13 326.77,237.78 332.8,242.35 335.55,239.25 339.18,240.5 
				341.45,231.43 341.87,231.54 339.49,241.07 335.68,239.76 			"/>
		</g>
		<g>
			<polygon class="st10" points="336.38,253.01 333.95,241.47 334.38,241.38 336.72,252.51 339.61,252.06 337.49,240.24 
				337.93,240.16 340.12,252.42 			"/>
		</g>
		<polygon class="st8" points="333.68,253.22 326.78,255.86 327.71,258.81 334.76,256.95 		"/>
		<path class="st10" d="M335.47,242.05c0-0.36,0.29-0.65,0.65-0.65c0.36,0,0.65,0.29,0.65,0.65c0,0.36-0.29,0.65-0.65,0.65
			C335.76,242.7,335.47,242.41,335.47,242.05z"/>
		<path class="st10" d="M336.17,245.94c0-0.36,0.29-0.65,0.65-0.65c0.36,0,0.65,0.29,0.65,0.65s-0.29,0.65-0.65,0.65
			C336.46,246.6,336.17,246.3,336.17,245.94z"/>
		<path class="st10" d="M336.95,249.78c0-0.36,0.29-0.65,0.65-0.65c0.36,0,0.65,0.29,0.65,0.65c0,0.36-0.29,0.65-0.65,0.65
			C337.25,250.43,336.95,250.14,336.95,249.78z"/>
		<path class="st9" d="M156.74,265.47l-0.25,13.3l7.78,22.84c0,0,5.02,0.75,8.03,5.02l1.51,2.51l-4.77-2.51l2.01,4.27l4.27,6.28
			h-2.51l-5.02-1.51l1.76,3.77l-6.27-5.27l-3.51-10.79l-12.05-19.58l-1.51-16.82L156.74,265.47z"/>
		<path class="st9" d="M108.04,328.05l0.17,13.89c0,0-6.86,12.22-8.37,26.77c-1.51,14.56-1.51,17.74-1.51,17.74l-1.84,3.68l8.2,0.67
			l-0.59-3.68c0,0,15.48-42,15.81-43.84c0.33-1.84,1.67-14.73,1.67-14.73L108.04,328.05z"/>
		<path class="st9" d="M134.15,330.9c0,0,5.19,16.9,5.19,17.57c0,0.67-1.34,13.05,0.17,17.9c1.51,4.85,7.45,22.34,7.45,22.34
			l-0.25,3.43l8.7-0.84l-3.18-3.68c0,0-2.01-39.66-2.01-41.16c0-1.51-3.18-20.41-3.18-20.41L134.15,330.9z"/>
		<path class="st15" d="M109.55,288.81c0,0-2.01,5.27-2.26,7.03c-0.25,1.76-1.26,36.65-1.26,36.65s9.04,6.28,20.58,0.5l1.26-16.82
			l3.51,17.32c0,0,13.05,3.26,20.83-3.51l-8.53-36.4L109.55,288.81z"/>
		<g>
			<path class="st10" d="M107.54,303.01c-0.22,0-0.34-0.01-0.35-0.01l0.04-0.44c0.34,0.04,8.34,0.68,9.8-10.35l0.43,0.06
				C116.12,302.4,109.19,303.01,107.54,303.01z"/>
		</g>
		<g>
			<path class="st10" d="M127.84,316.58c-0.11,0-0.21-0.09-0.22-0.21l-0.2-3.54l0.15-18.08c0-0.06,0.03-0.12,0.07-0.16
				c0.04-0.04,0.1-0.06,0.16-0.06l4.18,0.33c0.12,0.01,0.21,0.11,0.2,0.23l-0.84,14.89c-0.01,0.08-0.06,0.16-0.13,0.19l-3.18,1.34
				c-0.06,0.03-0.12,0.02-0.17,0l-0.01,1.31l0.2,3.52c0.01,0.12-0.09,0.22-0.21,0.23C127.85,316.58,127.85,316.58,127.84,316.58z
				 M128.01,294.99l-0.13,16.13l3.05-1.28l0.82-14.54L128.01,294.99z"/>
		</g>
		<path class="st4" d="M138.42,231.58c0,0-13.81,0.5-19.83,5.27c-6.02,4.77-8.53,36.65-8.53,36.65l-2.01,17.07
			c0,0,22.34,12.05,36.4,4.52l-1-19.83l3.26-5.77l12.8-1.76c0,0-1.26-16.57-2.01-18.32c-0.75-1.76-10.54-12.8-10.54-12.8
			L138.42,231.58z"/>
		<path class="st9" d="M143.77,222.78l-6.91,9.84c0,0-2.96,7.19,3.54,9.04c6.5,1.85,7.74-2.65,7.74-2.65l0.25-2.1l2.82-6.33
			L143.77,222.78z"/>
		<path class="st11" d="M142.58,224.49l0.99-1.41l2.45,2.05l2.19,2.29l2.26,4.83l-1.54,3.45
			C147.18,234.81,141.26,231.25,142.58,224.49z"/>
		<g>
			<path class="st9" d="M162.01,222.23c-2.33,4.79-8.17,13.78-13.09,11.76c-5.19-2.13-6.66-6-5.52-11.17c0,0-2.99-0.05-1.45-3.54
				c0.68-1.54,2.11-0.04,2.11-0.04s1.92-14.03,10.46-11.98S165.2,215.67,162.01,222.23z"/>
			<path class="st16" d="M152.89,219.22c0.11,0.14,0.22,0.29,0.37,0.38c0.15,0.09,0.35,0.11,0.5-0.02c0.23-0.18,0.26-0.56,0.19-0.84
				c-0.15-0.56-0.59-0.88-1.01-1.14c-0.43-0.28-0.88-0.54-1.38-0.65c-0.5-0.11-1.06-0.05-1.54,0.29c-0.06,0.04-0.12,0.09-0.14,0.16
				c-0.04,0.1,0.01,0.21,0.08,0.26c0.07,0.05,0.16,0.06,0.25,0.07C151.25,217.84,152.21,218.37,152.89,219.22z"/>
			<path class="st16" d="M157.56,221.67c-0.17,0-0.34,0.01-0.48-0.04c-0.14-0.06-0.26-0.19-0.24-0.39c0.03-0.28,0.3-0.54,0.56-0.66
				c0.5-0.23,0.97-0.1,1.39,0.06c0.43,0.15,0.86,0.33,1.19,0.63c0.33,0.31,0.57,0.76,0.55,1.33c0,0.07-0.01,0.14-0.05,0.21
				c-0.06,0.09-0.17,0.12-0.24,0.1c-0.07-0.02-0.13-0.08-0.18-0.14C159.46,222.06,158.57,221.67,157.56,221.67z"/>
			<g>
				<path class="st10" d="M152.84,227.73c-0.15,0-0.29-0.02-0.43-0.06c-0.11-0.03-0.23-0.07-0.34-0.11c-0.26-0.1-0.49-0.18-0.68-0.1
					l-0.18-0.4c0.35-0.16,0.7-0.03,1.01,0.09c0.1,0.04,0.2,0.07,0.3,0.1c0.23,0.06,0.48,0.05,0.71-0.02
					c0.02-0.01,0.05-0.02,0.07-0.03c0.03-0.02,0.03-0.15,0.04-0.19c0.07-1.27,0.14-2.58,0.81-3.69l0.38,0.23
					c-0.61,1.01-0.68,2.27-0.75,3.48c-0.01,0.12-0.02,0.35-0.19,0.49c-0.08,0.06-0.16,0.1-0.22,0.12
					C153.21,227.71,153.03,227.73,152.84,227.73z"/>
			</g>
			<path class="st10" d="M157.92,224.63c0.4-0.81,0.39-1.63-0.02-1.83c-0.41-0.21-1.08,0.28-1.48,1.08
				c-0.4,0.81-0.39,1.63,0.02,1.83C156.85,225.92,157.52,225.44,157.92,224.63z"/>
			<path class="st10" d="M151.39,221.74c0.4-0.81,0.39-1.63-0.02-1.83c-0.41-0.21-1.08,0.28-1.48,1.08
				c-0.4,0.81-0.39,1.63,0.02,1.83C150.32,223.03,150.99,222.54,151.39,221.74z"/>
			<path class="st8" d="M153.94,229.88c0,0-3.51-0.64-6.15-2.88c0,0,0.09,2.92,2.14,3.75C151.97,231.57,153.94,229.88,153.94,229.88
				z"/>
			<path class="st17" d="M165.52,218.99c0.55-0.11,1.21-0.17,1.46-0.67c0.24-0.48-0.07-1.05-0.45-1.44c-0.38-0.38-0.85-0.72-1-1.24
				c1.08,0.29,2.1-0.89,2.11-2.01c0.01-0.98-0.51-1.91-1.22-2.59c-0.71-0.68-1.59-1.15-2.48-1.56c-1.67-0.78-3.4-1.43-5.17-1.94
				c-1.49-0.42-3.15-0.85-3.99-2.15c-0.24-0.37-0.41-0.81-0.77-1.06c-0.58-0.41-1.42-0.14-1.89,0.38c-0.47,0.53-0.65,1.24-0.81,1.93
				c-0.59-0.5-1.34-0.93-2.1-0.78c-0.76,0.16-1.31,1.17-0.79,1.74c0.17,0.19,0.43,0.33,0.45,0.58c0.02,0.28-0.28,0.46-0.53,0.59
				c-2,0.99-3.59,2.8-4.3,4.92c-0.71,2.12-0.55,4.52,0.44,6.52c1.3-1.53,2.84-2.85,4.2-4.33c1.36-1.48,2.56-3.2,2.98-5.16
				c2.34,3.54,6.33,5.72,10.44,6.79c0.31,0.08,0.65,0.18,0.83,0.45c0.18,0.29,0.1,0.67,0.01,1c-0.33,1.22-0.66,2.44-0.99,3.67
				C162.26,220.84,163.75,219.34,165.52,218.99z"/>
			<path class="st18" d="M144.48,219.24c2.86-2.98,5.27-6.4,7.11-10.1c-0.18,0.38,1.13,1.52,1.35,1.75
				c0.82,0.85,1.75,1.62,2.74,2.26c2.64,1.71,5.6,2.51,8.52,3.59c0.4,0.15,0.82,0.32,1.07,0.67c0.24,0.35,0.19,0.94-0.21,1.1"/>
			<path class="st18" d="M165.37,215.21c-1.18-1.38-3.07-1.88-4.82-2.37c-2.58-0.72-5.2-1.63-7.14-3.47"/>
		</g>
		<line class="st12" x1="146.7" y1="269.48" x2="150.38" y2="261.79"/>
		<g>
			<g>
				<path class="st19" d="M97.91,387.13c0,0-4.86,4.57-5.33,9.18l23.98,8.18c0,0,3.05-4.09-1.98-7.09c-5.03-3-10.13-9.61-10.13-9.61
					S99.33,389.82,97.91,387.13z"/>
				<path class="st13" d="M92.57,396.31l23.98,8.18c0,0,0.75-1.01,0.89-2.39l-24.32-8.3C92.86,394.63,92.66,395.47,92.57,396.31z"/>
				<path class="st14" d="M102.77,389.45c0.34-0.33,0.71-0.65,1.15-0.82c0.64-0.24,1.35-0.16,2.01-0.02
					c0.58,0.12,1.16,0.27,1.72,0.45c0.73,0.24,1.49,0.56,1.95,1.18c0.14,0.19,0.25,0.45,0.13,0.65c-0.09,0.15-0.28,0.21-0.45,0.23
					c-0.56,0.06-1.09-0.2-1.59-0.46c-1.2-0.63-2.36-1.31-3.5-2.04c-0.06,0.73-0.21,1.45-0.46,2.13c-0.23,0.64-0.56,1.27-1.06,1.74
					c-0.22,0.2-0.47,0.37-0.76,0.43c-0.29,0.06-0.62-0.01-0.81-0.23c-0.2-0.22-0.23-0.54-0.16-0.83s0.23-0.53,0.4-0.77
					C101.78,390.51,102.25,389.95,102.77,389.45z"/>
			</g>
		</g>
		<g>
			<g>
				<path class="st19" d="M146.66,390.22c0,0-2.66,6.1-1.57,10.6l25.33-0.23c0,0,1.52-4.87-4.22-6.04
					c-5.74-1.16-12.74-5.71-12.74-5.71S148.89,392.28,146.66,390.22z"/>
				<path class="st13" d="M145.08,400.81l25.33-0.23c0,0,0.37-1.2,0.05-2.55l-25.69,0.23C144.79,399.14,144.88,400,145.08,400.81z"
					/>
				<path class="st14" d="M152.42,390.96c0.21-0.43,0.45-0.85,0.82-1.16c0.52-0.44,1.22-0.59,1.89-0.69
					c0.59-0.08,1.18-0.13,1.77-0.14c0.77-0.02,1.59,0.04,2.23,0.47c0.2,0.13,0.39,0.34,0.34,0.57c-0.03,0.17-0.19,0.29-0.35,0.37
					c-0.51,0.24-1.1,0.17-1.65,0.09c-1.34-0.2-2.66-0.45-3.98-0.77c0.19,0.71,0.28,1.44,0.27,2.17c-0.01,0.69-0.11,1.39-0.42,1.99
					c-0.14,0.26-0.32,0.51-0.57,0.66c-0.25,0.15-0.58,0.2-0.84,0.06c-0.26-0.14-0.4-0.43-0.43-0.73c-0.03-0.29,0.04-0.58,0.13-0.86
					C151.84,392.29,152.1,391.61,152.42,390.96z"/>
			</g>
		</g>
		<polygon class="st10" points="151.85,319.42 150.54,330.81 152.55,330.81 159.61,319.73 		"/>
		<g>
			<g>
				<path class="st19" d="M317.19,233.15H160.14c-3.03,0-5.49,2.46-5.49,5.49v80.85h168.04v-80.85
					C322.69,235.61,320.23,233.15,317.19,233.15z"/>
				<path class="st17" d="M323.15,319.96H154.18v-77.19c0-5.56,4.52-10.08,10.08-10.08h148.81c5.56,0,10.08,4.52,10.08,10.08V319.96
					z M155.11,319.03h167.11v-76.26c0-5.05-4.11-9.15-9.15-9.15H164.26c-5.05,0-9.15,4.11-9.15,9.15V319.03z"/>
			</g>
			<g>
				<path class="st19" d="M169.71,261.67h-20.2c-1.27,0-2.3,1.03-2.3,2.3v55.68h24.8v-55.68
					C172.01,262.7,170.98,261.67,169.71,261.67z"/>
				<path class="st17" d="M172.47,320.12h-25.73V265.7c0-2.48,2.02-4.5,4.5-4.5h16.74c2.48,0,4.5,2.02,4.5,4.5V320.12z
					 M147.67,319.19h23.87V265.7c0-1.97-1.6-3.57-3.57-3.57h-16.74c-1.97,0-3.57,1.6-3.57,3.57V319.19z"/>
			</g>
			<g>
				<path class="st19" d="M327.21,261.67h-20.2c-1.27,0-2.3,1.03-2.3,2.3v55.68h24.8v-55.68
					C329.51,262.7,328.48,261.67,327.21,261.67z"/>
				<path class="st17" d="M329.97,320.12h-25.73V265.7c0-2.48,2.02-4.5,4.5-4.5h16.74c2.48,0,4.5,2.02,4.5,4.5V320.12z
					 M305.17,319.19h23.87V265.7c0-1.97-1.6-3.57-3.57-3.57h-16.74c-1.97,0-3.57,1.6-3.57,3.57V319.19z"/>
			</g>
			<line class="st20" x1="172.01" y1="319.65" x2="304.24" y2="319.65"/>
			<line class="st21" x1="172.16" y1="291.2" x2="305.01" y2="291.2"/>
			<circle class="st17" cx="292.11" cy="247.53" r="2.21"/>
			
				<ellipse transform="matrix(0.9731 -0.2305 0.2305 0.9731 -50.4775 63.0373)" class="st17" cx="244.52" cy="247.53" rx="2.21" ry="2.21"/>
			<circle class="st17" cx="192.59" cy="247.53" r="2.21"/>
			
				<ellipse transform="matrix(0.9889 -0.1485 0.1485 0.9889 -37.2381 35.2572)" class="st17" cx="217.54" cy="267.06" rx="2.21" ry="2.21"/>
			
				<ellipse transform="matrix(0.9734 -0.229 0.229 0.9734 -53.9951 68.7634)" class="st17" cx="269.32" cy="267.06" rx="2.21" ry="2.21"/>
			<rect x="146.66" y="317.64" class="st10" width="183.93" height="2.79"/>
			<polygon class="st10" points="324.16,319.42 325.48,330.81 323.46,330.81 316.41,319.73 			"/>
		</g>
		<path class="st9" d="M119.26,263.13c0,0,0,13.72,0.67,15.23c0.67,1.51,23.09,23.26,23.09,23.26l-0.84,10.88l5.86,5.52v-1.67h1.17
			l3.68-0.17l-3.68-6.53l-0.17-3.85c0,0,3.68,2.68,5.02,2.84c0,0-4.85-8.53-6.19-9.04c-1.34-0.5-17.24-24.6-17.24-24.6l-0.17-11.21
			C130.47,263.79,124.61,264.3,119.26,263.13z"/>
		<g>
			<path class="st10" d="M125.58,264.2c-6.14,0-9.27-2.55-9.31-2.58l-0.08-0.07l0.17-11.32l0.44,0.01l-0.17,11.1
				c0.71,0.53,6.11,4.18,16.09,1.36c0.05-5.51-0.22-19.52-2.05-20.82l0.25-0.36c2.37,1.69,2.25,19.34,2.23,21.35l0,0.16l-0.16,0.05
				C130.17,263.9,127.7,264.2,125.58,264.2z"/>
		</g>
		<polygon class="st4" points="134.22,231.83 136.43,231.48 138.99,229.62 142.82,239.04 148.52,237.53 149.22,239.39 
			146.31,243.23 136.9,243.46 135.15,240.44 		"/>
		<g>
			<polygon class="st10" points="145.24,242.95 142.41,239.76 138.6,241.07 136.22,231.54 136.64,231.43 138.91,240.5 
				142.54,239.25 145.29,242.34 149.08,239.22 149.36,239.56 			"/>
		</g>
		<g>
			<polygon class="st10" points="141.72,253.01 137.98,252.42 140.17,240.16 140.6,240.24 138.49,252.06 141.38,252.51 
				143.72,241.38 144.14,241.47 			"/>
		</g>
		<polygon class="st8" points="144.41,253.22 151.31,255.86 150.38,258.81 143.33,256.95 		"/>
		<circle class="st10" cx="141.97" cy="242.05" r="0.65"/>
		<path class="st10" d="M141.92,245.94c0-0.36-0.29-0.65-0.65-0.65c-0.36,0-0.65,0.29-0.65,0.65s0.29,0.65,0.65,0.65
			C141.63,246.6,141.92,246.3,141.92,245.94z"/>
		<path class="st10" d="M141.14,249.78c0-0.36-0.29-0.65-0.65-0.65c-0.36,0-0.65,0.29-0.65,0.65c0,0.36,0.29,0.65,0.65,0.65
			C140.85,250.43,141.14,250.14,141.14,249.78z"/>
		<path class="st9" d="M358.84,263.13c0,0,0,13.72-0.67,15.23c-0.67,1.51-23.09,23.26-23.09,23.26l0.84,10.88l-5.86,5.52v-1.67
			h-1.17l-3.68-0.17l3.68-6.53l0.17-3.85c0,0-3.68,2.68-5.02,2.84c0,0,4.85-8.53,6.19-9.04c1.34-0.5,17.24-24.6,17.24-24.6
			l0.17-11.21C347.63,263.79,353.48,264.3,358.84,263.13z"/>
		<g>
			<path class="st10" d="M352.51,264.2c-2.12,0-4.59-0.3-7.42-1.12l-0.16-0.05l0-0.16c-0.02-2.01-0.14-19.66,2.23-21.35l0.25,0.36
				c-1.83,1.31-2.1,15.31-2.05,20.82c9.98,2.82,15.38-0.84,16.09-1.36l-0.17-11.1l0.44-0.01l0.17,11.32l-0.08,0.07
				C361.78,261.65,358.65,264.2,352.51,264.2z"/>
		</g>
	</g>
</g>
</svg>
