<?xml version="1.0" encoding="utf-8"?>
<!-- Generator: Adobe Illustrator 24.0.1, SVG Export Plug-In . SVG Version: 6.00 Build 0)  -->
<svg version="1.1" id="Layer_1" xmlns="http://www.w3.org/2000/svg" xmlns:xlink="http://www.w3.org/1999/xlink" x="0px" y="0px"
	 viewBox="0 0 500 500" style="enable-background:new 0 0 500 500;" xml:space="preserve">
<style type="text/css">
	.st0{fill:#BAF4D2;}
	.st1{fill:#19205D;}
	.st2{fill:#435277;}
	.st3{fill:#C3D2D7;}
	.st4{fill:#95A4B1;}
	.st5{fill:#A3EFC2;}
	.st6{fill:#56CD93;}
	.st7{opacity:0.5;fill:#FCFCFC;}
	.st8{fill:#E76164;}
	.st9{fill:#FFDD87;}
	.st10{fill:#FFD277;}
	.st11{fill:#FFEED0;}
	.st12{fill:#ECA700;}
	.st13{fill:#BB4063;}
	.st14{opacity:0.24;fill:#A3EFC2;}
	.st15{fill:#FCFCFC;}
</style>
<g>
	<g>
		<path class="st0" d="M343.31,401.66c0-1.87,1.51-3.38,3.38-3.38h149.93c1.87,0,3.38-1.51,3.38-3.38c0-1.87-1.51-3.38-3.38-3.38
			H3.38c-1.87,0-3.38,1.51-3.38,3.38c0,1.87,1.51,3.38,3.38,3.38H123.6c1.87,0,3.38,1.51,3.38,3.38c0,1.87-1.51,3.38-3.38,3.38
			H56.69c-1.66,0-3,1.34-3,3v0.77c0,1.66,1.34,3,3,3h148.12c1.87,0,3.38,1.51,3.38,3.38c0,1.87-1.51,3.38-3.38,3.38h-35.11
			c-1.87,0-3.38,1.51-3.38,3.38c0,1.87,1.51,3.38,3.38,3.38h195.47c1.87,0,3.38-1.51,3.38-3.38c0-1.87-1.51-3.38-3.38-3.38h-67.13
			c-1.87,0-3.38-1.51-3.38-3.38c0-1.87,1.51-3.38,3.38-3.38h145.27c1.66,0,3-1.34,3-3v-0.77c0-1.66-1.34-3-3-3h-96.62
			C344.83,405.04,343.31,403.53,343.31,401.66z"/>
	</g>
	<g>
		<polygon class="st1" points="47.99,341.44 47.99,359.46 32.34,359.46 32.34,341.36 		"/>
		<polygon class="st1" points="212.07,341.44 212.07,359.46 168.01,359.46 168.01,341.36 		"/>
		<path class="st1" d="M180.09,297.77c-6.16,0-11.25,18.96-12.07,43.59h24.15C191.34,316.73,186.25,297.77,180.09,297.77z"/>
		<g>
			<path class="st1" d="M217.88,305.22h-36.04v86.29h36.04c5.74,0,10.4-19.32,10.4-43.15C228.28,324.54,223.63,305.22,217.88,305.22
				z"/>
			<ellipse class="st2" cx="181.84" cy="348.37" rx="10.4" ry="43.15"/>
			<path class="st3" d="M184.25,324.36c-0.74-1.28-1.55-1.99-2.4-1.99c-3.46,0-6.26,11.64-6.26,25.99c0,14.35,2.8,25.99,6.26,25.99
				c0.85,0,1.66-0.71,2.4-1.99c-2.27-3.91-3.86-13.18-3.86-24C180.39,337.55,181.98,328.28,184.25,324.36z"/>
			<path class="st4" d="M184.25,324.36c-2.27,3.91-3.86,13.18-3.86,24c0,10.82,1.59,20.09,3.86,24c2.27-3.91,3.86-13.18,3.86-24
				C188.1,337.55,186.51,328.28,184.25,324.36z"/>
		</g>
		<g>
			<path class="st1" d="M413.3,305.22h-36.04v86.29h36.04c5.74,0,10.4-19.32,10.4-43.15C423.7,324.54,419.04,305.22,413.3,305.22z"
				/>
			<ellipse class="st2" cx="377.26" cy="348.37" rx="10.4" ry="43.15"/>
			<path class="st3" d="M379.67,324.36c-0.74-1.28-1.55-1.99-2.4-1.99c-3.46,0-6.26,11.64-6.26,25.99c0,14.35,2.8,25.99,6.26,25.99
				c0.85,0,1.66-0.71,2.4-1.99c-2.27-3.91-3.86-13.18-3.86-24C375.81,337.55,377.4,328.28,379.67,324.36z"/>
			<path class="st4" d="M379.67,324.36c-2.27,3.91-3.86,13.18-3.86,24c0,10.82,1.59,20.09,3.86,24c2.27-3.91,3.86-13.18,3.86-24
				C383.52,337.55,381.93,328.28,379.67,324.36z"/>
		</g>
		<path class="st1" d="M44.41,297.77c-6.16,0-11.25,18.96-12.07,43.59h24.15C55.66,316.73,50.57,297.77,44.41,297.77z"/>
		<rect x="212.07" y="74.67" class="st5" width="248.2" height="266.69"/>
		
			<rect x="213.23" y="94.31" transform="matrix(-1.836970e-16 1 -1 -1.836970e-16 544.1868 -128.1627)" class="st1" width="245.89" height="227.41"/>
		<g>
			<path class="st1" d="M80.45,305.22H44.41v86.29h36.04c5.74,0,10.4-19.32,10.4-43.15C90.85,324.54,86.19,305.22,80.45,305.22z"/>
			<ellipse class="st2" cx="44.41" cy="348.37" rx="10.4" ry="43.15"/>
			<path class="st3" d="M46.82,324.36c-0.74-1.28-1.55-1.99-2.4-1.99c-3.46,0-6.26,11.64-6.26,25.99c0,14.35,2.8,25.99,6.26,25.99
				c0.85,0,1.66-0.71,2.4-1.99c-2.27-3.91-3.86-13.18-3.86-24C42.96,337.55,44.55,328.28,46.82,324.36z"/>
			<path class="st4" d="M46.82,324.36c-2.27,3.91-3.86,13.18-3.86,24c0,10.82,1.59,20.09,3.86,24c2.27-3.91,3.86-13.18,3.86-24
				C50.67,337.55,49.08,328.28,46.82,324.36z"/>
		</g>
		<path class="st6" d="M113.46,74.67v266.69h54.55c0.82-24.62,5.91-43.59,12.07-43.59c6.16,0,11.25,18.96,12.07,43.59h19.91V74.67
			H113.46z"/>
		<path class="st3" d="M113.46,137.32H69.08c-7.78,0-14.37,5.74-15.45,13.44l-11.3,81.16l-14.16,14.62
			c-4.7,4.85-7.32,11.33-7.32,18.08v76.73h11.49c0.82-24.62,5.91-43.59,12.07-43.59c6.16,0,11.25,18.96,12.07,43.59h56.98V137.32z"
			/>
		<rect x="212.07" y="341.36" class="st3" width="256.45" height="18.02"/>
		<rect x="192.24" y="341.36" class="st4" width="19.83" height="18.1"/>
		<polygon class="st4" points="113.46,341.36 113.46,341.44 56.48,341.36 56.48,359.46 113.46,359.46 168.01,359.46 168.01,341.44 
					"/>
		<polygon class="st4" points="32.34,341.44 32.34,359.46 16.69,359.46 16.69,341.36 		"/>
		<path class="st5" d="M94.66,148.75H69.08c-2.06,0-3.83,1.54-4.12,3.59l-11.08,79.59h40.78V148.75z"/>
		<path class="st6" d="M93.1,222.22c-3.99-3.99-9.41-6.24-15.06-6.24H62.95l7.57-60.56c0.13-1.04,1.01-1.82,2.06-1.82h22.08v-4.85
			H69.08c-2.06,0-3.83,1.54-4.12,3.59l-11.08,79.59h40.78v-9.7H93.1z"/>
		<path class="st7" d="M89.68,220.97L89.68,220.97c-5.39-4.24-8.54-10.72-8.54-17.58V153.6c0-1.15,0.93-2.08,2.08-2.08h6.41
			c1.15,0,2.08,0.93,2.08,2.08v66.38C91.72,221.03,90.51,221.62,89.68,220.97z"/>
		<g>
			<path class="st2" d="M50.39,224.52h-8.38v4.16h8.38c1.15,0,2.08-0.93,2.08-2.08C52.47,225.45,51.54,224.52,50.39,224.52z"/>
			<path class="st2" d="M39.73,202.55H28.84c-1.53,0-2.77,1.24-2.77,2.77v24.43c0,1.53,1.24,2.77,2.77,2.77h10.89
				c1.53,0,2.77-1.24,2.77-2.77v-24.43C42.51,203.8,41.26,202.55,39.73,202.55z"/>
			<path class="st5" d="M43.89,202.55H33c-1.53,0-2.77,1.24-2.77,2.77v24.43c0,1.53,1.24,2.77,2.77,2.77h10.89
				c1.53,0,2.77-1.24,2.77-2.77v-24.43C46.66,203.8,45.42,202.55,43.89,202.55z"/>
		</g>
		<path class="st8" d="M90.85,231.92v98.16c0,1.05,0.85,1.91,1.91,1.91c1.05,0,1.91-0.85,1.91-1.91v-98.16H90.85z"/>
		<g>
			<g>
				<path class="st9" d="M26.97,299.33c-0.86,0-1.56-0.7-1.56-1.56V265.8c0-6.38,2.44-12.42,6.88-17c0.6-0.62,1.59-0.63,2.21-0.03
					c0.62,0.6,0.63,1.59,0.04,2.21c-3.87,4-6.01,9.26-6.01,14.83v31.97C28.53,298.63,27.83,299.33,26.97,299.33z"/>
			</g>
			<g>
				<path class="st9" d="M37.39,247.34c-0.39,0-0.78-0.15-1.09-0.44c-0.62-0.6-0.63-1.59-0.03-2.21l3.02-3.11
					c0.6-0.62,1.59-0.63,2.21-0.03c0.62,0.6,0.63,1.59,0.03,2.21l-3.02,3.11C38.2,247.18,37.8,247.34,37.39,247.34z"/>
			</g>
		</g>
		<g>
			<g>
				<g>
					<rect x="324.08" y="247.34" class="st10" width="83.62" height="83.62"/>
					<rect x="358.44" y="247.34" class="st11" width="14.9" height="26.17"/>
				</g>
				<rect x="306.09" y="247.34" class="st12" width="17.99" height="83.62"/>
			</g>
			<g>
				<g>
					<rect x="304.67" y="176.81" class="st10" width="70.53" height="70.53"/>
					<rect x="333.65" y="176.81" class="st11" width="12.57" height="22.08"/>
				</g>
				<rect x="281.91" y="176.81" class="st12" width="22.76" height="70.53"/>
			</g>
			<g>
				<g>
					<rect x="222.47" y="163.72" class="st10" width="59.44" height="83.62"/>
					<rect x="232.65" y="163.72" class="st11" width="14.9" height="26.17"/>
				</g>
				<polygon class="st12" points="281.91,247.34 222.47,247.34 222.47,232.62 				"/>
			</g>
			<g>
				<g>
					<rect x="222.47" y="247.34" class="st10" width="83.62" height="83.62"/>
					<rect x="256.83" y="247.34" class="st11" width="14.9" height="26.17"/>
				</g>
				<polygon class="st12" points="306.09,330.96 222.47,330.96 222.47,311.98 				"/>
			</g>
		</g>
		<path class="st3" d="M229.86,353.57h-17.8v-12.22h30.02l0,0C242.08,348.1,236.61,353.57,229.86,353.57z"/>
		<path class="st3" d="M450.74,353.57h17.8v-12.22h-30.02l0,0C438.52,348.1,443.99,353.57,450.74,353.57z"/>
		<path class="st13" d="M212.07,353.57L212.07,353.57c-5.99,0-10.85-4.86-10.85-10.85v-1.37h10.85V353.57z"/>
		<polygon class="st14" points="212.07,74.67 113.46,299.33 113.46,341.36 133.69,341.36 212.07,175.35 		"/>
		<g>
			<rect x="110.43" y="144.07" class="st15" width="83.69" height="7.02"/>
			<rect x="110.43" y="151.09" class="st3" width="83.69" height="7.02"/>
			<polygon class="st4" points="194.12,144.07 194.12,151.09 194.12,158.11 199.93,158.11 199.93,151.09 199.93,144.07 			"/>
		</g>
		<g>
			<rect x="110.43" y="219.58" class="st15" width="83.69" height="7.02"/>
			<rect x="110.43" y="226.6" class="st3" width="83.69" height="7.02"/>
			<polygon class="st4" points="194.12,219.58 194.12,226.6 194.12,233.61 199.93,233.61 199.93,226.6 199.93,219.58 			"/>
		</g>
	</g>
</g>
</svg>
