<svg id="Group_1366" data-name="Group 1366" xmlns="http://www.w3.org/2000/svg" xmlns:xlink="http://www.w3.org/1999/xlink" width="16.584" height="16.126" viewBox="0 0 16.584 16.126">
  <defs>
    <clipPath id="clip-path">
      <rect id="Rectangle_2458" data-name="Rectangle 2458" width="16.584" height="16.126" fill="#60e99c"/>
    </clipPath>
  </defs>
  <g id="Group_1365" data-name="Group 1365" clip-path="url(#clip-path)">
    <path id="Path_5867" data-name="Path 5867" d="M13.173,16.124a.619.619,0,0,1-.466-.211L10.73,13.653a9.733,9.733,0,0,1-2.437.307,9.115,9.115,0,0,1-5.822-2.007A6.435,6.435,0,0,1,0,6.98,6.44,6.44,0,0,1,2.471,2.006,9.114,9.114,0,0,1,8.293,0a9.109,9.109,0,0,1,5.82,2.006A6.434,6.434,0,0,1,16.584,6.98a6.532,6.532,0,0,1-2.793,5.227v3.3a.619.619,0,0,1-.619.619Zm-2.235-3.79a.619.619,0,0,1,.466.211l1.15,1.314v-1.97a.619.619,0,0,1,.271-.511,5.379,5.379,0,0,0,2.523-4.4c0-3.166-3.164-5.742-7.054-5.742S1.241,3.814,1.241,6.98,4.4,12.723,8.293,12.723a8.459,8.459,0,0,0,2.465-.361.616.616,0,0,1,.18-.028" fill="#60e99c"/>
    <path id="Path_5868" data-name="Path 5868" d="M133.009,181.654a.419.419,0,0,1-.061,0l-.06-.009a.51.51,0,0,1-.059-.015c-.017-.006-.039-.013-.057-.021s-.037-.016-.054-.026-.035-.02-.052-.031-.033-.023-.049-.036a.611.611,0,0,1-.045-.041c-.014-.014-.028-.03-.041-.045a.566.566,0,0,1-.036-.049q-.017-.025-.031-.052c-.01-.018-.018-.036-.026-.055a.583.583,0,0,1-.02-.057.629.629,0,0,1-.024-.119c0-.02,0-.041,0-.061a.579.579,0,0,1,0-.061.627.627,0,0,1,.024-.119.586.586,0,0,1,.02-.057q.012-.028.026-.054t.031-.052c.011-.016.023-.033.036-.049a.611.611,0,0,1,.041-.045c.014-.014.03-.028.045-.041a.571.571,0,0,1,.049-.036.506.506,0,0,1,.052-.031l.054-.026a.558.558,0,0,1,.057-.021l.059-.015c.02,0,.041-.007.06-.009a.6.6,0,0,1,.122,0l.06.009a.56.56,0,0,1,.059.015.573.573,0,0,1,.057.021c.019.008.037.017.055.026a.556.556,0,0,1,.052.031.582.582,0,0,1,.049.036.6.6,0,0,1,.045.041c.014.014.028.03.041.045a.573.573,0,0,1,.036.049.6.6,0,0,1,.031.052q.014.027.026.054c.008.019.014.038.021.057s.011.041.015.059a.607.607,0,0,1,0,.242.586.586,0,0,1-.015.059c-.006.018-.013.038-.021.057s-.016.037-.026.055-.02.035-.031.052-.023.033-.036.049-.027.031-.041.045-.03.028-.045.041a.6.6,0,0,1-.049.036l-.052.031c-.018.009-.036.018-.055.026s-.038.014-.057.021a.564.564,0,0,1-.059.015c-.02,0-.041.007-.06.009a.58.58,0,0,1-.061,0" transform="translate(-126.929 -172.973)" fill="#60e99c"/>
    <path id="Path_5869" data-name="Path 5869" d="M244.029,181.659a.583.583,0,0,1-.061,0l-.06-.009a.506.506,0,0,1-.059-.015c-.017-.006-.038-.013-.057-.021s-.037-.016-.055-.026a.642.642,0,0,1-.1-.067.533.533,0,0,1-.045-.041q-.022-.022-.041-.045c-.013-.016-.025-.032-.036-.049s-.022-.034-.031-.052-.018-.036-.026-.054-.014-.038-.02-.057a.5.5,0,0,1-.015-.059.639.639,0,0,1-.012-.121.6.6,0,0,1,0-.061.593.593,0,0,1,.009-.06.5.5,0,0,1,.015-.059c.006-.019.013-.038.02-.057a.547.547,0,0,1,.026-.054.6.6,0,0,1,.031-.052c.011-.016.024-.033.036-.049a.611.611,0,0,1,.041-.045c.014-.014.029-.028.045-.041a.644.644,0,0,1,.1-.067c.018-.009.036-.018.055-.026l.057-.021a.573.573,0,0,1,.059-.015c.02,0,.041-.007.06-.009a.668.668,0,0,1,.124,0l.06.009a.561.561,0,0,1,.059.015c.018.006.038.013.057.021s.037.017.055.026.035.02.052.031a.518.518,0,0,1,.049.036.608.608,0,0,1,.045.041c.014.014.028.03.041.045a.573.573,0,0,1,.036.049q.017.025.031.052c.009.018.018.036.026.054a.593.593,0,0,1,.021.057c.006.019.011.041.015.059a.569.569,0,0,1,.009.06.608.608,0,0,1,0,.061.6.6,0,0,1,0,.061c0,.02-.005.041-.009.06a.536.536,0,0,1-.015.059.588.588,0,0,1-.021.057c-.007.019-.017.037-.026.054s-.02.035-.031.052-.023.033-.036.049a.612.612,0,0,1-.041.045c-.014.014-.03.028-.045.041a.529.529,0,0,1-.049.036l-.052.031c-.018.009-.036.018-.055.026s-.038.014-.057.021a.561.561,0,0,1-.059.015c-.02,0-.041.007-.06.009a.6.6,0,0,1-.064,0" transform="translate(-233.369 -172.978)" fill="#60e99c"/>
    <path id="Path_5870" data-name="Path 5870" d="M188.517,181.641a.623.623,0,0,1-.438-.181.6.6,0,0,1-.041-.045c-.013-.016-.025-.032-.036-.049a.47.47,0,0,1-.031-.052.541.541,0,0,1-.026-.054.589.589,0,0,1-.021-.057c-.006-.019-.011-.041-.015-.059s-.007-.04-.009-.06a.65.65,0,0,1,0-.124q0-.03.009-.06a.58.58,0,0,1,.015-.059.589.589,0,0,1,.021-.057.541.541,0,0,1,.026-.054c.009-.018.02-.035.031-.052a.515.515,0,0,1,.036-.049.6.6,0,0,1,.041-.045.624.624,0,0,1,.5-.178l.06.009c.019,0,.039.009.059.015a.548.548,0,0,1,.057.021c.019.008.037.016.055.026a.64.64,0,0,1,.1.067.536.536,0,0,1,.045.041.592.592,0,0,1,.041.045c.013.016.025.032.036.049a.6.6,0,0,1,.031.052q.014.027.026.054c.007.019.014.038.02.057a.5.5,0,0,1,.015.059q.006.03.009.06a.567.567,0,0,1,0,.124q0,.03-.009.06a.5.5,0,0,1-.015.059c-.006.019-.013.038-.02.057a.539.539,0,0,1-.026.054.592.592,0,0,1-.031.052c-.011.016-.023.033-.036.049a.6.6,0,0,1-.041.045c-.014.014-.029.028-.045.041a.646.646,0,0,1-.1.067c-.018.009-.036.018-.055.026s-.038.014-.057.021-.041.011-.059.015a.542.542,0,0,1-.06.009c-.02,0-.04,0-.061,0" transform="translate(-180.147 -172.96)" fill="#60e99c"/>
  </g>
</svg>
