<?xml version="1.0" encoding="utf-8"?>
<!-- Generator: Adobe Illustrator 24.0.1, SVG Export Plug-In . SVG Version: 6.00 Build 0)  -->
<svg version="1.1" id="Layer_1" xmlns="http://www.w3.org/2000/svg" xmlns:xlink="http://www.w3.org/1999/xlink" x="0px" y="0px"
	 viewBox="0 0 300 300" style="enable-background:new 0 0 300 300;" xml:space="preserve">
<style type="text/css">
	.st0{fill:#90A0B2;}
</style>
<g id="sunset-2">
	<path class="st0" d="M150,115.38c6.37,0,11.54-5.17,11.54-11.54V80.77c0-6.37-5.17-11.54-11.54-11.54
		c-6.37,0-11.54,5.17-11.54,11.54v23.08C138.46,110.22,143.63,115.38,150,115.38z"/>
	<path class="st0" d="M76.62,129.46l-16.38-16.27c-4.84-4.15-12.12-3.58-16.27,1.26c-3.7,4.32-3.7,10.69,0,15.01l16.27,16.38
		c2.18,2.16,5.13,3.36,8.19,3.35c3.07,0.02,6.01-1.19,8.19-3.35c4.52-4.49,4.55-11.79,0.07-16.32
		C76.66,129.51,76.64,129.48,76.62,129.46z"/>
	<path class="st0" d="M34.62,207.69H11.54C5.17,207.69,0,212.86,0,219.23s5.17,11.54,11.54,11.54h23.08
		c6.37,0,11.54-5.17,11.54-11.54S40.99,207.69,34.62,207.69z"/>
	<path class="st0" d="M288.46,207.69h-23.08c-6.37,0-11.54,5.17-11.54,11.54s5.17,11.54,11.54,11.54h23.08
		c6.37,0,11.54-5.17,11.54-11.54S294.83,207.69,288.46,207.69z"/>
	<path class="st0" d="M256.04,113.19c-4.5-4.47-11.77-4.47-16.27,0l-16.38,16.27c-4.52,4.49-4.55,11.79-0.07,16.32
		c0.02,0.02,0.04,0.04,0.07,0.07c2.18,2.16,5.13,3.36,8.19,3.35c3.07,0.02,6.01-1.19,8.19-3.35l16.27-16.38
		C260.51,124.96,260.51,117.69,256.04,113.19z"/>
	<path class="st0" d="M150,138.46c-44.61,0-80.77,36.16-80.77,80.77c0,6.37,5.17,11.54,11.54,11.54h138.46
		c6.37,0,11.54-5.17,11.54-11.54C230.77,174.62,194.61,138.46,150,138.46z M93.46,207.69c6.34-31.23,36.79-51.4,68.02-45.06
		c22.7,4.61,40.45,22.35,45.06,45.06H93.46z"/>
</g>
</svg>
