<?xml version="1.0" encoding="utf-8"?>
<!-- Generator: Adobe Illustrator 24.0.1, SVG Export Plug-In . SVG Version: 6.00 Build 0)  -->
<svg version="1.1" id="Layer_1" xmlns="http://www.w3.org/2000/svg" xmlns:xlink="http://www.w3.org/1999/xlink" x="0px" y="0px"
	 viewBox="0 0 300 300" style="enable-background:new 0 0 300 300;" xml:space="preserve">
<path d="M254.42,187.5v-60.58c0-45.63-29.44-84.36-70.36-98.3C181.22,12.37,167.07,0,150,0c-17.14,0-31.34,12.47-34.09,28.83
	c-40.62,14.12-69.75,52.71-69.75,98.09v60.58c-21.71,15.11-34.64,39.9-34.62,66.35c0,6.37,5.17,11.54,11.54,11.54h82.22
	C110.42,285.29,128.49,300,150,300s39.58-14.71,44.7-34.62h82.22c6.37,0,11.54-5.17,11.54-11.54
	C288.61,227.5,275.91,202.74,254.42,187.5z M161.58,273.77c-11.02,6.4-25.15,2.64-31.54-8.38h39.92
	C167.94,268.86,165.05,271.75,161.58,273.77z M184.61,242.31h-69.23H35.77c3.31-16.18,13.39-30.17,27.69-38.42
	c3.58-2.07,5.79-5.9,5.77-10.04v-66.92c0-44.61,36.16-80.77,80.77-80.77s80.77,36.16,80.77,80.77v66.92
	c-0.02,4.14,2.18,7.97,5.77,10.04c14.3,8.25,24.39,22.24,27.69,38.42H184.61z"/>
</svg>
