<?xml version="1.0" encoding="utf-8"?>
<!-- Generator: Adobe Illustrator 24.0.1, SVG Export Plug-In . SVG Version: 6.00 Build 0)  -->
<svg version="1.1" id="Layer_1" xmlns="http://www.w3.org/2000/svg" xmlns:xlink="http://www.w3.org/1999/xlink" x="0px" y="0px"
	 viewBox="0 0 300 300" style="enable-background:new 0 0 300 300;" xml:space="preserve">
<style type="text/css">
	.st0{fill:#5BDB98;}
</style>
<g id="Layer_2_5_">
	<g>
		<path class="st0" d="M278.89,106.32c-1.24-1.77-3.27-2.83-5.39-2.83h-41.08V86c0-3.62-3-6.63-6.63-6.63H76.94
			c-3.62,0-6.63,3-6.63,6.63v107.07c0,3.62,3,6.63,6.63,6.63h18.73c3.45,12.01,14.58,20.94,27.65,20.94s24.2-8.83,27.65-20.94h73.41
			c3.45,12.01,14.58,20.94,27.65,20.94s24.2-8.83,27.65-20.94h13.69c3.62,0,6.63-3,6.63-6.63v-54.51c0-1.41-0.44-2.74-1.24-3.8
			L278.89,106.32z M286.84,140.5h-29.68v-23.67h12.99L286.84,140.5z M83.57,92.71h135.6v93.82h-67.58
			c-2.56-13.34-14.22-23.41-28.27-23.41s-25.8,10.07-28.27,23.41H83.57L83.57,92.71L83.57,92.71z M123.32,207.38
			c-8.57,0-15.55-6.98-15.55-15.55c0-8.57,6.98-15.55,15.55-15.55s15.55,6.98,15.55,15.55C138.87,200.4,131.89,207.38,123.32,207.38
			z M252.12,207.38c-8.57,0-15.55-6.98-15.55-15.55c0-8.57,6.98-15.55,15.55-15.55s15.55,6.98,15.55,15.55
			C267.67,200.4,260.69,207.38,252.12,207.38z M280.39,186.53c-2.56-13.34-14.22-23.41-28.27-23.41c-7.6,0-14.58,3-19.7,7.86v-54.15
			h11.4v30.3c0,3.62,3,6.63,6.63,6.63h36.48v32.77H280.39z"/>
		<path class="st0" d="M6.63,92.71h47.26c3.62,0,6.63-3,6.63-6.63c0-3.62-3-6.63-6.63-6.63H6.63C3,79.46,0,82.46,0,86.09
			C0,89.71,3,92.71,6.63,92.71z"/>
		<path class="st0" d="M53.89,103.58h-36.4c-3.62,0-6.63,3-6.63,6.63c0,3.62,3,6.63,6.63,6.63h36.4c3.62,0,6.63-3,6.63-6.63
			C60.51,106.58,57.6,103.58,53.89,103.58z"/>
		<path class="st0" d="M53.89,127.69H30.92c-3.62,0-6.63,3-6.63,6.63c0,3.62,3,6.63,6.63,6.63h22.97c3.62,0,6.63-3,6.63-6.63
			C60.51,130.7,57.6,127.69,53.89,127.69z"/>
		<path class="st0" d="M53.89,151.81h-7.95c-3.62,0-6.63,3-6.63,6.63s3,6.63,6.63,6.63h7.95c3.62,0,6.63-3,6.63-6.63
			S57.6,151.81,53.89,151.81z"/>
	</g>
</g>
</svg>
