<?xml version="1.0" encoding="utf-8"?>
<!-- Generator: Adobe Illustrator 24.0.1, SVG Export Plug-In . SVG Version: 6.00 Build 0)  -->
<svg version="1.1" id="Layer_1" xmlns="http://www.w3.org/2000/svg" xmlns:xlink="http://www.w3.org/1999/xlink" x="0px" y="0px"
	 viewBox="0 0 500 500" style="enable-background:new 0 0 500 500;" xml:space="preserve">
<style type="text/css">
	.st0{fill:url(#SVGID_1_);}
	.st1{fill:#E5E5E5;}
	.st2{fill:url(#SVGID_2_);}
	.st3{fill:url(#SVGID_3_);}
	.st4{fill:url(#SVGID_4_);}
	.st5{fill:#A86725;}
	.st6{fill:#D79641;}
	.st7{fill:#E7B160;}
	.st8{fill:#B56B2B;}
	.st9{fill:#ECC180;}
	.st10{fill:#B98551;}
	.st11{fill:#FCFCFC;}
	.st12{fill:#56CD93;}
	.st13{fill:#F5F5F5;}
	.st14{fill:#60E99C;}
	.st15{fill:#4014C5;}
	.st16{fill:#BFBFBF;}
	.st17{fill:#32965D;}
	.st18{fill:#3AA06A;}
	.st19{fill:#C48955;}
	.st20{fill:#96571B;}
	.st21{fill:#F2F2F2;}
	.st22{fill:#CF3F0A;}
</style>
<g>
	<g>
		<g>
			<radialGradient id="SVGID_1_" cx="92.2191" cy="242.6555" r="21.1911" gradientUnits="userSpaceOnUse">
				<stop  offset="0" style="stop-color:#56CD93"/>
				<stop  offset="1" style="stop-color:#60E99C"/>
			</radialGradient>
			<path class="st0" d="M109.42,243.11c0-0.13,0.02-0.26,0.02-0.38c0-4.1-3.76-7.43-8.39-7.43c-0.65,0-1.28,0.07-1.88,0.19
				c-0.32-4.05-3.94-7.25-8.36-7.25c-4.63,0-8.39,3.51-8.39,7.83c0,0.35,0.04,0.69,0.08,1.04c-0.25-0.02-0.49-0.03-0.74-0.03
				c-4.64,0-8.4,3.34-8.4,7.46c0,0.2,0.02,0.4,0.04,0.59c-0.01,0-0.02,0-0.04,0c-3.83,0-7.16,1.38-7.4,5.69
				c-0.09,1.64,0.51,4.22,4.05,5.65c1.96,0.79,6.21,0.56,17.41,0.56c13.72,0,26.08,0.03,26.08,0.03c3.14-0.56,4.7-3.14,4.97-5.59
				C118.96,246.72,114.56,242.98,109.42,243.11z"/>
			<path class="st1" d="M89.59,246.59c0.01-0.18,0.03-0.36,0.03-0.54c0-5.84-5.34-10.57-11.93-10.57c-0.93,0-1.82,0.1-2.68,0.28
				c-0.46-5.76-5.6-10.31-11.89-10.31c-6.59,0-11.94,4.99-11.94,11.14c0,0.5,0.05,1,0.12,1.48c-0.35-0.03-0.7-0.05-1.05-0.05
				c-6.59,0-11.94,4.76-11.94,10.62c0,0.29,0.03,0.56,0.05,0.84c-0.02,0-0.03,0-0.05,0c-5.45,0-10.19,1.96-10.52,8.09
				c-0.12,2.34,0.73,6,5.76,8.03c2.78,1.13,8.83,0.8,24.75,0.8c19.51,0,37.1,0.04,37.1,0.04c4.46-0.79,6.69-4.46,7.06-7.94
				C103.17,251.72,96.91,246.41,89.59,246.59z"/>
		</g>
	</g>
	<g>
		<g>
			<radialGradient id="SVGID_2_" cx="136.0304" cy="59.2852" r="24.9525" gradientUnits="userSpaceOnUse">
				<stop  offset="0" style="stop-color:#56CD93"/>
				<stop  offset="1" style="stop-color:#60E99C"/>
			</radialGradient>
			<path class="st2" d="M156.28,59.82c0-0.15,0.02-0.3,0.02-0.45c0-4.83-4.43-8.75-9.88-8.75c-0.77,0-1.51,0.08-2.22,0.23
				c-0.38-4.77-4.64-8.54-9.85-8.54c-5.46,0-9.88,4.13-9.88,9.22c0,0.41,0.04,0.82,0.1,1.22c-0.29-0.02-0.58-0.04-0.87-0.04
				c-5.46,0-9.88,3.94-9.88,8.79c0,0.24,0.02,0.47,0.04,0.7c-0.02,0-0.02,0-0.04,0c-4.52,0-8.43,1.62-8.71,6.69
				c-0.11,1.94,0.6,4.96,4.77,6.65c2.3,0.93,7.31,0.66,20.5,0.66c16.15,0,30.71,0.04,30.71,0.04c3.7-0.66,5.54-3.7,5.85-6.58
				C167.52,64.07,162.34,59.67,156.28,59.82z"/>
			<path class="st1" d="M132.93,63.92c0.02-0.21,0.04-0.43,0.04-0.63c0-6.88-6.29-12.45-14.04-12.45c-1.09,0-2.15,0.12-3.16,0.32
				c-0.54-6.79-6.59-12.14-14-12.14c-7.76,0-14.06,5.87-14.06,13.12c0,0.59,0.06,1.17,0.14,1.75c-0.42-0.04-0.82-0.06-1.24-0.06
				c-7.76,0-14.06,5.6-14.06,12.51c0,0.34,0.03,0.66,0.06,0.99c-0.02,0-0.04,0-0.06,0c-6.42,0-11.99,2.31-12.39,9.53
				c-0.15,2.75,0.86,7.06,6.78,9.46c3.28,1.32,10.4,0.94,29.15,0.94c22.97,0,43.68,0.05,43.68,0.05c5.25-0.93,7.88-5.26,8.31-9.35
				C148.93,69.96,141.56,63.7,132.93,63.92z"/>
		</g>
	</g>
	<g>
		<g>
			<radialGradient id="SVGID_3_" cx="446.2004" cy="63.8757" r="20.9986" gradientUnits="userSpaceOnUse">
				<stop  offset="0" style="stop-color:#56CD93"/>
				<stop  offset="1" style="stop-color:#60E99C"/>
			</radialGradient>
			<path class="st3" d="M463.24,64.33c0-0.12,0.02-0.26,0.02-0.38c0-4.06-3.73-7.36-8.31-7.36c-0.65,0-1.27,0.07-1.87,0.19
				c-0.32-4.02-3.9-7.18-8.28-7.18c-4.59,0-8.32,3.48-8.32,7.76c0,0.35,0.04,0.69,0.08,1.03c-0.24-0.02-0.49-0.03-0.73-0.03
				c-4.6,0-8.32,3.31-8.32,7.4c0,0.2,0.02,0.39,0.04,0.59c-0.01,0-0.02,0-0.04,0c-3.8,0-7.09,1.37-7.33,5.63
				c-0.09,1.63,0.51,4.18,4.01,5.6c1.94,0.78,6.15,0.56,17.25,0.56c13.59,0,25.84,0.03,25.84,0.03c3.11-0.55,4.66-3.12,4.92-5.54
				C472.7,67.9,468.34,64.2,463.24,64.33z"/>
			<path class="st1" d="M443.59,67.77c0.01-0.18,0.03-0.36,0.03-0.53c0-5.79-5.3-10.48-11.82-10.48c-0.92,0-1.81,0.1-2.66,0.27
				c-0.45-5.71-5.55-10.22-11.78-10.22c-6.53,0-11.83,4.94-11.83,11.04c0,0.5,0.05,0.99,0.12,1.47c-0.35-0.03-0.7-0.05-1.05-0.05
				c-6.53,0-11.83,4.71-11.83,10.53c0,0.28,0.03,0.56,0.05,0.83c-0.02,0-0.03,0-0.05,0c-5.4,0-10.09,1.95-10.43,8.02
				c-0.12,2.32,0.72,5.94,5.71,7.96c2.76,1.12,8.75,0.79,24.53,0.79c19.34,0,36.76,0.04,36.76,0.04c4.42-0.78,6.63-4.42,7-7.87
				C457.05,72.86,450.85,67.59,443.59,67.77z"/>
		</g>
	</g>
	<g>
		<g>
			<radialGradient id="SVGID_4_" cx="424.7624" cy="303.471" r="25.6385" gradientUnits="userSpaceOnUse">
				<stop  offset="0" style="stop-color:#56CD93"/>
				<stop  offset="1" style="stop-color:#60E99C"/>
			</radialGradient>
			<path class="st4" d="M445.57,304.02c0-0.15,0.02-0.31,0.02-0.46c0-4.96-4.55-8.99-10.15-8.99c-0.79,0-1.54,0.08-2.28,0.23
				c-0.39-4.9-4.77-8.77-10.12-8.77c-5.61,0-10.15,4.24-10.15,9.48c0,0.42,0.04,0.84,0.1,1.26c-0.3-0.02-0.59-0.04-0.9-0.04
				c-5.61,0-10.16,4.04-10.16,9.03c0,0.25,0.02,0.48,0.04,0.72c-0.02,0-0.02,0-0.04,0c-4.64,0-8.66,1.67-8.95,6.88
				c-0.11,1.99,0.62,5.1,4.9,6.84c2.37,0.96,7.51,0.68,21.06,0.68c16.6,0,31.55,0.04,31.55,0.04c3.8-0.67,5.69-3.8,6.01-6.76
				C457.12,308.39,451.8,303.87,445.57,304.02z"/>
			<path class="st1" d="M421.58,308.23c0.02-0.22,0.04-0.44,0.04-0.65c0-7.07-6.47-12.79-14.43-12.79c-1.13,0-2.21,0.12-3.25,0.33
				c-0.55-6.97-6.77-12.47-14.38-12.47c-7.98,0-14.45,6.03-14.45,13.48c0,0.61,0.06,1.21,0.15,1.79c-0.43-0.04-0.85-0.06-1.28-0.06
				c-7.98,0-14.45,5.76-14.45,12.85c0,0.35,0.04,0.68,0.07,1.02c-0.02,0-0.04,0-0.07,0c-6.59,0-12.32,2.38-12.73,9.79
				c-0.15,2.83,0.88,7.26,6.97,9.72c3.37,1.36,10.69,0.97,29.95,0.97c23.61,0,44.89,0.05,44.89,0.05c5.4-0.95,8.1-5.4,8.54-9.61
				C438.01,314.44,430.44,308.01,421.58,308.23z"/>
		</g>
	</g>
	<polygon class="st5" points="346.47,476.93 254.02,500 264.77,387.8 356.7,370.22 	"/>
	<polygon class="st6" points="131.58,471.67 254.02,500 264.77,387.8 141.81,364.95 	"/>
	<polygon class="st7" points="141.81,364.95 268.29,351.1 356.7,370.22 264.77,387.8 	"/>
	<g>
		<path class="st8" d="M247.87,486.8c-1.07-1.82-2.15-3.64-3.23-5.46l-3.25-5.45l-6.53-10.87l-3.29-5.42l-3.31-5.41l-3.33-5.4
			l-3.33-5.4l-6.7-10.77l-1.1-1.74l-2.71,2.14l0.92,1.44l6.89,10.65l3.46,5.31l3.47,5.3l3.49,5.3l3.5,5.29l7.05,10.55l3.55,5.25
			c1.19,1.75,2.37,3.51,3.58,5.25l3.59,5.23c1.21,1.73,2.41,3.48,3.64,5.2c-1.04-1.84-2.1-3.67-3.16-5.5L247.87,486.8z"/>
		<path class="st8" d="M181.71,425.77l-4.23,3.77l-4.22,3.78l-8.41,7.58l-4.2,3.8c-1.4,1.27-2.79,2.55-4.18,3.82l-4.18,3.82
			c-1.4,1.28-2.79,2.55-4.17,3.84l-4.16,3.85c-1.39,1.28-2.76,2.57-4.14,3.87l-4.12,3.88c-1.37,1.3-2.75,2.6-4.1,3.92
			c1.49-1.17,2.96-2.36,4.43-3.54l4.41-3.56c1.47-1.19,2.93-2.38,4.39-3.58l4.39-3.59c1.45-1.2,2.91-2.41,4.36-3.61l4.36-3.62
			c1.45-1.21,2.91-2.41,4.35-3.63l4.34-3.64l8.65-7.32l4.32-3.67l4.3-3.68l0.81-0.69c-0.64-0.91-1.29-1.82-1.93-2.72L181.71,425.77z
			"/>
		<path class="st8" d="M214.93,429.99l4.19-3.31l4.18-3.32l8.34-6.67l4.16-3.36c1.39-1.11,2.77-2.25,4.15-3.37l4.14-3.38
			c1.38-1.13,2.76-2.25,4.14-3.39l4.11-3.41c1.38-1.13,2.75-2.27,4.11-3.42l4.1-3.44c1.35-1.16,2.72-2.31,4.07-3.47
			c-1.47,1.01-2.92,2.04-4.38,3.07l-4.36,3.1c-1.45,1.03-2.89,2.08-4.34,3.12l-4.33,3.13c-1.45,1.04-2.88,2.1-4.31,3.15l-4.31,3.16
			c-1.44,1.05-2.88,2.1-4.3,3.17l-4.29,3.18l-8.56,6.4l-4.26,3.22l-4.26,3.23l-0.88,0.67l-2.78,2.11l-0.6,0.45l-4.24,3.25
			l-4.24,3.25l-2.78,2.14l-2.38-3.31l-3.46-4.79c-1.4-1.95-2.81-3.89-4.22-5.82c-0.67-0.92-1.34-1.83-2-2.75
			c-0.24-0.34-0.49-0.67-0.73-1l-6.98-9.54l-3.52-4.75l-3.53-4.74l-3.53-4.74l-3.55-4.73l-7.14-9.43l-3.61-4.69
			c-1.2-1.56-2.39-3.13-3.61-4.68l-3.65-4.66c-1.22-1.55-2.44-3.1-3.68-4.64c1.06,1.66,2.15,3.31,3.23,4.97l3.26,4.93
			c1.09,1.65,2.19,3.28,3.29,4.92l3.29,4.91l6.66,9.78l3.36,4.87l3.35,4.86l3.38,4.86l3.39,4.85l6.81,9.66
			c0.31,0.43,0.62,0.86,0.93,1.29c0.64,0.91,1.29,1.81,1.93,2.72c1.33,1.88,2.66,3.75,4,5.61l3.45,4.81l3.46,4.8l1.07,1.49
			l1.44-1.12l4.22-3.28l4.21-3.29l4.2-3.29l0.35-0.28l2.71-2.14L214.93,429.99z"/>
	</g>
	<polygon class="st9" points="181.76,360.58 293.74,382.26 317.48,377.72 212.89,357.16 	"/>
	<polygon class="st10" points="317.48,377.72 293.74,382.26 292.26,397.67 316.04,392.71 	"/>
	<polygon class="st10" points="313.67,470.47 289.85,475.86 288.36,491.43 312.23,485.46 	"/>
	<path class="st8" d="M248.08,366.7c0,0,0.07-0.29,0.21-0.85c0.13-0.55,0.3-1.37,0.51-2.4c0.2-1.04,0.41-2.3,0.61-3.75
		c0.19-1.45,0.34-3.1,0.42-4.89c0.06-1.78,0.05-3.72-0.16-5.74c-0.01-0.25-0.05-0.51-0.08-0.76c-0.03-0.25-0.06-0.51-0.1-0.77
		c-0.08-0.51-0.16-1.03-0.28-1.54c-0.21-1.03-0.47-2.08-0.82-3.11l-0.07-0.19l-0.03-0.09l-0.02-0.05c0.03,0.09,0,0.01,0.01,0.02
		l-0.01-0.02l-0.16-0.4l-0.16-0.4l-0.17-0.31l-0.17-0.31l-0.21-0.32l-0.21-0.32l-0.24-0.3c-0.65-0.8-1.47-1.46-2.39-1.96
		c-1.84-0.99-4.11-1.21-6.12-0.52l-0.79,0.31c-0.21,0.12-0.43,0.23-0.65,0.34c-0.21,0.15-0.44,0.28-0.66,0.43
		c-0.2,0.17-0.42,0.32-0.61,0.5c-0.79,0.7-1.43,1.56-1.86,2.51c-0.44,0.95-0.69,1.97-0.74,3l-0.02,0.38l0.03,0.39l0.02,0.38
		l0.06,0.38l0.05,0.38l0.1,0.37l0.09,0.37l0.02,0.02c0,0,0.01,0.03,0,0l0.02,0.05l0.03,0.1l0.07,0.2c0.09,0.26,0.18,0.55,0.28,0.79
		c0.09,0.24,0.19,0.49,0.28,0.74c0.1,0.25,0.21,0.49,0.31,0.73c0.11,0.24,0.23,0.49,0.34,0.73c0.45,0.96,0.95,1.86,1.48,2.73
		c1.04,1.74,2.2,3.3,3.32,4.69c1.14,1.39,2.24,2.61,3.26,3.66c1.02,1.04,1.95,1.93,2.73,2.64c0.78,0.71,1.41,1.25,1.85,1.62
		C247.84,366.51,248.08,366.7,248.08,366.7z M248.08,366.7c0,0-0.27-0.15-0.76-0.45c-0.48-0.3-1.19-0.75-2.05-1.37
		c-0.86-0.62-1.9-1.4-3.03-2.36c-1.14-0.96-2.38-2.1-3.65-3.43c-1.26-1.34-2.57-2.87-3.76-4.63c-0.61-0.88-1.19-1.82-1.71-2.81
		c-0.28-0.49-0.51-1.01-0.76-1.53c-0.12-0.27-0.24-0.54-0.36-0.82c-0.11-0.27-0.2-0.53-0.31-0.79l-0.07-0.2l-0.04-0.1l-0.03-0.05
		l-0.02-0.08l-0.14-0.46l-0.13-0.46l-0.09-0.47l-0.08-0.48l-0.04-0.48l-0.05-0.49c0-0.16,0.01-0.33,0.01-0.49
		c0.01-1.3,0.31-2.62,0.85-3.84c0.54-1.22,1.34-2.34,2.35-3.25c0.25-0.23,0.53-0.43,0.79-0.65c0.27-0.2,0.56-0.38,0.85-0.56
		c0.32-0.17,0.64-0.33,0.96-0.49l0.9-0.35c1.29-0.43,2.68-0.59,4.03-0.46c1.35,0.12,2.67,0.55,3.83,1.19
		c1.17,0.64,2.19,1.53,2.99,2.56c0.1,0.13,0.2,0.25,0.29,0.38l0.26,0.41l0.26,0.41l0.22,0.46l0.22,0.45l0.15,0.41l0.15,0.4l0.04,0.1
		l0.02,0.05l0.03,0.1l0.06,0.22c0.34,1.13,0.58,2.26,0.75,3.38c0.17,1.11,0.28,2.21,0.32,3.27c0.1,2.13-0.03,4.13-0.23,5.96
		c-0.22,1.82-0.53,3.48-0.87,4.93c-0.32,1.45-0.69,2.69-1,3.71c-0.32,1.01-0.62,1.8-0.82,2.33
		C248.2,366.42,248.08,366.7,248.08,366.7z"/>
	<path class="st8" d="M249.07,367.9c0,0-0.08-0.29-0.21-0.85c-0.13-0.55-0.31-1.37-0.48-2.42c-0.17-1.05-0.36-2.33-0.48-3.82
		c-0.13-1.48-0.2-3.16-0.15-5c0.05-1.84,0.22-3.84,0.61-5.93c0.19-1.05,0.45-2.12,0.78-3.2c0.32-1.08,0.73-2.17,1.22-3.24l0.09-0.2
		l0.05-0.1l0.03-0.05l0.05-0.09l0.2-0.38l0.21-0.38l0.28-0.42l0.29-0.42c0.1-0.12,0.21-0.25,0.32-0.37l0.31-0.37
		c0.11-0.12,0.23-0.23,0.35-0.35c0.93-0.91,2.07-1.64,3.32-2.11c1.25-0.48,2.61-0.71,3.96-0.64c1.35,0.06,2.7,0.42,3.92,1.02
		l0.84,0.48c0.29,0.2,0.59,0.41,0.88,0.62c0.25,0.22,0.52,0.44,0.76,0.67c0.23,0.25,0.48,0.49,0.69,0.75
		c0.86,1.04,1.5,2.26,1.86,3.55c0.37,1.28,0.47,2.63,0.3,3.92c-0.02,0.17-0.04,0.32-0.06,0.48l-0.11,0.48l-0.11,0.47l-0.16,0.46
		l-0.15,0.46l-0.2,0.43l-0.2,0.43l-0.04,0.07l-0.03,0.05l-0.05,0.09l-0.11,0.19c-0.14,0.25-0.26,0.49-0.42,0.74
		c-0.16,0.26-0.31,0.51-0.46,0.76c-0.32,0.49-0.63,0.96-0.97,1.41c-0.66,0.91-1.37,1.76-2.09,2.54c-1.43,1.58-2.94,2.91-4.38,4.06
		c-1.45,1.14-2.83,2.09-4.1,2.88c-1.26,0.79-2.4,1.41-3.34,1.91c-0.94,0.5-1.7,0.84-2.22,1.07
		C249.36,367.79,249.07,367.9,249.07,367.9z M249.07,367.9c0,0,0.27-0.15,0.75-0.45c0.49-0.29,1.18-0.75,2.06-1.33
		c0.88-0.59,1.92-1.34,3.08-2.22c1.17-0.89,2.43-1.95,3.75-3.16c1.31-1.22,2.67-2.6,3.95-4.17c0.32-0.39,0.63-0.8,0.94-1.21
		c0.31-0.42,0.62-0.84,0.9-1.29c0.15-0.22,0.29-0.44,0.43-0.67c0.14-0.23,0.29-0.45,0.42-0.69c0.13-0.23,0.26-0.46,0.39-0.69
		c0.13-0.23,0.26-0.5,0.39-0.75l0.09-0.19l0.04-0.1l0.03-0.05c-0.02,0.03,0,0,0,0l0.01-0.02l0.14-0.35l0.14-0.35l0.11-0.36
		l0.11-0.36l0.08-0.38l0.08-0.37l0.04-0.39c0.1-1.02,0-2.07-0.31-3.07c-0.31-1-0.82-1.94-1.48-2.75c-0.17-0.2-0.36-0.39-0.54-0.58
		c-0.19-0.18-0.41-0.35-0.6-0.52c-0.2-0.14-0.4-0.28-0.6-0.43l-0.74-0.42c-1.89-0.97-4.17-1.07-6.13-0.35
		c-0.99,0.36-1.89,0.91-2.64,1.6l-0.29,0.26l-0.26,0.29l-0.26,0.29l-0.21,0.29l-0.22,0.29l-0.22,0.37l-0.22,0.37l-0.01,0.02
		c0.01-0.01-0.03,0.06,0.01-0.02l-0.02,0.04l-0.05,0.09l-0.09,0.18c-0.5,0.96-0.9,1.97-1.26,2.96c-0.18,0.5-0.33,1-0.49,1.49
		c-0.08,0.25-0.14,0.5-0.2,0.74c-0.07,0.25-0.15,0.5-0.2,0.74c-0.49,1.96-0.77,3.88-0.96,5.66c-0.17,1.79-0.26,3.44-0.28,4.89
		c-0.01,1.46,0.01,2.75,0.07,3.8c0.06,1.06,0.11,1.88,0.16,2.45C249.04,367.59,249.07,367.9,249.07,367.9z"/>
	<path class="st11" d="M170.62,141.61c-3.27,10.88-5.77,22.36-7.37,34.3l0,0C164.85,163.97,167.35,152.49,170.62,141.61
		L170.62,141.61z"/>
	<g>
		<path class="st12" d="M146.78,49.42c-26.88,26.67-44.95,62.41-48.97,102.91l56.43,5.41c2.63-26.82,9.33-51.77,19.02-73.52
			C161.98,74.35,152.91,62.55,146.78,49.42z"/>
		<path class="st12" d="M376.27,39.6c-3.25,9.39-7.95,18.23-13.88,26.34c14.64,31.21,21.55,70.97,17.57,113.43l56.43,5.41
			C441.69,127.44,417.53,74.09,376.27,39.6z"/>
		<path class="st13" d="M310.11,105.65c0.14,20.57-0.85,43.13-3.11,66.72l72.95,6.99c3.98-42.45-2.93-82.22-17.57-113.43
			C349.78,83.17,331.63,97.05,310.11,105.65z"/>
		<path class="st13" d="M173.27,84.22c-9.7,21.75-16.39,46.7-19.02,73.52l72.94,6.99c1.74-18.11,4.09-35.48,6.92-51.7
			C210.62,108.72,189.61,98.5,173.27,84.22z"/>
		<path class="st11" d="M173.27,84.21c-9.7,21.76-16.39,46.7-19.02,73.52l0.01,0C156.88,130.91,163.57,105.97,173.27,84.21
			C173.27,84.21,173.27,84.21,173.27,84.21z"/>
		<path class="st12" d="M260.89,115.28c-9.19,0.1-18.14-0.68-26.77-2.26c-2.82,16.22-5.18,33.59-6.92,51.7l79.81,7.65
			c2.26-23.59,3.25-46.16,3.11-66.72C295.1,111.65,278.45,115.09,260.89,115.28z"/>
		<path class="st14" d="M173.27,84.21c23.81-53.42,65.7-87.66,109.91-83.42c-52.54-5.03-101.77,14.26-136.39,48.63
			C152.91,62.55,161.98,74.35,173.27,84.21z"/>
		<path class="st14" d="M283.18,0.79c33.72,3.23,61.88,28.19,79.21,65.15c5.93-8.11,10.64-16.95,13.88-26.34
			C350.79,18.31,318.79,4.21,283.18,0.79L283.18,0.79z"/>
		<path class="st11" d="M283.18,0.79L283.18,0.79c16.42,1.58,26.54,44.66,26.94,104.86c21.52-8.6,39.66-22.48,52.27-39.71
			C345.05,28.99,316.9,4.03,283.18,0.79z"/>
		<path class="st11" d="M283.18,0.79c-44.21-4.23-86.1,30-109.91,83.43c16.35,14.28,37.36,24.51,60.85,28.81
			C245.76,46.27,265.45-0.9,283.18,0.79z"/>
		<polygon class="st15" points="283.18,0.79 283.17,0.79 283.18,0.79 		"/>
		<path class="st15" d="M283.18,0.79L283.18,0.79C283.17,0.79,283.17,0.79,283.18,0.79c-44.21-4.23-86.1,30-109.91,83.42
			c0,0,0,0,0,0C197.08,30.79,238.97-3.44,283.18,0.79z"/>
		<path class="st14" d="M283.18,0.79L283.18,0.79c-17.73-1.7-37.42,45.48-49.06,112.24c8.63,1.58,17.58,2.36,26.77,2.26
			c17.56-0.2,34.22-3.63,49.22-9.63C309.71,45.45,299.6,2.37,283.18,0.79z"/>
	</g>
	<path class="st16" d="M118.84,144.09c-12.7,1.75-20.21,4.4-20.96,7.92c5.59-0.2,11.79-0.31,18.54-0.32
		C117.16,149.13,117.97,146.59,118.84,144.09z"/>
	<path class="st16" d="M436.2,183.44c-1.19-3.34-7.88-7.01-18.89-10.76c0.34,2.38,0.63,4.78,0.86,7.19
		C425.16,188.95,430.66,182.26,436.2,183.44z"/>
	<path class="st17" d="M167.55,152.97c0.93-3.85,1.95-7.64,3.08-11.36c-21.35-0.11-39.14,0.73-51.78,2.48
		c-0.87,2.5-1.68,5.04-2.42,7.6C131.43,161.18,149.57,167.3,167.55,152.97z"/>
	<path class="st17" d="M418.17,179.88c-0.23-2.41-0.52-4.81-0.86-7.19c-12.09-4.11-29.39-8.32-50.37-12.26
		c0.38,3.74,0.66,7.53,0.84,11.36C385.74,184.21,401.14,186.84,418.17,179.88z"/>
	<path class="st16" d="M367.78,171.78c-0.18-3.83-0.46-7.62-0.84-11.36c-18.59-3.5-40.05-6.79-63.34-9.64
		c-0.08,4.24-0.22,8.57-0.4,12.96C324.35,180.66,340.72,187.51,367.78,171.78z"/>
	<path class="st16" d="M234.65,144.18c-23.41-1.62-45.11-2.47-64.02-2.57c-1.12,3.72-2.14,7.51-3.08,11.36
		c13.05,17.86,40.46,18.77,65.01,4.12C233.22,152.71,233.91,148.4,234.65,144.18z"/>
	<path class="st17" d="M270.23,171.55c10.69,1.02,17.73,3.66,32.96-7.8c0.18-4.39,0.32-8.71,0.4-12.96
		c-11.11-1.36-22.62-2.62-34.43-3.75c-11.82-1.13-23.36-2.08-34.52-2.86c-0.73,4.22-1.43,8.53-2.09,12.91
		C244.44,169.07,256.84,170.26,270.23,171.55z"/>
	<path class="st18" d="M113.55,163.23c11.43,4.22,28.56,8.58,49.71,12.68c1.06-7.86,2.49-15.52,4.29-22.94
		c-19.19-0.87-36.45-1.3-51.12-1.28C115.32,155.48,114.37,159.32,113.55,163.23z"/>
	<path class="st18" d="M367.78,171.78c0.37,7.75,0.34,15.67-0.11,23.71c21.53-0.01,39.18-1.03,51.19-3.01
		c-0.04-4.24-0.28-8.44-0.68-12.61C403.49,177.18,386.51,174.44,367.78,171.78z"/>
	<path class="st1" d="M303.19,163.74c-0.4,9.48-1.04,19.28-1.93,29.3c24.45,1.66,47,2.47,66.4,2.46c0.46-8.04,0.49-15.97,0.11-23.71
		C347.98,168.98,326.23,166.26,303.19,163.74z"/>
	<path class="st1" d="M228.9,186.1c1.02-9.96,2.25-19.67,3.66-29.02c-23.26-1.84-45.17-3.22-65.01-4.12
		c-1.8,7.42-3.23,15.08-4.29,22.94C182.29,179.6,204.59,183.09,228.9,186.1z"/>
	<path class="st18" d="M271.74,160.52c-13.38-1.28-26.48-2.43-39.18-3.43c-1.41,9.35-2.63,19.05-3.66,29.02
		c11.63,1.44,23.73,2.77,36.14,3.96c12.41,1.19,24.53,2.18,36.22,2.97c0.89-10.02,1.53-19.81,1.93-29.3
		C292.94,162.62,282.45,161.55,271.74,160.52z"/>
	<g>
		<polygon class="st19" points="249.78,368.32 248.48,367.47 381.79,163.39 383.42,163.74 		"/>
		<polygon class="st8" points="249.71,368.46 248.62,367.35 433.75,184.76 435.24,185.62 		"/>
		<polygon class="st8" points="249.92,368.11 248.42,367.7 309.01,151.46 310.56,151.66 		"/>
	</g>
	<g>
		<polygon class="st19" points="248.45,368.2 156.53,141.69 158.29,141.66 249.89,367.61 		"/>
		<polygon class="st8" points="248.53,368.35 99.44,155.59 102.13,156.72 249.8,367.46 		"/>
		<polygon class="st8" points="248.39,367.97 229.72,143.85 231.32,143.95 249.94,367.84 		"/>
	</g>
	<polygon class="st8" points="193.56,486.01 192.03,485.66 202.31,376.19 298.18,357.57 301.92,358.37 205.81,376.84 	"/>
	<path class="st1" d="M113.55,163.23c0.81-3.91,1.77-7.75,2.87-11.54c-6.75,0.01-12.95,0.12-18.54,0.32
		c-0.03,0.1-0.05,0.21-0.06,0.32C97.5,155.66,103.17,159.39,113.55,163.23z"/>
	<path class="st1" d="M418.85,192.49c10.94-1.8,17.21-4.38,17.53-7.72c0.04-0.44-0.02-0.88-0.19-1.33
		c-5.53-1.18-11.55-2.37-18.02-3.56C418.57,184.04,418.81,188.25,418.85,192.49z"/>
	<g>
		<polygon class="st8" points="202.56,358.3 198.28,358.77 309.55,379.23 311.63,378.84 		"/>
		<polygon class="st20" points="309.55,379.23 299.43,488.66 301.05,488.27 311.63,378.84 		"/>
	</g>
	<path class="st21" d="M211.96,434.56c-0.75,7.8-7.67,13.51-15.47,12.76c-7.79-0.75-13.51-7.67-12.76-15.47
		c0.76-7.8,7.68-13.51,15.47-12.76C206.99,419.85,212.7,426.77,211.96,434.56z"/>
	<path class="st22" d="M196.41,448.2c-8.26-0.79-14.34-8.16-13.55-16.42c0.79-8.26,8.16-14.34,16.42-13.55
		c8.27,0.79,14.35,8.16,13.56,16.42C212.05,442.91,204.67,448.99,196.41,448.2z M199.17,419.33c-7.65-0.74-14.48,4.9-15.21,12.55
		c-0.73,7.66,4.9,14.48,12.55,15.21c7.66,0.73,14.48-4.9,15.22-12.55C212.46,426.89,206.83,420.06,199.17,419.33z"/>
	<path class="st22" d="M235.87,433.66c-3.79-0.36-5.62-1.47-7.4-2.54c-1.74-1.05-3.39-2.05-6.93-2.39
		c-3.54-0.34-5.34,0.32-7.26,1.03c-1.95,0.71-3.96,1.45-7.75,1.09c-3.79-0.36-5.62-1.47-7.39-2.54c-1.75-1.05-3.4-2.05-6.94-2.39
		c-0.31-0.03-0.53-0.3-0.5-0.61c0.03-0.3,0.3-0.53,0.61-0.5c3.8,0.36,5.63,1.47,7.4,2.54c1.75,1.05,3.38,2.05,6.93,2.39
		c3.54,0.34,5.35-0.32,7.26-1.02c1.95-0.72,3.96-1.45,7.75-1.09c3.79,0.36,5.62,1.47,7.4,2.54c1.74,1.05,3.4,2.05,6.93,2.39
		c0.31,0.03,0.53,0.3,0.5,0.6C236.45,433.46,236.18,433.69,235.87,433.66z"/>
	<path class="st22" d="M234.62,439.07c-3.8-0.37-5.63-1.47-7.4-2.54c-1.73-1.05-3.4-2.04-6.93-2.39c-3.54-0.34-5.34,0.33-7.26,1.03
		c-1.94,0.71-3.95,1.45-7.75,1.09c-3.79-0.36-5.62-1.47-7.4-2.54c-1.74-1.05-3.39-2.04-6.93-2.39c-0.31-0.03-0.53-0.3-0.5-0.61
		c0.03-0.3,0.31-0.53,0.61-0.5c3.79,0.37,5.62,1.47,7.4,2.54c1.75,1.05,3.39,2.05,6.93,2.39c3.55,0.34,5.35-0.32,7.27-1.03
		c1.94-0.71,3.95-1.45,7.75-1.09c3.79,0.37,5.62,1.47,7.39,2.54c1.74,1.06,3.4,2.05,6.93,2.39c0.31,0.03,0.52,0.3,0.5,0.6
		C235.19,438.88,234.92,439.1,234.62,439.07z"/>
	<path class="st22" d="M233.35,444.48c-3.79-0.36-5.63-1.47-7.4-2.54c-1.74-1.06-3.39-2.05-6.94-2.39
		c-3.53-0.34-5.34,0.33-7.25,1.03c-1.95,0.71-3.96,1.45-7.75,1.09c-3.8-0.36-5.63-1.47-7.41-2.54c-1.74-1.05-3.39-2.04-6.92-2.38
		c-0.31-0.03-0.54-0.3-0.5-0.61c0.03-0.31,0.31-0.53,0.61-0.5c3.8,0.36,5.63,1.47,7.4,2.54c1.74,1.05,3.39,2.05,6.93,2.39
		c3.55,0.34,5.35-0.33,7.26-1.03c1.94-0.71,3.96-1.45,7.75-1.09c3.8,0.36,5.63,1.47,7.4,2.54c1.75,1.05,3.39,2.05,6.93,2.39
		c0.31,0.03,0.54,0.3,0.5,0.61C233.93,444.29,233.66,444.51,233.35,444.48z"/>
</g>
</svg>
