<?xml version="1.0" encoding="utf-8"?>
<!-- Generator: Adobe Illustrator 24.0.1, SVG Export Plug-In . SVG Version: 6.00 Build 0)  -->
<svg version="1.1" id="Layer_1" xmlns="http://www.w3.org/2000/svg" xmlns:xlink="http://www.w3.org/1999/xlink" x="0px" y="0px"
	 viewBox="0 0 500 500" style="enable-background:new 0 0 500 500;" xml:space="preserve">
<style type="text/css">
	.st0{opacity:0.12;}
	.st1{fill:url(#SVGID_1_);}
	.st2{fill:#FFC7B6;}
	.st3{fill:#202640;}
	.st4{fill:#60E99C;}
	.st5{fill:#FCFCFC;}
	.st6{fill:#133479;}
	.st7{font-family:'Gilroy-ExtraBold';}
	.st8{font-size:28.9357px;}
	.st9{opacity:0.12;fill:url(#SVGID_2_);}
	.st10{fill:#88B7E6;}
</style>
<g>
	<g class="st0">
		<linearGradient id="SVGID_1_" gradientUnits="userSpaceOnUse" x1="23.6133" y1="324.5296" x2="474.9561" y2="324.5296">
			<stop  offset="0" style="stop-color:#5BDB98"/>
			<stop  offset="1" style="stop-color:#60E99C"/>
		</linearGradient>
		<path class="st1" d="M474.96,392.09c0,32.2-6.76,62.84-18.93,90.56H42.5c-12.13-27.72-18.89-58.36-18.89-90.56
			c0-124.65,101.04-225.69,225.65-225.69C373.92,166.41,474.96,267.44,474.96,392.09z"/>
	</g>
	<g>
		<g>
			<path class="st2" d="M241.88,258.2c0,0,41.27-55.24,56-43.45c14.74,11.79-43.48,69.27-43.48,69.27L241.88,258.2z"/>
			<path class="st2" d="M241.88,298.18c0,0,41.27-55.24,56-43.45C312.62,266.52,254.4,324,254.4,324L241.88,298.18z"/>
			<path class="st2" d="M241.88,338.16c0,0,41.27-55.24,56-43.45c14.74,11.79-43.48,69.27-43.48,69.27L241.88,338.16z"/>
			<path class="st3" d="M276.12,221.37v39.14c2.63-3.09,5.28-6.32,7.82-9.58v-34.93C281.42,217.4,278.79,219.26,276.12,221.37z"/>
			<path class="st3" d="M276.12,261.35v39.14c2.63-3.09,5.28-6.32,7.82-9.58v-34.93C281.42,257.38,278.79,259.23,276.12,261.35z"/>
			<path class="st3" d="M276.12,301.33v39.14c2.63-3.09,5.28-6.32,7.82-9.58v-34.93C281.42,297.35,278.79,299.21,276.12,301.33z"/>
			<rect x="122.5" y="377.31" class="st2" width="110.55" height="105.35"/>
			<path class="st2" d="M266.59,377.31c-0.45,4.41-1.76,8.31-3.62,11.75c-3.31,6.07-8.38,10.69-13.86,14.13
				c-5.48,3.52-11.34,5.86-16.06,7.34c-5.55,1.83-9.55,2.45-9.55,2.45v-35.68H266.59z"/>
			<path class="st3" d="M262.97,380.2v8.86c-3.31,6.07-8.38,10.69-13.86,14.13l-16.06-1.38l-9.55-0.83l-74.01-6.45l3-14.34H262.97z"
				/>
			<path class="st4" d="M264.5,394.56H158.09c-8.67,0-15.7-7.03-15.7-15.7V175.18c0-8.67,7.03-15.7,15.7-15.7H264.5
				c8.67,0,15.7,7.03,15.7,15.7v203.68C280.2,387.53,273.17,394.56,264.5,394.56z"/>
			<path class="st5" d="M159.63,372.12V181.93c0-2.88,2.33-5.21,5.21-5.21h92.91c2.88,0,5.21,2.33,5.21,5.21v190.19
				c0,2.88-2.33,5.21-5.21,5.21h-92.91C161.96,377.32,159.63,374.99,159.63,372.12z"/>
			<path class="st2" d="M151.24,402.66c0,0,51.58-63.37-3.68-90.64c0,0,31.69-31.69,19.9-44.95
				c-11.05-12.44-75.86,14.64-71.17,64.22c0.65,6.86,2.92,13.47,5.98,19.64C118.96,384.66,151.24,402.66,151.24,402.66z"/>
			<path class="st4" d="M242.89,302.45H179.7c-5.2,0-9.42-4.22-9.42-9.42v-12.11c0-5.2,4.22-9.42,9.42-9.42h63.19
				c5.2,0,9.42,4.22,9.42,9.42v12.11C252.31,298.23,248.09,302.45,242.89,302.45z"/>
			<text transform="matrix(1 0 0 1 185.6013 291.9408)" class="st6 st7 st8">pay</text>
		</g>
		<g>
			<g>
				<polygon class="st2" points="430.81,482.65 316.71,482.65 307.03,436.77 316.51,395.16 406.13,377.31 				"/>
				<path class="st2" d="M406.13,377.31l-6.24,34.4l-18.06-67.12l-4.31-16.06c1.65-0.1,3.21,0,4.65,0.28h0.03
					C404.62,332.98,406.13,377.31,406.13,377.31z"/>
				<path class="st3" d="M397.76,382.65l-15.93-38.06l-4.31-16.06c1.65-0.1,3.21,0,4.65,0.28h0.03c4.72,3.76,10.13,10.72,13.2,23.58
					C399.89,368.17,397.76,382.65,397.76,382.65z"/>
				<path class="st2" d="M399.89,393.82c-0.34,17.89-22.3,22.27-22.3,22.27l-28.58-31.75l-28.13-69.29c0,0,7.65-2.93,18.96-3.14
					c3.55-0.1,7.51,0.1,11.69,0.79c4.96,0.72,10.27,2.14,15.72,4.52C391.65,327.8,400.27,375.96,399.89,393.82z"/>
				<path class="st3" d="M370.11,374.96l-30.27-63.05c3.55-0.1,7.51,0.1,11.69,0.79C356.91,320.77,370.52,344.18,370.11,374.96z"/>
				<path class="st2" d="M371.66,395.58c-0.34,20.27-22.3,25.23-22.3,25.23l-28.58-36.02l-28.16-78.67c0,0,1.9-0.83,5.17-1.65
					c3.03-0.83,7.31-1.62,12.38-1.86c8.07-0.38,18.24,0.79,28.85,6C363.42,320.63,372.01,375.27,371.66,395.58z"/>
				<path class="st3" d="M339.84,373.27l-42.06-68.8c3.03-0.83,7.31-1.62,12.38-1.86c5.38,3.83,11.4,7.48,17.92,15.61
					C337.3,337.95,339.84,373.27,339.84,373.27z"/>
			</g>
			<path class="st2" d="M332.38,434.9l-25.35,1.88c0,0-44.34,6.4-57.52-41.22c-9.04-36.85,1.65-53.33,7.93-53.83
				c16.13-1.27,17.13,26.56,22.02,38.22c1.19,2.83,4.18,4.45,7.2,3.91l0,0c3.54-0.63,5.91-3.99,5.33-7.54l-6.4-38.73
				c0,0-52.58-38.51-44.3-55.9c8.28-17.39,76.6,29.4,81.15,36.44c4.55,7.04,13.25,34.37,13.25,34.37l13.66,68.32L332.38,434.9z"/>
		</g>
	</g>
	<g>
		<g>
			<rect x="408.52" y="262.78" class="st4" width="32.31" height="2.59"/>
		</g>
	</g>
	<g>
		<g>
			<rect x="41.15" y="362.7" class="st4" width="32.31" height="2.59"/>
		</g>
	</g>
	<linearGradient id="SVGID_2_" gradientUnits="userSpaceOnUse" x1="306.925" y1="109.038" x2="492.8953" y2="109.038">
		<stop  offset="0" style="stop-color:#5BDB98"/>
		<stop  offset="1" style="stop-color:#60E99C"/>
	</linearGradient>
	<circle class="st9" cx="399.91" cy="109.04" r="92.99"/>
	<g>
		<path class="st10" d="M497.91,165.75H351.44c-1.15,0-2.09-0.93-2.09-2.09V75.05c0-1.15,0.93-2.09,2.09-2.09h146.47
			c1.15,0,2.09,0.93,2.09,2.09v88.61C500,164.82,499.07,165.75,497.91,165.75z"/>
		<rect x="349.35" y="92.23" class="st6" width="150.65" height="17.15"/>
		<path class="st6" d="M424.17,139.13h-63.28c-0.28,0-0.5-0.22-0.5-0.5V124.3c0-0.28,0.22-0.5,0.5-0.5h63.28
			c0.28,0,0.5,0.22,0.5,0.5v14.33C424.68,138.9,424.45,139.13,424.17,139.13z"/>
		<path class="st6" d="M460.98,145.24h-17.29c-0.28,0-0.5-0.22-0.5-0.5V124.3c0-0.28,0.22-0.5,0.5-0.5h17.29
			c0.28,0,0.5,0.22,0.5,0.5v20.44C461.49,145.02,461.26,145.24,460.98,145.24z"/>
		<path class="st6" d="M489.69,145.24H472.4c-0.28,0-0.5-0.22-0.5-0.5V124.3c0-0.28,0.22-0.5,0.5-0.5h17.29c0.28,0,0.5,0.22,0.5,0.5
			v20.44C490.19,145.02,489.97,145.24,489.69,145.24z"/>
	</g>
	<g>
		<rect y="481.36" class="st4" width="498.57" height="2.59"/>
	</g>
</g>
</svg>
