<?xml version="1.0" encoding="utf-8"?>
<!-- Generator: Adobe Illustrator 24.0.1, SVG Export Plug-In . SVG Version: 6.00 Build 0)  -->
<svg version="1.1" id="Layer_1" xmlns="http://www.w3.org/2000/svg" xmlns:xlink="http://www.w3.org/1999/xlink" x="0px" y="0px"
	 viewBox="0 0 500 500" style="enable-background:new 0 0 500 500;" xml:space="preserve">
<style type="text/css">
	.st0{opacity:0.12;fill:url(#SVGID_1_);}
	.st1{fill:#60E99C;}
	.st2{fill:#4CB08A;}
	.st3{fill:none;stroke:#5E5ED7;stroke-miterlimit:10;}
	.st4{fill:none;stroke:#4545B6;stroke-miterlimit:10;}
	.st5{fill:#FCC1B1;}
	.st6{fill:#E5A393;}
	.st7{fill:#3B4369;}
	.st8{fill:#141930;}
	.st9{fill:#FCFCFC;}
	.st10{fill:#88D1FE;}
	.st11{fill:#E6E6E6;}
	.st12{fill:#A3EFC2;}
	.st13{fill:#04005A;}
	.st14{fill:#000038;}
</style>
<g>
	<linearGradient id="SVGID_1_" gradientUnits="userSpaceOnUse" x1="56.2266" y1="251.9517" x2="456.3816" y2="251.9517">
		<stop  offset="0" style="stop-color:#5BDB98"/>
		<stop  offset="1" style="stop-color:#60E99C"/>
	</linearGradient>
	<path class="st0" d="M209.98,447.87c0,0-16.69-40.36-78.71-54.84c-62.02-14.49-91.37-79.68-65.83-135.55
		c25.54-55.88,74.18-66.23,97.97-159.35C187.22,4.99,296.9-13.63,376.58,18.44s91.06,100.37,71.4,151.08
		c-19.66,50.7-62.09,90.03-42.43,150.04c19.66,60.02,23.8,142.8-36.22,167.63C309.32,512.03,243.09,501.68,209.98,447.87z"/>
	<g>
		<path class="st1" d="M49.89,195.43l-6.27,85.69c0,0,82.66,40.43,136.87,18.16l-0.66-73.62
			C179.82,225.65,113.73,259.13,49.89,195.43z"/>
		
			<ellipse transform="matrix(0.7887 -0.6148 0.6148 0.7887 -140.4742 124.3166)" class="st2" cx="110.6" cy="266.5" rx="22.12" ry="23.9"/>
		<g>
			<path class="st2" d="M67.41,252.42c-0.72-0.42-1.37-0.83-1.94-1.22c-0.58-0.4-1.05-0.84-1.43-1.31
				c-0.38-0.48-0.64-1.01-0.79-1.59c-0.15-0.59-0.14-1.26,0.01-2.04c0.24-1.19,0.81-2.12,1.71-2.79c0.9-0.67,2.06-1.01,3.49-1.04
				l0.43-2.13c0.16,0,0.42,0,0.76,0.02c0.34,0.02,0.69,0.06,1.04,0.13c0.68,0.14,1.2,0.36,1.53,0.67c0.34,0.32,0.43,0.86,0.28,1.63
				l-0.07,0.34c1.06,0.36,1.87,0.81,2.45,1.37c0.57,0.55,0.79,1.2,0.64,1.93c-0.09,0.46-0.27,0.82-0.55,1.11
				c-0.28,0.28-0.58,0.51-0.93,0.67c-0.34-0.32-0.81-0.64-1.42-0.96c-0.61-0.31-1.3-0.55-2.07-0.7c-0.79-0.16-1.39-0.17-1.8-0.02
				c-0.41,0.15-0.65,0.39-0.72,0.72c-0.05,0.26,0.02,0.5,0.21,0.71c0.19,0.21,0.5,0.44,0.93,0.67l1.3,0.72
				c1.54,0.86,2.67,1.78,3.4,2.77c0.72,0.99,0.94,2.19,0.66,3.59c-0.24,1.19-0.82,2.13-1.74,2.81c-0.92,0.68-2.14,1.03-3.65,1.03
				l-0.42,2.1c-0.16,0-0.42,0-0.76-0.02c-0.34-0.01-0.69-0.06-1.04-0.13c-0.68-0.14-1.19-0.36-1.53-0.68
				c-0.34-0.31-0.43-0.86-0.27-1.63l0.05-0.26c-0.62-0.2-1.17-0.43-1.65-0.69c-0.49-0.26-0.89-0.55-1.22-0.87
				c-0.33-0.32-0.56-0.67-0.71-1.04c-0.14-0.38-0.17-0.77-0.09-1.2c0.1-0.51,0.34-0.91,0.71-1.21c0.37-0.3,0.75-0.51,1.14-0.63
				c0.41,0.48,0.95,0.94,1.6,1.36c0.65,0.42,1.4,0.72,2.24,0.89c0.86,0.17,1.49,0.16,1.89-0.03c0.4-0.19,0.64-0.46,0.71-0.81
				c0.07-0.35-0.02-0.64-0.26-0.88c-0.24-0.24-0.6-0.5-1.08-0.78L67.41,252.42z"/>
		</g>
		<g>
			<path class="st2" d="M153.89,268.6c-0.77-0.32-1.46-0.64-2.09-0.96c-0.62-0.32-1.15-0.69-1.59-1.12
				c-0.44-0.42-0.77-0.92-0.99-1.48c-0.22-0.56-0.31-1.23-0.25-2.02c0.08-1.21,0.52-2.21,1.33-2.99c0.8-0.78,1.91-1.27,3.32-1.48
				l0.15-2.17c0.16-0.02,0.41-0.05,0.76-0.08c0.34-0.03,0.69-0.03,1.05-0.01c0.7,0.05,1.23,0.2,1.61,0.47
				c0.38,0.27,0.54,0.8,0.49,1.58l-0.02,0.35c1.1,0.22,1.97,0.56,2.6,1.03c0.64,0.47,0.94,1.08,0.89,1.83
				c-0.03,0.46-0.16,0.85-0.4,1.17c-0.24,0.31-0.51,0.58-0.83,0.79c-0.38-0.28-0.89-0.53-1.53-0.76c-0.65-0.23-1.36-0.37-2.15-0.43
				c-0.8-0.05-1.4,0.02-1.79,0.21c-0.39,0.2-0.6,0.47-0.62,0.81c-0.02,0.27,0.08,0.5,0.3,0.68c0.22,0.19,0.56,0.37,1.01,0.54
				l1.39,0.55c1.64,0.65,2.88,1.42,3.73,2.31c0.84,0.89,1.22,2.05,1.12,3.48c-0.08,1.21-0.53,2.22-1.36,3.01
				c-0.82,0.8-1.99,1.3-3.49,1.5l-0.14,2.14c-0.16,0.02-0.42,0.05-0.76,0.08c-0.34,0.03-0.69,0.03-1.05,0.01
				c-0.7-0.05-1.23-0.2-1.61-0.47c-0.38-0.27-0.54-0.79-0.48-1.58l0.02-0.27c-0.64-0.11-1.21-0.27-1.73-0.47
				c-0.52-0.2-0.96-0.43-1.32-0.71c-0.37-0.27-0.65-0.59-0.84-0.94c-0.19-0.35-0.27-0.74-0.24-1.17c0.03-0.52,0.22-0.95,0.54-1.29
				c0.33-0.35,0.68-0.6,1.05-0.78c0.47,0.43,1.06,0.81,1.77,1.14c0.7,0.33,1.48,0.53,2.34,0.59c0.87,0.06,1.5-0.04,1.87-0.28
				c0.37-0.24,0.57-0.54,0.6-0.9c0.02-0.35-0.1-0.64-0.37-0.84c-0.27-0.21-0.66-0.42-1.17-0.63L153.89,268.6z"/>
		</g>
		<path class="st3" d="M53.8,204.14l-5.42,74.15c0,0,73.79,35.5,126.37,19.15l-0.58-64.67C174.17,232.77,111.47,258.3,53.8,204.14z"
			/>
		<path class="st4" d="M123.11,282.54c-8.2,6.39-20.44,4.39-27.35-4.47c-6.91-8.86-5.86-21.22,2.34-27.61
			c8.2-6.39,20.44-4.39,27.35,4.47C132.36,263.79,131.31,276.15,123.11,282.54z"/>
	</g>
	<g>
		<path class="st1" d="M65.73,165.12l87.52,79.14c0,0,113.59-55.4,135.23-132.9l-80.3-61.45C208.18,49.9,188.63,149.76,65.73,165.12
			z"/>
		<ellipse class="st2" cx="193.98" cy="159.37" rx="32.82" ry="30.37"/>
		<g>
			<path class="st2" d="M142.26,194.26c-1.06,0.43-2.05,0.78-2.97,1.07c-0.92,0.29-1.8,0.43-2.63,0.44
				c-0.84,0.01-1.63-0.16-2.39-0.49c-0.76-0.34-1.49-0.91-2.2-1.73c-1.09-1.27-1.62-2.67-1.58-4.21c0.04-1.54,0.65-3.09,1.82-4.66
				l-1.95-2.26c0.14-0.18,0.35-0.45,0.66-0.81c0.31-0.36,0.65-0.7,1.02-1.02c0.73-0.62,1.4-0.99,2.03-1.09
				c0.63-0.1,1.29,0.26,2,1.08l0.31,0.36c1.28-0.85,2.46-1.34,3.55-1.5c1.08-0.15,1.96,0.16,2.63,0.94
				c0.42,0.48,0.66,0.99,0.73,1.53c0.07,0.54,0.05,1.06-0.05,1.58c-0.63,0.09-1.38,0.34-2.24,0.73c-0.86,0.4-1.69,0.95-2.51,1.65
				c-0.84,0.72-1.35,1.37-1.54,1.93c-0.19,0.57-0.13,1.03,0.17,1.38c0.24,0.28,0.56,0.41,0.95,0.37c0.39-0.03,0.9-0.18,1.51-0.45
				l1.89-0.8c2.23-0.95,4.19-1.39,5.87-1.34c1.68,0.06,3.17,0.83,4.45,2.32c1.09,1.27,1.61,2.68,1.57,4.26
				c-0.04,1.57-0.69,3.18-1.97,4.83l1.92,2.23c-0.14,0.18-0.36,0.45-0.66,0.81c-0.3,0.36-0.64,0.7-1.02,1.02
				c-0.73,0.62-1.4,0.99-2.03,1.09c-0.62,0.1-1.29-0.26-1.99-1.08l-0.24-0.28c-0.73,0.5-1.45,0.91-2.14,1.21
				c-0.69,0.3-1.35,0.5-1.98,0.58c-0.62,0.09-1.2,0.05-1.73-0.11c-0.53-0.16-0.98-0.47-1.37-0.91c-0.46-0.54-0.7-1.14-0.71-1.79
				c-0.01-0.65,0.08-1.24,0.28-1.77c0.87-0.04,1.82-0.23,2.83-0.59c1.01-0.35,1.96-0.91,2.86-1.68c0.91-0.78,1.43-1.48,1.56-2.08
				c0.13-0.6,0.04-1.08-0.28-1.46c-0.32-0.37-0.71-0.53-1.18-0.47c-0.47,0.06-1.05,0.23-1.75,0.51L142.26,194.26z"/>
		</g>
		<g>
			<path class="st2" d="M232.81,114.26c-0.99,0.56-1.93,1.04-2.8,1.45c-0.87,0.41-1.72,0.67-2.55,0.78
				c-0.83,0.12-1.64,0.06-2.44-0.18c-0.8-0.23-1.6-0.71-2.4-1.43c-1.24-1.11-1.95-2.43-2.11-3.96c-0.16-1.53,0.24-3.15,1.2-4.85
				l-2.22-1.99c0.11-0.2,0.29-0.49,0.55-0.89c0.26-0.4,0.55-0.78,0.88-1.14c0.64-0.71,1.26-1.16,1.87-1.35
				c0.61-0.18,1.32,0.09,2.12,0.81l0.36,0.32c1.16-1.01,2.27-1.65,3.32-1.95c1.05-0.29,1.96-0.1,2.73,0.59
				c0.48,0.43,0.79,0.9,0.93,1.42c0.14,0.52,0.19,1.04,0.15,1.57c-0.62,0.17-1.32,0.51-2.12,1.02c-0.8,0.51-1.56,1.16-2.28,1.97
				c-0.74,0.82-1.16,1.53-1.28,2.12c-0.11,0.59,0,1.04,0.35,1.35c0.27,0.25,0.61,0.33,0.99,0.24c0.39-0.08,0.87-0.3,1.44-0.64
				l1.77-1.04c2.09-1.23,3.97-1.93,5.65-2.09c1.68-0.16,3.25,0.41,4.71,1.72c1.25,1.11,1.95,2.45,2.12,4.01
				c0.17,1.56-0.27,3.25-1.32,5.04l2.2,1.96c-0.11,0.2-0.29,0.5-0.55,0.89c-0.25,0.4-0.55,0.78-0.87,1.15
				c-0.64,0.71-1.26,1.16-1.87,1.34c-0.61,0.18-1.31-0.09-2.12-0.81l-0.27-0.25c-0.66,0.59-1.32,1.09-1.97,1.48
				c-0.65,0.39-1.28,0.67-1.88,0.84c-0.61,0.17-1.18,0.2-1.73,0.11c-0.54-0.09-1.04-0.33-1.48-0.73c-0.53-0.47-0.84-1.03-0.94-1.68
				c-0.1-0.65-0.08-1.24,0.04-1.79c0.86-0.15,1.77-0.47,2.73-0.95c0.95-0.48,1.83-1.16,2.61-2.04c0.8-0.9,1.23-1.65,1.28-2.26
				c0.05-0.61-0.1-1.08-0.47-1.41c-0.36-0.33-0.77-0.43-1.23-0.31c-0.45,0.12-1.01,0.37-1.67,0.73L232.81,114.26z"/>
		</g>
		<path class="st3" d="M78.48,168.23l75.74,68.49c0,0,100.75-49.95,127.44-120.7l-70.54-53.98
			C211.12,62.04,185.84,151.5,78.48,168.23z"/>
		<ellipse class="st4" cx="193.98" cy="159.37" rx="27.93" ry="25.85"/>
	</g>
	<g>
		<path class="st5" d="M416.91,198.89c-2.64-10.17-7.15-10.54-7.15-10.54s39.91-52.34,39.16-63.26
			c-0.75-10.92-9.04-11.67-17.32-4.52c0,0-2.64-6.31-9.79-4.66c-7.15,1.65-41.81,27.63-41.81,27.63s-72.28,39.54-119.35,57.61
			c-46.99,18.04-51.28,21.07-51.29,21.08c-2.2,8.45-3.68,15.07-3.68,15.07s16.55,46.69,15.99,74.56
			c-0.56,27.86-18.63,136.31-20.14,139.32c0,0,13.18-1.51,26.36-7.53c0,0,18.07-75.31,33.14-82.84
			c15.06-7.53,86.61-39.16,115.22-64.01c28.62-24.85,36.15-29.37,24.85-54.98C401.1,241.82,421.43,212.45,416.91,198.89z"/>
		<path class="st6" d="M221.67,300.52c0,0,92.13,24.03,116.23,2.64c24.1-21.39,42.28-57.4,39.91-89.17
			c-2.37-31.77-3.83-56.5-3.83-56.5L221.67,300.52z"/>
		<path class="st7" d="M303.35,324.5l-114.03-33.48c-8.43-2.48-13.26-11.32-10.79-19.76l70.81-241.19
			c2.48-8.43,11.32-13.26,19.76-10.79l114.03,33.48c8.43,2.48,13.26,11.32,10.79,19.76L323.1,313.71
			C320.63,322.14,311.78,326.97,303.35,324.5z"/>
		<path class="st8" d="M387.87,54.15l-4.62-1.36c8.37,2.46,13.16,11.23,10.7,19.6l-70.88,241.44c-2.46,8.37-11.23,13.16-19.6,10.7
			l4.62,1.36c8.37,2.46,17.14-2.33,19.6-10.7l70.88-241.44C401.03,65.39,396.24,56.61,387.87,54.15z"/>
		<path class="st9" d="M300.7,318.5L194.79,287.4c-7.77-2.28-12.22-10.43-9.94-18.2l68.66-233.87c2.28-7.77,10.43-12.22,18.2-9.94
			l105.91,31.09c7.77,2.28,12.22,10.43,9.94,18.2L318.9,308.56C316.61,316.33,308.47,320.78,300.7,318.5z"/>
		<path class="st10" d="M332.26,222.79l-113.03-33.19c-2.23-0.66-3.51-3-2.86-5.23l19.59-66.73c0.66-2.23,3-3.51,5.23-2.86
			l113.03,33.19c2.23,0.66,3.51,3,2.86,5.23l-19.59,66.73C336.83,222.17,334.49,223.45,332.26,222.79z"/>
		<path class="st11" d="M319.63,246.73l-102.72-30.16c-5.08-1.49-7.99-6.82-6.5-11.9l0,0c1.49-5.08,6.82-7.99,11.9-6.5l102.71,30.16
			c5.08,1.49,7.99,6.82,6.5,11.9v0C330.04,245.31,324.71,248.22,319.63,246.73z"/>
		<path class="st11" d="M351.21,139.16L248.49,109c-5.08-1.49-7.99-6.82-6.5-11.9l0,0c1.49-5.08,6.82-7.99,11.9-6.5l102.72,30.16
			c5.08,1.49,7.99,6.82,6.5,11.9l0,0C361.62,137.74,356.29,140.65,351.21,139.16z"/>
		<path class="st11" d="M360.25,108.35l-64.8-19.02c-5.08-1.49-7.99-6.82-6.5-11.9l0,0c1.49-5.08,6.82-7.99,11.9-6.5l64.8,19.02
			c5.08,1.49,7.99,6.82,6.5,11.9l0,0C370.66,106.93,365.33,109.84,360.25,108.35z"/>
		<path class="st11" d="M312.16,272.17l-102.72-30.16c-5.08-1.49-7.99-6.82-6.5-11.9l0,0c1.49-5.08,6.82-7.99,11.9-6.5l102.72,30.16
			c5.08,1.49,7.99,6.82,6.5,11.9l0,0C322.57,270.75,317.24,273.66,312.16,272.17z"/>
		<path class="st11" d="M281.49,75.23c-2.32,7.9-10.6,12.42-18.5,10.1c-7.9-2.32-12.42-10.6-10.1-18.5
			c2.32-7.9,10.6-12.42,18.5-10.1C279.29,59.05,283.81,67.33,281.49,75.23z"/>
		<path class="st5" d="M99.86,412.77c0,0,22.59-89.62,28.62-109.95c6.02-20.33,48.2-88.11,56.48-107.69
			c8.28-19.58,18.07-43.68,27.86-42.17c9.79,1.51,11.3,27.11,5.27,41.42c-6.02,14.31-12.43,42.93-12.43,42.93
			s16.55,46.69,15.99,74.56c-0.56,27.86-18.63,136.31-20.14,139.32c-1.51,3.01-36.9,3.01-57.24,0
			C123.96,448.17,90.91,448,99.86,412.77z"/>
		<path class="st9" d="M314.52,192.64l-85.24-25.03c-1.3-0.38-2.05-1.75-1.67-3.05l0.7-2.38c0.38-1.3,1.75-2.05,3.05-1.67
			l85.24,25.03c1.3,0.38,2.05,1.75,1.67,3.05l-0.7,2.38C317.19,192.28,315.82,193.02,314.52,192.64z"/>
		<path class="st9" d="M250.02,184.11l-24.9-7.31c-0.56-0.16-0.88-0.75-0.72-1.32l1.49-5.07c0.17-0.56,0.75-0.88,1.32-0.72
			l24.9,7.31c0.56,0.16,0.88,0.75,0.72,1.32l-1.49,5.07C251.17,183.95,250.58,184.27,250.02,184.11z"/>
		<path class="st9" d="M262.94,143.99l-24.9-7.31c-0.56-0.16-0.88-0.75-0.72-1.32l3.22-10.98c0.16-0.56,0.75-0.88,1.32-0.72
			l24.9,7.31c0.56,0.16,0.88,0.75,0.72,1.32l-3.22,10.98C264.09,143.83,263.5,144.16,262.94,143.99z"/>
		<path class="st9" d="M281.54,193.36l-24.9-7.31c-0.56-0.16-0.88-0.75-0.72-1.32l1.49-5.07c0.16-0.56,0.75-0.88,1.32-0.72
			l24.9,7.31c0.56,0.16,0.88,0.75,0.72,1.32l-1.49,5.07C282.69,193.2,282.1,193.53,281.54,193.36z"/>
		<path class="st5" d="M385.07,185c0,0-44.73-9.41-62.51-8.66c-17.77,0.75-18.45,6.78-15.06,12.43
			c3.39,5.65,30.12,15.44,51.59,17.32l-4.14,15.82c0,0-12.05,2.64-30.12,8.28c-18.07,5.65-30.12,9.79-24.85,21.84
			c5.27,12.05,51.96-1.51,51.96-1.51s6.02-1.13,9.41,2.64c3.39,3.77,8.28,15.44,8.28,15.44s18.45-6.4,15.44-28.24
			C385.07,240.35,405.4,203.07,385.07,185z"/>
		<path class="st6" d="M359.09,206.09c0,0,13.18,4.62,17.03,9.41c3.86,4.8,5.46,9.41,5.46,9.41s-11.85-6.78-26.64-3.01
			L359.09,206.09z"/>
		<polygon class="st6" points="431.6,120.57 375.5,181.21 375.63,183.12 377.57,183.5 		"/>
		<path class="st6" d="M256.3,365.13c0,0-36.08,26.41-79.57,29.79c0,0,35.64,16.68,51.15,48.72
			C227.88,443.65,243.24,383.91,256.3,365.13z"/>
	</g>
	<g>
		<path class="st1" d="M183.43,31.62c1.34,5.25-11.27,13.01-28.18,17.33c-16.9,4.32-31.69,3.56-33.04-1.69
			c-1.34-5.25,11.27-13.01,28.18-17.33C167.3,25.61,182.09,26.37,183.43,31.62z"/>
		<path class="st2" d="M155.25,48.94c-16.9,4.32-31.69,3.56-33.04-1.69l1.96,7.67c1.34,5.25,16.13,6.01,33.04,1.69
			c16.9-4.32,29.52-12.07,28.18-17.33l-1.96-7.67C184.77,36.87,172.15,44.62,155.25,48.94z"/>
		<path class="st12" d="M174.83,33.81c0.96,3.78-8.11,9.35-20.26,12.46c-12.15,3.1-22.79,2.56-23.75-1.21
			c-0.96-3.78,8.11-9.35,20.26-12.46C163.23,29.49,173.87,30.04,174.83,33.81z"/>
		<path class="st2" d="M151.52,34.35c11.2-2.86,21.09-2.62,23.33,0.39c0.05-0.32,0.05-0.63-0.02-0.93
			c-0.96-3.78-11.6-4.32-23.75-1.22c-12.15,3.1-21.23,8.68-20.26,12.46c0.08,0.3,0.23,0.57,0.42,0.82
			C131.77,42.16,140.33,37.21,151.52,34.35z"/>
	</g>
	<g>
		
			<ellipse transform="matrix(0.2293 -0.9734 0.9734 0.2293 283.1261 381.5382)" class="st1" cx="382.49" cy="11.99" rx="9.81" ry="31.59"/>
		<path class="st2" d="M380.24,21.54c-16.98-4-29.74-11.52-28.5-16.79l-1.81,7.7c-1.24,5.28,11.52,12.79,28.5,16.79
			c16.98,4,31.76,2.97,33-2.31l1.81-7.7C411.99,24.51,397.22,25.54,380.24,21.54z"/>
		<path class="st12" d="M404.6,17.2c-0.89,3.79-11.52,4.54-23.73,1.66c-12.21-2.88-21.39-8.28-20.49-12.08
			c0.89-3.79,11.52-4.54,23.73-1.66C396.32,8,405.49,13.4,404.6,17.2z"/>
		<path class="st2" d="M383.69,6.88c11.25,2.65,19.9,7.44,20.5,11.15c0.19-0.26,0.34-0.53,0.41-0.83c0.89-3.79-8.28-9.2-20.49-12.08
			c-12.21-2.88-22.83-2.13-23.73,1.66c-0.07,0.3-0.06,0.61-0.01,0.93C362.56,4.66,372.44,4.23,383.69,6.88z"/>
	</g>
	<g>
		<path class="st1" d="M413.19,375.45c-1.24,5.28-16.02,6.31-33,2.31c-16.98-4-29.74-11.52-28.5-16.79c1.24-5.27,16.02-6.31,33-2.31
			C401.68,362.65,414.44,370.17,413.19,375.45z"/>
		<path class="st2" d="M380.2,377.76c-16.98-4-29.74-11.52-28.5-16.79l-1.81,7.7c-1.24,5.28,11.52,12.79,28.5,16.79
			c16.98,4,31.76,2.97,33-2.31l1.81-7.7C411.95,380.72,397.18,381.76,380.2,377.76z"/>
		<path class="st12" d="M404.56,373.41c-0.89,3.79-11.52,4.54-23.73,1.66c-12.21-2.88-21.39-8.28-20.49-12.08
			c0.89-3.79,11.52-4.54,23.73-1.66C396.27,364.21,405.45,369.62,404.56,373.41z"/>
		<path class="st2" d="M383.65,363.09c11.25,2.65,19.9,7.44,20.5,11.15c0.19-0.26,0.34-0.53,0.41-0.83
			c0.89-3.79-8.28-9.2-20.49-12.08c-12.21-2.88-22.83-2.13-23.73,1.66c-0.07,0.3-0.06,0.61-0.01,0.93
			C362.52,360.87,372.4,360.45,383.65,363.09z"/>
	</g>
	<g>
		<g>
			<path class="st2" d="M282.58,395.24c-0.17-0.04-0.34-0.08-0.51-0.14c-2.37-0.8-3.65-3.37-2.86-5.74
				c0.46-1.36,11.44-33.28,33.95-29.25c0.24,0.04,0.47,0.09,0.7,0.14c21.98,4.66,19.24,39,19.11,40.48
				c-0.22,2.49-2.41,4.34-4.91,4.12c-2.46-0.19-4.34-2.41-4.13-4.91c0.02-0.28,1.99-28.21-12.37-30.9
				c-14.65-2.62-23.66,22.94-23.74,23.2C287.08,394.45,284.81,395.71,282.58,395.24z"/>
		</g>
		<path class="st1" d="M268.49,387.61L256,446.53l74.99,15.9l12.49-58.92L268.49,387.61z M303.25,442.56l-16.74-3.55l6.94-10.32
			c-3.63-2.45-5.62-6.92-4.66-11.47c1.27-5.98,7.14-9.8,13.12-8.53c5.98,1.27,9.8,7.14,8.53,13.12c-0.98,4.62-4.71,7.91-9.11,8.61
			L303.25,442.56z"/>
		<path class="st2" d="M343.48,403.51l-12.49,58.92l7.46,1.58l12.49-58.92L343.48,403.51z"/>
		<path class="st13" d="M303.25,442.56l-16.74-3.55l6.94-10.32c-3.63-2.45-5.62-6.92-4.66-11.47c1.27-5.98,7.14-9.8,13.12-8.53
			c5.98,1.27,9.8,7.14,8.53,13.12c-0.98,4.62-4.71,7.91-9.11,8.61L303.25,442.56z"/>
		<path class="st14" d="M292.11,417.93c1.15-5.41,6.07-9.04,11.43-8.74c-0.52-0.2-1.06-0.37-1.63-0.49
			c-5.98-1.27-11.85,2.55-13.12,8.53c-0.96,4.55,1.02,9.02,4.66,11.47l-6.94,10.32l3.32,0.7l6.94-10.32
			C293.14,426.95,291.15,422.47,292.11,417.93z"/>
	</g>
	<g>
		<path class="st1" d="M59.58,358.35c-9.76,4.6-13.93,16.24-9.33,26c4.6,9.76,16.24,13.93,26,9.33c9.76-4.6,13.93-16.24,9.33-26
			S69.34,353.75,59.58,358.35z M73.81,388.51c-6.9,3.25-15.13,0.3-18.38-6.6c-3.25-6.9-0.3-15.13,6.6-18.38
			c6.9-3.25,15.13-0.3,18.38,6.6C83.66,377.02,80.71,385.25,73.81,388.51z"/>
		
			<rect x="79.46" y="350.01" transform="matrix(0.9044 -0.4266 0.4266 0.9044 -139.6423 83.2858)" class="st1" width="73.2" height="6.59"/>
		
			<rect x="142.97" y="342.37" transform="matrix(0.9044 -0.4266 0.4266 0.9044 -135.3125 96.9726)" class="st1" width="11.62" height="16.24"/>
		
			<rect x="131.09" y="347.58" transform="matrix(0.9044 -0.4266 0.4266 0.9044 -137.1038 92.055)" class="st1" width="11.62" height="8.88"/>
	</g>
</g>
</svg>
