<?xml version="1.0" encoding="utf-8"?>
<!-- Generator: Adobe Illustrator 24.0.1, SVG Export Plug-In . SVG Version: 6.00 Build 0)  -->
<svg version="1.1" id="Layer_1" xmlns="http://www.w3.org/2000/svg" xmlns:xlink="http://www.w3.org/1999/xlink" x="0px" y="0px"
	 viewBox="0 0 300 300" style="enable-background:new 0 0 300 300;" xml:space="preserve">
<path d="M276.92,80.82V49.09c0.42-15.19-6.07-29.75-17.65-39.58c-10.96-8.58-25.27-11.6-38.77-8.19L26.89,45.28
	C11.05,48.91-0.14,63.07,0,79.32c0,0.26,0.06,0.5,0.08,0.75C0.06,80.32,0,80.56,0,80.82v161.54c0,31.86,25.83,57.69,57.69,57.69
	h184.61c31.86,0,57.69-25.83,57.69-57.69v-23.08v-69.23v-23.08C300,108.1,290.93,91.35,276.92,80.82z M225.58,23.82
	c6.65-1.8,13.76-0.44,19.27,3.69c6.13,5.44,9.45,13.39,9,21.58v21.35c-3.73-0.76-7.59-1.16-11.54-1.16H28.46
	c1.09-0.69,2.3-1.2,3.61-1.5L225.58,23.82z M242.31,276.97H57.69c-19.12,0-34.62-15.5-34.62-34.62v-150h219.23
	c19.12,0,34.62,15.5,34.62,34.62v11.54h-69.23c-25.49,0-46.15,20.66-46.15,46.15c0,25.49,20.66,46.15,46.15,46.15h69.23v11.54
	C276.92,261.48,261.43,276.97,242.31,276.97z M276.92,207.74h-69.23c-12.74,0-23.08-10.33-23.08-23.08
	c0-12.75,10.33-23.08,23.08-23.08h69.23V207.74z"/>
</svg>
