<svg id="Group_1486" data-name="Group 1486" xmlns="http://www.w3.org/2000/svg" xmlns:xlink="http://www.w3.org/1999/xlink" width="24.185" height="17.734" viewBox="0 0 24.185 17.734">
  <defs>
    <clipPath id="clip-path">
      <rect id="Rectangle_2540" data-name="Rectangle 2540" width="24.185" height="17.734" fill="#5bdb98"/>
    </clipPath>
  </defs>
  <g id="Group_1469" data-name="Group 1469" clip-path="url(#clip-path)">
    <path id="Path_6147" data-name="Path 6147" d="M20.522,0H3.582a.806.806,0,1,0,0,1.611H20.522a2.053,2.053,0,0,1,2.05,2.051v.076H3.582a.806.806,0,0,0,0,1.612h18.99v8.723a2.052,2.052,0,0,1-2.05,2.049H3.662a2.052,2.052,0,0,1-2.05-2.049V3.583A.806.806,0,1,0,0,3.583V14.074a3.665,3.665,0,0,0,3.662,3.66h16.86a3.665,3.665,0,0,0,3.662-3.66V3.662A3.665,3.665,0,0,0,20.522,0M9.962,13.5a.813.813,0,0,0,.452-.138l7.075-4.806a.806.806,0,1,0-.905-1.333l-6.491,4.407L7.749,9a.806.806,0,1,0-1.2,1.073l2.812,3.156a.8.8,0,0,0,.6.27" transform="translate(0)" fill="#5bdb98"/>
  </g>
</svg>
