<?xml version="1.0" encoding="utf-8"?>
<!-- Generator: Adobe Illustrator 24.0.1, SVG Export Plug-In . SVG Version: 6.00 Build 0)  -->
<svg version="1.1" id="Layer_1" xmlns="http://www.w3.org/2000/svg" xmlns:xlink="http://www.w3.org/1999/xlink" x="0px" y="0px"
	 viewBox="0 0 300 300" style="enable-background:new 0 0 300 300;" xml:space="preserve">
<style type="text/css">
	.st0{fill:#5BDB98;}
</style>
<path class="st0" d="M228.53,98.25c-1.32-2.38-3.82-3.81-6.56-3.83l-39.04,0.31l35.95-81.56c1.28-2.91,1.01-6.25-0.73-8.91
	C216.42,1.59,213.48,0,210.3,0h-76.13c-3.86,0-7.38,2.42-8.76,6.02L71.03,147.84c-0.88,2.28-0.57,4.85,0.81,6.87
	c1.39,2.02,3.67,3.22,6.12,3.22h54.53L91.16,285.28c-1.49,4.6,0.5,9.43,4.74,11.64l0.74,0.35c4.41,1.87,9.4,0.34,12-3.74
	L228.3,105.84C229.76,103.54,229.85,100.63,228.53,98.25z M154.14,151.26c0.89-2.75,0.41-5.79-1.29-8.12s-4.44-3.73-7.33-3.73H94.11
	l46.35-120.87h55.82l-36.37,82.51c-1.2,2.73-0.95,5.85,0.68,8.35c1.63,2.5,4.38,3.99,7.36,3.99l33.74-0.27l-71.64,112.37
	L154.14,151.26z"/>
</svg>
