<?xml version="1.0" encoding="utf-8"?>
<!-- Generator: Adobe Illustrator 24.0.1, SVG Export Plug-In . SVG Version: 6.00 Build 0)  -->
<svg version="1.1" id="Layer_1" xmlns="http://www.w3.org/2000/svg" xmlns:xlink="http://www.w3.org/1999/xlink" x="0px" y="0px"
	 viewBox="0 0 300 300" style="enable-background:new 0 0 300 300;" xml:space="preserve">
<style type="text/css">
	.st0{fill:#1B3149;}
	.st1{fill:url(#SVGID_1_);}
	.st2{fill:url(#SVGID_2_);}
</style>
<g>
	<circle class="st0" cx="150" cy="150" r="150"/>
	<g>
		
			<linearGradient id="SVGID_1_" gradientUnits="userSpaceOnUse" x1="149.7601" y1="72.8004" x2="149.7601" y2="206.629" gradientTransform="matrix(1 0 0 -1 0 302)">
			<stop  offset="0" style="stop-color:#C3FFE8"/>
			<stop  offset="0.9973" style="stop-color:#F0FFF4"/>
		</linearGradient>
		<path class="st1" d="M149.77,229.2c-1.19,0-2.36-0.22-3.47-0.65c-6.96-2.7-20.37-8.76-31.92-19.02
			c-14.71-13.05-22.18-28.66-22.18-46.38V119c0-3.41,1.83-6.59,4.78-8.3c4.37-2.53,8.02-6.18,10.55-10.55
			c1.71-2.95,4.89-4.78,8.3-4.78h67.85c3.41,0,6.59,1.83,8.3,4.78c2.53,4.37,6.18,8.02,10.55,10.55c2.95,1.71,4.78,4.89,4.78,8.3
			v44.16c0,17.76-7.44,33.37-22.1,46.4c-11.56,10.27-25,16.31-31.99,19C152.12,228.98,150.96,229.2,149.77,229.2L149.77,229.2z"/>
		<g>
			<g>
				
					<linearGradient id="SVGID_2_" gradientUnits="userSpaceOnUse" x1="149.76" y1="57.3064" x2="149.76" y2="221.0176" gradientTransform="matrix(1 0 0 -1 0 302)">
					<stop  offset="0" style="stop-color:#51BE8F"/>
					<stop  offset="1" style="stop-color:#60E99C"/>
				</linearGradient>
				<path class="st2" d="M216.91,100.17c-7.93,0-14.39-6.45-14.39-14.39c0-2.65-2.15-4.8-4.8-4.8H101.8c-2.65,0-4.8,2.15-4.8,4.8
					c0,7.93-6.45,14.39-14.39,14.39c-2.65,0-4.8,2.15-4.8,4.8v58.19c0,14.05,3.78,27.12,11.24,38.85
					c5.9,9.27,14.09,17.69,24.34,25.01c15.43,11.02,33.73,17.68,36.36,17.68c2.49,0,20.71-6.5,36.36-17.68
					c10.25-7.32,18.44-15.74,24.34-25.01c7.46-11.72,11.24-24.79,11.24-38.85v-58.19C221.7,102.31,219.56,100.17,216.91,100.17z
					 M202.52,163.16c0,16.33-6.9,30.73-20.49,42.81c-10.99,9.76-23.85,15.54-30.53,18.12c-1.11,0.43-2.35,0.43-3.46,0
					c-6.66-2.58-19.48-8.38-30.48-18.13C103.92,193.84,97,179.45,97,163.16V119c0-1.71,0.91-3.29,2.39-4.15
					c5.09-2.95,9.34-7.21,12.3-12.3c0.86-1.48,2.44-2.39,4.15-2.39h67.85c1.71,0,3.29,0.91,4.15,2.39c2.95,5.09,7.21,9.34,12.3,12.3
					c1.48,0.86,2.39,2.44,2.39,4.15V163.16z M149.76,124.79c-18.51,0-33.57,15.06-33.57,33.57s15.06,33.57,33.57,33.57
					s33.57-15.06,33.57-33.57S168.27,124.79,149.76,124.79z M163.7,154.56l-14.39,14.39c-1.87,1.87-4.91,1.87-6.78,0l-7.19-7.19
					c-1.87-1.87-1.87-4.91,0-6.78c1.87-1.87,4.91-1.87,6.78,0l3.8,3.8l11-11c1.87-1.87,4.91-1.87,6.78,0
					C165.58,149.65,165.58,152.69,163.7,154.56z"/>
			</g>
		</g>
	</g>
</g>
</svg>
