<svg xmlns="http://www.w3.org/2000/svg" width="13.732" height="11.163" viewBox="0 0 13.732 11.163">
  <path id="Path_991" data-name="Path 991" d="M12.9,7.7a.715.715,0,0,0-.174.022,18.636,18.636,0,0,1-3.09.58c-.044,0-.1,0-.167,0a8.159,8.159,0,0,1-2.01-.235.746.746,0,0,1-.288-.254H8.763A.865.865,0,0,0,9.6,7.264h3.189a.757.757,0,0,0,.757-.757V.757A.757.757,0,0,0,12.793,0H6.171a.757.757,0,0,0-.757.756V5.62a3.95,3.95,0,0,0-2.243.721c-.243.2-.418.338-.559.448-.091.071-.17.133-.244.193-.3.245-.557.457-2.047.457A.321.321,0,0,0,0,7.76v3.082a.321.321,0,0,0,.429.3c1.272-.455,1.5-.522,2.046-.682l.049-.014.133-.04a2.432,2.432,0,0,1,.827-.138,9.494,9.494,0,0,1,1.753.231,16.194,16.194,0,0,0,2.922.444h0a8.024,8.024,0,0,0,1.152-.106A14.66,14.66,0,0,0,12.95,9.624c.293-.154.783-.412.783-.962V8.641A.92.92,0,0,0,12.9,7.7M8.748.642h1.468V3.307H8.748Zm-2.577,0H8.107V3.628a.321.321,0,0,0,.321.321h2.109a.321.321,0,0,0,.321-.321V.642h1.936a.115.115,0,0,1,.115.115V6.508a.115.115,0,0,1-.115.115H9.615a.865.865,0,0,0-.8-.669c-.384-.025-.994-.1-1.585-.171-.431-.052-.843-.1-1.175-.135V.757A.115.115,0,0,1,6.171.642m6.92,8.02c0,.125-.1.217-.44.395A14.084,14.084,0,0,1,9.223,10.2a7.534,7.534,0,0,1-1.062.1,15.522,15.522,0,0,1-2.8-.431,10.06,10.06,0,0,0-1.879-.244,3.073,3.073,0,0,0-1.014.166l-.126.038L2.3,9.846c-.492.144-.731.214-1.653.541V8.077a2.89,2.89,0,0,0,2.134-.6c.068-.056.144-.115.232-.184.144-.112.323-.252.573-.459a3.389,3.389,0,0,1,1.971-.576c.073,0,.142,0,.206.007.346.027.856.088,1.4.154.6.073,1.219.148,1.621.174A.232.232,0,0,1,9,6.822c0,.022,0,.124,0,.2,0,.1-.143.15-.24.15H6.751a.321.321,0,0,0-.32.3,1.294,1.294,0,0,0,.73,1.159,8.084,8.084,0,0,0,2.308.308c.08,0,.149,0,.207-.005a19.18,19.18,0,0,0,3.206-.6l.017,0c.073,0,.193.145.193.3Z" transform="translate(-0.001 0)" fill="#1b3149"/>
</svg>
