<svg id="Group_503" data-name="Group 503" xmlns="http://www.w3.org/2000/svg" xmlns:xlink="http://www.w3.org/1999/xlink" width="13.655" height="11.284" viewBox="0 0 13.655 11.284">
  <defs>
    <clipPath id="clip-path">
      <rect id="Rectangle_702" data-name="Rectangle 702" width="13.655" height="11.284" fill="#1b3149"/>
    </clipPath>
  </defs>
  <g id="Group_372" data-name="Group 372" clip-path="url(#clip-path)">
    <path id="Path_804" data-name="Path 804" d="M5.121,1.069H.533A.533.533,0,0,1,.533,0H5.121a.533.533,0,0,1,0,1.067M4.054,2.136H.533a.533.533,0,0,0,0,1.067h3.52a.533.533,0,0,0,0-1.067M2.987,4.27H.533a.533.533,0,0,0,0,1.067H2.987a.533.533,0,1,0,0-1.067m9.7,5.947H11.429a1.6,1.6,0,0,1-3.017,0h-3.3a1.6,1.6,0,0,1-3.017,0H1.6A1.6,1.6,0,0,1,0,8.617V6.937a.533.533,0,0,1,1.067,0v1.68A.533.533,0,0,0,1.6,9.15h.492a1.6,1.6,0,0,1,3.017,0H8.321V1.6a.533.533,0,0,0-.533-.533H7.254A.533.533,0,1,1,7.254,0h.533a1.6,1.6,0,0,1,1.6,1.6V2.67h1.069a1.6,1.6,0,0,1,1.277.636l1.49,1.975a2.134,2.134,0,0,1,.43,1.285V9.249a.968.968,0,0,1-.968.968m-3.3-6.481v2h2.844l-1.35-1.788a.536.536,0,0,0-.426-.212ZM4.134,9.684a.533.533,0,1,0-.533.533.534.534,0,0,0,.533-.533m6.321,0a.533.533,0,1,0-.533.533.534.534,0,0,0,.533-.533m2.134-.817V6.8h-3.2V8.175a1.6,1.6,0,0,1,2.042.975H12.3a.284.284,0,0,0,.284-.284" transform="translate(0)" fill="#1b3149"/>
  </g>
</svg>
