<?xml version="1.0" encoding="utf-8"?>
<!-- Generator: Adobe Illustrator 24.0.1, SVG Export Plug-In . SVG Version: 6.00 Build 0)  -->
<svg version="1.1" id="Layer_1" xmlns="http://www.w3.org/2000/svg" xmlns:xlink="http://www.w3.org/1999/xlink" x="0px" y="0px"
	 viewBox="0 0 300 300" style="enable-background:new 0 0 300 300;" xml:space="preserve">
<style type="text/css">
	.st0{fill-rule:evenodd;clip-rule:evenodd;}
</style>
<path class="st0" d="M150,300C67.16,300,0,232.84,0,150S67.16,0,150,0s150,67.16,150,150S232.84,300,150,300z M233.09,257.14
	c-1.12-1.65-2.54-3.7-3.67-5.3c-1.98-2.81-3.96-5.63-5.73-8.41c-0.09-0.13-9.87-13.26-45.12-14.86c-12.26,0-21.18-9.2-21.2-21.9
	l-0.23-6.67c0-0.96-0.11,1.06,0,0v-7.14l7.14-7.14c5.22-2.42,11.86-6.49,17.11-10.46l0.96-0.66c4.15-2.64,9.95-8.19,10.5-10.31
	l0.26-2.72c2.66-13.74,6.89-38.72,6.89-47.28c0-33.64-16.36-50-50-50c-34.11,0-50,15.89-50,50c0,8.79,4.22,33.65,6.88,47.26
	l0.25,2.51c0.45,2.24,5.71,7.53,10.35,10.44l0.7,0.44c5.63,3.94,12.36,8.32,17.54,10.77l7.14,7.14V200c0.1,0.99,0-1.04,0,0
	l-0.24,6.67c0,12.68-8.9,21.89-20.59,21.89c-0.01,0-0.01,0-0.02,0c-35.4,1.44-45.66,14.84-45.68,14.84
	c-1.8,2.83-3.77,5.64-5.76,8.46c-1.12,1.6-2.54,3.64-3.66,5.29c22.98,17.84,51.75,28.57,83.09,28.57S210.11,274.99,233.09,257.14z
	 M150,14.29C75.05,14.29,14.29,75.05,14.29,150c0,38.47,16.07,73.12,41.79,97.81c2.73-4.04,5.64-8.06,8.21-12.1
	c0,0,11.93-19.59,57.14-21.43c4.61,0,6.91-3.01,6.91-7.61h0.01c-0.01-3.72-0.01-6.67-0.01-6.67c0-0.93-0.15-1.76-0.19-2.66
	c-5.17-2.44-11.17-5.81-18.14-10.67c0,0-17.14-10.54-17.14-22.38c0,0-7.14-36.54-7.14-50C85.72,81.11,99.91,50,150.01,50
	c49.43,0,64.29,31.11,64.29,64.29c0,13.13-7.14,50-7.14,50c0,11.51-17.14,22.38-17.14,22.38c-6.82,5.15-12.86,8.59-18.16,11.04
	c-0.04,0.78-0.16,1.49-0.16,2.29c0,0-0.01,2.95-0.01,6.67h0.01c-0.01,4.6,2.29,7.61,6.89,7.61c45.89,2.06,57.14,21.43,57.14,21.43
	c2.57,4.04,5.48,8.06,8.21,12.1c25.71-24.69,41.79-59.34,41.79-97.81C285.71,75.05,224.95,14.29,150,14.29z"/>
</svg>
