<svg id="Layer_2" data-name="Layer 2" xmlns="http://www.w3.org/2000/svg" width="115.625" height="115.625" viewBox="0 0 115.625 115.625">
  <g id="Group_3090" data-name="Group 3090">
    <g id="Group_3083" data-name="Group 3083" transform="translate(7.542 45.252)">
      <path id="Path_7474" data-name="Path 7474" d="M1042.007,2839.3H951.5a5.019,5.019,0,0,1-5.019-5.019v-60.335a5.019,5.019,0,0,1,5.019-5.019h90.5a5.019,5.019,0,0,1,5.019,5.019v60.335A5.019,5.019,0,0,1,1042.007,2839.3Zm-85.484-10.038h80.465v-50.3H956.523Z" transform="translate(-946.485 -2768.926)" fill="#56cd93"/>
    </g>
    <g id="Group_3084" data-name="Group 3084" transform="translate(0 22.626)">
      <path id="Path_7475" data-name="Path 7475" d="M1031.546,2724.952H925.959a5.019,5.019,0,0,1-5.019-5.019v-22.626a5.019,5.019,0,0,1,5.019-5.019h105.587a5.019,5.019,0,0,1,5.019,5.019v22.626A5.019,5.019,0,0,1,1031.546,2724.952Zm-100.568-10.038h95.549v-12.588H930.978Z" transform="translate(-920.94 -2692.288)" fill="#56cd93"/>
    </g>
    <g id="Group_3085" data-name="Group 3085" transform="translate(41.481 45.252)">
      <path id="Path_7476" data-name="Path 7476" d="M1089.086,2839.3H1066.46a5.019,5.019,0,0,1-5.019-5.019v-60.335a5.019,5.019,0,0,1,5.019-5.019h22.626a5.019,5.019,0,0,1,5.019,5.019v60.335A5.019,5.019,0,0,1,1089.086,2839.3Zm-17.607-10.038h12.588v-50.3h-12.588Z" transform="translate(-1061.441 -2768.926)" fill="#56cd93"/>
    </g>
    <g id="Group_3086" data-name="Group 3086" transform="translate(41.481 22.626)">
      <path id="Path_7477" data-name="Path 7477" d="M1089.086,2724.952H1066.46a5.019,5.019,0,0,1-5.019-5.019v-22.626a5.019,5.019,0,0,1,5.019-5.019h22.626a5.019,5.019,0,0,1,5.019,5.019v22.626A5.019,5.019,0,0,1,1089.086,2724.952Zm-17.607-10.038h12.588v-12.588h-12.588Z" transform="translate(-1061.441 -2692.288)" fill="#56cd93"/>
    </g>
    <g id="Group_3087" data-name="Group 3087" transform="translate(41.48 0)">
      <path id="Path_7478" data-name="Path 7478" d="M1077.773,2644.544a5.005,5.005,0,0,1-3.549-1.47l-11.313-11.313a5.019,5.019,0,0,1-.94-5.793l3.771-7.542a5.018,5.018,0,0,1,4.489-2.775h15.084a5.019,5.019,0,0,1,4.489,2.775l3.771,7.542a5.019,5.019,0,0,1-.94,5.793l-11.313,11.313A5,5,0,0,1,1077.773,2644.544Zm-5.206-17.323,5.206,5.206,5.206-5.206-.766-1.532h-8.88Z" transform="translate(-1061.441 -2615.651)" fill="#56cd93"/>
    </g>
    <g id="Group_3088" data-name="Group 3088" transform="translate(64.105 3.771)">
      <path id="Path_7479" data-name="Path 7479" d="M1165.72,2657.317a5.019,5.019,0,0,1-5.019-5.019v-9.234l-4.063-4.062-12.327,3.082a5.019,5.019,0,0,1-2.435-9.738l15.084-3.771a5.018,5.018,0,0,1,4.766,1.32l7.542,7.542a5.019,5.019,0,0,1,1.47,3.549V2652.3A5.019,5.019,0,0,1,1165.72,2657.317Z" transform="translate(-1138.074 -2628.424)" fill="#56cd93"/>
    </g>
    <g id="Group_3089" data-name="Group 3089" transform="translate(18.855 3.771)">
      <path id="Path_7480" data-name="Path 7480" d="M989.823,2657.317a5.019,5.019,0,0,1-5.019-5.019v-11.313a5.02,5.02,0,0,1,1.47-3.549l7.542-7.542a5.02,5.02,0,0,1,4.766-1.32l15.084,3.771a5.019,5.019,0,1,1-2.435,9.738L998.9,2639l-4.062,4.063v9.234A5.019,5.019,0,0,1,989.823,2657.317Z" transform="translate(-984.804 -2628.424)" fill="#56cd93"/>
    </g>
  </g>
</svg>
