<?xml version="1.0" encoding="utf-8"?>
<!-- Generator: Adobe Illustrator 24.0.1, SVG Export Plug-In . SVG Version: 6.00 Build 0)  -->
<svg version="1.1" id="Layer_1" xmlns="http://www.w3.org/2000/svg" xmlns:xlink="http://www.w3.org/1999/xlink" x="0px" y="0px"
	 viewBox="0 0 300 300" style="enable-background:new 0 0 300 300;" xml:space="preserve">
<style type="text/css">
	.st0{fill:#5BDB98;}
</style>
<g>
	<g>
		<path class="st0" d="M120.22,125.89c-28.76,0-52.07-23.31-52.07-52.07s23.31-52.07,52.07-52.07s52.07,23.31,52.07,52.07
			S148.98,125.89,120.22,125.89L120.22,125.89z M120.22,38.85c-19.31,0-34.97,15.66-34.97,34.97s15.66,34.97,34.97,34.97
			s34.97-15.66,34.97-34.97l0,0C155.19,54.51,139.53,38.85,120.22,38.85z"/>
		<path class="st0" d="M180.07,278.24H60.37c-25.71-0.05-46.55-20.88-46.6-46.6c0.05-49.76,40.35-90.1,90.11-90.2h32.66
			c49.76,0.09,90.07,40.44,90.11,90.2C226.62,257.36,205.78,278.2,180.07,278.24z M103.89,158.55
			c-40.34,0.05-73.01,32.76-73.01,73.1c0.05,16.27,13.23,29.45,29.5,29.5h119.7c16.27-0.05,29.45-13.23,29.5-29.5
			c0-40.34-32.68-73.05-73.01-73.1H103.89z"/>
	</g>
	<g>
		<path class="st0" d="M245.85,61.27v41.98h40.37v10.72h-40.37v42.34h-11.43v-42.34h-40.38v-10.72h40.38V61.27H245.85z"/>
	</g>
</g>
</svg>
