<?xml version="1.0" encoding="utf-8"?>
<!-- Generator: Adobe Illustrator 24.0.1, SVG Export Plug-In . SVG Version: 6.00 Build 0)  -->
<svg version="1.1" id="Layer_1" xmlns="http://www.w3.org/2000/svg" xmlns:xlink="http://www.w3.org/1999/xlink" x="0px" y="0px"
	 viewBox="0 0 300 300" style="enable-background:new 0 0 300 300;" xml:space="preserve">
<style type="text/css">
	.st0{fill:#5BDB98;}
</style>
<path class="st0" d="M147.01,159.31c0.99,0.04,1.98,0.06,2.99,0.06c0.93,0,1.85-0.02,2.78-0.05c20.98,0.45,41.62,6.01,59.86,16.15
	c5.66,3.15,12.79,1.11,15.94-4.54c3.15-5.66,1.11-12.79-4.54-15.94c-8.4-4.67-17.22-8.52-26.33-11.52
	c19.4-14.55,31.98-37.73,31.98-63.79C229.69,35.75,193.94,0,150,0c-43.94,0-79.69,35.75-79.69,79.69
	c0,26.08,12.59,49.27,32.02,63.82c-17.8,5.86-34.49,14.97-49.11,26.99c-26.8,22.04-45.43,52.78-52.46,86.57
	c-2.2,10.59,0.44,21.46,7.24,29.83C14.78,295.22,24.82,300,35.56,300h91.59c6.47,0,11.72-5.25,11.72-11.72s-5.25-11.72-11.72-11.72
	H35.56c-5,0-8.02-2.79-9.37-4.46c-2.34-2.87-3.24-6.61-2.48-10.27C35.88,203.39,87.46,160.7,147.01,159.31z M93.75,79.69
	c0-31.02,25.23-56.25,56.25-56.25c31.02,0,56.25,25.23,56.25,56.25c0,30.08-23.74,54.72-53.46,56.18c-0.93-0.02-1.86-0.03-2.79-0.03
	c-0.92,0-1.83,0.01-2.74,0.03C117.51,134.44,93.75,109.79,93.75,79.69z M300,217.87c0.01,7.83-3.05,15.18-8.61,20.72l-21.8,21.68
	c-2.29,2.28-5.28,3.41-8.26,3.41c-3.01,0-6.02-1.15-8.31-3.46c-4.56-4.59-4.54-12.01,0.05-16.57l14.61-14.53h-66.41
	c-13.08,0-23.72,10.64-23.72,23.72s10.51,23.72,23.44,23.72c6.47,0,11.72,5.25,11.72,11.72S207.45,300,200.98,300
	c-12.6,0-24.41-4.92-33.25-13.86c-8.79-8.89-13.62-20.71-13.62-33.3c0-26.01,21.16-47.16,47.16-47.16h65.33l-13.51-13.36
	c-4.6-4.55-4.64-11.97-0.09-16.57c4.55-4.6,11.97-4.64,16.57-0.09l21.76,21.52C296.91,202.69,299.99,210.04,300,217.87z"/>
</svg>
