<?xml version="1.0" encoding="utf-8"?>
<!-- Generator: Adobe Illustrator 24.0.1, SVG Export Plug-In . SVG Version: 6.00 Build 0)  -->
<svg version="1.1" id="Layer_1" xmlns="http://www.w3.org/2000/svg" xmlns:xlink="http://www.w3.org/1999/xlink" x="0px" y="0px"
	 viewBox="0 0 300 300" style="enable-background:new 0 0 300 300;" xml:space="preserve">
<style type="text/css">
	.st0{fill:#56CD93;}
</style>
<path class="st0" d="M286.98,58.7h-35.9V42.37c0-3.45-1.37-6.77-3.81-9.21L227.7,13.6c-3.23-3.23-7.93-4.54-12.37-3.42l-29,7.25
	L181.21,7.2C179.01,2.79,174.5,0,169.57,0h-39.14c-4.93,0-9.44,2.79-11.65,7.2l-5.11,10.23l-29-7.25
	c-4.44-1.11-9.13,0.19-12.37,3.42L52.73,33.17c-2.44,2.44-3.81,5.75-3.81,9.21V58.7h-35.9C5.83,58.7,0,64.54,0,71.73v58.71
	c0,7.19,5.83,13.02,13.02,13.02h6.55v143.52c0,7.19,5.83,13.02,13.02,13.02h88.06h58.7h88.06c7.19,0,13.02-5.83,13.02-13.02V143.45
	h6.55c7.19,0,13.02-5.83,13.02-13.02V71.73C300,64.54,294.17,58.7,286.98,58.7z M273.96,117.41h-6.55h-75.03V84.75h81.58V117.41z
	 M133.67,84.75h32.66v32.66h-32.66V84.75z M225.03,47.77V58.7h-45.68h-7.7l14.36-14.36l28.48-7.12L225.03,47.77z M138.48,26.04
	h23.04l1.99,3.98L150,43.53l-13.51-13.51L138.48,26.04z M74.96,47.77l10.54-10.54l28.49,7.12l14.36,14.36h-7.7H74.96V47.77z
	 M26.04,84.75h81.58v32.66H32.59h-6.55V84.75z M45.61,143.45h62.01v130.5H45.61V143.45z M133.67,273.96v-130.5h32.66v130.5H133.67z
	 M254.39,273.96h-62.01v-130.5h62.01V273.96z"/>
</svg>
