<?xml version="1.0" encoding="utf-8"?>
<!-- Generator: Adobe Illustrator 24.0.1, SVG Export Plug-In . SVG Version: 6.00 Build 0)  -->
<svg version="1.1" id="Layer_1" xmlns="http://www.w3.org/2000/svg" xmlns:xlink="http://www.w3.org/1999/xlink" x="0px" y="0px"
	 viewBox="0 0 500 500" style="enable-background:new 0 0 500 500;" xml:space="preserve">
<style type="text/css">
	.st0{opacity:0.12;fill:url(#SVGID_1_);}
	.st1{fill:#60E99C;}
	.st2{fill:#082947;}
	.st3{fill:#1B3149;}
	.st4{fill:#F0FBFF;}
	.st5{fill:url(#SVGID_2_);}
	.st6{fill:#1B4360;}
	.st7{fill:#FCFCFC;}
	.st8{fill:#FFB44A;}
	.st9{clip-path:url(#SVGID_4_);}
	.st10{fill:#0F1B29;}
	.st11{fill:#F4BE9A;}
	.st12{fill:url(#SVGID_5_);}
	.st13{fill:url(#SVGID_6_);}
	.st14{fill:#56CD93;}
	.st15{fill:url(#SVGID_7_);}
	.st16{fill:url(#SVGID_8_);}
	.st17{fill:#014F6D;}
	.st18{fill:#7C7C7C;}
	.st19{fill:#F23C06;}
	.st20{fill:#DD2A00;}
	.st21{opacity:0.5;fill:url(#SVGID_9_);}
	.st22{fill:#F2A040;}
	.st23{fill:#62CAEF;}
	.st24{opacity:0.75;fill:url(#SVGID_10_);}
	.st25{fill:url(#SVGID_11_);}
	.st26{fill:url(#SVGID_12_);}
	.st27{fill:url(#SVGID_13_);}
	.st28{opacity:0.5;fill:#56CD93;}
</style>
<g>
	
		<linearGradient id="SVGID_1_" gradientUnits="userSpaceOnUse" x1="-1289.9269" y1="-1558.5264" x2="-779.3135" y2="-1558.5264" gradientTransform="matrix(0.7935 0.6085 -0.6085 0.7935 106.9818 2110.2095)">
		<stop  offset="0" style="stop-color:#5BDB98"/>
		<stop  offset="1" style="stop-color:#60E99C"/>
	</linearGradient>
	<path class="st0" d="M6.66,242.54C-19.07,144.36,26.43-2.66,201.28,72.13c86.16,36.86,28.31,91.24,50.96,95.18
		c26.07,4.54,38.52-60.1,78.61-70.19c62.09-15.63,182.72,101.52,167.9,197.9c-16.63,108.1-203.76,190.92-340.24,135.73
		C44.82,384.77,11.56,261.24,6.66,242.54z"/>
	<g>
		<g>
			<g>
				<path class="st1" d="M331.67,235.11c-0.24-0.35,11.23,7.75,17.39,19.14c6.55,10.9,7.78,25.08-4,25.55
					c-11.71,0.95-11.9-8.61-12.55-20.13C332.4,248.41,331.82,235.19,331.67,235.11z"/>
				<g>
					<path class="st1" d="M329.77,226.84c0.31-0.09,11.31,14.23,21.11,20.43c10.79,6.94,15.63-5.1,5.09-12.4
						C344.78,227.89,336.71,231.45,329.77,226.84z"/>
					<g>
						<path class="st2" d="M320.81,222.01C320.81,222.01,320.81,222.01,320.81,222.01c-0.17,0.19-0.15,0.47,0.03,0.63
							c0.18,0.16,0.47,0.14,0.63-0.04v0c0,0,0,0,0,0c0.45-0.51,0.85-0.74,1.3-0.75c0.92-0.02,2.26,0.92,4.11,2.85
							c8.35,8.61,21.19,14.43,25.4,16.33c0.58,0.26,1.09,0.49,1.22,0.57c0.14,0.12,0.34,0.15,0.51,0.05
							c0.21-0.12,0.29-0.39,0.17-0.61c-0.1-0.18-0.16-0.2-1.54-0.83c-4.18-1.89-16.9-7.65-25.13-16.14
							c-2.08-2.18-3.55-3.15-4.76-3.12C321.83,220.98,321.2,221.56,320.81,222.01z"/>
					</g>
				</g>
				<path class="st1" d="M307.5,206.69c0.42-0.29,19.14,13.08,33.04,17.74c15.46,5.31,17.22-11.94,1.6-17.54
					C325.9,202.1,317.63,209.67,307.5,206.69z"/>
				<g>
					<path class="st1" d="M313.73,221.14c-0.09,0.01,5.07,3.84,9.38,10.14c4.39,6.18,7.93,14.82,6.32,21.62
						c-1.69,7.26-7.83,9.19-12.77,8.83c-5.05-0.53-8.92-3.35-8.51-9.28C308.67,239.62,318.27,230.6,313.73,221.14z"/>
					<g>
						<path class="st2" d="M308.56,212.07c0,0-0.01,0.01-0.01,0.01c-1.24,1.52-1.21,2.78,2.24,6.2c5.23,5.12,7.61,14.37,8.1,21.32
							c0.53,6.09-0.32,11-0.6,12.61c-0.11,0.66-0.13,0.74,0.02,0.91c0.08,0.1,0.21,0.16,0.34,0.16c0.25,0,0.44-0.2,0.44-0.45
							c0-0.01,0-0.02,0-0.03c0.01-0.08,0.04-0.25,0.07-0.44c0.28-1.64,1.15-6.64,0.61-12.83c-0.5-7.11-2.95-16.59-8.36-21.88
							c-3.46-3.43-2.89-4.12-2.18-5c0.16-0.19,0.13-0.47-0.06-0.63C308.99,211.87,308.72,211.89,308.56,212.07z"/>
					</g>
				</g>
				<path class="st2" d="M301.63,203.21l-0.94,0.55c0.51,0.22,1.07,0.5,1.7,0.84c12.91,6.85,29.47,10.91,35.7,12.44
					c1.18,0.29,2.21,0.54,2.42,0.63c0.16,0.11,0.38,0.1,0.53-0.03c0.19-0.16,0.21-0.44,0.05-0.63c-0.14-0.17-0.16-0.18-2.79-0.83
					c-6.2-1.52-22.68-5.57-35.49-12.36C302.4,203.58,302,203.38,301.63,203.21z"/>
				<path class="st2" d="M297.39,205.7c24.85,12.78,43.85,37.04,44.89,58.79c0.01,0.25,0.22,0.43,0.47,0.42
					c0.25-0.01,0.43-0.22,0.42-0.47c-1.05-21.9-20.02-46.29-44.88-59.28L297.39,205.7z"/>
			</g>
			<g>
				<path class="st1" d="M346.7,111.58c0.02,0.42,4.3-12.95,2.35-25.75c-1.34-12.64-8.9-24.71-18.59-17.98
					c-9.92,6.3-4.31,14.04,2.11,23.63C339.26,100.53,346.76,111.43,346.7,111.58z"/>
				<g>
					<path class="st1" d="M350.16,119.33c0.3-0.12,0.45-18.17,4.54-29.02c4.43-12.04,15.55-5.34,11.53,6.83
						C361.5,109.45,352.92,111.47,350.16,119.33z"/>
					<g>
						<path class="st2" d="M345.92,128.58C345.92,128.58,345.91,128.58,345.92,128.58c-0.25-0.05-0.4-0.28-0.35-0.53
							c0.05-0.24,0.28-0.4,0.52-0.35h0l0,0c0.67,0.13,1.13,0.08,1.49-0.18c0.74-0.54,1.25-2.09,1.56-4.75
							c1.47-11.9,8.22-24.28,10.43-28.34c0.31-0.56,0.57-1.05,0.63-1.19c0.04-0.18,0.18-0.33,0.38-0.35
							c0.24-0.03,0.47,0.14,0.5,0.38c0.03,0.2,0,0.25-0.73,1.59c-2.2,4.03-8.88,16.29-10.33,28.02c-0.35,3-0.94,4.65-1.92,5.36
							C347.35,128.79,346.5,128.7,345.92,128.58z"/>
					</g>
				</g>
				<path class="st1" d="M303.42,199.59c0.3,0.03,11.44-11.43,22.13-15.33c11.77-4.56,14.69,8.03,3.02,13.17
					C316.31,202,313.17,195.07,303.42,199.59z"/>
				<g>
					<path class="st1" d="M344.52,148.83c0.51-0.02,7.39-21.97,15.68-34.06c9.14-13.55,20.94-0.85,11.84,13.04
						C361.97,141.4,350.81,140.35,344.52,148.83z"/>
					<g>
						<path class="st2" d="M337.77,158.29c-0.46-0.09-0.89-0.28-1.26-0.47c-0.22-0.11-0.31-0.38-0.2-0.6
							c0.11-0.22,0.38-0.31,0.6-0.2c0.86,0.43,1.45,0.53,1.99,0.34c0.89-0.32,1.78-1.52,2.81-3.8c6.18-13.25,16.94-26.46,21-31.44
							c0.77-0.94,1.43-1.76,1.55-1.96c0.07-0.18,0.25-0.31,0.45-0.29c0.24,0.01,0.43,0.23,0.42,0.47c-0.01,0.22-0.02,0.24-1.73,2.34
							c-4.03,4.95-14.75,18.11-20.88,31.25c-1.14,2.54-2.16,3.86-3.32,4.27C338.71,158.39,338.22,158.39,337.77,158.29z"/>
					</g>
				</g>
				<g>
					<path class="st1" d="M325.32,179.26c0.53,0.01,12.85-18.78,26.02-28.54c7.18-5.22,12.44-2.64,13.84,3.44
						c1.46,5.91-0.93,15.32-7.58,19.83C343.56,183.3,333.81,172.98,325.32,179.26z"/>
					<g>
						<path class="st2" d="M316.9,186.73c-0.4-0.08-0.77-0.29-1.12-0.62c-0.18-0.17-0.18-0.45-0.01-0.63
							c0.17-0.18,0.45-0.18,0.63-0.01c0.31,0.3,0.6,0.42,0.94,0.41c0.89-0.03,2.21-1.03,3.91-2.96c6.15-6.98,14.49-12.1,21.82-16.35
							c4.11-2.33,7.46-4.13,9.09-4.99c4-2.12,4.01-2.11,4.29-1.94c0.14,0.09,0.22,0.25,0.21,0.41c-0.01,0.2-0.17,0.37-0.36,0.4
							c-0.62,0.25-6.16,3.14-12.78,6.89c-7.26,4.21-15.53,9.28-21.59,16.16c-1.92,2.18-3.37,3.21-4.55,3.26
							C317.22,186.77,317.06,186.76,316.9,186.73z"/>
					</g>
				</g>
				<g>
					<path class="st1" d="M341.04,133.51c-0.08,0.05,1.73-6.12,1.38-13.75c-0.22-7.57-2.59-16.6-7.98-21.06
						c-5.73-4.78-11.79-2.63-15.51,0.65c-3.72,3.46-5.1,8.05-1.2,12.53C325.87,121.81,338.96,123.23,341.04,133.51z"/>
					<g>
						<path class="st2" d="M342.37,143.86c-0.01,0-0.01,0-0.02,0c-1.91-0.47-2.64-1.49-1.94-6.3c1.09-7.23-2.58-16.05-6.38-21.89
							c-3.25-5.18-6.89-8.58-8.08-9.7c-0.49-0.45-0.55-0.51-0.54-0.74c0.01-0.13,0.07-0.26,0.18-0.33c0.2-0.15,0.47-0.11,0.62,0.09
							c0.01,0.01,0.01,0.02,0.02,0.03c0.06,0.06,0.19,0.18,0.32,0.31c1.22,1.14,4.92,4.61,8.22,9.88c3.89,5.97,7.64,15.02,6.51,22.5
							c-0.7,4.82,0.18,5.04,1.28,5.31c0.24,0.06,0.38,0.3,0.33,0.54C342.84,143.77,342.61,143.91,342.37,143.86z"/>
					</g>
				</g>
				<g>
					<path class="st1" d="M327.66,166.41c-0.12,0.05,4.16-6.25,6.27-14.95c2.26-8.58,2.34-19.57-2.62-26.28
						c-5.25-7.19-12.7-6.88-17.83-4.68c-5.19,2.44-8.04,6.76-5.58,13.14C313.04,148.9,326.26,154.7,327.66,166.41z"/>
					<g>
						<path class="st2" d="M324.8,176.23c-0.06-0.01-0.13-0.04-0.18-0.08l-0.03-0.03c-1.36-1.03-1.97-1.95,0.96-6.08
							c3.7-5.1,3.22-15.48,1.2-22.96c-1.63-6.67-4.51-11.74-5.45-13.41c-0.36-0.64-0.41-0.72-0.3-0.95
							c0.06-0.13,0.19-0.23,0.33-0.25c0.23-0.04,0.45,0.11,0.5,0.33c0.04,0.08,0.14,0.25,0.24,0.43c0.96,1.69,3.89,6.85,5.54,13.63
							c2.07,7.68,2.53,18.37-1.33,23.7c-2.64,3.72-2.05,4.17-1.15,4.85l0.03,0.03c0.2,0.15,0.23,0.43,0.08,0.62
							C325.14,176.2,324.96,176.26,324.8,176.23z"/>
					</g>
				</g>
				<g>
					<path class="st1" d="M306.76,190.82c-0.12,0.06,5.42-5.73,8.86-13.96c3.61-8.12,5.12-18.66,0.93-25.58
						c-4.47-7.35-11.75-7.87-16.99-6.27c-5.33,1.84-8.62,5.82-7.37,12.85C294.39,174.48,306.54,179.43,306.76,190.82z"/>
					<g>
						<path class="st2" d="M299.71,199.34c-0.11-0.02-0.21-0.08-0.28-0.18c-0.31-0.44-0.42-0.91-0.32-1.39
							c0.23-1.06,1.5-2.21,4.11-3.72c5.47-3.13,6.68-13.38,5.48-21.58c-0.85-7.15-3.46-13-4.32-14.93
							c-0.32-0.71-0.35-0.79-0.22-1.01c0.08-0.12,0.21-0.21,0.35-0.21c0.23-0.02,0.43,0.15,0.47,0.38c0.03,0.08,0.12,0.28,0.21,0.48
							c0.87,1.96,3.53,7.91,4.39,15.18c1.23,8.48-0.09,19.13-5.92,22.47c-2.28,1.32-3.52,2.38-3.68,3.14
							c-0.05,0.23,0,0.44,0.18,0.69c0.14,0.2,0.09,0.48-0.11,0.62C299.95,199.34,299.82,199.36,299.71,199.34z"/>
					</g>
				</g>
				<path class="st2" d="M338.2,81.24c-0.14-0.2-0.42-0.25-0.62-0.12c-0.2,0.14-0.25,0.41-0.12,0.62
					c13.82,20.26,11.38,56.82-5.58,83.23c-7.67,13.11-19.09,24.75-33.92,34.61l1.23,0.25c14.59-9.82,25.85-21.39,33.45-34.39
					C349.76,138.77,352.21,101.78,338.2,81.24z"/>
				<path class="st2" d="M327.58,190.28L327.58,190.28c-0.1-0.02-11.29,0.22-26.04,10.03l1.23,0.25c13.86-8.99,24.36-9.4,24.65-9.4
					c0.23,0.03,0.44-0.12,0.49-0.34C327.97,190.57,327.82,190.33,327.58,190.28z"/>
			</g>
			<g>
				<path class="st3" d="M287.01,119.82c-29.18,7.13-58.36,14.26-87.55,21.39c-8.47,2.12-15.39,12.11-15.39,22.2
					c0,74.46,0,148.91,0,223.35c0,10.08,6.92,20.08,15.39,22.2c29.18,7.13,58.36,14.26,87.55,21.39
					c8.47,2.12,15.39-6.34,15.39-18.77c0-91,0-181.99,0-272.99C302.4,126.15,295.48,117.69,287.01,119.82z"/>
				<path class="st4" d="M291.36,400.53c0,6.79-3.8,11.46-8.49,10.41c-29.18-6.48-58.36-12.95-87.54-19.43
					c-4.68-1.06-8.49-6.52-8.49-12.18c0-71.67,0-141.68,0-213.36c0-5.66,3.81-11.1,8.49-12.12c3.34-0.72,6.68-1.44,10.03-2.16
					c0.26,5.47,3.9,9.17,8.38,8.3c16.91-3.33,33.82-6.67,50.72-10c4.48-0.87,8.11-6.52,8.38-12.81c3.34-0.72,6.69-1.43,10.03-2.15
					c4.69-1.02,8.5,3.67,8.49,10.47C291.36,231.07,291.36,314.97,291.36,400.53z"/>
				<linearGradient id="SVGID_2_" gradientUnits="userSpaceOnUse" x1="239.0976" y1="26.4267" x2="239.0976" y2="363.5953">
					<stop  offset="0" style="stop-color:#FFFFFF"/>
					<stop  offset="0.3448" style="stop-color:#9D9D9D"/>
					<stop  offset="0.6659" style="stop-color:#494949"/>
					<stop  offset="0.8906" style="stop-color:#141414"/>
					<stop  offset="1" style="stop-color:#000000"/>
				</linearGradient>
				<path class="st5" d="M291.36,400.53c0,6.79-3.8,11.46-8.49,10.41c-29.18-6.48-58.36-12.95-87.54-19.43
					c-4.68-1.06-8.49-6.52-8.49-12.18c0-71.67,0-141.68,0-213.36c0-5.66,3.81-11.1,8.49-12.12c3.34-0.72,6.68-1.44,10.03-2.16
					c0.26,5.47,3.9,9.17,8.38,8.3c16.91-3.33,33.82-6.67,50.72-10c4.48-0.87,8.11-6.52,8.38-12.81c3.34-0.72,6.69-1.43,10.03-2.15
					c4.69-1.02,8.5,3.67,8.49,10.47C291.36,231.07,291.36,314.97,291.36,400.53z"/>
				<g>
					<g>
						<path class="st4" d="M213.25,156.05c-1.16,0-2.21-0.81-2.45-2c-0.28-1.36,0.59-2.69,1.94-2.97l32.05-6.67
							c1.37-0.29,2.68,0.59,2.97,1.94c0.28,1.36-0.59,2.69-1.95,2.97L213.77,156C213.59,156.04,213.42,156.05,213.25,156.05z"/>
					</g>
					<g>
						<path class="st4" d="M251.95,147.9c-1.16,0-2.21-0.81-2.46-2c-0.28-1.35,0.59-2.68,1.95-2.96l11.2-2.34
							c1.37-0.29,2.69,0.59,2.97,1.95c0.28,1.35-0.59,2.68-1.95,2.96l-11.2,2.34C252.29,147.88,252.12,147.9,251.95,147.9z"/>
					</g>
				</g>
				<path class="st6" d="M287.9,119.64c5.99,1.1,10.4,8.66,10.4,18.96c0,91,0,181.99,0,272.99c0,10.29-4.42,17.85-10.41,18.95
					c8.06,1.34,14.51-6.96,14.51-18.95c0-91,0-181.99,0-272.99C302.4,126.59,295.96,118.3,287.9,119.64z"/>
				<path class="st7" d="M283.53,134.93c3.68,0.42,6.44,4.71,6.44,10.58c0,85.56,0,169.47,0,255.02c0,5.84-2.74,10.1-6.4,10.52
					c4.36,0.47,7.8-4.07,7.8-10.52c0-85.56,0-169.46,0-255.02C291.36,139.03,287.91,134.46,283.53,134.93z"/>
				<path class="st8" d="M188.23,379.33c0-71.67,0-141.68,0-213.36c0-5.66,3.71-11.1,8.26-12.12c2.96-0.65,5.92-1.31,8.88-1.96
					c0-0.07-0.01-0.13-0.01-0.2c-3.35,0.72-6.69,1.44-10.03,2.16c-4.68,1.02-8.49,6.46-8.49,12.12c0,71.67,0,141.69,0,213.36
					c0,5.67,3.81,11.13,8.49,12.18c14.59,3.24,29.18,6.48,43.76,9.71c-14.2-3.24-28.4-6.48-42.59-9.71
					C191.94,390.46,188.23,385,188.23,379.33z"/>
			</g>
		</g>
		<g>
			<defs>
				<path id="SVGID_3_" d="M282.87,135.03c-3.34,0.72-1.92,0.41-1.92,0.41L64.62,181.94c0,56.83,0,113.02,0,170.27
					c0,5.67,3.81,11.13,8.49,12.18c28.25,6.27,56.49,12.53,84.74,18.8c0.01,0,0.01,0,0.02,0.01c29.18,6.47,58.36,12.95,87.54,19.43
					c0.06,0.01,0.12,0.02,0.18,0.03c12.43,2.76,24.85,5.51,37.28,8.27c4.69,1.06,8.49-3.62,8.49-10.41c0-85.56,0-169.46,0-255.02
					C291.36,138.71,287.55,134.01,282.87,135.03z"/>
			</defs>
			<clipPath id="SVGID_4_">
				<use xlink:href="#SVGID_3_"  style="overflow:visible;"/>
			</clipPath>
			<g class="st9">
				<g>
					<g>
						<g>
							<path class="st10" d="M251.25,424.9c1.44-5.53,4.74-17.45,5.02-18.76c0.31-1.45,0.72-3.78,4.88-1.73
								c4.16,2.06,5.5,2.63,5.5,2.63s-9.8,17.75-11.1,19.53C254.25,428.35,250.22,428.84,251.25,424.9z"/>
							<g>
								<path class="st11" d="M256.41,410.7c0,0,1.56-0.67,1.96-2.08c0.61-2.13-0.47-2.87-0.47-2.87s-11.31-4.81-18.01-10.06
									c-1.51-1.19-5.03-3.6-9.24-6.55l-3.74,12.05C242.44,406.19,256.41,410.7,256.41,410.7z"/>
								<linearGradient id="SVGID_5_" gradientUnits="userSpaceOnUse" x1="191.8478" y1="334.6595" x2="193.66" y2="399.9056">
									<stop  offset="0" style="stop-color:#0F1E2D"/>
									<stop  offset="1" style="stop-color:#082947"/>
								</linearGradient>
								<path class="st12" d="M157.63,360.56c-5.33,10.57-2.74,18.09,3.24,20.18c13.65,4.77,14.05,3.85,30.73,9.14
									c7.63,2.42,22.4,7.51,35.53,11.73l4.36-12.21c-15.33-10.39-44.38-28.86-51.24-33.06
									C171.39,350.91,162.96,349.99,157.63,360.56z"/>
							</g>
						</g>
						<g>
							<g>
								<path class="st11" d="M161.38,264.27c0,0-13.23,5.59-17.44,6.53c-3.02,0.68-4.54-3.61-4.03-6.2
									c0.77-3.89,6.53-9.63,13.97-13.39C159.58,248.33,162.08,263.23,161.38,264.27z"/>
								<path class="st1" d="M195.05,258.86c-9.6,7.08-34.77,18.01-34.77,18.01s-3.6-1.64-7.64-8.24c-6.06-9.92-5.3-14.9-5.3-14.9
									s21.19-16.79,36.49-26.67c12.11-7.82,17.05-0.82,17.68,9.8C202.06,246.06,200.41,254.91,195.05,258.86z"/>
							</g>
						</g>
						<linearGradient id="SVGID_6_" gradientUnits="userSpaceOnUse" x1="192.4953" y1="334.642" x2="194.3076" y2="399.888">
							<stop  offset="0" style="stop-color:#0F1E2D"/>
							<stop  offset="1" style="stop-color:#082947"/>
						</linearGradient>
						<path class="st13" d="M196.95,305.66c0,0-36.67,46.12-43.64,55.65c-1.24,1.7-1.73,5.32-1.41,8.7
							c0.87,8.98,12.97,15.75,24.9,9.34c14.52-7.79,34.4-18.91,44.31-30.84c9.91-11.94,14.56-23.44,11.75-37.64
							C230.05,296.66,206.81,293.22,196.95,305.66z"/>
						<g>
							<g>
								<path class="st10" d="M303.16,463.48c0.89-1.17,2.25-3.13,5.13,0.48c2.88,3.61,3.85,4.73,3.85,4.73s-4.83,3.52-9.57,6.79
									h-9.46C296.58,471.13,302.59,464.23,303.16,463.48z"/>
								<path class="st10" d="M290.8,470.97c2.74-0.83,5.89-1.6,7.86-2.14l3.54,6.65c0,0-7.28,0-10.33,0
									C289.79,475.48,286.91,472.15,290.8,470.97z"/>
							</g>
							<g>
								<path class="st11" d="M301.27,467.14c0,0,1.65,0.39,2.81-0.52c1.75-1.35,1.32-2.59,1.32-2.59s-6.26-10.57-8.55-18.77
									c-0.52-1.85-1.92-5.88-3.57-10.75L283.14,442C292.69,455.23,301.27,467.14,301.27,467.14z"/>
								<path class="st2" d="M251.38,368.23c-10.55,5.36-12.92,12.95-9.34,18.18c8.17,11.93,9.04,11.42,19.34,25.56
									c4.72,6.47,13.6,19.31,21.68,30.5l10.74-7.25c-6.2-17.46-18.67-49.54-21.71-56.99C268.18,368.6,261.93,362.88,251.38,368.23
									z"/>
							</g>
						</g>
						<path class="st2" d="M209.28,313.65c0,0,26.35,59.64,31.25,70.11c4.9,10.47,26.41,4.49,26.57-11.65
							c0.16-16.14,7.2-58.06-15.32-79.16C238.18,280.21,203.26,299.31,209.28,313.65z"/>
						<path class="st14" d="M214.62,215.84c18.36-2.65,24.31,9.09,28.62,22.25c11.16,34.09,20.34,71.57,20.34,71.57
							s-10.81,9.77-41.74,17.02c-30.58,7.17-38.81-6.69-38.81-6.69s-4.39-45.37-1.21-83.58c0.77-9.26,6.24-13.55,20.75-18.05
							C206.7,217.09,210.09,216.49,214.62,215.84z"/>
						<path class="st2" d="M194.58,220.69c-0.13,5.56-1.96,18.08,10.78,15.33c14.97-3.23,15.65-19.37,14.52-20.99
							c-2.57-3.7-8.22-0.53-11.98,0.34C204.13,216.24,194.69,215.98,194.58,220.69z"/>
						<path class="st11" d="M215.87,215.37c-0.74,0.06-1.49,0.14-2.26,0.24c-4.3,0.57-7.62,1.45-12,2.76
							c-1.38,0.41-2.64,0.89-3.78,1.43c0.11,3.58-1.78,13.85,7.86,12.05C215.59,230,216.64,218.69,215.87,215.37z"/>
						<g>
							<path class="st2" d="M183.83,202.94c-7.04-3.09-11.01-17.84-3.62-24.63c11.45-10.53,9.14,3.63,14.94,1.94
								c12.63-3.68,18.41,3.46,19.71,13.84c0.8,6.43-3.3,11.27-8.57,14.45c-2.33,1.41-3.64-5.35-10.97-6.69
								C187.99,200.52,183.83,202.94,183.83,202.94z"/>
							<g>
								<path class="st11" d="M210.51,212.02c-5.36-9.63-7.54-10.59-12.77-17.58c-0.08-0.29-11.4,5.02-16.14-0.15
									c0,0,1.33,8.06,4.23,14.26c2.73,5.85,5.47,8.67,10.67,4.08c0.82,3,2.75,6.14,3.44,8.78c1.39,5.32,5.4,5.47,7.8,4.45
									C210.12,224.85,215.47,220.93,210.51,212.02z"/>
							</g>
							<path class="st11" d="M204.85,195.07c1.52,0.92,1.65,3.49,0.29,5.75c-1.36,2.25-3.12,2.99-4.2,1.58
								c-1.48-1.93-2.26-3.42-1.31-4.92C201.04,195.26,203.33,194.15,204.85,195.07z"/>
						</g>
						<path class="st11" d="M141.45,259.18c5.25,0.9,6.72,4.24,5.39,9.16c-0.84,3.09-7.5,3.44-11.95,3.36
							c-9.79-0.17-44.31-3.48-48.38-2.29l0.33-6.43C93.31,264.97,127.32,256.77,141.45,259.18z"/>
						<g>
							
								<linearGradient id="SVGID_7_" gradientUnits="userSpaceOnUse" x1="13365.5049" y1="191.6658" x2="13372.3916" y2="253.2878" gradientTransform="matrix(-0.9999 0.0115 0.0115 0.9999 13446.9512 -88.2922)">
								<stop  offset="0" style="stop-color:#F4AA74"/>
								<stop  offset="0.4273" style="stop-color:#F4B386"/>
								<stop  offset="1" style="stop-color:#F4BE9A"/>
							</linearGradient>
							<path class="st15" d="M87.3,258.47c-0.82-1.49-3.72-5.91-4.91-5.25c-2.81,1.55,0.17,3.21-0.1,7.25
								c-0.18,2.61,6.02,3.23,6.02,3.23S89.01,261.58,87.3,258.47z"/>
							
								<linearGradient id="SVGID_8_" gradientUnits="userSpaceOnUse" x1="13368.9063" y1="192.44" x2="13375.2041" y2="248.7825" gradientTransform="matrix(-0.9999 0.0115 0.0115 0.9999 13446.9512 -88.2922)">
								<stop  offset="0" style="stop-color:#F4AA74"/>
								<stop  offset="0.4273" style="stop-color:#F4B386"/>
								<stop  offset="1" style="stop-color:#F4BE9A"/>
							</linearGradient>
							<path class="st16" d="M79.2,270.32c5.19,1.62,5.66,0.03,7.94-1.18c0.01,0,0.01,0,0.02,0c0,0,1.99-4.76,1.08-6.82
								c-3.4-7.71-2.99-3.29-11.08-5.15C71.87,255.95,73.06,268.4,79.2,270.32z"/>
						</g>
						<path class="st14" d="M245.85,240.53c-7.81-26.59-22.1-25.61-23.1-25.61c-1,0,2.72,21.02-18.4,25.28
							c-18.14,3.66-11.28-18.76-11.28-18.76s-5.8,2.27-9.63,7.45c-4.19,5.67-4.28,26.26-4.1,44.1c0.18,17.84,1.31,42.51,1.31,42.51
							s3.73,6.41,29.5,6.34c28.94-0.07,54.92-17.94,54.92-17.94S253.66,267.11,245.85,240.53z M232.81,258.23
							c-5.17-7.16-8.34-10.96-8.7-18.21c-0.19-3.74-0.85-12,5.01-14.11c7.34-2.65,12.95,6.02,16.11,20.53
							C248.76,262.67,237.98,265.39,232.81,258.23z"/>
						<g>
							<path class="st17" d="M200.94,241.62c-3.3,0-5.85-1-7.6-3c-4.95-5.63-1.45-17.02-1.29-17.5c0.18-0.57,0.79-0.89,1.36-0.71
								c0.57,0.18,0.89,0.79,0.71,1.36c-0.03,0.11-3.29,10.71,0.85,15.42c1.81,2.06,4.91,2.71,9.2,1.94
								c16.48-2.95,17.04-17.09,17.25-22.41c0.07-1.74,0.11-2.89,1.34-2.89c0.6,0,1.09,0.49,1.09,1.09c0,0.22-0.07,0.43-0.18,0.6
								c-0.03,0.28-0.05,0.8-0.07,1.28c-0.21,5.25-0.84,21.21-19.04,24.47C203.26,241.5,202.06,241.62,200.94,241.62z"/>
						</g>
						<g>
							<g>
								<g>
									<path class="st18" d="M207.92,256.07c-0.6,0.02-1.05,0.53-1.01,1.13l0.79,11.3c0.04,0.6,0.47,1.37,0.96,1.72l5.68,4.08
										c0.49,0.35,1.23,0.29,1.66-0.13l4.36-4.29c0.43-0.42,0.76-1.25,0.74-1.85l-0.39-11.34c-0.02-0.6-0.53-1.07-1.12-1.05
										L207.92,256.07z"/>
								</g>
							</g>
							<path class="st17" d="M220.7,256.68c-0.02-0.6-0.53-1.07-1.12-1.05l-11.66,0.44c-0.6,0.02-1.05,0.53-1.01,1.13l0.15,2.14
								c4.33-0.11,8.95-0.27,13.72-0.5L220.7,256.68z"/>
						</g>
						<g>
							<path class="st19" d="M193.38,183.1c0,0-2.2,12.85,6.76,14.84c10.42,2.32,13.34-8.77,13.34-8.77L193.38,183.1z
								 M200.96,196.91c-1.1-0.12-1.89-1.1-1.78-2.2c0.12-1.1,1.1-1.89,2.2-1.78s1.89,1.1,1.78,2.2
								C203.05,196.23,202.06,197.02,200.96,196.91z"/>
							<path class="st8" d="M193.38,183.1c0,0-2.2,12.85,6.76,14.84c10.42,2.32,13.34-8.77,13.34-8.77L193.38,183.1z M200.96,196.91
								c-1.1-0.12-1.89-1.1-1.78-2.2c0.12-1.1,1.1-1.89,2.2-1.78s1.89,1.1,1.78,2.2C203.05,196.23,202.06,197.02,200.96,196.91z"/>
							<g>
								<path class="st19" d="M214.66,190.39c0.01-0.04,0.03-0.09,0.04-0.13c2.88-9.9-2.81-20.25-12.7-23.13
									c-9.89-2.88-20.25,2.81-23.13,12.7c-0.01,0.04-0.02,0.09-0.04,0.13L214.66,190.39z"/>
								<path class="st8" d="M182.75,181.1l2.15,0.63c2.5-7.92,8.82-13.39,15.63-14.2c0.82-0.1,1.64-0.12,2.46-0.08
									c-0.33-0.11-0.66-0.22-0.99-0.32c-2.03-0.59-4.07-0.81-6.07-0.72C189.92,168.72,184.92,174.18,182.75,181.1z"/>
								<path class="st8" d="M204.36,168.05c1.26,2.13,3.79,8.42-1.04,19.47l2.5,1.06c3.81-8.72,3.41-14.88,2.28-18.65
									c-0.9-0.59-1.86-1.11-2.88-1.54C204.93,168.27,204.64,168.15,204.36,168.05z"/>
								<g>
									<g>
										<path class="st20" d="M216.51,192.97c-0.25,0.03-0.51,0.01-0.77-0.06l-45.54-13.23c-1.03-0.3-1.63-1.38-1.33-2.42
											c0.3-1.03,1.38-1.63,2.42-1.33l45.54,13.23c1.03,0.3,1.63,1.38,1.33,2.42C217.93,192.36,217.27,192.88,216.51,192.97z"/>
									</g>
									<g>
										<path class="st8" d="M216.51,192.97c-0.25,0.03-0.51,0.01-0.77-0.06l-45.54-13.23c-1.03-0.3-1.63-1.38-1.33-2.42
											c0.3-1.03,1.38-1.63,2.42-1.33l45.54,13.23c1.03,0.3,1.63,1.38,1.33,2.42C217.93,192.36,217.27,192.88,216.51,192.97z"/>
									</g>
								</g>
							</g>
						</g>
						<linearGradient id="SVGID_9_" gradientUnits="userSpaceOnUse" x1="73.3812" y1="262.2858" x2="88.7193" y2="262.2858">
							<stop  offset="0" style="stop-color:#054592"/>
							<stop  offset="0.6031" style="stop-color:#0D6BA9"/>
							<stop  offset="1" style="stop-color:#127FB5"/>
						</linearGradient>
						<path class="st21" d="M88.66,264.04c0,0,0.34-2.62-0.61-4.7c-0.95-2.08-3.56-5.66-4.77-6.14c-1.21-0.48-1.94,0.45-2.14,1.14
							c-0.2,0.69,0.19,1.79,0.31,2.22c0.11,0.43,0.06,0.86,0.06,0.86s-1.62,0.09-2.84-0.12c-1.22-0.22-4.13-1.68-5.04,2.45
							c-0.91,4.12,0.7,9.53,6.41,11.25c5.71,1.73,7.56-1.5,7.93-3.1C88.33,266.31,88.61,264.82,88.66,264.04z"/>
					</g>
					<g>
						<rect x="70.96" y="261.45" class="st8" width="45.18" height="41.05"/>
						<rect x="70.96" y="268.25" class="st8" width="81.97" height="17.74"/>
						<rect x="68.6" y="259.19" class="st22" width="47.53" height="9.06"/>
						<rect x="116.14" y="261.45" class="st23" width="36.79" height="41.05"/>
						<rect x="116.14" y="261.45" class="st8" width="36.79" height="41.05"/>
						<rect x="116.14" y="259.19" class="st22" width="38.6" height="9.06"/>
					</g>
					<g>
						<linearGradient id="SVGID_10_" gradientUnits="userSpaceOnUse" x1="160.4415" y1="288.7874" x2="164.7011" y2="287.2467">
							<stop  offset="0" style="stop-color:#054592"/>
							<stop  offset="0.6031" style="stop-color:#0D6BA9"/>
							<stop  offset="1" style="stop-color:#127FB5"/>
						</linearGradient>
						<path class="st24" d="M160.61,280.55c-0.17,0.05-0.34,0.15-0.49,0.28C160.44,280.65,160.61,280.55,160.61,280.55z
							 M160.61,280.55c-1.11,0.88-0.97,4.08-0.79,5.45c0.35,2.62,1.77,8.89,4.49,9.57C168.56,294.16,161.96,280.12,160.61,280.55z"
							/>
						<g>
							<g>
								<path class="st11" d="M207.64,271.42c0,0-12.17,7.63-16.18,9.23c-2.87,1.15-4.15-2.97-4.97-5.48
									c-0.81-2.51,4.91-10.55,11.66-15.44C203.32,255.98,208.17,270.29,207.64,271.42z"/>
								<path class="st1" d="M240.01,260.72c-8.35,8.52-31.45,23.32-31.45,23.32s-3.81-1.04-8.85-6.92
									c-7.57-8.83-7.61-13.87-7.61-13.87s15.48-17.78,29.01-29.98c10.7-9.65,16.39-5.34,20.2,6.13
									C244.21,248.15,244.68,255.96,240.01,260.72z"/>
							</g>
						</g>
						
							<linearGradient id="SVGID_11_" gradientUnits="userSpaceOnUse" x1="5457.1123" y1="-4461.2974" x2="5463.9995" y2="-4399.6758" gradientTransform="matrix(0.4983 0.867 0.867 -0.4983 1280.7397 -6654.8486)">
							<stop  offset="0" style="stop-color:#F4AA74"/>
							<stop  offset="0.4273" style="stop-color:#F4B386"/>
							<stop  offset="1" style="stop-color:#F4BE9A"/>
						</linearGradient>
						<path class="st25" d="M186.64,269.5c5.22-1.05,7.8,1.54,8.32,6.61c0.33,3.19-5.77,5.91-9.95,7.43
							c-9.19,3.36-42.6,12.69-45.97,15.27l-2-6.12C143.81,292.22,172.59,272.33,186.64,269.5z"/>
						<g>
							
								<linearGradient id="SVGID_12_" gradientUnits="userSpaceOnUse" x1="8664.126" y1="-5121.8994" x2="8671.0137" y2="-5060.2744" gradientTransform="matrix(-0.0936 0.9956 0.9956 0.0936 6041.0591 -7851.2222)">
								<stop  offset="0" style="stop-color:#F4AA74"/>
								<stop  offset="0.4273" style="stop-color:#F4B386"/>
								<stop  offset="1" style="stop-color:#F4BE9A"/>
							</linearGradient>
							<path class="st26" d="M132.38,293.22c-1.57,0.66-6.27,3.08-5.74,4.33c1.24,2.95,3.21,0.16,7.2,0.86
								c2.58,0.45,3.84-5.65,3.84-5.65S135.65,291.84,132.38,293.22z"/>
							
								<linearGradient id="SVGID_13_" gradientUnits="userSpaceOnUse" x1="8666.9131" y1="-5122.2271" x2="8673.7744" y2="-5060.8354" gradientTransform="matrix(-0.0936 0.9956 0.9956 0.0936 6041.0591 -7851.2222)">
								<stop  offset="0" style="stop-color:#F4AA74"/>
								<stop  offset="0.4273" style="stop-color:#F4B386"/>
								<stop  offset="1" style="stop-color:#F4BE9A"/>
							</linearGradient>
							<path class="st27" d="M143.31,302.52c2.16-4.99,0.62-5.62-0.34-8.02c0,0,0-0.01,0-0.02c0,0-4.52-2.47-6.67-1.79
								c-8.02,2.57-0.3,2.9-7.24,9.37C125.11,305.77,140.76,308.42,143.31,302.52z"/>
						</g>
						<path class="st28" d="M160.61,280.55c0,0-20.53,11.62-22.45,11.49c-4.8-0.34-6.16,0.68-8.81,2.24
							c-2.65,1.56-4.25,3.2-2.38,4.66s4.68-0.82,3.48,0.82c-1.04,1.42-4.98,4.2-0.05,5.8c4.6,1.49,10.02,1.03,12.31-1.65
							c2.52-2.95,2.53-4.58,2.2-6.21c6.39-2.36,8.52-1.22,19.39-2.13c-2.72-0.68-4.14-6.95-4.49-9.57
							C159.64,284.63,159.5,281.43,160.61,280.55z"/>
					</g>
				</g>
			</g>
		</g>
	</g>
</g>
</svg>
