<?xml version="1.0" encoding="utf-8"?>
<!-- Generator: Adobe Illustrator 24.0.1, SVG Export Plug-In . SVG Version: 6.00 Build 0)  -->
<svg version="1.1" id="Layer_1" xmlns="http://www.w3.org/2000/svg" xmlns:xlink="http://www.w3.org/1999/xlink" x="0px" y="0px"
	 viewBox="0 0 300 300" style="enable-background:new 0 0 300 300;" xml:space="preserve">
<style type="text/css">
	.st0{fill:#1B3149;}
	.st1{clip-path:url(#SVGID_2_);}
	.st2{fill:#FFD3AE;}
	.st3{fill:#E5B48F;}
	.st4{fill:#E8A328;}
	.st5{fill:#FFBF3E;}
</style>
<g>
	<circle class="st0" cx="150" cy="150" r="150"/>
	<g>
		<defs>
			<circle id="SVGID_1_" cx="150" cy="150" r="110.69"/>
		</defs>
		<clipPath id="SVGID_2_">
			<use xlink:href="#SVGID_1_"  style="overflow:visible;"/>
		</clipPath>
		<g class="st1">
			<path class="st2" d="M238.76,124.67c5.04,0.04,9.09,4.17,9.03,9.21l-0.62,52.14c-0.06,5.24-2.01,10.28-5.49,14.2l-34.93,39.39
				c-1.8,2.03-2.78,4.65-2.77,7.36l0.13,13.44h-38.5l-7.13-39.01c-1.54-8.45,0.75-17.23,6.53-23.59c0.23-0.25,0.47-0.51,0.72-0.76
				l33.02-33.82c1.5-1.54,3.48-2.29,5.45-2.29c2.03,0,4.06,0.8,5.57,2.41c2.71,2.9,2.74,7.39,0.08,10.33l-19.88,21.92
				c-1.23,1.36-1.83,3.05-1.83,4.74c0,2.09,0.92,4.16,2.7,5.56c2.9,2.28,7.07,1.94,9.56-0.77l23.01-25.03
				c2.04-2.23,3.27-5.08,3.49-8.09l2.74-38.87c0.34-4.77,4.31-8.46,9.07-8.46C238.72,124.67,238.74,124.67,238.76,124.67z"/>
			<path class="st3" d="M176.37,197.81c-5.78,6.35-8.07,15.14-6.53,23.59l7.13,39.01H165.6l-7.13-39.01
				c-1.54-8.45,0.75-17.23,6.53-23.59c0.23-0.25,0.47-0.51,0.72-0.76l33.02-33.82c1.5-1.54,3.48-2.3,5.45-2.3
				c2.03,0,4.06,0.8,5.57,2.41c0.04,0.04,0.08,0.08,0.11,0.13l-32.78,33.58C176.84,197.3,176.6,197.55,176.37,197.81z"/>
			<path class="st2" d="M135,197.81c5.77,6.35,8.06,15.14,6.52,23.59l-7.12,39.01H95.89l0.13-13.44c0.02-2.71-0.97-5.33-2.76-7.36
				l-34.93-39.39c-3.48-3.92-5.43-8.96-5.49-14.2l-0.62-52.14c-0.06-5.04,3.98-9.17,9.02-9.21h0.07c4.77,0,8.74,3.69,9.08,8.46
				L73.12,172c0.22,3.02,1.44,5.87,3.49,8.09l23,25.03c2.5,2.71,6.66,3.05,9.56,0.77c1.78-1.4,2.7-3.47,2.7-5.56
				c0-1.69-0.6-3.38-1.83-4.74l-19.88-21.92c-2.66-2.94-2.63-7.43,0.08-10.33c1.5-1.61,3.53-2.41,5.56-2.41
				c1.98,0,3.96,0.76,5.45,2.3l33.02,33.82C134.53,197.3,134.77,197.55,135,197.81z"/>
			<path class="st3" d="M106.1,239.61l-34.93-39.39c-3.48-3.92-5.43-8.96-5.49-14.2l-4.37-61.34c-0.03-2.55,4.75,4.34,6.42,2.66
				c-1.65-1.65-3.92-2.66-6.42-2.66c-0.02,0-0.04,0-0.07,0c-5.04,0.04-9.09,4.17-9.02,9.21l0.62,52.14
				c0.07,5.24,2.01,10.28,5.49,14.2l34.93,39.39c1.79,2.02,2.78,4.65,2.76,7.36l-0.13,13.44h12.84l0.13-13.44
				C108.88,244.26,107.89,241.64,106.1,239.61z"/>
			<path class="st4" d="M157.33,73.14l8.36,16.93c1.22,2.47,3.58,4.19,6.31,4.59l18.68,2.71c6.88,1,9.62,9.45,4.65,14.3
				l-13.52,13.18c-1.98,1.93-2.88,4.7-2.41,7.42l3.19,18.61c1.17,6.85-6.02,12.07-12.17,8.84l-16.71-8.79
				c-2.44-1.28-5.36-1.28-7.8,0l-16.71,8.79c-6.15,3.23-13.34-1.99-12.17-8.84l3.19-18.61c0.47-2.72-0.43-5.5-2.41-7.42
				l-13.52-13.18c-4.98-4.85-2.23-13.3,4.65-14.3l18.68-2.71c2.73-0.4,5.09-2.11,6.31-4.59l8.36-16.93
				C145.37,66.91,154.26,66.91,157.33,73.14z"/>
			<g>
				<path class="st5" d="M155.36,84.89l6.17,12.5c0.9,1.83,2.64,3.09,4.66,3.39l13.79,2.01c5.08,0.74,7.1,6.98,3.43,10.56
					l-9.98,9.73c-1.46,1.42-2.12,3.47-1.78,5.48l2.36,13.74c0.87,5.06-4.44,8.91-8.98,6.52l-12.33-6.48c-1.8-0.95-3.96-0.95-5.76,0
					l-12.33,6.48c-4.54,2.39-9.85-1.47-8.98-6.52l2.36-13.74c0.34-2.01-0.32-4.06-1.78-5.48l-9.98-9.73
					c-3.67-3.58-1.65-9.82,3.43-10.56l13.79-2.01c2.02-0.29,3.76-1.56,4.66-3.39l6.17-12.5C146.53,80.29,153.09,80.29,155.36,84.89z
					"/>
				<path class="st5" d="M200.12,84.64c-0.39,0-0.79-0.08-1.17-0.24c-1.52-0.65-2.23-2.41-1.58-3.93l7.19-16.88
					c0.65-1.52,2.41-2.23,3.93-1.58c1.52,0.65,2.23,2.41,1.58,3.93l-7.19,16.88C202.39,83.95,201.29,84.64,200.12,84.64z"/>
				<path class="st5" d="M213.3,98.21c-1.26,0-2.43-0.8-2.85-2.07c-0.51-1.57,0.35-3.26,1.92-3.78l18.37-5.99
					c1.57-0.51,3.26,0.35,3.78,1.92c0.51,1.57-0.35,3.26-1.92,3.78l-18.37,5.99C213.92,98.16,213.61,98.21,213.3,98.21z"/>
				<path class="st5" d="M222.48,122.97c-0.33,0-0.67-0.06-1-0.17l-12.38-4.39c-1.56-0.55-2.37-2.27-1.82-3.82
					c0.55-1.56,2.27-2.37,3.82-1.82l12.38,4.39c1.56,0.55,2.37,2.26,1.82,3.82C224.87,122.2,223.71,122.97,222.48,122.97z"/>
				<path class="st5" d="M99.5,84.64c-1.16,0-2.27-0.68-2.76-1.82l-7.19-16.88c-0.65-1.52,0.06-3.28,1.58-3.93
					c1.52-0.65,3.28,0.06,3.93,1.58l7.19,16.88c0.65,1.52-0.06,3.28-1.58,3.93C100.29,84.56,99.9,84.64,99.5,84.64z"/>
				<path class="st5" d="M86.33,98.21c-0.31,0-0.62-0.05-0.93-0.15l-18.37-5.99c-1.57-0.51-2.43-2.2-1.92-3.78
					c0.51-1.57,2.2-2.43,3.78-1.92l18.37,5.99c1.57,0.51,2.43,2.2,1.92,3.78C88.76,97.41,87.59,98.21,86.33,98.21z"/>
				<path class="st5" d="M77.14,122.97c-1.23,0-2.39-0.77-2.82-1.99c-0.55-1.56,0.26-3.27,1.82-3.82l12.38-4.39
					c1.56-0.55,3.27,0.26,3.82,1.82s-0.26,3.27-1.82,3.82l-12.38,4.39C77.81,122.91,77.48,122.97,77.14,122.97z"/>
			</g>
		</g>
	</g>
</g>
</svg>
