<?xml version="1.0" encoding="utf-8"?>
<!-- Generator: Adobe Illustrator 24.0.1, SVG Export Plug-In . SVG Version: 6.00 Build 0)  -->
<svg version="1.1" id="Layer_1" xmlns="http://www.w3.org/2000/svg" xmlns:xlink="http://www.w3.org/1999/xlink" x="0px" y="0px"
	 viewBox="0 0 300 300" style="enable-background:new 0 0 300 300;" xml:space="preserve">
<style type="text/css">
	.st0{fill:#90A0B2;}
</style>
<g id="Layer_2_7_">
	<path class="st0" d="M225,269.99c-10.6,0.11-20.79-4.11-28.2-11.7c-26.51-24.34-67.24-24.34-93.75,0
		c-15.4,15.53-40.47,15.64-56,0.25c-0.08-0.08-0.17-0.16-0.25-0.25c-12.68-11.87-29.43-18.42-46.8-18.3v30
		c10.55-0.09,20.69,4.14,28.05,11.7c26.48,24.42,67.27,24.42,93.75,0c15.4-15.53,40.47-15.64,56-0.25c0.08,0.08,0.17,0.16,0.25,0.25
		c26.51,24.34,67.24,24.34,93.75,0c7.41-7.58,17.6-11.81,28.2-11.7v-30c-17.42-0.14-34.22,6.41-46.95,18.3
		C245.67,265.84,235.55,270.06,225,269.99z"/>
	<path class="st0" d="M225,209.99c-10.6,0.11-20.79-4.11-28.2-11.7c-26.51-24.34-67.24-24.34-93.75,0
		c-15.4,15.53-40.47,15.64-56,0.25c-0.08-0.08-0.17-0.16-0.25-0.25c-12.68-11.87-29.43-18.42-46.8-18.3v30
		c10.55-0.09,20.69,4.14,28.05,11.7c26.48,24.42,67.27,24.42,93.75,0c15.4-15.53,40.47-15.64,56-0.25c0.08,0.08,0.17,0.16,0.25,0.25
		c26.51,24.34,67.24,24.34,93.75,0c7.41-7.58,17.6-11.81,28.2-11.7v-30c-17.42-0.14-34.22,6.41-46.95,18.3
		C245.67,205.84,235.55,210.06,225,209.99z"/>
	<path class="st0" d="M45,164.99H255v-15c0-57.99-47.01-105-105-105s-105,47.01-105,105V164.99z"/>
	<rect x="135" y="0" class="st0" width="30" height="30"/>
	<rect x="39.7" y="39.6" transform="matrix(0.7071 -0.7071 0.7071 0.7071 -22.5862 54.6675)" class="st0" width="30" height="30"/>
	<rect x="0.01" y="134.99" class="st0" width="30" height="30"/>
	<rect x="270" y="134.99" class="st0" width="30" height="30"/>
	
		<rect x="230.41" y="39.68" transform="matrix(0.7071 -0.7071 0.7071 0.7071 33.2115 189.5431)" class="st0" width="30" height="30"/>
</g>
</svg>
