<?xml version="1.0" encoding="utf-8"?>
<!-- Generator: Adobe Illustrator 24.0.1, SVG Export Plug-In . SVG Version: 6.00 Build 0)  -->
<svg version="1.1" id="Layer_1" xmlns="http://www.w3.org/2000/svg" xmlns:xlink="http://www.w3.org/1999/xlink" x="0px" y="0px"
	 viewBox="0 0 300 300" style="enable-background:new 0 0 300 300;" xml:space="preserve">
<style type="text/css">
	.st0{fill:#56CD93;}
</style>
<g>
	<path class="st0" d="M250,0H130c-19.32,0.02-34.98,15.68-35,35v15h10V35c0.02-13.8,11.2-24.98,25-25h120
		c13.8,0.02,24.98,11.2,25,25v230c-0.02,13.8-11.2,24.98-25,25H130c-13.8-0.02-24.98-11.2-25-25v-35H95v35
		c0.02,19.32,15.68,34.98,35,35h120c19.32-0.02,34.98-15.68,35-35V35C284.98,15.68,269.32,0.02,250,0z"/>
	<rect x="145" y="20" class="st0" width="10" height="10"/>
	<rect x="165" y="20" class="st0" width="50" height="10"/>
	<path class="st0" d="M180,250c-8.28,0-15,6.72-15,15s6.72,15,15,15h20c8.28,0,15-6.72,15-15s-6.72-15-15-15H180z M205,265
		c0,2.76-2.24,5-5,5h-20c-2.76,0-5-2.24-5-5s2.24-5,5-5h20C202.76,260,205,262.24,205,265z"/>
	<path class="st0" d="M185,230h10V50h-10v10H85c-5.52,0.02-9.98,4.48-10,10v20H65c-0.78,0.01-1.54,0.18-2.25,0.5l-18.9,9.5H20
		c-2.76,0-5,2.24-5,5v80c0,2.76,2.24,5,5,5h55v20c0.02,5.52,4.48,9.98,10,10h100V230z M185,70v14.3c-6.99-1.84-12.46-7.31-14.3-14.3
		H185z M115,70h14.35c-1.85,7.01-7.33,12.48-14.35,14.3V70z M100,70h5v20h-5V70z M85,70h5v20h-5V70z M90,210h-5v-70.65
		c1.54-1.55,2.93-3.24,4.15-5.05c0.35-0.45,0.55-0.95,0.85-1.4V210z M105,210h-5v-90h5V210z M110,110.05L95,110h-5
		c-2.76,0-5,2.24-5,5c0.01,4.06-0.99,8.06-2.9,11.65c-0.4,0.75-0.8,1.45-1.25,2.15C76.26,135.84,68.4,140.06,60,140l-0.05,10h0.25
		c4.53-0.01,9.01-0.89,13.2-2.6c0.55-0.25,1.05-0.6,1.6-0.85V180H25v-70h20c0.78,0,1.55-0.19,2.25-0.55l18.9-9.45H110
		c1.33-0.03,2.62,0.49,3.55,1.45c0.93,0.93,1.45,2.19,1.45,3.5c0.02,1.37-0.54,2.68-1.55,3.6C112.54,109.48,111.3,110.02,110,110.05
		z M115,210v-14.3c6.99,1.84,12.46,7.31,14.3,14.3H115z M160.45,210h-20.9c-2.12-12.57-11.98-22.43-24.55-24.55V119.1
		c2.1-0.72,3.99-1.92,5.55-3.5c5.87-5.78,5.94-15.22,0.16-21.09c-0.04-0.04-0.08-0.08-0.11-0.11c-0.36-0.34-0.74-0.66-1.15-0.95
		c10.52-3.5,18.25-12.52,20.1-23.45h20.9c2.12,12.57,11.98,22.43,24.55,24.55v90.9C172.43,187.57,162.57,197.43,160.45,210z
		 M170.7,210c1.84-6.99,7.31-12.46,14.3-14.3V210H170.7z"/>
	<path class="st0" d="M150,115c-13.81,0-25,11.19-25,25c0.02,13.8,11.2,24.98,25,25c13.81,0,25-11.19,25-25S163.81,115,150,115z
		 M150,155c-8.28,0-15-6.72-15-15s6.72-15,15-15s15,6.72,15,15S158.28,155,150,155z"/>
</g>
</svg>
