<?xml version="1.0" encoding="utf-8"?>
<!-- Generator: Adobe Illustrator 24.0.1, SVG Export Plug-In . SVG Version: 6.00 Build 0)  -->
<svg version="1.1" id="Layer_1" xmlns="http://www.w3.org/2000/svg" xmlns:xlink="http://www.w3.org/1999/xlink" x="0px" y="0px"
	 viewBox="0 0 300 300" style="enable-background:new 0 0 300 300;" xml:space="preserve">
<style type="text/css">
	.st0{fill:#90A0B2;}
</style>
<g>
	<path class="st0" d="M150,0C67.16,0,0,67.16,0,150s67.16,150,150,150s150-67.16,150-150S232.84,0,150,0z M150,262.5
		c-62.14,0-112.5-50.36-112.5-112.5S87.86,37.5,150,37.5S262.5,87.86,262.5,150S212.14,262.5,150,262.5z"/>
	<path class="st0" d="M181.89,158.46l-31.26-4.75c0,0-4.7-31.66-4.84-31.52l40.54-40.53c-9.11-4.12-19.19-6.49-29.85-6.49
		c-40.03,0-72.49,32.46-72.49,72.5c0,10.65,2.35,20.73,6.47,29.84l-12.33,12.33c5.56,12.24,16.29,27.05,36.5,35.89l12.03-12.03
		c9.1,4.1,19.19,6.48,29.83,6.48c40.04,0,72.5-32.46,72.5-72.5c0-10.66-2.35-20.71-6.48-29.85L181.89,158.46z"/>
</g>
</svg>
