<?xml version="1.0" encoding="utf-8"?>
<!-- Generator: Adobe Illustrator 24.0.1, SVG Export Plug-In . SVG Version: 6.00 Build 0)  -->
<svg version="1.1" id="Layer_1" xmlns="http://www.w3.org/2000/svg" xmlns:xlink="http://www.w3.org/1999/xlink" x="0px" y="0px"
	 viewBox="0 0 300 300" style="enable-background:new 0 0 300 300;" xml:space="preserve">
<style type="text/css">
	.st0{fill:#5BDB98;}
</style>
<g id="Icons">
	<g>
		<path class="st0" d="M150,90.34c-32.94,0-59.66,26.72-59.66,59.66s26.7,59.65,59.66,59.65c32.94,0,59.65-26.71,59.65-59.65
			S182.94,90.34,150,90.34z M150,179.65c-16.35,0-29.66-13.3-29.66-29.65s13.31-29.65,29.66-29.65s29.65,13.3,29.65,29.65
			S166.35,179.65,150,179.65z"/>
		<path class="st0" d="M300,165v-30h-31.04c-2.73-21.9-11.36-41.91-24.26-58.5l21.96-21.96l-21.21-21.21L223.5,55.29
			c-16.59-12.9-36.6-21.51-58.5-24.25V0h-30v31.04c-21.9,2.73-41.91,11.35-58.5,24.25L54.54,33.33L33.33,54.54L55.29,76.5
			c-12.9,16.59-21.51,36.6-24.25,58.5H0v30h31.04c2.73,21.9,11.35,41.91,24.25,58.5l-21.96,21.96l21.21,21.21l21.96-21.96
			c16.59,12.88,36.61,21.51,58.5,24.26V300h30v-31.04c21.9-2.73,41.91-11.36,58.5-24.26l21.96,21.96l21.21-21.21l-21.96-21.96
			c12.88-16.59,21.51-36.62,24.26-58.5H300z M150,240c-49.62,0-90-40.38-90-90s40.38-90,90-90s90,40.38,90,90S199.62,240,150,240z"
			/>
	</g>
</g>
</svg>
