<?xml version="1.0" encoding="utf-8"?>
<!-- Generator: Adobe Illustrator 24.0.1, SVG Export Plug-In . SVG Version: 6.00 Build 0)  -->
<svg version="1.1" id="Layer_1" xmlns="http://www.w3.org/2000/svg" xmlns:xlink="http://www.w3.org/1999/xlink" x="0px" y="0px"
	 viewBox="0 0 300 300" style="enable-background:new 0 0 300 300;" xml:space="preserve">
<path d="M290,289.1l-20-220c-0.47-5.17-4.81-9.12-10-9.1h-30V50c0-27.61-22.39-50-50-50c-5.52,0-10,4.48-10,10c0,5.52,4.48,10,10,10
	c16.57,0,30,13.43,30,30v10h-10h-30V50c0-27.61-22.39-50-50-50S70,22.39,70,50v10H40c-5.19-0.02-9.53,3.93-10,9.1l-20,220
	c-0.03,0.31-0.04,0.63-0.04,0.94c0.02,5.52,4.52,9.98,10.04,9.96h160h100c0.31,0,0.63-0.01,0.94-0.04
	C286.44,299.46,290.5,294.6,290,289.1z M90,50c0-16.57,13.43-30,30-30s30,13.43,30,30v10H90V50z M49.1,80H70v30
	c0,5.52,4.48,10,10,10c5.52,0,10-4.48,10-10V80h60v30c0,5.52,4.48,10,10,10s10-4.48,10-10V80h19.01l-18.18,200H30.9L49.1,80z
	 M240,280v-50h-20v50h-29.01l18.18-200h41.73l18.2,200H240z"/>
</svg>
