<svg xmlns="http://www.w3.org/2000/svg" xmlns:xlink="http://www.w3.org/1999/xlink" width="15.464" height="15.465" viewBox="0 0 15.464 15.465">
  <defs>
    <clipPath id="clip-path">
      <rect id="Rectangle_2544" data-name="Rectangle 2544" width="15.464" height="15.465" fill="none"/>
    </clipPath>
  </defs>
  <g id="Group_1476" data-name="Group 1476" clip-path="url(#clip-path)">
    <path id="Path_6157" data-name="Path 6157" d="M.157,55.057a.484.484,0,0,1,.465-.5H6.743a.484.484,0,0,1,0,.966H.622a.484.484,0,0,1-.465-.465" transform="translate(-0.139 -48.273)" fill="#5bdb98"/>
    <path id="Path_6158" data-name="Path 6158" d="M2.558,39.3.142,36.887a.484.484,0,0,1,0-.684l2.416-2.416a.484.484,0,0,1,.684.683L1.167,36.545,3.242,38.62a.483.483,0,1,1-.684.683" transform="translate(0 -29.78)" fill="#5bdb98"/>
    <path id="Path_6159" data-name="Path 6159" d="M78.34,14.177V2.579a1.3,1.3,0,0,1,.877-1.226L83.1.061a1.324,1.324,0,0,1,.4-.06,1.29,1.29,0,0,1,1.288,1.288v11.6a1.3,1.3,0,0,1-.877,1.226l-3.878,1.292a1.326,1.326,0,0,1-.4.06,1.29,1.29,0,0,1-1.289-1.289M83.495.965a.347.347,0,0,0-.1.014L79.529,2.268a.334.334,0,0,0-.224.311v11.6a.323.323,0,0,0,.322.322.352.352,0,0,0,.105-.014l3.86-1.286a.335.335,0,0,0,.224-.311V1.289a.323.323,0,0,0-.322-.322Z" transform="translate(-69.319 -0.001)" fill="#5bdb98"/>
    <path id="Path_6160" data-name="Path 6160" d="M45.244,5.156a.484.484,0,0,1-.484-.483v-2.9A1.774,1.774,0,0,1,46.532,0h7.249a.483.483,0,0,1,0,.966H46.533a.806.806,0,0,0-.806.806v2.9a.484.484,0,0,1-.483.483" transform="translate(-39.606 -0.001)" fill="#5bdb98"/>
    <path id="Path_6161" data-name="Path 6161" d="M44.76,76.126v-2.9a.483.483,0,0,1,.967,0v2.9a.806.806,0,0,0,.806.806H49.11a.483.483,0,0,1,0,.967H46.533a1.773,1.773,0,0,1-1.773-1.772" transform="translate(-39.606 -64.366)" fill="#5bdb98"/>
  </g>
</svg>
