<?xml version="1.0" encoding="utf-8"?>
<!-- Generator: Adobe Illustrator 24.0.1, SVG Export Plug-In . SVG Version: 6.00 Build 0)  -->
<svg version="1.1" id="Layer_1" xmlns="http://www.w3.org/2000/svg" xmlns:xlink="http://www.w3.org/1999/xlink" x="0px" y="0px"
	 viewBox="0 0 300 300" style="enable-background:new 0 0 300 300;" xml:space="preserve">
<style type="text/css">
	.st0{fill:#5BDB98;}
</style>
<g id="_1_1_">
	<path class="st0" d="M238.35,295.85c-3.2,0-6.24-1.38-8.35-3.79l-35.85-40.96c-14.42,3.71-29.26,5.58-44.15,5.55
		c-39.68,0-77.08-12.89-105.31-36.28C15.86,196.48,0,164.53,0,130.41s15.88-66.07,44.7-89.97C72.92,17.04,110.32,4.15,150,4.15
		s77.08,12.89,105.3,36.28c28.84,23.9,44.7,55.85,44.7,89.97c0,36.43-18.35,70.61-50.56,94.59v59.77
		C249.44,290.88,244.47,295.85,238.35,295.85z M197.89,227.45c3.2,0,6.24,1.38,8.35,3.79l21.02,24.02v-35.97
		c0-3.66,1.8-7.08,4.82-9.15c29.07-19.88,45.73-48.93,45.73-79.72c0-57.39-57.34-104.07-127.81-104.07S22.18,73.02,22.18,130.41
		S79.52,234.48,150,234.48c15.13,0.04,30.17-2.17,44.65-6.55C195.7,227.61,196.79,227.45,197.89,227.45z"/>
	<path class="st0" d="M196.42,98.66h-92.83c-6.13,0-11.09-4.97-11.09-11.09s4.97-11.09,11.09-11.09l0,0h92.83
		c6.13,0,11.09,4.97,11.09,11.09S202.54,98.66,196.42,98.66z"/>
	<path class="st0" d="M196.42,140.51h-92.83c-6.13,0-11.09-4.97-11.09-11.09c0-6.13,4.97-11.09,11.09-11.09h92.83
		c6.13,0,11.09,4.97,11.09,11.09C207.51,135.55,202.54,140.51,196.42,140.51z"/>
	<path class="st0" d="M196.42,182.36h-92.83c-6.13,0-11.09-4.97-11.09-11.09c0-6.13,4.97-11.09,11.09-11.09h92.83
		c6.13,0,11.09,4.97,11.09,11.09C207.51,177.4,202.54,182.36,196.42,182.36z"/>
</g>
</svg>
