<?xml version="1.0" encoding="utf-8"?>
<!-- Generator: Adobe Illustrator 24.0.1, SVG Export Plug-In . SVG Version: 6.00 Build 0)  -->
<svg version="1.1" id="Layer_1" xmlns="http://www.w3.org/2000/svg" xmlns:xlink="http://www.w3.org/1999/xlink" x="0px" y="0px"
	 viewBox="0 0 300 300" style="enable-background:new 0 0 300 300;" xml:space="preserve">
<g id="_x30_1">
	<g>
		<path d="M270,0H30c-8.29,0-15,6.71-15,15v270c0,8.29,6.71,15,15,15h240c8.29,0,15-6.71,15-15V15C285,6.71,278.29,0,270,0z
			 M255,270H45V30h210V270z"/>
		<path d="M165,90h60c8.29,0,15-6.71,15-15s-6.71-15-15-15h-60c-8.29,0-15,6.71-15,15S156.71,90,165,90z"/>
		<path d="M165,165h60c8.29,0,15-6.71,15-15s-6.71-15-15-15h-60c-8.29,0-15,6.71-15,15S156.71,165,165,165z"/>
		<path d="M165,240h60c8.29,0,15-6.71,15-15s-6.71-15-15-15h-60c-8.29,0-15,6.71-15,15S156.71,240,165,240z"/>
		<path d="M79.39,100.61C82.32,103.54,86.16,105,90,105s7.68-1.46,10.61-4.39l30-30c5.86-5.86,5.86-15.35,0-21.21
			s-15.35-5.86-21.21,0L90,68.79l-4.39-4.39c-5.86-5.86-15.35-5.86-21.21,0s-5.86,15.35,0,21.21L79.39,100.61z"/>
		<path d="M79.39,175.61C82.32,178.54,86.16,180,90,180s7.68-1.46,10.61-4.39l30-30c5.86-5.86,5.86-15.35,0-21.21
			s-15.35-5.86-21.21,0L90,143.79l-4.39-4.39c-5.86-5.86-15.35-5.86-21.21,0s-5.86,15.35,0,21.21L79.39,175.61z"/>
		<path d="M79.39,250.61C82.32,253.54,86.16,255,90,255s7.68-1.46,10.61-4.39l30-30c5.86-5.86,5.86-15.35,0-21.21
			s-15.35-5.86-21.21,0L90,218.79l-4.39-4.39c-5.86-5.86-15.35-5.86-21.21,0s-5.86,15.35,0,21.21L79.39,250.61z"/>
	</g>
</g>
</svg>
