<?xml version="1.0" encoding="utf-8"?>
<!-- Generator: Adobe Illustrator 24.0.1, SVG Export Plug-In . SVG Version: 6.00 Build 0)  -->
<svg version="1.1" id="Layer_1" xmlns="http://www.w3.org/2000/svg" xmlns:xlink="http://www.w3.org/1999/xlink" x="0px" y="0px"
	 viewBox="0 0 300 300" style="enable-background:new 0 0 300 300;" xml:space="preserve">
<style type="text/css">
	.st0{fill:#5BDB98;}
</style>
<g>
	<path class="st0" d="M298.76,255.99V90.67c0-24.27-21.51-44.02-47.96-44.02h-13.14v-2.64C237.66,19.74,216.15,0,189.7,0h-17.71
		H70.47H49.2C22.76,0,1.24,19.74,1.24,44.02v165.31c0,24.27,21.52,44.02,47.96,44.02h13.14v2.64c0,24.27,21.52,44.01,47.96,44.01
		h21.27h101.51h9.13h8.59C277.25,300,298.76,280.26,298.76,255.99z M233.09,285.59H131.57H110.3c-17.82,0-32.26-13.26-32.26-29.61
		v-2.64v-14.41V90.67c0-16.35,14.44-29.61,32.26-29.61h21.27h90.39h11.12h4.57h13.14c17.82,0,32.26,13.26,32.26,29.61v165.31
		c0,16.35-14.44,29.61-32.26,29.61h-8.59H233.09z"/>
	<path class="st0" d="M104.93,118.42h124.84c3.45,0,6.24-2.79,6.24-6.24c0-3.45-2.79-6.24-6.24-6.24H104.93
		c-3.45,0-6.24,2.79-6.24,6.24C98.69,115.63,101.48,118.42,104.93,118.42z"/>
	<path class="st0" d="M124.66,154.59c0,3.45,2.8,6.24,6.25,6.24h116.98c3.45,0,6.25-2.79,6.25-6.24s-2.8-6.25-6.25-6.25H130.91
		C127.46,148.34,124.66,151.14,124.66,154.59z"/>
	<path class="st0" d="M220.81,196.99c0-3.45-2.79-6.24-6.24-6.24H104.93c-3.45,0-6.24,2.79-6.24,6.24s2.79,6.25,6.24,6.25h109.64
		C218.02,203.24,220.81,200.44,220.81,196.99z"/>
	<path class="st0" d="M254.14,239.4c0-3.45-2.8-6.24-6.25-6.24H145.15c-3.45,0-6.24,2.79-6.24,6.24c0,3.45,2.79,6.24,6.24,6.24
		h102.74C251.34,245.64,254.14,242.85,254.14,239.4z"/>
</g>
</svg>
