<?xml version="1.0" encoding="utf-8"?>
<!-- Generator: Adobe Illustrator 24.0.1, SVG Export Plug-In . SVG Version: 6.00 Build 0)  -->
<svg version="1.1" id="Layer_1" xmlns="http://www.w3.org/2000/svg" xmlns:xlink="http://www.w3.org/1999/xlink" x="0px" y="0px"
	 viewBox="0 0 300 300" style="enable-background:new 0 0 300 300;" xml:space="preserve">
<style type="text/css">
	.st0{fill:#5BDB98;}
</style>
<g>
	<path class="st0" d="M253.39,170.49V76.17c0-25.85-21.03-46.88-46.88-46.88H169.6V11.72C169.6,5.25,164.35,0,157.88,0H111
		c-6.47,0-11.72,5.25-11.72,11.72V29.3H62.44c-25.85,0-46.88,21.03-46.88,46.88v176.95c0,25.85,21.03,46.88,46.88,46.88h64.39
		c6.47,0,11.72-5.25,11.72-11.72s-5.25-11.72-11.72-11.72H62.44c-12.92,0-23.44-10.51-23.44-23.44V76.17
		c0-12.92,10.51-23.44,23.44-23.44h36.85v5.86c0,19.39,15.77,35.16,35.16,35.16c19.38,0,35.16-15.77,35.16-35.16v-5.86h36.91
		c12.92,0,23.44,10.51,23.44,23.44v83.97c-5.27-1.25-10.76-1.94-16.41-1.94c-39.09,0-70.9,31.81-70.9,70.9s31.81,70.9,70.9,70.9
		c39.1,0,70.9-31.81,70.9-70.9C284.44,204.77,272.12,183.27,253.39,170.49z M146.16,58.59c0,6.46-5.26,11.72-11.72,11.72
		c-6.46,0-11.72-5.26-11.72-11.72V23.44h23.44V58.59z M213.54,276.56c-26.17,0-47.46-21.29-47.46-47.46s21.29-47.46,47.46-47.46
		S261,202.93,261,229.1S239.71,276.56,213.54,276.56z"/>
	<path class="st0" d="M230.53,217.38h-5.27v-12.3c0-6.47-5.25-11.72-11.72-11.72c-6.47,0-11.72,5.25-11.72,11.72v24.02
		c0,6.47,5.25,11.72,11.72,11.72h16.99c6.47,0,11.72-5.25,11.72-11.72S237.01,217.38,230.53,217.38z"/>
</g>
</svg>
