<?xml version="1.0" encoding="utf-8"?>
<!-- Generator: Adobe Illustrator 24.0.1, SVG Export Plug-In . SVG Version: 6.00 Build 0)  -->
<svg version="1.1" id="Layer_1" xmlns="http://www.w3.org/2000/svg" xmlns:xlink="http://www.w3.org/1999/xlink" x="0px" y="0px"
	 viewBox="0 0 300 300" style="enable-background:new 0 0 300 300;" xml:space="preserve">
<style type="text/css">
	.st0{fill:#5BDB98;}
</style>
<g>
	<path class="st0" d="M253.85,0h-23.08H115.38H46.15C27.04,0,11.54,15.5,11.54,34.62V150c0,6.37,5.17,11.54,11.54,11.54h34.62
		v126.92c0,6.37,5.17,11.54,11.54,11.54h207.69c6.37,0,11.54-5.17,11.54-11.54V34.62C288.46,15.5,272.96,0,253.85,0z M219.23,23.08
		v11.54h-92.31V23.08H219.23z M34.62,34.62c0-6.37,5.17-11.54,11.54-11.54c6.37,0,11.54,5.17,11.54,11.54v103.85H34.62V34.62z
		 M265.38,276.92H80.77V150V34.62c0-4.05-0.7-7.93-1.98-11.54h25.05v23.08c0,6.37,5.17,11.54,11.54,11.54h115.38
		c6.37,0,11.54-5.17,11.54-11.54V23.08h11.54c6.37,0,11.54,5.17,11.54,11.54V276.92z"/>
	<path class="st0" d="M115.38,184.62h69.23c6.37,0,11.54-5.17,11.54-11.54s-5.17-11.54-11.54-11.54h-69.23
		c-6.37,0-11.54,5.17-11.54,11.54S109.01,184.62,115.38,184.62z"/>
	<path class="st0" d="M230.77,207.69H115.38c-6.37,0-11.54,5.17-11.54,11.54c0,6.37,5.17,11.54,11.54,11.54h115.38
		c6.37,0,11.54-5.17,11.54-11.54C242.31,212.86,237.14,207.69,230.77,207.69z"/>
	<path class="st0" d="M115.38,138.46h92.31c6.37,0,11.54-5.17,11.54-11.54c0-6.37-5.17-11.54-11.54-11.54h-92.31
		c-6.37,0-11.54,5.17-11.54,11.54C103.85,133.3,109.01,138.46,115.38,138.46z"/>
</g>
</svg>
