<?xml version="1.0" encoding="utf-8"?>
<!-- Generator: Adobe Illustrator 24.0.1, SVG Export Plug-In . SVG Version: 6.00 Build 0)  -->
<svg version="1.1" id="Layer_1" xmlns="http://www.w3.org/2000/svg" xmlns:xlink="http://www.w3.org/1999/xlink" x="0px" y="0px"
	 viewBox="0 0 300 300" style="enable-background:new 0 0 300 300;" xml:space="preserve">
<style type="text/css">
	.st0{fill-rule:evenodd;clip-rule:evenodd;}
</style>
<g id="Layer_x0020_1_2_">
	<path class="st0" d="M150,0c82.84,0,150,67.16,150,150c0,82.84-67.16,150-150,150C67.16,300,0,232.84,0,150C0,67.16,67.16,0,150,0z
		 M123.34,112.38l18.44,18.44c2.52-1.09,5.3-1.69,8.23-1.69c11.53,0,20.87,9.35,20.87,20.88c0,2.91-0.6,5.7-1.68,8.23l57.56,57.56
		l-9.95,9.94l-57.2-57.2c-2.88,1.49-6.15,2.34-9.6,2.34c-11.54,0-20.88-9.35-20.88-20.87c0-3.47,0.85-6.74,2.34-9.61l-18.07-18.07
		L123.34,112.38z M67.31,200.75l51.65-39.02c2.26,6,6.22,11.17,11.29,14.94L78.6,215.7L67.31,200.75z M140.63,118.16V61.74h18.75
		v56.42c-2.98-0.88-6.13-1.35-9.38-1.35C146.75,116.81,143.6,117.28,140.63,118.16z M150,28.92c66.87,0,121.08,54.22,121.08,121.09
		S216.87,271.08,150,271.08S28.92,216.87,28.92,150S83.14,28.92,150,28.92z"/>
</g>
</svg>
