<?xml version="1.0" encoding="utf-8"?>
<!-- Generator: Adobe Illustrator 24.0.1, SVG Export Plug-In . SVG Version: 6.00 Build 0)  -->
<svg version="1.1" id="Layer_1" xmlns="http://www.w3.org/2000/svg" xmlns:xlink="http://www.w3.org/1999/xlink" x="0px" y="0px"
	 viewBox="0 0 300 300" style="enable-background:new 0 0 300 300;" xml:space="preserve">
<style type="text/css">
	.st0{fill:#E6E7E8;}
	.st1{fill:#60E99C;}
	.st2{fill:#A3EFC2;}
	.st3{fill:#4CB08A;}
	.st4{fill:#56CD93;}
	.st5{fill:#FFFFFF;}
	.st6{fill:#364048;}
	.st7{fill:#24323A;}
</style>
<g>
	<ellipse class="st0" cx="150" cy="294.05" rx="135.59" ry="5.95"/>
	<g>
		<g>
			<path class="st1" d="M254.92,0H45.08c-6.32,0-11.48,5.17-11.48,11.48v198.05c0,6.32,5.17,11.48,11.48,11.48h209.84
				c6.32,0,11.48-5.17,11.48-11.48V11.48C266.41,5.17,261.24,0,254.92,0z"/>
			<path class="st2" d="M243.44,10.9H56.56c-6.32,0-11.48,5.17-11.48,11.48v176.24c0,6.32,5.17,11.48,11.48,11.48h186.88
				c6.32,0,11.48-5.17,11.48-11.48V22.38C254.92,16.07,249.76,10.9,243.44,10.9z"/>
		</g>
		<g>
			<g>
				<g>
					<g>
						<g>
							<path d="M227.78,246.16h19.24c2.66,0,4.83,2.17,4.83,4.83v38.74c0,2.66-2.17,4.83-4.83,4.83h-19.24
								c-2.66,0-4.83-2.17-4.83-4.83V251C222.95,248.34,225.12,246.16,227.78,246.16z"/>
						</g>
					</g>
					<g>
						<g>
							<path d="M72.22,246.16H52.98c-2.66,0-4.83,2.17-4.83,4.83v38.74c0,2.66,2.17,4.83,4.83,4.83h19.24
								c2.66,0,4.83-2.17,4.83-4.83V251C77.05,248.34,74.88,246.16,72.22,246.16z"/>
						</g>
					</g>
				</g>
				<path class="st3" d="M227.85,76.25c0,0-16.01-10.31-77.33-10.43v0c-0.17,0-0.86,0-1.04,0v0c-61.32,0.12-77.33,10.43-77.33,10.43
					C28.12,144.03,45.97,264.5,45.97,264.5h208.06C254.03,264.5,271.88,144.03,227.85,76.25z"/>
				<path class="st4" d="M51.05,153.17c-6.88,46.69-2.44,92.7-0.81,106.48h199.52c1.64-13.78,6.09-59.79-0.8-106.48H51.05z"/>
				<g>
					<g>
						
							<ellipse transform="matrix(0.2314 -0.9729 0.9729 0.2314 -143.3959 215.4732)" class="st5" cx="64.66" cy="198.48" rx="11.95" ry="11.95"/>
						
							<ellipse transform="matrix(0.2063 -0.9785 0.9785 0.2063 -7.4203 387.8203)" class="st5" cx="235.34" cy="198.48" rx="11.95" ry="11.95"/>
					</g>
				</g>
				<path d="M92.16,188.67c0,4.12,21.37,4.78,21.37,4.78h72.94c0,0,21.37-0.66,21.37-4.78H92.16z"/>
				<path d="M92.16,199.13c0,4.12,21.37,4.78,21.37,4.78h72.94c0,0,21.37-0.66,21.37-4.78H92.16z"/>
				<path d="M92.16,209.6c0,4.12,21.37,4.78,21.37,4.78h72.94c0,0,21.37-0.66,21.37-4.78H92.16z"/>
				<path class="st3" d="M49.42,151.66l-5.98-2.39v-23.09c0-3.52-3.4-6.4-7.55-6.4h-5.96c-4.15,0-7.55,2.88-7.55,6.4v24.99
					c0,3.52,3.4,6.4,7.55,6.4h5.96c1.57,0,3.03-0.41,4.24-1.11l7.86,10.05L49.42,151.66z"/>
				<path class="st3" d="M250.58,151.66l5.98-2.39v-23.09c0-3.52,3.4-6.4,7.55-6.4h5.96c4.15,0,7.55,2.88,7.55,6.4v24.99
					c0,3.52-3.4,6.4-7.55,6.4h-5.96c-1.57,0-3.03-0.41-4.24-1.11l-7.86,10.05L250.58,151.66z"/>
				<path class="st3" d="M42.46,215.26c0.31,18.2,1.63,33.06,2.56,41.54h209.97c0.93-8.48,2.25-23.34,2.56-41.54
					c-5.35,4.33-16.47,11.64-30.58,11.64H73.03C58.92,226.9,47.81,219.59,42.46,215.26z"/>
				<g>
					<path class="st6" d="M256.82,242.82H42.77c-3.78,0-6.88,3.09-6.88,6.88v14.51c0,3.78,3.09,6.88,6.88,6.88h214.06
						c3.78,0,6.88-3.09,6.88-6.88V249.7C263.7,245.92,260.6,242.82,256.82,242.82z"/>
					<path class="st7" d="M256.82,261.23H42.77c-3.78,0-6.88-3.09-6.88-6.88v9.85c0,3.78,3.09,6.88,6.88,6.88h214.06
						c3.78,0,6.88-3.09,6.88-6.88v-9.85C263.7,258.14,260.6,261.23,256.82,261.23z"/>
				</g>
				<g>
					<path d="M248.95,153.17c-3.82-25.89-11.12-52-24.31-72.93c-5.85-2-22.56-7.04-74.13-7.14h-1.03
						c-51.6,0.1-68.31,5.15-74.14,7.14c-13.19,20.93-20.49,47.03-24.31,72.93H248.95z"/>
					<path class="st7" d="M193.5,153.17h55.46c-3.82-25.89-11.12-52-24.31-72.93c-5.85-2-22.56-7.04-74.13-7.14h-1.03
						c-14.13,0.03-25.64,0.42-35.03,1.03L193.5,153.17z"/>
				</g>
			</g>
		</g>
	</g>
</g>
</svg>
