<?xml version="1.0" encoding="utf-8"?>
<!-- Generator: Adobe Illustrator 24.0.1, SVG Export Plug-In . SVG Version: 6.00 Build 0)  -->
<svg version="1.1" id="Layer_1" xmlns="http://www.w3.org/2000/svg" xmlns:xlink="http://www.w3.org/1999/xlink" x="0px" y="0px"
	 viewBox="0 0 300 300" style="enable-background:new 0 0 300 300;" xml:space="preserve">
<style type="text/css">
	.st0{fill:#1DA1F2;}
	.st1{fill:#FFFFFF;}
</style>
<g>
	<path id="Dark_Blue" class="st0" d="M262.5,300h-225C16.8,300,0,283.2,0,262.5v-225C0,16.8,16.8,0,37.5,0h225
		C283.2,0,300,16.8,300,37.5v225C300,283.2,283.2,300,262.5,300z"/>
	<path id="Logo__x2014__FIXED" class="st1" d="M115.2,226.2c70.72,0,109.42-58.65,109.42-109.42c0-1.65,0-3.3-0.07-4.95
		c7.5-5.4,14.02-12.22,19.2-19.95c-6.9,3.08-14.32,5.1-22.13,6.07c7.95-4.72,14.02-12.3,16.95-21.3c-7.43,4.43-15.68,7.57-24.45,9.3
		c-7.05-7.5-17.02-12.15-28.05-12.15c-21.23,0-38.48,17.25-38.48,38.48c0,3,0.38,5.92,0.98,8.77c-31.95-1.57-60.3-16.95-79.28-40.2
		c-3.3,5.7-5.18,12.3-5.18,19.35c0,13.35,6.83,25.13,17.1,32.03c-6.3-0.23-12.22-1.95-17.4-4.8v0.52c0,18.6,13.28,34.2,30.82,37.73
		c-3.22,0.9-6.6,1.35-10.12,1.35c-2.48,0-4.88-0.22-7.2-0.68c4.87,15.3,19.13,26.4,35.92,26.7c-13.2,10.35-29.78,16.5-47.78,16.5
		c-3.08,0-6.15-0.15-9.15-0.52C73.28,219.82,93.53,226.2,115.2,226.2"/>
</g>
</svg>
