<?xml version="1.0" encoding="utf-8"?>
<!-- Generator: Adobe Illustrator 24.0.1, SVG Export Plug-In . SVG Version: 6.00 Build 0)  -->
<svg version="1.1" id="Layer_1" xmlns="http://www.w3.org/2000/svg" xmlns:xlink="http://www.w3.org/1999/xlink" x="0px" y="0px"
	 viewBox="0 0 300 300" style="enable-background:new 0 0 300 300;" xml:space="preserve">
<style type="text/css">
	.st0{fill:#E6E7E8;}
	.st1{fill:#56CD93;}
	.st2{fill:#4CB08A;}
	.st3{fill:#A2DFFC;}
	.st4{fill:#312A20;}
	.st5{fill:#48443E;}
	.st6{fill:#111133;}
	.st7{fill:#3D687D;}
	.st8{clip-path:url(#SVGID_2_);fill:#3D687D;}
	.st9{clip-path:url(#SVGID_2_);}
	.st10{fill:#EEF0F3;}
	.st11{fill:#201600;}
	.st12{fill:#E2E2E2;}
</style>
<g>
	<ellipse class="st0" cx="150" cy="235.31" rx="150" ry="9.86"/>
	<g>
		<g>
			<path class="st1" d="M277.41,106.45c0.25,2.49-1.81,4.55-4.44,4.55H252.6v-6.37l24.38-2.53L277.41,106.45z"/>
			<path class="st2" d="M255.18,98.06l16.49-3.33c2.42-0.49,4.67,0.91,4.89,3.2l0.41,4.19l-24.38,2.53v-3.05
				C252.6,99.92,253.73,98.35,255.18,98.06z"/>
			<path class="st3" d="M256.74,98.86l14.39-2.91c2.11-0.43,4.07,0.8,4.27,2.79l0.36,3.66l0.37,3.79c0.22,2.18-1.58,3.98-3.87,3.98
				h-17.77v-5.56v-2.66C254.49,100.49,255.47,99.12,256.74,98.86z"/>
		</g>
		<g>
			<path class="st1" d="M23.06,106.45c-0.24,2.49,1.74,4.55,4.28,4.55h19.63v-6.37l-23.49-2.53L23.06,106.45z"/>
			<path class="st2" d="M44.48,98.06l-15.89-3.33c-2.33-0.49-4.5,0.91-4.72,3.2l-0.4,4.19l23.49,2.53v-3.05
				C46.96,99.92,45.88,98.35,44.48,98.06z"/>
			<path class="st3" d="M43.58,98.76l-14.39-2.91c-2.11-0.43-4.07,0.8-4.27,2.79l-0.36,3.66l-0.37,3.79
				c-0.22,2.18,1.58,3.98,3.87,3.98h17.77v-5.56v-2.66C45.83,100.38,44.85,99.02,43.58,98.76z"/>
		</g>
		<path class="st4" d="M63.17,235.79H46.66c-4.99,0-9.04-4.05-9.04-9.04v-34.62H72.2v34.62C72.2,231.75,68.16,235.79,63.17,235.79z"
			/>
		<path class="st5" d="M42.75,232.56c-2.04,0-3.69-1.78-3.69-3.97v-25.87h5.52v27.87C44.58,231.67,43.76,232.56,42.75,232.56z"/>
		<path class="st4" d="M252.04,235.79h-16.51c-4.99,0-9.04-4.05-9.04-9.04v-34.62h34.58v34.62
			C261.07,231.75,257.03,235.79,252.04,235.79z"/>
		<path class="st5" d="M253.87,232.56c2.04,0,3.69-1.78,3.69-3.97v-25.87h-5.52v27.87C252.04,231.67,252.86,232.56,253.87,232.56z"
			/>
		<path class="st1" d="M262.9,186.74l-113.19,13.61L37.09,186.74c-5.32,0-9.63-4.64-9.63-10.37v-26.45c0-7.95,1.73-15.79,5.04-22.9
			l10.42-22.32h214.14l10.42,22.32c3.32,7.11,5.05,14.95,5.05,22.9v26.45C272.53,182.1,268.22,186.74,262.9,186.74z"/>
		<g>
			
				<rect x="261.93" y="145" transform="matrix(0.7626 -0.6469 0.6469 0.7626 -40.1678 207.4974)" class="st6" width="1.33" height="26.95"/>
		</g>
		<g>
			
				<rect x="22.6" y="157.83" transform="matrix(0.6236 -0.7817 0.7817 0.6236 -109.5047 89.5419)" class="st6" width="31.28" height="1.33"/>
		</g>
		<path class="st1" d="M235.01,59.24c-20.91-2.14-63.74-4.41-85.34-4.41c-50.69,0-63.99,1.97-84.68,4.41
			c-10.59,1.25-15.96,5.67-17.26,14.14l-4.8,31.32h214.14l-4.8-31.32C250.96,64.91,244.99,60.27,235.01,59.24z"/>
		<path class="st1" d="M60.72,61.73c21.73-2.41,35.7-4.36,88.93-4.36c22.69,0,67.67,2.24,89.62,4.36c2.62,0.25,4.97,0.73,7.07,1.44
			c-2.87-2.12-6.65-3.44-11.33-3.92c-20.91-2.14-63.74-4.41-85.34-4.41c-50.69,0-63.99,1.97-84.68,4.41
			c-4.97,0.59-8.76,1.91-11.56,4.01C55.53,62.54,57.96,62.04,60.72,61.73z"/>
		<path class="st6" d="M229.96,66.86c-53.08-4.37-107.42-4.37-160.5,0c-7.9,0.69-13.38,7.15-14.37,15.63
			c-0.95,8.34-1.96,15.9-3.05,22.72c-0.36,2.19,2.16,4.97,4.66,5.22c62.5,5.68,123.52,5.68,186.02,0c2.5-0.24,5.02-3.02,4.66-5.22
			c-1.09-6.81-2.1-14.38-3.05-22.72C243.34,74.01,237.86,67.55,229.96,66.86z"/>
		<path class="st7" d="M149.71,112.24c-30.65,0-61.98-1.45-93.62-4.35c-0.55-0.05-0.99-0.52-1.11-0.66
			c-0.12-0.14-0.39-0.5-0.33-0.82c1.11-6.56,2.21-14.13,3.26-22.63c0.95-7.57,5.89-13.03,12.57-13.61
			c25.9-2.11,52.65-3.19,79.24-3.19c26.58,0,53.33,1.08,79.25,3.19c6.66,0.58,11.6,6.04,12.56,13.62
			c1.04,8.44,2.13,16.02,3.25,22.62c0.06,0.33-0.21,0.69-0.33,0.83c-0.25,0.29-0.68,0.62-1.13,0.66
			C211.69,110.79,180.36,112.24,149.71,112.24z"/>
		<path class="st1" d="M39.91,111.16c0,0,1.11,14.64,2.23,16.08c1.12,1.44-7.1,7.5-2.67,17.82c3.63,8.46-11.71-0.79-11.71-0.79
			s1.58-10.47,4.75-17.26C35.67,120.24,39.91,111.16,39.91,111.16z"/>
		<path class="st1" d="M260.1,111.16c0,0-1.12,14.64-2.23,16.08c-1.12,1.44,9.15,4.55,5.22,19.11c-2.4,8.89,9.16-2.08,9.16-2.08
			s-1.58-10.47-4.75-17.26C264.33,120.24,260.1,111.16,260.1,111.16z"/>
		<g>
			<defs>
				<path id="SVGID_1_" d="M149.71,112.24c-30.65,0-61.98-1.45-93.62-4.35c-0.55-0.05-0.99-0.52-1.11-0.66
					c-0.12-0.14-0.39-0.5-0.33-0.82c1.11-6.56,2.21-14.13,3.26-22.63c0.95-7.57,5.89-13.03,12.57-13.61
					c25.9-2.11,52.65-3.19,79.24-3.19c26.58,0,53.33,1.08,79.25,3.19c6.66,0.58,11.6,6.04,12.56,13.62
					c1.04,8.44,2.13,16.02,3.25,22.62c0.06,0.33-0.21,0.69-0.33,0.83c-0.25,0.29-0.68,0.62-1.13,0.66
					C211.69,110.79,180.36,112.24,149.71,112.24z"/>
			</defs>
			<clipPath id="SVGID_2_">
				<use xlink:href="#SVGID_1_"  style="overflow:visible;"/>
			</clipPath>
			<path class="st8" d="M149.71,106.34c-24.55,0-49.55-0.89-74.54-2.67c-0.44-0.03-0.74-0.32-0.82-0.4c-0.08-0.08-0.26-0.3-0.18-0.5
				c1.56-3.94,3.18-8.41,4.82-13.32c1.44-4.27,5.68-7.31,10.78-7.62c19.71-1.16,39.91-1.75,59.93-1.75
				c20.02,0,40.22,0.59,59.94,1.75c5.09,0.32,9.33,3.35,10.78,7.63c1.63,4.87,3.25,9.34,4.82,13.31c0.08,0.2-0.1,0.42-0.18,0.5
				c-0.17,0.18-0.47,0.38-0.83,0.4C199.26,105.44,174.26,106.34,149.71,106.34z"/>
			<path class="st8" d="M222.35,108.61H78.55c-4.49,0-8.16-3.67-8.16-8.16c0-4.49,3.67-8.16,8.16-8.16h143.8
				c4.49,0,8.16,3.67,8.16,8.16C230.51,104.94,226.84,108.61,222.35,108.61z"/>
			<path class="st8" d="M243.96,101.42c-31.78,2.14-63.28,3.28-94.25,3.28c-30.96,0-62.46-1.14-94.25-3.28
				c-0.27,1.72-0.54,3.39-0.81,4.99c-0.06,0.32,0.21,0.68,0.33,0.82c0.12,0.14,0.56,0.61,1.11,0.66c31.63,2.9,62.96,4.35,93.62,4.35
				s61.98-1.45,93.6-4.35c0.45-0.05,0.88-0.37,1.13-0.66c0.12-0.14,0.39-0.5,0.33-0.83C244.49,104.79,244.22,103.13,243.96,101.42z"
				/>
			<g class="st9">
				<polygon class="st7" points="192.77,130.79 176.37,130.79 245.81,52.55 267.1,52.55 				"/>
				<polygon class="st7" points="172.63,130.79 169.61,130.79 237.04,52.55 240.96,52.55 				"/>
				<polygon class="st7" points="132.74,132.19 116.42,132.19 167.65,54.89 188.79,54.89 				"/>
				<polygon class="st7" points="112.7,132.19 109.7,132.19 158.93,54.89 162.83,54.89 				"/>
				<polygon class="st7" points="69.29,132.19 52.97,132.19 85.43,54.89 106.57,54.89 				"/>
				<polygon class="st7" points="49.25,132.19 46.25,132.19 76.71,54.89 80.61,54.89 				"/>
				<polygon class="st7" points="139.01,132.19 136.01,132.19 193.03,54.89 196.93,54.89 				"/>
			</g>
		</g>
		<path class="st10" d="M76.08,148.51l-25.22-1.73c-4.47-0.31-8.25-2.67-8.8-5.52l-0.8-4.13c-0.63-3.26,4.07-5.93,9.17-5.21
			l26.31,3.73c2.95,0.42,5.18,2.15,5.18,4.03v5.54C81.92,147.25,79.29,148.73,76.08,148.51z"/>
		<path class="st10" d="M226.97,148.51l25.22-1.73c4.47-0.31,8.25-2.67,8.8-5.52l0.8-4.13c0.63-3.26-4.07-5.93-9.17-5.21
			l-26.31,3.73c-2.95,0.42-5.18,2.15-5.18,4.03v5.54C221.13,147.25,223.76,148.73,226.97,148.51z"/>
		<g>
			<path class="st11" d="M233.51,176.19c-7.33,0.42-14.44,3.29-19.13,8.51c-2.58,2.87-6.34,4.85-10.65,5.26l-4.93,0.47
				c-15.31,1.45-31.13,2.96-46.91,2.96c-15.78,0-31.6-1.5-46.91-2.96l-4.94-0.47c-4.29-0.4-8.02-2.36-10.59-5.2
				c-4.68-5.15-11.73-7.98-18.99-8.39c-14.9-0.83-29.1-1.89-43.97-3.19l-0.7,16.74c0,5.07,4.47,9.61,9.94,10.05
				c76.34,6.13,153.1,6.13,229.44,0c5.47-0.44,9.94-4.98,9.94-10.05l-1.09-16.64C260.17,174.49,247.39,175.39,233.51,176.19z"/>
			<path class="st2" d="M233.51,154.4c-7.33,0.42-14.44,3.29-19.13,8.51c-2.58,2.88-6.34,4.86-10.65,5.26l-4.93,0.47
				c-15.31,1.45-31.13,2.96-46.91,2.96c-15.78,0-31.6-1.5-46.91-2.96l-4.94-0.47c-4.29-0.4-8.02-2.36-10.59-5.2
				c-4.68-5.15-11.73-7.98-18.99-8.39c-14.9-0.83-28.11-1.74-42.98-3.04l-1.68,36.95c0,5.07,4.47,9.61,9.94,10.05
				c76.34,6.13,153.1,6.13,229.44,0c5.47-0.44,9.94-4.98,9.94-10.05l-2.58-36.07C258.68,153.63,247.39,153.6,233.51,154.4z"/>
		</g>
		<path class="st10" d="M233.66,171.93l13.59-1.15c2.41-0.21,4.44-1.78,4.74-3.67l0.43-2.75c0.34-2.17-2.19-3.95-4.94-3.47
			l-14.18,2.48c-1.59,0.28-2.79,1.43-2.79,2.68v3.69C230.51,171.09,231.93,172.08,233.66,171.93z"/>
		<path class="st10" d="M66.65,171.93l-13.02-1.15c-2.31-0.21-4.26-1.78-4.54-3.67l-0.41-2.75c-0.33-2.17,2.1-3.95,4.74-3.47
			l13.58,2.48c1.52,0.28,2.67,1.43,2.67,2.68v3.69C69.66,171.09,68.31,172.08,66.65,171.93z"/>
		<g>
			<path class="st6" d="M150.15,152.84c-3.23,0-6.47-0.11-9.68-0.34l-38.03-2.65c-6.1-0.43-11.52-3.87-14.52-9.2l-1.09-1.95
				c-1.77-3.16-4.98-5.3-8.59-5.72l-12.32-1.43c-5.73-0.66-10.9-3.48-14.55-7.94l-11.21-13.66l1.02-0.84l11.21,13.66
				c3.44,4.19,8.3,6.84,13.69,7.47l12.32,1.43c4.02,0.47,7.61,2.86,9.59,6.39l1.09,1.95c2.77,4.94,7.8,8.13,13.46,8.53l38.03,2.65
				c6.42,0.45,12.91,0.44,19.31-0.01l36.99-2.63c5.69-0.41,10.74-3.64,13.5-8.64l0.99-1.79c1.97-3.57,5.56-5.99,9.61-6.47
				l11.73-1.38c5.43-0.64,10.32-3.34,13.76-7.6l10.92-13.55l1.03,0.83l-10.92,13.55c-3.66,4.53-8.85,7.4-14.63,8.08l-11.73,1.38
				c-3.63,0.43-6.85,2.6-8.61,5.79l-0.99,1.79c-2.97,5.4-8.41,8.88-14.56,9.32l-36.99,2.63
				C156.71,152.72,153.43,152.84,150.15,152.84z"/>
		</g>
		<g>
			<rect x="127.45" y="180.5" class="st12" width="44.52" height="13.91"/>
			<path class="st6" d="M172.42,194.86h-45.43v-14.81h45.43V194.86z M127.9,193.95h43.62v-13.01H127.9V193.95z"/>
		</g>
	</g>
</g>
</svg>
