<?xml version="1.0" encoding="utf-8"?>
<!-- Generator: Adobe Illustrator 24.0.1, SVG Export Plug-In . SVG Version: 6.00 Build 0)  -->
<svg version="1.1" id="Layer_1" xmlns="http://www.w3.org/2000/svg" xmlns:xlink="http://www.w3.org/1999/xlink" x="0px" y="0px"
	 viewBox="0 0 300 300" style="enable-background:new 0 0 300 300;" xml:space="preserve">
<style type="text/css">
	.st0{fill:#E6E7E8;}
	.st1{fill:url(#SVGID_1_);}
	.st2{fill:#424242;}
	.st3{fill:url(#SVGID_2_);}
	.st4{fill:#4CB08A;}
	.st5{fill:url(#SVGID_3_);}
	.st6{fill:url(#SVGID_4_);}
	.st7{fill:url(#SVGID_5_);}
	.st8{fill:#303030;}
	.st9{fill:#474747;}
	.st10{fill:url(#SVGID_6_);}
	.st11{fill:#FFFFFF;}
	.st12{fill:url(#SVGID_7_);}
	.st13{fill:#FAD2AC;}
	.st14{fill:url(#SVGID_8_);}
	.st15{fill:url(#SVGID_9_);}
	.st16{fill:url(#SVGID_10_);}
	.st17{fill:#FCFBF9;}
	.st18{fill:#F9F7F4;}
	.st19{fill:#F6F3EE;}
	.st20{fill:#F3EFE9;}
	.st21{fill:#F0EBE3;}
	.st22{fill:#EEE6DE;}
	.st23{fill:#EBE2D8;}
	.st24{fill:#E8DED3;}
	.st25{fill:#E5DACD;}
	.st26{fill:#E2D6C8;}
	.st27{fill:#DFD2C2;}
	.st28{fill:url(#SVGID_11_);}
	.st29{fill:url(#SVGID_12_);}
	.st30{fill:url(#SVGID_13_);}
	.st31{fill:url(#SVGID_14_);}
</style>
<g>
	<ellipse class="st0" cx="150" cy="246.88" rx="150" ry="9.86"/>
	<g>
		<g>
			<g>
				<linearGradient id="SVGID_1_" gradientUnits="userSpaceOnUse" x1="235.172" y1="205.3811" x2="269.6441" y2="205.3811">
					<stop  offset="0" style="stop-color:#5F5A5E"/>
					<stop  offset="0.411" style="stop-color:#000000"/>
					<stop  offset="0.531" style="stop-color:#060506"/>
					<stop  offset="0.6864" style="stop-color:#161516"/>
					<stop  offset="0.8604" style="stop-color:#302E30"/>
					<stop  offset="1" style="stop-color:#4A484B"/>
				</linearGradient>
				<path class="st1" d="M245.1,164.61h14.63c5.48,0,9.91,4.43,9.91,9.91v30.87v30.87c0,5.48-4.43,9.91-9.91,9.91H245.1
					c-5.48,0-9.92-4.43-9.92-9.91v-30.87v-30.87C235.17,169.04,239.62,164.61,245.1,164.61z"/>
				<g>
					<polygon class="st2" points="252.41,243.01 269.64,232.84 269.64,229.05 252.41,239.22 					"/>
					<path class="st2" d="M252.41,175.83l14.24-8.4c-0.87-0.84-1.88-1.53-3.01-2.02l-11.23,6.63V175.83z"/>
					<polygon class="st2" points="252.41,233.41 269.64,223.24 269.64,219.45 252.41,229.63 					"/>
					<path class="st2" d="M259.73,246.15c4.56,0,8.36-3.09,9.52-7.27l-12.32,7.27H259.73z"/>
					<polygon class="st2" points="252.41,223.82 269.64,213.64 269.64,209.85 252.41,220.03 					"/>
					<polygon class="st2" points="252.41,195.03 269.64,184.85 269.64,181.06 252.41,191.24 					"/>
					<path class="st2" d="M269.2,171.73l-16.79,9.91v3.79l17.23-10.17v-0.74C269.64,173.54,269.46,172.62,269.2,171.73z"/>
					<polygon class="st2" points="252.41,214.22 269.64,204.05 269.64,200.26 252.41,210.43 					"/>
					<polygon class="st2" points="252.41,204.62 269.64,194.45 269.64,190.66 252.41,200.83 					"/>
					<polygon class="st2" points="252.44,195.8 235.17,186.01 235.17,189.84 252.44,199.62 					"/>
					<polygon class="st2" points="252.44,186.2 235.17,176.41 235.17,180.24 252.44,190.03 					"/>
					<path class="st2" d="M252.44,167.01l-4.23-2.4h-3.11c-0.99,0-1.93,0.19-2.83,0.46l10.17,5.76V167.01z"/>
					<path class="st2" d="M252.44,176.6l-14.9-8.44c-0.72,0.85-1.3,1.8-1.7,2.86l16.6,9.41V176.6z"/>
					<polygon class="st2" points="252.44,224.59 235.17,214.8 235.17,218.63 252.44,228.41 					"/>
					<path class="st2" d="M235.17,236.25c0,0.57,0.07,1.12,0.17,1.67l14.53,8.24h2.57v-2.37L235.17,234V236.25z"/>
					<polygon class="st2" points="252.44,234.19 235.17,224.4 235.17,228.22 252.44,238.01 					"/>
					<polygon class="st2" points="252.44,205.39 235.17,195.61 235.17,199.43 252.44,209.22 					"/>
					<polygon class="st2" points="252.44,214.99 235.17,205.2 235.17,205.38 235.17,209.03 252.44,218.82 					"/>
				</g>
			</g>
			<g>
				<linearGradient id="SVGID_2_" gradientUnits="userSpaceOnUse" x1="24.2156" y1="205.0985" x2="58.6874" y2="205.0985">
					<stop  offset="0" style="stop-color:#5F5A5E"/>
					<stop  offset="0.411" style="stop-color:#000000"/>
					<stop  offset="0.531" style="stop-color:#060506"/>
					<stop  offset="0.6864" style="stop-color:#161516"/>
					<stop  offset="0.8604" style="stop-color:#302E30"/>
					<stop  offset="1" style="stop-color:#4A484B"/>
				</linearGradient>
				<path class="st3" d="M34.14,164.32h14.63c5.48,0,9.91,4.43,9.91,9.91v30.87v30.87c0,5.48-4.43,9.91-9.91,9.91H34.14
					c-5.48,0-9.92-4.43-9.92-9.91V205.1v-30.87C24.22,168.76,28.66,164.32,34.14,164.32z"/>
				<g>
					<polygon class="st2" points="41.45,242.73 58.69,232.55 58.69,228.77 41.45,238.94 					"/>
					<path class="st2" d="M41.45,175.55l14.24-8.4c-0.87-0.84-1.88-1.53-3.01-2.02l-11.23,6.63V175.55z"/>
					<polygon class="st2" points="41.45,233.13 58.69,222.96 58.69,219.17 41.45,229.34 					"/>
					<path class="st2" d="M48.77,245.87c4.56,0,8.36-3.09,9.52-7.27l-12.32,7.27H48.77z"/>
					<polygon class="st2" points="41.45,223.53 58.69,213.36 58.69,209.57 41.45,219.75 					"/>
					<polygon class="st2" points="41.45,194.74 58.69,184.57 58.69,180.78 41.45,190.95 					"/>
					<path class="st2" d="M58.24,171.44l-16.79,9.91v3.79l17.23-10.17v-0.74C58.69,173.26,58.5,172.33,58.24,171.44z"/>
					<polygon class="st2" points="41.45,213.94 58.69,203.76 58.69,199.97 41.45,210.15 					"/>
					<polygon class="st2" points="41.45,204.34 58.69,194.17 58.69,190.38 41.45,200.55 					"/>
					<polygon class="st2" points="41.48,195.51 24.22,185.73 24.22,189.55 41.48,199.34 					"/>
					<polygon class="st2" points="41.48,185.92 24.22,176.13 24.22,179.96 41.48,189.74 					"/>
					<path class="st2" d="M41.48,166.72l-4.23-2.4h-3.11c-0.99,0-1.93,0.19-2.83,0.46l10.17,5.76V166.72z"/>
					<path class="st2" d="M41.48,176.32l-14.9-8.44c-0.72,0.85-1.3,1.8-1.7,2.86l16.6,9.41V176.32z"/>
					<polygon class="st2" points="41.48,224.31 24.22,214.52 24.22,218.35 41.48,228.13 					"/>
					<path class="st2" d="M24.22,235.96c0,0.57,0.07,1.12,0.17,1.67l14.53,8.24h2.57v-2.37l-17.27-9.79V235.96z"/>
					<polygon class="st2" points="41.48,233.9 24.22,224.12 24.22,227.94 41.48,237.73 					"/>
					<polygon class="st2" points="41.48,205.11 24.22,195.32 24.22,199.15 41.48,208.94 					"/>
					<polygon class="st2" points="41.48,214.71 24.22,204.92 24.22,205.1 24.22,208.75 41.48,218.53 					"/>
				</g>
			</g>
			<g>
				<path class="st4" d="M240.92,92.91c0,0-1.8-10.89,10.19-8.17c11.99,2.72,15.93,2.45,15.59,14.15
					c-0.15,5.16-27.79,2.72-27.79,2.72l-5.19-8.42L240.92,92.91z"/>
				<path d="M252.17,100.61c-5.23,0-10.4-0.36-12.32-0.51l-3.34-5.42l6.27-0.26l-0.28-1.77c0-0.03-0.51-3.34,1.15-5.28
					c0.85-0.99,2.15-1.48,3.97-1.48c0.93,0,1.99,0.13,3.16,0.4l2.98,0.66c9.64,2.1,11.64,2.54,11.37,11.9l0,0
					C265.08,98.85,263.76,100.61,252.17,100.61z"/>
			</g>
			<g>
				<path class="st4" d="M53.61,92.91c0,0,1.8-10.89-10.19-8.17C31.42,87.47,27.49,87.2,27.82,98.9c0.15,5.16,27.79,2.72,27.79,2.72
					l5.19-8.42L53.61,92.91z"/>
				<path d="M42.36,100.61c5.23,0,10.4-0.36,12.32-0.51l3.34-5.42l-6.27-0.26l0.28-1.77c0-0.03,0.51-3.34-1.15-5.28
					c-0.85-0.99-2.15-1.48-3.97-1.48c-0.93,0-1.99,0.13-3.16,0.4l-2.98,0.66c-9.64,2.1-11.64,2.54-11.37,11.9l0,0
					C29.45,98.85,30.77,100.61,42.36,100.61z"/>
			</g>
			<linearGradient id="SVGID_3_" gradientUnits="userSpaceOnUse" x1="147.0152" y1="41.2859" x2="147.0152" y2="182.5334">
				<stop  offset="0.4218" style="stop-color:#56CD93"/>
				<stop  offset="0.5339" style="stop-color:#4CB08A"/>
			</linearGradient>
			<path class="st5" d="M247.93,92.43c-5.38-11.75-10.22-32.23-18.15-44.13c-1.95-2.92-6.73-5.03-10.24-5.03
				c-25.71,0-119.35,0-145.06,0c-3.51,0-8.29,2.1-10.23,5.03C56.32,60.2,51.48,80.67,46.1,92.43c-1.44,3.14-23.12,23.15-23.12,23.15
				v59.39c0,3.51,2.85,6.35,6.36,6.33l117.68-0.65l117.68,0.65c3.51,0.02,6.36-2.81,6.36-6.33v-59.39
				C271.05,115.57,249.37,95.57,247.93,92.43z"/>
			<linearGradient id="SVGID_4_" gradientUnits="userSpaceOnUse" x1="147.0152" y1="113.9911" x2="147.0152" y2="171.6276">
				<stop  offset="0" style="stop-color:#4A4A4A"/>
				<stop  offset="0.2272" style="stop-color:#383838"/>
				<stop  offset="1" style="stop-color:#000000"/>
			</linearGradient>
			<polygon class="st6" points="248.29,166.46 45.75,166.46 40.04,132.28 40.06,112.28 253.97,112.28 253.99,130.62 			"/>
			<linearGradient id="SVGID_5_" gradientUnits="userSpaceOnUse" x1="147.088" y1="170.4714" x2="147.088" y2="203.2902">
				<stop  offset="0" style="stop-color:#5F5A5E"/>
				<stop  offset="0.2754" style="stop-color:#262529"/>
				<stop  offset="0.4762" style="stop-color:#29282C"/>
				<stop  offset="0.6286" style="stop-color:#333135"/>
				<stop  offset="0.7647" style="stop-color:#434144"/>
				<stop  offset="0.8093" style="stop-color:#4A484B"/>
			</linearGradient>
			<path class="st7" d="M221.73,174.41l-24.32-3.94H95.47l-24.32,3.94H22.81c0,4.68,0.21,18.02,0.21,18.02
				c0,5.82,9.24,10.54,20.64,10.54h207.05c11.4,0,20.64-4.71,20.64-10.54c0-5.81-0.08-13.51-0.08-18.02H221.73z"/>
			<g>
				<path class="st8" d="M71.17,95.87c-0.53,0-0.77-0.14-0.8-0.17c-0.02-0.04-0.04-0.31,0.18-0.79l9.34-33.71
					c2-3.39,8.11-6.71,12.49-6.71h109.4c4.38,0,10.49,3.32,12.56,6.83l9.28,33.59c0.22,0.48,0.2,0.75,0.17,0.79
					c-0.03,0.03-0.26,0.17-0.79,0.17H71.17z"/>
				<g>
					<path class="st9" d="M201.79,57.16H92.38c-3.67,0-8.64,2.89-10.22,5.26L78.3,73.37l132.41-12.33
						C208.4,58.95,204.52,57.16,201.79,57.16z"/>
					<path d="M210.71,61.03L78.3,73.37l-4.46,19.84h146.49l-8.26-30.67C211.74,62.03,211.25,61.53,210.71,61.03z"/>
				</g>
			</g>
			<linearGradient id="SVGID_6_" gradientUnits="userSpaceOnUse" x1="109.0024" y1="174.4965" x2="185.0278" y2="174.4965">
				<stop  offset="0" style="stop-color:#5F5A5E"/>
				<stop  offset="0.2754" style="stop-color:#262529"/>
				<stop  offset="0.4762" style="stop-color:#29282C"/>
				<stop  offset="0.6286" style="stop-color:#333135"/>
				<stop  offset="0.7647" style="stop-color:#434144"/>
				<stop  offset="0.8093" style="stop-color:#4A484B"/>
			</linearGradient>
			<rect x="109" y="166.46" class="st10" width="76.03" height="16.06"/>
			<rect x="110.59" y="168.05" class="st11" width="72.84" height="12.88"/>
			<g>
				<linearGradient id="SVGID_7_" gradientUnits="userSpaceOnUse" x1="243.2659" y1="180.8945" x2="243.2659" y2="189.1407">
					<stop  offset="0" style="stop-color:#DB2A24"/>
					<stop  offset="1" style="stop-color:#A10600"/>
				</linearGradient>
				<path class="st12" d="M249.69,187.32c0-3.55-2.88-6.43-6.43-6.43c-3.55,0-6.43,2.88-6.43,6.43c0,0.64,0.12,1.24,0.29,1.82h12.27
					C249.57,188.56,249.69,187.96,249.69,187.32z"/>
				<path class="st13" d="M237.13,189.14c0.79,2.66,3.22,4.61,6.14,4.61c2.91,0,5.35-1.95,6.14-4.61H237.13z"/>
			</g>
			<g>
				<linearGradient id="SVGID_8_" gradientUnits="userSpaceOnUse" x1="51.0005" y1="180.8945" x2="51.0005" y2="189.1407">
					<stop  offset="0" style="stop-color:#DB2A24"/>
					<stop  offset="1" style="stop-color:#A10600"/>
				</linearGradient>
				<path class="st14" d="M57.43,187.32c0-3.55-2.88-6.43-6.43-6.43c-3.55,0-6.43,2.88-6.43,6.43c0,0.64,0.12,1.24,0.29,1.82h12.27
					C57.31,188.56,57.43,187.96,57.43,187.32z"/>
				<path class="st13" d="M44.86,189.14c0.79,2.66,3.22,4.61,6.14,4.61c2.91,0,5.35-1.95,6.14-4.61H44.86z"/>
			</g>
			<g>
				<linearGradient id="SVGID_9_" gradientUnits="userSpaceOnUse" x1="247.8908" y1="123.2823" x2="247.8908" y2="157.4723">
					<stop  offset="0" style="stop-color:#FFFFFF"/>
					<stop  offset="0.0598" style="stop-color:#EAEAEA"/>
					<stop  offset="0.2445" style="stop-color:#B0B0B0"/>
					<stop  offset="0.4229" style="stop-color:#808080"/>
					<stop  offset="0.5908" style="stop-color:#5A5A5A"/>
					<stop  offset="0.7455" style="stop-color:#3F3F3F"/>
					<stop  offset="0.8825" style="stop-color:#2F2F2F"/>
					<stop  offset="0.9873" style="stop-color:#292929"/>
				</linearGradient>
				<path class="st15" d="M255.65,123.76h-0.48c-3.88,0-8.4,2.82-10.11,6.3l-10.21,20.81c-1.71,3.48,0.05,6.3,3.93,6.3h11.17
					c3.88,0,7.55-3.1,8.2-6.92l3.35-19.58C262.14,126.86,259.53,123.76,255.65,123.76z"/>
				<linearGradient id="SVGID_10_" gradientUnits="userSpaceOnUse" x1="247.8919" y1="125.0877" x2="247.8919" y2="155.6861">
					<stop  offset="0" style="stop-color:#DB2A24"/>
					<stop  offset="1" style="stop-color:#A10600"/>
				</linearGradient>
				<path class="st16" d="M238.78,155.42c-1.23,0-2.16-0.37-2.57-1.02c-0.41-0.65-0.33-1.65,0.21-2.76l10.21-20.81
					c1.41-2.88,5.32-5.32,8.53-5.32h0.48c1.35,0,2.51,0.5,3.28,1.4c0.76,0.9,1.06,2.13,0.83,3.46l-3.34,19.58
					c-0.51,2.96-3.47,5.46-6.47,5.46H238.78z"/>
				<g>
					<path class="st11" d="M249.42,135.66c-0.19-0.87,0.55-3.15,2.02-2.38c1.48,0.77,2.85-0.48,3.54-0.77
						c0.69-0.29,1.5,1.25,0.8,2.99C255.09,137.23,250.79,141.88,249.42,135.66z"/>
					<path class="st17" d="M249.66,135.62c-0.18-0.8,0.51-2.91,1.88-2.2c1.37,0.71,2.64-0.44,3.28-0.72
						c0.64-0.27,1.39,1.16,0.74,2.77C254.9,137.08,250.93,141.39,249.66,135.62z"/>
					<path class="st18" d="M249.89,135.58c-0.16-0.74,0.47-2.68,1.73-2.03c1.26,0.65,2.43-0.41,3.02-0.66
						c0.59-0.25,1.28,1.07,0.68,2.55C254.72,136.92,251.06,140.89,249.89,135.58z"/>
					<path class="st19" d="M250.12,135.54c-0.15-0.67,0.43-2.45,1.58-1.85c1.15,0.6,2.22-0.37,2.76-0.6
						c0.54-0.23,1.17,0.98,0.62,2.33C254.54,136.77,251.19,140.39,250.12,135.54z"/>
					<path class="st20" d="M250.36,135.5c-0.13-0.61,0.39-2.22,1.43-1.68c1.04,0.54,2.01-0.34,2.5-0.55
						c0.48-0.21,1.06,0.88,0.56,2.11C254.35,136.61,251.33,139.89,250.36,135.5z"/>
					<path class="st21" d="M250.59,135.46c-0.12-0.55,0.35-1.99,1.28-1.5c0.93,0.48,1.8-0.3,2.23-0.49c0.43-0.19,0.95,0.79,0.5,1.89
						C254.17,136.45,251.46,139.39,250.59,135.46z"/>
					<path class="st22" d="M250.83,135.42c-0.11-0.48,0.31-1.76,1.13-1.33c0.83,0.43,1.59-0.27,1.97-0.43
						c0.38-0.16,0.83,0.7,0.45,1.67C253.99,136.3,251.59,138.89,250.83,135.42z"/>
					<path class="st23" d="M251.06,135.39c-0.09-0.42,0.27-1.52,0.98-1.15c0.72,0.37,1.38-0.23,1.71-0.38
						c0.33-0.14,0.72,0.61,0.39,1.45C253.8,136.14,251.73,138.4,251.06,135.39z"/>
					<path class="st24" d="M251.3,135.35c-0.08-0.36,0.23-1.29,0.83-0.98c0.61,0.32,1.17-0.2,1.45-0.32
						c0.28-0.12,0.61,0.52,0.33,1.23C253.62,135.99,251.86,137.9,251.3,135.35z"/>
					<path class="st25" d="M251.53,135.31c-0.06-0.29,0.18-1.06,0.68-0.8c0.5,0.26,0.96-0.16,1.19-0.26c0.23-0.1,0.5,0.42,0.27,1.01
						C253.44,135.83,251.99,137.4,251.53,135.31z"/>
					<path class="st26" d="M251.77,135.27c-0.05-0.23,0.14-0.83,0.53-0.63c0.39,0.2,0.75-0.13,0.93-0.21
						c0.18-0.08,0.39,0.33,0.21,0.79C253.26,135.68,252.12,136.9,251.77,135.27z"/>
					<path class="st27" d="M252,135.23c-0.03-0.16,0.1-0.6,0.38-0.45c0.29,0.15,0.54-0.09,0.67-0.15c0.13-0.05,0.28,0.24,0.15,0.57
						C253.07,135.52,252.26,136.4,252,135.23z"/>
				</g>
				<g>
					<path class="st11" d="M252.84,147.47c0,3.38-2.83,6.11-6.32,6.11c-3.49,0-6.32-2.73-6.32-6.11c0-3.38,2.83-6.12,6.32-6.12
						C250.02,141.35,252.84,144.09,252.84,147.47z"/>
					<path class="st17" d="M252.49,147.47c0,3.19-2.67,5.76-5.96,5.76c-3.29,0-5.96-2.58-5.96-5.76c0-3.19,2.67-5.77,5.96-5.77
						C249.82,141.7,252.49,144.28,252.49,147.47z"/>
					<path class="st18" d="M252.13,147.47c0,2.99-2.51,5.42-5.6,5.42c-3.1,0-5.6-2.42-5.6-5.42c0-3,2.51-5.43,5.6-5.43
						C249.62,142.04,252.13,144.47,252.13,147.47z"/>
					<path class="st19" d="M251.77,147.47c0,2.8-2.35,5.07-5.25,5.07c-2.9,0-5.25-2.27-5.25-5.07c0-2.81,2.35-5.08,5.25-5.08
						C249.43,142.39,251.77,144.66,251.77,147.47z"/>
					<path class="st20" d="M251.42,147.47c0,2.61-2.19,4.73-4.89,4.73c-2.7,0-4.89-2.12-4.89-4.73c0-2.62,2.19-4.74,4.89-4.74
						C249.23,142.73,251.42,144.85,251.42,147.47z"/>
					<path class="st21" d="M251.06,147.47c0,2.42-2.03,4.38-4.53,4.38c-2.51,0-4.53-1.96-4.53-4.38c0-2.43,2.03-4.39,4.53-4.39
						C249.03,143.08,251.06,145.04,251.06,147.47z"/>
					<path class="st22" d="M250.7,147.47c0,2.23-1.87,4.04-4.18,4.04c-2.31,0-4.18-1.81-4.18-4.04c0-2.24,1.87-4.05,4.18-4.05
						C248.84,143.42,250.7,145.23,250.7,147.47z"/>
					<path class="st23" d="M250.35,147.47c0,2.04-1.71,3.69-3.82,3.69c-2.11,0-3.82-1.65-3.82-3.69c0-2.05,1.71-3.7,3.82-3.7
						C248.64,143.77,250.35,145.42,250.35,147.47z"/>
					<path class="st24" d="M249.99,147.47c0,1.85-1.55,3.35-3.46,3.35c-1.92,0-3.46-1.5-3.46-3.35c0-1.85,1.55-3.35,3.46-3.35
						C248.44,144.11,249.99,145.61,249.99,147.47z"/>
					<path class="st25" d="M249.64,147.47c0,1.66-1.39,3-3.11,3c-1.72,0-3.11-1.35-3.11-3c0-1.66,1.39-3.01,3.11-3.01
						C248.24,144.46,249.64,145.81,249.64,147.47z"/>
					<path class="st26" d="M249.28,147.47c0,1.47-1.23,2.66-2.75,2.66c-1.52,0-2.75-1.19-2.75-2.66c0-1.47,1.23-2.66,2.75-2.66
						C248.05,144.8,249.28,146,249.28,147.47z"/>
					<path class="st27" d="M248.92,147.47c0,1.28-1.07,2.31-2.39,2.31c-1.33,0-2.39-1.04-2.39-2.31c0-1.28,1.07-2.32,2.39-2.32
						C247.85,145.15,248.92,146.19,248.92,147.47z"/>
				</g>
			</g>
			<g>
				
					<linearGradient id="SVGID_11_" gradientUnits="userSpaceOnUse" x1="548.4771" y1="123.2823" x2="548.4771" y2="157.4723" gradientTransform="matrix(-1 0 0 1 597.5176 0)">
					<stop  offset="0" style="stop-color:#FFFFFF"/>
					<stop  offset="0.0598" style="stop-color:#EAEAEA"/>
					<stop  offset="0.2445" style="stop-color:#B0B0B0"/>
					<stop  offset="0.4229" style="stop-color:#808080"/>
					<stop  offset="0.5908" style="stop-color:#5A5A5A"/>
					<stop  offset="0.7455" style="stop-color:#3F3F3F"/>
					<stop  offset="0.8825" style="stop-color:#2F2F2F"/>
					<stop  offset="0.9873" style="stop-color:#292929"/>
				</linearGradient>
				<path class="st28" d="M41.28,123.76h0.48c3.88,0,8.4,2.82,10.11,6.3l10.21,20.81c1.71,3.48-0.05,6.3-3.93,6.3H46.99
					c-3.88,0-7.55-3.1-8.2-6.92l-3.35-19.58C34.79,126.86,37.41,123.76,41.28,123.76z"/>
				
					<linearGradient id="SVGID_12_" gradientUnits="userSpaceOnUse" x1="548.4783" y1="125.0877" x2="548.4783" y2="155.6861" gradientTransform="matrix(-1 0 0 1 597.5176 0)">
					<stop  offset="0" style="stop-color:#DB2A24"/>
					<stop  offset="1" style="stop-color:#A10600"/>
				</linearGradient>
				<path class="st29" d="M58.16,155.42c1.23,0,2.16-0.37,2.57-1.02c0.41-0.65,0.33-1.65-0.21-2.76L50.3,130.83
					c-1.41-2.88-5.32-5.32-8.53-5.32h-0.48c-1.35,0-2.51,0.5-3.28,1.4c-0.76,0.9-1.06,2.13-0.83,3.46l3.34,19.58
					c0.51,2.96,3.47,5.46,6.47,5.46H58.16z"/>
				<g>
					<path class="st11" d="M47.51,135.66c0.19-0.87-0.55-3.15-2.02-2.38c-1.48,0.77-2.85-0.48-3.54-0.77
						c-0.69-0.29-1.5,1.25-0.8,2.99C41.84,137.23,46.14,141.88,47.51,135.66z"/>
					<path class="st17" d="M47.28,135.62c0.18-0.8-0.51-2.91-1.88-2.2c-1.37,0.71-2.64-0.44-3.28-0.72
						c-0.64-0.27-1.39,1.16-0.74,2.77C42.03,137.08,46,141.39,47.28,135.62z"/>
					<path class="st18" d="M47.04,135.58c0.16-0.74-0.47-2.68-1.73-2.03c-1.26,0.65-2.43-0.41-3.02-0.66
						c-0.59-0.25-1.28,1.07-0.68,2.55C42.21,136.92,45.87,140.89,47.04,135.58z"/>
					<path class="st19" d="M46.81,135.54c0.15-0.67-0.43-2.45-1.58-1.85c-1.15,0.6-2.22-0.37-2.76-0.6
						c-0.54-0.23-1.17,0.98-0.62,2.33C42.39,136.77,45.74,140.39,46.81,135.54z"/>
					<path class="st20" d="M46.57,135.5c0.13-0.61-0.39-2.22-1.43-1.68c-1.04,0.54-2.01-0.34-2.5-0.55
						c-0.48-0.21-1.06,0.88-0.56,2.11C42.58,136.61,45.6,139.89,46.57,135.5z"/>
					<path class="st21" d="M46.34,135.46c0.12-0.55-0.35-1.99-1.28-1.5c-0.93,0.48-1.8-0.3-2.23-0.49c-0.43-0.19-0.95,0.79-0.5,1.89
						C42.76,136.45,45.47,139.39,46.34,135.46z"/>
					<path class="st22" d="M46.1,135.42c0.11-0.48-0.31-1.76-1.13-1.33c-0.83,0.43-1.59-0.27-1.97-0.43
						c-0.38-0.16-0.83,0.7-0.45,1.67C42.94,136.3,45.34,138.89,46.1,135.42z"/>
					<path class="st23" d="M45.87,135.39c0.09-0.42-0.27-1.52-0.98-1.15c-0.72,0.37-1.38-0.23-1.71-0.38
						c-0.33-0.14-0.72,0.61-0.39,1.45C43.13,136.14,45.2,138.4,45.87,135.39z"/>
					<path class="st24" d="M45.63,135.35c0.08-0.36-0.23-1.29-0.83-0.98c-0.61,0.32-1.17-0.2-1.45-0.32
						c-0.28-0.12-0.61,0.52-0.33,1.23C43.31,135.99,45.07,137.9,45.63,135.35z"/>
					<path class="st25" d="M45.4,135.31c0.06-0.29-0.18-1.06-0.68-0.8c-0.5,0.26-0.96-0.16-1.19-0.26c-0.23-0.1-0.5,0.42-0.27,1.01
						C43.49,135.83,44.94,137.4,45.4,135.31z"/>
					<path class="st26" d="M45.17,135.27c0.05-0.23-0.14-0.83-0.53-0.63c-0.39,0.2-0.75-0.13-0.93-0.21
						c-0.18-0.08-0.39,0.33-0.21,0.79C43.68,135.68,44.81,136.9,45.17,135.27z"/>
					<path class="st27" d="M44.93,135.23c0.03-0.16-0.1-0.6-0.38-0.45c-0.29,0.15-0.54-0.09-0.67-0.15
						c-0.13-0.05-0.28,0.24-0.15,0.57C43.86,135.52,44.67,136.4,44.93,135.23z"/>
				</g>
				<g>
					<path class="st11" d="M44.09,147.47c0,3.38,2.83,6.11,6.32,6.11c3.49,0,6.32-2.73,6.32-6.11c0-3.38-2.83-6.12-6.32-6.12
						C46.91,141.35,44.09,144.09,44.09,147.47z"/>
					<path class="st17" d="M44.44,147.47c0,3.19,2.67,5.76,5.96,5.76c3.29,0,5.96-2.58,5.96-5.76c0-3.19-2.67-5.77-5.96-5.77
						C47.11,141.7,44.44,144.28,44.44,147.47z"/>
					<path class="st18" d="M44.8,147.47c0,2.99,2.51,5.42,5.6,5.42c3.1,0,5.6-2.42,5.6-5.42c0-3-2.51-5.43-5.6-5.43
						C47.31,142.04,44.8,144.47,44.8,147.47z"/>
					<path class="st19" d="M45.16,147.47c0,2.8,2.35,5.07,5.25,5.07c2.9,0,5.25-2.27,5.25-5.07c0-2.81-2.35-5.08-5.25-5.08
						C47.5,142.39,45.16,144.66,45.16,147.47z"/>
					<path class="st20" d="M45.51,147.47c0,2.61,2.19,4.73,4.89,4.73c2.7,0,4.89-2.12,4.89-4.73c0-2.62-2.19-4.74-4.89-4.74
						C47.7,142.73,45.51,144.85,45.51,147.47z"/>
					<path class="st21" d="M45.87,147.47c0,2.42,2.03,4.38,4.53,4.38c2.51,0,4.53-1.96,4.53-4.38c0-2.43-2.03-4.39-4.53-4.39
						C47.9,143.08,45.87,145.04,45.87,147.47z"/>
					<path class="st22" d="M46.23,147.47c0,2.23,1.87,4.04,4.18,4.04c2.31,0,4.18-1.81,4.18-4.04c0-2.24-1.87-4.05-4.18-4.05
						C48.1,143.42,46.23,145.23,46.23,147.47z"/>
					<path class="st23" d="M46.58,147.47c0,2.04,1.71,3.69,3.82,3.69c2.11,0,3.82-1.65,3.82-3.69c0-2.05-1.71-3.7-3.82-3.7
						C48.29,143.77,46.58,145.42,46.58,147.47z"/>
					<path class="st24" d="M46.94,147.47c0,1.85,1.55,3.35,3.46,3.35c1.92,0,3.46-1.5,3.46-3.35c0-1.85-1.55-3.35-3.46-3.35
						C48.49,144.11,46.94,145.61,46.94,147.47z"/>
					<path class="st25" d="M47.3,147.47c0,1.66,1.39,3,3.11,3c1.72,0,3.11-1.35,3.11-3c0-1.66-1.39-3.01-3.11-3.01
						C48.69,144.46,47.3,145.81,47.3,147.47z"/>
					<path class="st26" d="M47.65,147.47c0,1.47,1.23,2.66,2.75,2.66c1.52,0,2.75-1.19,2.75-2.66c0-1.47-1.23-2.66-2.75-2.66
						C48.88,144.8,47.65,146,47.65,147.47z"/>
					<path class="st27" d="M48.01,147.47c0,1.28,1.07,2.31,2.39,2.31c1.33,0,2.39-1.04,2.39-2.31c0-1.28-1.07-2.32-2.39-2.32
						C49.08,145.15,48.01,146.19,48.01,147.47z"/>
				</g>
			</g>
			<linearGradient id="SVGID_13_" gradientUnits="userSpaceOnUse" x1="148.4656" y1="135.3449" x2="148.4656" y2="139.144">
				<stop  offset="0" style="stop-color:#4A4A4A"/>
				<stop  offset="0.2272" style="stop-color:#383838"/>
				<stop  offset="1" style="stop-color:#000000"/>
			</linearGradient>
			<path class="st30" d="M157.73,137.02c0,0.98-4.15,1.79-9.26,1.79c-5.12,0-9.26-0.8-9.26-1.79s4.15-1.79,9.26-1.79
				C153.58,135.23,157.73,136.03,157.73,137.02z"/>
			<linearGradient id="SVGID_14_" gradientUnits="userSpaceOnUse" x1="147.4236" y1="99.8216" x2="147.4236" y2="113.5055">
				<stop  offset="0" style="stop-color:#737373"/>
				<stop  offset="0.493" style="stop-color:#383838"/>
				<stop  offset="1" style="stop-color:#000000"/>
			</linearGradient>
			<polygon class="st31" points="264.74,112.28 30.11,112.28 42.1,99.42 252.75,99.42 			"/>
		</g>
	</g>
</g>
</svg>
